%TF.GenerationSoftware,KiCad,Pcbnew,9.0.4*%
%TF.CreationDate,2025-09-16T15:39:33-04:00*%
%TF.ProjectId,mini-lhc-display,6d696e69-2d6c-4686-932d-646973706c61,rev?*%
%TF.SameCoordinates,Original*%
%TF.FileFunction,Legend,Top*%
%TF.FilePolarity,Positive*%
%FSLAX46Y46*%
G04 Gerber Fmt 4.6, Leading zero omitted, Abs format (unit mm)*
G04 Created by KiCad (PCBNEW 9.0.4) date 2025-09-16 15:39:33*
%MOMM*%
%LPD*%
G01*
G04 APERTURE LIST*
%ADD10C,0.500000*%
%ADD11C,0.152400*%
%ADD12C,0.625000*%
%ADD13C,0.300000*%
%ADD14C,0.254000*%
%ADD15C,0.304800*%
%ADD16C,0.381000*%
%ADD17C,0.508000*%
%ADD18C,0.120000*%
%ADD19C,0.100000*%
G04 APERTURE END LIST*
D10*
X103252081Y-34520276D02*
X95971503Y-30636979D01*
X88709894Y-177746276D02*
X96362397Y-174537255D01*
X136164248Y-167005000D02*
X116046261Y-189424385D01*
X53503786Y-165127798D02*
X79211509Y-189442151D01*
X88709894Y-177746276D02*
G75*
G02*
X47624999Y-160655001I7223156J75290036D01*
G01*
X89344894Y-170380276D02*
G75*
G02*
X51999998Y-155000003I6684526J69259496D01*
G01*
D11*
X142748000Y-165100000D02*
X172593000Y-165100000D01*
D10*
X45085000Y-151934529D02*
X36195000Y-148590000D01*
X47625000Y-160655000D02*
X45085000Y-151934529D01*
X36195000Y-148590000D02*
G75*
G02*
X86995000Y-27305002I59488340J46364660D01*
G01*
X79211509Y-189442151D02*
X81711509Y-189442151D01*
X103252087Y-34520276D02*
G75*
G02*
X150260885Y-144372130I-6933187J-67951054D01*
G01*
X146701079Y-56328906D02*
X123888894Y-48203939D01*
D11*
X172593000Y-165100000D02*
X172593000Y-194183000D01*
D10*
X79211509Y-189442151D02*
X79211509Y-191942151D01*
X95971503Y-30636979D02*
X86995026Y-27305000D01*
X104386440Y-27108039D02*
G75*
G02*
X156679348Y-148521138I-8409200J-75589751D01*
G01*
X89344894Y-170380276D02*
X96362397Y-174537255D01*
X139382894Y-155648276D02*
G75*
G02*
X103260894Y-170570279I-44843474J57371886D01*
G01*
X95971503Y-30636979D02*
X88265010Y-34289999D01*
X41526147Y-143425535D02*
G75*
G02*
X88265000Y-34289999I54718953J41141885D01*
G01*
D11*
X142621000Y-194183000D02*
X142621000Y-165100000D01*
D10*
X115959647Y-189457228D02*
X115959647Y-191957228D01*
X52000000Y-155000004D02*
X45085000Y-151934529D01*
X143446894Y-161490276D02*
G75*
G02*
X103153639Y-177820278I-45751934J55014486D01*
G01*
X139382894Y-155648276D02*
X146415119Y-153386718D01*
X104386440Y-27108040D02*
X95971503Y-30636979D01*
X146170894Y-153552251D02*
X156679344Y-148521135D01*
X103260894Y-170570276D02*
X96362397Y-174537255D01*
X45085000Y-151934529D02*
X41684955Y-143635907D01*
X146170894Y-153552251D02*
X143446894Y-161490276D01*
X150260894Y-144372137D02*
X146170894Y-153552251D01*
X169735894Y-61615818D02*
X149765523Y-48926558D01*
X115981045Y-189442151D02*
X113481045Y-189442151D01*
X103153632Y-177820276D02*
X96362397Y-174537255D01*
D11*
X172593000Y-194183000D02*
X142621000Y-194183000D01*
D12*
X22001458Y-160433299D02*
X24382411Y-160433299D01*
X21525268Y-161861871D02*
X23191935Y-156861871D01*
X23191935Y-156861871D02*
X24858601Y-161861871D01*
X28906220Y-161861871D02*
X26525268Y-161861871D01*
X26525268Y-161861871D02*
X26525268Y-156861871D01*
X30572887Y-161861871D02*
X30572887Y-156861871D01*
X35810982Y-161385680D02*
X35572886Y-161623776D01*
X35572886Y-161623776D02*
X34858601Y-161861871D01*
X34858601Y-161861871D02*
X34382410Y-161861871D01*
X34382410Y-161861871D02*
X33668124Y-161623776D01*
X33668124Y-161623776D02*
X33191934Y-161147585D01*
X33191934Y-161147585D02*
X32953839Y-160671395D01*
X32953839Y-160671395D02*
X32715743Y-159719014D01*
X32715743Y-159719014D02*
X32715743Y-159004728D01*
X32715743Y-159004728D02*
X32953839Y-158052347D01*
X32953839Y-158052347D02*
X33191934Y-157576156D01*
X33191934Y-157576156D02*
X33668124Y-157099966D01*
X33668124Y-157099966D02*
X34382410Y-156861871D01*
X34382410Y-156861871D02*
X34858601Y-156861871D01*
X34858601Y-156861871D02*
X35572886Y-157099966D01*
X35572886Y-157099966D02*
X35810982Y-157338061D01*
X37953839Y-159242823D02*
X39620505Y-159242823D01*
X40334791Y-161861871D02*
X37953839Y-161861871D01*
X37953839Y-161861871D02*
X37953839Y-156861871D01*
X37953839Y-156861871D02*
X40334791Y-156861871D01*
D13*
X153078499Y-182977370D02*
X153078499Y-181477370D01*
X153078499Y-181477370D02*
X153578499Y-182548799D01*
X153578499Y-182548799D02*
X154078499Y-181477370D01*
X154078499Y-181477370D02*
X154078499Y-182977370D01*
X155007071Y-182977370D02*
X154864214Y-182905942D01*
X154864214Y-182905942D02*
X154792785Y-182834513D01*
X154792785Y-182834513D02*
X154721357Y-182691656D01*
X154721357Y-182691656D02*
X154721357Y-182263084D01*
X154721357Y-182263084D02*
X154792785Y-182120227D01*
X154792785Y-182120227D02*
X154864214Y-182048799D01*
X154864214Y-182048799D02*
X155007071Y-181977370D01*
X155007071Y-181977370D02*
X155221357Y-181977370D01*
X155221357Y-181977370D02*
X155364214Y-182048799D01*
X155364214Y-182048799D02*
X155435643Y-182120227D01*
X155435643Y-182120227D02*
X155507071Y-182263084D01*
X155507071Y-182263084D02*
X155507071Y-182691656D01*
X155507071Y-182691656D02*
X155435643Y-182834513D01*
X155435643Y-182834513D02*
X155364214Y-182905942D01*
X155364214Y-182905942D02*
X155221357Y-182977370D01*
X155221357Y-182977370D02*
X155007071Y-182977370D01*
X156007071Y-181977370D02*
X156364214Y-182977370D01*
X156364214Y-182977370D02*
X156721357Y-181977370D01*
X157935643Y-182977370D02*
X157935643Y-182191656D01*
X157935643Y-182191656D02*
X157864214Y-182048799D01*
X157864214Y-182048799D02*
X157721357Y-181977370D01*
X157721357Y-181977370D02*
X157435643Y-181977370D01*
X157435643Y-181977370D02*
X157292785Y-182048799D01*
X157935643Y-182905942D02*
X157792785Y-182977370D01*
X157792785Y-182977370D02*
X157435643Y-182977370D01*
X157435643Y-182977370D02*
X157292785Y-182905942D01*
X157292785Y-182905942D02*
X157221357Y-182763084D01*
X157221357Y-182763084D02*
X157221357Y-182620227D01*
X157221357Y-182620227D02*
X157292785Y-182477370D01*
X157292785Y-182477370D02*
X157435643Y-182405942D01*
X157435643Y-182405942D02*
X157792785Y-182405942D01*
X157792785Y-182405942D02*
X157935643Y-182334513D01*
X158649928Y-182977370D02*
X158649928Y-181477370D01*
X158649928Y-182048799D02*
X158792786Y-181977370D01*
X158792786Y-181977370D02*
X159078500Y-181977370D01*
X159078500Y-181977370D02*
X159221357Y-182048799D01*
X159221357Y-182048799D02*
X159292786Y-182120227D01*
X159292786Y-182120227D02*
X159364214Y-182263084D01*
X159364214Y-182263084D02*
X159364214Y-182691656D01*
X159364214Y-182691656D02*
X159292786Y-182834513D01*
X159292786Y-182834513D02*
X159221357Y-182905942D01*
X159221357Y-182905942D02*
X159078500Y-182977370D01*
X159078500Y-182977370D02*
X158792786Y-182977370D01*
X158792786Y-182977370D02*
X158649928Y-182905942D01*
X160221357Y-182977370D02*
X160078500Y-182905942D01*
X160078500Y-182905942D02*
X160007071Y-182763084D01*
X160007071Y-182763084D02*
X160007071Y-181477370D01*
X161364214Y-182905942D02*
X161221357Y-182977370D01*
X161221357Y-182977370D02*
X160935643Y-182977370D01*
X160935643Y-182977370D02*
X160792785Y-182905942D01*
X160792785Y-182905942D02*
X160721357Y-182763084D01*
X160721357Y-182763084D02*
X160721357Y-182191656D01*
X160721357Y-182191656D02*
X160792785Y-182048799D01*
X160792785Y-182048799D02*
X160935643Y-181977370D01*
X160935643Y-181977370D02*
X161221357Y-181977370D01*
X161221357Y-181977370D02*
X161364214Y-182048799D01*
X161364214Y-182048799D02*
X161435643Y-182191656D01*
X161435643Y-182191656D02*
X161435643Y-182334513D01*
X161435643Y-182334513D02*
X160721357Y-182477370D01*
X162007071Y-182905942D02*
X162149928Y-182977370D01*
X162149928Y-182977370D02*
X162435642Y-182977370D01*
X162435642Y-182977370D02*
X162578499Y-182905942D01*
X162578499Y-182905942D02*
X162649928Y-182763084D01*
X162649928Y-182763084D02*
X162649928Y-182691656D01*
X162649928Y-182691656D02*
X162578499Y-182548799D01*
X162578499Y-182548799D02*
X162435642Y-182477370D01*
X162435642Y-182477370D02*
X162221357Y-182477370D01*
X162221357Y-182477370D02*
X162078499Y-182405942D01*
X162078499Y-182405942D02*
X162007071Y-182263084D01*
X162007071Y-182263084D02*
X162007071Y-182191656D01*
X162007071Y-182191656D02*
X162078499Y-182048799D01*
X162078499Y-182048799D02*
X162221357Y-181977370D01*
X162221357Y-181977370D02*
X162435642Y-181977370D01*
X162435642Y-181977370D02*
X162578499Y-182048799D01*
X152292786Y-184963715D02*
X153007072Y-184963715D01*
X152149929Y-185392286D02*
X152649929Y-183892286D01*
X152649929Y-183892286D02*
X153149929Y-185392286D01*
X153864214Y-185392286D02*
X153721357Y-185320858D01*
X153721357Y-185320858D02*
X153649928Y-185178000D01*
X153649928Y-185178000D02*
X153649928Y-183892286D01*
X154649928Y-185392286D02*
X154507071Y-185320858D01*
X154507071Y-185320858D02*
X154435642Y-185178000D01*
X154435642Y-185178000D02*
X154435642Y-183892286D01*
X155435642Y-185392286D02*
X155292785Y-185320858D01*
X155292785Y-185320858D02*
X155221356Y-185249429D01*
X155221356Y-185249429D02*
X155149928Y-185106572D01*
X155149928Y-185106572D02*
X155149928Y-184678000D01*
X155149928Y-184678000D02*
X155221356Y-184535143D01*
X155221356Y-184535143D02*
X155292785Y-184463715D01*
X155292785Y-184463715D02*
X155435642Y-184392286D01*
X155435642Y-184392286D02*
X155649928Y-184392286D01*
X155649928Y-184392286D02*
X155792785Y-184463715D01*
X155792785Y-184463715D02*
X155864214Y-184535143D01*
X155864214Y-184535143D02*
X155935642Y-184678000D01*
X155935642Y-184678000D02*
X155935642Y-185106572D01*
X155935642Y-185106572D02*
X155864214Y-185249429D01*
X155864214Y-185249429D02*
X155792785Y-185320858D01*
X155792785Y-185320858D02*
X155649928Y-185392286D01*
X155649928Y-185392286D02*
X155435642Y-185392286D01*
X156435642Y-184392286D02*
X156721357Y-185392286D01*
X156721357Y-185392286D02*
X157007071Y-184678000D01*
X157007071Y-184678000D02*
X157292785Y-185392286D01*
X157292785Y-185392286D02*
X157578499Y-184392286D01*
X158721357Y-185320858D02*
X158578500Y-185392286D01*
X158578500Y-185392286D02*
X158292786Y-185392286D01*
X158292786Y-185392286D02*
X158149928Y-185320858D01*
X158149928Y-185320858D02*
X158078500Y-185178000D01*
X158078500Y-185178000D02*
X158078500Y-184606572D01*
X158078500Y-184606572D02*
X158149928Y-184463715D01*
X158149928Y-184463715D02*
X158292786Y-184392286D01*
X158292786Y-184392286D02*
X158578500Y-184392286D01*
X158578500Y-184392286D02*
X158721357Y-184463715D01*
X158721357Y-184463715D02*
X158792786Y-184606572D01*
X158792786Y-184606572D02*
X158792786Y-184749429D01*
X158792786Y-184749429D02*
X158078500Y-184892286D01*
X160078500Y-185392286D02*
X160078500Y-183892286D01*
X160078500Y-185320858D02*
X159935642Y-185392286D01*
X159935642Y-185392286D02*
X159649928Y-185392286D01*
X159649928Y-185392286D02*
X159507071Y-185320858D01*
X159507071Y-185320858D02*
X159435642Y-185249429D01*
X159435642Y-185249429D02*
X159364214Y-185106572D01*
X159364214Y-185106572D02*
X159364214Y-184678000D01*
X159364214Y-184678000D02*
X159435642Y-184535143D01*
X159435642Y-184535143D02*
X159507071Y-184463715D01*
X159507071Y-184463715D02*
X159649928Y-184392286D01*
X159649928Y-184392286D02*
X159935642Y-184392286D01*
X159935642Y-184392286D02*
X160078500Y-184463715D01*
X161935642Y-185392286D02*
X161935642Y-183892286D01*
X162649928Y-184392286D02*
X162649928Y-185392286D01*
X162649928Y-184535143D02*
X162721357Y-184463715D01*
X162721357Y-184463715D02*
X162864214Y-184392286D01*
X162864214Y-184392286D02*
X163078500Y-184392286D01*
X163078500Y-184392286D02*
X163221357Y-184463715D01*
X163221357Y-184463715D02*
X163292786Y-184606572D01*
X163292786Y-184606572D02*
X163292786Y-185392286D01*
D12*
X153525506Y-161861871D02*
X151144554Y-161861871D01*
X151144554Y-161861871D02*
X151144554Y-156861871D01*
X155192173Y-161861871D02*
X155192173Y-156861871D01*
X155192173Y-159242823D02*
X158049316Y-159242823D01*
X158049316Y-161861871D02*
X158049316Y-156861871D01*
X163287411Y-161385680D02*
X163049315Y-161623776D01*
X163049315Y-161623776D02*
X162335030Y-161861871D01*
X162335030Y-161861871D02*
X161858839Y-161861871D01*
X161858839Y-161861871D02*
X161144553Y-161623776D01*
X161144553Y-161623776D02*
X160668363Y-161147585D01*
X160668363Y-161147585D02*
X160430268Y-160671395D01*
X160430268Y-160671395D02*
X160192172Y-159719014D01*
X160192172Y-159719014D02*
X160192172Y-159004728D01*
X160192172Y-159004728D02*
X160430268Y-158052347D01*
X160430268Y-158052347D02*
X160668363Y-157576156D01*
X160668363Y-157576156D02*
X161144553Y-157099966D01*
X161144553Y-157099966D02*
X161858839Y-156861871D01*
X161858839Y-156861871D02*
X162335030Y-156861871D01*
X162335030Y-156861871D02*
X163049315Y-157099966D01*
X163049315Y-157099966D02*
X163287411Y-157338061D01*
X165430268Y-161861871D02*
X165430268Y-156861871D01*
X165430268Y-158766633D02*
X165906458Y-158528537D01*
X165906458Y-158528537D02*
X166858839Y-158528537D01*
X166858839Y-158528537D02*
X167335030Y-158766633D01*
X167335030Y-158766633D02*
X167573125Y-159004728D01*
X167573125Y-159004728D02*
X167811220Y-159480918D01*
X167811220Y-159480918D02*
X167811220Y-160909490D01*
X167811220Y-160909490D02*
X167573125Y-161385680D01*
X167573125Y-161385680D02*
X167335030Y-161623776D01*
X167335030Y-161623776D02*
X166858839Y-161861871D01*
X166858839Y-161861871D02*
X165906458Y-161861871D01*
X165906458Y-161861871D02*
X165430268Y-161623776D01*
D14*
X120664459Y-187521262D02*
X121149152Y-186981139D01*
X121852022Y-188099414D02*
X120906805Y-187251201D01*
X122377106Y-187514280D02*
X121431890Y-186666067D01*
X122362067Y-186444452D02*
X122236274Y-186494082D01*
X122236274Y-186494082D02*
X122150873Y-186498701D01*
X122150873Y-186498701D02*
X122020461Y-186462929D01*
X122020461Y-186462929D02*
X121975451Y-186422538D01*
X121975451Y-186422538D02*
X121925821Y-186296746D01*
X121925821Y-186296746D02*
X121921202Y-186211344D01*
X121921202Y-186211344D02*
X121956974Y-186080932D01*
X121956974Y-186080932D02*
X122118539Y-185900891D01*
X122118539Y-185900891D02*
X122244331Y-185851262D01*
X122244331Y-185851262D02*
X122329732Y-185846643D01*
X122329732Y-185846643D02*
X122460144Y-185882414D01*
X122460144Y-185882414D02*
X122505155Y-185922806D01*
X122505155Y-185922806D02*
X122554784Y-186048598D01*
X122554784Y-186048598D02*
X122559403Y-186134000D01*
X122559403Y-186134000D02*
X122523631Y-186264411D01*
X122523631Y-186264411D02*
X122362067Y-186444452D01*
X122362067Y-186444452D02*
X122326295Y-186574864D01*
X122326295Y-186574864D02*
X122330914Y-186660266D01*
X122330914Y-186660266D02*
X122380544Y-186786058D01*
X122380544Y-186786058D02*
X122560585Y-186947623D01*
X122560585Y-186947623D02*
X122690997Y-186983395D01*
X122690997Y-186983395D02*
X122776398Y-186978775D01*
X122776398Y-186978775D02*
X122902191Y-186929146D01*
X122902191Y-186929146D02*
X123063755Y-186749105D01*
X123063755Y-186749105D02*
X123099527Y-186618693D01*
X123099527Y-186618693D02*
X123094908Y-186533291D01*
X123094908Y-186533291D02*
X123045278Y-186407499D01*
X123045278Y-186407499D02*
X122865237Y-186245934D01*
X122865237Y-186245934D02*
X122734825Y-186210163D01*
X122734825Y-186210163D02*
X122649424Y-186214782D01*
X122649424Y-186214782D02*
X122523631Y-186264411D01*
X124235097Y-185443806D02*
X123289881Y-184595592D01*
X124008864Y-184428227D02*
X124639008Y-184993702D01*
X124098885Y-184509009D02*
X124094266Y-184423608D01*
X124094266Y-184423608D02*
X124130038Y-184293196D01*
X124130038Y-184293196D02*
X124251211Y-184158165D01*
X124251211Y-184158165D02*
X124377003Y-184108536D01*
X124377003Y-184108536D02*
X124507415Y-184144307D01*
X124507415Y-184144307D02*
X125002528Y-184588610D01*
X124776296Y-183573031D02*
X125586481Y-184300071D01*
X125586481Y-184300071D02*
X125636111Y-184425863D01*
X125636111Y-184425863D02*
X125600339Y-184556275D01*
X125600339Y-184556275D02*
X125559948Y-184601285D01*
X124461223Y-183290293D02*
X124465843Y-183375694D01*
X124465843Y-183375694D02*
X124551244Y-183371075D01*
X124551244Y-183371075D02*
X124546625Y-183285674D01*
X124546625Y-183285674D02*
X124461223Y-183290293D01*
X124461223Y-183290293D02*
X124551244Y-183371075D01*
X126088470Y-183287930D02*
X126052698Y-183418341D01*
X126052698Y-183418341D02*
X125891133Y-183598383D01*
X125891133Y-183598383D02*
X125765341Y-183648012D01*
X125765341Y-183648012D02*
X125634929Y-183612240D01*
X125634929Y-183612240D02*
X125274847Y-183289111D01*
X125274847Y-183289111D02*
X125225217Y-183163319D01*
X125225217Y-183163319D02*
X125260989Y-183032907D01*
X125260989Y-183032907D02*
X125422553Y-182852866D01*
X125422553Y-182852866D02*
X125548346Y-182803236D01*
X125548346Y-182803236D02*
X125678758Y-182839008D01*
X125678758Y-182839008D02*
X125768778Y-182919790D01*
X125768778Y-182919790D02*
X125454888Y-183450676D01*
X126855900Y-182432734D02*
X126820129Y-182563146D01*
X126820129Y-182563146D02*
X126658564Y-182743187D01*
X126658564Y-182743187D02*
X126532772Y-182792817D01*
X126532772Y-182792817D02*
X126447370Y-182797436D01*
X126447370Y-182797436D02*
X126316958Y-182761664D01*
X126316958Y-182761664D02*
X126046897Y-182519317D01*
X126046897Y-182519317D02*
X125997267Y-182393525D01*
X125997267Y-182393525D02*
X125992648Y-182308123D01*
X125992648Y-182308123D02*
X126028420Y-182177711D01*
X126028420Y-182177711D02*
X126189984Y-181997670D01*
X126189984Y-181997670D02*
X126315777Y-181948041D01*
X126513113Y-181637588D02*
X126836242Y-181277506D01*
X126319214Y-181219819D02*
X127129400Y-181946859D01*
X127129400Y-181946859D02*
X127259811Y-181982631D01*
X127259811Y-181982631D02*
X127385604Y-181933002D01*
X127385604Y-181933002D02*
X127466386Y-181842981D01*
X127749124Y-181527909D02*
X127118979Y-180962434D01*
X126803907Y-180679696D02*
X126808526Y-180765097D01*
X126808526Y-180765097D02*
X126893928Y-180760478D01*
X126893928Y-180760478D02*
X126889309Y-180675077D01*
X126889309Y-180675077D02*
X126803907Y-180679696D01*
X126803907Y-180679696D02*
X126893928Y-180760478D01*
X128274208Y-180942775D02*
X128148416Y-180992405D01*
X128148416Y-180992405D02*
X128063014Y-180997024D01*
X128063014Y-180997024D02*
X127932602Y-180961252D01*
X127932602Y-180961252D02*
X127662541Y-180718905D01*
X127662541Y-180718905D02*
X127612911Y-180593113D01*
X127612911Y-180593113D02*
X127608292Y-180507711D01*
X127608292Y-180507711D02*
X127644064Y-180377300D01*
X127644064Y-180377300D02*
X127765237Y-180242269D01*
X127765237Y-180242269D02*
X127891030Y-180192639D01*
X127891030Y-180192639D02*
X127976431Y-180188020D01*
X127976431Y-180188020D02*
X128106843Y-180223792D01*
X128106843Y-180223792D02*
X128376905Y-180466139D01*
X128376905Y-180466139D02*
X128426534Y-180591931D01*
X128426534Y-180591931D02*
X128431153Y-180677333D01*
X128431153Y-180677333D02*
X128395381Y-180807744D01*
X128395381Y-180807744D02*
X128274208Y-180942775D01*
X128290322Y-179657134D02*
X128920466Y-180222610D01*
X128380342Y-179737917D02*
X128375723Y-179652515D01*
X128375723Y-179652515D02*
X128411495Y-179522104D01*
X128411495Y-179522104D02*
X128532669Y-179387073D01*
X128532669Y-179387073D02*
X128658461Y-179337443D01*
X128658461Y-179337443D02*
X128788873Y-179373215D01*
X128788873Y-179373215D02*
X129283986Y-179817517D01*
X129267765Y-177934067D02*
X129752459Y-177393943D01*
X130455329Y-178512218D02*
X129510112Y-177664005D01*
X130713789Y-176956516D02*
X131343933Y-177521991D01*
X130350269Y-177361609D02*
X130845382Y-177805911D01*
X130845382Y-177805911D02*
X130975794Y-177841683D01*
X130975794Y-177841683D02*
X131101586Y-177792053D01*
X131101586Y-177792053D02*
X131222760Y-177657022D01*
X131222760Y-177657022D02*
X131258532Y-177526611D01*
X131258532Y-177526611D02*
X131253912Y-177441209D01*
X131117700Y-176506412D02*
X131747844Y-177071888D01*
X131207721Y-176587195D02*
X131203102Y-176501793D01*
X131203102Y-176501793D02*
X131238873Y-176371382D01*
X131238873Y-176371382D02*
X131360047Y-176236351D01*
X131360047Y-176236351D02*
X131485839Y-176186721D01*
X131485839Y-176186721D02*
X131616251Y-176222493D01*
X131616251Y-176222493D02*
X132111364Y-176666795D01*
X131885131Y-175651216D02*
X132515276Y-176216692D01*
X131975152Y-175731999D02*
X131970533Y-175646597D01*
X131970533Y-175646597D02*
X132006305Y-175516185D01*
X132006305Y-175516185D02*
X132127478Y-175381155D01*
X132127478Y-175381155D02*
X132253271Y-175331525D01*
X132253271Y-175331525D02*
X132383682Y-175367297D01*
X132383682Y-175367297D02*
X132878796Y-175811599D01*
X133560826Y-174961022D02*
X133525054Y-175091434D01*
X133525054Y-175091434D02*
X133363489Y-175271475D01*
X133363489Y-175271475D02*
X133237697Y-175321105D01*
X133237697Y-175321105D02*
X133107285Y-175285333D01*
X133107285Y-175285333D02*
X132747203Y-174962204D01*
X132747203Y-174962204D02*
X132697573Y-174836411D01*
X132697573Y-174836411D02*
X132733345Y-174706000D01*
X132733345Y-174706000D02*
X132894909Y-174525958D01*
X132894909Y-174525958D02*
X133020702Y-174476329D01*
X133020702Y-174476329D02*
X133151114Y-174512101D01*
X133151114Y-174512101D02*
X133241134Y-174592883D01*
X133241134Y-174592883D02*
X132927244Y-175123768D01*
X134130920Y-174416280D02*
X134005128Y-174465909D01*
X134005128Y-174465909D02*
X133874716Y-174430137D01*
X133874716Y-174430137D02*
X133064530Y-173703097D01*
D11*
X111453710Y-190734457D02*
X111616996Y-190788885D01*
X111616996Y-190788885D02*
X111671425Y-190843314D01*
X111671425Y-190843314D02*
X111725853Y-190952171D01*
X111725853Y-190952171D02*
X111725853Y-191115457D01*
X111725853Y-191115457D02*
X111671425Y-191224314D01*
X111671425Y-191224314D02*
X111616996Y-191278743D01*
X111616996Y-191278743D02*
X111508139Y-191333171D01*
X111508139Y-191333171D02*
X111072710Y-191333171D01*
X111072710Y-191333171D02*
X111072710Y-190190171D01*
X111072710Y-190190171D02*
X111453710Y-190190171D01*
X111453710Y-190190171D02*
X111562568Y-190244600D01*
X111562568Y-190244600D02*
X111616996Y-190299028D01*
X111616996Y-190299028D02*
X111671425Y-190407885D01*
X111671425Y-190407885D02*
X111671425Y-190516743D01*
X111671425Y-190516743D02*
X111616996Y-190625600D01*
X111616996Y-190625600D02*
X111562568Y-190680028D01*
X111562568Y-190680028D02*
X111453710Y-190734457D01*
X111453710Y-190734457D02*
X111072710Y-190734457D01*
X112651139Y-191278743D02*
X112542282Y-191333171D01*
X112542282Y-191333171D02*
X112324568Y-191333171D01*
X112324568Y-191333171D02*
X112215710Y-191278743D01*
X112215710Y-191278743D02*
X112161282Y-191169885D01*
X112161282Y-191169885D02*
X112161282Y-190734457D01*
X112161282Y-190734457D02*
X112215710Y-190625600D01*
X112215710Y-190625600D02*
X112324568Y-190571171D01*
X112324568Y-190571171D02*
X112542282Y-190571171D01*
X112542282Y-190571171D02*
X112651139Y-190625600D01*
X112651139Y-190625600D02*
X112705568Y-190734457D01*
X112705568Y-190734457D02*
X112705568Y-190843314D01*
X112705568Y-190843314D02*
X112161282Y-190952171D01*
X113685282Y-191333171D02*
X113685282Y-190734457D01*
X113685282Y-190734457D02*
X113630853Y-190625600D01*
X113630853Y-190625600D02*
X113521996Y-190571171D01*
X113521996Y-190571171D02*
X113304282Y-190571171D01*
X113304282Y-190571171D02*
X113195424Y-190625600D01*
X113685282Y-191278743D02*
X113576424Y-191333171D01*
X113576424Y-191333171D02*
X113304282Y-191333171D01*
X113304282Y-191333171D02*
X113195424Y-191278743D01*
X113195424Y-191278743D02*
X113140996Y-191169885D01*
X113140996Y-191169885D02*
X113140996Y-191061028D01*
X113140996Y-191061028D02*
X113195424Y-190952171D01*
X113195424Y-190952171D02*
X113304282Y-190897743D01*
X113304282Y-190897743D02*
X113576424Y-190897743D01*
X113576424Y-190897743D02*
X113685282Y-190843314D01*
X114229567Y-191333171D02*
X114229567Y-190571171D01*
X114229567Y-190680028D02*
X114283996Y-190625600D01*
X114283996Y-190625600D02*
X114392853Y-190571171D01*
X114392853Y-190571171D02*
X114556139Y-190571171D01*
X114556139Y-190571171D02*
X114664996Y-190625600D01*
X114664996Y-190625600D02*
X114719425Y-190734457D01*
X114719425Y-190734457D02*
X114719425Y-191333171D01*
X114719425Y-190734457D02*
X114773853Y-190625600D01*
X114773853Y-190625600D02*
X114882710Y-190571171D01*
X114882710Y-190571171D02*
X115045996Y-190571171D01*
X115045996Y-190571171D02*
X115154853Y-190625600D01*
X115154853Y-190625600D02*
X115209282Y-190734457D01*
X115209282Y-190734457D02*
X115209282Y-191333171D01*
X111290425Y-192411337D02*
X111725853Y-192411337D01*
X111453710Y-193173337D02*
X111453710Y-192193623D01*
X111453710Y-192193623D02*
X111508139Y-192084766D01*
X111508139Y-192084766D02*
X111616996Y-192030337D01*
X111616996Y-192030337D02*
X111725853Y-192030337D01*
X112106853Y-193173337D02*
X112106853Y-192411337D01*
X112106853Y-192629051D02*
X112161282Y-192520194D01*
X112161282Y-192520194D02*
X112215711Y-192465766D01*
X112215711Y-192465766D02*
X112324568Y-192411337D01*
X112324568Y-192411337D02*
X112433425Y-192411337D01*
X112977710Y-193173337D02*
X112868853Y-193118909D01*
X112868853Y-193118909D02*
X112814424Y-193064480D01*
X112814424Y-193064480D02*
X112759996Y-192955623D01*
X112759996Y-192955623D02*
X112759996Y-192629051D01*
X112759996Y-192629051D02*
X112814424Y-192520194D01*
X112814424Y-192520194D02*
X112868853Y-192465766D01*
X112868853Y-192465766D02*
X112977710Y-192411337D01*
X112977710Y-192411337D02*
X113140996Y-192411337D01*
X113140996Y-192411337D02*
X113249853Y-192465766D01*
X113249853Y-192465766D02*
X113304282Y-192520194D01*
X113304282Y-192520194D02*
X113358710Y-192629051D01*
X113358710Y-192629051D02*
X113358710Y-192955623D01*
X113358710Y-192955623D02*
X113304282Y-193064480D01*
X113304282Y-193064480D02*
X113249853Y-193118909D01*
X113249853Y-193118909D02*
X113140996Y-193173337D01*
X113140996Y-193173337D02*
X112977710Y-193173337D01*
X113848567Y-193173337D02*
X113848567Y-192411337D01*
X113848567Y-192520194D02*
X113902996Y-192465766D01*
X113902996Y-192465766D02*
X114011853Y-192411337D01*
X114011853Y-192411337D02*
X114175139Y-192411337D01*
X114175139Y-192411337D02*
X114283996Y-192465766D01*
X114283996Y-192465766D02*
X114338425Y-192574623D01*
X114338425Y-192574623D02*
X114338425Y-193173337D01*
X114338425Y-192574623D02*
X114392853Y-192465766D01*
X114392853Y-192465766D02*
X114501710Y-192411337D01*
X114501710Y-192411337D02*
X114664996Y-192411337D01*
X114664996Y-192411337D02*
X114773853Y-192465766D01*
X114773853Y-192465766D02*
X114828282Y-192574623D01*
X114828282Y-192574623D02*
X114828282Y-193173337D01*
X111698639Y-194959075D02*
X111861925Y-195013503D01*
X111861925Y-195013503D02*
X112134067Y-195013503D01*
X112134067Y-195013503D02*
X112242925Y-194959075D01*
X112242925Y-194959075D02*
X112297353Y-194904646D01*
X112297353Y-194904646D02*
X112351782Y-194795789D01*
X112351782Y-194795789D02*
X112351782Y-194686932D01*
X112351782Y-194686932D02*
X112297353Y-194578075D01*
X112297353Y-194578075D02*
X112242925Y-194523646D01*
X112242925Y-194523646D02*
X112134067Y-194469217D01*
X112134067Y-194469217D02*
X111916353Y-194414789D01*
X111916353Y-194414789D02*
X111807496Y-194360360D01*
X111807496Y-194360360D02*
X111753067Y-194305932D01*
X111753067Y-194305932D02*
X111698639Y-194197075D01*
X111698639Y-194197075D02*
X111698639Y-194088217D01*
X111698639Y-194088217D02*
X111753067Y-193979360D01*
X111753067Y-193979360D02*
X111807496Y-193924932D01*
X111807496Y-193924932D02*
X111916353Y-193870503D01*
X111916353Y-193870503D02*
X112188496Y-193870503D01*
X112188496Y-193870503D02*
X112351782Y-193924932D01*
X112841638Y-195013503D02*
X112841638Y-193870503D01*
X112841638Y-193870503D02*
X113277067Y-193870503D01*
X113277067Y-193870503D02*
X113385924Y-193924932D01*
X113385924Y-193924932D02*
X113440353Y-193979360D01*
X113440353Y-193979360D02*
X113494781Y-194088217D01*
X113494781Y-194088217D02*
X113494781Y-194251503D01*
X113494781Y-194251503D02*
X113440353Y-194360360D01*
X113440353Y-194360360D02*
X113385924Y-194414789D01*
X113385924Y-194414789D02*
X113277067Y-194469217D01*
X113277067Y-194469217D02*
X112841638Y-194469217D01*
X113930210Y-194959075D02*
X114093496Y-195013503D01*
X114093496Y-195013503D02*
X114365638Y-195013503D01*
X114365638Y-195013503D02*
X114474496Y-194959075D01*
X114474496Y-194959075D02*
X114528924Y-194904646D01*
X114528924Y-194904646D02*
X114583353Y-194795789D01*
X114583353Y-194795789D02*
X114583353Y-194686932D01*
X114583353Y-194686932D02*
X114528924Y-194578075D01*
X114528924Y-194578075D02*
X114474496Y-194523646D01*
X114474496Y-194523646D02*
X114365638Y-194469217D01*
X114365638Y-194469217D02*
X114147924Y-194414789D01*
X114147924Y-194414789D02*
X114039067Y-194360360D01*
X114039067Y-194360360D02*
X113984638Y-194305932D01*
X113984638Y-194305932D02*
X113930210Y-194197075D01*
X113930210Y-194197075D02*
X113930210Y-194088217D01*
X113930210Y-194088217D02*
X113984638Y-193979360D01*
X113984638Y-193979360D02*
X114039067Y-193924932D01*
X114039067Y-193924932D02*
X114147924Y-193870503D01*
X114147924Y-193870503D02*
X114420067Y-193870503D01*
X114420067Y-193870503D02*
X114583353Y-193924932D01*
D14*
X36631952Y-186364130D02*
X36813380Y-186424606D01*
X36813380Y-186424606D02*
X36873857Y-186485082D01*
X36873857Y-186485082D02*
X36934333Y-186606034D01*
X36934333Y-186606034D02*
X36934333Y-186787463D01*
X36934333Y-186787463D02*
X36873857Y-186908415D01*
X36873857Y-186908415D02*
X36813380Y-186968892D01*
X36813380Y-186968892D02*
X36692428Y-187029368D01*
X36692428Y-187029368D02*
X36208618Y-187029368D01*
X36208618Y-187029368D02*
X36208618Y-185759368D01*
X36208618Y-185759368D02*
X36631952Y-185759368D01*
X36631952Y-185759368D02*
X36752904Y-185819844D01*
X36752904Y-185819844D02*
X36813380Y-185880320D01*
X36813380Y-185880320D02*
X36873857Y-186001272D01*
X36873857Y-186001272D02*
X36873857Y-186122225D01*
X36873857Y-186122225D02*
X36813380Y-186243177D01*
X36813380Y-186243177D02*
X36752904Y-186303653D01*
X36752904Y-186303653D02*
X36631952Y-186364130D01*
X36631952Y-186364130D02*
X36208618Y-186364130D01*
X38143857Y-187029368D02*
X37418142Y-187029368D01*
X37780999Y-187029368D02*
X37780999Y-185759368D01*
X37780999Y-185759368D02*
X37660047Y-185940796D01*
X37660047Y-185940796D02*
X37539095Y-186061749D01*
X37539095Y-186061749D02*
X37418142Y-186122225D01*
D12*
X86877142Y-183982023D02*
X89258095Y-183982023D01*
X86400952Y-185410595D02*
X88067619Y-180410595D01*
X88067619Y-180410595D02*
X89734285Y-185410595D01*
X90686666Y-180410595D02*
X93543809Y-180410595D01*
X92115237Y-185410595D02*
X92115237Y-180410595D01*
X97591428Y-185410595D02*
X95210476Y-185410595D01*
X95210476Y-185410595D02*
X95210476Y-180410595D01*
X99019999Y-183982023D02*
X101400952Y-183982023D01*
X98543809Y-185410595D02*
X100210476Y-180410595D01*
X100210476Y-180410595D02*
X101877142Y-185410595D01*
X103305713Y-185172500D02*
X104019999Y-185410595D01*
X104019999Y-185410595D02*
X105210475Y-185410595D01*
X105210475Y-185410595D02*
X105686666Y-185172500D01*
X105686666Y-185172500D02*
X105924761Y-184934404D01*
X105924761Y-184934404D02*
X106162856Y-184458214D01*
X106162856Y-184458214D02*
X106162856Y-183982023D01*
X106162856Y-183982023D02*
X105924761Y-183505833D01*
X105924761Y-183505833D02*
X105686666Y-183267738D01*
X105686666Y-183267738D02*
X105210475Y-183029642D01*
X105210475Y-183029642D02*
X104258094Y-182791547D01*
X104258094Y-182791547D02*
X103781904Y-182553452D01*
X103781904Y-182553452D02*
X103543809Y-182315357D01*
X103543809Y-182315357D02*
X103305713Y-181839166D01*
X103305713Y-181839166D02*
X103305713Y-181362976D01*
X103305713Y-181362976D02*
X103543809Y-180886785D01*
X103543809Y-180886785D02*
X103781904Y-180648690D01*
X103781904Y-180648690D02*
X104258094Y-180410595D01*
X104258094Y-180410595D02*
X105448571Y-180410595D01*
X105448571Y-180410595D02*
X106162856Y-180648690D01*
D13*
X34901857Y-175552971D02*
X34830429Y-175624400D01*
X34830429Y-175624400D02*
X34616143Y-175695828D01*
X34616143Y-175695828D02*
X34473286Y-175695828D01*
X34473286Y-175695828D02*
X34259000Y-175624400D01*
X34259000Y-175624400D02*
X34116143Y-175481542D01*
X34116143Y-175481542D02*
X34044714Y-175338685D01*
X34044714Y-175338685D02*
X33973286Y-175052971D01*
X33973286Y-175052971D02*
X33973286Y-174838685D01*
X33973286Y-174838685D02*
X34044714Y-174552971D01*
X34044714Y-174552971D02*
X34116143Y-174410114D01*
X34116143Y-174410114D02*
X34259000Y-174267257D01*
X34259000Y-174267257D02*
X34473286Y-174195828D01*
X34473286Y-174195828D02*
X34616143Y-174195828D01*
X34616143Y-174195828D02*
X34830429Y-174267257D01*
X34830429Y-174267257D02*
X34901857Y-174338685D01*
X35544714Y-175695828D02*
X35544714Y-174695828D01*
X35544714Y-174981542D02*
X35616143Y-174838685D01*
X35616143Y-174838685D02*
X35687572Y-174767257D01*
X35687572Y-174767257D02*
X35830429Y-174695828D01*
X35830429Y-174695828D02*
X35973286Y-174695828D01*
X36330428Y-174695828D02*
X36687571Y-175695828D01*
X37044714Y-174695828D02*
X36687571Y-175695828D01*
X36687571Y-175695828D02*
X36544714Y-176052971D01*
X36544714Y-176052971D02*
X36473285Y-176124400D01*
X36473285Y-176124400D02*
X36330428Y-176195828D01*
X37830428Y-175695828D02*
X37687571Y-175624400D01*
X37687571Y-175624400D02*
X37616142Y-175552971D01*
X37616142Y-175552971D02*
X37544714Y-175410114D01*
X37544714Y-175410114D02*
X37544714Y-174981542D01*
X37544714Y-174981542D02*
X37616142Y-174838685D01*
X37616142Y-174838685D02*
X37687571Y-174767257D01*
X37687571Y-174767257D02*
X37830428Y-174695828D01*
X37830428Y-174695828D02*
X38044714Y-174695828D01*
X38044714Y-174695828D02*
X38187571Y-174767257D01*
X38187571Y-174767257D02*
X38259000Y-174838685D01*
X38259000Y-174838685D02*
X38330428Y-174981542D01*
X38330428Y-174981542D02*
X38330428Y-175410114D01*
X38330428Y-175410114D02*
X38259000Y-175552971D01*
X38259000Y-175552971D02*
X38187571Y-175624400D01*
X38187571Y-175624400D02*
X38044714Y-175695828D01*
X38044714Y-175695828D02*
X37830428Y-175695828D01*
X40044714Y-175624400D02*
X40259000Y-175695828D01*
X40259000Y-175695828D02*
X40616142Y-175695828D01*
X40616142Y-175695828D02*
X40759000Y-175624400D01*
X40759000Y-175624400D02*
X40830428Y-175552971D01*
X40830428Y-175552971D02*
X40901857Y-175410114D01*
X40901857Y-175410114D02*
X40901857Y-175267257D01*
X40901857Y-175267257D02*
X40830428Y-175124400D01*
X40830428Y-175124400D02*
X40759000Y-175052971D01*
X40759000Y-175052971D02*
X40616142Y-174981542D01*
X40616142Y-174981542D02*
X40330428Y-174910114D01*
X40330428Y-174910114D02*
X40187571Y-174838685D01*
X40187571Y-174838685D02*
X40116142Y-174767257D01*
X40116142Y-174767257D02*
X40044714Y-174624400D01*
X40044714Y-174624400D02*
X40044714Y-174481542D01*
X40044714Y-174481542D02*
X40116142Y-174338685D01*
X40116142Y-174338685D02*
X40187571Y-174267257D01*
X40187571Y-174267257D02*
X40330428Y-174195828D01*
X40330428Y-174195828D02*
X40687571Y-174195828D01*
X40687571Y-174195828D02*
X40901857Y-174267257D01*
X41330428Y-174695828D02*
X41901856Y-174695828D01*
X41544713Y-174195828D02*
X41544713Y-175481542D01*
X41544713Y-175481542D02*
X41616142Y-175624400D01*
X41616142Y-175624400D02*
X41758999Y-175695828D01*
X41758999Y-175695828D02*
X41901856Y-175695828D01*
X43044714Y-175695828D02*
X43044714Y-174910114D01*
X43044714Y-174910114D02*
X42973285Y-174767257D01*
X42973285Y-174767257D02*
X42830428Y-174695828D01*
X42830428Y-174695828D02*
X42544714Y-174695828D01*
X42544714Y-174695828D02*
X42401856Y-174767257D01*
X43044714Y-175624400D02*
X42901856Y-175695828D01*
X42901856Y-175695828D02*
X42544714Y-175695828D01*
X42544714Y-175695828D02*
X42401856Y-175624400D01*
X42401856Y-175624400D02*
X42330428Y-175481542D01*
X42330428Y-175481542D02*
X42330428Y-175338685D01*
X42330428Y-175338685D02*
X42401856Y-175195828D01*
X42401856Y-175195828D02*
X42544714Y-175124400D01*
X42544714Y-175124400D02*
X42901856Y-175124400D01*
X42901856Y-175124400D02*
X43044714Y-175052971D01*
X43544714Y-174695828D02*
X44116142Y-174695828D01*
X43758999Y-174195828D02*
X43758999Y-175481542D01*
X43758999Y-175481542D02*
X43830428Y-175624400D01*
X43830428Y-175624400D02*
X43973285Y-175695828D01*
X43973285Y-175695828D02*
X44116142Y-175695828D01*
X45259000Y-174695828D02*
X45259000Y-175695828D01*
X44616142Y-174695828D02*
X44616142Y-175481542D01*
X44616142Y-175481542D02*
X44687571Y-175624400D01*
X44687571Y-175624400D02*
X44830428Y-175695828D01*
X44830428Y-175695828D02*
X45044714Y-175695828D01*
X45044714Y-175695828D02*
X45187571Y-175624400D01*
X45187571Y-175624400D02*
X45259000Y-175552971D01*
X45901857Y-175624400D02*
X46044714Y-175695828D01*
X46044714Y-175695828D02*
X46330428Y-175695828D01*
X46330428Y-175695828D02*
X46473285Y-175624400D01*
X46473285Y-175624400D02*
X46544714Y-175481542D01*
X46544714Y-175481542D02*
X46544714Y-175410114D01*
X46544714Y-175410114D02*
X46473285Y-175267257D01*
X46473285Y-175267257D02*
X46330428Y-175195828D01*
X46330428Y-175195828D02*
X46116143Y-175195828D01*
X46116143Y-175195828D02*
X45973285Y-175124400D01*
X45973285Y-175124400D02*
X45901857Y-174981542D01*
X45901857Y-174981542D02*
X45901857Y-174910114D01*
X45901857Y-174910114D02*
X45973285Y-174767257D01*
X45973285Y-174767257D02*
X46116143Y-174695828D01*
X46116143Y-174695828D02*
X46330428Y-174695828D01*
X46330428Y-174695828D02*
X46473285Y-174767257D01*
D14*
X60577247Y-174864914D02*
X61104498Y-175363580D01*
X59968207Y-176036936D02*
X60840872Y-175114247D01*
X60539395Y-176577158D02*
X61412060Y-175654469D01*
X61724388Y-176116344D02*
X61809881Y-176113962D01*
X61809881Y-176113962D02*
X61939311Y-176153135D01*
X61939311Y-176153135D02*
X62158999Y-176360913D01*
X62158999Y-176360913D02*
X62205319Y-176487961D01*
X62205319Y-176487961D02*
X62207701Y-176573454D01*
X62207701Y-176573454D02*
X62168527Y-176702885D01*
X62168527Y-176702885D02*
X62085416Y-176790760D01*
X62085416Y-176790760D02*
X61916812Y-176881017D01*
X61916812Y-176881017D02*
X60890896Y-176909602D01*
X60890896Y-176909602D02*
X61462084Y-177449823D01*
X62560523Y-178488711D02*
X63433189Y-177566022D01*
X63581676Y-178289140D02*
X62999899Y-178904266D01*
X63498565Y-178377015D02*
X63584058Y-178374633D01*
X63584058Y-178374633D02*
X63713489Y-178413807D01*
X63713489Y-178413807D02*
X63845301Y-178538473D01*
X63845301Y-178538473D02*
X63891621Y-178665522D01*
X63891621Y-178665522D02*
X63852448Y-178794953D01*
X63852448Y-178794953D02*
X63395337Y-179278266D01*
X64416490Y-179078695D02*
X63668491Y-179869571D01*
X63668491Y-179869571D02*
X63541442Y-179915891D01*
X63541442Y-179915891D02*
X63412012Y-179876717D01*
X63412012Y-179876717D02*
X63368074Y-179835162D01*
X64707379Y-178771132D02*
X64621885Y-178773514D01*
X64621885Y-178773514D02*
X64624268Y-178859007D01*
X64624268Y-178859007D02*
X64709761Y-178856625D01*
X64709761Y-178856625D02*
X64707379Y-178771132D01*
X64707379Y-178771132D02*
X64624268Y-178859007D01*
X64667145Y-180397883D02*
X64537714Y-180358709D01*
X64537714Y-180358709D02*
X64361964Y-180192487D01*
X64361964Y-180192487D02*
X64315644Y-180065439D01*
X64315644Y-180065439D02*
X64354818Y-179936008D01*
X64354818Y-179936008D02*
X64687262Y-179584507D01*
X64687262Y-179584507D02*
X64814310Y-179538188D01*
X64814310Y-179538188D02*
X64943741Y-179577361D01*
X64943741Y-179577361D02*
X65119491Y-179743583D01*
X65119491Y-179743583D02*
X65165811Y-179870632D01*
X65165811Y-179870632D02*
X65126637Y-180000062D01*
X65126637Y-180000062D02*
X65043526Y-180087938D01*
X65043526Y-180087938D02*
X64521040Y-179760258D01*
X65501958Y-181187437D02*
X65372528Y-181148263D01*
X65372528Y-181148263D02*
X65196777Y-180982041D01*
X65196777Y-180982041D02*
X65150458Y-180854993D01*
X65150458Y-180854993D02*
X65148076Y-180769500D01*
X65148076Y-180769500D02*
X65187249Y-180640069D01*
X65187249Y-180640069D02*
X65436582Y-180376444D01*
X65436582Y-180376444D02*
X65563631Y-180330124D01*
X65563631Y-180330124D02*
X65649124Y-180327742D01*
X65649124Y-180327742D02*
X65778554Y-180366915D01*
X65778554Y-180366915D02*
X65954305Y-180533137D01*
X65954305Y-180533137D02*
X66000624Y-180660186D01*
X66305805Y-180865581D02*
X66657305Y-181198025D01*
X66728506Y-180682685D02*
X65980507Y-181473561D01*
X65980507Y-181473561D02*
X65941334Y-181602992D01*
X65941334Y-181602992D02*
X65987653Y-181730040D01*
X65987653Y-181730040D02*
X66075528Y-181813151D01*
X66383091Y-182104039D02*
X66964868Y-181488914D01*
X67255757Y-181181351D02*
X67170264Y-181183733D01*
X67170264Y-181183733D02*
X67172646Y-181269226D01*
X67172646Y-181269226D02*
X67258139Y-181266844D01*
X67258139Y-181266844D02*
X67255757Y-181181351D01*
X67255757Y-181181351D02*
X67172646Y-181269226D01*
X66954280Y-182644261D02*
X66907960Y-182517212D01*
X66907960Y-182517212D02*
X66905578Y-182431719D01*
X66905578Y-182431719D02*
X66944751Y-182302289D01*
X66944751Y-182302289D02*
X67194084Y-182038663D01*
X67194084Y-182038663D02*
X67321133Y-181992344D01*
X67321133Y-181992344D02*
X67406626Y-181989962D01*
X67406626Y-181989962D02*
X67536057Y-182029135D01*
X67536057Y-182029135D02*
X67667869Y-182153802D01*
X67667869Y-182153802D02*
X67714189Y-182280850D01*
X67714189Y-182280850D02*
X67716571Y-182366343D01*
X67716571Y-182366343D02*
X67677398Y-182495774D01*
X67677398Y-182495774D02*
X67428065Y-182759399D01*
X67428065Y-182759399D02*
X67301016Y-182805719D01*
X67301016Y-182805719D02*
X67215523Y-182808101D01*
X67215523Y-182808101D02*
X67086092Y-182768928D01*
X67086092Y-182768928D02*
X66954280Y-182644261D01*
X68239058Y-182694023D02*
X67657281Y-183309149D01*
X68155947Y-182781899D02*
X68241440Y-182779517D01*
X68241440Y-182779517D02*
X68370871Y-182818690D01*
X68370871Y-182818690D02*
X68502683Y-182943356D01*
X68502683Y-182943356D02*
X68549003Y-183070405D01*
X68549003Y-183070405D02*
X68509830Y-183199836D01*
X68509830Y-183199836D02*
X68052719Y-183683149D01*
X69935949Y-183716237D02*
X70463200Y-184214903D01*
X69326909Y-184888259D02*
X70199574Y-183965570D01*
X70875312Y-185187354D02*
X70293535Y-185802480D01*
X70479874Y-184813354D02*
X70022764Y-185296668D01*
X70022764Y-185296668D02*
X69983590Y-185426098D01*
X69983590Y-185426098D02*
X70029910Y-185553147D01*
X70029910Y-185553147D02*
X70161722Y-185677813D01*
X70161722Y-185677813D02*
X70291153Y-185716987D01*
X70291153Y-185716987D02*
X70376646Y-185714605D01*
X71314688Y-185602909D02*
X70732911Y-186218035D01*
X71231577Y-185690784D02*
X71317070Y-185688402D01*
X71317070Y-185688402D02*
X71446501Y-185727576D01*
X71446501Y-185727576D02*
X71578314Y-185852242D01*
X71578314Y-185852242D02*
X71624633Y-185979291D01*
X71624633Y-185979291D02*
X71585460Y-186108721D01*
X71585460Y-186108721D02*
X71128349Y-186592035D01*
X72149502Y-186392464D02*
X71567725Y-187007590D01*
X72066391Y-186480339D02*
X72151884Y-186477957D01*
X72151884Y-186477957D02*
X72281315Y-186517130D01*
X72281315Y-186517130D02*
X72413128Y-186641797D01*
X72413128Y-186641797D02*
X72459447Y-186768845D01*
X72459447Y-186768845D02*
X72420274Y-186898276D01*
X72420274Y-186898276D02*
X71963163Y-187381589D01*
X72795595Y-188085651D02*
X72666165Y-188046478D01*
X72666165Y-188046478D02*
X72490414Y-187880256D01*
X72490414Y-187880256D02*
X72444095Y-187753207D01*
X72444095Y-187753207D02*
X72483268Y-187623776D01*
X72483268Y-187623776D02*
X72815712Y-187272276D01*
X72815712Y-187272276D02*
X72942761Y-187225956D01*
X72942761Y-187225956D02*
X73072191Y-187265130D01*
X73072191Y-187265130D02*
X73247942Y-187431352D01*
X73247942Y-187431352D02*
X73294261Y-187558400D01*
X73294261Y-187558400D02*
X73255088Y-187687831D01*
X73255088Y-187687831D02*
X73171977Y-187775706D01*
X73171977Y-187775706D02*
X72649490Y-187448026D01*
X73325228Y-188669810D02*
X73278908Y-188542761D01*
X73278908Y-188542761D02*
X73318082Y-188413331D01*
X73318082Y-188413331D02*
X74066081Y-187622454D01*
D13*
X31417714Y-184061971D02*
X31346286Y-184133400D01*
X31346286Y-184133400D02*
X31132000Y-184204828D01*
X31132000Y-184204828D02*
X30989143Y-184204828D01*
X30989143Y-184204828D02*
X30774857Y-184133400D01*
X30774857Y-184133400D02*
X30632000Y-183990542D01*
X30632000Y-183990542D02*
X30560571Y-183847685D01*
X30560571Y-183847685D02*
X30489143Y-183561971D01*
X30489143Y-183561971D02*
X30489143Y-183347685D01*
X30489143Y-183347685D02*
X30560571Y-183061971D01*
X30560571Y-183061971D02*
X30632000Y-182919114D01*
X30632000Y-182919114D02*
X30774857Y-182776257D01*
X30774857Y-182776257D02*
X30989143Y-182704828D01*
X30989143Y-182704828D02*
X31132000Y-182704828D01*
X31132000Y-182704828D02*
X31346286Y-182776257D01*
X31346286Y-182776257D02*
X31417714Y-182847685D01*
X32274857Y-184204828D02*
X32132000Y-184133400D01*
X32132000Y-184133400D02*
X32060571Y-184061971D01*
X32060571Y-184061971D02*
X31989143Y-183919114D01*
X31989143Y-183919114D02*
X31989143Y-183490542D01*
X31989143Y-183490542D02*
X32060571Y-183347685D01*
X32060571Y-183347685D02*
X32132000Y-183276257D01*
X32132000Y-183276257D02*
X32274857Y-183204828D01*
X32274857Y-183204828D02*
X32489143Y-183204828D01*
X32489143Y-183204828D02*
X32632000Y-183276257D01*
X32632000Y-183276257D02*
X32703429Y-183347685D01*
X32703429Y-183347685D02*
X32774857Y-183490542D01*
X32774857Y-183490542D02*
X32774857Y-183919114D01*
X32774857Y-183919114D02*
X32703429Y-184061971D01*
X32703429Y-184061971D02*
X32632000Y-184133400D01*
X32632000Y-184133400D02*
X32489143Y-184204828D01*
X32489143Y-184204828D02*
X32274857Y-184204828D01*
X33632000Y-184204828D02*
X33489143Y-184133400D01*
X33489143Y-184133400D02*
X33417714Y-183990542D01*
X33417714Y-183990542D02*
X33417714Y-182704828D01*
X34417714Y-184204828D02*
X34274857Y-184133400D01*
X34274857Y-184133400D02*
X34203428Y-183990542D01*
X34203428Y-183990542D02*
X34203428Y-182704828D01*
X34989142Y-184204828D02*
X34989142Y-183204828D01*
X34989142Y-182704828D02*
X34917714Y-182776257D01*
X34917714Y-182776257D02*
X34989142Y-182847685D01*
X34989142Y-182847685D02*
X35060571Y-182776257D01*
X35060571Y-182776257D02*
X34989142Y-182704828D01*
X34989142Y-182704828D02*
X34989142Y-182847685D01*
X35703428Y-184204828D02*
X35703428Y-183204828D01*
X35703428Y-183347685D02*
X35774857Y-183276257D01*
X35774857Y-183276257D02*
X35917714Y-183204828D01*
X35917714Y-183204828D02*
X36132000Y-183204828D01*
X36132000Y-183204828D02*
X36274857Y-183276257D01*
X36274857Y-183276257D02*
X36346286Y-183419114D01*
X36346286Y-183419114D02*
X36346286Y-184204828D01*
X36346286Y-183419114D02*
X36417714Y-183276257D01*
X36417714Y-183276257D02*
X36560571Y-183204828D01*
X36560571Y-183204828D02*
X36774857Y-183204828D01*
X36774857Y-183204828D02*
X36917714Y-183276257D01*
X36917714Y-183276257D02*
X36989143Y-183419114D01*
X36989143Y-183419114D02*
X36989143Y-184204828D01*
X38346286Y-184204828D02*
X38346286Y-183419114D01*
X38346286Y-183419114D02*
X38274857Y-183276257D01*
X38274857Y-183276257D02*
X38132000Y-183204828D01*
X38132000Y-183204828D02*
X37846286Y-183204828D01*
X37846286Y-183204828D02*
X37703428Y-183276257D01*
X38346286Y-184133400D02*
X38203428Y-184204828D01*
X38203428Y-184204828D02*
X37846286Y-184204828D01*
X37846286Y-184204828D02*
X37703428Y-184133400D01*
X37703428Y-184133400D02*
X37632000Y-183990542D01*
X37632000Y-183990542D02*
X37632000Y-183847685D01*
X37632000Y-183847685D02*
X37703428Y-183704828D01*
X37703428Y-183704828D02*
X37846286Y-183633400D01*
X37846286Y-183633400D02*
X38203428Y-183633400D01*
X38203428Y-183633400D02*
X38346286Y-183561971D01*
X38846286Y-183204828D02*
X39417714Y-183204828D01*
X39060571Y-182704828D02*
X39060571Y-183990542D01*
X39060571Y-183990542D02*
X39132000Y-184133400D01*
X39132000Y-184133400D02*
X39274857Y-184204828D01*
X39274857Y-184204828D02*
X39417714Y-184204828D01*
X40132000Y-184204828D02*
X39989143Y-184133400D01*
X39989143Y-184133400D02*
X39917714Y-184061971D01*
X39917714Y-184061971D02*
X39846286Y-183919114D01*
X39846286Y-183919114D02*
X39846286Y-183490542D01*
X39846286Y-183490542D02*
X39917714Y-183347685D01*
X39917714Y-183347685D02*
X39989143Y-183276257D01*
X39989143Y-183276257D02*
X40132000Y-183204828D01*
X40132000Y-183204828D02*
X40346286Y-183204828D01*
X40346286Y-183204828D02*
X40489143Y-183276257D01*
X40489143Y-183276257D02*
X40560572Y-183347685D01*
X40560572Y-183347685D02*
X40632000Y-183490542D01*
X40632000Y-183490542D02*
X40632000Y-183919114D01*
X40632000Y-183919114D02*
X40560572Y-184061971D01*
X40560572Y-184061971D02*
X40489143Y-184133400D01*
X40489143Y-184133400D02*
X40346286Y-184204828D01*
X40346286Y-184204828D02*
X40132000Y-184204828D01*
X41274857Y-184204828D02*
X41274857Y-183204828D01*
X41274857Y-183490542D02*
X41346286Y-183347685D01*
X41346286Y-183347685D02*
X41417715Y-183276257D01*
X41417715Y-183276257D02*
X41560572Y-183204828D01*
X41560572Y-183204828D02*
X41703429Y-183204828D01*
X43274857Y-184133400D02*
X43489143Y-184204828D01*
X43489143Y-184204828D02*
X43846285Y-184204828D01*
X43846285Y-184204828D02*
X43989143Y-184133400D01*
X43989143Y-184133400D02*
X44060571Y-184061971D01*
X44060571Y-184061971D02*
X44132000Y-183919114D01*
X44132000Y-183919114D02*
X44132000Y-183776257D01*
X44132000Y-183776257D02*
X44060571Y-183633400D01*
X44060571Y-183633400D02*
X43989143Y-183561971D01*
X43989143Y-183561971D02*
X43846285Y-183490542D01*
X43846285Y-183490542D02*
X43560571Y-183419114D01*
X43560571Y-183419114D02*
X43417714Y-183347685D01*
X43417714Y-183347685D02*
X43346285Y-183276257D01*
X43346285Y-183276257D02*
X43274857Y-183133400D01*
X43274857Y-183133400D02*
X43274857Y-182990542D01*
X43274857Y-182990542D02*
X43346285Y-182847685D01*
X43346285Y-182847685D02*
X43417714Y-182776257D01*
X43417714Y-182776257D02*
X43560571Y-182704828D01*
X43560571Y-182704828D02*
X43917714Y-182704828D01*
X43917714Y-182704828D02*
X44132000Y-182776257D01*
X44560571Y-183204828D02*
X45131999Y-183204828D01*
X44774856Y-182704828D02*
X44774856Y-183990542D01*
X44774856Y-183990542D02*
X44846285Y-184133400D01*
X44846285Y-184133400D02*
X44989142Y-184204828D01*
X44989142Y-184204828D02*
X45131999Y-184204828D01*
X46274857Y-184204828D02*
X46274857Y-183419114D01*
X46274857Y-183419114D02*
X46203428Y-183276257D01*
X46203428Y-183276257D02*
X46060571Y-183204828D01*
X46060571Y-183204828D02*
X45774857Y-183204828D01*
X45774857Y-183204828D02*
X45631999Y-183276257D01*
X46274857Y-184133400D02*
X46131999Y-184204828D01*
X46131999Y-184204828D02*
X45774857Y-184204828D01*
X45774857Y-184204828D02*
X45631999Y-184133400D01*
X45631999Y-184133400D02*
X45560571Y-183990542D01*
X45560571Y-183990542D02*
X45560571Y-183847685D01*
X45560571Y-183847685D02*
X45631999Y-183704828D01*
X45631999Y-183704828D02*
X45774857Y-183633400D01*
X45774857Y-183633400D02*
X46131999Y-183633400D01*
X46131999Y-183633400D02*
X46274857Y-183561971D01*
X46774857Y-183204828D02*
X47346285Y-183204828D01*
X46989142Y-182704828D02*
X46989142Y-183990542D01*
X46989142Y-183990542D02*
X47060571Y-184133400D01*
X47060571Y-184133400D02*
X47203428Y-184204828D01*
X47203428Y-184204828D02*
X47346285Y-184204828D01*
X48489143Y-183204828D02*
X48489143Y-184204828D01*
X47846285Y-183204828D02*
X47846285Y-183990542D01*
X47846285Y-183990542D02*
X47917714Y-184133400D01*
X47917714Y-184133400D02*
X48060571Y-184204828D01*
X48060571Y-184204828D02*
X48274857Y-184204828D01*
X48274857Y-184204828D02*
X48417714Y-184133400D01*
X48417714Y-184133400D02*
X48489143Y-184061971D01*
X49132000Y-184133400D02*
X49274857Y-184204828D01*
X49274857Y-184204828D02*
X49560571Y-184204828D01*
X49560571Y-184204828D02*
X49703428Y-184133400D01*
X49703428Y-184133400D02*
X49774857Y-183990542D01*
X49774857Y-183990542D02*
X49774857Y-183919114D01*
X49774857Y-183919114D02*
X49703428Y-183776257D01*
X49703428Y-183776257D02*
X49560571Y-183704828D01*
X49560571Y-183704828D02*
X49346286Y-183704828D01*
X49346286Y-183704828D02*
X49203428Y-183633400D01*
X49203428Y-183633400D02*
X49132000Y-183490542D01*
X49132000Y-183490542D02*
X49132000Y-183419114D01*
X49132000Y-183419114D02*
X49203428Y-183276257D01*
X49203428Y-183276257D02*
X49346286Y-183204828D01*
X49346286Y-183204828D02*
X49560571Y-183204828D01*
X49560571Y-183204828D02*
X49703428Y-183276257D01*
D14*
X145921952Y-171632130D02*
X146103380Y-171692606D01*
X146103380Y-171692606D02*
X146163857Y-171753082D01*
X146163857Y-171753082D02*
X146224333Y-171874034D01*
X146224333Y-171874034D02*
X146224333Y-172055463D01*
X146224333Y-172055463D02*
X146163857Y-172176415D01*
X146163857Y-172176415D02*
X146103380Y-172236892D01*
X146103380Y-172236892D02*
X145982428Y-172297368D01*
X145982428Y-172297368D02*
X145498618Y-172297368D01*
X145498618Y-172297368D02*
X145498618Y-171027368D01*
X145498618Y-171027368D02*
X145921952Y-171027368D01*
X145921952Y-171027368D02*
X146042904Y-171087844D01*
X146042904Y-171087844D02*
X146103380Y-171148320D01*
X146103380Y-171148320D02*
X146163857Y-171269272D01*
X146163857Y-171269272D02*
X146163857Y-171390225D01*
X146163857Y-171390225D02*
X146103380Y-171511177D01*
X146103380Y-171511177D02*
X146042904Y-171571653D01*
X146042904Y-171571653D02*
X145921952Y-171632130D01*
X145921952Y-171632130D02*
X145498618Y-171632130D01*
X147433857Y-172297368D02*
X146708142Y-172297368D01*
X147070999Y-172297368D02*
X147070999Y-171027368D01*
X147070999Y-171027368D02*
X146950047Y-171208796D01*
X146950047Y-171208796D02*
X146829095Y-171329749D01*
X146829095Y-171329749D02*
X146708142Y-171390225D01*
D15*
X157080921Y-49525342D02*
X157263640Y-49746486D01*
X157263640Y-49746486D02*
X157292499Y-49871487D01*
X157292499Y-49871487D02*
X157273287Y-50073419D01*
X157273287Y-50073419D02*
X157129073Y-50304209D01*
X157129073Y-50304209D02*
X156956000Y-50409998D01*
X156956000Y-50409998D02*
X156830999Y-50438857D01*
X156830999Y-50438857D02*
X156629068Y-50419644D01*
X156629068Y-50419644D02*
X156013627Y-50035074D01*
X156013627Y-50035074D02*
X157023123Y-48419543D01*
X157023123Y-48419543D02*
X157561634Y-48756041D01*
X157561634Y-48756041D02*
X157667423Y-48929114D01*
X157667423Y-48929114D02*
X157696282Y-49054115D01*
X157696282Y-49054115D02*
X157677069Y-49256047D01*
X157677069Y-49256047D02*
X157580927Y-49409907D01*
X157580927Y-49409907D02*
X157407854Y-49515696D01*
X157407854Y-49515696D02*
X157282853Y-49544555D01*
X157282853Y-49544555D02*
X157080921Y-49525342D01*
X157080921Y-49525342D02*
X156542411Y-49188844D01*
X158475390Y-51573354D02*
X157552229Y-50996499D01*
X158013809Y-51284927D02*
X159023305Y-49669395D01*
X159023305Y-49669395D02*
X158725231Y-49804043D01*
X158725231Y-49804043D02*
X158475229Y-49861761D01*
X158475229Y-49861761D02*
X158273297Y-49842548D01*
X160398642Y-52775136D02*
X161408138Y-51159604D01*
X161408138Y-51159604D02*
X161792789Y-51399960D01*
X161792789Y-51399960D02*
X161975508Y-51621104D01*
X161975508Y-51621104D02*
X162033225Y-51871107D01*
X162033225Y-51871107D02*
X162014013Y-52073038D01*
X162014013Y-52073038D02*
X161898658Y-52428830D01*
X161898658Y-52428830D02*
X161754444Y-52659620D01*
X161754444Y-52659620D02*
X161485229Y-52919269D01*
X161485229Y-52919269D02*
X161312157Y-53025058D01*
X161312157Y-53025058D02*
X161062154Y-53082776D01*
X161062154Y-53082776D02*
X160783293Y-53015492D01*
X160783293Y-53015492D02*
X160398642Y-52775136D01*
X163379542Y-53140252D02*
X162706544Y-54217273D01*
X162687171Y-52707611D02*
X162158388Y-53553842D01*
X162158388Y-53553842D02*
X162139175Y-53755773D01*
X162139175Y-53755773D02*
X162244964Y-53928846D01*
X162244964Y-53928846D02*
X162475754Y-54073060D01*
X162475754Y-54073060D02*
X162677686Y-54092272D01*
X162677686Y-54092272D02*
X162802687Y-54063413D01*
X163475845Y-54697986D02*
X164148842Y-53620964D01*
X164052700Y-53774825D02*
X164177701Y-53745966D01*
X164177701Y-53745966D02*
X164379633Y-53765178D01*
X164379633Y-53765178D02*
X164610423Y-53909392D01*
X164610423Y-53909392D02*
X164716212Y-54082464D01*
X164716212Y-54082464D02*
X164696999Y-54284396D01*
X164696999Y-54284396D02*
X164168216Y-55130627D01*
X164696999Y-54284396D02*
X164870072Y-54178607D01*
X164870072Y-54178607D02*
X165072003Y-54197819D01*
X165072003Y-54197819D02*
X165302793Y-54342033D01*
X165302793Y-54342033D02*
X165408582Y-54515106D01*
X165408582Y-54515106D02*
X165389370Y-54717037D01*
X165389370Y-54717037D02*
X164860586Y-55563268D01*
X166302885Y-54966959D02*
X165293388Y-56582491D01*
X166254813Y-55043889D02*
X166456745Y-55063102D01*
X166456745Y-55063102D02*
X166764465Y-55255387D01*
X166764465Y-55255387D02*
X166870254Y-55428459D01*
X166870254Y-55428459D02*
X166899113Y-55553461D01*
X166899113Y-55553461D02*
X166879900Y-55755392D01*
X166879900Y-55755392D02*
X166591473Y-56216973D01*
X166591473Y-56216973D02*
X166418400Y-56322762D01*
X166418400Y-56322762D02*
X166293399Y-56351620D01*
X166293399Y-56351620D02*
X166091468Y-56332408D01*
X166091468Y-56332408D02*
X165783747Y-56140123D01*
X165783747Y-56140123D02*
X165677958Y-55967050D01*
D13*
X150935643Y-179623900D02*
X151149929Y-179695328D01*
X151149929Y-179695328D02*
X151507071Y-179695328D01*
X151507071Y-179695328D02*
X151649929Y-179623900D01*
X151649929Y-179623900D02*
X151721357Y-179552471D01*
X151721357Y-179552471D02*
X151792786Y-179409614D01*
X151792786Y-179409614D02*
X151792786Y-179266757D01*
X151792786Y-179266757D02*
X151721357Y-179123900D01*
X151721357Y-179123900D02*
X151649929Y-179052471D01*
X151649929Y-179052471D02*
X151507071Y-178981042D01*
X151507071Y-178981042D02*
X151221357Y-178909614D01*
X151221357Y-178909614D02*
X151078500Y-178838185D01*
X151078500Y-178838185D02*
X151007071Y-178766757D01*
X151007071Y-178766757D02*
X150935643Y-178623900D01*
X150935643Y-178623900D02*
X150935643Y-178481042D01*
X150935643Y-178481042D02*
X151007071Y-178338185D01*
X151007071Y-178338185D02*
X151078500Y-178266757D01*
X151078500Y-178266757D02*
X151221357Y-178195328D01*
X151221357Y-178195328D02*
X151578500Y-178195328D01*
X151578500Y-178195328D02*
X151792786Y-178266757D01*
X152221357Y-178695328D02*
X152792785Y-178695328D01*
X152435642Y-178195328D02*
X152435642Y-179481042D01*
X152435642Y-179481042D02*
X152507071Y-179623900D01*
X152507071Y-179623900D02*
X152649928Y-179695328D01*
X152649928Y-179695328D02*
X152792785Y-179695328D01*
X153935643Y-179695328D02*
X153935643Y-178909614D01*
X153935643Y-178909614D02*
X153864214Y-178766757D01*
X153864214Y-178766757D02*
X153721357Y-178695328D01*
X153721357Y-178695328D02*
X153435643Y-178695328D01*
X153435643Y-178695328D02*
X153292785Y-178766757D01*
X153935643Y-179623900D02*
X153792785Y-179695328D01*
X153792785Y-179695328D02*
X153435643Y-179695328D01*
X153435643Y-179695328D02*
X153292785Y-179623900D01*
X153292785Y-179623900D02*
X153221357Y-179481042D01*
X153221357Y-179481042D02*
X153221357Y-179338185D01*
X153221357Y-179338185D02*
X153292785Y-179195328D01*
X153292785Y-179195328D02*
X153435643Y-179123900D01*
X153435643Y-179123900D02*
X153792785Y-179123900D01*
X153792785Y-179123900D02*
X153935643Y-179052471D01*
X154649928Y-179695328D02*
X154649928Y-178195328D01*
X154649928Y-178766757D02*
X154792786Y-178695328D01*
X154792786Y-178695328D02*
X155078500Y-178695328D01*
X155078500Y-178695328D02*
X155221357Y-178766757D01*
X155221357Y-178766757D02*
X155292786Y-178838185D01*
X155292786Y-178838185D02*
X155364214Y-178981042D01*
X155364214Y-178981042D02*
X155364214Y-179409614D01*
X155364214Y-179409614D02*
X155292786Y-179552471D01*
X155292786Y-179552471D02*
X155221357Y-179623900D01*
X155221357Y-179623900D02*
X155078500Y-179695328D01*
X155078500Y-179695328D02*
X154792786Y-179695328D01*
X154792786Y-179695328D02*
X154649928Y-179623900D01*
X156221357Y-179695328D02*
X156078500Y-179623900D01*
X156078500Y-179623900D02*
X156007071Y-179481042D01*
X156007071Y-179481042D02*
X156007071Y-178195328D01*
X157364214Y-179623900D02*
X157221357Y-179695328D01*
X157221357Y-179695328D02*
X156935643Y-179695328D01*
X156935643Y-179695328D02*
X156792785Y-179623900D01*
X156792785Y-179623900D02*
X156721357Y-179481042D01*
X156721357Y-179481042D02*
X156721357Y-178909614D01*
X156721357Y-178909614D02*
X156792785Y-178766757D01*
X156792785Y-178766757D02*
X156935643Y-178695328D01*
X156935643Y-178695328D02*
X157221357Y-178695328D01*
X157221357Y-178695328D02*
X157364214Y-178766757D01*
X157364214Y-178766757D02*
X157435643Y-178909614D01*
X157435643Y-178909614D02*
X157435643Y-179052471D01*
X157435643Y-179052471D02*
X156721357Y-179195328D01*
X159721356Y-178909614D02*
X159935642Y-178981042D01*
X159935642Y-178981042D02*
X160007071Y-179052471D01*
X160007071Y-179052471D02*
X160078499Y-179195328D01*
X160078499Y-179195328D02*
X160078499Y-179409614D01*
X160078499Y-179409614D02*
X160007071Y-179552471D01*
X160007071Y-179552471D02*
X159935642Y-179623900D01*
X159935642Y-179623900D02*
X159792785Y-179695328D01*
X159792785Y-179695328D02*
X159221356Y-179695328D01*
X159221356Y-179695328D02*
X159221356Y-178195328D01*
X159221356Y-178195328D02*
X159721356Y-178195328D01*
X159721356Y-178195328D02*
X159864214Y-178266757D01*
X159864214Y-178266757D02*
X159935642Y-178338185D01*
X159935642Y-178338185D02*
X160007071Y-178481042D01*
X160007071Y-178481042D02*
X160007071Y-178623900D01*
X160007071Y-178623900D02*
X159935642Y-178766757D01*
X159935642Y-178766757D02*
X159864214Y-178838185D01*
X159864214Y-178838185D02*
X159721356Y-178909614D01*
X159721356Y-178909614D02*
X159221356Y-178909614D01*
X161292785Y-179623900D02*
X161149928Y-179695328D01*
X161149928Y-179695328D02*
X160864214Y-179695328D01*
X160864214Y-179695328D02*
X160721356Y-179623900D01*
X160721356Y-179623900D02*
X160649928Y-179481042D01*
X160649928Y-179481042D02*
X160649928Y-178909614D01*
X160649928Y-178909614D02*
X160721356Y-178766757D01*
X160721356Y-178766757D02*
X160864214Y-178695328D01*
X160864214Y-178695328D02*
X161149928Y-178695328D01*
X161149928Y-178695328D02*
X161292785Y-178766757D01*
X161292785Y-178766757D02*
X161364214Y-178909614D01*
X161364214Y-178909614D02*
X161364214Y-179052471D01*
X161364214Y-179052471D02*
X160649928Y-179195328D01*
X162649928Y-179695328D02*
X162649928Y-178909614D01*
X162649928Y-178909614D02*
X162578499Y-178766757D01*
X162578499Y-178766757D02*
X162435642Y-178695328D01*
X162435642Y-178695328D02*
X162149928Y-178695328D01*
X162149928Y-178695328D02*
X162007070Y-178766757D01*
X162649928Y-179623900D02*
X162507070Y-179695328D01*
X162507070Y-179695328D02*
X162149928Y-179695328D01*
X162149928Y-179695328D02*
X162007070Y-179623900D01*
X162007070Y-179623900D02*
X161935642Y-179481042D01*
X161935642Y-179481042D02*
X161935642Y-179338185D01*
X161935642Y-179338185D02*
X162007070Y-179195328D01*
X162007070Y-179195328D02*
X162149928Y-179123900D01*
X162149928Y-179123900D02*
X162507070Y-179123900D01*
X162507070Y-179123900D02*
X162649928Y-179052471D01*
X163364213Y-179695328D02*
X163364213Y-178695328D01*
X163364213Y-178838185D02*
X163435642Y-178766757D01*
X163435642Y-178766757D02*
X163578499Y-178695328D01*
X163578499Y-178695328D02*
X163792785Y-178695328D01*
X163792785Y-178695328D02*
X163935642Y-178766757D01*
X163935642Y-178766757D02*
X164007071Y-178909614D01*
X164007071Y-178909614D02*
X164007071Y-179695328D01*
X164007071Y-178909614D02*
X164078499Y-178766757D01*
X164078499Y-178766757D02*
X164221356Y-178695328D01*
X164221356Y-178695328D02*
X164435642Y-178695328D01*
X164435642Y-178695328D02*
X164578499Y-178766757D01*
X164578499Y-178766757D02*
X164649928Y-178909614D01*
X164649928Y-178909614D02*
X164649928Y-179695328D01*
D14*
X168776952Y-171632130D02*
X168958380Y-171692606D01*
X168958380Y-171692606D02*
X169018857Y-171753082D01*
X169018857Y-171753082D02*
X169079333Y-171874034D01*
X169079333Y-171874034D02*
X169079333Y-172055463D01*
X169079333Y-172055463D02*
X169018857Y-172176415D01*
X169018857Y-172176415D02*
X168958380Y-172236892D01*
X168958380Y-172236892D02*
X168837428Y-172297368D01*
X168837428Y-172297368D02*
X168353618Y-172297368D01*
X168353618Y-172297368D02*
X168353618Y-171027368D01*
X168353618Y-171027368D02*
X168776952Y-171027368D01*
X168776952Y-171027368D02*
X168897904Y-171087844D01*
X168897904Y-171087844D02*
X168958380Y-171148320D01*
X168958380Y-171148320D02*
X169018857Y-171269272D01*
X169018857Y-171269272D02*
X169018857Y-171390225D01*
X169018857Y-171390225D02*
X168958380Y-171511177D01*
X168958380Y-171511177D02*
X168897904Y-171571653D01*
X168897904Y-171571653D02*
X168776952Y-171632130D01*
X168776952Y-171632130D02*
X168353618Y-171632130D01*
X169563142Y-171148320D02*
X169623618Y-171087844D01*
X169623618Y-171087844D02*
X169744571Y-171027368D01*
X169744571Y-171027368D02*
X170046952Y-171027368D01*
X170046952Y-171027368D02*
X170167904Y-171087844D01*
X170167904Y-171087844D02*
X170228380Y-171148320D01*
X170228380Y-171148320D02*
X170288857Y-171269272D01*
X170288857Y-171269272D02*
X170288857Y-171390225D01*
X170288857Y-171390225D02*
X170228380Y-171571653D01*
X170228380Y-171571653D02*
X169502666Y-172297368D01*
X169502666Y-172297368D02*
X170288857Y-172297368D01*
D11*
X80392416Y-190734457D02*
X80555702Y-190788885D01*
X80555702Y-190788885D02*
X80610131Y-190843314D01*
X80610131Y-190843314D02*
X80664559Y-190952171D01*
X80664559Y-190952171D02*
X80664559Y-191115457D01*
X80664559Y-191115457D02*
X80610131Y-191224314D01*
X80610131Y-191224314D02*
X80555702Y-191278743D01*
X80555702Y-191278743D02*
X80446845Y-191333171D01*
X80446845Y-191333171D02*
X80011416Y-191333171D01*
X80011416Y-191333171D02*
X80011416Y-190190171D01*
X80011416Y-190190171D02*
X80392416Y-190190171D01*
X80392416Y-190190171D02*
X80501274Y-190244600D01*
X80501274Y-190244600D02*
X80555702Y-190299028D01*
X80555702Y-190299028D02*
X80610131Y-190407885D01*
X80610131Y-190407885D02*
X80610131Y-190516743D01*
X80610131Y-190516743D02*
X80555702Y-190625600D01*
X80555702Y-190625600D02*
X80501274Y-190680028D01*
X80501274Y-190680028D02*
X80392416Y-190734457D01*
X80392416Y-190734457D02*
X80011416Y-190734457D01*
X81589845Y-191278743D02*
X81480988Y-191333171D01*
X81480988Y-191333171D02*
X81263274Y-191333171D01*
X81263274Y-191333171D02*
X81154416Y-191278743D01*
X81154416Y-191278743D02*
X81099988Y-191169885D01*
X81099988Y-191169885D02*
X81099988Y-190734457D01*
X81099988Y-190734457D02*
X81154416Y-190625600D01*
X81154416Y-190625600D02*
X81263274Y-190571171D01*
X81263274Y-190571171D02*
X81480988Y-190571171D01*
X81480988Y-190571171D02*
X81589845Y-190625600D01*
X81589845Y-190625600D02*
X81644274Y-190734457D01*
X81644274Y-190734457D02*
X81644274Y-190843314D01*
X81644274Y-190843314D02*
X81099988Y-190952171D01*
X82623988Y-191333171D02*
X82623988Y-190734457D01*
X82623988Y-190734457D02*
X82569559Y-190625600D01*
X82569559Y-190625600D02*
X82460702Y-190571171D01*
X82460702Y-190571171D02*
X82242988Y-190571171D01*
X82242988Y-190571171D02*
X82134130Y-190625600D01*
X82623988Y-191278743D02*
X82515130Y-191333171D01*
X82515130Y-191333171D02*
X82242988Y-191333171D01*
X82242988Y-191333171D02*
X82134130Y-191278743D01*
X82134130Y-191278743D02*
X82079702Y-191169885D01*
X82079702Y-191169885D02*
X82079702Y-191061028D01*
X82079702Y-191061028D02*
X82134130Y-190952171D01*
X82134130Y-190952171D02*
X82242988Y-190897743D01*
X82242988Y-190897743D02*
X82515130Y-190897743D01*
X82515130Y-190897743D02*
X82623988Y-190843314D01*
X83168273Y-191333171D02*
X83168273Y-190571171D01*
X83168273Y-190680028D02*
X83222702Y-190625600D01*
X83222702Y-190625600D02*
X83331559Y-190571171D01*
X83331559Y-190571171D02*
X83494845Y-190571171D01*
X83494845Y-190571171D02*
X83603702Y-190625600D01*
X83603702Y-190625600D02*
X83658131Y-190734457D01*
X83658131Y-190734457D02*
X83658131Y-191333171D01*
X83658131Y-190734457D02*
X83712559Y-190625600D01*
X83712559Y-190625600D02*
X83821416Y-190571171D01*
X83821416Y-190571171D02*
X83984702Y-190571171D01*
X83984702Y-190571171D02*
X84093559Y-190625600D01*
X84093559Y-190625600D02*
X84147988Y-190734457D01*
X84147988Y-190734457D02*
X84147988Y-191333171D01*
X80229131Y-192411337D02*
X80664559Y-192411337D01*
X80392416Y-193173337D02*
X80392416Y-192193623D01*
X80392416Y-192193623D02*
X80446845Y-192084766D01*
X80446845Y-192084766D02*
X80555702Y-192030337D01*
X80555702Y-192030337D02*
X80664559Y-192030337D01*
X81045559Y-193173337D02*
X81045559Y-192411337D01*
X81045559Y-192629051D02*
X81099988Y-192520194D01*
X81099988Y-192520194D02*
X81154417Y-192465766D01*
X81154417Y-192465766D02*
X81263274Y-192411337D01*
X81263274Y-192411337D02*
X81372131Y-192411337D01*
X81916416Y-193173337D02*
X81807559Y-193118909D01*
X81807559Y-193118909D02*
X81753130Y-193064480D01*
X81753130Y-193064480D02*
X81698702Y-192955623D01*
X81698702Y-192955623D02*
X81698702Y-192629051D01*
X81698702Y-192629051D02*
X81753130Y-192520194D01*
X81753130Y-192520194D02*
X81807559Y-192465766D01*
X81807559Y-192465766D02*
X81916416Y-192411337D01*
X81916416Y-192411337D02*
X82079702Y-192411337D01*
X82079702Y-192411337D02*
X82188559Y-192465766D01*
X82188559Y-192465766D02*
X82242988Y-192520194D01*
X82242988Y-192520194D02*
X82297416Y-192629051D01*
X82297416Y-192629051D02*
X82297416Y-192955623D01*
X82297416Y-192955623D02*
X82242988Y-193064480D01*
X82242988Y-193064480D02*
X82188559Y-193118909D01*
X82188559Y-193118909D02*
X82079702Y-193173337D01*
X82079702Y-193173337D02*
X81916416Y-193173337D01*
X82787273Y-193173337D02*
X82787273Y-192411337D01*
X82787273Y-192520194D02*
X82841702Y-192465766D01*
X82841702Y-192465766D02*
X82950559Y-192411337D01*
X82950559Y-192411337D02*
X83113845Y-192411337D01*
X83113845Y-192411337D02*
X83222702Y-192465766D01*
X83222702Y-192465766D02*
X83277131Y-192574623D01*
X83277131Y-192574623D02*
X83277131Y-193173337D01*
X83277131Y-192574623D02*
X83331559Y-192465766D01*
X83331559Y-192465766D02*
X83440416Y-192411337D01*
X83440416Y-192411337D02*
X83603702Y-192411337D01*
X83603702Y-192411337D02*
X83712559Y-192465766D01*
X83712559Y-192465766D02*
X83766988Y-192574623D01*
X83766988Y-192574623D02*
X83766988Y-193173337D01*
X80637345Y-194959075D02*
X80800631Y-195013503D01*
X80800631Y-195013503D02*
X81072773Y-195013503D01*
X81072773Y-195013503D02*
X81181631Y-194959075D01*
X81181631Y-194959075D02*
X81236059Y-194904646D01*
X81236059Y-194904646D02*
X81290488Y-194795789D01*
X81290488Y-194795789D02*
X81290488Y-194686932D01*
X81290488Y-194686932D02*
X81236059Y-194578075D01*
X81236059Y-194578075D02*
X81181631Y-194523646D01*
X81181631Y-194523646D02*
X81072773Y-194469217D01*
X81072773Y-194469217D02*
X80855059Y-194414789D01*
X80855059Y-194414789D02*
X80746202Y-194360360D01*
X80746202Y-194360360D02*
X80691773Y-194305932D01*
X80691773Y-194305932D02*
X80637345Y-194197075D01*
X80637345Y-194197075D02*
X80637345Y-194088217D01*
X80637345Y-194088217D02*
X80691773Y-193979360D01*
X80691773Y-193979360D02*
X80746202Y-193924932D01*
X80746202Y-193924932D02*
X80855059Y-193870503D01*
X80855059Y-193870503D02*
X81127202Y-193870503D01*
X81127202Y-193870503D02*
X81290488Y-193924932D01*
X81780344Y-195013503D02*
X81780344Y-193870503D01*
X81780344Y-193870503D02*
X82215773Y-193870503D01*
X82215773Y-193870503D02*
X82324630Y-193924932D01*
X82324630Y-193924932D02*
X82379059Y-193979360D01*
X82379059Y-193979360D02*
X82433487Y-194088217D01*
X82433487Y-194088217D02*
X82433487Y-194251503D01*
X82433487Y-194251503D02*
X82379059Y-194360360D01*
X82379059Y-194360360D02*
X82324630Y-194414789D01*
X82324630Y-194414789D02*
X82215773Y-194469217D01*
X82215773Y-194469217D02*
X81780344Y-194469217D01*
X82868916Y-194959075D02*
X83032202Y-195013503D01*
X83032202Y-195013503D02*
X83304344Y-195013503D01*
X83304344Y-195013503D02*
X83413202Y-194959075D01*
X83413202Y-194959075D02*
X83467630Y-194904646D01*
X83467630Y-194904646D02*
X83522059Y-194795789D01*
X83522059Y-194795789D02*
X83522059Y-194686932D01*
X83522059Y-194686932D02*
X83467630Y-194578075D01*
X83467630Y-194578075D02*
X83413202Y-194523646D01*
X83413202Y-194523646D02*
X83304344Y-194469217D01*
X83304344Y-194469217D02*
X83086630Y-194414789D01*
X83086630Y-194414789D02*
X82977773Y-194360360D01*
X82977773Y-194360360D02*
X82923344Y-194305932D01*
X82923344Y-194305932D02*
X82868916Y-194197075D01*
X82868916Y-194197075D02*
X82868916Y-194088217D01*
X82868916Y-194088217D02*
X82923344Y-193979360D01*
X82923344Y-193979360D02*
X82977773Y-193924932D01*
X82977773Y-193924932D02*
X83086630Y-193870503D01*
X83086630Y-193870503D02*
X83358773Y-193870503D01*
X83358773Y-193870503D02*
X83522059Y-193924932D01*
D14*
X42727952Y-186364130D02*
X42909380Y-186424606D01*
X42909380Y-186424606D02*
X42969857Y-186485082D01*
X42969857Y-186485082D02*
X43030333Y-186606034D01*
X43030333Y-186606034D02*
X43030333Y-186787463D01*
X43030333Y-186787463D02*
X42969857Y-186908415D01*
X42969857Y-186908415D02*
X42909380Y-186968892D01*
X42909380Y-186968892D02*
X42788428Y-187029368D01*
X42788428Y-187029368D02*
X42304618Y-187029368D01*
X42304618Y-187029368D02*
X42304618Y-185759368D01*
X42304618Y-185759368D02*
X42727952Y-185759368D01*
X42727952Y-185759368D02*
X42848904Y-185819844D01*
X42848904Y-185819844D02*
X42909380Y-185880320D01*
X42909380Y-185880320D02*
X42969857Y-186001272D01*
X42969857Y-186001272D02*
X42969857Y-186122225D01*
X42969857Y-186122225D02*
X42909380Y-186243177D01*
X42909380Y-186243177D02*
X42848904Y-186303653D01*
X42848904Y-186303653D02*
X42727952Y-186364130D01*
X42727952Y-186364130D02*
X42304618Y-186364130D01*
X43514142Y-185880320D02*
X43574618Y-185819844D01*
X43574618Y-185819844D02*
X43695571Y-185759368D01*
X43695571Y-185759368D02*
X43997952Y-185759368D01*
X43997952Y-185759368D02*
X44118904Y-185819844D01*
X44118904Y-185819844D02*
X44179380Y-185880320D01*
X44179380Y-185880320D02*
X44239857Y-186001272D01*
X44239857Y-186001272D02*
X44239857Y-186122225D01*
X44239857Y-186122225D02*
X44179380Y-186303653D01*
X44179380Y-186303653D02*
X43453666Y-187029368D01*
X43453666Y-187029368D02*
X44239857Y-187029368D01*
D13*
X151399928Y-174420114D02*
X151614214Y-174491542D01*
X151614214Y-174491542D02*
X151685643Y-174562971D01*
X151685643Y-174562971D02*
X151757071Y-174705828D01*
X151757071Y-174705828D02*
X151757071Y-174920114D01*
X151757071Y-174920114D02*
X151685643Y-175062971D01*
X151685643Y-175062971D02*
X151614214Y-175134400D01*
X151614214Y-175134400D02*
X151471357Y-175205828D01*
X151471357Y-175205828D02*
X150899928Y-175205828D01*
X150899928Y-175205828D02*
X150899928Y-173705828D01*
X150899928Y-173705828D02*
X151399928Y-173705828D01*
X151399928Y-173705828D02*
X151542786Y-173777257D01*
X151542786Y-173777257D02*
X151614214Y-173848685D01*
X151614214Y-173848685D02*
X151685643Y-173991542D01*
X151685643Y-173991542D02*
X151685643Y-174134400D01*
X151685643Y-174134400D02*
X151614214Y-174277257D01*
X151614214Y-174277257D02*
X151542786Y-174348685D01*
X151542786Y-174348685D02*
X151399928Y-174420114D01*
X151399928Y-174420114D02*
X150899928Y-174420114D01*
X152971357Y-175134400D02*
X152828500Y-175205828D01*
X152828500Y-175205828D02*
X152542786Y-175205828D01*
X152542786Y-175205828D02*
X152399928Y-175134400D01*
X152399928Y-175134400D02*
X152328500Y-174991542D01*
X152328500Y-174991542D02*
X152328500Y-174420114D01*
X152328500Y-174420114D02*
X152399928Y-174277257D01*
X152399928Y-174277257D02*
X152542786Y-174205828D01*
X152542786Y-174205828D02*
X152828500Y-174205828D01*
X152828500Y-174205828D02*
X152971357Y-174277257D01*
X152971357Y-174277257D02*
X153042786Y-174420114D01*
X153042786Y-174420114D02*
X153042786Y-174562971D01*
X153042786Y-174562971D02*
X152328500Y-174705828D01*
X154328500Y-175205828D02*
X154328500Y-174420114D01*
X154328500Y-174420114D02*
X154257071Y-174277257D01*
X154257071Y-174277257D02*
X154114214Y-174205828D01*
X154114214Y-174205828D02*
X153828500Y-174205828D01*
X153828500Y-174205828D02*
X153685642Y-174277257D01*
X154328500Y-175134400D02*
X154185642Y-175205828D01*
X154185642Y-175205828D02*
X153828500Y-175205828D01*
X153828500Y-175205828D02*
X153685642Y-175134400D01*
X153685642Y-175134400D02*
X153614214Y-174991542D01*
X153614214Y-174991542D02*
X153614214Y-174848685D01*
X153614214Y-174848685D02*
X153685642Y-174705828D01*
X153685642Y-174705828D02*
X153828500Y-174634400D01*
X153828500Y-174634400D02*
X154185642Y-174634400D01*
X154185642Y-174634400D02*
X154328500Y-174562971D01*
X155042785Y-175205828D02*
X155042785Y-174205828D01*
X155042785Y-174348685D02*
X155114214Y-174277257D01*
X155114214Y-174277257D02*
X155257071Y-174205828D01*
X155257071Y-174205828D02*
X155471357Y-174205828D01*
X155471357Y-174205828D02*
X155614214Y-174277257D01*
X155614214Y-174277257D02*
X155685643Y-174420114D01*
X155685643Y-174420114D02*
X155685643Y-175205828D01*
X155685643Y-174420114D02*
X155757071Y-174277257D01*
X155757071Y-174277257D02*
X155899928Y-174205828D01*
X155899928Y-174205828D02*
X156114214Y-174205828D01*
X156114214Y-174205828D02*
X156257071Y-174277257D01*
X156257071Y-174277257D02*
X156328500Y-174420114D01*
X156328500Y-174420114D02*
X156328500Y-175205828D01*
X158185642Y-175205828D02*
X158185642Y-173705828D01*
X158185642Y-173705828D02*
X158757071Y-173705828D01*
X158757071Y-173705828D02*
X158899928Y-173777257D01*
X158899928Y-173777257D02*
X158971357Y-173848685D01*
X158971357Y-173848685D02*
X159042785Y-173991542D01*
X159042785Y-173991542D02*
X159042785Y-174205828D01*
X159042785Y-174205828D02*
X158971357Y-174348685D01*
X158971357Y-174348685D02*
X158899928Y-174420114D01*
X158899928Y-174420114D02*
X158757071Y-174491542D01*
X158757071Y-174491542D02*
X158185642Y-174491542D01*
X160257071Y-175134400D02*
X160114214Y-175205828D01*
X160114214Y-175205828D02*
X159828500Y-175205828D01*
X159828500Y-175205828D02*
X159685642Y-175134400D01*
X159685642Y-175134400D02*
X159614214Y-174991542D01*
X159614214Y-174991542D02*
X159614214Y-174420114D01*
X159614214Y-174420114D02*
X159685642Y-174277257D01*
X159685642Y-174277257D02*
X159828500Y-174205828D01*
X159828500Y-174205828D02*
X160114214Y-174205828D01*
X160114214Y-174205828D02*
X160257071Y-174277257D01*
X160257071Y-174277257D02*
X160328500Y-174420114D01*
X160328500Y-174420114D02*
X160328500Y-174562971D01*
X160328500Y-174562971D02*
X159614214Y-174705828D01*
X160971356Y-175205828D02*
X160971356Y-174205828D01*
X160971356Y-174491542D02*
X161042785Y-174348685D01*
X161042785Y-174348685D02*
X161114214Y-174277257D01*
X161114214Y-174277257D02*
X161257071Y-174205828D01*
X161257071Y-174205828D02*
X161399928Y-174205828D01*
X161899927Y-175205828D02*
X161899927Y-174205828D01*
X161899927Y-174348685D02*
X161971356Y-174277257D01*
X161971356Y-174277257D02*
X162114213Y-174205828D01*
X162114213Y-174205828D02*
X162328499Y-174205828D01*
X162328499Y-174205828D02*
X162471356Y-174277257D01*
X162471356Y-174277257D02*
X162542785Y-174420114D01*
X162542785Y-174420114D02*
X162542785Y-175205828D01*
X162542785Y-174420114D02*
X162614213Y-174277257D01*
X162614213Y-174277257D02*
X162757070Y-174205828D01*
X162757070Y-174205828D02*
X162971356Y-174205828D01*
X162971356Y-174205828D02*
X163114213Y-174277257D01*
X163114213Y-174277257D02*
X163185642Y-174420114D01*
X163185642Y-174420114D02*
X163185642Y-175205828D01*
X163899927Y-175205828D02*
X163899927Y-174205828D01*
X163899927Y-173705828D02*
X163828499Y-173777257D01*
X163828499Y-173777257D02*
X163899927Y-173848685D01*
X163899927Y-173848685D02*
X163971356Y-173777257D01*
X163971356Y-173777257D02*
X163899927Y-173705828D01*
X163899927Y-173705828D02*
X163899927Y-173848685D01*
X164399928Y-174205828D02*
X164971356Y-174205828D01*
X164614213Y-173705828D02*
X164614213Y-174991542D01*
X164614213Y-174991542D02*
X164685642Y-175134400D01*
X164685642Y-175134400D02*
X164828499Y-175205828D01*
X164828499Y-175205828D02*
X164971356Y-175205828D01*
X149792785Y-189157828D02*
X149792785Y-187657828D01*
X149792785Y-187657828D02*
X150364214Y-187657828D01*
X150364214Y-187657828D02*
X150507071Y-187729257D01*
X150507071Y-187729257D02*
X150578500Y-187800685D01*
X150578500Y-187800685D02*
X150649928Y-187943542D01*
X150649928Y-187943542D02*
X150649928Y-188157828D01*
X150649928Y-188157828D02*
X150578500Y-188300685D01*
X150578500Y-188300685D02*
X150507071Y-188372114D01*
X150507071Y-188372114D02*
X150364214Y-188443542D01*
X150364214Y-188443542D02*
X149792785Y-188443542D01*
X151864214Y-189086400D02*
X151721357Y-189157828D01*
X151721357Y-189157828D02*
X151435643Y-189157828D01*
X151435643Y-189157828D02*
X151292785Y-189086400D01*
X151292785Y-189086400D02*
X151221357Y-188943542D01*
X151221357Y-188943542D02*
X151221357Y-188372114D01*
X151221357Y-188372114D02*
X151292785Y-188229257D01*
X151292785Y-188229257D02*
X151435643Y-188157828D01*
X151435643Y-188157828D02*
X151721357Y-188157828D01*
X151721357Y-188157828D02*
X151864214Y-188229257D01*
X151864214Y-188229257D02*
X151935643Y-188372114D01*
X151935643Y-188372114D02*
X151935643Y-188514971D01*
X151935643Y-188514971D02*
X151221357Y-188657828D01*
X152578499Y-189157828D02*
X152578499Y-188157828D01*
X152578499Y-188443542D02*
X152649928Y-188300685D01*
X152649928Y-188300685D02*
X152721357Y-188229257D01*
X152721357Y-188229257D02*
X152864214Y-188157828D01*
X152864214Y-188157828D02*
X153007071Y-188157828D01*
X153507070Y-189157828D02*
X153507070Y-188157828D01*
X153507070Y-188300685D02*
X153578499Y-188229257D01*
X153578499Y-188229257D02*
X153721356Y-188157828D01*
X153721356Y-188157828D02*
X153935642Y-188157828D01*
X153935642Y-188157828D02*
X154078499Y-188229257D01*
X154078499Y-188229257D02*
X154149928Y-188372114D01*
X154149928Y-188372114D02*
X154149928Y-189157828D01*
X154149928Y-188372114D02*
X154221356Y-188229257D01*
X154221356Y-188229257D02*
X154364213Y-188157828D01*
X154364213Y-188157828D02*
X154578499Y-188157828D01*
X154578499Y-188157828D02*
X154721356Y-188229257D01*
X154721356Y-188229257D02*
X154792785Y-188372114D01*
X154792785Y-188372114D02*
X154792785Y-189157828D01*
X155507070Y-189157828D02*
X155507070Y-188157828D01*
X155507070Y-187657828D02*
X155435642Y-187729257D01*
X155435642Y-187729257D02*
X155507070Y-187800685D01*
X155507070Y-187800685D02*
X155578499Y-187729257D01*
X155578499Y-187729257D02*
X155507070Y-187657828D01*
X155507070Y-187657828D02*
X155507070Y-187800685D01*
X156007071Y-188157828D02*
X156578499Y-188157828D01*
X156221356Y-187657828D02*
X156221356Y-188943542D01*
X156221356Y-188943542D02*
X156292785Y-189086400D01*
X156292785Y-189086400D02*
X156435642Y-189157828D01*
X156435642Y-189157828D02*
X156578499Y-189157828D01*
X157007071Y-189086400D02*
X157149928Y-189157828D01*
X157149928Y-189157828D02*
X157435642Y-189157828D01*
X157435642Y-189157828D02*
X157578499Y-189086400D01*
X157578499Y-189086400D02*
X157649928Y-188943542D01*
X157649928Y-188943542D02*
X157649928Y-188872114D01*
X157649928Y-188872114D02*
X157578499Y-188729257D01*
X157578499Y-188729257D02*
X157435642Y-188657828D01*
X157435642Y-188657828D02*
X157221357Y-188657828D01*
X157221357Y-188657828D02*
X157078499Y-188586400D01*
X157078499Y-188586400D02*
X157007071Y-188443542D01*
X157007071Y-188443542D02*
X157007071Y-188372114D01*
X157007071Y-188372114D02*
X157078499Y-188229257D01*
X157078499Y-188229257D02*
X157221357Y-188157828D01*
X157221357Y-188157828D02*
X157435642Y-188157828D01*
X157435642Y-188157828D02*
X157578499Y-188229257D01*
X160149928Y-189157828D02*
X159435642Y-189157828D01*
X159435642Y-189157828D02*
X159435642Y-187657828D01*
X160649928Y-189157828D02*
X160649928Y-188157828D01*
X160649928Y-187657828D02*
X160578500Y-187729257D01*
X160578500Y-187729257D02*
X160649928Y-187800685D01*
X160649928Y-187800685D02*
X160721357Y-187729257D01*
X160721357Y-187729257D02*
X160649928Y-187657828D01*
X160649928Y-187657828D02*
X160649928Y-187800685D01*
X161364214Y-188157828D02*
X161364214Y-189157828D01*
X161364214Y-188300685D02*
X161435643Y-188229257D01*
X161435643Y-188229257D02*
X161578500Y-188157828D01*
X161578500Y-188157828D02*
X161792786Y-188157828D01*
X161792786Y-188157828D02*
X161935643Y-188229257D01*
X161935643Y-188229257D02*
X162007072Y-188372114D01*
X162007072Y-188372114D02*
X162007072Y-189157828D01*
X162721357Y-189157828D02*
X162721357Y-187657828D01*
X162864215Y-188586400D02*
X163292786Y-189157828D01*
X163292786Y-188157828D02*
X162721357Y-188729257D01*
X164507072Y-189086400D02*
X164364215Y-189157828D01*
X164364215Y-189157828D02*
X164078501Y-189157828D01*
X164078501Y-189157828D02*
X163935643Y-189086400D01*
X163935643Y-189086400D02*
X163864215Y-188943542D01*
X163864215Y-188943542D02*
X163864215Y-188372114D01*
X163864215Y-188372114D02*
X163935643Y-188229257D01*
X163935643Y-188229257D02*
X164078501Y-188157828D01*
X164078501Y-188157828D02*
X164364215Y-188157828D01*
X164364215Y-188157828D02*
X164507072Y-188229257D01*
X164507072Y-188229257D02*
X164578501Y-188372114D01*
X164578501Y-188372114D02*
X164578501Y-188514971D01*
X164578501Y-188514971D02*
X163864215Y-188657828D01*
X165864215Y-189157828D02*
X165864215Y-187657828D01*
X165864215Y-189086400D02*
X165721357Y-189157828D01*
X165721357Y-189157828D02*
X165435643Y-189157828D01*
X165435643Y-189157828D02*
X165292786Y-189086400D01*
X165292786Y-189086400D02*
X165221357Y-189014971D01*
X165221357Y-189014971D02*
X165149929Y-188872114D01*
X165149929Y-188872114D02*
X165149929Y-188443542D01*
X165149929Y-188443542D02*
X165221357Y-188300685D01*
X165221357Y-188300685D02*
X165292786Y-188229257D01*
X165292786Y-188229257D02*
X165435643Y-188157828D01*
X165435643Y-188157828D02*
X165721357Y-188157828D01*
X165721357Y-188157828D02*
X165864215Y-188229257D01*
D12*
X92285053Y-42027939D02*
X92046957Y-42266035D01*
X92046957Y-42266035D02*
X91332672Y-42504130D01*
X91332672Y-42504130D02*
X90856481Y-42504130D01*
X90856481Y-42504130D02*
X90142195Y-42266035D01*
X90142195Y-42266035D02*
X89666005Y-41789844D01*
X89666005Y-41789844D02*
X89427910Y-41313654D01*
X89427910Y-41313654D02*
X89189814Y-40361273D01*
X89189814Y-40361273D02*
X89189814Y-39646987D01*
X89189814Y-39646987D02*
X89427910Y-38694606D01*
X89427910Y-38694606D02*
X89666005Y-38218415D01*
X89666005Y-38218415D02*
X90142195Y-37742225D01*
X90142195Y-37742225D02*
X90856481Y-37504130D01*
X90856481Y-37504130D02*
X91332672Y-37504130D01*
X91332672Y-37504130D02*
X92046957Y-37742225D01*
X92046957Y-37742225D02*
X92285053Y-37980320D01*
X94427910Y-42504130D02*
X94427910Y-37504130D01*
X94427910Y-37504130D02*
X96094576Y-41075558D01*
X96094576Y-41075558D02*
X97761243Y-37504130D01*
X97761243Y-37504130D02*
X97761243Y-42504130D01*
X99904100Y-42266035D02*
X100618386Y-42504130D01*
X100618386Y-42504130D02*
X101808862Y-42504130D01*
X101808862Y-42504130D02*
X102285053Y-42266035D01*
X102285053Y-42266035D02*
X102523148Y-42027939D01*
X102523148Y-42027939D02*
X102761243Y-41551749D01*
X102761243Y-41551749D02*
X102761243Y-41075558D01*
X102761243Y-41075558D02*
X102523148Y-40599368D01*
X102523148Y-40599368D02*
X102285053Y-40361273D01*
X102285053Y-40361273D02*
X101808862Y-40123177D01*
X101808862Y-40123177D02*
X100856481Y-39885082D01*
X100856481Y-39885082D02*
X100380291Y-39646987D01*
X100380291Y-39646987D02*
X100142196Y-39408892D01*
X100142196Y-39408892D02*
X99904100Y-38932701D01*
X99904100Y-38932701D02*
X99904100Y-38456511D01*
X99904100Y-38456511D02*
X100142196Y-37980320D01*
X100142196Y-37980320D02*
X100380291Y-37742225D01*
X100380291Y-37742225D02*
X100856481Y-37504130D01*
X100856481Y-37504130D02*
X102046958Y-37504130D01*
X102046958Y-37504130D02*
X102761243Y-37742225D01*
D16*
X86964157Y-51250995D02*
X87599157Y-51250995D01*
X87871300Y-52248852D02*
X86964157Y-52248852D01*
X86964157Y-52248852D02*
X86964157Y-50343852D01*
X86964157Y-50343852D02*
X87871300Y-50343852D01*
X88687728Y-50978852D02*
X88687728Y-52248852D01*
X88687728Y-51160280D02*
X88778442Y-51069566D01*
X88778442Y-51069566D02*
X88959871Y-50978852D01*
X88959871Y-50978852D02*
X89232014Y-50978852D01*
X89232014Y-50978852D02*
X89413442Y-51069566D01*
X89413442Y-51069566D02*
X89504157Y-51250995D01*
X89504157Y-51250995D02*
X89504157Y-52248852D01*
X91137013Y-52158138D02*
X90955585Y-52248852D01*
X90955585Y-52248852D02*
X90592728Y-52248852D01*
X90592728Y-52248852D02*
X90411299Y-52158138D01*
X90411299Y-52158138D02*
X90320585Y-51976709D01*
X90320585Y-51976709D02*
X90320585Y-51250995D01*
X90320585Y-51250995D02*
X90411299Y-51069566D01*
X90411299Y-51069566D02*
X90592728Y-50978852D01*
X90592728Y-50978852D02*
X90955585Y-50978852D01*
X90955585Y-50978852D02*
X91137013Y-51069566D01*
X91137013Y-51069566D02*
X91227728Y-51250995D01*
X91227728Y-51250995D02*
X91227728Y-51432423D01*
X91227728Y-51432423D02*
X90320585Y-51613852D01*
X92044156Y-52248852D02*
X92044156Y-50978852D01*
X92044156Y-51341709D02*
X92134870Y-51160280D01*
X92134870Y-51160280D02*
X92225585Y-51069566D01*
X92225585Y-51069566D02*
X92407013Y-50978852D01*
X92407013Y-50978852D02*
X92588442Y-50978852D01*
X94039871Y-50978852D02*
X94039871Y-52520995D01*
X94039871Y-52520995D02*
X93949156Y-52702423D01*
X93949156Y-52702423D02*
X93858442Y-52793138D01*
X93858442Y-52793138D02*
X93677013Y-52883852D01*
X93677013Y-52883852D02*
X93404871Y-52883852D01*
X93404871Y-52883852D02*
X93223442Y-52793138D01*
X94039871Y-52158138D02*
X93858442Y-52248852D01*
X93858442Y-52248852D02*
X93495585Y-52248852D01*
X93495585Y-52248852D02*
X93314156Y-52158138D01*
X93314156Y-52158138D02*
X93223442Y-52067423D01*
X93223442Y-52067423D02*
X93132728Y-51885995D01*
X93132728Y-51885995D02*
X93132728Y-51341709D01*
X93132728Y-51341709D02*
X93223442Y-51160280D01*
X93223442Y-51160280D02*
X93314156Y-51069566D01*
X93314156Y-51069566D02*
X93495585Y-50978852D01*
X93495585Y-50978852D02*
X93858442Y-50978852D01*
X93858442Y-50978852D02*
X94039871Y-51069566D01*
X94765584Y-50978852D02*
X95219156Y-52248852D01*
X95672727Y-50978852D02*
X95219156Y-52248852D01*
X95219156Y-52248852D02*
X95037727Y-52702423D01*
X95037727Y-52702423D02*
X94947013Y-52793138D01*
X94947013Y-52793138D02*
X94765584Y-52883852D01*
X98394157Y-52974566D02*
X98303442Y-52883852D01*
X98303442Y-52883852D02*
X98122014Y-52611709D01*
X98122014Y-52611709D02*
X98031300Y-52430280D01*
X98031300Y-52430280D02*
X97940585Y-52158138D01*
X97940585Y-52158138D02*
X97849871Y-51704566D01*
X97849871Y-51704566D02*
X97849871Y-51341709D01*
X97849871Y-51341709D02*
X97940585Y-50888138D01*
X97940585Y-50888138D02*
X98031300Y-50615995D01*
X98031300Y-50615995D02*
X98122014Y-50434566D01*
X98122014Y-50434566D02*
X98303442Y-50162423D01*
X98303442Y-50162423D02*
X98394157Y-50071709D01*
X100117728Y-50434566D02*
X99936300Y-50343852D01*
X99936300Y-50343852D02*
X99664157Y-50343852D01*
X99664157Y-50343852D02*
X99392014Y-50434566D01*
X99392014Y-50434566D02*
X99210585Y-50615995D01*
X99210585Y-50615995D02*
X99119871Y-50797423D01*
X99119871Y-50797423D02*
X99029157Y-51160280D01*
X99029157Y-51160280D02*
X99029157Y-51432423D01*
X99029157Y-51432423D02*
X99119871Y-51795280D01*
X99119871Y-51795280D02*
X99210585Y-51976709D01*
X99210585Y-51976709D02*
X99392014Y-52158138D01*
X99392014Y-52158138D02*
X99664157Y-52248852D01*
X99664157Y-52248852D02*
X99845585Y-52248852D01*
X99845585Y-52248852D02*
X100117728Y-52158138D01*
X100117728Y-52158138D02*
X100208442Y-52067423D01*
X100208442Y-52067423D02*
X100208442Y-51432423D01*
X100208442Y-51432423D02*
X99845585Y-51432423D01*
X101750585Y-52158138D02*
X101569157Y-52248852D01*
X101569157Y-52248852D02*
X101206300Y-52248852D01*
X101206300Y-52248852D02*
X101024871Y-52158138D01*
X101024871Y-52158138D02*
X100934157Y-51976709D01*
X100934157Y-51976709D02*
X100934157Y-51250995D01*
X100934157Y-51250995D02*
X101024871Y-51069566D01*
X101024871Y-51069566D02*
X101206300Y-50978852D01*
X101206300Y-50978852D02*
X101569157Y-50978852D01*
X101569157Y-50978852D02*
X101750585Y-51069566D01*
X101750585Y-51069566D02*
X101841300Y-51250995D01*
X101841300Y-51250995D02*
X101841300Y-51432423D01*
X101841300Y-51432423D02*
X100934157Y-51613852D01*
X102385585Y-50343852D02*
X103020585Y-52248852D01*
X103020585Y-52248852D02*
X103655585Y-50343852D01*
X104109156Y-52974566D02*
X104199871Y-52883852D01*
X104199871Y-52883852D02*
X104381299Y-52611709D01*
X104381299Y-52611709D02*
X104472014Y-52430280D01*
X104472014Y-52430280D02*
X104562728Y-52158138D01*
X104562728Y-52158138D02*
X104653442Y-51704566D01*
X104653442Y-51704566D02*
X104653442Y-51341709D01*
X104653442Y-51341709D02*
X104562728Y-50888138D01*
X104562728Y-50888138D02*
X104472014Y-50615995D01*
X104472014Y-50615995D02*
X104381299Y-50434566D01*
X104381299Y-50434566D02*
X104199871Y-50162423D01*
X104199871Y-50162423D02*
X104109156Y-50071709D01*
X92392500Y-96775052D02*
X93118214Y-96775052D01*
X92664643Y-96140052D02*
X92664643Y-97772909D01*
X92664643Y-97772909D02*
X92755357Y-97954338D01*
X92755357Y-97954338D02*
X92936786Y-98045052D01*
X92936786Y-98045052D02*
X93118214Y-98045052D01*
X94297500Y-98770766D02*
X94206785Y-98680052D01*
X94206785Y-98680052D02*
X94025357Y-98407909D01*
X94025357Y-98407909D02*
X93934643Y-98226480D01*
X93934643Y-98226480D02*
X93843928Y-97954338D01*
X93843928Y-97954338D02*
X93753214Y-97500766D01*
X93753214Y-97500766D02*
X93753214Y-97137909D01*
X93753214Y-97137909D02*
X93843928Y-96684338D01*
X93843928Y-96684338D02*
X93934643Y-96412195D01*
X93934643Y-96412195D02*
X94025357Y-96230766D01*
X94025357Y-96230766D02*
X94206785Y-95958623D01*
X94206785Y-95958623D02*
X94297500Y-95867909D01*
X94932500Y-97954338D02*
X95204643Y-98045052D01*
X95204643Y-98045052D02*
X95658214Y-98045052D01*
X95658214Y-98045052D02*
X95839643Y-97954338D01*
X95839643Y-97954338D02*
X95930357Y-97863623D01*
X95930357Y-97863623D02*
X96021071Y-97682195D01*
X96021071Y-97682195D02*
X96021071Y-97500766D01*
X96021071Y-97500766D02*
X95930357Y-97319338D01*
X95930357Y-97319338D02*
X95839643Y-97228623D01*
X95839643Y-97228623D02*
X95658214Y-97137909D01*
X95658214Y-97137909D02*
X95295357Y-97047195D01*
X95295357Y-97047195D02*
X95113928Y-96956480D01*
X95113928Y-96956480D02*
X95023214Y-96865766D01*
X95023214Y-96865766D02*
X94932500Y-96684338D01*
X94932500Y-96684338D02*
X94932500Y-96502909D01*
X94932500Y-96502909D02*
X95023214Y-96321480D01*
X95023214Y-96321480D02*
X95113928Y-96230766D01*
X95113928Y-96230766D02*
X95295357Y-96140052D01*
X95295357Y-96140052D02*
X95748928Y-96140052D01*
X95748928Y-96140052D02*
X96021071Y-96230766D01*
X97472500Y-97047195D02*
X97744643Y-97137909D01*
X97744643Y-97137909D02*
X97835357Y-97228623D01*
X97835357Y-97228623D02*
X97926071Y-97410052D01*
X97926071Y-97410052D02*
X97926071Y-97682195D01*
X97926071Y-97682195D02*
X97835357Y-97863623D01*
X97835357Y-97863623D02*
X97744643Y-97954338D01*
X97744643Y-97954338D02*
X97563214Y-98045052D01*
X97563214Y-98045052D02*
X96837500Y-98045052D01*
X96837500Y-98045052D02*
X96837500Y-96140052D01*
X96837500Y-96140052D02*
X97472500Y-96140052D01*
X97472500Y-96140052D02*
X97653929Y-96230766D01*
X97653929Y-96230766D02*
X97744643Y-96321480D01*
X97744643Y-96321480D02*
X97835357Y-96502909D01*
X97835357Y-96502909D02*
X97835357Y-96684338D01*
X97835357Y-96684338D02*
X97744643Y-96865766D01*
X97744643Y-96865766D02*
X97653929Y-96956480D01*
X97653929Y-96956480D02*
X97472500Y-97047195D01*
X97472500Y-97047195D02*
X96837500Y-97047195D01*
X98561071Y-98770766D02*
X98651786Y-98680052D01*
X98651786Y-98680052D02*
X98833214Y-98407909D01*
X98833214Y-98407909D02*
X98923929Y-98226480D01*
X98923929Y-98226480D02*
X99014643Y-97954338D01*
X99014643Y-97954338D02*
X99105357Y-97500766D01*
X99105357Y-97500766D02*
X99105357Y-97137909D01*
X99105357Y-97137909D02*
X99014643Y-96684338D01*
X99014643Y-96684338D02*
X98923929Y-96412195D01*
X98923929Y-96412195D02*
X98833214Y-96230766D01*
X98833214Y-96230766D02*
X98651786Y-95958623D01*
X98651786Y-95958623D02*
X98561071Y-95867909D01*
D17*
X149395924Y-168056995D02*
X149831352Y-168202138D01*
X149831352Y-168202138D02*
X149976495Y-168347281D01*
X149976495Y-168347281D02*
X150121638Y-168637566D01*
X150121638Y-168637566D02*
X150121638Y-169072995D01*
X150121638Y-169072995D02*
X149976495Y-169363281D01*
X149976495Y-169363281D02*
X149831352Y-169508424D01*
X149831352Y-169508424D02*
X149541067Y-169653566D01*
X149541067Y-169653566D02*
X148379924Y-169653566D01*
X148379924Y-169653566D02*
X148379924Y-166605566D01*
X148379924Y-166605566D02*
X149395924Y-166605566D01*
X149395924Y-166605566D02*
X149686210Y-166750709D01*
X149686210Y-166750709D02*
X149831352Y-166895852D01*
X149831352Y-166895852D02*
X149976495Y-167186138D01*
X149976495Y-167186138D02*
X149976495Y-167476424D01*
X149976495Y-167476424D02*
X149831352Y-167766709D01*
X149831352Y-167766709D02*
X149686210Y-167911852D01*
X149686210Y-167911852D02*
X149395924Y-168056995D01*
X149395924Y-168056995D02*
X148379924Y-168056995D01*
X151427924Y-169653566D02*
X151427924Y-166605566D01*
X152734210Y-169508424D02*
X153169639Y-169653566D01*
X153169639Y-169653566D02*
X153895353Y-169653566D01*
X153895353Y-169653566D02*
X154185639Y-169508424D01*
X154185639Y-169508424D02*
X154330781Y-169363281D01*
X154330781Y-169363281D02*
X154475924Y-169072995D01*
X154475924Y-169072995D02*
X154475924Y-168782709D01*
X154475924Y-168782709D02*
X154330781Y-168492424D01*
X154330781Y-168492424D02*
X154185639Y-168347281D01*
X154185639Y-168347281D02*
X153895353Y-168202138D01*
X153895353Y-168202138D02*
X153314781Y-168056995D01*
X153314781Y-168056995D02*
X153024496Y-167911852D01*
X153024496Y-167911852D02*
X152879353Y-167766709D01*
X152879353Y-167766709D02*
X152734210Y-167476424D01*
X152734210Y-167476424D02*
X152734210Y-167186138D01*
X152734210Y-167186138D02*
X152879353Y-166895852D01*
X152879353Y-166895852D02*
X153024496Y-166750709D01*
X153024496Y-166750709D02*
X153314781Y-166605566D01*
X153314781Y-166605566D02*
X154040496Y-166605566D01*
X154040496Y-166605566D02*
X154475924Y-166750709D01*
X157959353Y-166460424D02*
X155346781Y-170379281D01*
X158830210Y-169508424D02*
X159265639Y-169653566D01*
X159265639Y-169653566D02*
X159991353Y-169653566D01*
X159991353Y-169653566D02*
X160281639Y-169508424D01*
X160281639Y-169508424D02*
X160426781Y-169363281D01*
X160426781Y-169363281D02*
X160571924Y-169072995D01*
X160571924Y-169072995D02*
X160571924Y-168782709D01*
X160571924Y-168782709D02*
X160426781Y-168492424D01*
X160426781Y-168492424D02*
X160281639Y-168347281D01*
X160281639Y-168347281D02*
X159991353Y-168202138D01*
X159991353Y-168202138D02*
X159410781Y-168056995D01*
X159410781Y-168056995D02*
X159120496Y-167911852D01*
X159120496Y-167911852D02*
X158975353Y-167766709D01*
X158975353Y-167766709D02*
X158830210Y-167476424D01*
X158830210Y-167476424D02*
X158830210Y-167186138D01*
X158830210Y-167186138D02*
X158975353Y-166895852D01*
X158975353Y-166895852D02*
X159120496Y-166750709D01*
X159120496Y-166750709D02*
X159410781Y-166605566D01*
X159410781Y-166605566D02*
X160136496Y-166605566D01*
X160136496Y-166605566D02*
X160571924Y-166750709D01*
X161878210Y-169653566D02*
X161878210Y-166605566D01*
X161878210Y-166605566D02*
X162894210Y-168782709D01*
X162894210Y-168782709D02*
X163910210Y-166605566D01*
X163910210Y-166605566D02*
X163910210Y-169653566D01*
X165361639Y-169653566D02*
X165361639Y-166605566D01*
X165361639Y-166605566D02*
X166522782Y-166605566D01*
X166522782Y-166605566D02*
X166813067Y-166750709D01*
X166813067Y-166750709D02*
X166958210Y-166895852D01*
X166958210Y-166895852D02*
X167103353Y-167186138D01*
X167103353Y-167186138D02*
X167103353Y-167621566D01*
X167103353Y-167621566D02*
X166958210Y-167911852D01*
X166958210Y-167911852D02*
X166813067Y-168056995D01*
X166813067Y-168056995D02*
X166522782Y-168202138D01*
X166522782Y-168202138D02*
X165361639Y-168202138D01*
D15*
X129498610Y-53691066D02*
X129726392Y-53865439D01*
X129726392Y-53865439D02*
X129782631Y-53980744D01*
X129782631Y-53980744D02*
X129809335Y-54181822D01*
X129809335Y-54181822D02*
X129720734Y-54439138D01*
X129720734Y-54439138D02*
X129575895Y-54581149D01*
X129575895Y-54581149D02*
X129460589Y-54637387D01*
X129460589Y-54637387D02*
X129259511Y-54664092D01*
X129259511Y-54664092D02*
X128573335Y-54427822D01*
X128573335Y-54427822D02*
X129193542Y-52626609D01*
X129193542Y-52626609D02*
X129793947Y-52833345D01*
X129793947Y-52833345D02*
X129935957Y-52978185D01*
X129935957Y-52978185D02*
X129992195Y-53093490D01*
X129992195Y-53093490D02*
X130018900Y-53294568D01*
X130018900Y-53294568D02*
X129959833Y-53466112D01*
X129959833Y-53466112D02*
X129814993Y-53608123D01*
X129814993Y-53608123D02*
X129699688Y-53664361D01*
X129699688Y-53664361D02*
X129498610Y-53691066D01*
X129498610Y-53691066D02*
X128898206Y-53484330D01*
X130849916Y-53388827D02*
X130965222Y-53332589D01*
X130965222Y-53332589D02*
X131166299Y-53305884D01*
X131166299Y-53305884D02*
X131595160Y-53453553D01*
X131595160Y-53453553D02*
X131737170Y-53598392D01*
X131737170Y-53598392D02*
X131793408Y-53713698D01*
X131793408Y-53713698D02*
X131820113Y-53914775D01*
X131820113Y-53914775D02*
X131761046Y-54086320D01*
X131761046Y-54086320D02*
X131586673Y-54314102D01*
X131586673Y-54314102D02*
X130203004Y-54988962D01*
X130203004Y-54988962D02*
X131318040Y-55372900D01*
X133462342Y-56111242D02*
X134082549Y-54310030D01*
X134082549Y-54310030D02*
X134511410Y-54457698D01*
X134511410Y-54457698D02*
X134739192Y-54632071D01*
X134739192Y-54632071D02*
X134851669Y-54862683D01*
X134851669Y-54862683D02*
X134878373Y-55063760D01*
X134878373Y-55063760D02*
X134846011Y-55436382D01*
X134846011Y-55436382D02*
X134757410Y-55693698D01*
X134757410Y-55693698D02*
X134553503Y-56007253D01*
X134553503Y-56007253D02*
X134408664Y-56149263D01*
X134408664Y-56149263D02*
X134178052Y-56261740D01*
X134178052Y-56261740D02*
X133891202Y-56258911D01*
X133891202Y-56258911D02*
X133462342Y-56111242D01*
X136448975Y-55796444D02*
X136035503Y-56997253D01*
X135677027Y-55530641D02*
X135352156Y-56474134D01*
X135352156Y-56474134D02*
X135378861Y-56675211D01*
X135378861Y-56675211D02*
X135520871Y-56820051D01*
X135520871Y-56820051D02*
X135778187Y-56908652D01*
X135778187Y-56908652D02*
X135979265Y-56881947D01*
X135979265Y-56881947D02*
X136094571Y-56825709D01*
X136893223Y-57292590D02*
X137306695Y-56091781D01*
X137247628Y-56263325D02*
X137362933Y-56207087D01*
X137362933Y-56207087D02*
X137564011Y-56180382D01*
X137564011Y-56180382D02*
X137821327Y-56268983D01*
X137821327Y-56268983D02*
X137963338Y-56413823D01*
X137963338Y-56413823D02*
X137990042Y-56614900D01*
X137990042Y-56614900D02*
X137665172Y-57558393D01*
X137990042Y-56614900D02*
X138134882Y-56472890D01*
X138134882Y-56472890D02*
X138335959Y-56446185D01*
X138335959Y-56446185D02*
X138593276Y-56534786D01*
X138593276Y-56534786D02*
X138735286Y-56679626D01*
X138735286Y-56679626D02*
X138761991Y-56880703D01*
X138761991Y-56880703D02*
X138437120Y-57824196D01*
X139708312Y-56918724D02*
X139088105Y-58719937D01*
X139678778Y-57004496D02*
X139879856Y-56977792D01*
X139879856Y-56977792D02*
X140222944Y-57095926D01*
X140222944Y-57095926D02*
X140364955Y-57240766D01*
X140364955Y-57240766D02*
X140421193Y-57356071D01*
X140421193Y-57356071D02*
X140447898Y-57557149D01*
X140447898Y-57557149D02*
X140270696Y-58071781D01*
X140270696Y-58071781D02*
X140125856Y-58213792D01*
X140125856Y-58213792D02*
X140010551Y-58270030D01*
X140010551Y-58270030D02*
X139809473Y-58296735D01*
X139809473Y-58296735D02*
X139466385Y-58178600D01*
X139466385Y-58178600D02*
X139324374Y-58033761D01*
D11*
X76915034Y-111617652D02*
X76915034Y-110601652D01*
X76915034Y-110601652D02*
X77156939Y-110601652D01*
X77156939Y-110601652D02*
X77302082Y-110650033D01*
X77302082Y-110650033D02*
X77398844Y-110746795D01*
X77398844Y-110746795D02*
X77447225Y-110843557D01*
X77447225Y-110843557D02*
X77495606Y-111037081D01*
X77495606Y-111037081D02*
X77495606Y-111182224D01*
X77495606Y-111182224D02*
X77447225Y-111375748D01*
X77447225Y-111375748D02*
X77398844Y-111472510D01*
X77398844Y-111472510D02*
X77302082Y-111569272D01*
X77302082Y-111569272D02*
X77156939Y-111617652D01*
X77156939Y-111617652D02*
X76915034Y-111617652D01*
X77882653Y-111569272D02*
X78027796Y-111617652D01*
X78027796Y-111617652D02*
X78269701Y-111617652D01*
X78269701Y-111617652D02*
X78366463Y-111569272D01*
X78366463Y-111569272D02*
X78414844Y-111520891D01*
X78414844Y-111520891D02*
X78463225Y-111424129D01*
X78463225Y-111424129D02*
X78463225Y-111327367D01*
X78463225Y-111327367D02*
X78414844Y-111230605D01*
X78414844Y-111230605D02*
X78366463Y-111182224D01*
X78366463Y-111182224D02*
X78269701Y-111133843D01*
X78269701Y-111133843D02*
X78076177Y-111085462D01*
X78076177Y-111085462D02*
X77979415Y-111037081D01*
X77979415Y-111037081D02*
X77931034Y-110988700D01*
X77931034Y-110988700D02*
X77882653Y-110891938D01*
X77882653Y-110891938D02*
X77882653Y-110795176D01*
X77882653Y-110795176D02*
X77931034Y-110698414D01*
X77931034Y-110698414D02*
X77979415Y-110650033D01*
X77979415Y-110650033D02*
X78076177Y-110601652D01*
X78076177Y-110601652D02*
X78318082Y-110601652D01*
X78318082Y-110601652D02*
X78463225Y-110650033D01*
X78898653Y-111617652D02*
X78898653Y-110601652D01*
X78898653Y-110601652D02*
X79285701Y-110601652D01*
X79285701Y-110601652D02*
X79382463Y-110650033D01*
X79382463Y-110650033D02*
X79430844Y-110698414D01*
X79430844Y-110698414D02*
X79479225Y-110795176D01*
X79479225Y-110795176D02*
X79479225Y-110940319D01*
X79479225Y-110940319D02*
X79430844Y-111037081D01*
X79430844Y-111037081D02*
X79382463Y-111085462D01*
X79382463Y-111085462D02*
X79285701Y-111133843D01*
X79285701Y-111133843D02*
X78898653Y-111133843D01*
X80398463Y-110601652D02*
X79914653Y-110601652D01*
X79914653Y-110601652D02*
X79866272Y-111085462D01*
X79866272Y-111085462D02*
X79914653Y-111037081D01*
X79914653Y-111037081D02*
X80011415Y-110988700D01*
X80011415Y-110988700D02*
X80253320Y-110988700D01*
X80253320Y-110988700D02*
X80350082Y-111037081D01*
X80350082Y-111037081D02*
X80398463Y-111085462D01*
X80398463Y-111085462D02*
X80446844Y-111182224D01*
X80446844Y-111182224D02*
X80446844Y-111424129D01*
X80446844Y-111424129D02*
X80398463Y-111520891D01*
X80398463Y-111520891D02*
X80350082Y-111569272D01*
X80350082Y-111569272D02*
X80253320Y-111617652D01*
X80253320Y-111617652D02*
X80011415Y-111617652D01*
X80011415Y-111617652D02*
X79914653Y-111569272D01*
X79914653Y-111569272D02*
X79866272Y-111520891D01*
X97957017Y-58230181D02*
X97957017Y-57214181D01*
X97957017Y-57214181D02*
X98195112Y-57214181D01*
X98195112Y-57214181D02*
X98337969Y-57262562D01*
X98337969Y-57262562D02*
X98433207Y-57359324D01*
X98433207Y-57359324D02*
X98480826Y-57456086D01*
X98480826Y-57456086D02*
X98528445Y-57649610D01*
X98528445Y-57649610D02*
X98528445Y-57794753D01*
X98528445Y-57794753D02*
X98480826Y-57988277D01*
X98480826Y-57988277D02*
X98433207Y-58085039D01*
X98433207Y-58085039D02*
X98337969Y-58181801D01*
X98337969Y-58181801D02*
X98195112Y-58230181D01*
X98195112Y-58230181D02*
X97957017Y-58230181D01*
X98909398Y-58181801D02*
X99052255Y-58230181D01*
X99052255Y-58230181D02*
X99290350Y-58230181D01*
X99290350Y-58230181D02*
X99385588Y-58181801D01*
X99385588Y-58181801D02*
X99433207Y-58133420D01*
X99433207Y-58133420D02*
X99480826Y-58036658D01*
X99480826Y-58036658D02*
X99480826Y-57939896D01*
X99480826Y-57939896D02*
X99433207Y-57843134D01*
X99433207Y-57843134D02*
X99385588Y-57794753D01*
X99385588Y-57794753D02*
X99290350Y-57746372D01*
X99290350Y-57746372D02*
X99099874Y-57697991D01*
X99099874Y-57697991D02*
X99004636Y-57649610D01*
X99004636Y-57649610D02*
X98957017Y-57601229D01*
X98957017Y-57601229D02*
X98909398Y-57504467D01*
X98909398Y-57504467D02*
X98909398Y-57407705D01*
X98909398Y-57407705D02*
X98957017Y-57310943D01*
X98957017Y-57310943D02*
X99004636Y-57262562D01*
X99004636Y-57262562D02*
X99099874Y-57214181D01*
X99099874Y-57214181D02*
X99337969Y-57214181D01*
X99337969Y-57214181D02*
X99480826Y-57262562D01*
X99909398Y-58230181D02*
X99909398Y-57214181D01*
X99909398Y-57214181D02*
X100290350Y-57214181D01*
X100290350Y-57214181D02*
X100385588Y-57262562D01*
X100385588Y-57262562D02*
X100433207Y-57310943D01*
X100433207Y-57310943D02*
X100480826Y-57407705D01*
X100480826Y-57407705D02*
X100480826Y-57552848D01*
X100480826Y-57552848D02*
X100433207Y-57649610D01*
X100433207Y-57649610D02*
X100385588Y-57697991D01*
X100385588Y-57697991D02*
X100290350Y-57746372D01*
X100290350Y-57746372D02*
X99909398Y-57746372D01*
X101052255Y-57649610D02*
X100957017Y-57601229D01*
X100957017Y-57601229D02*
X100909398Y-57552848D01*
X100909398Y-57552848D02*
X100861779Y-57456086D01*
X100861779Y-57456086D02*
X100861779Y-57407705D01*
X100861779Y-57407705D02*
X100909398Y-57310943D01*
X100909398Y-57310943D02*
X100957017Y-57262562D01*
X100957017Y-57262562D02*
X101052255Y-57214181D01*
X101052255Y-57214181D02*
X101242731Y-57214181D01*
X101242731Y-57214181D02*
X101337969Y-57262562D01*
X101337969Y-57262562D02*
X101385588Y-57310943D01*
X101385588Y-57310943D02*
X101433207Y-57407705D01*
X101433207Y-57407705D02*
X101433207Y-57456086D01*
X101433207Y-57456086D02*
X101385588Y-57552848D01*
X101385588Y-57552848D02*
X101337969Y-57601229D01*
X101337969Y-57601229D02*
X101242731Y-57649610D01*
X101242731Y-57649610D02*
X101052255Y-57649610D01*
X101052255Y-57649610D02*
X100957017Y-57697991D01*
X100957017Y-57697991D02*
X100909398Y-57746372D01*
X100909398Y-57746372D02*
X100861779Y-57843134D01*
X100861779Y-57843134D02*
X100861779Y-58036658D01*
X100861779Y-58036658D02*
X100909398Y-58133420D01*
X100909398Y-58133420D02*
X100957017Y-58181801D01*
X100957017Y-58181801D02*
X101052255Y-58230181D01*
X101052255Y-58230181D02*
X101242731Y-58230181D01*
X101242731Y-58230181D02*
X101337969Y-58181801D01*
X101337969Y-58181801D02*
X101385588Y-58133420D01*
X101385588Y-58133420D02*
X101433207Y-58036658D01*
X101433207Y-58036658D02*
X101433207Y-57843134D01*
X101433207Y-57843134D02*
X101385588Y-57746372D01*
X101385588Y-57746372D02*
X101337969Y-57697991D01*
X101337969Y-57697991D02*
X101242731Y-57649610D01*
X105577017Y-58230181D02*
X105577017Y-57214181D01*
X105577017Y-57214181D02*
X105815112Y-57214181D01*
X105815112Y-57214181D02*
X105957969Y-57262562D01*
X105957969Y-57262562D02*
X106053207Y-57359324D01*
X106053207Y-57359324D02*
X106100826Y-57456086D01*
X106100826Y-57456086D02*
X106148445Y-57649610D01*
X106148445Y-57649610D02*
X106148445Y-57794753D01*
X106148445Y-57794753D02*
X106100826Y-57988277D01*
X106100826Y-57988277D02*
X106053207Y-58085039D01*
X106053207Y-58085039D02*
X105957969Y-58181801D01*
X105957969Y-58181801D02*
X105815112Y-58230181D01*
X105815112Y-58230181D02*
X105577017Y-58230181D01*
X106529398Y-58181801D02*
X106672255Y-58230181D01*
X106672255Y-58230181D02*
X106910350Y-58230181D01*
X106910350Y-58230181D02*
X107005588Y-58181801D01*
X107005588Y-58181801D02*
X107053207Y-58133420D01*
X107053207Y-58133420D02*
X107100826Y-58036658D01*
X107100826Y-58036658D02*
X107100826Y-57939896D01*
X107100826Y-57939896D02*
X107053207Y-57843134D01*
X107053207Y-57843134D02*
X107005588Y-57794753D01*
X107005588Y-57794753D02*
X106910350Y-57746372D01*
X106910350Y-57746372D02*
X106719874Y-57697991D01*
X106719874Y-57697991D02*
X106624636Y-57649610D01*
X106624636Y-57649610D02*
X106577017Y-57601229D01*
X106577017Y-57601229D02*
X106529398Y-57504467D01*
X106529398Y-57504467D02*
X106529398Y-57407705D01*
X106529398Y-57407705D02*
X106577017Y-57310943D01*
X106577017Y-57310943D02*
X106624636Y-57262562D01*
X106624636Y-57262562D02*
X106719874Y-57214181D01*
X106719874Y-57214181D02*
X106957969Y-57214181D01*
X106957969Y-57214181D02*
X107100826Y-57262562D01*
X107529398Y-58230181D02*
X107529398Y-57214181D01*
X107529398Y-57214181D02*
X107910350Y-57214181D01*
X107910350Y-57214181D02*
X108005588Y-57262562D01*
X108005588Y-57262562D02*
X108053207Y-57310943D01*
X108053207Y-57310943D02*
X108100826Y-57407705D01*
X108100826Y-57407705D02*
X108100826Y-57552848D01*
X108100826Y-57552848D02*
X108053207Y-57649610D01*
X108053207Y-57649610D02*
X108005588Y-57697991D01*
X108005588Y-57697991D02*
X107910350Y-57746372D01*
X107910350Y-57746372D02*
X107529398Y-57746372D01*
X108577017Y-58230181D02*
X108767493Y-58230181D01*
X108767493Y-58230181D02*
X108862731Y-58181801D01*
X108862731Y-58181801D02*
X108910350Y-58133420D01*
X108910350Y-58133420D02*
X109005588Y-57988277D01*
X109005588Y-57988277D02*
X109053207Y-57794753D01*
X109053207Y-57794753D02*
X109053207Y-57407705D01*
X109053207Y-57407705D02*
X109005588Y-57310943D01*
X109005588Y-57310943D02*
X108957969Y-57262562D01*
X108957969Y-57262562D02*
X108862731Y-57214181D01*
X108862731Y-57214181D02*
X108672255Y-57214181D01*
X108672255Y-57214181D02*
X108577017Y-57262562D01*
X108577017Y-57262562D02*
X108529398Y-57310943D01*
X108529398Y-57310943D02*
X108481779Y-57407705D01*
X108481779Y-57407705D02*
X108481779Y-57649610D01*
X108481779Y-57649610D02*
X108529398Y-57746372D01*
X108529398Y-57746372D02*
X108577017Y-57794753D01*
X108577017Y-57794753D02*
X108672255Y-57843134D01*
X108672255Y-57843134D02*
X108862731Y-57843134D01*
X108862731Y-57843134D02*
X108957969Y-57794753D01*
X108957969Y-57794753D02*
X109005588Y-57746372D01*
X109005588Y-57746372D02*
X109053207Y-57649610D01*
X115707885Y-85856895D02*
X115707885Y-84840895D01*
X115707885Y-84840895D02*
X115949790Y-84840895D01*
X115949790Y-84840895D02*
X116094933Y-84889276D01*
X116094933Y-84889276D02*
X116191695Y-84986038D01*
X116191695Y-84986038D02*
X116240076Y-85082800D01*
X116240076Y-85082800D02*
X116288457Y-85276324D01*
X116288457Y-85276324D02*
X116288457Y-85421467D01*
X116288457Y-85421467D02*
X116240076Y-85614991D01*
X116240076Y-85614991D02*
X116191695Y-85711753D01*
X116191695Y-85711753D02*
X116094933Y-85808515D01*
X116094933Y-85808515D02*
X115949790Y-85856895D01*
X115949790Y-85856895D02*
X115707885Y-85856895D01*
X116675504Y-85808515D02*
X116820647Y-85856895D01*
X116820647Y-85856895D02*
X117062552Y-85856895D01*
X117062552Y-85856895D02*
X117159314Y-85808515D01*
X117159314Y-85808515D02*
X117207695Y-85760134D01*
X117207695Y-85760134D02*
X117256076Y-85663372D01*
X117256076Y-85663372D02*
X117256076Y-85566610D01*
X117256076Y-85566610D02*
X117207695Y-85469848D01*
X117207695Y-85469848D02*
X117159314Y-85421467D01*
X117159314Y-85421467D02*
X117062552Y-85373086D01*
X117062552Y-85373086D02*
X116869028Y-85324705D01*
X116869028Y-85324705D02*
X116772266Y-85276324D01*
X116772266Y-85276324D02*
X116723885Y-85227943D01*
X116723885Y-85227943D02*
X116675504Y-85131181D01*
X116675504Y-85131181D02*
X116675504Y-85034419D01*
X116675504Y-85034419D02*
X116723885Y-84937657D01*
X116723885Y-84937657D02*
X116772266Y-84889276D01*
X116772266Y-84889276D02*
X116869028Y-84840895D01*
X116869028Y-84840895D02*
X117110933Y-84840895D01*
X117110933Y-84840895D02*
X117256076Y-84889276D01*
X117691504Y-85856895D02*
X117691504Y-84840895D01*
X117691504Y-84840895D02*
X118078552Y-84840895D01*
X118078552Y-84840895D02*
X118175314Y-84889276D01*
X118175314Y-84889276D02*
X118223695Y-84937657D01*
X118223695Y-84937657D02*
X118272076Y-85034419D01*
X118272076Y-85034419D02*
X118272076Y-85179562D01*
X118272076Y-85179562D02*
X118223695Y-85276324D01*
X118223695Y-85276324D02*
X118175314Y-85324705D01*
X118175314Y-85324705D02*
X118078552Y-85373086D01*
X118078552Y-85373086D02*
X117691504Y-85373086D01*
X119142933Y-85179562D02*
X119142933Y-85856895D01*
X118901028Y-84792515D02*
X118659123Y-85518229D01*
X118659123Y-85518229D02*
X119288076Y-85518229D01*
X72553285Y-88239595D02*
X72553285Y-87223595D01*
X72553285Y-87223595D02*
X72795190Y-87223595D01*
X72795190Y-87223595D02*
X72940333Y-87271976D01*
X72940333Y-87271976D02*
X73037095Y-87368738D01*
X73037095Y-87368738D02*
X73085476Y-87465500D01*
X73085476Y-87465500D02*
X73133857Y-87659024D01*
X73133857Y-87659024D02*
X73133857Y-87804167D01*
X73133857Y-87804167D02*
X73085476Y-87997691D01*
X73085476Y-87997691D02*
X73037095Y-88094453D01*
X73037095Y-88094453D02*
X72940333Y-88191215D01*
X72940333Y-88191215D02*
X72795190Y-88239595D01*
X72795190Y-88239595D02*
X72553285Y-88239595D01*
X73520904Y-88191215D02*
X73666047Y-88239595D01*
X73666047Y-88239595D02*
X73907952Y-88239595D01*
X73907952Y-88239595D02*
X74004714Y-88191215D01*
X74004714Y-88191215D02*
X74053095Y-88142834D01*
X74053095Y-88142834D02*
X74101476Y-88046072D01*
X74101476Y-88046072D02*
X74101476Y-87949310D01*
X74101476Y-87949310D02*
X74053095Y-87852548D01*
X74053095Y-87852548D02*
X74004714Y-87804167D01*
X74004714Y-87804167D02*
X73907952Y-87755786D01*
X73907952Y-87755786D02*
X73714428Y-87707405D01*
X73714428Y-87707405D02*
X73617666Y-87659024D01*
X73617666Y-87659024D02*
X73569285Y-87610643D01*
X73569285Y-87610643D02*
X73520904Y-87513881D01*
X73520904Y-87513881D02*
X73520904Y-87417119D01*
X73520904Y-87417119D02*
X73569285Y-87320357D01*
X73569285Y-87320357D02*
X73617666Y-87271976D01*
X73617666Y-87271976D02*
X73714428Y-87223595D01*
X73714428Y-87223595D02*
X73956333Y-87223595D01*
X73956333Y-87223595D02*
X74101476Y-87271976D01*
X74536904Y-88239595D02*
X74536904Y-87223595D01*
X74536904Y-87223595D02*
X74923952Y-87223595D01*
X74923952Y-87223595D02*
X75020714Y-87271976D01*
X75020714Y-87271976D02*
X75069095Y-87320357D01*
X75069095Y-87320357D02*
X75117476Y-87417119D01*
X75117476Y-87417119D02*
X75117476Y-87562262D01*
X75117476Y-87562262D02*
X75069095Y-87659024D01*
X75069095Y-87659024D02*
X75020714Y-87707405D01*
X75020714Y-87707405D02*
X74923952Y-87755786D01*
X74923952Y-87755786D02*
X74536904Y-87755786D01*
X75456142Y-87223595D02*
X76085095Y-87223595D01*
X76085095Y-87223595D02*
X75746428Y-87610643D01*
X75746428Y-87610643D02*
X75891571Y-87610643D01*
X75891571Y-87610643D02*
X75988333Y-87659024D01*
X75988333Y-87659024D02*
X76036714Y-87707405D01*
X76036714Y-87707405D02*
X76085095Y-87804167D01*
X76085095Y-87804167D02*
X76085095Y-88046072D01*
X76085095Y-88046072D02*
X76036714Y-88142834D01*
X76036714Y-88142834D02*
X75988333Y-88191215D01*
X75988333Y-88191215D02*
X75891571Y-88239595D01*
X75891571Y-88239595D02*
X75601285Y-88239595D01*
X75601285Y-88239595D02*
X75504523Y-88191215D01*
X75504523Y-88191215D02*
X75456142Y-88142834D01*
X82717017Y-58230181D02*
X82717017Y-57214181D01*
X82717017Y-57214181D02*
X82955112Y-57214181D01*
X82955112Y-57214181D02*
X83097969Y-57262562D01*
X83097969Y-57262562D02*
X83193207Y-57359324D01*
X83193207Y-57359324D02*
X83240826Y-57456086D01*
X83240826Y-57456086D02*
X83288445Y-57649610D01*
X83288445Y-57649610D02*
X83288445Y-57794753D01*
X83288445Y-57794753D02*
X83240826Y-57988277D01*
X83240826Y-57988277D02*
X83193207Y-58085039D01*
X83193207Y-58085039D02*
X83097969Y-58181801D01*
X83097969Y-58181801D02*
X82955112Y-58230181D01*
X82955112Y-58230181D02*
X82717017Y-58230181D01*
X83669398Y-58181801D02*
X83812255Y-58230181D01*
X83812255Y-58230181D02*
X84050350Y-58230181D01*
X84050350Y-58230181D02*
X84145588Y-58181801D01*
X84145588Y-58181801D02*
X84193207Y-58133420D01*
X84193207Y-58133420D02*
X84240826Y-58036658D01*
X84240826Y-58036658D02*
X84240826Y-57939896D01*
X84240826Y-57939896D02*
X84193207Y-57843134D01*
X84193207Y-57843134D02*
X84145588Y-57794753D01*
X84145588Y-57794753D02*
X84050350Y-57746372D01*
X84050350Y-57746372D02*
X83859874Y-57697991D01*
X83859874Y-57697991D02*
X83764636Y-57649610D01*
X83764636Y-57649610D02*
X83717017Y-57601229D01*
X83717017Y-57601229D02*
X83669398Y-57504467D01*
X83669398Y-57504467D02*
X83669398Y-57407705D01*
X83669398Y-57407705D02*
X83717017Y-57310943D01*
X83717017Y-57310943D02*
X83764636Y-57262562D01*
X83764636Y-57262562D02*
X83859874Y-57214181D01*
X83859874Y-57214181D02*
X84097969Y-57214181D01*
X84097969Y-57214181D02*
X84240826Y-57262562D01*
X84669398Y-58230181D02*
X84669398Y-57214181D01*
X84669398Y-57214181D02*
X85050350Y-57214181D01*
X85050350Y-57214181D02*
X85145588Y-57262562D01*
X85145588Y-57262562D02*
X85193207Y-57310943D01*
X85193207Y-57310943D02*
X85240826Y-57407705D01*
X85240826Y-57407705D02*
X85240826Y-57552848D01*
X85240826Y-57552848D02*
X85193207Y-57649610D01*
X85193207Y-57649610D02*
X85145588Y-57697991D01*
X85145588Y-57697991D02*
X85050350Y-57746372D01*
X85050350Y-57746372D02*
X84669398Y-57746372D01*
X86097969Y-57214181D02*
X85907493Y-57214181D01*
X85907493Y-57214181D02*
X85812255Y-57262562D01*
X85812255Y-57262562D02*
X85764636Y-57310943D01*
X85764636Y-57310943D02*
X85669398Y-57456086D01*
X85669398Y-57456086D02*
X85621779Y-57649610D01*
X85621779Y-57649610D02*
X85621779Y-58036658D01*
X85621779Y-58036658D02*
X85669398Y-58133420D01*
X85669398Y-58133420D02*
X85717017Y-58181801D01*
X85717017Y-58181801D02*
X85812255Y-58230181D01*
X85812255Y-58230181D02*
X86002731Y-58230181D01*
X86002731Y-58230181D02*
X86097969Y-58181801D01*
X86097969Y-58181801D02*
X86145588Y-58133420D01*
X86145588Y-58133420D02*
X86193207Y-58036658D01*
X86193207Y-58036658D02*
X86193207Y-57794753D01*
X86193207Y-57794753D02*
X86145588Y-57697991D01*
X86145588Y-57697991D02*
X86097969Y-57649610D01*
X86097969Y-57649610D02*
X86002731Y-57601229D01*
X86002731Y-57601229D02*
X85812255Y-57601229D01*
X85812255Y-57601229D02*
X85717017Y-57649610D01*
X85717017Y-57649610D02*
X85669398Y-57697991D01*
X85669398Y-57697991D02*
X85621779Y-57794753D01*
X115733285Y-76428595D02*
X115733285Y-75412595D01*
X115733285Y-75412595D02*
X115975190Y-75412595D01*
X115975190Y-75412595D02*
X116120333Y-75460976D01*
X116120333Y-75460976D02*
X116217095Y-75557738D01*
X116217095Y-75557738D02*
X116265476Y-75654500D01*
X116265476Y-75654500D02*
X116313857Y-75848024D01*
X116313857Y-75848024D02*
X116313857Y-75993167D01*
X116313857Y-75993167D02*
X116265476Y-76186691D01*
X116265476Y-76186691D02*
X116217095Y-76283453D01*
X116217095Y-76283453D02*
X116120333Y-76380215D01*
X116120333Y-76380215D02*
X115975190Y-76428595D01*
X115975190Y-76428595D02*
X115733285Y-76428595D01*
X116700904Y-76380215D02*
X116846047Y-76428595D01*
X116846047Y-76428595D02*
X117087952Y-76428595D01*
X117087952Y-76428595D02*
X117184714Y-76380215D01*
X117184714Y-76380215D02*
X117233095Y-76331834D01*
X117233095Y-76331834D02*
X117281476Y-76235072D01*
X117281476Y-76235072D02*
X117281476Y-76138310D01*
X117281476Y-76138310D02*
X117233095Y-76041548D01*
X117233095Y-76041548D02*
X117184714Y-75993167D01*
X117184714Y-75993167D02*
X117087952Y-75944786D01*
X117087952Y-75944786D02*
X116894428Y-75896405D01*
X116894428Y-75896405D02*
X116797666Y-75848024D01*
X116797666Y-75848024D02*
X116749285Y-75799643D01*
X116749285Y-75799643D02*
X116700904Y-75702881D01*
X116700904Y-75702881D02*
X116700904Y-75606119D01*
X116700904Y-75606119D02*
X116749285Y-75509357D01*
X116749285Y-75509357D02*
X116797666Y-75460976D01*
X116797666Y-75460976D02*
X116894428Y-75412595D01*
X116894428Y-75412595D02*
X117136333Y-75412595D01*
X117136333Y-75412595D02*
X117281476Y-75460976D01*
X117716904Y-76428595D02*
X117716904Y-75412595D01*
X117716904Y-75412595D02*
X118103952Y-75412595D01*
X118103952Y-75412595D02*
X118200714Y-75460976D01*
X118200714Y-75460976D02*
X118249095Y-75509357D01*
X118249095Y-75509357D02*
X118297476Y-75606119D01*
X118297476Y-75606119D02*
X118297476Y-75751262D01*
X118297476Y-75751262D02*
X118249095Y-75848024D01*
X118249095Y-75848024D02*
X118200714Y-75896405D01*
X118200714Y-75896405D02*
X118103952Y-75944786D01*
X118103952Y-75944786D02*
X117716904Y-75944786D01*
X118684523Y-75509357D02*
X118732904Y-75460976D01*
X118732904Y-75460976D02*
X118829666Y-75412595D01*
X118829666Y-75412595D02*
X119071571Y-75412595D01*
X119071571Y-75412595D02*
X119168333Y-75460976D01*
X119168333Y-75460976D02*
X119216714Y-75509357D01*
X119216714Y-75509357D02*
X119265095Y-75606119D01*
X119265095Y-75606119D02*
X119265095Y-75702881D01*
X119265095Y-75702881D02*
X119216714Y-75848024D01*
X119216714Y-75848024D02*
X118636142Y-76428595D01*
X118636142Y-76428595D02*
X119265095Y-76428595D01*
X90337017Y-58230181D02*
X90337017Y-57214181D01*
X90337017Y-57214181D02*
X90575112Y-57214181D01*
X90575112Y-57214181D02*
X90717969Y-57262562D01*
X90717969Y-57262562D02*
X90813207Y-57359324D01*
X90813207Y-57359324D02*
X90860826Y-57456086D01*
X90860826Y-57456086D02*
X90908445Y-57649610D01*
X90908445Y-57649610D02*
X90908445Y-57794753D01*
X90908445Y-57794753D02*
X90860826Y-57988277D01*
X90860826Y-57988277D02*
X90813207Y-58085039D01*
X90813207Y-58085039D02*
X90717969Y-58181801D01*
X90717969Y-58181801D02*
X90575112Y-58230181D01*
X90575112Y-58230181D02*
X90337017Y-58230181D01*
X91289398Y-58181801D02*
X91432255Y-58230181D01*
X91432255Y-58230181D02*
X91670350Y-58230181D01*
X91670350Y-58230181D02*
X91765588Y-58181801D01*
X91765588Y-58181801D02*
X91813207Y-58133420D01*
X91813207Y-58133420D02*
X91860826Y-58036658D01*
X91860826Y-58036658D02*
X91860826Y-57939896D01*
X91860826Y-57939896D02*
X91813207Y-57843134D01*
X91813207Y-57843134D02*
X91765588Y-57794753D01*
X91765588Y-57794753D02*
X91670350Y-57746372D01*
X91670350Y-57746372D02*
X91479874Y-57697991D01*
X91479874Y-57697991D02*
X91384636Y-57649610D01*
X91384636Y-57649610D02*
X91337017Y-57601229D01*
X91337017Y-57601229D02*
X91289398Y-57504467D01*
X91289398Y-57504467D02*
X91289398Y-57407705D01*
X91289398Y-57407705D02*
X91337017Y-57310943D01*
X91337017Y-57310943D02*
X91384636Y-57262562D01*
X91384636Y-57262562D02*
X91479874Y-57214181D01*
X91479874Y-57214181D02*
X91717969Y-57214181D01*
X91717969Y-57214181D02*
X91860826Y-57262562D01*
X92289398Y-58230181D02*
X92289398Y-57214181D01*
X92289398Y-57214181D02*
X92670350Y-57214181D01*
X92670350Y-57214181D02*
X92765588Y-57262562D01*
X92765588Y-57262562D02*
X92813207Y-57310943D01*
X92813207Y-57310943D02*
X92860826Y-57407705D01*
X92860826Y-57407705D02*
X92860826Y-57552848D01*
X92860826Y-57552848D02*
X92813207Y-57649610D01*
X92813207Y-57649610D02*
X92765588Y-57697991D01*
X92765588Y-57697991D02*
X92670350Y-57746372D01*
X92670350Y-57746372D02*
X92289398Y-57746372D01*
X93194160Y-57214181D02*
X93860826Y-57214181D01*
X93860826Y-57214181D02*
X93432255Y-58230181D01*
X72553285Y-76428595D02*
X72553285Y-75412595D01*
X72553285Y-75412595D02*
X72795190Y-75412595D01*
X72795190Y-75412595D02*
X72940333Y-75460976D01*
X72940333Y-75460976D02*
X73037095Y-75557738D01*
X73037095Y-75557738D02*
X73085476Y-75654500D01*
X73085476Y-75654500D02*
X73133857Y-75848024D01*
X73133857Y-75848024D02*
X73133857Y-75993167D01*
X73133857Y-75993167D02*
X73085476Y-76186691D01*
X73085476Y-76186691D02*
X73037095Y-76283453D01*
X73037095Y-76283453D02*
X72940333Y-76380215D01*
X72940333Y-76380215D02*
X72795190Y-76428595D01*
X72795190Y-76428595D02*
X72553285Y-76428595D01*
X73520904Y-76380215D02*
X73666047Y-76428595D01*
X73666047Y-76428595D02*
X73907952Y-76428595D01*
X73907952Y-76428595D02*
X74004714Y-76380215D01*
X74004714Y-76380215D02*
X74053095Y-76331834D01*
X74053095Y-76331834D02*
X74101476Y-76235072D01*
X74101476Y-76235072D02*
X74101476Y-76138310D01*
X74101476Y-76138310D02*
X74053095Y-76041548D01*
X74053095Y-76041548D02*
X74004714Y-75993167D01*
X74004714Y-75993167D02*
X73907952Y-75944786D01*
X73907952Y-75944786D02*
X73714428Y-75896405D01*
X73714428Y-75896405D02*
X73617666Y-75848024D01*
X73617666Y-75848024D02*
X73569285Y-75799643D01*
X73569285Y-75799643D02*
X73520904Y-75702881D01*
X73520904Y-75702881D02*
X73520904Y-75606119D01*
X73520904Y-75606119D02*
X73569285Y-75509357D01*
X73569285Y-75509357D02*
X73617666Y-75460976D01*
X73617666Y-75460976D02*
X73714428Y-75412595D01*
X73714428Y-75412595D02*
X73956333Y-75412595D01*
X73956333Y-75412595D02*
X74101476Y-75460976D01*
X74536904Y-76428595D02*
X74536904Y-75412595D01*
X74536904Y-75412595D02*
X74923952Y-75412595D01*
X74923952Y-75412595D02*
X75020714Y-75460976D01*
X75020714Y-75460976D02*
X75069095Y-75509357D01*
X75069095Y-75509357D02*
X75117476Y-75606119D01*
X75117476Y-75606119D02*
X75117476Y-75751262D01*
X75117476Y-75751262D02*
X75069095Y-75848024D01*
X75069095Y-75848024D02*
X75020714Y-75896405D01*
X75020714Y-75896405D02*
X74923952Y-75944786D01*
X74923952Y-75944786D02*
X74536904Y-75944786D01*
X76085095Y-76428595D02*
X75504523Y-76428595D01*
X75794809Y-76428595D02*
X75794809Y-75412595D01*
X75794809Y-75412595D02*
X75698047Y-75557738D01*
X75698047Y-75557738D02*
X75601285Y-75654500D01*
X75601285Y-75654500D02*
X75504523Y-75702881D01*
D18*
%TO.C,LED38*%
X59963244Y-161961274D02*
X63361141Y-163844759D01*
X63361141Y-163844759D02*
X64461659Y-161859373D01*
X64461659Y-161859373D02*
X61063761Y-159975887D01*
%TO.C,LED44*%
X28457242Y-65584946D02*
X30423120Y-66719946D01*
X30399742Y-62220437D02*
X28457242Y-65584946D01*
X30423120Y-66719946D02*
X32365620Y-63355437D01*
%TO.C,LED53*%
X92180894Y-28380276D02*
X92180894Y-33430276D01*
X92630894Y-27930276D02*
X92180894Y-28380276D01*
X99380894Y-27930276D02*
X92630894Y-27930276D01*
X99380894Y-33430276D02*
X92180894Y-33430276D01*
X99380894Y-33430276D02*
X99380894Y-27930276D01*
%TO.C,LED62*%
X119661012Y-187095555D02*
X122255693Y-184204040D01*
X120566186Y-182687972D02*
X117971505Y-185579486D01*
X122255693Y-184204040D02*
X120566186Y-182687972D01*
%TO.C,LED9*%
X165776109Y-129860673D02*
X164320764Y-133462783D01*
X166425471Y-134313140D02*
X167880818Y-130711030D01*
X167880818Y-130711030D02*
X165776109Y-129860673D01*
D19*
%TO.C,DSP5*%
X75795000Y-99468000D02*
X75795000Y-112368000D01*
X75795000Y-99468000D02*
X115975000Y-99468000D01*
X115975000Y-99468000D02*
X115975000Y-112368000D01*
X115975000Y-112368000D02*
X75795000Y-112368000D01*
D18*
%TO.C,LED24*%
X85789894Y-33355276D02*
X85789894Y-35625276D01*
X85789894Y-35625276D02*
X89674894Y-35625276D01*
X89674894Y-33355276D02*
X85789894Y-33355276D01*
%TO.C,LED13*%
X74169132Y-176131297D02*
X77938731Y-177071163D01*
X77938731Y-177071163D02*
X78487894Y-174868592D01*
X78487894Y-174868592D02*
X74718295Y-173928725D01*
%TO.C,LED17*%
X27409966Y-112519303D02*
X28017713Y-116356472D01*
X28017713Y-116356472D02*
X30259766Y-116001366D01*
X30259766Y-116001366D02*
X29652018Y-112164197D01*
%TO.C,LED63*%
X125603171Y-180473645D02*
X128197852Y-177582130D01*
X126508345Y-176066062D02*
X123913664Y-178957576D01*
X128197852Y-177582130D02*
X126508345Y-176066062D01*
%TO.C,LED36*%
X113910345Y-177343517D02*
X117679944Y-176403650D01*
X117130781Y-174201079D02*
X113361182Y-175140945D01*
X117679944Y-176403650D02*
X117130781Y-174201079D01*
%TO.C,LED7*%
X170578880Y-95322094D02*
X170782205Y-99201770D01*
X172845769Y-95203291D02*
X170578880Y-95322094D01*
X173049094Y-99082967D02*
X172845769Y-95203291D01*
%TO.C,LED39*%
X33636634Y-147043901D02*
X35864979Y-150226307D01*
X35864979Y-150226307D02*
X37724454Y-148924288D01*
X37724454Y-148924288D02*
X35496109Y-145741882D01*
%TO.C,LED70*%
X170276000Y-177518500D02*
X168176000Y-177518500D01*
X170276000Y-180278500D02*
X168176000Y-180278500D01*
%TO.C,LED33*%
X158854174Y-126948905D02*
X157398829Y-130551015D01*
X159503536Y-131401372D02*
X160958883Y-127799262D01*
X160958883Y-127799262D02*
X158854174Y-126948905D01*
%TO.C,LED28*%
X143241589Y-54355236D02*
X145940337Y-57149871D01*
X144874490Y-52778361D02*
X143241589Y-54355236D01*
X147573238Y-55572996D02*
X144874490Y-52778361D01*
%TO.C,LED10*%
X157431605Y-149485358D02*
X159659950Y-146302952D01*
X157800475Y-145000933D02*
X155572130Y-148183339D01*
X159659950Y-146302952D02*
X157800475Y-145000933D01*
%TO.C,LED74*%
X42192000Y-187850000D02*
X44292000Y-187850000D01*
X42192000Y-190610000D02*
X44292000Y-190610000D01*
%TO.C,LED25*%
X101258394Y-33355276D02*
X101258394Y-35625276D01*
X101258394Y-35625276D02*
X105143394Y-35625276D01*
X105143394Y-33355276D02*
X101258394Y-33355276D01*
%TO.C,LED46*%
X52427757Y-38995712D02*
X53630673Y-40920781D01*
X53630673Y-40920781D02*
X56925340Y-38862045D01*
X55722424Y-36936976D02*
X52427757Y-38995712D01*
%TO.C,LED34*%
X151108213Y-145235707D02*
X153336558Y-142053301D01*
X151477083Y-140751282D02*
X149248738Y-143933688D01*
X153336558Y-142053301D02*
X151477083Y-140751282D01*
%TO.C,LED15*%
X39678687Y-142765901D02*
X41907032Y-145948307D01*
X41907032Y-145948307D02*
X43766507Y-144646288D01*
X43766507Y-144646288D02*
X41538162Y-141463882D01*
%TO.C,LED66*%
X145381000Y-177518500D02*
X147481000Y-177518500D01*
X145381000Y-180278500D02*
X147481000Y-180278500D01*
%TO.C,LED12*%
X112106911Y-170101953D02*
X115876510Y-169162086D01*
X115327347Y-166959515D02*
X111557748Y-167899381D01*
X115876510Y-169162086D02*
X115327347Y-166959515D01*
%TO.C,LED35*%
X134014223Y-169386173D02*
X137412121Y-167502687D01*
X136311603Y-165517301D02*
X132913706Y-167400786D01*
X137412121Y-167502687D02*
X136311603Y-165517301D01*
%TO.C,LED5*%
X159472575Y-62813148D02*
X161415075Y-66177657D01*
X161438453Y-61678148D02*
X159472575Y-62813148D01*
X163380953Y-65042657D02*
X161438453Y-61678148D01*
%TO.C,LED11*%
X130208778Y-163043749D02*
X133606676Y-161160263D01*
X132506158Y-159174877D02*
X129108261Y-161058362D01*
X133606676Y-161160263D02*
X132506158Y-159174877D01*
D19*
%TO.C,DSP8*%
X95868800Y-55690800D02*
X95868800Y-65690800D01*
X95868800Y-65690800D02*
X97141929Y-65690800D01*
X103368800Y-65690800D02*
X103368800Y-55690800D01*
D18*
%TO.C,LED40*%
X24882467Y-131282458D02*
X26337812Y-134884568D01*
X26337812Y-134884568D02*
X28442521Y-134034211D01*
X28442521Y-134034211D02*
X26987174Y-130432101D01*
D19*
%TO.C,DSP9*%
X103488800Y-55690800D02*
X103488800Y-65690800D01*
X103488800Y-65690800D02*
X104761929Y-65690800D01*
X110988800Y-65690800D02*
X110988800Y-55690800D01*
D18*
%TO.C,LED67*%
X145381000Y-182008000D02*
X147481000Y-182008000D01*
X145381000Y-184768000D02*
X147481000Y-184768000D01*
%TO.C,LED32*%
X162880269Y-111592641D02*
X162272522Y-115429810D01*
X164514574Y-115784916D02*
X165122322Y-111947747D01*
X165122322Y-111947747D02*
X162880269Y-111592641D01*
%TO.C,LED69*%
X170276000Y-173029000D02*
X168176000Y-173029000D01*
X170276000Y-175789000D02*
X168176000Y-175789000D01*
%TO.C,LED68*%
X158883500Y-190009000D02*
X156783500Y-190009000D01*
X158883500Y-192769000D02*
X156783500Y-192769000D01*
D19*
%TO.C,DSP4*%
X96010000Y-82562500D02*
X96010000Y-92739657D01*
X96010000Y-82562500D02*
X138940000Y-82562500D01*
X96010000Y-92739657D02*
X97257752Y-93992500D01*
X97257752Y-93992500D02*
X138940000Y-93992500D01*
X138940000Y-82562500D02*
X138940000Y-93992500D01*
%TO.C,DSP3*%
X52830000Y-82562500D02*
X52830000Y-92739657D01*
X52830000Y-82562500D02*
X95760000Y-82562500D01*
X52830000Y-92739657D02*
X54077752Y-93992500D01*
X54077752Y-93992500D02*
X95760000Y-93992500D01*
X95760000Y-82562500D02*
X95760000Y-93992500D01*
D18*
%TO.C,LED1*%
X102101440Y-26073039D02*
X102101440Y-28343039D01*
X102101440Y-28343039D02*
X105986440Y-28343039D01*
X105986440Y-26073039D02*
X102101440Y-26073039D01*
%TO.C,U10*%
X68275000Y-114582500D02*
X70775000Y-114582500D01*
X68275000Y-157802500D02*
X68275000Y-114582500D01*
X70385000Y-123082500D02*
X70385000Y-154082500D01*
X70385000Y-154082500D02*
X121385000Y-154082500D01*
X70785000Y-157802500D02*
X68275000Y-157802500D01*
X70985000Y-158792500D02*
X72485000Y-158792500D01*
X77805000Y-157802500D02*
X113965000Y-157802500D01*
X120985000Y-114582500D02*
X123495000Y-114582500D01*
X121385000Y-123082500D02*
X70385000Y-123082500D01*
X121385000Y-154082500D02*
X121385000Y-123082500D01*
X123495000Y-114582500D02*
X123495000Y-135972500D01*
X123495000Y-135972500D02*
X124295000Y-135972500D01*
X123495000Y-141192500D02*
X123495000Y-157802500D01*
X123495000Y-157802500D02*
X120945000Y-157802500D01*
X124295000Y-135972500D02*
X124295000Y-141192500D01*
X124295000Y-141192500D02*
X123495000Y-141192500D01*
%TO.C,LED6*%
X166953763Y-78432290D02*
X168024614Y-82166792D01*
X169135827Y-77806594D02*
X166953763Y-78432290D01*
X170206678Y-81541095D02*
X169135827Y-77806594D01*
%TO.C,LED64*%
X130425837Y-175099284D02*
X133020518Y-172207769D01*
X131331011Y-170691701D02*
X128736330Y-173583215D01*
X133020518Y-172207769D02*
X131331011Y-170691701D01*
%TO.C,LED73*%
X38196000Y-187850000D02*
X36096000Y-187850000D01*
X38196000Y-190610000D02*
X36096000Y-190610000D01*
%TO.C,LED48*%
X84942392Y-26078339D02*
X84942392Y-28348339D01*
X84942392Y-28348339D02*
X88827392Y-28348339D01*
X88827392Y-26078339D02*
X84942392Y-26078339D01*
%TO.C,LED8*%
X170212396Y-112901228D02*
X169604649Y-116738397D01*
X171846701Y-117093503D02*
X172454449Y-113256334D01*
X172454449Y-113256334D02*
X170212396Y-112901228D01*
%TO.C,LED65*%
X145381000Y-173029000D02*
X147481000Y-173029000D01*
X145381000Y-175789000D02*
X147481000Y-175789000D01*
%TO.C,LED16*%
X31778075Y-128447684D02*
X33233420Y-132049794D01*
X33233420Y-132049794D02*
X35338129Y-131199437D01*
X35338129Y-131199437D02*
X33882782Y-127597327D01*
%TO.C,LED31*%
X163239211Y-95810941D02*
X163442536Y-99690617D01*
X165506100Y-95692138D02*
X163239211Y-95810941D01*
X165709425Y-99571814D02*
X165506100Y-95692138D01*
%TO.C,LED60*%
X136480067Y-53918865D02*
X140153407Y-55183698D01*
X137219107Y-51772538D02*
X136480067Y-53918865D01*
X140892447Y-53037370D02*
X137219107Y-51772538D01*
%TO.C,LED72*%
X39209000Y-176928000D02*
X41309000Y-176928000D01*
X39209000Y-179688000D02*
X41309000Y-179688000D01*
%TO.C,LED42*%
X19171042Y-99757789D02*
X21437931Y-99876592D01*
X19374367Y-95878113D02*
X19171042Y-99757789D01*
X21437931Y-99876592D02*
X21641256Y-95996916D01*
%TO.C,LED45*%
X39079312Y-50672838D02*
X40712213Y-52249713D01*
X40712213Y-52249713D02*
X43410961Y-49455078D01*
X41778060Y-47878203D02*
X39079312Y-50672838D01*
%TO.C,LED3*%
X134785758Y-38595220D02*
X138080425Y-40653956D01*
X135988674Y-36670151D02*
X134785758Y-38595220D01*
X139283341Y-38728887D02*
X135988674Y-36670151D01*
%TO.C,LED58*%
X65304926Y-177851582D02*
X68127482Y-180521114D01*
X66864729Y-176202366D02*
X65304926Y-177851582D01*
X69687286Y-178871898D02*
X66864729Y-176202366D01*
%TO.C,LED14*%
X56384606Y-168301694D02*
X59782503Y-170185179D01*
X59782503Y-170185179D02*
X60883021Y-168199793D01*
X60883021Y-168199793D02*
X57485123Y-166316307D01*
%TO.C,LED23*%
X70702763Y-37492837D02*
X71441803Y-39639164D01*
X71441803Y-39639164D02*
X75115143Y-38374332D01*
X74376103Y-36228004D02*
X70702763Y-37492837D01*
%TO.C,LED55*%
X154585714Y-53308772D02*
X157880381Y-55367508D01*
X155788630Y-51383703D02*
X154585714Y-53308772D01*
X159083297Y-53442439D02*
X155788630Y-51383703D01*
%TO.C,LED51*%
X92741082Y-172190823D02*
X92741082Y-177240823D01*
X93191082Y-171740823D02*
X92741082Y-172190823D01*
X99941082Y-171740823D02*
X93191082Y-171740823D01*
X99941082Y-177240823D02*
X92741082Y-177240823D01*
X99941082Y-177240823D02*
X99941082Y-171740823D01*
%TO.C,LED61*%
X129598037Y-51467708D02*
X133271377Y-52732541D01*
X130337077Y-49321381D02*
X129598037Y-51467708D01*
X134010417Y-50586213D02*
X130337077Y-49321381D01*
%TO.C,LED27*%
X130725532Y-44817755D02*
X134020199Y-46876491D01*
X131928448Y-42892686D02*
X130725532Y-44817755D01*
X135223115Y-44951422D02*
X131928448Y-42892686D01*
%TO.C,LED71*%
X170276000Y-182008000D02*
X168176000Y-182008000D01*
X170276000Y-184768000D02*
X168176000Y-184768000D01*
D19*
%TO.C,DSP6*%
X80628800Y-55690800D02*
X80628800Y-65690800D01*
X80628800Y-65690800D02*
X81901929Y-65690800D01*
X88128800Y-65690800D02*
X88128800Y-55690800D01*
D18*
%TO.C,LED41*%
X20063523Y-113895515D02*
X20671270Y-117732684D01*
X20671270Y-117732684D02*
X22913323Y-117377578D01*
X22913323Y-117377578D02*
X22305575Y-113540409D01*
%TO.C,LED47*%
X68335039Y-30674009D02*
X69074079Y-32820336D01*
X69074079Y-32820336D02*
X72747419Y-31555504D01*
X72008379Y-29409176D02*
X68335039Y-30674009D01*
%TO.C,LED54*%
X142345894Y-150590276D02*
X142345894Y-156090276D01*
X142345894Y-150590276D02*
X149545894Y-150590276D01*
X142345894Y-156090276D02*
X149095894Y-156090276D01*
X149095894Y-156090276D02*
X149545894Y-155640276D01*
X149545894Y-155640276D02*
X149545894Y-150590276D01*
%TO.C,LED52*%
X41485000Y-149592000D02*
X41485000Y-154642000D01*
X41935000Y-149142000D02*
X41485000Y-149592000D01*
X48685000Y-149142000D02*
X41935000Y-149142000D01*
X48685000Y-154642000D02*
X41485000Y-154642000D01*
X48685000Y-154642000D02*
X48685000Y-149142000D01*
%TO.C,LED43*%
X21844081Y-82080503D02*
X24026145Y-82706199D01*
X22914932Y-78346001D02*
X21844081Y-82080503D01*
X24026145Y-82706199D02*
X25096996Y-78971698D01*
%TO.C,LED18*%
X26652049Y-100184093D02*
X28918938Y-100302896D01*
X26855374Y-96304417D02*
X26652049Y-100184093D01*
X28918938Y-100302896D02*
X29122263Y-96423220D01*
%TO.C,LED22*%
X56406914Y-45176182D02*
X57609830Y-47101251D01*
X57609830Y-47101251D02*
X60904497Y-45042515D01*
X59701581Y-43117446D02*
X56406914Y-45176182D01*
%TO.C,LED21*%
X44437135Y-55800561D02*
X46070036Y-57377436D01*
X46070036Y-57377436D02*
X48768784Y-54582801D01*
X47135883Y-53005926D02*
X44437135Y-55800561D01*
D19*
%TO.C,DSP2*%
X96010000Y-70751500D02*
X96010000Y-80928657D01*
X96010000Y-70751500D02*
X138940000Y-70751500D01*
X96010000Y-80928657D02*
X97257752Y-82181500D01*
X97257752Y-82181500D02*
X138940000Y-82181500D01*
X138940000Y-70751500D02*
X138940000Y-82181500D01*
%TO.C,DSP7*%
X88248800Y-55690800D02*
X88248800Y-65690800D01*
X88248800Y-65690800D02*
X89521929Y-65690800D01*
X95748800Y-65690800D02*
X95748800Y-55690800D01*
D18*
%TO.C,LED29*%
X153092232Y-66449703D02*
X155034732Y-69814212D01*
X155058110Y-65314703D02*
X153092232Y-66449703D01*
X157000610Y-68679212D02*
X155058110Y-65314703D01*
%TO.C,LED57*%
X72560028Y-184713445D02*
X75382584Y-187382977D01*
X74119831Y-183064229D02*
X72560028Y-184713445D01*
X76942388Y-185733761D02*
X74119831Y-183064229D01*
D19*
%TO.C,DSP1*%
X52830000Y-70751500D02*
X52830000Y-80928657D01*
X52830000Y-70751500D02*
X95760000Y-70751500D01*
X52830000Y-80928657D02*
X54077752Y-82181500D01*
X54077752Y-82181500D02*
X95760000Y-82181500D01*
X95760000Y-70751500D02*
X95760000Y-82181500D01*
D18*
%TO.C,LED19*%
X29040642Y-84267618D02*
X31222706Y-84893314D01*
X30111493Y-80533116D02*
X29040642Y-84267618D01*
X31222706Y-84893314D02*
X32293557Y-81158813D01*
%TO.C,LED20*%
X35017326Y-69248839D02*
X36983204Y-70383839D01*
X36959826Y-65884330D02*
X35017326Y-69248839D01*
X36983204Y-70383839D02*
X38925704Y-67019330D01*
%TO.C,LED26*%
X116599632Y-38415209D02*
X120272972Y-39680042D01*
X117338672Y-36268882D02*
X116599632Y-38415209D01*
X121012012Y-37533714D02*
X117338672Y-36268882D01*
%TO.C,LED59*%
X59851194Y-172693436D02*
X62673750Y-175362968D01*
X61410997Y-171044220D02*
X59851194Y-172693436D01*
X64233554Y-173713752D02*
X61410997Y-171044220D01*
%TO.C,LED50*%
X119635475Y-49649858D02*
X126017725Y-51847443D01*
X121426100Y-44449506D02*
X119635475Y-49649858D01*
X121426100Y-44449506D02*
X128233833Y-46793596D01*
X126017725Y-51847443D02*
X126589714Y-51568465D01*
X126589714Y-51568465D02*
X128233833Y-46793596D01*
%TO.C,LED56*%
X159614475Y-56558043D02*
X162909142Y-58616779D01*
X160817391Y-54632974D02*
X159614475Y-56558043D01*
X164112058Y-56691710D02*
X160817391Y-54632974D01*
%TO.C,LED2*%
X119150752Y-31443660D02*
X122824092Y-32708493D01*
X119889792Y-29297333D02*
X119150752Y-31443660D01*
X123563132Y-30562165D02*
X119889792Y-29297333D01*
%TO.C,LED37*%
X76115537Y-169024479D02*
X79885136Y-169964345D01*
X79885136Y-169964345D02*
X80434299Y-167761774D01*
X80434299Y-167761774D02*
X76664700Y-166821907D01*
%TO.C,LED4*%
X148599255Y-49309746D02*
X151298003Y-52104381D01*
X150232156Y-47732871D02*
X148599255Y-49309746D01*
X152930904Y-50527506D02*
X150232156Y-47732871D01*
%TO.C,LED30*%
X159884898Y-80503255D02*
X160955749Y-84237757D01*
X162066962Y-79877559D02*
X159884898Y-80503255D01*
X163137813Y-83612060D02*
X162066962Y-79877559D01*
%TO.C,LED49*%
X165151423Y-61986751D02*
X170875748Y-65563706D01*
X168065979Y-57322486D02*
X165151423Y-61986751D01*
X168065979Y-57322486D02*
X174171925Y-61137905D01*
X170875748Y-65563706D02*
X171495833Y-65420548D01*
X171495833Y-65420548D02*
X174171925Y-61137905D01*
%TD*%
M02*
