M48
; DRILL file {KiCad 9.0.4} date 2025-09-16T15:39:37-0400
; FORMAT={-:-/ absolute / metric / decimal}
; #@! TF.CreationDate,2025-09-16T15:39:37-04:00
; #@! TF.GenerationSoftware,Kicad,Pcbnew,9.0.4
; #@! TF.FileFunction,MixedPlating,1,2
FMAT,2
METRIC
; #@! TA.AperFunction,Plated,PTH,ViaDrill
T1C0.305
; #@! TA.AperFunction,Plated,PTH,ComponentDrill
T2C0.762
; #@! TA.AperFunction,Plated,PTH,ComponentDrill
T3C0.889
; #@! TA.AperFunction,Plated,PTH,ComponentDrill
T4C3.200
; #@! TA.AperFunction,NonPlated,NPTH,ComponentDrill
T5C0.991
%
G90
G05
T1
X20.271Y-97.542
X21.173Y-115.366
X21.209Y-97.536
X22.352Y-115.189
X23.454Y-80.222
X23.495Y-170.307
X23.925Y-183.347
X24.384Y-80.391
X26.238Y-132.528
X27.178Y-131.953
X27.735Y-183.347
X28.067Y-97.917
X28.829Y-113.919
X29.005Y-183.347
X29.21Y-174.879
X29.21Y-175.539
X30.548Y-64.15
X30.607Y-82.423
X31.242Y-64.643
X31.242Y-174.879
X31.242Y-175.539
X33.528Y-129.413
X34.544Y-188.595
X34.544Y-189.611
X35.179Y-147.955
X35.179Y-170.307
X35.814Y-172.593
X36.195Y-147.193
X37.211Y-67.818
X38.862Y-81.038
X40.259Y-178.435
X41.021Y-81.661
X41.275Y-77.47
X41.451Y-49.782
X41.529Y-143.637
X41.916Y-50.425
X42.723Y-169.266
X42.926Y-177.673
X42.926Y-179.07
X43.502Y-157.399
X45.593Y-160.782
X45.847Y-150.114
X45.879Y-151.892
X45.879Y-153.67
X46.121Y-161.178
X46.228Y-188.722
X46.65Y-161.574
X46.736Y-54.991
X47.117Y-188.722
X48.514Y-126.111
X52.07Y-154.305
X52.099Y-154.994
X52.324Y-155.829
X52.451Y-125.603
X52.578Y-127.381
X52.578Y-143.51
X53.213Y-77.216
X53.975Y-128.016
X54.935Y-38.706
X55.373Y-39.371
X56.515Y-71.12
X57.277Y-132.461
X58.166Y-168.402
X58.674Y-167.513
X58.928Y-44.958
X59.055Y-70.612
X59.055Y-75.819
X61.595Y-70.106
X61.595Y-75.184
X61.595Y-123.952
X62.103Y-161.29
X62.23Y-173.355
X64.135Y-69.596
X64.897Y-173.482
X65.151Y-126.619
X65.195Y-123.317
X66.421Y-101.6
X66.675Y-69.09
X67.529Y-101.6
X67.691Y-178.562
X68.199Y-176.276
X68.453Y-114.808
X68.707Y-132.461
X69.088Y-106.68
X69.215Y-68.583
X69.215Y-75.311
X69.698Y-145.796
X69.948Y-155.775
X69.977Y-156.464
X70.104Y-128.631
X70.231Y-135.382
X70.612Y-129.159
X70.612Y-129.819
X70.612Y-132.334
X70.612Y-132.994
X70.841Y-30.928
X70.864Y-92.837
X71.017Y-134.62
X71.12Y-31.75
X71.374Y-136.906
X71.882Y-137.541
X73.152Y-37.846
X73.279Y-138.811
X73.533Y-38.608
X73.914Y-72.644
X74.168Y-85.217
X74.93Y-138.557
X74.93Y-185.42
X75.021Y-183.482
X75.438Y-133.858
X75.946Y-175.768
X76.2Y-174.625
X76.581Y-91.059
X76.772Y-133.286
X76.835Y-153.162
X77.343Y-90.424
X77.724Y-142.875
X77.978Y-139.446
X78.105Y-102.616
X78.105Y-104.394
X78.121Y-74.549
X78.121Y-76.327
X78.232Y-167.386
X78.994Y-90.424
X78.994Y-153.416
X79.629Y-95.25
X79.756Y-143.431
X79.883Y-76.2
X80.137Y-140.716
X80.661Y-75.184
X81.585Y-57.836
X81.915Y-89.408
X81.915Y-111.887
X81.915Y-130.429
X81.915Y-143.431
X82.728Y-64.186
X83.201Y-75.565
X83.312Y-135.001
X83.947Y-102.87
X83.998Y-63.627
X84.125Y-58.471
X85.014Y-52.959
X85.598Y-82.931
X85.852Y-102.87
X86.538Y-59.106
X86.614Y-138.938
X86.792Y-62.916
X87.122Y-143.383
X87.242Y-27.136
X87.249Y-28.067
X87.63Y-134.62
X87.757Y-78.105
X87.757Y-127.508
X87.808Y-59.665
X87.846Y-62.281
X88.011Y-34.544
X88.138Y-96.266
X88.364Y-136.87
X88.519Y-141.097
X88.519Y-141.757
X88.773Y-133.858
X88.773Y-137.389
X88.773Y-138.049
X88.824Y-57.836
X90.094Y-64.186
X90.551Y-145.288
X90.551Y-150.749
X91.364Y-58.471
X91.364Y-63.551
X91.44Y-130.429
X91.699Y-132.842
X91.821Y-134.62
X92.329Y-93.853
X92.329Y-140.843
X92.634Y-52.959
X93.085Y-128.123
X93.218Y-140.843
X93.853Y-129.159
X93.853Y-143.383
X93.904Y-59.106
X93.904Y-62.916
X94.615Y-128.651
X94.615Y-143.383
X95.123Y-30.099
X95.123Y-144.78
X95.174Y-59.868
X95.174Y-62.281
X95.504Y-131.699
X95.504Y-140.081
X95.758Y-78.917
X95.86Y-172.06
X95.885Y-30.734
X95.885Y-31.647
X96.012Y-26.645
X96.139Y-145.161
X96.139Y-150.241
X96.374Y-178.46
X96.418Y-156.108
X96.444Y-57.836
X96.774Y-172.72
X96.774Y-174.498
X96.774Y-176.276
X96.901Y-85.217
X97.155Y-127.508
X97.282Y-80.264
X97.536Y-90.297
X97.714Y-64.186
X97.885Y-140.589
X98.171Y-129.159
X98.679Y-123.977
X98.679Y-140.589
X98.984Y-58.471
X98.984Y-63.551
X99.441Y-144.272
X99.485Y-126.619
X100.254Y-52.959
X100.33Y-143.129
X100.584Y-132.207
X100.584Y-132.969
X100.584Y-133.731
X100.584Y-134.62
X100.584Y-135.382
X100.711Y-137.795
X100.711Y-138.557
X100.711Y-139.446
X101.219Y-130.429
X101.524Y-59.106
X101.524Y-62.916
X102.794Y-59.868
X102.794Y-62.281
X102.997Y-98.552
X103.505Y-34.544
X103.505Y-35.433
X103.505Y-71.247
X103.505Y-112.903
X104.064Y-57.836
X104.267Y-74.041
X104.379Y-27.104
X104.394Y-27.94
X104.965Y-127.698
X105.08Y-64.186
X106.426Y-127.127
X106.553Y-140.716
X106.604Y-58.471
X106.604Y-63.551
X107.041Y-141.224
X107.569Y-141.732
X107.874Y-52.959
X108.331Y-140.081
X109.093Y-130.429
X109.093Y-132.207
X109.144Y-58.598
X109.144Y-62.916
X110.414Y-59.614
X110.414Y-62.281
X110.846Y-137.109
X111.125Y-120.015
X112.014Y-86.868
X112.395Y-76.2
X113.157Y-129.159
X113.157Y-145.161
X113.157Y-148.087
X113.411Y-168.275
X114.96Y-137.058
X115.062Y-175.006
X115.189Y-176.022
X115.697Y-150.241
X116.205Y-120.015
X116.522Y-150.241
X118.11Y-127.698
X118.237Y-92.075
X118.999Y-38.735
X119.885Y-185.147
X120.523Y-92.075
X120.777Y-152.273
X121.3Y-77.216
X121.412Y-32.004
X121.666Y-151.003
X121.681Y-31.114
X121.793Y-88.265
X122.555Y-76.962
X122.936Y-153.289
X123.952Y-97.917
X124.587Y-187.833
X125.095Y-76.835
X125.827Y-178.525
X127.127Y-51.181
X128.27Y-47.752
X128.27Y-49.784
X129.159Y-77.724
X129.794Y-90.297
X130.048Y-82.423
X130.65Y-173.15
X130.81Y-181.61
X131.572Y-159.131
X133.223Y-45.085
X133.858Y-171.704
X134.493Y-166.878
X134.874Y-167.767
X136.779Y-39.624
X137.325Y-38.844
X139.319Y-53.086
X139.573Y-101.219
X139.573Y-101.879
X140.208Y-96.774
X140.589Y-162.814
X141.097Y-161.495
X141.097Y-162.156
X141.478Y-95.885
X141.605Y-82.042
X142.113Y-94.488
X142.24Y-81.407
X142.748Y-83.185
X142.748Y-93.853
X142.748Y-157.353
X143.129Y-158.547
X143.129Y-159.207
X143.129Y-159.868
X143.129Y-160.528
X143.137Y-157.886
X143.383Y-82.55
X143.383Y-97.663
X143.764Y-184.15
X143.891Y-80.899
X144.018Y-95.123
X144.399Y-42.672
X144.399Y-84.328
X145.669Y-55.118
X145.796Y-161.544
X145.796Y-162.204
X145.796Y-162.865
X146.939Y-43.815
X147.32Y-91.313
X147.447Y-160.528
X147.828Y-163.195
X148.209Y-159.918
X148.59Y-99.568
X149.098Y-100.33
X149.098Y-158.496
X149.098Y-159.893
X149.098Y-173.736
X149.098Y-175.133
X149.098Y-178.181
X149.098Y-179.578
X149.098Y-182.753
X149.098Y-184.15
X149.486Y-156.475
X149.606Y-98.552
X149.86Y-157.353
X150.114Y-102.743
X150.256Y-157.881
X150.896Y-50.168
X151.13Y-143.256
X151.13Y-153.289
X151.638Y-152.781
X152.781Y-86.931
X153.924Y-153.289
X154.432Y-152.781
X154.686Y-68.199
X155.067Y-190.627
X155.067Y-192.151
X155.575Y-67.691
X155.575Y-152.273
X156.083Y-151.003
X156.21Y-56.261
X156.21Y-161.544
X156.591Y-146.939
X156.953Y-155.141
X157.099Y-53.594
X157.265Y-147.419
X157.525Y-151.048
X158.496Y-160.147
X159.004Y-129.54
X160.401Y-190.627
X161.544Y-82.423
X161.598Y-64.225
X161.925Y-56.642
X162.433Y-82.169
X163.576Y-114.046
X164.592Y-98.044
X164.973Y-132.08
X165.852Y-132.356
X166.243Y-114.046
X166.34Y-96.139
X166.624Y-173.609
X166.624Y-175.133
X166.624Y-178.181
X166.624Y-179.578
X166.624Y-182.626
X166.624Y-184.15
X167.574Y-125.455
X167.825Y-124.654
X168.021Y-122.936
X168.021Y-123.825
X168.275Y-122.047
X168.656Y-121.285
X168.675Y-80.316
X168.783Y-120.269
X170.151Y-124.714
X170.507Y-123.756
X170.815Y-120.396
X170.815Y-121.285
X170.815Y-122.047
X170.815Y-122.936
X170.871Y-115.315
X171.831Y-184.15
X171.832Y-97.545
X172.085Y-65.151
X173.609Y-64.008
X173.99Y-62.103
X175.236Y-125.455
T2
X71.755Y-114.602
X71.755Y-157.782
X74.295Y-114.602
X74.295Y-157.782
X76.835Y-114.602
X76.835Y-157.782
X79.375Y-114.602
X81.915Y-114.602
X84.455Y-114.602
X86.995Y-114.602
X89.535Y-114.602
X92.075Y-114.602
X94.615Y-114.602
X97.155Y-114.602
X99.695Y-114.602
X102.235Y-114.602
X104.775Y-114.602
X107.315Y-114.602
X109.855Y-114.602
X112.395Y-114.602
X114.935Y-114.602
X114.935Y-157.782
X117.475Y-114.602
X117.475Y-157.782
X120.015Y-114.602
X120.015Y-157.782
T3
X56.515Y-72.656
X56.515Y-80.276
X56.515Y-84.468
X56.515Y-92.087
X59.055Y-72.656
X59.055Y-80.276
X59.055Y-84.468
X59.055Y-92.087
X61.595Y-72.656
X61.595Y-80.276
X61.595Y-84.468
X61.595Y-92.087
X64.135Y-72.656
X64.135Y-80.276
X64.135Y-84.468
X64.135Y-92.087
X66.675Y-72.656
X66.675Y-80.276
X66.675Y-84.468
X66.675Y-92.087
X69.215Y-72.656
X69.215Y-80.276
X69.215Y-84.468
X69.215Y-92.087
X79.375Y-72.656
X79.375Y-80.276
X79.375Y-84.468
X79.375Y-92.087
X81.915Y-72.656
X81.915Y-80.276
X81.915Y-84.468
X81.915Y-92.087
X84.455Y-72.656
X84.455Y-80.276
X84.455Y-84.468
X84.455Y-92.087
X86.995Y-72.656
X86.995Y-80.276
X86.995Y-84.468
X86.995Y-92.087
X86.995Y-100.838
X86.995Y-110.998
X89.535Y-72.656
X89.535Y-80.276
X89.535Y-84.468
X89.535Y-92.087
X89.535Y-100.838
X89.535Y-110.998
X92.075Y-72.656
X92.075Y-80.276
X92.075Y-84.468
X92.075Y-92.087
X92.075Y-100.838
X92.075Y-110.998
X94.615Y-100.838
X94.615Y-110.998
X97.175Y-100.838
X97.175Y-110.998
X99.695Y-72.656
X99.695Y-80.276
X99.695Y-84.468
X99.695Y-92.087
X99.695Y-100.838
X99.695Y-110.998
X102.235Y-72.656
X102.235Y-80.276
X102.235Y-84.468
X102.235Y-92.087
X102.235Y-100.838
X102.235Y-110.998
X104.775Y-72.656
X104.775Y-80.276
X104.775Y-84.468
X104.775Y-92.087
X104.775Y-100.838
X104.775Y-110.998
X107.315Y-72.656
X107.315Y-80.276
X107.315Y-84.468
X107.315Y-92.087
X109.855Y-72.656
X109.855Y-80.276
X109.855Y-84.468
X109.855Y-92.087
X112.395Y-72.656
X112.395Y-80.276
X112.395Y-84.468
X112.395Y-92.087
X122.555Y-72.656
X122.555Y-80.276
X122.555Y-84.468
X122.555Y-92.087
X125.095Y-72.656
X125.095Y-80.276
X125.095Y-84.468
X125.095Y-92.087
X127.635Y-72.656
X127.635Y-80.276
X127.635Y-84.468
X127.635Y-92.087
X130.175Y-72.656
X130.175Y-80.276
X130.175Y-84.468
X130.175Y-92.087
X132.715Y-72.656
X132.715Y-80.276
X132.715Y-84.468
X132.715Y-92.087
X135.255Y-72.656
X135.255Y-80.276
X135.255Y-84.468
X135.255Y-92.087
T4
X22.098Y-28.194
X96.284Y-165.227
X170.434Y-28.194
T5
X115.57Y-87.261
X115.57Y-89.293
X120.65Y-88.277
M30
