%TF.GenerationSoftware,KiCad,Pcbnew,9.0.4*%
%TF.CreationDate,2025-09-16T15:39:33-04:00*%
%TF.ProjectId,mini-lhc-display,6d696e69-2d6c-4686-932d-646973706c61,rev?*%
%TF.SameCoordinates,Original*%
%TF.FileFunction,Soldermask,Top*%
%TF.FilePolarity,Negative*%
%FSLAX46Y46*%
G04 Gerber Fmt 4.6, Leading zero omitted, Abs format (unit mm)*
G04 Created by KiCad (PCBNEW 9.0.4) date 2025-09-16 15:39:33*
%MOMM*%
%LPD*%
G01*
G04 APERTURE LIST*
G04 Aperture macros list*
%AMRoundRect*
0 Rectangle with rounded corners*
0 $1 Rounding radius*
0 $2 $3 $4 $5 $6 $7 $8 $9 X,Y pos of 4 corners*
0 Add a 4 corners polygon primitive as box body*
4,1,4,$2,$3,$4,$5,$6,$7,$8,$9,$2,$3,0*
0 Add four circle primitives for the rounded corners*
1,1,$1+$1,$2,$3*
1,1,$1+$1,$4,$5*
1,1,$1+$1,$6,$7*
1,1,$1+$1,$8,$9*
0 Add four rect primitives between the rounded corners*
20,1,$1+$1,$2,$3,$4,$5,0*
20,1,$1+$1,$4,$5,$6,$7,0*
20,1,$1+$1,$6,$7,$8,$9,0*
20,1,$1+$1,$8,$9,$2,$3,0*%
G04 Aperture macros list end*
%ADD10RoundRect,0.250000X0.630988X0.364834X-0.024976X0.728441X-0.630988X-0.364834X0.024976X-0.728441X0*%
%ADD11RoundRect,0.250000X0.353766X-0.637260X0.728766X0.012260X-0.353766X0.637260X-0.728766X-0.012260X0*%
%ADD12RoundRect,0.350000X-0.650000X-0.350000X0.650000X-0.350000X0.650000X0.350000X-0.650000X0.350000X0*%
%ADD13RoundRect,0.250000X-0.750000X-0.250000X0.750000X-0.250000X0.750000X0.250000X-0.750000X0.250000X0*%
%ADD14RoundRect,0.250000X-0.214721X0.696523X-0.715625X0.138316X0.214721X-0.696523X0.715625X-0.138316X0*%
%ADD15RoundRect,0.250000X-0.439012X0.581823X-0.719967X-0.113565X0.439012X-0.581823X0.719967X0.113565X0*%
%ADD16C,1.905000*%
%ADD17RoundRect,0.250000X-0.375000X-0.625000X0.375000X-0.625000X0.375000X0.625000X-0.375000X0.625000X0*%
%ADD18RoundRect,0.250000X0.515062X0.515714X-0.212660X0.697156X-0.515062X-0.515714X0.212660X-0.697156X0*%
%ADD19RoundRect,0.250000X0.675968X-0.272612X0.558642X0.468155X-0.675968X0.272612X-0.558642X-0.468155X0*%
%ADD20RoundRect,0.250000X0.212660X0.697156X-0.515062X0.515714X-0.212660X-0.697156X0.515062X-0.515714X0*%
%ADD21RoundRect,0.250000X-0.643769X0.341776X-0.604517X-0.407196X0.643769X-0.341776X0.604517X0.407196X0*%
%ADD22RoundRect,0.250000X0.727061X0.051303X0.296879X0.665667X-0.727061X-0.051303X-0.296879X-0.665667X0*%
%ADD23R,0.900000X0.900000*%
%ADD24RoundRect,0.250000X-0.710084X-0.164409X-0.189090X-0.703914X0.710084X0.164409X0.189090X0.703914X0*%
%ADD25RoundRect,0.250000X-0.296879X0.665667X-0.727061X0.051303X0.296879X-0.665667X0.727061X-0.051303X0*%
%ADD26RoundRect,0.250000X0.013182X-0.728750X0.649218X-0.331310X-0.013182X0.728750X-0.649218X0.331310X0*%
%ADD27C,3.600000*%
%ADD28C,5.600000*%
%ADD29RoundRect,0.250000X0.024976X0.728441X-0.630988X0.364834X-0.024976X-0.728441X0.630988X-0.364834X0*%
%ADD30RoundRect,0.250000X-0.728766X0.012260X-0.353766X-0.637260X0.728766X-0.012260X0.353766X0.637260X0*%
%ADD31RoundRect,0.120000X-0.280000X-1.380000X0.280000X-1.380000X0.280000X1.380000X-0.280000X1.380000X0*%
%ADD32RoundRect,0.250000X0.719967X-0.113565X0.439012X0.581823X-0.719967X0.113565X-0.439012X-0.581823X0*%
%ADD33RoundRect,0.250000X-0.558642X0.468155X-0.675968X-0.272612X0.558642X-0.468155X0.675968X0.272612X0*%
%ADD34R,1.524000X1.524000*%
%ADD35C,1.524000*%
%ADD36RoundRect,0.250000X-0.704153X0.188200X-0.497425X-0.532746X0.704153X-0.188200X0.497425X0.532746X0*%
%ADD37RoundRect,0.250000X-0.558050X-0.468861X0.151089X-0.713037X0.558050X0.468861X-0.151089X0.713037X0*%
%ADD38RoundRect,0.250000X0.604517X-0.407196X0.643769X0.341776X-0.604517X0.407196X-0.643769X-0.341776X0*%
%ADD39RoundRect,0.250000X0.189090X-0.703914X0.710084X-0.164409X-0.189090X0.703914X-0.710084X0.164409X0*%
%ADD40RoundRect,0.250000X-0.649218X-0.331310X-0.013182X-0.728750X0.649218X0.331310X0.013182X0.728750X0*%
%ADD41RoundRect,0.250000X-0.701909X-0.196402X-0.157014X-0.711756X0.701909X0.196402X0.157014X0.711756X0*%
%ADD42RoundRect,0.250000X-0.151089X-0.713037X0.558050X-0.468861X0.151089X0.713037X-0.558050X0.468861X0*%
%ADD43RoundRect,0.350000X0.650000X0.350000X-0.650000X0.350000X-0.650000X-0.350000X0.650000X-0.350000X0*%
%ADD44RoundRect,0.250000X0.750000X0.250000X-0.750000X0.250000X-0.750000X-0.250000X0.750000X-0.250000X0*%
%ADD45RoundRect,0.250000X0.497425X-0.532746X0.704153X0.188200X-0.497425X0.532746X-0.704153X-0.188200X0*%
%ADD46RoundRect,0.350000X0.728536X0.119312X-0.500638X0.542551X-0.728536X-0.119312X0.500638X-0.542551X0*%
%ADD47RoundRect,0.250000X0.790531X-0.007796X-0.627747X0.480556X-0.790531X0.007796X0.627747X-0.480556X0*%
%ADD48RoundRect,0.350000X0.736703X-0.047631X-0.365760X0.641264X-0.736703X0.047631X0.365760X-0.641264X0*%
%ADD49RoundRect,0.250000X0.768516X-0.185427X-0.503556X0.609451X-0.768516X0.185427X0.503556X-0.609451X0*%
%ADD50C,0.990600*%
G04 APERTURE END LIST*
D10*
%TO.C,LED38*%
X63137362Y-162423009D03*
X60688426Y-161065543D03*
%TD*%
D11*
%TO.C,LED44*%
X29882681Y-65386014D03*
X31282681Y-62961142D03*
%TD*%
D12*
%TO.C,LED53*%
X93580894Y-28880276D03*
D13*
X93580894Y-30680276D03*
D12*
X93580894Y-32480276D03*
X97980894Y-32480276D03*
D13*
X97980894Y-30680276D03*
D12*
X97980894Y-28880276D03*
%TD*%
D14*
%TO.C,LED62*%
X120819873Y-184104691D03*
X118949833Y-186188665D03*
%TD*%
D15*
%TO.C,LED9*%
X166496937Y-131106410D03*
X165448039Y-133702524D03*
%TD*%
D16*
%TO.C,DSP5*%
X86995000Y-110998000D03*
X89535000Y-110998000D03*
X92075000Y-110998000D03*
X94615000Y-110998000D03*
X97175291Y-110998000D03*
X99695000Y-110998000D03*
X102235000Y-110998000D03*
X104775000Y-110998000D03*
X104775000Y-100838000D03*
X102235000Y-100838000D03*
X99695000Y-100838000D03*
X97175291Y-100838000D03*
X94615000Y-100838000D03*
X92075000Y-100838000D03*
X89535000Y-100838000D03*
X86995000Y-100838000D03*
%TD*%
D17*
%TO.C,LED24*%
X86674894Y-34490276D03*
X89474894Y-34490276D03*
%TD*%
D18*
%TO.C,LED13*%
X77354601Y-175755777D03*
X74637773Y-175078395D03*
%TD*%
D19*
%TO.C,LED17*%
X29000295Y-115304815D03*
X28562279Y-112539287D03*
%TD*%
D14*
%TO.C,LED63*%
X126762032Y-177482781D03*
X124891992Y-179566755D03*
%TD*%
D20*
%TO.C,LED36*%
X116546651Y-175516465D03*
X113829823Y-176193847D03*
%TD*%
D21*
%TO.C,LED7*%
X171758642Y-96146480D03*
X171905182Y-98942642D03*
%TD*%
D22*
%TO.C,LED39*%
X36287101Y-148850348D03*
X34681087Y-146556722D03*
%TD*%
D23*
%TO.C,LED70*%
X167726000Y-178198500D03*
X167726000Y-179598500D03*
X170726000Y-179598500D03*
X170726000Y-178198500D03*
%TD*%
D15*
%TO.C,LED33*%
X159575002Y-128194642D03*
X158526104Y-130790756D03*
%TD*%
D24*
%TO.C,LED28*%
X144672812Y-54203414D03*
X146617856Y-56217566D03*
%TD*%
D25*
%TO.C,LED10*%
X158222597Y-146376892D03*
X156616583Y-148670518D03*
%TD*%
D23*
%TO.C,LED74*%
X44742000Y-189930000D03*
X44742000Y-188530000D03*
X41742000Y-188530000D03*
X41742000Y-189930000D03*
%TD*%
D17*
%TO.C,LED25*%
X102143394Y-34490276D03*
X104943394Y-34490276D03*
%TD*%
D26*
%TO.C,LED46*%
X53779738Y-39489268D03*
X56154272Y-38005494D03*
%TD*%
D25*
%TO.C,LED34*%
X151899205Y-142127241D03*
X150293191Y-144420867D03*
%TD*%
D22*
%TO.C,LED15*%
X42329154Y-144572348D03*
X40723140Y-142278722D03*
%TD*%
D23*
%TO.C,LED66*%
X147931000Y-179598500D03*
X147931000Y-178198500D03*
X144931000Y-178198500D03*
X144931000Y-179598500D03*
%TD*%
D20*
%TO.C,LED12*%
X114743217Y-168274901D03*
X112026389Y-168952283D03*
%TD*%
D27*
%TO.C,REF\u002A\u002A*%
X170434000Y-28194000D03*
D28*
X170434000Y-28194000D03*
%TD*%
D29*
%TO.C,LED35*%
X136087824Y-166939051D03*
X133638888Y-168296517D03*
%TD*%
D30*
%TO.C,LED5*%
X160898014Y-63012080D03*
X162298014Y-65436952D03*
%TD*%
D29*
%TO.C,LED11*%
X132282379Y-160596627D03*
X129833443Y-161954093D03*
%TD*%
D31*
%TO.C,DSP8*%
X96443800Y-55290800D03*
X97713800Y-55290800D03*
X98983800Y-55290800D03*
X100253800Y-55290800D03*
X101523800Y-55290800D03*
X102793800Y-55290800D03*
X102793800Y-66090800D03*
X101523800Y-66090800D03*
X100253800Y-66090800D03*
X98983800Y-66090800D03*
X97713800Y-66090800D03*
%TD*%
D32*
%TO.C,LED40*%
X27058640Y-133638831D03*
X26009742Y-131042717D03*
%TD*%
D31*
%TO.C,DSP9*%
X104063800Y-55290800D03*
X105333800Y-55290800D03*
X106603800Y-55290800D03*
X107873800Y-55290800D03*
X109143800Y-55290800D03*
X110413800Y-55290800D03*
X110413800Y-66090800D03*
X109143800Y-66090800D03*
X107873800Y-66090800D03*
X106603800Y-66090800D03*
X105333800Y-66090800D03*
%TD*%
D23*
%TO.C,LED67*%
X147931000Y-184088000D03*
X147931000Y-182688000D03*
X144931000Y-182688000D03*
X144931000Y-184088000D03*
%TD*%
D33*
%TO.C,LED32*%
X163862851Y-112644298D03*
X163424835Y-115409826D03*
%TD*%
D23*
%TO.C,LED69*%
X167726000Y-173709000D03*
X167726000Y-175109000D03*
X170726000Y-175109000D03*
X170726000Y-173709000D03*
%TD*%
%TO.C,LED68*%
X156333500Y-190689000D03*
X156333500Y-192089000D03*
X159333500Y-192089000D03*
X159333500Y-190689000D03*
%TD*%
D16*
%TO.C,DSP4*%
X99695000Y-92087500D03*
X102235000Y-92087500D03*
X104775000Y-92087500D03*
X107315000Y-92087500D03*
X109855000Y-92087500D03*
X112395000Y-92087500D03*
X122555000Y-92087500D03*
X125095000Y-92087500D03*
X127635000Y-92087500D03*
X130175000Y-92087500D03*
X132715000Y-92087500D03*
X135255000Y-92087500D03*
X135255000Y-84467500D03*
X132715000Y-84467500D03*
X130175000Y-84467500D03*
X127635000Y-84467500D03*
X125095000Y-84467500D03*
X122555000Y-84467500D03*
X112395000Y-84467500D03*
X109855000Y-84467500D03*
X107315000Y-84467500D03*
X104775000Y-84467500D03*
X102235000Y-84467500D03*
X99695000Y-84467500D03*
%TD*%
%TO.C,DSP3*%
X56515000Y-92087500D03*
X59055000Y-92087500D03*
X61595000Y-92087500D03*
X64135000Y-92087500D03*
X66675000Y-92087500D03*
X69215000Y-92087500D03*
X79375000Y-92087500D03*
X81915000Y-92087500D03*
X84455000Y-92087500D03*
X86995000Y-92087500D03*
X89535000Y-92087500D03*
X92075000Y-92087500D03*
X92075000Y-84467500D03*
X89535000Y-84467500D03*
X86995000Y-84467500D03*
X84455000Y-84467500D03*
X81915000Y-84467500D03*
X79375000Y-84467500D03*
X69215000Y-84467500D03*
X66675000Y-84467500D03*
X64135000Y-84467500D03*
X61595000Y-84467500D03*
X59055000Y-84467500D03*
X56515000Y-84467500D03*
%TD*%
D17*
%TO.C,LED1*%
X102986440Y-27208039D03*
X105786440Y-27208039D03*
%TD*%
D34*
%TO.C,U10*%
X71755000Y-157782500D03*
D35*
X74295000Y-157782500D03*
X76835000Y-157782500D03*
X114935000Y-157782500D03*
X117475000Y-157782500D03*
X120015000Y-157782500D03*
X120015000Y-114602500D03*
X117475000Y-114602500D03*
X114935000Y-114602500D03*
X112395000Y-114602500D03*
X109855000Y-114602500D03*
X107315000Y-114602500D03*
X104775000Y-114602500D03*
X102235000Y-114602500D03*
X99695000Y-114602500D03*
X97155000Y-114602500D03*
X94615000Y-114602500D03*
X92075000Y-114602500D03*
X89535000Y-114602500D03*
X86995000Y-114602500D03*
X84455000Y-114602500D03*
X81915000Y-114602500D03*
X79375000Y-114602500D03*
X76835000Y-114602500D03*
X74295000Y-114602500D03*
X71755000Y-114602500D03*
%TD*%
D36*
%TO.C,LED6*%
X168288734Y-78970159D03*
X169060518Y-81661691D03*
%TD*%
D14*
%TO.C,LED64*%
X131584698Y-172108420D03*
X129714658Y-174192394D03*
%TD*%
D23*
%TO.C,LED73*%
X35646000Y-188530000D03*
X35646000Y-189930000D03*
X38646000Y-189930000D03*
X38646000Y-188530000D03*
%TD*%
D17*
%TO.C,LED48*%
X85827392Y-27213339D03*
X88627392Y-27213339D03*
%TD*%
D33*
%TO.C,LED8*%
X171194978Y-113952885D03*
X170756962Y-116718413D03*
%TD*%
D23*
%TO.C,LED65*%
X147931000Y-175109000D03*
X147931000Y-173709000D03*
X144931000Y-173709000D03*
X144931000Y-175109000D03*
%TD*%
D32*
%TO.C,LED16*%
X33954248Y-130804057D03*
X32905350Y-128207943D03*
%TD*%
D21*
%TO.C,LED31*%
X164418973Y-96635327D03*
X164565513Y-99431489D03*
%TD*%
D37*
%TO.C,LED60*%
X137686371Y-53133830D03*
X140333823Y-54045420D03*
%TD*%
D23*
%TO.C,LED72*%
X41759000Y-179008000D03*
X41759000Y-177608000D03*
X38759000Y-177608000D03*
X38759000Y-179008000D03*
%TD*%
D38*
%TO.C,LED42*%
X20350804Y-98933403D03*
X20497344Y-96137241D03*
%TD*%
D39*
%TO.C,LED45*%
X40510535Y-50824660D03*
X42455579Y-48810508D03*
%TD*%
D40*
%TO.C,LED3*%
X136137739Y-38101664D03*
X138512273Y-39585438D03*
%TD*%
D41*
%TO.C,LED58*%
X66727804Y-177635091D03*
X68762078Y-179559079D03*
%TD*%
D10*
%TO.C,LED14*%
X59558724Y-168763429D03*
X57109788Y-167405963D03*
%TD*%
D42*
%TO.C,LED23*%
X71909067Y-38277872D03*
X74556519Y-37366282D03*
%TD*%
D40*
%TO.C,LED55*%
X155937695Y-52815216D03*
X158312229Y-54298990D03*
%TD*%
D12*
%TO.C,LED51*%
X94141082Y-172690823D03*
D13*
X94141082Y-174490823D03*
D12*
X94141082Y-176290823D03*
X98541082Y-176290823D03*
D13*
X98541082Y-174490823D03*
D12*
X98541082Y-172690823D03*
%TD*%
D37*
%TO.C,LED61*%
X130804341Y-50682673D03*
X133451793Y-51594263D03*
%TD*%
D40*
%TO.C,LED27*%
X132077513Y-44324199D03*
X134452047Y-45807973D03*
%TD*%
D23*
%TO.C,LED71*%
X167726000Y-182688000D03*
X167726000Y-184088000D03*
X170726000Y-184088000D03*
X170726000Y-182688000D03*
%TD*%
D31*
%TO.C,DSP6*%
X81203800Y-55290800D03*
X82473800Y-55290800D03*
X83743800Y-55290800D03*
X85013800Y-55290800D03*
X86283800Y-55290800D03*
X87553800Y-55290800D03*
X87553800Y-66090800D03*
X86283800Y-66090800D03*
X85013800Y-66090800D03*
X83743800Y-66090800D03*
X82473800Y-66090800D03*
%TD*%
D19*
%TO.C,LED41*%
X21653852Y-116681027D03*
X21215836Y-113915499D03*
%TD*%
D42*
%TO.C,LED47*%
X69541343Y-31459044D03*
X72188795Y-30547454D03*
%TD*%
D43*
%TO.C,LED54*%
X148145894Y-155140276D03*
D44*
X148145894Y-153340276D03*
D43*
X148145894Y-151540276D03*
X143745894Y-151540276D03*
D44*
X143745894Y-153340276D03*
D43*
X143745894Y-155140276D03*
%TD*%
D27*
%TO.C,REF\u002A\u002A*%
X22098000Y-28194000D03*
D28*
X22098000Y-28194000D03*
%TD*%
D12*
%TO.C,LED52*%
X42885000Y-150092000D03*
D13*
X42885000Y-151892000D03*
D12*
X42885000Y-153692000D03*
X47285000Y-153692000D03*
D13*
X47285000Y-151892000D03*
D12*
X47285000Y-150092000D03*
%TD*%
D45*
%TO.C,LED43*%
X23179052Y-81542634D03*
X23950836Y-78851102D03*
%TD*%
D38*
%TO.C,LED18*%
X27831811Y-99359707D03*
X27978351Y-96563545D03*
%TD*%
D26*
%TO.C,LED22*%
X57758895Y-45669738D03*
X60133429Y-44185964D03*
%TD*%
D39*
%TO.C,LED21*%
X45868358Y-55952383D03*
X47813402Y-53938231D03*
%TD*%
D16*
%TO.C,DSP2*%
X99695000Y-80276500D03*
X102235000Y-80276500D03*
X104775000Y-80276500D03*
X107315000Y-80276500D03*
X109855000Y-80276500D03*
X112395000Y-80276500D03*
X122555000Y-80276500D03*
X125095000Y-80276500D03*
X127635000Y-80276500D03*
X130175000Y-80276500D03*
X132715000Y-80276500D03*
X135255000Y-80276500D03*
X135255000Y-72656500D03*
X132715000Y-72656500D03*
X130175000Y-72656500D03*
X127635000Y-72656500D03*
X125095000Y-72656500D03*
X122555000Y-72656500D03*
X112395000Y-72656500D03*
X109855000Y-72656500D03*
X107315000Y-72656500D03*
X104775000Y-72656500D03*
X102235000Y-72656500D03*
X99695000Y-72656500D03*
%TD*%
D31*
%TO.C,DSP7*%
X88823800Y-55290800D03*
X90093800Y-55290800D03*
X91363800Y-55290800D03*
X92633800Y-55290800D03*
X93903800Y-55290800D03*
X95173800Y-55290800D03*
X95173800Y-66090800D03*
X93903800Y-66090800D03*
X92633800Y-66090800D03*
X91363800Y-66090800D03*
X90093800Y-66090800D03*
%TD*%
D27*
%TO.C,REF\u002A\u002A*%
X96283641Y-165227000D03*
D28*
X96283641Y-165227000D03*
%TD*%
D30*
%TO.C,LED29*%
X154517671Y-66648635D03*
X155917671Y-69073507D03*
%TD*%
D41*
%TO.C,LED57*%
X73982906Y-184496954D03*
X76017180Y-186420942D03*
%TD*%
D16*
%TO.C,DSP1*%
X56515000Y-80276500D03*
X59055000Y-80276500D03*
X61595000Y-80276500D03*
X64135000Y-80276500D03*
X66675000Y-80276500D03*
X69215000Y-80276500D03*
X79375000Y-80276500D03*
X81915000Y-80276500D03*
X84455000Y-80276500D03*
X86995000Y-80276500D03*
X89535000Y-80276500D03*
X92075000Y-80276500D03*
X92075000Y-72656500D03*
X89535000Y-72656500D03*
X86995000Y-72656500D03*
X84455000Y-72656500D03*
X81915000Y-72656500D03*
X79375000Y-72656500D03*
X69215000Y-72656500D03*
X66675000Y-72656500D03*
X64135000Y-72656500D03*
X61595000Y-72656500D03*
X59055000Y-72656500D03*
X56515000Y-72656500D03*
%TD*%
D45*
%TO.C,LED19*%
X30375613Y-83729749D03*
X31147397Y-81038217D03*
%TD*%
D11*
%TO.C,LED20*%
X36442765Y-69049907D03*
X37842765Y-66625035D03*
%TD*%
D37*
%TO.C,LED26*%
X117805936Y-37630174D03*
X120453388Y-38541764D03*
%TD*%
D41*
%TO.C,LED59*%
X61274072Y-172476945D03*
X63308346Y-174400933D03*
%TD*%
D46*
%TO.C,LED50*%
X125428772Y-50639910D03*
D47*
X126014795Y-48937977D03*
D46*
X126600818Y-47236044D03*
X122440536Y-45803544D03*
D47*
X121854513Y-47505477D03*
D46*
X121268490Y-49207410D03*
%TD*%
D40*
%TO.C,LED56*%
X160966456Y-56064487D03*
X163340990Y-57548261D03*
%TD*%
D37*
%TO.C,LED2*%
X120357056Y-30658625D03*
X123004508Y-31570215D03*
%TD*%
D18*
%TO.C,LED37*%
X79301006Y-168648959D03*
X76584178Y-167971577D03*
%TD*%
D24*
%TO.C,LED4*%
X150030478Y-49157924D03*
X151975522Y-51172076D03*
%TD*%
D36*
%TO.C,LED30*%
X161219869Y-81041124D03*
X161991653Y-83732656D03*
%TD*%
D48*
%TO.C,LED49*%
X170573525Y-64254637D03*
D49*
X171527380Y-62728150D03*
D48*
X172481234Y-61201664D03*
X168749823Y-58870019D03*
D49*
X167795968Y-60396506D03*
D48*
X166842114Y-61922992D03*
%TD*%
D50*
%TO.C,CN2*%
X120650000Y-88277500D03*
X115570000Y-89293500D03*
X115570000Y-87261500D03*
%TD*%
M02*
