%TF.GenerationSoftware,KiCad,Pcbnew,9.0.4*%
%TF.CreationDate,2025-09-16T15:39:37-04:00*%
%TF.ProjectId,mini-lhc-display,6d696e69-2d6c-4686-932d-646973706c61,rev?*%
%TF.SameCoordinates,Original*%
%TF.FileFunction,Drillmap*%
%TF.FilePolarity,Positive*%
%FSLAX45Y45*%
G04 Gerber Fmt 4.5, Leading zero omitted, Abs format (unit mm)*
G04 Created by KiCad (PCBNEW 9.0.4) date 2025-09-16 15:39:37*
%MOMM*%
%LPD*%
G01*
G04 APERTURE LIST*
%ADD10C,0.050000*%
%ADD11C,0.200000*%
%ADD12C,0.100000*%
%ADD13C,0.320000*%
G04 APERTURE END LIST*
D10*
X17678400Y-19761200D02*
X17678400Y-2184400D01*
X1574800Y-2184400D02*
X1574800Y-19761200D01*
X1574800Y-19761200D02*
X17678400Y-19761200D01*
X17678400Y-2184400D02*
X1574800Y-2184400D01*
D11*
D12*
X2011827Y-9738955D02*
X2042307Y-9769435D01*
X2042307Y-9738955D02*
X2011827Y-9769435D01*
X2102048Y-11521374D02*
X2132528Y-11551854D01*
X2132528Y-11521374D02*
X2102048Y-11551854D01*
X2105660Y-9738360D02*
X2136140Y-9768840D01*
X2136140Y-9738360D02*
X2105660Y-9768840D01*
X2219960Y-11503660D02*
X2250440Y-11534140D01*
X2250440Y-11503660D02*
X2219960Y-11534140D01*
X2330115Y-8006981D02*
X2360595Y-8037461D01*
X2360595Y-8006981D02*
X2330115Y-8037461D01*
X2334260Y-17015460D02*
X2364740Y-17045940D01*
X2364740Y-17015460D02*
X2334260Y-17045940D01*
X2377260Y-18319414D02*
X2407740Y-18349894D01*
X2407740Y-18319414D02*
X2377260Y-18349894D01*
X2423160Y-8023860D02*
X2453640Y-8054340D01*
X2453640Y-8023860D02*
X2423160Y-8054340D01*
X2608540Y-13237529D02*
X2639020Y-13268009D01*
X2639020Y-13237529D02*
X2608540Y-13268009D01*
X2702560Y-13180060D02*
X2733040Y-13210540D01*
X2733040Y-13180060D02*
X2702560Y-13210540D01*
X2758260Y-18319414D02*
X2788740Y-18349894D01*
X2788740Y-18319414D02*
X2758260Y-18349894D01*
X2791460Y-9776460D02*
X2821940Y-9806940D01*
X2821940Y-9776460D02*
X2791460Y-9806940D01*
X2867660Y-11376660D02*
X2898140Y-11407140D01*
X2898140Y-11376660D02*
X2867660Y-11407140D01*
X2885260Y-18319414D02*
X2915740Y-18349894D01*
X2915740Y-18319414D02*
X2885260Y-18349894D01*
X2905760Y-17472660D02*
X2936240Y-17503140D01*
X2936240Y-17472660D02*
X2905760Y-17503140D01*
X2905760Y-17538700D02*
X2936240Y-17569180D01*
X2936240Y-17538700D02*
X2905760Y-17569180D01*
X3039587Y-6399725D02*
X3070067Y-6430205D01*
X3070067Y-6399725D02*
X3039587Y-6430205D01*
X3045460Y-8227060D02*
X3075940Y-8257540D01*
X3075940Y-8227060D02*
X3045460Y-8257540D01*
X3108960Y-6449060D02*
X3139440Y-6479540D01*
X3139440Y-6449060D02*
X3108960Y-6479540D01*
X3108960Y-17472660D02*
X3139440Y-17503140D01*
X3139440Y-17472660D02*
X3108960Y-17503140D01*
X3108960Y-17538700D02*
X3139440Y-17569180D01*
X3139440Y-17538700D02*
X3108960Y-17569180D01*
X3337560Y-12926060D02*
X3368040Y-12956540D01*
X3368040Y-12926060D02*
X3337560Y-12956540D01*
X3439160Y-18844260D02*
X3469640Y-18874740D01*
X3469640Y-18844260D02*
X3439160Y-18874740D01*
X3439160Y-18945860D02*
X3469640Y-18976340D01*
X3469640Y-18945860D02*
X3439160Y-18976340D01*
X3502660Y-14780260D02*
X3533140Y-14810740D01*
X3533140Y-14780260D02*
X3502660Y-14810740D01*
X3502660Y-17015460D02*
X3533140Y-17045940D01*
X3533140Y-17015460D02*
X3502660Y-17045940D01*
X3566160Y-17244060D02*
X3596640Y-17274540D01*
X3596640Y-17244060D02*
X3566160Y-17274540D01*
X3604260Y-14704060D02*
X3634740Y-14734540D01*
X3634740Y-14704060D02*
X3604260Y-14734540D01*
X3705860Y-6766560D02*
X3736340Y-6797040D01*
X3736340Y-6766560D02*
X3705860Y-6797040D01*
X3870960Y-8088582D02*
X3901440Y-8119062D01*
X3901440Y-8088582D02*
X3870960Y-8119062D01*
X4010660Y-17828260D02*
X4041140Y-17858740D01*
X4041140Y-17828260D02*
X4010660Y-17858740D01*
X4086860Y-8150860D02*
X4117340Y-8181340D01*
X4117340Y-8150860D02*
X4086860Y-8181340D01*
X4112260Y-7731760D02*
X4142740Y-7762240D01*
X4142740Y-7731760D02*
X4112260Y-7762240D01*
X4129824Y-4962945D02*
X4160304Y-4993425D01*
X4160304Y-4962945D02*
X4129824Y-4993425D01*
X4137660Y-14348460D02*
X4168140Y-14378940D01*
X4168140Y-14348460D02*
X4137660Y-14378940D01*
X4176361Y-5027240D02*
X4206841Y-5057720D01*
X4206841Y-5027240D02*
X4176361Y-5057720D01*
X4257040Y-16911320D02*
X4287520Y-16941800D01*
X4287520Y-16911320D02*
X4257040Y-16941800D01*
X4277360Y-17752060D02*
X4307840Y-17782540D01*
X4307840Y-17752060D02*
X4277360Y-17782540D01*
X4277360Y-17891760D02*
X4307840Y-17922240D01*
X4307840Y-17891760D02*
X4277360Y-17922240D01*
X4334923Y-15724659D02*
X4365403Y-15755139D01*
X4365403Y-15724659D02*
X4334923Y-15755139D01*
X4544060Y-16062960D02*
X4574540Y-16093440D01*
X4574540Y-16062960D02*
X4544060Y-16093440D01*
X4569460Y-14996160D02*
X4599940Y-15026640D01*
X4599940Y-14996160D02*
X4569460Y-15026640D01*
X4572620Y-15173960D02*
X4603100Y-15204440D01*
X4603100Y-15173960D02*
X4572620Y-15204440D01*
X4572620Y-15351760D02*
X4603100Y-15382240D01*
X4603100Y-15351760D02*
X4572620Y-15382240D01*
X4596892Y-16102584D02*
X4627372Y-16133064D01*
X4627372Y-16102584D02*
X4596892Y-16133064D01*
X4607560Y-18856960D02*
X4638040Y-18887440D01*
X4638040Y-18856960D02*
X4607560Y-18887440D01*
X4649724Y-16142208D02*
X4680204Y-16172688D01*
X4680204Y-16142208D02*
X4649724Y-16172688D01*
X4658360Y-5483860D02*
X4688840Y-5514340D01*
X4688840Y-5483860D02*
X4658360Y-5514340D01*
X4696460Y-18856960D02*
X4726940Y-18887440D01*
X4726940Y-18856960D02*
X4696460Y-18887440D01*
X4836160Y-12595860D02*
X4866640Y-12626340D01*
X4866640Y-12595860D02*
X4836160Y-12626340D01*
X5191760Y-15415260D02*
X5222240Y-15445740D01*
X5222240Y-15415260D02*
X5191760Y-15445740D01*
X5194661Y-15484201D02*
X5225141Y-15514681D01*
X5225141Y-15484201D02*
X5194661Y-15514681D01*
X5217160Y-15567660D02*
X5247640Y-15598140D01*
X5247640Y-15567660D02*
X5217160Y-15598140D01*
X5229860Y-12545060D02*
X5260340Y-12575540D01*
X5260340Y-12545060D02*
X5229860Y-12575540D01*
X5242560Y-12722860D02*
X5273040Y-12753340D01*
X5273040Y-12722860D02*
X5242560Y-12753340D01*
X5242560Y-14335760D02*
X5273040Y-14366240D01*
X5273040Y-14335760D02*
X5242560Y-14366240D01*
X5306060Y-7706360D02*
X5336540Y-7736840D01*
X5336540Y-7706360D02*
X5306060Y-7736840D01*
X5382260Y-12786360D02*
X5412740Y-12816840D01*
X5412740Y-12786360D02*
X5382260Y-12816840D01*
X5478240Y-3855330D02*
X5508720Y-3885810D01*
X5508720Y-3855330D02*
X5478240Y-3885810D01*
X5522048Y-3921897D02*
X5552528Y-3952377D01*
X5552528Y-3921897D02*
X5522048Y-3952377D01*
X5636260Y-7096760D02*
X5666740Y-7127240D01*
X5666740Y-7096760D02*
X5636260Y-7127240D01*
X5712460Y-13230860D02*
X5742940Y-13261340D01*
X5742940Y-13230860D02*
X5712460Y-13261340D01*
X5801360Y-16824960D02*
X5831840Y-16855440D01*
X5831840Y-16824960D02*
X5801360Y-16855440D01*
X5852160Y-16736060D02*
X5882640Y-16766540D01*
X5882640Y-16736060D02*
X5852160Y-16766540D01*
X5877560Y-4480560D02*
X5908040Y-4511040D01*
X5908040Y-4480560D02*
X5877560Y-4511040D01*
X5890260Y-7045960D02*
X5920740Y-7076440D01*
X5920740Y-7045960D02*
X5890260Y-7076440D01*
X5890260Y-7566660D02*
X5920740Y-7597140D01*
X5920740Y-7566660D02*
X5890260Y-7597140D01*
X6144260Y-6995320D02*
X6174740Y-7025800D01*
X6174740Y-6995320D02*
X6144260Y-7025800D01*
X6144260Y-7503160D02*
X6174740Y-7533640D01*
X6174740Y-7503160D02*
X6144260Y-7533640D01*
X6144260Y-12379960D02*
X6174740Y-12410440D01*
X6174740Y-12379960D02*
X6144260Y-12410440D01*
X6195060Y-16113760D02*
X6225540Y-16144240D01*
X6225540Y-16113760D02*
X6195060Y-16144240D01*
X6207760Y-17320260D02*
X6238240Y-17350740D01*
X6238240Y-17320260D02*
X6207760Y-17350740D01*
X6398260Y-6944360D02*
X6428740Y-6974840D01*
X6428740Y-6944360D02*
X6398260Y-6974840D01*
X6474460Y-17332960D02*
X6504940Y-17363440D01*
X6504940Y-17332960D02*
X6474460Y-17363440D01*
X6499860Y-12646660D02*
X6530340Y-12677140D01*
X6530340Y-12646660D02*
X6499860Y-12677140D01*
X6504240Y-12316460D02*
X6534720Y-12346940D01*
X6534720Y-12316460D02*
X6504240Y-12346940D01*
X6626860Y-10144760D02*
X6657340Y-10175240D01*
X6657340Y-10144760D02*
X6626860Y-10175240D01*
X6652260Y-6893720D02*
X6682740Y-6924200D01*
X6682740Y-6893720D02*
X6652260Y-6924200D01*
X6737660Y-10144760D02*
X6768140Y-10175240D01*
X6768140Y-10144760D02*
X6737660Y-10175240D01*
X6753860Y-17840960D02*
X6784340Y-17871440D01*
X6784340Y-17840960D02*
X6753860Y-17871440D01*
X6804660Y-17612360D02*
X6835140Y-17642840D01*
X6835140Y-17612360D02*
X6804660Y-17642840D01*
X6830060Y-11465560D02*
X6860540Y-11496040D01*
X6860540Y-11465560D02*
X6830060Y-11496040D01*
X6855460Y-13230860D02*
X6885940Y-13261340D01*
X6885940Y-13230860D02*
X6855460Y-13261340D01*
X6893560Y-10652760D02*
X6924040Y-10683240D01*
X6924040Y-10652760D02*
X6893560Y-10683240D01*
X6906260Y-6843080D02*
X6936740Y-6873560D01*
X6936740Y-6843080D02*
X6906260Y-6873560D01*
X6906260Y-7515860D02*
X6936740Y-7546340D01*
X6936740Y-7515860D02*
X6906260Y-7546340D01*
X6954520Y-14564360D02*
X6985000Y-14594840D01*
X6985000Y-14564360D02*
X6954520Y-14594840D01*
X6979559Y-15562219D02*
X7010039Y-15592699D01*
X7010039Y-15562219D02*
X6979559Y-15592699D01*
X6982460Y-15631160D02*
X7012940Y-15661640D01*
X7012940Y-15631160D02*
X6982460Y-15661640D01*
X6995160Y-12847828D02*
X7025640Y-12878308D01*
X7025640Y-12847828D02*
X6995160Y-12878308D01*
X7007860Y-13522960D02*
X7038340Y-13553440D01*
X7038340Y-13522960D02*
X7007860Y-13553440D01*
X7045960Y-12900660D02*
X7076440Y-12931140D01*
X7076440Y-12900660D02*
X7045960Y-12931140D01*
X7045960Y-12966700D02*
X7076440Y-12997180D01*
X7076440Y-12966700D02*
X7045960Y-12997180D01*
X7045960Y-13218160D02*
X7076440Y-13248640D01*
X7076440Y-13218160D02*
X7045960Y-13248640D01*
X7045960Y-13284200D02*
X7076440Y-13314680D01*
X7076440Y-13284200D02*
X7045960Y-13314680D01*
X7068826Y-3077535D02*
X7099306Y-3108015D01*
X7099306Y-3077535D02*
X7068826Y-3108015D01*
X7071120Y-9268460D02*
X7101600Y-9298940D01*
X7101600Y-9268460D02*
X7071120Y-9298940D01*
X7086500Y-13446760D02*
X7116980Y-13477240D01*
X7116980Y-13446760D02*
X7086500Y-13477240D01*
X7096760Y-3159760D02*
X7127240Y-3190240D01*
X7127240Y-3159760D02*
X7096760Y-3190240D01*
X7122160Y-13675360D02*
X7152640Y-13705840D01*
X7152640Y-13675360D02*
X7122160Y-13705840D01*
X7172960Y-13738860D02*
X7203440Y-13769340D01*
X7203440Y-13738860D02*
X7172960Y-13769340D01*
X7299960Y-3769360D02*
X7330440Y-3799840D01*
X7330440Y-3769360D02*
X7299960Y-3799840D01*
X7312660Y-13865860D02*
X7343140Y-13896340D01*
X7343140Y-13865860D02*
X7312660Y-13896340D01*
X7338060Y-3845560D02*
X7368540Y-3876040D01*
X7368540Y-3845560D02*
X7338060Y-3876040D01*
X7376160Y-7249160D02*
X7406640Y-7279640D01*
X7406640Y-7249160D02*
X7376160Y-7279640D01*
X7401560Y-8506460D02*
X7432040Y-8536940D01*
X7432040Y-8506460D02*
X7401560Y-8536940D01*
X7477760Y-13840460D02*
X7508240Y-13870940D01*
X7508240Y-13840460D02*
X7477760Y-13870940D01*
X7477760Y-18526760D02*
X7508240Y-18557240D01*
X7508240Y-18526760D02*
X7477760Y-18557240D01*
X7486847Y-18332995D02*
X7517327Y-18363475D01*
X7517327Y-18332995D02*
X7486847Y-18363475D01*
X7528560Y-13370560D02*
X7559040Y-13401040D01*
X7559040Y-13370560D02*
X7528560Y-13401040D01*
X7579360Y-17561560D02*
X7609840Y-17592040D01*
X7609840Y-17561560D02*
X7579360Y-17592040D01*
X7604760Y-17447260D02*
X7635240Y-17477740D01*
X7635240Y-17447260D02*
X7604760Y-17477740D01*
X7642860Y-9090660D02*
X7673340Y-9121140D01*
X7673340Y-9090660D02*
X7642860Y-9121140D01*
X7661910Y-13313410D02*
X7692390Y-13343890D01*
X7692390Y-13313410D02*
X7661910Y-13343890D01*
X7668260Y-15300960D02*
X7698740Y-15331440D01*
X7698740Y-15300960D02*
X7668260Y-15331440D01*
X7719060Y-9027160D02*
X7749540Y-9057640D01*
X7749540Y-9027160D02*
X7719060Y-9057640D01*
X7757160Y-14272260D02*
X7787640Y-14302740D01*
X7787640Y-14272260D02*
X7757160Y-14302740D01*
X7782560Y-13929360D02*
X7813040Y-13959840D01*
X7813040Y-13929360D02*
X7782560Y-13959840D01*
X7795260Y-10246360D02*
X7825740Y-10276840D01*
X7825740Y-10246360D02*
X7795260Y-10276840D01*
X7795260Y-10424160D02*
X7825740Y-10454640D01*
X7825740Y-10424160D02*
X7795260Y-10454640D01*
X7796910Y-7439660D02*
X7827390Y-7470140D01*
X7827390Y-7439660D02*
X7796910Y-7470140D01*
X7796910Y-7617460D02*
X7827390Y-7647940D01*
X7827390Y-7617460D02*
X7796910Y-7647940D01*
X7807960Y-16723360D02*
X7838440Y-16753840D01*
X7838440Y-16723360D02*
X7807960Y-16753840D01*
X7884160Y-9027160D02*
X7914640Y-9057640D01*
X7914640Y-9027160D02*
X7884160Y-9057640D01*
X7884160Y-15326360D02*
X7914640Y-15356840D01*
X7914640Y-15326360D02*
X7884160Y-15356840D01*
X7947660Y-9509760D02*
X7978140Y-9540240D01*
X7978140Y-9509760D02*
X7947660Y-9540240D01*
X7960360Y-14327910D02*
X7990840Y-14358390D01*
X7990840Y-14327910D02*
X7960360Y-14358390D01*
X7973060Y-7604760D02*
X8003540Y-7635240D01*
X8003540Y-7604760D02*
X7973060Y-7635240D01*
X7998460Y-14056360D02*
X8028940Y-14086840D01*
X8028940Y-14056360D02*
X7998460Y-14086840D01*
X8050910Y-7503160D02*
X8081390Y-7533640D01*
X8081390Y-7503160D02*
X8050910Y-7533640D01*
X8143240Y-5768340D02*
X8173720Y-5798820D01*
X8173720Y-5768340D02*
X8143240Y-5798820D01*
X8176260Y-8925560D02*
X8206740Y-8956040D01*
X8206740Y-8925560D02*
X8176260Y-8956040D01*
X8176260Y-11173460D02*
X8206740Y-11203940D01*
X8206740Y-11173460D02*
X8176260Y-11203940D01*
X8176260Y-13027660D02*
X8206740Y-13058140D01*
X8206740Y-13027660D02*
X8176260Y-13058140D01*
X8176260Y-14327910D02*
X8206740Y-14358390D01*
X8206740Y-14327910D02*
X8176260Y-14358390D01*
X8257540Y-6403340D02*
X8288020Y-6433820D01*
X8288020Y-6403340D02*
X8257540Y-6433820D01*
X8304910Y-7541260D02*
X8335390Y-7571740D01*
X8335390Y-7541260D02*
X8304910Y-7571740D01*
X8315960Y-13484860D02*
X8346440Y-13515340D01*
X8346440Y-13484860D02*
X8315960Y-13515340D01*
X8379460Y-10271760D02*
X8409940Y-10302240D01*
X8409940Y-10271760D02*
X8379460Y-10302240D01*
X8384540Y-6347460D02*
X8415020Y-6377940D01*
X8415020Y-6347460D02*
X8384540Y-6377940D01*
X8397240Y-5831840D02*
X8427720Y-5862320D01*
X8427720Y-5831840D02*
X8397240Y-5862320D01*
X8486140Y-5280660D02*
X8516620Y-5311140D01*
X8516620Y-5280660D02*
X8486140Y-5311140D01*
X8544560Y-8277860D02*
X8575040Y-8308340D01*
X8575040Y-8277860D02*
X8544560Y-8308340D01*
X8569960Y-10271760D02*
X8600440Y-10302240D01*
X8600440Y-10271760D02*
X8569960Y-10302240D01*
X8638540Y-5895340D02*
X8669020Y-5925820D01*
X8669020Y-5895340D02*
X8638540Y-5925820D01*
X8646160Y-13878560D02*
X8676640Y-13909040D01*
X8676640Y-13878560D02*
X8646160Y-13909040D01*
X8663940Y-6276340D02*
X8694420Y-6306820D01*
X8694420Y-6276340D02*
X8663940Y-6306820D01*
X8696960Y-14323060D02*
X8727440Y-14353540D01*
X8727440Y-14323060D02*
X8696960Y-14353540D01*
X8708986Y-2698381D02*
X8739466Y-2728861D01*
X8739466Y-2698381D02*
X8708986Y-2728861D01*
X8709660Y-2791460D02*
X8740140Y-2821940D01*
X8740140Y-2791460D02*
X8709660Y-2821940D01*
X8747760Y-13446760D02*
X8778240Y-13477240D01*
X8778240Y-13446760D02*
X8747760Y-13477240D01*
X8760460Y-7795260D02*
X8790940Y-7825740D01*
X8790940Y-7795260D02*
X8760460Y-7825740D01*
X8760460Y-12735560D02*
X8790940Y-12766040D01*
X8790940Y-12735560D02*
X8760460Y-12766040D01*
X8765540Y-5951220D02*
X8796020Y-5981700D01*
X8796020Y-5951220D02*
X8765540Y-5981700D01*
X8769350Y-6212840D02*
X8799830Y-6243320D01*
X8799830Y-6212840D02*
X8769350Y-6243320D01*
X8785860Y-3439160D02*
X8816340Y-3469640D01*
X8816340Y-3439160D02*
X8785860Y-3469640D01*
X8798560Y-9611360D02*
X8829040Y-9641840D01*
X8829040Y-9611360D02*
X8798560Y-9641840D01*
X8821138Y-13671786D02*
X8851618Y-13702266D01*
X8851618Y-13671786D02*
X8821138Y-13702266D01*
X8836660Y-14094460D02*
X8867140Y-14124940D01*
X8867140Y-14094460D02*
X8836660Y-14124940D01*
X8836660Y-14160500D02*
X8867140Y-14190980D01*
X8867140Y-14160500D02*
X8836660Y-14190980D01*
X8862060Y-13370560D02*
X8892540Y-13401040D01*
X8892540Y-13370560D02*
X8862060Y-13401040D01*
X8862060Y-13723620D02*
X8892540Y-13754100D01*
X8892540Y-13723620D02*
X8862060Y-13754100D01*
X8862060Y-13789660D02*
X8892540Y-13820140D01*
X8892540Y-13789660D02*
X8862060Y-13820140D01*
X8867140Y-5768340D02*
X8897620Y-5798820D01*
X8897620Y-5768340D02*
X8867140Y-5798820D01*
X8994140Y-6403340D02*
X9024620Y-6433820D01*
X9024620Y-6403340D02*
X8994140Y-6433820D01*
X9039860Y-14513560D02*
X9070340Y-14544040D01*
X9070340Y-14513560D02*
X9039860Y-14544040D01*
X9039860Y-15059660D02*
X9070340Y-15090140D01*
X9070340Y-15059660D02*
X9039860Y-15090140D01*
X9121140Y-5831840D02*
X9151620Y-5862320D01*
X9151620Y-5831840D02*
X9121140Y-5862320D01*
X9121140Y-6339840D02*
X9151620Y-6370320D01*
X9151620Y-6339840D02*
X9121140Y-6370320D01*
X9128760Y-13027660D02*
X9159240Y-13058140D01*
X9159240Y-13027660D02*
X9128760Y-13058140D01*
X9154670Y-13268960D02*
X9185150Y-13299440D01*
X9185150Y-13268960D02*
X9154670Y-13299440D01*
X9166860Y-13446760D02*
X9197340Y-13477240D01*
X9197340Y-13446760D02*
X9166860Y-13477240D01*
X9217660Y-9370060D02*
X9248140Y-9400540D01*
X9248140Y-9370060D02*
X9217660Y-9400540D01*
X9217660Y-14069060D02*
X9248140Y-14099540D01*
X9248140Y-14069060D02*
X9217660Y-14099540D01*
X9248140Y-5280660D02*
X9278620Y-5311140D01*
X9278620Y-5280660D02*
X9248140Y-5311140D01*
X9293260Y-12797028D02*
X9323740Y-12827508D01*
X9323740Y-12797028D02*
X9293260Y-12827508D01*
X9306560Y-14069060D02*
X9337040Y-14099540D01*
X9337040Y-14069060D02*
X9306560Y-14099540D01*
X9370060Y-12900660D02*
X9400540Y-12931140D01*
X9400540Y-12900660D02*
X9370060Y-12931140D01*
X9370060Y-14323060D02*
X9400540Y-14353540D01*
X9400540Y-14323060D02*
X9370060Y-14353540D01*
X9375140Y-5895340D02*
X9405620Y-5925820D01*
X9405620Y-5895340D02*
X9375140Y-5925820D01*
X9375140Y-6276340D02*
X9405620Y-6306820D01*
X9405620Y-6276340D02*
X9375140Y-6306820D01*
X9446260Y-12849860D02*
X9476740Y-12880340D01*
X9476740Y-12849860D02*
X9446260Y-12880340D01*
X9446260Y-14323060D02*
X9476740Y-14353540D01*
X9476740Y-14323060D02*
X9446260Y-14353540D01*
X9497060Y-2994660D02*
X9527540Y-3025140D01*
X9527540Y-2994660D02*
X9497060Y-3025140D01*
X9497060Y-14462760D02*
X9527540Y-14493240D01*
X9527540Y-14462760D02*
X9497060Y-14493240D01*
X9502140Y-5971540D02*
X9532620Y-6002020D01*
X9532620Y-5971540D02*
X9502140Y-6002020D01*
X9502140Y-6212840D02*
X9532620Y-6243320D01*
X9532620Y-6212840D02*
X9502140Y-6243320D01*
X9535160Y-13154660D02*
X9565640Y-13185140D01*
X9565640Y-13154660D02*
X9535160Y-13185140D01*
X9535160Y-13992860D02*
X9565640Y-14023340D01*
X9565640Y-13992860D02*
X9535160Y-14023340D01*
X9560560Y-7876420D02*
X9591040Y-7906900D01*
X9591040Y-7876420D02*
X9560560Y-7906900D01*
X9570720Y-17190720D02*
X9601200Y-17221200D01*
X9601200Y-17190720D02*
X9570720Y-17221200D01*
X9573260Y-3058160D02*
X9603740Y-3088640D01*
X9603740Y-3058160D02*
X9573260Y-3088640D01*
X9573260Y-3149500D02*
X9603740Y-3179980D01*
X9603740Y-3149500D02*
X9573260Y-3179980D01*
X9585960Y-2649220D02*
X9616440Y-2679700D01*
X9616440Y-2649220D02*
X9585960Y-2679700D01*
X9598660Y-14500860D02*
X9629140Y-14531340D01*
X9629140Y-14500860D02*
X9598660Y-14531340D01*
X9598660Y-15008860D02*
X9629140Y-15039340D01*
X9629140Y-15008860D02*
X9598660Y-15039340D01*
X9622134Y-17830768D02*
X9652614Y-17861248D01*
X9652614Y-17830768D02*
X9622134Y-17861248D01*
X9626600Y-15595600D02*
X9657080Y-15626080D01*
X9657080Y-15595600D02*
X9626600Y-15626080D01*
X9629140Y-5768340D02*
X9659620Y-5798820D01*
X9659620Y-5768340D02*
X9629140Y-5798820D01*
X9662160Y-17256760D02*
X9692640Y-17287240D01*
X9692640Y-17256760D02*
X9662160Y-17287240D01*
X9662160Y-17434560D02*
X9692640Y-17465040D01*
X9692640Y-17434560D02*
X9662160Y-17465040D01*
X9662160Y-17612360D02*
X9692640Y-17642840D01*
X9692640Y-17612360D02*
X9662160Y-17642840D01*
X9674860Y-8506460D02*
X9705340Y-8536940D01*
X9705340Y-8506460D02*
X9674860Y-8536940D01*
X9700260Y-12735560D02*
X9730740Y-12766040D01*
X9730740Y-12735560D02*
X9700260Y-12766040D01*
X9712960Y-8011160D02*
X9743440Y-8041640D01*
X9743440Y-8011160D02*
X9712960Y-8041640D01*
X9738360Y-9014460D02*
X9768840Y-9044940D01*
X9768840Y-9014460D02*
X9738360Y-9044940D01*
X9756140Y-6403340D02*
X9786620Y-6433820D01*
X9786620Y-6403340D02*
X9756140Y-6433820D01*
X9773260Y-14043660D02*
X9803740Y-14074140D01*
X9803740Y-14043660D02*
X9773260Y-14074140D01*
X9801860Y-12900660D02*
X9832340Y-12931140D01*
X9832340Y-12900660D02*
X9801860Y-12931140D01*
X9852660Y-12382500D02*
X9883140Y-12412980D01*
X9883140Y-12382500D02*
X9852660Y-12412980D01*
X9852660Y-14043660D02*
X9883140Y-14074140D01*
X9883140Y-14043660D02*
X9852660Y-14074140D01*
X9883140Y-5831840D02*
X9913620Y-5862320D01*
X9913620Y-5831840D02*
X9883140Y-5862320D01*
X9883140Y-6339840D02*
X9913620Y-6370320D01*
X9913620Y-6339840D02*
X9883140Y-6370320D01*
X9928860Y-14411960D02*
X9959340Y-14442440D01*
X9959340Y-14411960D02*
X9928860Y-14442440D01*
X9933260Y-12646660D02*
X9963740Y-12677140D01*
X9963740Y-12646660D02*
X9933260Y-12677140D01*
X10010140Y-5280660D02*
X10040620Y-5311140D01*
X10040620Y-5280660D02*
X10010140Y-5311140D01*
X10017760Y-14297660D02*
X10048240Y-14328140D01*
X10048240Y-14297660D02*
X10017760Y-14328140D01*
X10043160Y-13205460D02*
X10073640Y-13235940D01*
X10073640Y-13205460D02*
X10043160Y-13235940D01*
X10043160Y-13281660D02*
X10073640Y-13312140D01*
X10073640Y-13281660D02*
X10043160Y-13312140D01*
X10043160Y-13357860D02*
X10073640Y-13388340D01*
X10073640Y-13357860D02*
X10043160Y-13388340D01*
X10043160Y-13446760D02*
X10073640Y-13477240D01*
X10073640Y-13446760D02*
X10043160Y-13477240D01*
X10043160Y-13522960D02*
X10073640Y-13553440D01*
X10073640Y-13522960D02*
X10043160Y-13553440D01*
X10055860Y-13764260D02*
X10086340Y-13794740D01*
X10086340Y-13764260D02*
X10055860Y-13794740D01*
X10055860Y-13840460D02*
X10086340Y-13870940D01*
X10086340Y-13840460D02*
X10055860Y-13870940D01*
X10055860Y-13929360D02*
X10086340Y-13959840D01*
X10086340Y-13929360D02*
X10055860Y-13959840D01*
X10106660Y-13027660D02*
X10137140Y-13058140D01*
X10137140Y-13027660D02*
X10106660Y-13058140D01*
X10137140Y-5895340D02*
X10167620Y-5925820D01*
X10167620Y-5895340D02*
X10137140Y-5925820D01*
X10137140Y-6276340D02*
X10167620Y-6306820D01*
X10167620Y-6276340D02*
X10137140Y-6306820D01*
X10264140Y-5971540D02*
X10294620Y-6002020D01*
X10294620Y-5971540D02*
X10264140Y-6002020D01*
X10264140Y-6212840D02*
X10294620Y-6243320D01*
X10294620Y-6212840D02*
X10264140Y-6243320D01*
X10284460Y-9839960D02*
X10314940Y-9870440D01*
X10314940Y-9839960D02*
X10284460Y-9870440D01*
X10335260Y-3439160D02*
X10365740Y-3469640D01*
X10365740Y-3439160D02*
X10335260Y-3469640D01*
X10335260Y-3528060D02*
X10365740Y-3558540D01*
X10365740Y-3528060D02*
X10335260Y-3558540D01*
X10335260Y-7109460D02*
X10365740Y-7139940D01*
X10365740Y-7109460D02*
X10335260Y-7139940D01*
X10335260Y-11275060D02*
X10365740Y-11305540D01*
X10365740Y-11275060D02*
X10335260Y-11305540D01*
X10391140Y-5768340D02*
X10421620Y-5798820D01*
X10421620Y-5768340D02*
X10391140Y-5798820D01*
X10411460Y-7388860D02*
X10441940Y-7419340D01*
X10441940Y-7388860D02*
X10411460Y-7419340D01*
X10422631Y-2695182D02*
X10453111Y-2725662D01*
X10453111Y-2695182D02*
X10422631Y-2725662D01*
X10424160Y-2778760D02*
X10454640Y-2809240D01*
X10454640Y-2778760D02*
X10424160Y-2809240D01*
X10481310Y-12754610D02*
X10511790Y-12785090D01*
X10511790Y-12754610D02*
X10481310Y-12785090D01*
X10492740Y-6403340D02*
X10523220Y-6433820D01*
X10523220Y-6403340D02*
X10492740Y-6433820D01*
X10627360Y-12697460D02*
X10657840Y-12727940D01*
X10657840Y-12697460D02*
X10627360Y-12727940D01*
X10640060Y-14056360D02*
X10670540Y-14086840D01*
X10670540Y-14056360D02*
X10640060Y-14086840D01*
X10645140Y-5831840D02*
X10675620Y-5862320D01*
X10675620Y-5831840D02*
X10645140Y-5862320D01*
X10645140Y-6339840D02*
X10675620Y-6370320D01*
X10675620Y-6339840D02*
X10645140Y-6370320D01*
X10688828Y-14107160D02*
X10719308Y-14137640D01*
X10719308Y-14107160D02*
X10688828Y-14137640D01*
X10741660Y-14157960D02*
X10772140Y-14188440D01*
X10772140Y-14157960D02*
X10741660Y-14188440D01*
X10772140Y-5280660D02*
X10802620Y-5311140D01*
X10802620Y-5280660D02*
X10772140Y-5311140D01*
X10817860Y-13992860D02*
X10848340Y-14023340D01*
X10848340Y-13992860D02*
X10817860Y-14023340D01*
X10894060Y-13027660D02*
X10924540Y-13058140D01*
X10924540Y-13027660D02*
X10894060Y-13058140D01*
X10894060Y-13205460D02*
X10924540Y-13235940D01*
X10924540Y-13205460D02*
X10894060Y-13235940D01*
X10899140Y-5844540D02*
X10929620Y-5875020D01*
X10929620Y-5844540D02*
X10899140Y-5875020D01*
X10899140Y-6276340D02*
X10929620Y-6306820D01*
X10929620Y-6276340D02*
X10899140Y-6306820D01*
X11026140Y-5946140D02*
X11056620Y-5976620D01*
X11056620Y-5946140D02*
X11026140Y-5976620D01*
X11026140Y-6212840D02*
X11056620Y-6243320D01*
X11056620Y-6212840D02*
X11026140Y-6243320D01*
X11069320Y-13695680D02*
X11099800Y-13726160D01*
X11099800Y-13695680D02*
X11069320Y-13726160D01*
X11097260Y-11986260D02*
X11127740Y-12016740D01*
X11127740Y-11986260D02*
X11097260Y-12016740D01*
X11186160Y-8671560D02*
X11216640Y-8702040D01*
X11216640Y-8671560D02*
X11186160Y-8702040D01*
X11224260Y-7604760D02*
X11254740Y-7635240D01*
X11254740Y-7604760D02*
X11224260Y-7635240D01*
X11300460Y-12900660D02*
X11330940Y-12931140D01*
X11330940Y-12900660D02*
X11300460Y-12931140D01*
X11300460Y-14500860D02*
X11330940Y-14531340D01*
X11330940Y-14500860D02*
X11300460Y-14531340D01*
X11300460Y-14793460D02*
X11330940Y-14823940D01*
X11330940Y-14793460D02*
X11300460Y-14823940D01*
X11325860Y-16812260D02*
X11356340Y-16842740D01*
X11356340Y-16812260D02*
X11325860Y-16842740D01*
X11480800Y-13690600D02*
X11511280Y-13721080D01*
X11511280Y-13690600D02*
X11480800Y-13721080D01*
X11490960Y-17485360D02*
X11521440Y-17515840D01*
X11521440Y-17485360D02*
X11490960Y-17515840D01*
X11503660Y-17586960D02*
X11534140Y-17617440D01*
X11534140Y-17586960D02*
X11503660Y-17617440D01*
X11554460Y-15008860D02*
X11584940Y-15039340D01*
X11584940Y-15008860D02*
X11554460Y-15039340D01*
X11605260Y-11986260D02*
X11635740Y-12016740D01*
X11635740Y-11986260D02*
X11605260Y-12016740D01*
X11637010Y-15008860D02*
X11667490Y-15039340D01*
X11667490Y-15008860D02*
X11637010Y-15039340D01*
X11795760Y-12754610D02*
X11826240Y-12785090D01*
X11826240Y-12754610D02*
X11795760Y-12785090D01*
X11808460Y-9192260D02*
X11838940Y-9222740D01*
X11838940Y-9192260D02*
X11808460Y-9222740D01*
X11884660Y-3858260D02*
X11915140Y-3888740D01*
X11915140Y-3858260D02*
X11884660Y-3888740D01*
X11973245Y-18499428D02*
X12003725Y-18529908D01*
X12003725Y-18499428D02*
X11973245Y-18529908D01*
X12037060Y-9192260D02*
X12067540Y-9222740D01*
X12067540Y-9192260D02*
X12037060Y-9222740D01*
X12062460Y-15212060D02*
X12092940Y-15242540D01*
X12092940Y-15212060D02*
X12062460Y-15242540D01*
X12114750Y-7706360D02*
X12145230Y-7736840D01*
X12145230Y-7706360D02*
X12114750Y-7736840D01*
X12125960Y-3185160D02*
X12156440Y-3215640D01*
X12156440Y-3185160D02*
X12125960Y-3215640D01*
X12151360Y-15085060D02*
X12181840Y-15115540D01*
X12181840Y-15085060D02*
X12151360Y-15115540D01*
X12152838Y-3096202D02*
X12183318Y-3126682D01*
X12183318Y-3096202D02*
X12152838Y-3126682D01*
X12164060Y-8811260D02*
X12194540Y-8841740D01*
X12194540Y-8811260D02*
X12164060Y-8841740D01*
X12240260Y-7680960D02*
X12270740Y-7711440D01*
X12270740Y-7680960D02*
X12240260Y-7711440D01*
X12278360Y-15313660D02*
X12308840Y-15344140D01*
X12308840Y-15313660D02*
X12278360Y-15344140D01*
X12379960Y-9776460D02*
X12410440Y-9806940D01*
X12410440Y-9776460D02*
X12379960Y-9806940D01*
X12443460Y-18768060D02*
X12473940Y-18798540D01*
X12473940Y-18768060D02*
X12443460Y-18798540D01*
X12494260Y-7668260D02*
X12524740Y-7698740D01*
X12524740Y-7668260D02*
X12494260Y-7698740D01*
X12567461Y-17837237D02*
X12597941Y-17867717D01*
X12597941Y-17837237D02*
X12567461Y-17867717D01*
X12697460Y-5102860D02*
X12727940Y-5133340D01*
X12727940Y-5102860D02*
X12697460Y-5133340D01*
X12811760Y-4759960D02*
X12842240Y-4790440D01*
X12842240Y-4759960D02*
X12811760Y-4790440D01*
X12811760Y-4963160D02*
X12842240Y-4993640D01*
X12842240Y-4963160D02*
X12811760Y-4993640D01*
X12900660Y-7757160D02*
X12931140Y-7787640D01*
X12931140Y-7757160D02*
X12900660Y-7787640D01*
X12964160Y-9014460D02*
X12994640Y-9044940D01*
X12994640Y-9014460D02*
X12964160Y-9044940D01*
X12989560Y-8227060D02*
X13020040Y-8257540D01*
X13020040Y-8227060D02*
X12989560Y-8257540D01*
X13049728Y-17299801D02*
X13080208Y-17330281D01*
X13080208Y-17299801D02*
X13049728Y-17330281D01*
X13065760Y-18145760D02*
X13096240Y-18176240D01*
X13096240Y-18145760D02*
X13065760Y-18176240D01*
X13141960Y-15897860D02*
X13172440Y-15928340D01*
X13172440Y-15897860D02*
X13141960Y-15928340D01*
X13307060Y-4493260D02*
X13337540Y-4523740D01*
X13337540Y-4493260D02*
X13307060Y-4523740D01*
X13370560Y-17155160D02*
X13401040Y-17185640D01*
X13401040Y-17155160D02*
X13370560Y-17185640D01*
X13434060Y-16672560D02*
X13464540Y-16703040D01*
X13464540Y-16672560D02*
X13434060Y-16703040D01*
X13472160Y-16761460D02*
X13502640Y-16791940D01*
X13502640Y-16761460D02*
X13472160Y-16791940D01*
X13662660Y-3947160D02*
X13693140Y-3977640D01*
X13693140Y-3947160D02*
X13662660Y-3977640D01*
X13717261Y-3869115D02*
X13747741Y-3899595D01*
X13747741Y-3869115D02*
X13717261Y-3899595D01*
X13916660Y-5293360D02*
X13947140Y-5323840D01*
X13947140Y-5293360D02*
X13916660Y-5323840D01*
X13942060Y-10106660D02*
X13972540Y-10137140D01*
X13972540Y-10106660D02*
X13942060Y-10137140D01*
X13942060Y-10172700D02*
X13972540Y-10203180D01*
X13972540Y-10172700D02*
X13942060Y-10203180D01*
X14005560Y-9662160D02*
X14036040Y-9692640D01*
X14036040Y-9662160D02*
X14005560Y-9692640D01*
X14043660Y-16266160D02*
X14074140Y-16296640D01*
X14074140Y-16266160D02*
X14043660Y-16296640D01*
X14094460Y-16134280D02*
X14124940Y-16164760D01*
X14124940Y-16134280D02*
X14094460Y-16164760D01*
X14094460Y-16200320D02*
X14124940Y-16230800D01*
X14124940Y-16200320D02*
X14094460Y-16230800D01*
X14132560Y-9573260D02*
X14163040Y-9603740D01*
X14163040Y-9573260D02*
X14132560Y-9603740D01*
X14145260Y-8188960D02*
X14175740Y-8219440D01*
X14175740Y-8188960D02*
X14145260Y-8219440D01*
X14196060Y-9433560D02*
X14226540Y-9464040D01*
X14226540Y-9433560D02*
X14196060Y-9464040D01*
X14208760Y-8125460D02*
X14239240Y-8155940D01*
X14239240Y-8125460D02*
X14208760Y-8155940D01*
X14259560Y-8303260D02*
X14290040Y-8333740D01*
X14290040Y-8303260D02*
X14259560Y-8333740D01*
X14259560Y-9370060D02*
X14290040Y-9400540D01*
X14290040Y-9370060D02*
X14259560Y-9400540D01*
X14259560Y-15720060D02*
X14290040Y-15750540D01*
X14290040Y-15720060D02*
X14259560Y-15750540D01*
X14297660Y-15839439D02*
X14328140Y-15869919D01*
X14328140Y-15839439D02*
X14297660Y-15869919D01*
X14297660Y-15905479D02*
X14328140Y-15935959D01*
X14328140Y-15905479D02*
X14297660Y-15935959D01*
X14297660Y-15971520D02*
X14328140Y-16002000D01*
X14328140Y-15971520D02*
X14297660Y-16002000D01*
X14297660Y-16037560D02*
X14328140Y-16068040D01*
X14328140Y-16037560D02*
X14297660Y-16068040D01*
X14298492Y-15773404D02*
X14328972Y-15803884D01*
X14328972Y-15773404D02*
X14298492Y-15803884D01*
X14323060Y-8239760D02*
X14353540Y-8270240D01*
X14353540Y-8239760D02*
X14323060Y-8270240D01*
X14323060Y-9751060D02*
X14353540Y-9781540D01*
X14353540Y-9751060D02*
X14323060Y-9781540D01*
X14361160Y-18399760D02*
X14391640Y-18430240D01*
X14391640Y-18399760D02*
X14361160Y-18430240D01*
X14373860Y-8074660D02*
X14404340Y-8105140D01*
X14404340Y-8074660D02*
X14373860Y-8105140D01*
X14386560Y-9497060D02*
X14417040Y-9527540D01*
X14417040Y-9497060D02*
X14386560Y-9527540D01*
X14424660Y-4251960D02*
X14455140Y-4282440D01*
X14455140Y-4251960D02*
X14424660Y-4282440D01*
X14424660Y-8417560D02*
X14455140Y-8448040D01*
X14455140Y-8417560D02*
X14424660Y-8448040D01*
X14551660Y-5496560D02*
X14582140Y-5527040D01*
X14582140Y-5496560D02*
X14551660Y-5527040D01*
X14564360Y-16139160D02*
X14594840Y-16169640D01*
X14594840Y-16139160D02*
X14564360Y-16169640D01*
X14564360Y-16205200D02*
X14594840Y-16235680D01*
X14594840Y-16205200D02*
X14564360Y-16235680D01*
X14564360Y-16271241D02*
X14594840Y-16301721D01*
X14594840Y-16271241D02*
X14564360Y-16301721D01*
X14678660Y-4366260D02*
X14709140Y-4396740D01*
X14709140Y-4366260D02*
X14678660Y-4396740D01*
X14716760Y-9116060D02*
X14747240Y-9146540D01*
X14747240Y-9116060D02*
X14716760Y-9146540D01*
X14729460Y-16037560D02*
X14759940Y-16068040D01*
X14759940Y-16037560D02*
X14729460Y-16068040D01*
X14767560Y-16304260D02*
X14798040Y-16334740D01*
X14798040Y-16304260D02*
X14767560Y-16334740D01*
X14805660Y-15976600D02*
X14836140Y-16007080D01*
X14836140Y-15976600D02*
X14805660Y-16007080D01*
X14843760Y-9941560D02*
X14874240Y-9972040D01*
X14874240Y-9941560D02*
X14843760Y-9972040D01*
X14894560Y-10017760D02*
X14925040Y-10048240D01*
X14925040Y-10017760D02*
X14894560Y-10048240D01*
X14894560Y-15834360D02*
X14925040Y-15864840D01*
X14925040Y-15834360D02*
X14894560Y-15864840D01*
X14894560Y-15974060D02*
X14925040Y-16004540D01*
X14925040Y-15974060D02*
X14894560Y-16004540D01*
X14894560Y-17358360D02*
X14925040Y-17388840D01*
X14925040Y-17358360D02*
X14894560Y-17388840D01*
X14894560Y-17498060D02*
X14925040Y-17528540D01*
X14925040Y-17498060D02*
X14894560Y-17528540D01*
X14894560Y-17802860D02*
X14925040Y-17833340D01*
X14925040Y-17802860D02*
X14894560Y-17833340D01*
X14894560Y-17942560D02*
X14925040Y-17973040D01*
X14925040Y-17942560D02*
X14894560Y-17973040D01*
X14894560Y-18260060D02*
X14925040Y-18290540D01*
X14925040Y-18260060D02*
X14894560Y-18290540D01*
X14894560Y-18399760D02*
X14925040Y-18430240D01*
X14925040Y-18399760D02*
X14894560Y-18430240D01*
X14933318Y-15632282D02*
X14963798Y-15662762D01*
X14963798Y-15632282D02*
X14933318Y-15662762D01*
X14945360Y-9839960D02*
X14975840Y-9870440D01*
X14975840Y-9839960D02*
X14945360Y-9870440D01*
X14970760Y-15720060D02*
X15001240Y-15750540D01*
X15001240Y-15720060D02*
X14970760Y-15750540D01*
X14996160Y-10259060D02*
X15026640Y-10289540D01*
X15026640Y-10259060D02*
X14996160Y-10289540D01*
X15010384Y-15772892D02*
X15040864Y-15803372D01*
X15040864Y-15772892D02*
X15010384Y-15803372D01*
X15074327Y-5001534D02*
X15104807Y-5032014D01*
X15104807Y-5001534D02*
X15074327Y-5032014D01*
X15097760Y-14310360D02*
X15128240Y-14340840D01*
X15128240Y-14310360D02*
X15097760Y-14340840D01*
X15097760Y-15313660D02*
X15128240Y-15344140D01*
X15128240Y-15313660D02*
X15097760Y-15344140D01*
X15148560Y-15262860D02*
X15179040Y-15293340D01*
X15179040Y-15262860D02*
X15148560Y-15293340D01*
X15262860Y-8677910D02*
X15293340Y-8708390D01*
X15293340Y-8677910D02*
X15262860Y-8708390D01*
X15377160Y-15313660D02*
X15407640Y-15344140D01*
X15407640Y-15313660D02*
X15377160Y-15344140D01*
X15427960Y-15262860D02*
X15458440Y-15293340D01*
X15458440Y-15262860D02*
X15427960Y-15293340D01*
X15453360Y-6804660D02*
X15483840Y-6835140D01*
X15483840Y-6804660D02*
X15453360Y-6835140D01*
X15491460Y-19047460D02*
X15521940Y-19077940D01*
X15521940Y-19047460D02*
X15491460Y-19077940D01*
X15491460Y-19199860D02*
X15521940Y-19230340D01*
X15521940Y-19199860D02*
X15491460Y-19230340D01*
X15542260Y-6753860D02*
X15572740Y-6784340D01*
X15572740Y-6753860D02*
X15542260Y-6784340D01*
X15542260Y-15212060D02*
X15572740Y-15242540D01*
X15572740Y-15212060D02*
X15542260Y-15242540D01*
X15593060Y-15085060D02*
X15623540Y-15115540D01*
X15623540Y-15085060D02*
X15593060Y-15115540D01*
X15605760Y-5610860D02*
X15636240Y-5641340D01*
X15636240Y-5610860D02*
X15605760Y-5641340D01*
X15605760Y-16139160D02*
X15636240Y-16169640D01*
X15636240Y-16139160D02*
X15605760Y-16169640D01*
X15643860Y-14678660D02*
X15674340Y-14709140D01*
X15674340Y-14678660D02*
X15643860Y-14709140D01*
X15680060Y-15498858D02*
X15710540Y-15529338D01*
X15710540Y-15498858D02*
X15680060Y-15529338D01*
X15694660Y-5344160D02*
X15725140Y-5374640D01*
X15725140Y-5344160D02*
X15694660Y-5374640D01*
X15711230Y-14726630D02*
X15741710Y-14757110D01*
X15741710Y-14726630D02*
X15711230Y-14757110D01*
X15737230Y-15089530D02*
X15767710Y-15120010D01*
X15767710Y-15089530D02*
X15737230Y-15120010D01*
X15834360Y-15999460D02*
X15864840Y-16029940D01*
X15864840Y-15999460D02*
X15834360Y-16029940D01*
X15885160Y-12938760D02*
X15915640Y-12969240D01*
X15915640Y-12938760D02*
X15885160Y-12969240D01*
X16024860Y-19047460D02*
X16055340Y-19077940D01*
X16055340Y-19047460D02*
X16024860Y-19077940D01*
X16139160Y-8227060D02*
X16169640Y-8257540D01*
X16169640Y-8227060D02*
X16139160Y-8257540D01*
X16144561Y-6407212D02*
X16175041Y-6437692D01*
X16175041Y-6407212D02*
X16144561Y-6437692D01*
X16177260Y-5648960D02*
X16207740Y-5679440D01*
X16207740Y-5648960D02*
X16177260Y-5679440D01*
X16228060Y-8201660D02*
X16258540Y-8232140D01*
X16258540Y-8201660D02*
X16228060Y-8232140D01*
X16342360Y-11389360D02*
X16372840Y-11419840D01*
X16372840Y-11389360D02*
X16342360Y-11419840D01*
X16443960Y-9789160D02*
X16474440Y-9819640D01*
X16474440Y-9789160D02*
X16443960Y-9819640D01*
X16482060Y-13192760D02*
X16512540Y-13223240D01*
X16512540Y-13192760D02*
X16482060Y-13223240D01*
X16569935Y-13220325D02*
X16600415Y-13250805D01*
X16600415Y-13220325D02*
X16569935Y-13250805D01*
X16609060Y-11389360D02*
X16639540Y-11419840D01*
X16639540Y-11389360D02*
X16609060Y-11419840D01*
X16618720Y-9598660D02*
X16649200Y-9629140D01*
X16649200Y-9598660D02*
X16618720Y-9629140D01*
X16647160Y-17345660D02*
X16677640Y-17376140D01*
X16677640Y-17345660D02*
X16647160Y-17376140D01*
X16647160Y-17498060D02*
X16677640Y-17528540D01*
X16677640Y-17498060D02*
X16647160Y-17528540D01*
X16647160Y-17802860D02*
X16677640Y-17833340D01*
X16677640Y-17802860D02*
X16647160Y-17833340D01*
X16647160Y-17942560D02*
X16677640Y-17973040D01*
X16677640Y-17942560D02*
X16647160Y-17973040D01*
X16647160Y-18247360D02*
X16677640Y-18277840D01*
X16677640Y-18247360D02*
X16647160Y-18277840D01*
X16647160Y-18399760D02*
X16677640Y-18430240D01*
X16677640Y-18399760D02*
X16647160Y-18430240D01*
X16742122Y-12530237D02*
X16772602Y-12560717D01*
X16772602Y-12530237D02*
X16742122Y-12560717D01*
X16767252Y-12450129D02*
X16797732Y-12480609D01*
X16797732Y-12450129D02*
X16767252Y-12480609D01*
X16786860Y-12278360D02*
X16817340Y-12308840D01*
X16817340Y-12278360D02*
X16786860Y-12308840D01*
X16786860Y-12367260D02*
X16817340Y-12397740D01*
X16817340Y-12367260D02*
X16786860Y-12397740D01*
X16812260Y-12189460D02*
X16842740Y-12219940D01*
X16842740Y-12189460D02*
X16812260Y-12219940D01*
X16850360Y-12113260D02*
X16880840Y-12143740D01*
X16880840Y-12113260D02*
X16850360Y-12143740D01*
X16852223Y-8016352D02*
X16882703Y-8046832D01*
X16882703Y-8016352D02*
X16852223Y-8046832D01*
X16863060Y-12011660D02*
X16893540Y-12042140D01*
X16893540Y-12011660D02*
X16863060Y-12042140D01*
X16999820Y-12456160D02*
X17030300Y-12486640D01*
X17030300Y-12456160D02*
X16999820Y-12486640D01*
X17035480Y-12360311D02*
X17065960Y-12390791D01*
X17065960Y-12360311D02*
X17035480Y-12390791D01*
X17066260Y-12024360D02*
X17096740Y-12054840D01*
X17096740Y-12024360D02*
X17066260Y-12054840D01*
X17066260Y-12113260D02*
X17096740Y-12143740D01*
X17096740Y-12113260D02*
X17066260Y-12143740D01*
X17066260Y-12189460D02*
X17096740Y-12219940D01*
X17096740Y-12189460D02*
X17066260Y-12219940D01*
X17066260Y-12278360D02*
X17096740Y-12308840D01*
X17096740Y-12278360D02*
X17066260Y-12308840D01*
X17071904Y-11516269D02*
X17102384Y-11546749D01*
X17102384Y-11516269D02*
X17071904Y-11546749D01*
X17167860Y-18399760D02*
X17198340Y-18430240D01*
X17198340Y-18399760D02*
X17167860Y-18430240D01*
X17167951Y-9739216D02*
X17198431Y-9769696D01*
X17198431Y-9739216D02*
X17167951Y-9769696D01*
X17193260Y-6499860D02*
X17223740Y-6530340D01*
X17223740Y-6499860D02*
X17193260Y-6530340D01*
X17345660Y-6385560D02*
X17376140Y-6416040D01*
X17376140Y-6385560D02*
X17345660Y-6416040D01*
X17383760Y-6195060D02*
X17414240Y-6225540D01*
X17414240Y-6195060D02*
X17383760Y-6225540D01*
X17508320Y-12530237D02*
X17538800Y-12560717D01*
X17538800Y-12530237D02*
X17508320Y-12560717D01*
X7213600Y-11460250D02*
G75*
G02*
X7137400Y-11460250I-38100J0D01*
G01*
X7137400Y-11460250D02*
G75*
G02*
X7213600Y-11460250I38100J0D01*
G01*
X7213600Y-15778250D02*
G75*
G02*
X7137400Y-15778250I-38100J0D01*
G01*
X7137400Y-15778250D02*
G75*
G02*
X7213600Y-15778250I38100J0D01*
G01*
X7467600Y-11460250D02*
G75*
G02*
X7391400Y-11460250I-38100J0D01*
G01*
X7391400Y-11460250D02*
G75*
G02*
X7467600Y-11460250I38100J0D01*
G01*
X7467600Y-15778250D02*
G75*
G02*
X7391400Y-15778250I-38100J0D01*
G01*
X7391400Y-15778250D02*
G75*
G02*
X7467600Y-15778250I38100J0D01*
G01*
X7721600Y-11460250D02*
G75*
G02*
X7645400Y-11460250I-38100J0D01*
G01*
X7645400Y-11460250D02*
G75*
G02*
X7721600Y-11460250I38100J0D01*
G01*
X7721600Y-15778250D02*
G75*
G02*
X7645400Y-15778250I-38100J0D01*
G01*
X7645400Y-15778250D02*
G75*
G02*
X7721600Y-15778250I38100J0D01*
G01*
X7975600Y-11460250D02*
G75*
G02*
X7899400Y-11460250I-38100J0D01*
G01*
X7899400Y-11460250D02*
G75*
G02*
X7975600Y-11460250I38100J0D01*
G01*
X8229600Y-11460250D02*
G75*
G02*
X8153400Y-11460250I-38100J0D01*
G01*
X8153400Y-11460250D02*
G75*
G02*
X8229600Y-11460250I38100J0D01*
G01*
X8483600Y-11460250D02*
G75*
G02*
X8407400Y-11460250I-38100J0D01*
G01*
X8407400Y-11460250D02*
G75*
G02*
X8483600Y-11460250I38100J0D01*
G01*
X8737600Y-11460250D02*
G75*
G02*
X8661400Y-11460250I-38100J0D01*
G01*
X8661400Y-11460250D02*
G75*
G02*
X8737600Y-11460250I38100J0D01*
G01*
X8991600Y-11460250D02*
G75*
G02*
X8915400Y-11460250I-38100J0D01*
G01*
X8915400Y-11460250D02*
G75*
G02*
X8991600Y-11460250I38100J0D01*
G01*
X9245600Y-11460250D02*
G75*
G02*
X9169400Y-11460250I-38100J0D01*
G01*
X9169400Y-11460250D02*
G75*
G02*
X9245600Y-11460250I38100J0D01*
G01*
X9499600Y-11460250D02*
G75*
G02*
X9423400Y-11460250I-38100J0D01*
G01*
X9423400Y-11460250D02*
G75*
G02*
X9499600Y-11460250I38100J0D01*
G01*
X9753600Y-11460250D02*
G75*
G02*
X9677400Y-11460250I-38100J0D01*
G01*
X9677400Y-11460250D02*
G75*
G02*
X9753600Y-11460250I38100J0D01*
G01*
X10007600Y-11460250D02*
G75*
G02*
X9931400Y-11460250I-38100J0D01*
G01*
X9931400Y-11460250D02*
G75*
G02*
X10007600Y-11460250I38100J0D01*
G01*
X10261600Y-11460250D02*
G75*
G02*
X10185400Y-11460250I-38100J0D01*
G01*
X10185400Y-11460250D02*
G75*
G02*
X10261600Y-11460250I38100J0D01*
G01*
X10515600Y-11460250D02*
G75*
G02*
X10439400Y-11460250I-38100J0D01*
G01*
X10439400Y-11460250D02*
G75*
G02*
X10515600Y-11460250I38100J0D01*
G01*
X10769600Y-11460250D02*
G75*
G02*
X10693400Y-11460250I-38100J0D01*
G01*
X10693400Y-11460250D02*
G75*
G02*
X10769600Y-11460250I38100J0D01*
G01*
X11023600Y-11460250D02*
G75*
G02*
X10947400Y-11460250I-38100J0D01*
G01*
X10947400Y-11460250D02*
G75*
G02*
X11023600Y-11460250I38100J0D01*
G01*
X11277600Y-11460250D02*
G75*
G02*
X11201400Y-11460250I-38100J0D01*
G01*
X11201400Y-11460250D02*
G75*
G02*
X11277600Y-11460250I38100J0D01*
G01*
X11531600Y-11460250D02*
G75*
G02*
X11455400Y-11460250I-38100J0D01*
G01*
X11455400Y-11460250D02*
G75*
G02*
X11531600Y-11460250I38100J0D01*
G01*
X11531600Y-15778250D02*
G75*
G02*
X11455400Y-15778250I-38100J0D01*
G01*
X11455400Y-15778250D02*
G75*
G02*
X11531600Y-15778250I38100J0D01*
G01*
X11785600Y-11460250D02*
G75*
G02*
X11709400Y-11460250I-38100J0D01*
G01*
X11709400Y-11460250D02*
G75*
G02*
X11785600Y-11460250I38100J0D01*
G01*
X11785600Y-15778250D02*
G75*
G02*
X11709400Y-15778250I-38100J0D01*
G01*
X11709400Y-15778250D02*
G75*
G02*
X11785600Y-15778250I38100J0D01*
G01*
X12039600Y-11460250D02*
G75*
G02*
X11963400Y-11460250I-38100J0D01*
G01*
X11963400Y-11460250D02*
G75*
G02*
X12039600Y-11460250I38100J0D01*
G01*
X12039600Y-15778250D02*
G75*
G02*
X11963400Y-15778250I-38100J0D01*
G01*
X11963400Y-15778250D02*
G75*
G02*
X12039600Y-15778250I38100J0D01*
G01*
X5651500Y-7221200D02*
X5651500Y-7310100D01*
X5607050Y-7265650D02*
X5695950Y-7265650D01*
X5651500Y-7983200D02*
X5651500Y-8072100D01*
X5607050Y-8027650D02*
X5695950Y-8027650D01*
X5651500Y-8402300D02*
X5651500Y-8491200D01*
X5607050Y-8446750D02*
X5695950Y-8446750D01*
X5651500Y-9164300D02*
X5651500Y-9253200D01*
X5607050Y-9208750D02*
X5695950Y-9208750D01*
X5905500Y-7221200D02*
X5905500Y-7310100D01*
X5861050Y-7265650D02*
X5949950Y-7265650D01*
X5905500Y-7983200D02*
X5905500Y-8072100D01*
X5861050Y-8027650D02*
X5949950Y-8027650D01*
X5905500Y-8402300D02*
X5905500Y-8491200D01*
X5861050Y-8446750D02*
X5949950Y-8446750D01*
X5905500Y-9164300D02*
X5905500Y-9253200D01*
X5861050Y-9208750D02*
X5949950Y-9208750D01*
X6159500Y-7221200D02*
X6159500Y-7310100D01*
X6115050Y-7265650D02*
X6203950Y-7265650D01*
X6159500Y-7983200D02*
X6159500Y-8072100D01*
X6115050Y-8027650D02*
X6203950Y-8027650D01*
X6159500Y-8402300D02*
X6159500Y-8491200D01*
X6115050Y-8446750D02*
X6203950Y-8446750D01*
X6159500Y-9164300D02*
X6159500Y-9253200D01*
X6115050Y-9208750D02*
X6203950Y-9208750D01*
X6413500Y-7221200D02*
X6413500Y-7310100D01*
X6369050Y-7265650D02*
X6457950Y-7265650D01*
X6413500Y-7983200D02*
X6413500Y-8072100D01*
X6369050Y-8027650D02*
X6457950Y-8027650D01*
X6413500Y-8402300D02*
X6413500Y-8491200D01*
X6369050Y-8446750D02*
X6457950Y-8446750D01*
X6413500Y-9164300D02*
X6413500Y-9253200D01*
X6369050Y-9208750D02*
X6457950Y-9208750D01*
X6667500Y-7221200D02*
X6667500Y-7310100D01*
X6623050Y-7265650D02*
X6711950Y-7265650D01*
X6667500Y-7983200D02*
X6667500Y-8072100D01*
X6623050Y-8027650D02*
X6711950Y-8027650D01*
X6667500Y-8402300D02*
X6667500Y-8491200D01*
X6623050Y-8446750D02*
X6711950Y-8446750D01*
X6667500Y-9164300D02*
X6667500Y-9253200D01*
X6623050Y-9208750D02*
X6711950Y-9208750D01*
X6921500Y-7221200D02*
X6921500Y-7310100D01*
X6877050Y-7265650D02*
X6965950Y-7265650D01*
X6921500Y-7983200D02*
X6921500Y-8072100D01*
X6877050Y-8027650D02*
X6965950Y-8027650D01*
X6921500Y-8402300D02*
X6921500Y-8491200D01*
X6877050Y-8446750D02*
X6965950Y-8446750D01*
X6921500Y-9164300D02*
X6921500Y-9253200D01*
X6877050Y-9208750D02*
X6965950Y-9208750D01*
X7937500Y-7221200D02*
X7937500Y-7310100D01*
X7893050Y-7265650D02*
X7981950Y-7265650D01*
X7937500Y-7983200D02*
X7937500Y-8072100D01*
X7893050Y-8027650D02*
X7981950Y-8027650D01*
X7937500Y-8402300D02*
X7937500Y-8491200D01*
X7893050Y-8446750D02*
X7981950Y-8446750D01*
X7937500Y-9164300D02*
X7937500Y-9253200D01*
X7893050Y-9208750D02*
X7981950Y-9208750D01*
X8191500Y-7221200D02*
X8191500Y-7310100D01*
X8147050Y-7265650D02*
X8235950Y-7265650D01*
X8191500Y-7983200D02*
X8191500Y-8072100D01*
X8147050Y-8027650D02*
X8235950Y-8027650D01*
X8191500Y-8402300D02*
X8191500Y-8491200D01*
X8147050Y-8446750D02*
X8235950Y-8446750D01*
X8191500Y-9164300D02*
X8191500Y-9253200D01*
X8147050Y-9208750D02*
X8235950Y-9208750D01*
X8445500Y-7221200D02*
X8445500Y-7310100D01*
X8401050Y-7265650D02*
X8489950Y-7265650D01*
X8445500Y-7983200D02*
X8445500Y-8072100D01*
X8401050Y-8027650D02*
X8489950Y-8027650D01*
X8445500Y-8402300D02*
X8445500Y-8491200D01*
X8401050Y-8446750D02*
X8489950Y-8446750D01*
X8445500Y-9164300D02*
X8445500Y-9253200D01*
X8401050Y-9208750D02*
X8489950Y-9208750D01*
X8699500Y-7221200D02*
X8699500Y-7310100D01*
X8655050Y-7265650D02*
X8743950Y-7265650D01*
X8699500Y-7983200D02*
X8699500Y-8072100D01*
X8655050Y-8027650D02*
X8743950Y-8027650D01*
X8699500Y-8402300D02*
X8699500Y-8491200D01*
X8655050Y-8446750D02*
X8743950Y-8446750D01*
X8699500Y-9164300D02*
X8699500Y-9253200D01*
X8655050Y-9208750D02*
X8743950Y-9208750D01*
X8699500Y-10039350D02*
X8699500Y-10128250D01*
X8655050Y-10083800D02*
X8743950Y-10083800D01*
X8699500Y-11055350D02*
X8699500Y-11144250D01*
X8655050Y-11099800D02*
X8743950Y-11099800D01*
X8953500Y-7221200D02*
X8953500Y-7310100D01*
X8909050Y-7265650D02*
X8997950Y-7265650D01*
X8953500Y-7983200D02*
X8953500Y-8072100D01*
X8909050Y-8027650D02*
X8997950Y-8027650D01*
X8953500Y-8402300D02*
X8953500Y-8491200D01*
X8909050Y-8446750D02*
X8997950Y-8446750D01*
X8953500Y-9164300D02*
X8953500Y-9253200D01*
X8909050Y-9208750D02*
X8997950Y-9208750D01*
X8953500Y-10039350D02*
X8953500Y-10128250D01*
X8909050Y-10083800D02*
X8997950Y-10083800D01*
X8953500Y-11055350D02*
X8953500Y-11144250D01*
X8909050Y-11099800D02*
X8997950Y-11099800D01*
X9207500Y-7221200D02*
X9207500Y-7310100D01*
X9163050Y-7265650D02*
X9251950Y-7265650D01*
X9207500Y-7983200D02*
X9207500Y-8072100D01*
X9163050Y-8027650D02*
X9251950Y-8027650D01*
X9207500Y-8402300D02*
X9207500Y-8491200D01*
X9163050Y-8446750D02*
X9251950Y-8446750D01*
X9207500Y-9164300D02*
X9207500Y-9253200D01*
X9163050Y-9208750D02*
X9251950Y-9208750D01*
X9207500Y-10039350D02*
X9207500Y-10128250D01*
X9163050Y-10083800D02*
X9251950Y-10083800D01*
X9207500Y-11055350D02*
X9207500Y-11144250D01*
X9163050Y-11099800D02*
X9251950Y-11099800D01*
X9461500Y-10039350D02*
X9461500Y-10128250D01*
X9417050Y-10083800D02*
X9505950Y-10083800D01*
X9461500Y-11055350D02*
X9461500Y-11144250D01*
X9417050Y-11099800D02*
X9505950Y-11099800D01*
X9717529Y-10039350D02*
X9717529Y-10128250D01*
X9673079Y-10083800D02*
X9761979Y-10083800D01*
X9717529Y-11055350D02*
X9717529Y-11144250D01*
X9673079Y-11099800D02*
X9761979Y-11099800D01*
X9969500Y-7221200D02*
X9969500Y-7310100D01*
X9925050Y-7265650D02*
X10013950Y-7265650D01*
X9969500Y-7983200D02*
X9969500Y-8072100D01*
X9925050Y-8027650D02*
X10013950Y-8027650D01*
X9969500Y-8402300D02*
X9969500Y-8491200D01*
X9925050Y-8446750D02*
X10013950Y-8446750D01*
X9969500Y-9164300D02*
X9969500Y-9253200D01*
X9925050Y-9208750D02*
X10013950Y-9208750D01*
X9969500Y-10039350D02*
X9969500Y-10128250D01*
X9925050Y-10083800D02*
X10013950Y-10083800D01*
X9969500Y-11055350D02*
X9969500Y-11144250D01*
X9925050Y-11099800D02*
X10013950Y-11099800D01*
X10223500Y-7221200D02*
X10223500Y-7310100D01*
X10179050Y-7265650D02*
X10267950Y-7265650D01*
X10223500Y-7983200D02*
X10223500Y-8072100D01*
X10179050Y-8027650D02*
X10267950Y-8027650D01*
X10223500Y-8402300D02*
X10223500Y-8491200D01*
X10179050Y-8446750D02*
X10267950Y-8446750D01*
X10223500Y-9164300D02*
X10223500Y-9253200D01*
X10179050Y-9208750D02*
X10267950Y-9208750D01*
X10223500Y-10039350D02*
X10223500Y-10128250D01*
X10179050Y-10083800D02*
X10267950Y-10083800D01*
X10223500Y-11055350D02*
X10223500Y-11144250D01*
X10179050Y-11099800D02*
X10267950Y-11099800D01*
X10477500Y-7221200D02*
X10477500Y-7310100D01*
X10433050Y-7265650D02*
X10521950Y-7265650D01*
X10477500Y-7983200D02*
X10477500Y-8072100D01*
X10433050Y-8027650D02*
X10521950Y-8027650D01*
X10477500Y-8402300D02*
X10477500Y-8491200D01*
X10433050Y-8446750D02*
X10521950Y-8446750D01*
X10477500Y-9164300D02*
X10477500Y-9253200D01*
X10433050Y-9208750D02*
X10521950Y-9208750D01*
X10477500Y-10039350D02*
X10477500Y-10128250D01*
X10433050Y-10083800D02*
X10521950Y-10083800D01*
X10477500Y-11055350D02*
X10477500Y-11144250D01*
X10433050Y-11099800D02*
X10521950Y-11099800D01*
X10731500Y-7221200D02*
X10731500Y-7310100D01*
X10687050Y-7265650D02*
X10775950Y-7265650D01*
X10731500Y-7983200D02*
X10731500Y-8072100D01*
X10687050Y-8027650D02*
X10775950Y-8027650D01*
X10731500Y-8402300D02*
X10731500Y-8491200D01*
X10687050Y-8446750D02*
X10775950Y-8446750D01*
X10731500Y-9164300D02*
X10731500Y-9253200D01*
X10687050Y-9208750D02*
X10775950Y-9208750D01*
X10985500Y-7221200D02*
X10985500Y-7310100D01*
X10941050Y-7265650D02*
X11029950Y-7265650D01*
X10985500Y-7983200D02*
X10985500Y-8072100D01*
X10941050Y-8027650D02*
X11029950Y-8027650D01*
X10985500Y-8402300D02*
X10985500Y-8491200D01*
X10941050Y-8446750D02*
X11029950Y-8446750D01*
X10985500Y-9164300D02*
X10985500Y-9253200D01*
X10941050Y-9208750D02*
X11029950Y-9208750D01*
X11239500Y-7221200D02*
X11239500Y-7310100D01*
X11195050Y-7265650D02*
X11283950Y-7265650D01*
X11239500Y-7983200D02*
X11239500Y-8072100D01*
X11195050Y-8027650D02*
X11283950Y-8027650D01*
X11239500Y-8402300D02*
X11239500Y-8491200D01*
X11195050Y-8446750D02*
X11283950Y-8446750D01*
X11239500Y-9164300D02*
X11239500Y-9253200D01*
X11195050Y-9208750D02*
X11283950Y-9208750D01*
X12255500Y-7221200D02*
X12255500Y-7310100D01*
X12211050Y-7265650D02*
X12299950Y-7265650D01*
X12255500Y-7983200D02*
X12255500Y-8072100D01*
X12211050Y-8027650D02*
X12299950Y-8027650D01*
X12255500Y-8402300D02*
X12255500Y-8491200D01*
X12211050Y-8446750D02*
X12299950Y-8446750D01*
X12255500Y-9164300D02*
X12255500Y-9253200D01*
X12211050Y-9208750D02*
X12299950Y-9208750D01*
X12509500Y-7221200D02*
X12509500Y-7310100D01*
X12465050Y-7265650D02*
X12553950Y-7265650D01*
X12509500Y-7983200D02*
X12509500Y-8072100D01*
X12465050Y-8027650D02*
X12553950Y-8027650D01*
X12509500Y-8402300D02*
X12509500Y-8491200D01*
X12465050Y-8446750D02*
X12553950Y-8446750D01*
X12509500Y-9164300D02*
X12509500Y-9253200D01*
X12465050Y-9208750D02*
X12553950Y-9208750D01*
X12763500Y-7221200D02*
X12763500Y-7310100D01*
X12719050Y-7265650D02*
X12807950Y-7265650D01*
X12763500Y-7983200D02*
X12763500Y-8072100D01*
X12719050Y-8027650D02*
X12807950Y-8027650D01*
X12763500Y-8402300D02*
X12763500Y-8491200D01*
X12719050Y-8446750D02*
X12807950Y-8446750D01*
X12763500Y-9164300D02*
X12763500Y-9253200D01*
X12719050Y-9208750D02*
X12807950Y-9208750D01*
X13017500Y-7221200D02*
X13017500Y-7310100D01*
X12973050Y-7265650D02*
X13061950Y-7265650D01*
X13017500Y-7983200D02*
X13017500Y-8072100D01*
X12973050Y-8027650D02*
X13061950Y-8027650D01*
X13017500Y-8402300D02*
X13017500Y-8491200D01*
X12973050Y-8446750D02*
X13061950Y-8446750D01*
X13017500Y-9164300D02*
X13017500Y-9253200D01*
X12973050Y-9208750D02*
X13061950Y-9208750D01*
X13271500Y-7221200D02*
X13271500Y-7310100D01*
X13227050Y-7265650D02*
X13315950Y-7265650D01*
X13271500Y-7983200D02*
X13271500Y-8072100D01*
X13227050Y-8027650D02*
X13315950Y-8027650D01*
X13271500Y-8402300D02*
X13271500Y-8491200D01*
X13227050Y-8446750D02*
X13315950Y-8446750D01*
X13271500Y-9164300D02*
X13271500Y-9253200D01*
X13227050Y-9208750D02*
X13315950Y-9208750D01*
X13525500Y-7221200D02*
X13525500Y-7310100D01*
X13481050Y-7265650D02*
X13569950Y-7265650D01*
X13525500Y-7983200D02*
X13525500Y-8072100D01*
X13481050Y-8027650D02*
X13569950Y-8027650D01*
X13525500Y-8402300D02*
X13525500Y-8491200D01*
X13481050Y-8446750D02*
X13569950Y-8446750D01*
X13525500Y-9164300D02*
X13525500Y-9253200D01*
X13481050Y-9208750D02*
X13569950Y-9208750D01*
D13*
X2322938Y-2932538D02*
X2322938Y-2706262D01*
X2096662Y-2706262D01*
X2096662Y-2932538D01*
X2322938Y-2932538D01*
X9741502Y-16635838D02*
X9741502Y-16409562D01*
X9515226Y-16409562D01*
X9515226Y-16635838D01*
X9741502Y-16635838D01*
X17156538Y-2932538D02*
X17156538Y-2706262D01*
X16930262Y-2706262D01*
X16930262Y-2932538D01*
X17156538Y-2932538D01*
D12*
X11557000Y-8775680D02*
X11606530Y-8726150D01*
X11557000Y-8676620D01*
X11507470Y-8726150D01*
X11557000Y-8775680D01*
X11557000Y-8978880D02*
X11606530Y-8929350D01*
X11557000Y-8879820D01*
X11507470Y-8929350D01*
X11557000Y-8978880D01*
X12065000Y-8877280D02*
X12114530Y-8827750D01*
X12065000Y-8778220D01*
X12015470Y-8827750D01*
X12065000Y-8877280D01*
D11*
X1833077Y-20075184D02*
X1833077Y-19875184D01*
X1833077Y-19875184D02*
X1880696Y-19875184D01*
X1880696Y-19875184D02*
X1909267Y-19884708D01*
X1909267Y-19884708D02*
X1928315Y-19903755D01*
X1928315Y-19903755D02*
X1937839Y-19922803D01*
X1937839Y-19922803D02*
X1947362Y-19960898D01*
X1947362Y-19960898D02*
X1947362Y-19989470D01*
X1947362Y-19989470D02*
X1937839Y-20027565D01*
X1937839Y-20027565D02*
X1928315Y-20046612D01*
X1928315Y-20046612D02*
X1909267Y-20065660D01*
X1909267Y-20065660D02*
X1880696Y-20075184D01*
X1880696Y-20075184D02*
X1833077Y-20075184D01*
X2033077Y-20075184D02*
X2033077Y-19941850D01*
X2033077Y-19979946D02*
X2042601Y-19960898D01*
X2042601Y-19960898D02*
X2052124Y-19951374D01*
X2052124Y-19951374D02*
X2071172Y-19941850D01*
X2071172Y-19941850D02*
X2090220Y-19941850D01*
X2156886Y-20075184D02*
X2156886Y-19941850D01*
X2156886Y-19875184D02*
X2147363Y-19884708D01*
X2147363Y-19884708D02*
X2156886Y-19894231D01*
X2156886Y-19894231D02*
X2166410Y-19884708D01*
X2166410Y-19884708D02*
X2156886Y-19875184D01*
X2156886Y-19875184D02*
X2156886Y-19894231D01*
X2280696Y-20075184D02*
X2261648Y-20065660D01*
X2261648Y-20065660D02*
X2252124Y-20046612D01*
X2252124Y-20046612D02*
X2252124Y-19875184D01*
X2385458Y-20075184D02*
X2366410Y-20065660D01*
X2366410Y-20065660D02*
X2356886Y-20046612D01*
X2356886Y-20046612D02*
X2356886Y-19875184D01*
X2614029Y-20075184D02*
X2614029Y-19875184D01*
X2614029Y-19875184D02*
X2680696Y-20018041D01*
X2680696Y-20018041D02*
X2747363Y-19875184D01*
X2747363Y-19875184D02*
X2747363Y-20075184D01*
X2928315Y-20075184D02*
X2928315Y-19970422D01*
X2928315Y-19970422D02*
X2918791Y-19951374D01*
X2918791Y-19951374D02*
X2899743Y-19941850D01*
X2899743Y-19941850D02*
X2861648Y-19941850D01*
X2861648Y-19941850D02*
X2842601Y-19951374D01*
X2928315Y-20065660D02*
X2909267Y-20075184D01*
X2909267Y-20075184D02*
X2861648Y-20075184D01*
X2861648Y-20075184D02*
X2842601Y-20065660D01*
X2842601Y-20065660D02*
X2833077Y-20046612D01*
X2833077Y-20046612D02*
X2833077Y-20027565D01*
X2833077Y-20027565D02*
X2842601Y-20008517D01*
X2842601Y-20008517D02*
X2861648Y-19998993D01*
X2861648Y-19998993D02*
X2909267Y-19998993D01*
X2909267Y-19998993D02*
X2928315Y-19989470D01*
X3023553Y-19941850D02*
X3023553Y-20141850D01*
X3023553Y-19951374D02*
X3042601Y-19941850D01*
X3042601Y-19941850D02*
X3080696Y-19941850D01*
X3080696Y-19941850D02*
X3099743Y-19951374D01*
X3099743Y-19951374D02*
X3109267Y-19960898D01*
X3109267Y-19960898D02*
X3118791Y-19979946D01*
X3118791Y-19979946D02*
X3118791Y-20037089D01*
X3118791Y-20037089D02*
X3109267Y-20056136D01*
X3109267Y-20056136D02*
X3099743Y-20065660D01*
X3099743Y-20065660D02*
X3080696Y-20075184D01*
X3080696Y-20075184D02*
X3042601Y-20075184D01*
X3042601Y-20075184D02*
X3023553Y-20065660D01*
X3204505Y-20056136D02*
X3214029Y-20065660D01*
X3214029Y-20065660D02*
X3204505Y-20075184D01*
X3204505Y-20075184D02*
X3194982Y-20065660D01*
X3194982Y-20065660D02*
X3204505Y-20056136D01*
X3204505Y-20056136D02*
X3204505Y-20075184D01*
X3204505Y-19951374D02*
X3214029Y-19960898D01*
X3214029Y-19960898D02*
X3204505Y-19970422D01*
X3204505Y-19970422D02*
X3194982Y-19960898D01*
X3194982Y-19960898D02*
X3204505Y-19951374D01*
X3204505Y-19951374D02*
X3204505Y-19970422D01*
D12*
X1541820Y-20388460D02*
X1572300Y-20418940D01*
X1572300Y-20388460D02*
X1541820Y-20418940D01*
D11*
X1871172Y-20295184D02*
X1890220Y-20295184D01*
X1890220Y-20295184D02*
X1909267Y-20304708D01*
X1909267Y-20304708D02*
X1918791Y-20314231D01*
X1918791Y-20314231D02*
X1928315Y-20333279D01*
X1928315Y-20333279D02*
X1937839Y-20371374D01*
X1937839Y-20371374D02*
X1937839Y-20418993D01*
X1937839Y-20418993D02*
X1928315Y-20457089D01*
X1928315Y-20457089D02*
X1918791Y-20476136D01*
X1918791Y-20476136D02*
X1909267Y-20485660D01*
X1909267Y-20485660D02*
X1890220Y-20495184D01*
X1890220Y-20495184D02*
X1871172Y-20495184D01*
X1871172Y-20495184D02*
X1852124Y-20485660D01*
X1852124Y-20485660D02*
X1842601Y-20476136D01*
X1842601Y-20476136D02*
X1833077Y-20457089D01*
X1833077Y-20457089D02*
X1823553Y-20418993D01*
X1823553Y-20418993D02*
X1823553Y-20371374D01*
X1823553Y-20371374D02*
X1833077Y-20333279D01*
X1833077Y-20333279D02*
X1842601Y-20314231D01*
X1842601Y-20314231D02*
X1852124Y-20304708D01*
X1852124Y-20304708D02*
X1871172Y-20295184D01*
X2023553Y-20476136D02*
X2033077Y-20485660D01*
X2033077Y-20485660D02*
X2023553Y-20495184D01*
X2023553Y-20495184D02*
X2014029Y-20485660D01*
X2014029Y-20485660D02*
X2023553Y-20476136D01*
X2023553Y-20476136D02*
X2023553Y-20495184D01*
X2099744Y-20295184D02*
X2223553Y-20295184D01*
X2223553Y-20295184D02*
X2156886Y-20371374D01*
X2156886Y-20371374D02*
X2185458Y-20371374D01*
X2185458Y-20371374D02*
X2204505Y-20380898D01*
X2204505Y-20380898D02*
X2214029Y-20390422D01*
X2214029Y-20390422D02*
X2223553Y-20409470D01*
X2223553Y-20409470D02*
X2223553Y-20457089D01*
X2223553Y-20457089D02*
X2214029Y-20476136D01*
X2214029Y-20476136D02*
X2204505Y-20485660D01*
X2204505Y-20485660D02*
X2185458Y-20495184D01*
X2185458Y-20495184D02*
X2128315Y-20495184D01*
X2128315Y-20495184D02*
X2109267Y-20485660D01*
X2109267Y-20485660D02*
X2099744Y-20476136D01*
X2347363Y-20295184D02*
X2366410Y-20295184D01*
X2366410Y-20295184D02*
X2385458Y-20304708D01*
X2385458Y-20304708D02*
X2394982Y-20314231D01*
X2394982Y-20314231D02*
X2404505Y-20333279D01*
X2404505Y-20333279D02*
X2414029Y-20371374D01*
X2414029Y-20371374D02*
X2414029Y-20418993D01*
X2414029Y-20418993D02*
X2404505Y-20457089D01*
X2404505Y-20457089D02*
X2394982Y-20476136D01*
X2394982Y-20476136D02*
X2385458Y-20485660D01*
X2385458Y-20485660D02*
X2366410Y-20495184D01*
X2366410Y-20495184D02*
X2347363Y-20495184D01*
X2347363Y-20495184D02*
X2328315Y-20485660D01*
X2328315Y-20485660D02*
X2318791Y-20476136D01*
X2318791Y-20476136D02*
X2309267Y-20457089D01*
X2309267Y-20457089D02*
X2299744Y-20418993D01*
X2299744Y-20418993D02*
X2299744Y-20371374D01*
X2299744Y-20371374D02*
X2309267Y-20333279D01*
X2309267Y-20333279D02*
X2318791Y-20314231D01*
X2318791Y-20314231D02*
X2328315Y-20304708D01*
X2328315Y-20304708D02*
X2347363Y-20295184D01*
X2594982Y-20295184D02*
X2499744Y-20295184D01*
X2499744Y-20295184D02*
X2490220Y-20390422D01*
X2490220Y-20390422D02*
X2499744Y-20380898D01*
X2499744Y-20380898D02*
X2518791Y-20371374D01*
X2518791Y-20371374D02*
X2566410Y-20371374D01*
X2566410Y-20371374D02*
X2585458Y-20380898D01*
X2585458Y-20380898D02*
X2594982Y-20390422D01*
X2594982Y-20390422D02*
X2604505Y-20409470D01*
X2604505Y-20409470D02*
X2604505Y-20457089D01*
X2604505Y-20457089D02*
X2594982Y-20476136D01*
X2594982Y-20476136D02*
X2585458Y-20485660D01*
X2585458Y-20485660D02*
X2566410Y-20495184D01*
X2566410Y-20495184D02*
X2518791Y-20495184D01*
X2518791Y-20495184D02*
X2499744Y-20485660D01*
X2499744Y-20485660D02*
X2490220Y-20476136D01*
X2690220Y-20495184D02*
X2690220Y-20361850D01*
X2690220Y-20380898D02*
X2699744Y-20371374D01*
X2699744Y-20371374D02*
X2718791Y-20361850D01*
X2718791Y-20361850D02*
X2747363Y-20361850D01*
X2747363Y-20361850D02*
X2766410Y-20371374D01*
X2766410Y-20371374D02*
X2775934Y-20390422D01*
X2775934Y-20390422D02*
X2775934Y-20495184D01*
X2775934Y-20390422D02*
X2785458Y-20371374D01*
X2785458Y-20371374D02*
X2804505Y-20361850D01*
X2804505Y-20361850D02*
X2833077Y-20361850D01*
X2833077Y-20361850D02*
X2852124Y-20371374D01*
X2852124Y-20371374D02*
X2861648Y-20390422D01*
X2861648Y-20390422D02*
X2861648Y-20495184D01*
X2956886Y-20495184D02*
X2956886Y-20361850D01*
X2956886Y-20380898D02*
X2966410Y-20371374D01*
X2966410Y-20371374D02*
X2985458Y-20361850D01*
X2985458Y-20361850D02*
X3014029Y-20361850D01*
X3014029Y-20361850D02*
X3033077Y-20371374D01*
X3033077Y-20371374D02*
X3042601Y-20390422D01*
X3042601Y-20390422D02*
X3042601Y-20495184D01*
X3042601Y-20390422D02*
X3052124Y-20371374D01*
X3052124Y-20371374D02*
X3071172Y-20361850D01*
X3071172Y-20361850D02*
X3099743Y-20361850D01*
X3099743Y-20361850D02*
X3118791Y-20371374D01*
X3118791Y-20371374D02*
X3128315Y-20390422D01*
X3128315Y-20390422D02*
X3128315Y-20495184D01*
X3518791Y-20285660D02*
X3347363Y-20542803D01*
X3775934Y-20295184D02*
X3794982Y-20295184D01*
X3794982Y-20295184D02*
X3814029Y-20304708D01*
X3814029Y-20304708D02*
X3823553Y-20314231D01*
X3823553Y-20314231D02*
X3833077Y-20333279D01*
X3833077Y-20333279D02*
X3842601Y-20371374D01*
X3842601Y-20371374D02*
X3842601Y-20418993D01*
X3842601Y-20418993D02*
X3833077Y-20457089D01*
X3833077Y-20457089D02*
X3823553Y-20476136D01*
X3823553Y-20476136D02*
X3814029Y-20485660D01*
X3814029Y-20485660D02*
X3794982Y-20495184D01*
X3794982Y-20495184D02*
X3775934Y-20495184D01*
X3775934Y-20495184D02*
X3756886Y-20485660D01*
X3756886Y-20485660D02*
X3747363Y-20476136D01*
X3747363Y-20476136D02*
X3737839Y-20457089D01*
X3737839Y-20457089D02*
X3728315Y-20418993D01*
X3728315Y-20418993D02*
X3728315Y-20371374D01*
X3728315Y-20371374D02*
X3737839Y-20333279D01*
X3737839Y-20333279D02*
X3747363Y-20314231D01*
X3747363Y-20314231D02*
X3756886Y-20304708D01*
X3756886Y-20304708D02*
X3775934Y-20295184D01*
X3928315Y-20476136D02*
X3937839Y-20485660D01*
X3937839Y-20485660D02*
X3928315Y-20495184D01*
X3928315Y-20495184D02*
X3918791Y-20485660D01*
X3918791Y-20485660D02*
X3928315Y-20476136D01*
X3928315Y-20476136D02*
X3928315Y-20495184D01*
X4061648Y-20295184D02*
X4080696Y-20295184D01*
X4080696Y-20295184D02*
X4099744Y-20304708D01*
X4099744Y-20304708D02*
X4109267Y-20314231D01*
X4109267Y-20314231D02*
X4118791Y-20333279D01*
X4118791Y-20333279D02*
X4128315Y-20371374D01*
X4128315Y-20371374D02*
X4128315Y-20418993D01*
X4128315Y-20418993D02*
X4118791Y-20457089D01*
X4118791Y-20457089D02*
X4109267Y-20476136D01*
X4109267Y-20476136D02*
X4099744Y-20485660D01*
X4099744Y-20485660D02*
X4080696Y-20495184D01*
X4080696Y-20495184D02*
X4061648Y-20495184D01*
X4061648Y-20495184D02*
X4042601Y-20485660D01*
X4042601Y-20485660D02*
X4033077Y-20476136D01*
X4033077Y-20476136D02*
X4023553Y-20457089D01*
X4023553Y-20457089D02*
X4014029Y-20418993D01*
X4014029Y-20418993D02*
X4014029Y-20371374D01*
X4014029Y-20371374D02*
X4023553Y-20333279D01*
X4023553Y-20333279D02*
X4033077Y-20314231D01*
X4033077Y-20314231D02*
X4042601Y-20304708D01*
X4042601Y-20304708D02*
X4061648Y-20295184D01*
X4318791Y-20495184D02*
X4204506Y-20495184D01*
X4261648Y-20495184D02*
X4261648Y-20295184D01*
X4261648Y-20295184D02*
X4242601Y-20323755D01*
X4242601Y-20323755D02*
X4223553Y-20342803D01*
X4223553Y-20342803D02*
X4204506Y-20352327D01*
X4394982Y-20314231D02*
X4404506Y-20304708D01*
X4404506Y-20304708D02*
X4423553Y-20295184D01*
X4423553Y-20295184D02*
X4471172Y-20295184D01*
X4471172Y-20295184D02*
X4490220Y-20304708D01*
X4490220Y-20304708D02*
X4499744Y-20314231D01*
X4499744Y-20314231D02*
X4509268Y-20333279D01*
X4509268Y-20333279D02*
X4509268Y-20352327D01*
X4509268Y-20352327D02*
X4499744Y-20380898D01*
X4499744Y-20380898D02*
X4385458Y-20495184D01*
X4385458Y-20495184D02*
X4509268Y-20495184D01*
X4633077Y-20295184D02*
X4652125Y-20295184D01*
X4652125Y-20295184D02*
X4671172Y-20304708D01*
X4671172Y-20304708D02*
X4680696Y-20314231D01*
X4680696Y-20314231D02*
X4690220Y-20333279D01*
X4690220Y-20333279D02*
X4699744Y-20371374D01*
X4699744Y-20371374D02*
X4699744Y-20418993D01*
X4699744Y-20418993D02*
X4690220Y-20457089D01*
X4690220Y-20457089D02*
X4680696Y-20476136D01*
X4680696Y-20476136D02*
X4671172Y-20485660D01*
X4671172Y-20485660D02*
X4652125Y-20495184D01*
X4652125Y-20495184D02*
X4633077Y-20495184D01*
X4633077Y-20495184D02*
X4614029Y-20485660D01*
X4614029Y-20485660D02*
X4604506Y-20476136D01*
X4604506Y-20476136D02*
X4594982Y-20457089D01*
X4594982Y-20457089D02*
X4585458Y-20418993D01*
X4585458Y-20418993D02*
X4585458Y-20371374D01*
X4585458Y-20371374D02*
X4594982Y-20333279D01*
X4594982Y-20333279D02*
X4604506Y-20314231D01*
X4604506Y-20314231D02*
X4614029Y-20304708D01*
X4614029Y-20304708D02*
X4633077Y-20295184D01*
X4775934Y-20295184D02*
X4775934Y-20333279D01*
X4852125Y-20295184D02*
X4852125Y-20333279D01*
X5147363Y-20571374D02*
X5137839Y-20561850D01*
X5137839Y-20561850D02*
X5118791Y-20533279D01*
X5118791Y-20533279D02*
X5109268Y-20514231D01*
X5109268Y-20514231D02*
X5099744Y-20485660D01*
X5099744Y-20485660D02*
X5090220Y-20438041D01*
X5090220Y-20438041D02*
X5090220Y-20399946D01*
X5090220Y-20399946D02*
X5099744Y-20352327D01*
X5099744Y-20352327D02*
X5109268Y-20323755D01*
X5109268Y-20323755D02*
X5118791Y-20304708D01*
X5118791Y-20304708D02*
X5137839Y-20276136D01*
X5137839Y-20276136D02*
X5147363Y-20266612D01*
X5309268Y-20361850D02*
X5309268Y-20495184D01*
X5261649Y-20285660D02*
X5214030Y-20428517D01*
X5214030Y-20428517D02*
X5337839Y-20428517D01*
X5518791Y-20495184D02*
X5404506Y-20495184D01*
X5461649Y-20495184D02*
X5461649Y-20295184D01*
X5461649Y-20295184D02*
X5442601Y-20323755D01*
X5442601Y-20323755D02*
X5423553Y-20342803D01*
X5423553Y-20342803D02*
X5404506Y-20352327D01*
X5709268Y-20495184D02*
X5594982Y-20495184D01*
X5652125Y-20495184D02*
X5652125Y-20295184D01*
X5652125Y-20295184D02*
X5633077Y-20323755D01*
X5633077Y-20323755D02*
X5614029Y-20342803D01*
X5614029Y-20342803D02*
X5594982Y-20352327D01*
X5947363Y-20495184D02*
X5947363Y-20295184D01*
X6033077Y-20495184D02*
X6033077Y-20390422D01*
X6033077Y-20390422D02*
X6023553Y-20371374D01*
X6023553Y-20371374D02*
X6004506Y-20361850D01*
X6004506Y-20361850D02*
X5975934Y-20361850D01*
X5975934Y-20361850D02*
X5956887Y-20371374D01*
X5956887Y-20371374D02*
X5947363Y-20380898D01*
X6156887Y-20495184D02*
X6137839Y-20485660D01*
X6137839Y-20485660D02*
X6128315Y-20476136D01*
X6128315Y-20476136D02*
X6118791Y-20457089D01*
X6118791Y-20457089D02*
X6118791Y-20399946D01*
X6118791Y-20399946D02*
X6128315Y-20380898D01*
X6128315Y-20380898D02*
X6137839Y-20371374D01*
X6137839Y-20371374D02*
X6156887Y-20361850D01*
X6156887Y-20361850D02*
X6185458Y-20361850D01*
X6185458Y-20361850D02*
X6204506Y-20371374D01*
X6204506Y-20371374D02*
X6214030Y-20380898D01*
X6214030Y-20380898D02*
X6223553Y-20399946D01*
X6223553Y-20399946D02*
X6223553Y-20457089D01*
X6223553Y-20457089D02*
X6214030Y-20476136D01*
X6214030Y-20476136D02*
X6204506Y-20485660D01*
X6204506Y-20485660D02*
X6185458Y-20495184D01*
X6185458Y-20495184D02*
X6156887Y-20495184D01*
X6337839Y-20495184D02*
X6318791Y-20485660D01*
X6318791Y-20485660D02*
X6309268Y-20466612D01*
X6309268Y-20466612D02*
X6309268Y-20295184D01*
X6490220Y-20485660D02*
X6471172Y-20495184D01*
X6471172Y-20495184D02*
X6433077Y-20495184D01*
X6433077Y-20495184D02*
X6414030Y-20485660D01*
X6414030Y-20485660D02*
X6404506Y-20466612D01*
X6404506Y-20466612D02*
X6404506Y-20390422D01*
X6404506Y-20390422D02*
X6414030Y-20371374D01*
X6414030Y-20371374D02*
X6433077Y-20361850D01*
X6433077Y-20361850D02*
X6471172Y-20361850D01*
X6471172Y-20361850D02*
X6490220Y-20371374D01*
X6490220Y-20371374D02*
X6499744Y-20390422D01*
X6499744Y-20390422D02*
X6499744Y-20409470D01*
X6499744Y-20409470D02*
X6404506Y-20428517D01*
X6575934Y-20485660D02*
X6594982Y-20495184D01*
X6594982Y-20495184D02*
X6633077Y-20495184D01*
X6633077Y-20495184D02*
X6652125Y-20485660D01*
X6652125Y-20485660D02*
X6661649Y-20466612D01*
X6661649Y-20466612D02*
X6661649Y-20457089D01*
X6661649Y-20457089D02*
X6652125Y-20438041D01*
X6652125Y-20438041D02*
X6633077Y-20428517D01*
X6633077Y-20428517D02*
X6604506Y-20428517D01*
X6604506Y-20428517D02*
X6585458Y-20418993D01*
X6585458Y-20418993D02*
X6575934Y-20399946D01*
X6575934Y-20399946D02*
X6575934Y-20390422D01*
X6575934Y-20390422D02*
X6585458Y-20371374D01*
X6585458Y-20371374D02*
X6604506Y-20361850D01*
X6604506Y-20361850D02*
X6633077Y-20361850D01*
X6633077Y-20361850D02*
X6652125Y-20371374D01*
X6728315Y-20571374D02*
X6737839Y-20561850D01*
X6737839Y-20561850D02*
X6756887Y-20533279D01*
X6756887Y-20533279D02*
X6766411Y-20514231D01*
X6766411Y-20514231D02*
X6775934Y-20485660D01*
X6775934Y-20485660D02*
X6785458Y-20438041D01*
X6785458Y-20438041D02*
X6785458Y-20399946D01*
X6785458Y-20399946D02*
X6775934Y-20352327D01*
X6775934Y-20352327D02*
X6766411Y-20323755D01*
X6766411Y-20323755D02*
X6756887Y-20304708D01*
X6756887Y-20304708D02*
X6737839Y-20276136D01*
X6737839Y-20276136D02*
X6728315Y-20266612D01*
D12*
X1572300Y-20667700D02*
G75*
G02*
X1496100Y-20667700I-38100J0D01*
G01*
X1496100Y-20667700D02*
G75*
G02*
X1572300Y-20667700I38100J0D01*
G01*
D11*
X1871172Y-20559184D02*
X1890220Y-20559184D01*
X1890220Y-20559184D02*
X1909267Y-20568708D01*
X1909267Y-20568708D02*
X1918791Y-20578231D01*
X1918791Y-20578231D02*
X1928315Y-20597279D01*
X1928315Y-20597279D02*
X1937839Y-20635374D01*
X1937839Y-20635374D02*
X1937839Y-20682993D01*
X1937839Y-20682993D02*
X1928315Y-20721089D01*
X1928315Y-20721089D02*
X1918791Y-20740136D01*
X1918791Y-20740136D02*
X1909267Y-20749660D01*
X1909267Y-20749660D02*
X1890220Y-20759184D01*
X1890220Y-20759184D02*
X1871172Y-20759184D01*
X1871172Y-20759184D02*
X1852124Y-20749660D01*
X1852124Y-20749660D02*
X1842601Y-20740136D01*
X1842601Y-20740136D02*
X1833077Y-20721089D01*
X1833077Y-20721089D02*
X1823553Y-20682993D01*
X1823553Y-20682993D02*
X1823553Y-20635374D01*
X1823553Y-20635374D02*
X1833077Y-20597279D01*
X1833077Y-20597279D02*
X1842601Y-20578231D01*
X1842601Y-20578231D02*
X1852124Y-20568708D01*
X1852124Y-20568708D02*
X1871172Y-20559184D01*
X2023553Y-20740136D02*
X2033077Y-20749660D01*
X2033077Y-20749660D02*
X2023553Y-20759184D01*
X2023553Y-20759184D02*
X2014029Y-20749660D01*
X2014029Y-20749660D02*
X2023553Y-20740136D01*
X2023553Y-20740136D02*
X2023553Y-20759184D01*
X2099744Y-20559184D02*
X2233077Y-20559184D01*
X2233077Y-20559184D02*
X2147363Y-20759184D01*
X2394982Y-20559184D02*
X2356886Y-20559184D01*
X2356886Y-20559184D02*
X2337839Y-20568708D01*
X2337839Y-20568708D02*
X2328315Y-20578231D01*
X2328315Y-20578231D02*
X2309267Y-20606803D01*
X2309267Y-20606803D02*
X2299744Y-20644898D01*
X2299744Y-20644898D02*
X2299744Y-20721089D01*
X2299744Y-20721089D02*
X2309267Y-20740136D01*
X2309267Y-20740136D02*
X2318791Y-20749660D01*
X2318791Y-20749660D02*
X2337839Y-20759184D01*
X2337839Y-20759184D02*
X2375934Y-20759184D01*
X2375934Y-20759184D02*
X2394982Y-20749660D01*
X2394982Y-20749660D02*
X2404505Y-20740136D01*
X2404505Y-20740136D02*
X2414029Y-20721089D01*
X2414029Y-20721089D02*
X2414029Y-20673470D01*
X2414029Y-20673470D02*
X2404505Y-20654422D01*
X2404505Y-20654422D02*
X2394982Y-20644898D01*
X2394982Y-20644898D02*
X2375934Y-20635374D01*
X2375934Y-20635374D02*
X2337839Y-20635374D01*
X2337839Y-20635374D02*
X2318791Y-20644898D01*
X2318791Y-20644898D02*
X2309267Y-20654422D01*
X2309267Y-20654422D02*
X2299744Y-20673470D01*
X2490220Y-20578231D02*
X2499744Y-20568708D01*
X2499744Y-20568708D02*
X2518791Y-20559184D01*
X2518791Y-20559184D02*
X2566410Y-20559184D01*
X2566410Y-20559184D02*
X2585458Y-20568708D01*
X2585458Y-20568708D02*
X2594982Y-20578231D01*
X2594982Y-20578231D02*
X2604505Y-20597279D01*
X2604505Y-20597279D02*
X2604505Y-20616327D01*
X2604505Y-20616327D02*
X2594982Y-20644898D01*
X2594982Y-20644898D02*
X2480696Y-20759184D01*
X2480696Y-20759184D02*
X2604505Y-20759184D01*
X2690220Y-20759184D02*
X2690220Y-20625850D01*
X2690220Y-20644898D02*
X2699744Y-20635374D01*
X2699744Y-20635374D02*
X2718791Y-20625850D01*
X2718791Y-20625850D02*
X2747363Y-20625850D01*
X2747363Y-20625850D02*
X2766410Y-20635374D01*
X2766410Y-20635374D02*
X2775934Y-20654422D01*
X2775934Y-20654422D02*
X2775934Y-20759184D01*
X2775934Y-20654422D02*
X2785458Y-20635374D01*
X2785458Y-20635374D02*
X2804505Y-20625850D01*
X2804505Y-20625850D02*
X2833077Y-20625850D01*
X2833077Y-20625850D02*
X2852124Y-20635374D01*
X2852124Y-20635374D02*
X2861648Y-20654422D01*
X2861648Y-20654422D02*
X2861648Y-20759184D01*
X2956886Y-20759184D02*
X2956886Y-20625850D01*
X2956886Y-20644898D02*
X2966410Y-20635374D01*
X2966410Y-20635374D02*
X2985458Y-20625850D01*
X2985458Y-20625850D02*
X3014029Y-20625850D01*
X3014029Y-20625850D02*
X3033077Y-20635374D01*
X3033077Y-20635374D02*
X3042601Y-20654422D01*
X3042601Y-20654422D02*
X3042601Y-20759184D01*
X3042601Y-20654422D02*
X3052124Y-20635374D01*
X3052124Y-20635374D02*
X3071172Y-20625850D01*
X3071172Y-20625850D02*
X3099743Y-20625850D01*
X3099743Y-20625850D02*
X3118791Y-20635374D01*
X3118791Y-20635374D02*
X3128315Y-20654422D01*
X3128315Y-20654422D02*
X3128315Y-20759184D01*
X3518791Y-20549660D02*
X3347363Y-20806803D01*
X3775934Y-20559184D02*
X3794982Y-20559184D01*
X3794982Y-20559184D02*
X3814029Y-20568708D01*
X3814029Y-20568708D02*
X3823553Y-20578231D01*
X3823553Y-20578231D02*
X3833077Y-20597279D01*
X3833077Y-20597279D02*
X3842601Y-20635374D01*
X3842601Y-20635374D02*
X3842601Y-20682993D01*
X3842601Y-20682993D02*
X3833077Y-20721089D01*
X3833077Y-20721089D02*
X3823553Y-20740136D01*
X3823553Y-20740136D02*
X3814029Y-20749660D01*
X3814029Y-20749660D02*
X3794982Y-20759184D01*
X3794982Y-20759184D02*
X3775934Y-20759184D01*
X3775934Y-20759184D02*
X3756886Y-20749660D01*
X3756886Y-20749660D02*
X3747363Y-20740136D01*
X3747363Y-20740136D02*
X3737839Y-20721089D01*
X3737839Y-20721089D02*
X3728315Y-20682993D01*
X3728315Y-20682993D02*
X3728315Y-20635374D01*
X3728315Y-20635374D02*
X3737839Y-20597279D01*
X3737839Y-20597279D02*
X3747363Y-20578231D01*
X3747363Y-20578231D02*
X3756886Y-20568708D01*
X3756886Y-20568708D02*
X3775934Y-20559184D01*
X3928315Y-20740136D02*
X3937839Y-20749660D01*
X3937839Y-20749660D02*
X3928315Y-20759184D01*
X3928315Y-20759184D02*
X3918791Y-20749660D01*
X3918791Y-20749660D02*
X3928315Y-20740136D01*
X3928315Y-20740136D02*
X3928315Y-20759184D01*
X4061648Y-20559184D02*
X4080696Y-20559184D01*
X4080696Y-20559184D02*
X4099744Y-20568708D01*
X4099744Y-20568708D02*
X4109267Y-20578231D01*
X4109267Y-20578231D02*
X4118791Y-20597279D01*
X4118791Y-20597279D02*
X4128315Y-20635374D01*
X4128315Y-20635374D02*
X4128315Y-20682993D01*
X4128315Y-20682993D02*
X4118791Y-20721089D01*
X4118791Y-20721089D02*
X4109267Y-20740136D01*
X4109267Y-20740136D02*
X4099744Y-20749660D01*
X4099744Y-20749660D02*
X4080696Y-20759184D01*
X4080696Y-20759184D02*
X4061648Y-20759184D01*
X4061648Y-20759184D02*
X4042601Y-20749660D01*
X4042601Y-20749660D02*
X4033077Y-20740136D01*
X4033077Y-20740136D02*
X4023553Y-20721089D01*
X4023553Y-20721089D02*
X4014029Y-20682993D01*
X4014029Y-20682993D02*
X4014029Y-20635374D01*
X4014029Y-20635374D02*
X4023553Y-20597279D01*
X4023553Y-20597279D02*
X4033077Y-20578231D01*
X4033077Y-20578231D02*
X4042601Y-20568708D01*
X4042601Y-20568708D02*
X4061648Y-20559184D01*
X4194982Y-20559184D02*
X4318791Y-20559184D01*
X4318791Y-20559184D02*
X4252125Y-20635374D01*
X4252125Y-20635374D02*
X4280696Y-20635374D01*
X4280696Y-20635374D02*
X4299744Y-20644898D01*
X4299744Y-20644898D02*
X4309268Y-20654422D01*
X4309268Y-20654422D02*
X4318791Y-20673470D01*
X4318791Y-20673470D02*
X4318791Y-20721089D01*
X4318791Y-20721089D02*
X4309268Y-20740136D01*
X4309268Y-20740136D02*
X4299744Y-20749660D01*
X4299744Y-20749660D02*
X4280696Y-20759184D01*
X4280696Y-20759184D02*
X4223553Y-20759184D01*
X4223553Y-20759184D02*
X4204506Y-20749660D01*
X4204506Y-20749660D02*
X4194982Y-20740136D01*
X4442601Y-20559184D02*
X4461649Y-20559184D01*
X4461649Y-20559184D02*
X4480696Y-20568708D01*
X4480696Y-20568708D02*
X4490220Y-20578231D01*
X4490220Y-20578231D02*
X4499744Y-20597279D01*
X4499744Y-20597279D02*
X4509268Y-20635374D01*
X4509268Y-20635374D02*
X4509268Y-20682993D01*
X4509268Y-20682993D02*
X4499744Y-20721089D01*
X4499744Y-20721089D02*
X4490220Y-20740136D01*
X4490220Y-20740136D02*
X4480696Y-20749660D01*
X4480696Y-20749660D02*
X4461649Y-20759184D01*
X4461649Y-20759184D02*
X4442601Y-20759184D01*
X4442601Y-20759184D02*
X4423553Y-20749660D01*
X4423553Y-20749660D02*
X4414029Y-20740136D01*
X4414029Y-20740136D02*
X4404506Y-20721089D01*
X4404506Y-20721089D02*
X4394982Y-20682993D01*
X4394982Y-20682993D02*
X4394982Y-20635374D01*
X4394982Y-20635374D02*
X4404506Y-20597279D01*
X4404506Y-20597279D02*
X4414029Y-20578231D01*
X4414029Y-20578231D02*
X4423553Y-20568708D01*
X4423553Y-20568708D02*
X4442601Y-20559184D01*
X4633077Y-20559184D02*
X4652125Y-20559184D01*
X4652125Y-20559184D02*
X4671172Y-20568708D01*
X4671172Y-20568708D02*
X4680696Y-20578231D01*
X4680696Y-20578231D02*
X4690220Y-20597279D01*
X4690220Y-20597279D02*
X4699744Y-20635374D01*
X4699744Y-20635374D02*
X4699744Y-20682993D01*
X4699744Y-20682993D02*
X4690220Y-20721089D01*
X4690220Y-20721089D02*
X4680696Y-20740136D01*
X4680696Y-20740136D02*
X4671172Y-20749660D01*
X4671172Y-20749660D02*
X4652125Y-20759184D01*
X4652125Y-20759184D02*
X4633077Y-20759184D01*
X4633077Y-20759184D02*
X4614029Y-20749660D01*
X4614029Y-20749660D02*
X4604506Y-20740136D01*
X4604506Y-20740136D02*
X4594982Y-20721089D01*
X4594982Y-20721089D02*
X4585458Y-20682993D01*
X4585458Y-20682993D02*
X4585458Y-20635374D01*
X4585458Y-20635374D02*
X4594982Y-20597279D01*
X4594982Y-20597279D02*
X4604506Y-20578231D01*
X4604506Y-20578231D02*
X4614029Y-20568708D01*
X4614029Y-20568708D02*
X4633077Y-20559184D01*
X4775934Y-20559184D02*
X4775934Y-20597279D01*
X4852125Y-20559184D02*
X4852125Y-20597279D01*
X5147363Y-20835374D02*
X5137839Y-20825850D01*
X5137839Y-20825850D02*
X5118791Y-20797279D01*
X5118791Y-20797279D02*
X5109268Y-20778231D01*
X5109268Y-20778231D02*
X5099744Y-20749660D01*
X5099744Y-20749660D02*
X5090220Y-20702041D01*
X5090220Y-20702041D02*
X5090220Y-20663946D01*
X5090220Y-20663946D02*
X5099744Y-20616327D01*
X5099744Y-20616327D02*
X5109268Y-20587755D01*
X5109268Y-20587755D02*
X5118791Y-20568708D01*
X5118791Y-20568708D02*
X5137839Y-20540136D01*
X5137839Y-20540136D02*
X5147363Y-20530612D01*
X5214030Y-20578231D02*
X5223553Y-20568708D01*
X5223553Y-20568708D02*
X5242601Y-20559184D01*
X5242601Y-20559184D02*
X5290220Y-20559184D01*
X5290220Y-20559184D02*
X5309268Y-20568708D01*
X5309268Y-20568708D02*
X5318791Y-20578231D01*
X5318791Y-20578231D02*
X5328315Y-20597279D01*
X5328315Y-20597279D02*
X5328315Y-20616327D01*
X5328315Y-20616327D02*
X5318791Y-20644898D01*
X5318791Y-20644898D02*
X5204506Y-20759184D01*
X5204506Y-20759184D02*
X5328315Y-20759184D01*
X5499744Y-20559184D02*
X5461649Y-20559184D01*
X5461649Y-20559184D02*
X5442601Y-20568708D01*
X5442601Y-20568708D02*
X5433077Y-20578231D01*
X5433077Y-20578231D02*
X5414030Y-20606803D01*
X5414030Y-20606803D02*
X5404506Y-20644898D01*
X5404506Y-20644898D02*
X5404506Y-20721089D01*
X5404506Y-20721089D02*
X5414030Y-20740136D01*
X5414030Y-20740136D02*
X5423553Y-20749660D01*
X5423553Y-20749660D02*
X5442601Y-20759184D01*
X5442601Y-20759184D02*
X5480696Y-20759184D01*
X5480696Y-20759184D02*
X5499744Y-20749660D01*
X5499744Y-20749660D02*
X5509268Y-20740136D01*
X5509268Y-20740136D02*
X5518791Y-20721089D01*
X5518791Y-20721089D02*
X5518791Y-20673470D01*
X5518791Y-20673470D02*
X5509268Y-20654422D01*
X5509268Y-20654422D02*
X5499744Y-20644898D01*
X5499744Y-20644898D02*
X5480696Y-20635374D01*
X5480696Y-20635374D02*
X5442601Y-20635374D01*
X5442601Y-20635374D02*
X5423553Y-20644898D01*
X5423553Y-20644898D02*
X5414030Y-20654422D01*
X5414030Y-20654422D02*
X5404506Y-20673470D01*
X5756887Y-20759184D02*
X5756887Y-20559184D01*
X5842601Y-20759184D02*
X5842601Y-20654422D01*
X5842601Y-20654422D02*
X5833077Y-20635374D01*
X5833077Y-20635374D02*
X5814030Y-20625850D01*
X5814030Y-20625850D02*
X5785458Y-20625850D01*
X5785458Y-20625850D02*
X5766410Y-20635374D01*
X5766410Y-20635374D02*
X5756887Y-20644898D01*
X5966410Y-20759184D02*
X5947363Y-20749660D01*
X5947363Y-20749660D02*
X5937839Y-20740136D01*
X5937839Y-20740136D02*
X5928315Y-20721089D01*
X5928315Y-20721089D02*
X5928315Y-20663946D01*
X5928315Y-20663946D02*
X5937839Y-20644898D01*
X5937839Y-20644898D02*
X5947363Y-20635374D01*
X5947363Y-20635374D02*
X5966410Y-20625850D01*
X5966410Y-20625850D02*
X5994982Y-20625850D01*
X5994982Y-20625850D02*
X6014030Y-20635374D01*
X6014030Y-20635374D02*
X6023553Y-20644898D01*
X6023553Y-20644898D02*
X6033077Y-20663946D01*
X6033077Y-20663946D02*
X6033077Y-20721089D01*
X6033077Y-20721089D02*
X6023553Y-20740136D01*
X6023553Y-20740136D02*
X6014030Y-20749660D01*
X6014030Y-20749660D02*
X5994982Y-20759184D01*
X5994982Y-20759184D02*
X5966410Y-20759184D01*
X6147363Y-20759184D02*
X6128315Y-20749660D01*
X6128315Y-20749660D02*
X6118791Y-20730612D01*
X6118791Y-20730612D02*
X6118791Y-20559184D01*
X6299744Y-20749660D02*
X6280696Y-20759184D01*
X6280696Y-20759184D02*
X6242601Y-20759184D01*
X6242601Y-20759184D02*
X6223553Y-20749660D01*
X6223553Y-20749660D02*
X6214030Y-20730612D01*
X6214030Y-20730612D02*
X6214030Y-20654422D01*
X6214030Y-20654422D02*
X6223553Y-20635374D01*
X6223553Y-20635374D02*
X6242601Y-20625850D01*
X6242601Y-20625850D02*
X6280696Y-20625850D01*
X6280696Y-20625850D02*
X6299744Y-20635374D01*
X6299744Y-20635374D02*
X6309268Y-20654422D01*
X6309268Y-20654422D02*
X6309268Y-20673470D01*
X6309268Y-20673470D02*
X6214030Y-20692517D01*
X6385458Y-20749660D02*
X6404506Y-20759184D01*
X6404506Y-20759184D02*
X6442601Y-20759184D01*
X6442601Y-20759184D02*
X6461649Y-20749660D01*
X6461649Y-20749660D02*
X6471172Y-20730612D01*
X6471172Y-20730612D02*
X6471172Y-20721089D01*
X6471172Y-20721089D02*
X6461649Y-20702041D01*
X6461649Y-20702041D02*
X6442601Y-20692517D01*
X6442601Y-20692517D02*
X6414030Y-20692517D01*
X6414030Y-20692517D02*
X6394982Y-20682993D01*
X6394982Y-20682993D02*
X6385458Y-20663946D01*
X6385458Y-20663946D02*
X6385458Y-20654422D01*
X6385458Y-20654422D02*
X6394982Y-20635374D01*
X6394982Y-20635374D02*
X6414030Y-20625850D01*
X6414030Y-20625850D02*
X6442601Y-20625850D01*
X6442601Y-20625850D02*
X6461649Y-20635374D01*
X6537839Y-20835374D02*
X6547363Y-20825850D01*
X6547363Y-20825850D02*
X6566411Y-20797279D01*
X6566411Y-20797279D02*
X6575934Y-20778231D01*
X6575934Y-20778231D02*
X6585458Y-20749660D01*
X6585458Y-20749660D02*
X6594982Y-20702041D01*
X6594982Y-20702041D02*
X6594982Y-20663946D01*
X6594982Y-20663946D02*
X6585458Y-20616327D01*
X6585458Y-20616327D02*
X6575934Y-20587755D01*
X6575934Y-20587755D02*
X6566411Y-20568708D01*
X6566411Y-20568708D02*
X6547363Y-20540136D01*
X6547363Y-20540136D02*
X6537839Y-20530612D01*
D12*
X1527850Y-20887250D02*
X1527850Y-20976150D01*
X1483400Y-20931700D02*
X1572300Y-20931700D01*
D11*
X1871172Y-20823184D02*
X1890220Y-20823184D01*
X1890220Y-20823184D02*
X1909267Y-20832708D01*
X1909267Y-20832708D02*
X1918791Y-20842231D01*
X1918791Y-20842231D02*
X1928315Y-20861279D01*
X1928315Y-20861279D02*
X1937839Y-20899374D01*
X1937839Y-20899374D02*
X1937839Y-20946993D01*
X1937839Y-20946993D02*
X1928315Y-20985089D01*
X1928315Y-20985089D02*
X1918791Y-21004136D01*
X1918791Y-21004136D02*
X1909267Y-21013660D01*
X1909267Y-21013660D02*
X1890220Y-21023184D01*
X1890220Y-21023184D02*
X1871172Y-21023184D01*
X1871172Y-21023184D02*
X1852124Y-21013660D01*
X1852124Y-21013660D02*
X1842601Y-21004136D01*
X1842601Y-21004136D02*
X1833077Y-20985089D01*
X1833077Y-20985089D02*
X1823553Y-20946993D01*
X1823553Y-20946993D02*
X1823553Y-20899374D01*
X1823553Y-20899374D02*
X1833077Y-20861279D01*
X1833077Y-20861279D02*
X1842601Y-20842231D01*
X1842601Y-20842231D02*
X1852124Y-20832708D01*
X1852124Y-20832708D02*
X1871172Y-20823184D01*
X2023553Y-21004136D02*
X2033077Y-21013660D01*
X2033077Y-21013660D02*
X2023553Y-21023184D01*
X2023553Y-21023184D02*
X2014029Y-21013660D01*
X2014029Y-21013660D02*
X2023553Y-21004136D01*
X2023553Y-21004136D02*
X2023553Y-21023184D01*
X2147363Y-20908898D02*
X2128315Y-20899374D01*
X2128315Y-20899374D02*
X2118791Y-20889850D01*
X2118791Y-20889850D02*
X2109267Y-20870803D01*
X2109267Y-20870803D02*
X2109267Y-20861279D01*
X2109267Y-20861279D02*
X2118791Y-20842231D01*
X2118791Y-20842231D02*
X2128315Y-20832708D01*
X2128315Y-20832708D02*
X2147363Y-20823184D01*
X2147363Y-20823184D02*
X2185458Y-20823184D01*
X2185458Y-20823184D02*
X2204505Y-20832708D01*
X2204505Y-20832708D02*
X2214029Y-20842231D01*
X2214029Y-20842231D02*
X2223553Y-20861279D01*
X2223553Y-20861279D02*
X2223553Y-20870803D01*
X2223553Y-20870803D02*
X2214029Y-20889850D01*
X2214029Y-20889850D02*
X2204505Y-20899374D01*
X2204505Y-20899374D02*
X2185458Y-20908898D01*
X2185458Y-20908898D02*
X2147363Y-20908898D01*
X2147363Y-20908898D02*
X2128315Y-20918422D01*
X2128315Y-20918422D02*
X2118791Y-20927946D01*
X2118791Y-20927946D02*
X2109267Y-20946993D01*
X2109267Y-20946993D02*
X2109267Y-20985089D01*
X2109267Y-20985089D02*
X2118791Y-21004136D01*
X2118791Y-21004136D02*
X2128315Y-21013660D01*
X2128315Y-21013660D02*
X2147363Y-21023184D01*
X2147363Y-21023184D02*
X2185458Y-21023184D01*
X2185458Y-21023184D02*
X2204505Y-21013660D01*
X2204505Y-21013660D02*
X2214029Y-21004136D01*
X2214029Y-21004136D02*
X2223553Y-20985089D01*
X2223553Y-20985089D02*
X2223553Y-20946993D01*
X2223553Y-20946993D02*
X2214029Y-20927946D01*
X2214029Y-20927946D02*
X2204505Y-20918422D01*
X2204505Y-20918422D02*
X2185458Y-20908898D01*
X2337839Y-20908898D02*
X2318791Y-20899374D01*
X2318791Y-20899374D02*
X2309267Y-20889850D01*
X2309267Y-20889850D02*
X2299744Y-20870803D01*
X2299744Y-20870803D02*
X2299744Y-20861279D01*
X2299744Y-20861279D02*
X2309267Y-20842231D01*
X2309267Y-20842231D02*
X2318791Y-20832708D01*
X2318791Y-20832708D02*
X2337839Y-20823184D01*
X2337839Y-20823184D02*
X2375934Y-20823184D01*
X2375934Y-20823184D02*
X2394982Y-20832708D01*
X2394982Y-20832708D02*
X2404505Y-20842231D01*
X2404505Y-20842231D02*
X2414029Y-20861279D01*
X2414029Y-20861279D02*
X2414029Y-20870803D01*
X2414029Y-20870803D02*
X2404505Y-20889850D01*
X2404505Y-20889850D02*
X2394982Y-20899374D01*
X2394982Y-20899374D02*
X2375934Y-20908898D01*
X2375934Y-20908898D02*
X2337839Y-20908898D01*
X2337839Y-20908898D02*
X2318791Y-20918422D01*
X2318791Y-20918422D02*
X2309267Y-20927946D01*
X2309267Y-20927946D02*
X2299744Y-20946993D01*
X2299744Y-20946993D02*
X2299744Y-20985089D01*
X2299744Y-20985089D02*
X2309267Y-21004136D01*
X2309267Y-21004136D02*
X2318791Y-21013660D01*
X2318791Y-21013660D02*
X2337839Y-21023184D01*
X2337839Y-21023184D02*
X2375934Y-21023184D01*
X2375934Y-21023184D02*
X2394982Y-21013660D01*
X2394982Y-21013660D02*
X2404505Y-21004136D01*
X2404505Y-21004136D02*
X2414029Y-20985089D01*
X2414029Y-20985089D02*
X2414029Y-20946993D01*
X2414029Y-20946993D02*
X2404505Y-20927946D01*
X2404505Y-20927946D02*
X2394982Y-20918422D01*
X2394982Y-20918422D02*
X2375934Y-20908898D01*
X2509267Y-21023184D02*
X2547363Y-21023184D01*
X2547363Y-21023184D02*
X2566410Y-21013660D01*
X2566410Y-21013660D02*
X2575934Y-21004136D01*
X2575934Y-21004136D02*
X2594982Y-20975565D01*
X2594982Y-20975565D02*
X2604505Y-20937470D01*
X2604505Y-20937470D02*
X2604505Y-20861279D01*
X2604505Y-20861279D02*
X2594982Y-20842231D01*
X2594982Y-20842231D02*
X2585458Y-20832708D01*
X2585458Y-20832708D02*
X2566410Y-20823184D01*
X2566410Y-20823184D02*
X2528315Y-20823184D01*
X2528315Y-20823184D02*
X2509267Y-20832708D01*
X2509267Y-20832708D02*
X2499744Y-20842231D01*
X2499744Y-20842231D02*
X2490220Y-20861279D01*
X2490220Y-20861279D02*
X2490220Y-20908898D01*
X2490220Y-20908898D02*
X2499744Y-20927946D01*
X2499744Y-20927946D02*
X2509267Y-20937470D01*
X2509267Y-20937470D02*
X2528315Y-20946993D01*
X2528315Y-20946993D02*
X2566410Y-20946993D01*
X2566410Y-20946993D02*
X2585458Y-20937470D01*
X2585458Y-20937470D02*
X2594982Y-20927946D01*
X2594982Y-20927946D02*
X2604505Y-20908898D01*
X2690220Y-21023184D02*
X2690220Y-20889850D01*
X2690220Y-20908898D02*
X2699744Y-20899374D01*
X2699744Y-20899374D02*
X2718791Y-20889850D01*
X2718791Y-20889850D02*
X2747363Y-20889850D01*
X2747363Y-20889850D02*
X2766410Y-20899374D01*
X2766410Y-20899374D02*
X2775934Y-20918422D01*
X2775934Y-20918422D02*
X2775934Y-21023184D01*
X2775934Y-20918422D02*
X2785458Y-20899374D01*
X2785458Y-20899374D02*
X2804505Y-20889850D01*
X2804505Y-20889850D02*
X2833077Y-20889850D01*
X2833077Y-20889850D02*
X2852124Y-20899374D01*
X2852124Y-20899374D02*
X2861648Y-20918422D01*
X2861648Y-20918422D02*
X2861648Y-21023184D01*
X2956886Y-21023184D02*
X2956886Y-20889850D01*
X2956886Y-20908898D02*
X2966410Y-20899374D01*
X2966410Y-20899374D02*
X2985458Y-20889850D01*
X2985458Y-20889850D02*
X3014029Y-20889850D01*
X3014029Y-20889850D02*
X3033077Y-20899374D01*
X3033077Y-20899374D02*
X3042601Y-20918422D01*
X3042601Y-20918422D02*
X3042601Y-21023184D01*
X3042601Y-20918422D02*
X3052124Y-20899374D01*
X3052124Y-20899374D02*
X3071172Y-20889850D01*
X3071172Y-20889850D02*
X3099743Y-20889850D01*
X3099743Y-20889850D02*
X3118791Y-20899374D01*
X3118791Y-20899374D02*
X3128315Y-20918422D01*
X3128315Y-20918422D02*
X3128315Y-21023184D01*
X3518791Y-20813660D02*
X3347363Y-21070803D01*
X3775934Y-20823184D02*
X3794982Y-20823184D01*
X3794982Y-20823184D02*
X3814029Y-20832708D01*
X3814029Y-20832708D02*
X3823553Y-20842231D01*
X3823553Y-20842231D02*
X3833077Y-20861279D01*
X3833077Y-20861279D02*
X3842601Y-20899374D01*
X3842601Y-20899374D02*
X3842601Y-20946993D01*
X3842601Y-20946993D02*
X3833077Y-20985089D01*
X3833077Y-20985089D02*
X3823553Y-21004136D01*
X3823553Y-21004136D02*
X3814029Y-21013660D01*
X3814029Y-21013660D02*
X3794982Y-21023184D01*
X3794982Y-21023184D02*
X3775934Y-21023184D01*
X3775934Y-21023184D02*
X3756886Y-21013660D01*
X3756886Y-21013660D02*
X3747363Y-21004136D01*
X3747363Y-21004136D02*
X3737839Y-20985089D01*
X3737839Y-20985089D02*
X3728315Y-20946993D01*
X3728315Y-20946993D02*
X3728315Y-20899374D01*
X3728315Y-20899374D02*
X3737839Y-20861279D01*
X3737839Y-20861279D02*
X3747363Y-20842231D01*
X3747363Y-20842231D02*
X3756886Y-20832708D01*
X3756886Y-20832708D02*
X3775934Y-20823184D01*
X3928315Y-21004136D02*
X3937839Y-21013660D01*
X3937839Y-21013660D02*
X3928315Y-21023184D01*
X3928315Y-21023184D02*
X3918791Y-21013660D01*
X3918791Y-21013660D02*
X3928315Y-21004136D01*
X3928315Y-21004136D02*
X3928315Y-21023184D01*
X4061648Y-20823184D02*
X4080696Y-20823184D01*
X4080696Y-20823184D02*
X4099744Y-20832708D01*
X4099744Y-20832708D02*
X4109267Y-20842231D01*
X4109267Y-20842231D02*
X4118791Y-20861279D01*
X4118791Y-20861279D02*
X4128315Y-20899374D01*
X4128315Y-20899374D02*
X4128315Y-20946993D01*
X4128315Y-20946993D02*
X4118791Y-20985089D01*
X4118791Y-20985089D02*
X4109267Y-21004136D01*
X4109267Y-21004136D02*
X4099744Y-21013660D01*
X4099744Y-21013660D02*
X4080696Y-21023184D01*
X4080696Y-21023184D02*
X4061648Y-21023184D01*
X4061648Y-21023184D02*
X4042601Y-21013660D01*
X4042601Y-21013660D02*
X4033077Y-21004136D01*
X4033077Y-21004136D02*
X4023553Y-20985089D01*
X4023553Y-20985089D02*
X4014029Y-20946993D01*
X4014029Y-20946993D02*
X4014029Y-20899374D01*
X4014029Y-20899374D02*
X4023553Y-20861279D01*
X4023553Y-20861279D02*
X4033077Y-20842231D01*
X4033077Y-20842231D02*
X4042601Y-20832708D01*
X4042601Y-20832708D02*
X4061648Y-20823184D01*
X4194982Y-20823184D02*
X4318791Y-20823184D01*
X4318791Y-20823184D02*
X4252125Y-20899374D01*
X4252125Y-20899374D02*
X4280696Y-20899374D01*
X4280696Y-20899374D02*
X4299744Y-20908898D01*
X4299744Y-20908898D02*
X4309268Y-20918422D01*
X4309268Y-20918422D02*
X4318791Y-20937470D01*
X4318791Y-20937470D02*
X4318791Y-20985089D01*
X4318791Y-20985089D02*
X4309268Y-21004136D01*
X4309268Y-21004136D02*
X4299744Y-21013660D01*
X4299744Y-21013660D02*
X4280696Y-21023184D01*
X4280696Y-21023184D02*
X4223553Y-21023184D01*
X4223553Y-21023184D02*
X4204506Y-21013660D01*
X4204506Y-21013660D02*
X4194982Y-21004136D01*
X4499744Y-20823184D02*
X4404506Y-20823184D01*
X4404506Y-20823184D02*
X4394982Y-20918422D01*
X4394982Y-20918422D02*
X4404506Y-20908898D01*
X4404506Y-20908898D02*
X4423553Y-20899374D01*
X4423553Y-20899374D02*
X4471172Y-20899374D01*
X4471172Y-20899374D02*
X4490220Y-20908898D01*
X4490220Y-20908898D02*
X4499744Y-20918422D01*
X4499744Y-20918422D02*
X4509268Y-20937470D01*
X4509268Y-20937470D02*
X4509268Y-20985089D01*
X4509268Y-20985089D02*
X4499744Y-21004136D01*
X4499744Y-21004136D02*
X4490220Y-21013660D01*
X4490220Y-21013660D02*
X4471172Y-21023184D01*
X4471172Y-21023184D02*
X4423553Y-21023184D01*
X4423553Y-21023184D02*
X4404506Y-21013660D01*
X4404506Y-21013660D02*
X4394982Y-21004136D01*
X4633077Y-20823184D02*
X4652125Y-20823184D01*
X4652125Y-20823184D02*
X4671172Y-20832708D01*
X4671172Y-20832708D02*
X4680696Y-20842231D01*
X4680696Y-20842231D02*
X4690220Y-20861279D01*
X4690220Y-20861279D02*
X4699744Y-20899374D01*
X4699744Y-20899374D02*
X4699744Y-20946993D01*
X4699744Y-20946993D02*
X4690220Y-20985089D01*
X4690220Y-20985089D02*
X4680696Y-21004136D01*
X4680696Y-21004136D02*
X4671172Y-21013660D01*
X4671172Y-21013660D02*
X4652125Y-21023184D01*
X4652125Y-21023184D02*
X4633077Y-21023184D01*
X4633077Y-21023184D02*
X4614029Y-21013660D01*
X4614029Y-21013660D02*
X4604506Y-21004136D01*
X4604506Y-21004136D02*
X4594982Y-20985089D01*
X4594982Y-20985089D02*
X4585458Y-20946993D01*
X4585458Y-20946993D02*
X4585458Y-20899374D01*
X4585458Y-20899374D02*
X4594982Y-20861279D01*
X4594982Y-20861279D02*
X4604506Y-20842231D01*
X4604506Y-20842231D02*
X4614029Y-20832708D01*
X4614029Y-20832708D02*
X4633077Y-20823184D01*
X4775934Y-20823184D02*
X4775934Y-20861279D01*
X4852125Y-20823184D02*
X4852125Y-20861279D01*
X5147363Y-21099374D02*
X5137839Y-21089850D01*
X5137839Y-21089850D02*
X5118791Y-21061279D01*
X5118791Y-21061279D02*
X5109268Y-21042231D01*
X5109268Y-21042231D02*
X5099744Y-21013660D01*
X5099744Y-21013660D02*
X5090220Y-20966041D01*
X5090220Y-20966041D02*
X5090220Y-20927946D01*
X5090220Y-20927946D02*
X5099744Y-20880327D01*
X5099744Y-20880327D02*
X5109268Y-20851755D01*
X5109268Y-20851755D02*
X5118791Y-20832708D01*
X5118791Y-20832708D02*
X5137839Y-20804136D01*
X5137839Y-20804136D02*
X5147363Y-20794612D01*
X5328315Y-21023184D02*
X5214030Y-21023184D01*
X5271172Y-21023184D02*
X5271172Y-20823184D01*
X5271172Y-20823184D02*
X5252125Y-20851755D01*
X5252125Y-20851755D02*
X5233077Y-20870803D01*
X5233077Y-20870803D02*
X5214030Y-20880327D01*
X5518791Y-21023184D02*
X5404506Y-21023184D01*
X5461649Y-21023184D02*
X5461649Y-20823184D01*
X5461649Y-20823184D02*
X5442601Y-20851755D01*
X5442601Y-20851755D02*
X5423553Y-20870803D01*
X5423553Y-20870803D02*
X5404506Y-20880327D01*
X5594982Y-20842231D02*
X5604506Y-20832708D01*
X5604506Y-20832708D02*
X5623553Y-20823184D01*
X5623553Y-20823184D02*
X5671172Y-20823184D01*
X5671172Y-20823184D02*
X5690220Y-20832708D01*
X5690220Y-20832708D02*
X5699744Y-20842231D01*
X5699744Y-20842231D02*
X5709268Y-20861279D01*
X5709268Y-20861279D02*
X5709268Y-20880327D01*
X5709268Y-20880327D02*
X5699744Y-20908898D01*
X5699744Y-20908898D02*
X5585458Y-21023184D01*
X5585458Y-21023184D02*
X5709268Y-21023184D01*
X5947363Y-21023184D02*
X5947363Y-20823184D01*
X6033077Y-21023184D02*
X6033077Y-20918422D01*
X6033077Y-20918422D02*
X6023553Y-20899374D01*
X6023553Y-20899374D02*
X6004506Y-20889850D01*
X6004506Y-20889850D02*
X5975934Y-20889850D01*
X5975934Y-20889850D02*
X5956887Y-20899374D01*
X5956887Y-20899374D02*
X5947363Y-20908898D01*
X6156887Y-21023184D02*
X6137839Y-21013660D01*
X6137839Y-21013660D02*
X6128315Y-21004136D01*
X6128315Y-21004136D02*
X6118791Y-20985089D01*
X6118791Y-20985089D02*
X6118791Y-20927946D01*
X6118791Y-20927946D02*
X6128315Y-20908898D01*
X6128315Y-20908898D02*
X6137839Y-20899374D01*
X6137839Y-20899374D02*
X6156887Y-20889850D01*
X6156887Y-20889850D02*
X6185458Y-20889850D01*
X6185458Y-20889850D02*
X6204506Y-20899374D01*
X6204506Y-20899374D02*
X6214030Y-20908898D01*
X6214030Y-20908898D02*
X6223553Y-20927946D01*
X6223553Y-20927946D02*
X6223553Y-20985089D01*
X6223553Y-20985089D02*
X6214030Y-21004136D01*
X6214030Y-21004136D02*
X6204506Y-21013660D01*
X6204506Y-21013660D02*
X6185458Y-21023184D01*
X6185458Y-21023184D02*
X6156887Y-21023184D01*
X6337839Y-21023184D02*
X6318791Y-21013660D01*
X6318791Y-21013660D02*
X6309268Y-20994612D01*
X6309268Y-20994612D02*
X6309268Y-20823184D01*
X6490220Y-21013660D02*
X6471172Y-21023184D01*
X6471172Y-21023184D02*
X6433077Y-21023184D01*
X6433077Y-21023184D02*
X6414030Y-21013660D01*
X6414030Y-21013660D02*
X6404506Y-20994612D01*
X6404506Y-20994612D02*
X6404506Y-20918422D01*
X6404506Y-20918422D02*
X6414030Y-20899374D01*
X6414030Y-20899374D02*
X6433077Y-20889850D01*
X6433077Y-20889850D02*
X6471172Y-20889850D01*
X6471172Y-20889850D02*
X6490220Y-20899374D01*
X6490220Y-20899374D02*
X6499744Y-20918422D01*
X6499744Y-20918422D02*
X6499744Y-20937470D01*
X6499744Y-20937470D02*
X6404506Y-20956517D01*
X6575934Y-21013660D02*
X6594982Y-21023184D01*
X6594982Y-21023184D02*
X6633077Y-21023184D01*
X6633077Y-21023184D02*
X6652125Y-21013660D01*
X6652125Y-21013660D02*
X6661649Y-20994612D01*
X6661649Y-20994612D02*
X6661649Y-20985089D01*
X6661649Y-20985089D02*
X6652125Y-20966041D01*
X6652125Y-20966041D02*
X6633077Y-20956517D01*
X6633077Y-20956517D02*
X6604506Y-20956517D01*
X6604506Y-20956517D02*
X6585458Y-20946993D01*
X6585458Y-20946993D02*
X6575934Y-20927946D01*
X6575934Y-20927946D02*
X6575934Y-20918422D01*
X6575934Y-20918422D02*
X6585458Y-20899374D01*
X6585458Y-20899374D02*
X6604506Y-20889850D01*
X6604506Y-20889850D02*
X6633077Y-20889850D01*
X6633077Y-20889850D02*
X6652125Y-20899374D01*
X6728315Y-21099374D02*
X6737839Y-21089850D01*
X6737839Y-21089850D02*
X6756887Y-21061279D01*
X6756887Y-21061279D02*
X6766411Y-21042231D01*
X6766411Y-21042231D02*
X6775934Y-21013660D01*
X6775934Y-21013660D02*
X6785458Y-20966041D01*
X6785458Y-20966041D02*
X6785458Y-20927946D01*
X6785458Y-20927946D02*
X6775934Y-20880327D01*
X6775934Y-20880327D02*
X6766411Y-20851755D01*
X6766411Y-20851755D02*
X6756887Y-20832708D01*
X6756887Y-20832708D02*
X6737839Y-20804136D01*
X6737839Y-20804136D02*
X6728315Y-20794612D01*
X1543011Y-21266411D02*
X1543011Y-21124989D01*
X1401589Y-21124989D01*
X1401589Y-21266411D01*
X1543011Y-21266411D01*
X1814029Y-21087184D02*
X1937839Y-21087184D01*
X1937839Y-21087184D02*
X1871172Y-21163374D01*
X1871172Y-21163374D02*
X1899743Y-21163374D01*
X1899743Y-21163374D02*
X1918791Y-21172898D01*
X1918791Y-21172898D02*
X1928315Y-21182422D01*
X1928315Y-21182422D02*
X1937839Y-21201470D01*
X1937839Y-21201470D02*
X1937839Y-21249089D01*
X1937839Y-21249089D02*
X1928315Y-21268136D01*
X1928315Y-21268136D02*
X1918791Y-21277660D01*
X1918791Y-21277660D02*
X1899743Y-21287184D01*
X1899743Y-21287184D02*
X1842601Y-21287184D01*
X1842601Y-21287184D02*
X1823553Y-21277660D01*
X1823553Y-21277660D02*
X1814029Y-21268136D01*
X2023553Y-21268136D02*
X2033077Y-21277660D01*
X2033077Y-21277660D02*
X2023553Y-21287184D01*
X2023553Y-21287184D02*
X2014029Y-21277660D01*
X2014029Y-21277660D02*
X2023553Y-21268136D01*
X2023553Y-21268136D02*
X2023553Y-21287184D01*
X2109267Y-21106231D02*
X2118791Y-21096708D01*
X2118791Y-21096708D02*
X2137839Y-21087184D01*
X2137839Y-21087184D02*
X2185458Y-21087184D01*
X2185458Y-21087184D02*
X2204505Y-21096708D01*
X2204505Y-21096708D02*
X2214029Y-21106231D01*
X2214029Y-21106231D02*
X2223553Y-21125279D01*
X2223553Y-21125279D02*
X2223553Y-21144327D01*
X2223553Y-21144327D02*
X2214029Y-21172898D01*
X2214029Y-21172898D02*
X2099744Y-21287184D01*
X2099744Y-21287184D02*
X2223553Y-21287184D01*
X2347363Y-21087184D02*
X2366410Y-21087184D01*
X2366410Y-21087184D02*
X2385458Y-21096708D01*
X2385458Y-21096708D02*
X2394982Y-21106231D01*
X2394982Y-21106231D02*
X2404505Y-21125279D01*
X2404505Y-21125279D02*
X2414029Y-21163374D01*
X2414029Y-21163374D02*
X2414029Y-21210993D01*
X2414029Y-21210993D02*
X2404505Y-21249089D01*
X2404505Y-21249089D02*
X2394982Y-21268136D01*
X2394982Y-21268136D02*
X2385458Y-21277660D01*
X2385458Y-21277660D02*
X2366410Y-21287184D01*
X2366410Y-21287184D02*
X2347363Y-21287184D01*
X2347363Y-21287184D02*
X2328315Y-21277660D01*
X2328315Y-21277660D02*
X2318791Y-21268136D01*
X2318791Y-21268136D02*
X2309267Y-21249089D01*
X2309267Y-21249089D02*
X2299744Y-21210993D01*
X2299744Y-21210993D02*
X2299744Y-21163374D01*
X2299744Y-21163374D02*
X2309267Y-21125279D01*
X2309267Y-21125279D02*
X2318791Y-21106231D01*
X2318791Y-21106231D02*
X2328315Y-21096708D01*
X2328315Y-21096708D02*
X2347363Y-21087184D01*
X2537839Y-21087184D02*
X2556886Y-21087184D01*
X2556886Y-21087184D02*
X2575934Y-21096708D01*
X2575934Y-21096708D02*
X2585458Y-21106231D01*
X2585458Y-21106231D02*
X2594982Y-21125279D01*
X2594982Y-21125279D02*
X2604505Y-21163374D01*
X2604505Y-21163374D02*
X2604505Y-21210993D01*
X2604505Y-21210993D02*
X2594982Y-21249089D01*
X2594982Y-21249089D02*
X2585458Y-21268136D01*
X2585458Y-21268136D02*
X2575934Y-21277660D01*
X2575934Y-21277660D02*
X2556886Y-21287184D01*
X2556886Y-21287184D02*
X2537839Y-21287184D01*
X2537839Y-21287184D02*
X2518791Y-21277660D01*
X2518791Y-21277660D02*
X2509267Y-21268136D01*
X2509267Y-21268136D02*
X2499744Y-21249089D01*
X2499744Y-21249089D02*
X2490220Y-21210993D01*
X2490220Y-21210993D02*
X2490220Y-21163374D01*
X2490220Y-21163374D02*
X2499744Y-21125279D01*
X2499744Y-21125279D02*
X2509267Y-21106231D01*
X2509267Y-21106231D02*
X2518791Y-21096708D01*
X2518791Y-21096708D02*
X2537839Y-21087184D01*
X2690220Y-21287184D02*
X2690220Y-21153850D01*
X2690220Y-21172898D02*
X2699744Y-21163374D01*
X2699744Y-21163374D02*
X2718791Y-21153850D01*
X2718791Y-21153850D02*
X2747363Y-21153850D01*
X2747363Y-21153850D02*
X2766410Y-21163374D01*
X2766410Y-21163374D02*
X2775934Y-21182422D01*
X2775934Y-21182422D02*
X2775934Y-21287184D01*
X2775934Y-21182422D02*
X2785458Y-21163374D01*
X2785458Y-21163374D02*
X2804505Y-21153850D01*
X2804505Y-21153850D02*
X2833077Y-21153850D01*
X2833077Y-21153850D02*
X2852124Y-21163374D01*
X2852124Y-21163374D02*
X2861648Y-21182422D01*
X2861648Y-21182422D02*
X2861648Y-21287184D01*
X2956886Y-21287184D02*
X2956886Y-21153850D01*
X2956886Y-21172898D02*
X2966410Y-21163374D01*
X2966410Y-21163374D02*
X2985458Y-21153850D01*
X2985458Y-21153850D02*
X3014029Y-21153850D01*
X3014029Y-21153850D02*
X3033077Y-21163374D01*
X3033077Y-21163374D02*
X3042601Y-21182422D01*
X3042601Y-21182422D02*
X3042601Y-21287184D01*
X3042601Y-21182422D02*
X3052124Y-21163374D01*
X3052124Y-21163374D02*
X3071172Y-21153850D01*
X3071172Y-21153850D02*
X3099743Y-21153850D01*
X3099743Y-21153850D02*
X3118791Y-21163374D01*
X3118791Y-21163374D02*
X3128315Y-21182422D01*
X3128315Y-21182422D02*
X3128315Y-21287184D01*
X3518791Y-21077660D02*
X3347363Y-21334803D01*
X3775934Y-21087184D02*
X3794982Y-21087184D01*
X3794982Y-21087184D02*
X3814029Y-21096708D01*
X3814029Y-21096708D02*
X3823553Y-21106231D01*
X3823553Y-21106231D02*
X3833077Y-21125279D01*
X3833077Y-21125279D02*
X3842601Y-21163374D01*
X3842601Y-21163374D02*
X3842601Y-21210993D01*
X3842601Y-21210993D02*
X3833077Y-21249089D01*
X3833077Y-21249089D02*
X3823553Y-21268136D01*
X3823553Y-21268136D02*
X3814029Y-21277660D01*
X3814029Y-21277660D02*
X3794982Y-21287184D01*
X3794982Y-21287184D02*
X3775934Y-21287184D01*
X3775934Y-21287184D02*
X3756886Y-21277660D01*
X3756886Y-21277660D02*
X3747363Y-21268136D01*
X3747363Y-21268136D02*
X3737839Y-21249089D01*
X3737839Y-21249089D02*
X3728315Y-21210993D01*
X3728315Y-21210993D02*
X3728315Y-21163374D01*
X3728315Y-21163374D02*
X3737839Y-21125279D01*
X3737839Y-21125279D02*
X3747363Y-21106231D01*
X3747363Y-21106231D02*
X3756886Y-21096708D01*
X3756886Y-21096708D02*
X3775934Y-21087184D01*
X3928315Y-21268136D02*
X3937839Y-21277660D01*
X3937839Y-21277660D02*
X3928315Y-21287184D01*
X3928315Y-21287184D02*
X3918791Y-21277660D01*
X3918791Y-21277660D02*
X3928315Y-21268136D01*
X3928315Y-21268136D02*
X3928315Y-21287184D01*
X4128315Y-21287184D02*
X4014029Y-21287184D01*
X4071172Y-21287184D02*
X4071172Y-21087184D01*
X4071172Y-21087184D02*
X4052125Y-21115755D01*
X4052125Y-21115755D02*
X4033077Y-21134803D01*
X4033077Y-21134803D02*
X4014029Y-21144327D01*
X4204506Y-21106231D02*
X4214029Y-21096708D01*
X4214029Y-21096708D02*
X4233077Y-21087184D01*
X4233077Y-21087184D02*
X4280696Y-21087184D01*
X4280696Y-21087184D02*
X4299744Y-21096708D01*
X4299744Y-21096708D02*
X4309268Y-21106231D01*
X4309268Y-21106231D02*
X4318791Y-21125279D01*
X4318791Y-21125279D02*
X4318791Y-21144327D01*
X4318791Y-21144327D02*
X4309268Y-21172898D01*
X4309268Y-21172898D02*
X4194982Y-21287184D01*
X4194982Y-21287184D02*
X4318791Y-21287184D01*
X4490220Y-21087184D02*
X4452125Y-21087184D01*
X4452125Y-21087184D02*
X4433077Y-21096708D01*
X4433077Y-21096708D02*
X4423553Y-21106231D01*
X4423553Y-21106231D02*
X4404506Y-21134803D01*
X4404506Y-21134803D02*
X4394982Y-21172898D01*
X4394982Y-21172898D02*
X4394982Y-21249089D01*
X4394982Y-21249089D02*
X4404506Y-21268136D01*
X4404506Y-21268136D02*
X4414029Y-21277660D01*
X4414029Y-21277660D02*
X4433077Y-21287184D01*
X4433077Y-21287184D02*
X4471172Y-21287184D01*
X4471172Y-21287184D02*
X4490220Y-21277660D01*
X4490220Y-21277660D02*
X4499744Y-21268136D01*
X4499744Y-21268136D02*
X4509268Y-21249089D01*
X4509268Y-21249089D02*
X4509268Y-21201470D01*
X4509268Y-21201470D02*
X4499744Y-21182422D01*
X4499744Y-21182422D02*
X4490220Y-21172898D01*
X4490220Y-21172898D02*
X4471172Y-21163374D01*
X4471172Y-21163374D02*
X4433077Y-21163374D01*
X4433077Y-21163374D02*
X4414029Y-21172898D01*
X4414029Y-21172898D02*
X4404506Y-21182422D01*
X4404506Y-21182422D02*
X4394982Y-21201470D01*
X4633077Y-21087184D02*
X4652125Y-21087184D01*
X4652125Y-21087184D02*
X4671172Y-21096708D01*
X4671172Y-21096708D02*
X4680696Y-21106231D01*
X4680696Y-21106231D02*
X4690220Y-21125279D01*
X4690220Y-21125279D02*
X4699744Y-21163374D01*
X4699744Y-21163374D02*
X4699744Y-21210993D01*
X4699744Y-21210993D02*
X4690220Y-21249089D01*
X4690220Y-21249089D02*
X4680696Y-21268136D01*
X4680696Y-21268136D02*
X4671172Y-21277660D01*
X4671172Y-21277660D02*
X4652125Y-21287184D01*
X4652125Y-21287184D02*
X4633077Y-21287184D01*
X4633077Y-21287184D02*
X4614029Y-21277660D01*
X4614029Y-21277660D02*
X4604506Y-21268136D01*
X4604506Y-21268136D02*
X4594982Y-21249089D01*
X4594982Y-21249089D02*
X4585458Y-21210993D01*
X4585458Y-21210993D02*
X4585458Y-21163374D01*
X4585458Y-21163374D02*
X4594982Y-21125279D01*
X4594982Y-21125279D02*
X4604506Y-21106231D01*
X4604506Y-21106231D02*
X4614029Y-21096708D01*
X4614029Y-21096708D02*
X4633077Y-21087184D01*
X4775934Y-21087184D02*
X4775934Y-21125279D01*
X4852125Y-21087184D02*
X4852125Y-21125279D01*
X5147363Y-21363374D02*
X5137839Y-21353850D01*
X5137839Y-21353850D02*
X5118791Y-21325279D01*
X5118791Y-21325279D02*
X5109268Y-21306231D01*
X5109268Y-21306231D02*
X5099744Y-21277660D01*
X5099744Y-21277660D02*
X5090220Y-21230041D01*
X5090220Y-21230041D02*
X5090220Y-21191946D01*
X5090220Y-21191946D02*
X5099744Y-21144327D01*
X5099744Y-21144327D02*
X5109268Y-21115755D01*
X5109268Y-21115755D02*
X5118791Y-21096708D01*
X5118791Y-21096708D02*
X5137839Y-21068136D01*
X5137839Y-21068136D02*
X5147363Y-21058612D01*
X5204506Y-21087184D02*
X5328315Y-21087184D01*
X5328315Y-21087184D02*
X5261649Y-21163374D01*
X5261649Y-21163374D02*
X5290220Y-21163374D01*
X5290220Y-21163374D02*
X5309268Y-21172898D01*
X5309268Y-21172898D02*
X5318791Y-21182422D01*
X5318791Y-21182422D02*
X5328315Y-21201470D01*
X5328315Y-21201470D02*
X5328315Y-21249089D01*
X5328315Y-21249089D02*
X5318791Y-21268136D01*
X5318791Y-21268136D02*
X5309268Y-21277660D01*
X5309268Y-21277660D02*
X5290220Y-21287184D01*
X5290220Y-21287184D02*
X5233077Y-21287184D01*
X5233077Y-21287184D02*
X5214030Y-21277660D01*
X5214030Y-21277660D02*
X5204506Y-21268136D01*
X5566411Y-21287184D02*
X5566411Y-21087184D01*
X5652125Y-21287184D02*
X5652125Y-21182422D01*
X5652125Y-21182422D02*
X5642601Y-21163374D01*
X5642601Y-21163374D02*
X5623553Y-21153850D01*
X5623553Y-21153850D02*
X5594982Y-21153850D01*
X5594982Y-21153850D02*
X5575934Y-21163374D01*
X5575934Y-21163374D02*
X5566411Y-21172898D01*
X5775934Y-21287184D02*
X5756887Y-21277660D01*
X5756887Y-21277660D02*
X5747363Y-21268136D01*
X5747363Y-21268136D02*
X5737839Y-21249089D01*
X5737839Y-21249089D02*
X5737839Y-21191946D01*
X5737839Y-21191946D02*
X5747363Y-21172898D01*
X5747363Y-21172898D02*
X5756887Y-21163374D01*
X5756887Y-21163374D02*
X5775934Y-21153850D01*
X5775934Y-21153850D02*
X5804506Y-21153850D01*
X5804506Y-21153850D02*
X5823553Y-21163374D01*
X5823553Y-21163374D02*
X5833077Y-21172898D01*
X5833077Y-21172898D02*
X5842601Y-21191946D01*
X5842601Y-21191946D02*
X5842601Y-21249089D01*
X5842601Y-21249089D02*
X5833077Y-21268136D01*
X5833077Y-21268136D02*
X5823553Y-21277660D01*
X5823553Y-21277660D02*
X5804506Y-21287184D01*
X5804506Y-21287184D02*
X5775934Y-21287184D01*
X5956887Y-21287184D02*
X5937839Y-21277660D01*
X5937839Y-21277660D02*
X5928315Y-21258612D01*
X5928315Y-21258612D02*
X5928315Y-21087184D01*
X6109268Y-21277660D02*
X6090220Y-21287184D01*
X6090220Y-21287184D02*
X6052125Y-21287184D01*
X6052125Y-21287184D02*
X6033077Y-21277660D01*
X6033077Y-21277660D02*
X6023553Y-21258612D01*
X6023553Y-21258612D02*
X6023553Y-21182422D01*
X6023553Y-21182422D02*
X6033077Y-21163374D01*
X6033077Y-21163374D02*
X6052125Y-21153850D01*
X6052125Y-21153850D02*
X6090220Y-21153850D01*
X6090220Y-21153850D02*
X6109268Y-21163374D01*
X6109268Y-21163374D02*
X6118791Y-21182422D01*
X6118791Y-21182422D02*
X6118791Y-21201470D01*
X6118791Y-21201470D02*
X6023553Y-21220517D01*
X6194982Y-21277660D02*
X6214030Y-21287184D01*
X6214030Y-21287184D02*
X6252125Y-21287184D01*
X6252125Y-21287184D02*
X6271172Y-21277660D01*
X6271172Y-21277660D02*
X6280696Y-21258612D01*
X6280696Y-21258612D02*
X6280696Y-21249089D01*
X6280696Y-21249089D02*
X6271172Y-21230041D01*
X6271172Y-21230041D02*
X6252125Y-21220517D01*
X6252125Y-21220517D02*
X6223553Y-21220517D01*
X6223553Y-21220517D02*
X6204506Y-21210993D01*
X6204506Y-21210993D02*
X6194982Y-21191946D01*
X6194982Y-21191946D02*
X6194982Y-21182422D01*
X6194982Y-21182422D02*
X6204506Y-21163374D01*
X6204506Y-21163374D02*
X6223553Y-21153850D01*
X6223553Y-21153850D02*
X6252125Y-21153850D01*
X6252125Y-21153850D02*
X6271172Y-21163374D01*
X6347363Y-21363374D02*
X6356887Y-21353850D01*
X6356887Y-21353850D02*
X6375934Y-21325279D01*
X6375934Y-21325279D02*
X6385458Y-21306231D01*
X6385458Y-21306231D02*
X6394982Y-21277660D01*
X6394982Y-21277660D02*
X6404506Y-21230041D01*
X6404506Y-21230041D02*
X6404506Y-21191946D01*
X6404506Y-21191946D02*
X6394982Y-21144327D01*
X6394982Y-21144327D02*
X6385458Y-21115755D01*
X6385458Y-21115755D02*
X6375934Y-21096708D01*
X6375934Y-21096708D02*
X6356887Y-21068136D01*
X6356887Y-21068136D02*
X6347363Y-21058612D01*
D12*
X1522770Y-21565230D02*
X1572300Y-21515700D01*
X1522770Y-21466170D01*
X1473240Y-21515700D01*
X1522770Y-21565230D01*
D11*
X1871172Y-21407184D02*
X1890220Y-21407184D01*
X1890220Y-21407184D02*
X1909267Y-21416708D01*
X1909267Y-21416708D02*
X1918791Y-21426231D01*
X1918791Y-21426231D02*
X1928315Y-21445279D01*
X1928315Y-21445279D02*
X1937839Y-21483374D01*
X1937839Y-21483374D02*
X1937839Y-21530993D01*
X1937839Y-21530993D02*
X1928315Y-21569089D01*
X1928315Y-21569089D02*
X1918791Y-21588136D01*
X1918791Y-21588136D02*
X1909267Y-21597660D01*
X1909267Y-21597660D02*
X1890220Y-21607184D01*
X1890220Y-21607184D02*
X1871172Y-21607184D01*
X1871172Y-21607184D02*
X1852124Y-21597660D01*
X1852124Y-21597660D02*
X1842601Y-21588136D01*
X1842601Y-21588136D02*
X1833077Y-21569089D01*
X1833077Y-21569089D02*
X1823553Y-21530993D01*
X1823553Y-21530993D02*
X1823553Y-21483374D01*
X1823553Y-21483374D02*
X1833077Y-21445279D01*
X1833077Y-21445279D02*
X1842601Y-21426231D01*
X1842601Y-21426231D02*
X1852124Y-21416708D01*
X1852124Y-21416708D02*
X1871172Y-21407184D01*
X2023553Y-21588136D02*
X2033077Y-21597660D01*
X2033077Y-21597660D02*
X2023553Y-21607184D01*
X2023553Y-21607184D02*
X2014029Y-21597660D01*
X2014029Y-21597660D02*
X2023553Y-21588136D01*
X2023553Y-21588136D02*
X2023553Y-21607184D01*
X2128315Y-21607184D02*
X2166410Y-21607184D01*
X2166410Y-21607184D02*
X2185458Y-21597660D01*
X2185458Y-21597660D02*
X2194982Y-21588136D01*
X2194982Y-21588136D02*
X2214029Y-21559565D01*
X2214029Y-21559565D02*
X2223553Y-21521470D01*
X2223553Y-21521470D02*
X2223553Y-21445279D01*
X2223553Y-21445279D02*
X2214029Y-21426231D01*
X2214029Y-21426231D02*
X2204505Y-21416708D01*
X2204505Y-21416708D02*
X2185458Y-21407184D01*
X2185458Y-21407184D02*
X2147363Y-21407184D01*
X2147363Y-21407184D02*
X2128315Y-21416708D01*
X2128315Y-21416708D02*
X2118791Y-21426231D01*
X2118791Y-21426231D02*
X2109267Y-21445279D01*
X2109267Y-21445279D02*
X2109267Y-21492898D01*
X2109267Y-21492898D02*
X2118791Y-21511946D01*
X2118791Y-21511946D02*
X2128315Y-21521470D01*
X2128315Y-21521470D02*
X2147363Y-21530993D01*
X2147363Y-21530993D02*
X2185458Y-21530993D01*
X2185458Y-21530993D02*
X2204505Y-21521470D01*
X2204505Y-21521470D02*
X2214029Y-21511946D01*
X2214029Y-21511946D02*
X2223553Y-21492898D01*
X2318791Y-21607184D02*
X2356886Y-21607184D01*
X2356886Y-21607184D02*
X2375934Y-21597660D01*
X2375934Y-21597660D02*
X2385458Y-21588136D01*
X2385458Y-21588136D02*
X2404505Y-21559565D01*
X2404505Y-21559565D02*
X2414029Y-21521470D01*
X2414029Y-21521470D02*
X2414029Y-21445279D01*
X2414029Y-21445279D02*
X2404505Y-21426231D01*
X2404505Y-21426231D02*
X2394982Y-21416708D01*
X2394982Y-21416708D02*
X2375934Y-21407184D01*
X2375934Y-21407184D02*
X2337839Y-21407184D01*
X2337839Y-21407184D02*
X2318791Y-21416708D01*
X2318791Y-21416708D02*
X2309267Y-21426231D01*
X2309267Y-21426231D02*
X2299744Y-21445279D01*
X2299744Y-21445279D02*
X2299744Y-21492898D01*
X2299744Y-21492898D02*
X2309267Y-21511946D01*
X2309267Y-21511946D02*
X2318791Y-21521470D01*
X2318791Y-21521470D02*
X2337839Y-21530993D01*
X2337839Y-21530993D02*
X2375934Y-21530993D01*
X2375934Y-21530993D02*
X2394982Y-21521470D01*
X2394982Y-21521470D02*
X2404505Y-21511946D01*
X2404505Y-21511946D02*
X2414029Y-21492898D01*
X2604505Y-21607184D02*
X2490220Y-21607184D01*
X2547363Y-21607184D02*
X2547363Y-21407184D01*
X2547363Y-21407184D02*
X2528315Y-21435755D01*
X2528315Y-21435755D02*
X2509267Y-21454803D01*
X2509267Y-21454803D02*
X2490220Y-21464327D01*
X2690220Y-21607184D02*
X2690220Y-21473850D01*
X2690220Y-21492898D02*
X2699744Y-21483374D01*
X2699744Y-21483374D02*
X2718791Y-21473850D01*
X2718791Y-21473850D02*
X2747363Y-21473850D01*
X2747363Y-21473850D02*
X2766410Y-21483374D01*
X2766410Y-21483374D02*
X2775934Y-21502422D01*
X2775934Y-21502422D02*
X2775934Y-21607184D01*
X2775934Y-21502422D02*
X2785458Y-21483374D01*
X2785458Y-21483374D02*
X2804505Y-21473850D01*
X2804505Y-21473850D02*
X2833077Y-21473850D01*
X2833077Y-21473850D02*
X2852124Y-21483374D01*
X2852124Y-21483374D02*
X2861648Y-21502422D01*
X2861648Y-21502422D02*
X2861648Y-21607184D01*
X2956886Y-21607184D02*
X2956886Y-21473850D01*
X2956886Y-21492898D02*
X2966410Y-21483374D01*
X2966410Y-21483374D02*
X2985458Y-21473850D01*
X2985458Y-21473850D02*
X3014029Y-21473850D01*
X3014029Y-21473850D02*
X3033077Y-21483374D01*
X3033077Y-21483374D02*
X3042601Y-21502422D01*
X3042601Y-21502422D02*
X3042601Y-21607184D01*
X3042601Y-21502422D02*
X3052124Y-21483374D01*
X3052124Y-21483374D02*
X3071172Y-21473850D01*
X3071172Y-21473850D02*
X3099743Y-21473850D01*
X3099743Y-21473850D02*
X3118791Y-21483374D01*
X3118791Y-21483374D02*
X3128315Y-21502422D01*
X3128315Y-21502422D02*
X3128315Y-21607184D01*
X3518791Y-21397660D02*
X3347363Y-21654803D01*
X3775934Y-21407184D02*
X3794982Y-21407184D01*
X3794982Y-21407184D02*
X3814029Y-21416708D01*
X3814029Y-21416708D02*
X3823553Y-21426231D01*
X3823553Y-21426231D02*
X3833077Y-21445279D01*
X3833077Y-21445279D02*
X3842601Y-21483374D01*
X3842601Y-21483374D02*
X3842601Y-21530993D01*
X3842601Y-21530993D02*
X3833077Y-21569089D01*
X3833077Y-21569089D02*
X3823553Y-21588136D01*
X3823553Y-21588136D02*
X3814029Y-21597660D01*
X3814029Y-21597660D02*
X3794982Y-21607184D01*
X3794982Y-21607184D02*
X3775934Y-21607184D01*
X3775934Y-21607184D02*
X3756886Y-21597660D01*
X3756886Y-21597660D02*
X3747363Y-21588136D01*
X3747363Y-21588136D02*
X3737839Y-21569089D01*
X3737839Y-21569089D02*
X3728315Y-21530993D01*
X3728315Y-21530993D02*
X3728315Y-21483374D01*
X3728315Y-21483374D02*
X3737839Y-21445279D01*
X3737839Y-21445279D02*
X3747363Y-21426231D01*
X3747363Y-21426231D02*
X3756886Y-21416708D01*
X3756886Y-21416708D02*
X3775934Y-21407184D01*
X3928315Y-21588136D02*
X3937839Y-21597660D01*
X3937839Y-21597660D02*
X3928315Y-21607184D01*
X3928315Y-21607184D02*
X3918791Y-21597660D01*
X3918791Y-21597660D02*
X3928315Y-21588136D01*
X3928315Y-21588136D02*
X3928315Y-21607184D01*
X4061648Y-21407184D02*
X4080696Y-21407184D01*
X4080696Y-21407184D02*
X4099744Y-21416708D01*
X4099744Y-21416708D02*
X4109267Y-21426231D01*
X4109267Y-21426231D02*
X4118791Y-21445279D01*
X4118791Y-21445279D02*
X4128315Y-21483374D01*
X4128315Y-21483374D02*
X4128315Y-21530993D01*
X4128315Y-21530993D02*
X4118791Y-21569089D01*
X4118791Y-21569089D02*
X4109267Y-21588136D01*
X4109267Y-21588136D02*
X4099744Y-21597660D01*
X4099744Y-21597660D02*
X4080696Y-21607184D01*
X4080696Y-21607184D02*
X4061648Y-21607184D01*
X4061648Y-21607184D02*
X4042601Y-21597660D01*
X4042601Y-21597660D02*
X4033077Y-21588136D01*
X4033077Y-21588136D02*
X4023553Y-21569089D01*
X4023553Y-21569089D02*
X4014029Y-21530993D01*
X4014029Y-21530993D02*
X4014029Y-21483374D01*
X4014029Y-21483374D02*
X4023553Y-21445279D01*
X4023553Y-21445279D02*
X4033077Y-21426231D01*
X4033077Y-21426231D02*
X4042601Y-21416708D01*
X4042601Y-21416708D02*
X4061648Y-21407184D01*
X4194982Y-21407184D02*
X4318791Y-21407184D01*
X4318791Y-21407184D02*
X4252125Y-21483374D01*
X4252125Y-21483374D02*
X4280696Y-21483374D01*
X4280696Y-21483374D02*
X4299744Y-21492898D01*
X4299744Y-21492898D02*
X4309268Y-21502422D01*
X4309268Y-21502422D02*
X4318791Y-21521470D01*
X4318791Y-21521470D02*
X4318791Y-21569089D01*
X4318791Y-21569089D02*
X4309268Y-21588136D01*
X4309268Y-21588136D02*
X4299744Y-21597660D01*
X4299744Y-21597660D02*
X4280696Y-21607184D01*
X4280696Y-21607184D02*
X4223553Y-21607184D01*
X4223553Y-21607184D02*
X4204506Y-21597660D01*
X4204506Y-21597660D02*
X4194982Y-21588136D01*
X4414029Y-21607184D02*
X4452125Y-21607184D01*
X4452125Y-21607184D02*
X4471172Y-21597660D01*
X4471172Y-21597660D02*
X4480696Y-21588136D01*
X4480696Y-21588136D02*
X4499744Y-21559565D01*
X4499744Y-21559565D02*
X4509268Y-21521470D01*
X4509268Y-21521470D02*
X4509268Y-21445279D01*
X4509268Y-21445279D02*
X4499744Y-21426231D01*
X4499744Y-21426231D02*
X4490220Y-21416708D01*
X4490220Y-21416708D02*
X4471172Y-21407184D01*
X4471172Y-21407184D02*
X4433077Y-21407184D01*
X4433077Y-21407184D02*
X4414029Y-21416708D01*
X4414029Y-21416708D02*
X4404506Y-21426231D01*
X4404506Y-21426231D02*
X4394982Y-21445279D01*
X4394982Y-21445279D02*
X4394982Y-21492898D01*
X4394982Y-21492898D02*
X4404506Y-21511946D01*
X4404506Y-21511946D02*
X4414029Y-21521470D01*
X4414029Y-21521470D02*
X4433077Y-21530993D01*
X4433077Y-21530993D02*
X4471172Y-21530993D01*
X4471172Y-21530993D02*
X4490220Y-21521470D01*
X4490220Y-21521470D02*
X4499744Y-21511946D01*
X4499744Y-21511946D02*
X4509268Y-21492898D01*
X4633077Y-21407184D02*
X4652125Y-21407184D01*
X4652125Y-21407184D02*
X4671172Y-21416708D01*
X4671172Y-21416708D02*
X4680696Y-21426231D01*
X4680696Y-21426231D02*
X4690220Y-21445279D01*
X4690220Y-21445279D02*
X4699744Y-21483374D01*
X4699744Y-21483374D02*
X4699744Y-21530993D01*
X4699744Y-21530993D02*
X4690220Y-21569089D01*
X4690220Y-21569089D02*
X4680696Y-21588136D01*
X4680696Y-21588136D02*
X4671172Y-21597660D01*
X4671172Y-21597660D02*
X4652125Y-21607184D01*
X4652125Y-21607184D02*
X4633077Y-21607184D01*
X4633077Y-21607184D02*
X4614029Y-21597660D01*
X4614029Y-21597660D02*
X4604506Y-21588136D01*
X4604506Y-21588136D02*
X4594982Y-21569089D01*
X4594982Y-21569089D02*
X4585458Y-21530993D01*
X4585458Y-21530993D02*
X4585458Y-21483374D01*
X4585458Y-21483374D02*
X4594982Y-21445279D01*
X4594982Y-21445279D02*
X4604506Y-21426231D01*
X4604506Y-21426231D02*
X4614029Y-21416708D01*
X4614029Y-21416708D02*
X4633077Y-21407184D01*
X4775934Y-21407184D02*
X4775934Y-21445279D01*
X4852125Y-21407184D02*
X4852125Y-21445279D01*
X5147363Y-21683374D02*
X5137839Y-21673850D01*
X5137839Y-21673850D02*
X5118791Y-21645279D01*
X5118791Y-21645279D02*
X5109268Y-21626231D01*
X5109268Y-21626231D02*
X5099744Y-21597660D01*
X5099744Y-21597660D02*
X5090220Y-21550041D01*
X5090220Y-21550041D02*
X5090220Y-21511946D01*
X5090220Y-21511946D02*
X5099744Y-21464327D01*
X5099744Y-21464327D02*
X5109268Y-21435755D01*
X5109268Y-21435755D02*
X5118791Y-21416708D01*
X5118791Y-21416708D02*
X5137839Y-21388136D01*
X5137839Y-21388136D02*
X5147363Y-21378612D01*
X5204506Y-21407184D02*
X5328315Y-21407184D01*
X5328315Y-21407184D02*
X5261649Y-21483374D01*
X5261649Y-21483374D02*
X5290220Y-21483374D01*
X5290220Y-21483374D02*
X5309268Y-21492898D01*
X5309268Y-21492898D02*
X5318791Y-21502422D01*
X5318791Y-21502422D02*
X5328315Y-21521470D01*
X5328315Y-21521470D02*
X5328315Y-21569089D01*
X5328315Y-21569089D02*
X5318791Y-21588136D01*
X5318791Y-21588136D02*
X5309268Y-21597660D01*
X5309268Y-21597660D02*
X5290220Y-21607184D01*
X5290220Y-21607184D02*
X5233077Y-21607184D01*
X5233077Y-21607184D02*
X5214030Y-21597660D01*
X5214030Y-21597660D02*
X5204506Y-21588136D01*
X5566411Y-21607184D02*
X5566411Y-21407184D01*
X5652125Y-21607184D02*
X5652125Y-21502422D01*
X5652125Y-21502422D02*
X5642601Y-21483374D01*
X5642601Y-21483374D02*
X5623553Y-21473850D01*
X5623553Y-21473850D02*
X5594982Y-21473850D01*
X5594982Y-21473850D02*
X5575934Y-21483374D01*
X5575934Y-21483374D02*
X5566411Y-21492898D01*
X5775934Y-21607184D02*
X5756887Y-21597660D01*
X5756887Y-21597660D02*
X5747363Y-21588136D01*
X5747363Y-21588136D02*
X5737839Y-21569089D01*
X5737839Y-21569089D02*
X5737839Y-21511946D01*
X5737839Y-21511946D02*
X5747363Y-21492898D01*
X5747363Y-21492898D02*
X5756887Y-21483374D01*
X5756887Y-21483374D02*
X5775934Y-21473850D01*
X5775934Y-21473850D02*
X5804506Y-21473850D01*
X5804506Y-21473850D02*
X5823553Y-21483374D01*
X5823553Y-21483374D02*
X5833077Y-21492898D01*
X5833077Y-21492898D02*
X5842601Y-21511946D01*
X5842601Y-21511946D02*
X5842601Y-21569089D01*
X5842601Y-21569089D02*
X5833077Y-21588136D01*
X5833077Y-21588136D02*
X5823553Y-21597660D01*
X5823553Y-21597660D02*
X5804506Y-21607184D01*
X5804506Y-21607184D02*
X5775934Y-21607184D01*
X5956887Y-21607184D02*
X5937839Y-21597660D01*
X5937839Y-21597660D02*
X5928315Y-21578612D01*
X5928315Y-21578612D02*
X5928315Y-21407184D01*
X6109268Y-21597660D02*
X6090220Y-21607184D01*
X6090220Y-21607184D02*
X6052125Y-21607184D01*
X6052125Y-21607184D02*
X6033077Y-21597660D01*
X6033077Y-21597660D02*
X6023553Y-21578612D01*
X6023553Y-21578612D02*
X6023553Y-21502422D01*
X6023553Y-21502422D02*
X6033077Y-21483374D01*
X6033077Y-21483374D02*
X6052125Y-21473850D01*
X6052125Y-21473850D02*
X6090220Y-21473850D01*
X6090220Y-21473850D02*
X6109268Y-21483374D01*
X6109268Y-21483374D02*
X6118791Y-21502422D01*
X6118791Y-21502422D02*
X6118791Y-21521470D01*
X6118791Y-21521470D02*
X6023553Y-21540517D01*
X6194982Y-21597660D02*
X6214030Y-21607184D01*
X6214030Y-21607184D02*
X6252125Y-21607184D01*
X6252125Y-21607184D02*
X6271172Y-21597660D01*
X6271172Y-21597660D02*
X6280696Y-21578612D01*
X6280696Y-21578612D02*
X6280696Y-21569089D01*
X6280696Y-21569089D02*
X6271172Y-21550041D01*
X6271172Y-21550041D02*
X6252125Y-21540517D01*
X6252125Y-21540517D02*
X6223553Y-21540517D01*
X6223553Y-21540517D02*
X6204506Y-21530993D01*
X6204506Y-21530993D02*
X6194982Y-21511946D01*
X6194982Y-21511946D02*
X6194982Y-21502422D01*
X6194982Y-21502422D02*
X6204506Y-21483374D01*
X6204506Y-21483374D02*
X6223553Y-21473850D01*
X6223553Y-21473850D02*
X6252125Y-21473850D01*
X6252125Y-21473850D02*
X6271172Y-21483374D01*
X6347363Y-21683374D02*
X6356887Y-21673850D01*
X6356887Y-21673850D02*
X6375934Y-21645279D01*
X6375934Y-21645279D02*
X6385458Y-21626231D01*
X6385458Y-21626231D02*
X6394982Y-21597660D01*
X6394982Y-21597660D02*
X6404506Y-21550041D01*
X6404506Y-21550041D02*
X6404506Y-21511946D01*
X6404506Y-21511946D02*
X6394982Y-21464327D01*
X6394982Y-21464327D02*
X6385458Y-21435755D01*
X6385458Y-21435755D02*
X6375934Y-21416708D01*
X6375934Y-21416708D02*
X6356887Y-21388136D01*
X6356887Y-21388136D02*
X6347363Y-21378612D01*
X6709268Y-21683374D02*
X6699744Y-21673850D01*
X6699744Y-21673850D02*
X6680696Y-21645279D01*
X6680696Y-21645279D02*
X6671172Y-21626231D01*
X6671172Y-21626231D02*
X6661649Y-21597660D01*
X6661649Y-21597660D02*
X6652125Y-21550041D01*
X6652125Y-21550041D02*
X6652125Y-21511946D01*
X6652125Y-21511946D02*
X6661649Y-21464327D01*
X6661649Y-21464327D02*
X6671172Y-21435755D01*
X6671172Y-21435755D02*
X6680696Y-21416708D01*
X6680696Y-21416708D02*
X6699744Y-21388136D01*
X6699744Y-21388136D02*
X6709268Y-21378612D01*
X6785458Y-21473850D02*
X6785458Y-21607184D01*
X6785458Y-21492898D02*
X6794982Y-21483374D01*
X6794982Y-21483374D02*
X6814030Y-21473850D01*
X6814030Y-21473850D02*
X6842601Y-21473850D01*
X6842601Y-21473850D02*
X6861649Y-21483374D01*
X6861649Y-21483374D02*
X6871172Y-21502422D01*
X6871172Y-21502422D02*
X6871172Y-21607184D01*
X6994982Y-21607184D02*
X6975934Y-21597660D01*
X6975934Y-21597660D02*
X6966411Y-21588136D01*
X6966411Y-21588136D02*
X6956887Y-21569089D01*
X6956887Y-21569089D02*
X6956887Y-21511946D01*
X6956887Y-21511946D02*
X6966411Y-21492898D01*
X6966411Y-21492898D02*
X6975934Y-21483374D01*
X6975934Y-21483374D02*
X6994982Y-21473850D01*
X6994982Y-21473850D02*
X7023553Y-21473850D01*
X7023553Y-21473850D02*
X7042601Y-21483374D01*
X7042601Y-21483374D02*
X7052125Y-21492898D01*
X7052125Y-21492898D02*
X7061649Y-21511946D01*
X7061649Y-21511946D02*
X7061649Y-21569089D01*
X7061649Y-21569089D02*
X7052125Y-21588136D01*
X7052125Y-21588136D02*
X7042601Y-21597660D01*
X7042601Y-21597660D02*
X7023553Y-21607184D01*
X7023553Y-21607184D02*
X6994982Y-21607184D01*
X7118792Y-21473850D02*
X7194982Y-21473850D01*
X7147363Y-21407184D02*
X7147363Y-21578612D01*
X7147363Y-21578612D02*
X7156887Y-21597660D01*
X7156887Y-21597660D02*
X7175934Y-21607184D01*
X7175934Y-21607184D02*
X7194982Y-21607184D01*
X7414030Y-21473850D02*
X7414030Y-21673850D01*
X7414030Y-21483374D02*
X7433077Y-21473850D01*
X7433077Y-21473850D02*
X7471173Y-21473850D01*
X7471173Y-21473850D02*
X7490220Y-21483374D01*
X7490220Y-21483374D02*
X7499744Y-21492898D01*
X7499744Y-21492898D02*
X7509268Y-21511946D01*
X7509268Y-21511946D02*
X7509268Y-21569089D01*
X7509268Y-21569089D02*
X7499744Y-21588136D01*
X7499744Y-21588136D02*
X7490220Y-21597660D01*
X7490220Y-21597660D02*
X7471173Y-21607184D01*
X7471173Y-21607184D02*
X7433077Y-21607184D01*
X7433077Y-21607184D02*
X7414030Y-21597660D01*
X7623553Y-21607184D02*
X7604506Y-21597660D01*
X7604506Y-21597660D02*
X7594982Y-21578612D01*
X7594982Y-21578612D02*
X7594982Y-21407184D01*
X7785458Y-21607184D02*
X7785458Y-21502422D01*
X7785458Y-21502422D02*
X7775934Y-21483374D01*
X7775934Y-21483374D02*
X7756887Y-21473850D01*
X7756887Y-21473850D02*
X7718792Y-21473850D01*
X7718792Y-21473850D02*
X7699744Y-21483374D01*
X7785458Y-21597660D02*
X7766411Y-21607184D01*
X7766411Y-21607184D02*
X7718792Y-21607184D01*
X7718792Y-21607184D02*
X7699744Y-21597660D01*
X7699744Y-21597660D02*
X7690220Y-21578612D01*
X7690220Y-21578612D02*
X7690220Y-21559565D01*
X7690220Y-21559565D02*
X7699744Y-21540517D01*
X7699744Y-21540517D02*
X7718792Y-21530993D01*
X7718792Y-21530993D02*
X7766411Y-21530993D01*
X7766411Y-21530993D02*
X7785458Y-21521470D01*
X7852125Y-21473850D02*
X7928315Y-21473850D01*
X7880696Y-21407184D02*
X7880696Y-21578612D01*
X7880696Y-21578612D02*
X7890220Y-21597660D01*
X7890220Y-21597660D02*
X7909268Y-21607184D01*
X7909268Y-21607184D02*
X7928315Y-21607184D01*
X8071173Y-21597660D02*
X8052125Y-21607184D01*
X8052125Y-21607184D02*
X8014030Y-21607184D01*
X8014030Y-21607184D02*
X7994982Y-21597660D01*
X7994982Y-21597660D02*
X7985458Y-21578612D01*
X7985458Y-21578612D02*
X7985458Y-21502422D01*
X7985458Y-21502422D02*
X7994982Y-21483374D01*
X7994982Y-21483374D02*
X8014030Y-21473850D01*
X8014030Y-21473850D02*
X8052125Y-21473850D01*
X8052125Y-21473850D02*
X8071173Y-21483374D01*
X8071173Y-21483374D02*
X8080696Y-21502422D01*
X8080696Y-21502422D02*
X8080696Y-21521470D01*
X8080696Y-21521470D02*
X7985458Y-21540517D01*
X8252125Y-21607184D02*
X8252125Y-21407184D01*
X8252125Y-21597660D02*
X8233077Y-21607184D01*
X8233077Y-21607184D02*
X8194982Y-21607184D01*
X8194982Y-21607184D02*
X8175934Y-21597660D01*
X8175934Y-21597660D02*
X8166411Y-21588136D01*
X8166411Y-21588136D02*
X8156887Y-21569089D01*
X8156887Y-21569089D02*
X8156887Y-21511946D01*
X8156887Y-21511946D02*
X8166411Y-21492898D01*
X8166411Y-21492898D02*
X8175934Y-21483374D01*
X8175934Y-21483374D02*
X8194982Y-21473850D01*
X8194982Y-21473850D02*
X8233077Y-21473850D01*
X8233077Y-21473850D02*
X8252125Y-21483374D01*
X8328315Y-21683374D02*
X8337839Y-21673850D01*
X8337839Y-21673850D02*
X8356887Y-21645279D01*
X8356887Y-21645279D02*
X8366411Y-21626231D01*
X8366411Y-21626231D02*
X8375934Y-21597660D01*
X8375934Y-21597660D02*
X8385458Y-21550041D01*
X8385458Y-21550041D02*
X8385458Y-21511946D01*
X8385458Y-21511946D02*
X8375934Y-21464327D01*
X8375934Y-21464327D02*
X8366411Y-21435755D01*
X8366411Y-21435755D02*
X8356887Y-21416708D01*
X8356887Y-21416708D02*
X8337839Y-21388136D01*
X8337839Y-21388136D02*
X8328315Y-21378612D01*
M02*
