%TF.GenerationSoftware,KiCad,Pcbnew,9.0.4*%
%TF.CreationDate,2025-09-16T15:39:33-04:00*%
%TF.ProjectId,mini-lhc-display,6d696e69-2d6c-4686-932d-646973706c61,rev?*%
%TF.SameCoordinates,Original*%
%TF.FileFunction,Soldermask,Bot*%
%TF.FilePolarity,Negative*%
%FSLAX46Y46*%
G04 Gerber Fmt 4.6, Leading zero omitted, Abs format (unit mm)*
G04 Created by KiCad (PCBNEW 9.0.4) date 2025-09-16 15:39:33*
%MOMM*%
%LPD*%
G01*
G04 APERTURE LIST*
G04 Aperture macros list*
%AMRoundRect*
0 Rectangle with rounded corners*
0 $1 Rounding radius*
0 $2 $3 $4 $5 $6 $7 $8 $9 X,Y pos of 4 corners*
0 Add a 4 corners polygon primitive as box body*
4,1,4,$2,$3,$4,$5,$6,$7,$8,$9,$2,$3,0*
0 Add four circle primitives for the rounded corners*
1,1,$1+$1,$2,$3*
1,1,$1+$1,$4,$5*
1,1,$1+$1,$6,$7*
1,1,$1+$1,$8,$9*
0 Add four rect primitives between the rounded corners*
20,1,$1+$1,$2,$3,$4,$5,0*
20,1,$1+$1,$4,$5,$6,$7,0*
20,1,$1+$1,$6,$7,$8,$9,0*
20,1,$1+$1,$8,$9,$2,$3,0*%
G04 Aperture macros list end*
%ADD10C,1.905000*%
%ADD11C,3.600000*%
%ADD12C,5.600000*%
%ADD13R,1.524000X1.524000*%
%ADD14C,1.524000*%
%ADD15RoundRect,0.225000X0.250000X-0.225000X0.250000X0.225000X-0.250000X0.225000X-0.250000X-0.225000X0*%
%ADD16RoundRect,0.200000X0.200000X0.275000X-0.200000X0.275000X-0.200000X-0.275000X0.200000X-0.275000X0*%
%ADD17RoundRect,0.225000X-0.250000X0.225000X-0.250000X-0.225000X0.250000X-0.225000X0.250000X0.225000X0*%
%ADD18R,2.000000X2.000000*%
%ADD19RoundRect,0.150000X0.512500X0.150000X-0.512500X0.150000X-0.512500X-0.150000X0.512500X-0.150000X0*%
%ADD20C,0.990600*%
%ADD21C,0.787400*%
%ADD22RoundRect,0.100000X0.712500X0.100000X-0.712500X0.100000X-0.712500X-0.100000X0.712500X-0.100000X0*%
%ADD23R,3.000000X3.000000*%
%ADD24RoundRect,0.225000X0.225000X0.250000X-0.225000X0.250000X-0.225000X-0.250000X0.225000X-0.250000X0*%
%ADD25RoundRect,0.225000X-0.225000X-0.250000X0.225000X-0.250000X0.225000X0.250000X-0.225000X0.250000X0*%
%ADD26RoundRect,0.100000X0.100000X-0.637500X0.100000X0.637500X-0.100000X0.637500X-0.100000X-0.637500X0*%
%ADD27RoundRect,0.200000X-0.200000X-0.275000X0.200000X-0.275000X0.200000X0.275000X-0.200000X0.275000X0*%
%ADD28R,1.500000X0.550000*%
%ADD29R,0.550000X1.500000*%
%ADD30R,0.300000X1.550000*%
%ADD31R,6.350000X3.610000*%
%ADD32RoundRect,0.150000X-0.150000X0.587500X-0.150000X-0.587500X0.150000X-0.587500X0.150000X0.587500X0*%
%ADD33RoundRect,0.250001X-1.099999X-3.499999X1.099999X-3.499999X1.099999X3.499999X-1.099999X3.499999X0*%
%ADD34RoundRect,0.114000X0.266000X-2.261000X0.266000X2.261000X-0.266000X2.261000X-0.266000X-2.261000X0*%
%ADD35RoundRect,0.336000X0.784000X-1.419000X0.784000X1.419000X-0.784000X1.419000X-0.784000X-1.419000X0*%
%ADD36R,1.550000X1.300000*%
%ADD37RoundRect,0.200000X-0.275000X0.200000X-0.275000X-0.200000X0.275000X-0.200000X0.275000X0.200000X0*%
%ADD38R,1.550000X0.300000*%
%ADD39R,3.610000X6.350000*%
G04 APERTURE END LIST*
D10*
%TO.C,DSP5*%
X86995000Y-110998000D03*
X89535000Y-110998000D03*
X92075000Y-110998000D03*
X94615000Y-110998000D03*
X97175291Y-110998000D03*
X99695000Y-110998000D03*
X102235000Y-110998000D03*
X104775000Y-110998000D03*
X104775000Y-100838000D03*
X102235000Y-100838000D03*
X99695000Y-100838000D03*
X97175291Y-100838000D03*
X94615000Y-100838000D03*
X92075000Y-100838000D03*
X89535000Y-100838000D03*
X86995000Y-100838000D03*
%TD*%
D11*
%TO.C,REF\u002A\u002A*%
X170434000Y-28194000D03*
D12*
X170434000Y-28194000D03*
%TD*%
D10*
%TO.C,DSP4*%
X99695000Y-92087500D03*
X102235000Y-92087500D03*
X104775000Y-92087500D03*
X107315000Y-92087500D03*
X109855000Y-92087500D03*
X112395000Y-92087500D03*
X122555000Y-92087500D03*
X125095000Y-92087500D03*
X127635000Y-92087500D03*
X130175000Y-92087500D03*
X132715000Y-92087500D03*
X135255000Y-92087500D03*
X135255000Y-84467500D03*
X132715000Y-84467500D03*
X130175000Y-84467500D03*
X127635000Y-84467500D03*
X125095000Y-84467500D03*
X122555000Y-84467500D03*
X112395000Y-84467500D03*
X109855000Y-84467500D03*
X107315000Y-84467500D03*
X104775000Y-84467500D03*
X102235000Y-84467500D03*
X99695000Y-84467500D03*
%TD*%
%TO.C,DSP3*%
X56515000Y-92087500D03*
X59055000Y-92087500D03*
X61595000Y-92087500D03*
X64135000Y-92087500D03*
X66675000Y-92087500D03*
X69215000Y-92087500D03*
X79375000Y-92087500D03*
X81915000Y-92087500D03*
X84455000Y-92087500D03*
X86995000Y-92087500D03*
X89535000Y-92087500D03*
X92075000Y-92087500D03*
X92075000Y-84467500D03*
X89535000Y-84467500D03*
X86995000Y-84467500D03*
X84455000Y-84467500D03*
X81915000Y-84467500D03*
X79375000Y-84467500D03*
X69215000Y-84467500D03*
X66675000Y-84467500D03*
X64135000Y-84467500D03*
X61595000Y-84467500D03*
X59055000Y-84467500D03*
X56515000Y-84467500D03*
%TD*%
D13*
%TO.C,U10*%
X71755000Y-157782500D03*
D14*
X74295000Y-157782500D03*
X76835000Y-157782500D03*
X114935000Y-157782500D03*
X117475000Y-157782500D03*
X120015000Y-157782500D03*
X120015000Y-114602500D03*
X117475000Y-114602500D03*
X114935000Y-114602500D03*
X112395000Y-114602500D03*
X109855000Y-114602500D03*
X107315000Y-114602500D03*
X104775000Y-114602500D03*
X102235000Y-114602500D03*
X99695000Y-114602500D03*
X97155000Y-114602500D03*
X94615000Y-114602500D03*
X92075000Y-114602500D03*
X89535000Y-114602500D03*
X86995000Y-114602500D03*
X84455000Y-114602500D03*
X81915000Y-114602500D03*
X79375000Y-114602500D03*
X76835000Y-114602500D03*
X74295000Y-114602500D03*
X71755000Y-114602500D03*
%TD*%
D11*
%TO.C,REF\u002A\u002A*%
X22098000Y-28194000D03*
D12*
X22098000Y-28194000D03*
%TD*%
D10*
%TO.C,DSP2*%
X99695000Y-80276500D03*
X102235000Y-80276500D03*
X104775000Y-80276500D03*
X107315000Y-80276500D03*
X109855000Y-80276500D03*
X112395000Y-80276500D03*
X122555000Y-80276500D03*
X125095000Y-80276500D03*
X127635000Y-80276500D03*
X130175000Y-80276500D03*
X132715000Y-80276500D03*
X135255000Y-80276500D03*
X135255000Y-72656500D03*
X132715000Y-72656500D03*
X130175000Y-72656500D03*
X127635000Y-72656500D03*
X125095000Y-72656500D03*
X122555000Y-72656500D03*
X112395000Y-72656500D03*
X109855000Y-72656500D03*
X107315000Y-72656500D03*
X104775000Y-72656500D03*
X102235000Y-72656500D03*
X99695000Y-72656500D03*
%TD*%
D11*
%TO.C,REF\u002A\u002A*%
X96283641Y-165227000D03*
D12*
X96283641Y-165227000D03*
%TD*%
D10*
%TO.C,DSP1*%
X56515000Y-80276500D03*
X59055000Y-80276500D03*
X61595000Y-80276500D03*
X64135000Y-80276500D03*
X66675000Y-80276500D03*
X69215000Y-80276500D03*
X79375000Y-80276500D03*
X81915000Y-80276500D03*
X84455000Y-80276500D03*
X86995000Y-80276500D03*
X89535000Y-80276500D03*
X92075000Y-80276500D03*
X92075000Y-72656500D03*
X89535000Y-72656500D03*
X86995000Y-72656500D03*
X84455000Y-72656500D03*
X81915000Y-72656500D03*
X79375000Y-72656500D03*
X69215000Y-72656500D03*
X66675000Y-72656500D03*
X64135000Y-72656500D03*
X61595000Y-72656500D03*
X59055000Y-72656500D03*
X56515000Y-72656500D03*
%TD*%
D15*
%TO.C,C9*%
X48387000Y-83947000D03*
X48387000Y-82397000D03*
%TD*%
D16*
%TO.C,R9*%
X25107500Y-173022695D03*
X23457500Y-173022695D03*
%TD*%
D17*
%TO.C,C13*%
X25059170Y-168409767D03*
X25059170Y-169959767D03*
%TD*%
D18*
%TO.C,TP18*%
X88392000Y-103886000D03*
%TD*%
D19*
%TO.C,U2*%
X46583300Y-82512551D03*
X46583300Y-83462551D03*
X46583300Y-84412551D03*
X44308300Y-84412551D03*
X44308300Y-83462551D03*
X44308300Y-82512551D03*
%TD*%
D18*
%TO.C,TP4*%
X37338000Y-174893000D03*
%TD*%
D20*
%TO.C,CN2*%
X120650000Y-88277500D03*
X115570000Y-89293500D03*
X115570000Y-87261500D03*
D21*
X119380000Y-88912500D03*
X119380000Y-87642500D03*
X118110000Y-88912500D03*
X118110000Y-87642500D03*
X116840000Y-88912500D03*
X116840000Y-87642500D03*
%TD*%
D22*
%TO.C,U7*%
X151354500Y-83756500D03*
X151354500Y-84391500D03*
X151354500Y-85026500D03*
X151354500Y-85661500D03*
X151354500Y-86296500D03*
X151354500Y-86931500D03*
X151354500Y-87566500D03*
X151354500Y-88201500D03*
X151354500Y-88836500D03*
X151354500Y-89471500D03*
X151354500Y-90106500D03*
X151354500Y-90741500D03*
X146079500Y-90741500D03*
X146079500Y-90106500D03*
X146079500Y-89471500D03*
X146079500Y-88836500D03*
X146079500Y-88201500D03*
X146079500Y-87566500D03*
X146079500Y-86931500D03*
X146079500Y-86296500D03*
X146079500Y-85661500D03*
X146079500Y-85026500D03*
X146079500Y-84391500D03*
X146079500Y-83756500D03*
%TD*%
D18*
%TO.C,TP22*%
X129667000Y-108839000D03*
%TD*%
D23*
%TO.C,TP3*%
X56134000Y-181737000D03*
%TD*%
D17*
%TO.C,C11*%
X51435000Y-82397000D03*
X51435000Y-83947000D03*
%TD*%
D24*
%TO.C,C1*%
X105423000Y-137081500D03*
X103873000Y-137081500D03*
%TD*%
D18*
%TO.C,TP20*%
X82423000Y-107442000D03*
%TD*%
%TO.C,TP11*%
X76708000Y-119682500D03*
%TD*%
D15*
%TO.C,C25*%
X104775000Y-118806500D03*
X104775000Y-117256500D03*
%TD*%
D17*
%TO.C,C21*%
X114935000Y-116748500D03*
X114935000Y-118298500D03*
%TD*%
D24*
%TO.C,C16*%
X157747000Y-163322000D03*
X156197000Y-163322000D03*
%TD*%
D25*
%TO.C,C15*%
X52692000Y-144907000D03*
X54242000Y-144907000D03*
%TD*%
D17*
%TO.C,C8*%
X42545000Y-79857000D03*
X42545000Y-81407000D03*
%TD*%
D24*
%TO.C,C27*%
X25057500Y-171496167D03*
X23507500Y-171496167D03*
%TD*%
D26*
%TO.C,U4*%
X84840000Y-104462500D03*
X84190000Y-104462500D03*
X83540000Y-104462500D03*
X82890000Y-104462500D03*
X82240000Y-104462500D03*
X81590000Y-104462500D03*
X80940000Y-104462500D03*
X80290000Y-104462500D03*
X79640000Y-104462500D03*
X78990000Y-104462500D03*
X78990000Y-98737500D03*
X79640000Y-98737500D03*
X80290000Y-98737500D03*
X80940000Y-98737500D03*
X81590000Y-98737500D03*
X82240000Y-98737500D03*
X82890000Y-98737500D03*
X83540000Y-98737500D03*
X84190000Y-98737500D03*
X84840000Y-98737500D03*
%TD*%
D17*
%TO.C,C20*%
X117475000Y-116748500D03*
X117475000Y-118298500D03*
%TD*%
%TO.C,C23*%
X109855000Y-116748500D03*
X109855000Y-118298500D03*
%TD*%
D27*
%TO.C,R1*%
X123190000Y-89916000D03*
X124840000Y-89916000D03*
%TD*%
D18*
%TO.C,TP25*%
X37338000Y-182880000D03*
%TD*%
%TO.C,TP15*%
X118110000Y-129667000D03*
%TD*%
D28*
%TO.C,U1*%
X101985000Y-132205000D03*
X101985000Y-133005000D03*
X101985000Y-133805000D03*
X101985000Y-134605000D03*
X101985000Y-135405000D03*
X101985000Y-136205000D03*
X101985000Y-137005000D03*
X101985000Y-137805000D03*
X101985000Y-138605000D03*
X101985000Y-139405000D03*
X101985000Y-140205000D03*
D29*
X100285000Y-141905000D03*
X99485000Y-141905000D03*
X98685000Y-141905000D03*
X97885000Y-141905000D03*
X97085000Y-141905000D03*
X96285000Y-141905000D03*
X95485000Y-141905000D03*
X94685000Y-141905000D03*
X93885000Y-141905000D03*
X93085000Y-141905000D03*
X92285000Y-141905000D03*
D28*
X90585000Y-140205000D03*
X90585000Y-139405000D03*
X90585000Y-138605000D03*
X90585000Y-137805000D03*
X90585000Y-137005000D03*
X90585000Y-136205000D03*
X90585000Y-135405000D03*
X90585000Y-134605000D03*
X90585000Y-133805000D03*
X90585000Y-133005000D03*
X90585000Y-132205000D03*
D29*
X92285000Y-130505000D03*
X93085000Y-130505000D03*
X93885000Y-130505000D03*
X94685000Y-130505000D03*
X95485000Y-130505000D03*
X96285000Y-130505000D03*
X97085000Y-130505000D03*
X97885000Y-130505000D03*
X98685000Y-130505000D03*
X99485000Y-130505000D03*
X100285000Y-130505000D03*
%TD*%
D17*
%TO.C,C24*%
X92075000Y-116748500D03*
X92075000Y-118298500D03*
%TD*%
D18*
%TO.C,TP23*%
X132715000Y-108839000D03*
%TD*%
D26*
%TO.C,U3*%
X77220000Y-104462500D03*
X76570000Y-104462500D03*
X75920000Y-104462500D03*
X75270000Y-104462500D03*
X74620000Y-104462500D03*
X73970000Y-104462500D03*
X73320000Y-104462500D03*
X72670000Y-104462500D03*
X72020000Y-104462500D03*
X71370000Y-104462500D03*
X71370000Y-98737500D03*
X72020000Y-98737500D03*
X72670000Y-98737500D03*
X73320000Y-98737500D03*
X73970000Y-98737500D03*
X74620000Y-98737500D03*
X75270000Y-98737500D03*
X75920000Y-98737500D03*
X76570000Y-98737500D03*
X77220000Y-98737500D03*
%TD*%
D24*
%TO.C,C26*%
X42558000Y-82918000D03*
X41008000Y-82918000D03*
%TD*%
D17*
%TO.C,C17*%
X99695000Y-116748500D03*
X99695000Y-118298500D03*
%TD*%
D18*
%TO.C,TP14*%
X63246000Y-126619000D03*
%TD*%
%TO.C,TP7*%
X73279000Y-119682500D03*
%TD*%
D25*
%TO.C,C4*%
X123240000Y-88392000D03*
X124790000Y-88392000D03*
%TD*%
D24*
%TO.C,C2*%
X97676000Y-143939500D03*
X96126000Y-143939500D03*
%TD*%
D18*
%TO.C,TP1*%
X37264583Y-166212967D03*
%TD*%
D16*
%TO.C,R2*%
X124840000Y-86868000D03*
X123190000Y-86868000D03*
%TD*%
%TO.C,R3*%
X147256000Y-92837000D03*
X145606000Y-92837000D03*
%TD*%
D30*
%TO.C,U9*%
X157461000Y-153923600D03*
X157961000Y-153923600D03*
X158461000Y-153923600D03*
X158961000Y-153923600D03*
X159461000Y-153923600D03*
X159961000Y-153923600D03*
X160461000Y-153923600D03*
X160961000Y-153923600D03*
X161461000Y-153923600D03*
X161961000Y-153923600D03*
X162461000Y-153923600D03*
X162961000Y-153923600D03*
X163461000Y-153923600D03*
X163961000Y-153923600D03*
X164461000Y-153923600D03*
X164961000Y-153923600D03*
X165461000Y-153923600D03*
X165961000Y-153923600D03*
X166461000Y-153923600D03*
X166961000Y-153923600D03*
X167461000Y-153923600D03*
X167961000Y-153923600D03*
X168461000Y-153923600D03*
X168961000Y-153923600D03*
X169461000Y-153923600D03*
X169961000Y-153923600D03*
X170461000Y-153923600D03*
X170961000Y-153923600D03*
X170961000Y-161423600D03*
X170461000Y-161423600D03*
X169961000Y-161423600D03*
X169461000Y-161423600D03*
X168961000Y-161423600D03*
X168461000Y-161423600D03*
X167961000Y-161423600D03*
X167461000Y-161423600D03*
X166961000Y-161423600D03*
X166461000Y-161423600D03*
X165961000Y-161423600D03*
X165461000Y-161423600D03*
X164961000Y-161423600D03*
X164461000Y-161423600D03*
X163961000Y-161423600D03*
X163461000Y-161423600D03*
X162961000Y-161423600D03*
X162461000Y-161423600D03*
X161961000Y-161423600D03*
X161461000Y-161423600D03*
X160961000Y-161423600D03*
X160461000Y-161423600D03*
X159961000Y-161423600D03*
X159461000Y-161423600D03*
X158961000Y-161423600D03*
X158461000Y-161423600D03*
X157961000Y-161423600D03*
X157461000Y-161423600D03*
D31*
X164211000Y-157673600D03*
%TD*%
D18*
%TO.C,TP17*%
X69088000Y-101346000D03*
%TD*%
D26*
%TO.C,U5*%
X64774000Y-104462500D03*
X64124000Y-104462500D03*
X63474000Y-104462500D03*
X62824000Y-104462500D03*
X62174000Y-104462500D03*
X61524000Y-104462500D03*
X60874000Y-104462500D03*
X60224000Y-104462500D03*
X59574000Y-104462500D03*
X58924000Y-104462500D03*
X58924000Y-98737500D03*
X59574000Y-98737500D03*
X60224000Y-98737500D03*
X60874000Y-98737500D03*
X61524000Y-98737500D03*
X62174000Y-98737500D03*
X62824000Y-98737500D03*
X63474000Y-98737500D03*
X64124000Y-98737500D03*
X64774000Y-98737500D03*
%TD*%
D18*
%TO.C,TP12*%
X173355000Y-153797000D03*
%TD*%
D19*
%TO.C,U6*%
X29097500Y-171122695D03*
X29097500Y-172072695D03*
X29097500Y-173022695D03*
X26822500Y-173022695D03*
X26822500Y-172072695D03*
X26822500Y-171122695D03*
%TD*%
D17*
%TO.C,C7*%
X66167000Y-98933000D03*
X66167000Y-100483000D03*
%TD*%
%TO.C,C18*%
X94615000Y-116748500D03*
X94615000Y-118298500D03*
%TD*%
D32*
%TO.C,Q1*%
X113985000Y-153875500D03*
X115885000Y-153875500D03*
X114935000Y-155750500D03*
%TD*%
D27*
%TO.C,R8*%
X23457500Y-174557557D03*
X25107500Y-174557557D03*
%TD*%
D33*
%TO.C,L2*%
X44979000Y-77203000D03*
X50779000Y-77203000D03*
%TD*%
D18*
%TO.C,TP13*%
X59944000Y-123317000D03*
%TD*%
D16*
%TO.C,R11*%
X42608000Y-84442000D03*
X40958000Y-84442000D03*
%TD*%
D15*
%TO.C,C10*%
X30903509Y-172562967D03*
X30903509Y-171012967D03*
%TD*%
%TO.C,C14*%
X145796000Y-81814000D03*
X145796000Y-80264000D03*
%TD*%
D17*
%TO.C,C19*%
X120015000Y-116748500D03*
X120015000Y-118298500D03*
%TD*%
D34*
%TO.C,CN1*%
X30282620Y-179762151D03*
X29012620Y-179762151D03*
X27742620Y-179762151D03*
X26472620Y-179762151D03*
X25202620Y-179762151D03*
X23932620Y-179762151D03*
X22662620Y-179762151D03*
X21392620Y-179762151D03*
D35*
X34297620Y-191942151D03*
X17377620Y-191942151D03*
%TD*%
D25*
%TO.C,C3*%
X95745000Y-128699500D03*
X97295000Y-128699500D03*
%TD*%
D36*
%TO.C,SW1*%
X122174000Y-105736000D03*
X114214000Y-105736000D03*
X122174000Y-110236000D03*
X114214000Y-110236000D03*
%TD*%
D33*
%TO.C,L1*%
X27520576Y-165831967D03*
X33320576Y-165831967D03*
%TD*%
D18*
%TO.C,TP24*%
X67183000Y-143002000D03*
%TD*%
D16*
%TO.C,R7*%
X115760000Y-152019000D03*
X114110000Y-152019000D03*
%TD*%
D18*
%TO.C,TP6*%
X118491000Y-152654000D03*
%TD*%
D37*
%TO.C,R6*%
X76835000Y-154242000D03*
X76835000Y-155892000D03*
%TD*%
D18*
%TO.C,TP10*%
X69850000Y-119682500D03*
%TD*%
D17*
%TO.C,C28*%
X49911000Y-82397000D03*
X49911000Y-83947000D03*
%TD*%
D18*
%TO.C,TP2*%
X50800000Y-70866000D03*
%TD*%
D27*
%TO.C,R10*%
X40958000Y-85966000D03*
X42608000Y-85966000D03*
%TD*%
D17*
%TO.C,C29*%
X32525840Y-171012967D03*
X32525840Y-172562967D03*
%TD*%
D38*
%TO.C,U8*%
X58614000Y-125711000D03*
X58614000Y-126211000D03*
X58614000Y-126711000D03*
X58614000Y-127211000D03*
X58614000Y-127711000D03*
X58614000Y-128211000D03*
X58614000Y-128711000D03*
X58614000Y-129211000D03*
X58614000Y-129711000D03*
X58614000Y-130211000D03*
X58614000Y-130711000D03*
X58614000Y-131211000D03*
X58614000Y-131711000D03*
X58614000Y-132211000D03*
X58614000Y-132711000D03*
X58614000Y-133211000D03*
X58614000Y-133711000D03*
X58614000Y-134211000D03*
X58614000Y-134711000D03*
X58614000Y-135211000D03*
X58614000Y-135711000D03*
X58614000Y-136211000D03*
X58614000Y-136711000D03*
X58614000Y-137211000D03*
X58614000Y-137711000D03*
X58614000Y-138211000D03*
X58614000Y-138711000D03*
X58614000Y-139211000D03*
X51114000Y-139211000D03*
X51114000Y-138711000D03*
X51114000Y-138211000D03*
X51114000Y-137711000D03*
X51114000Y-137211000D03*
X51114000Y-136711000D03*
X51114000Y-136211000D03*
X51114000Y-135711000D03*
X51114000Y-135211000D03*
X51114000Y-134711000D03*
X51114000Y-134211000D03*
X51114000Y-133711000D03*
X51114000Y-133211000D03*
X51114000Y-132711000D03*
X51114000Y-132211000D03*
X51114000Y-131711000D03*
X51114000Y-131211000D03*
X51114000Y-130711000D03*
X51114000Y-130211000D03*
X51114000Y-129711000D03*
X51114000Y-129211000D03*
X51114000Y-128711000D03*
X51114000Y-128211000D03*
X51114000Y-127711000D03*
X51114000Y-127211000D03*
X51114000Y-126711000D03*
X51114000Y-126211000D03*
X51114000Y-125711000D03*
D39*
X54864000Y-132461000D03*
%TD*%
D15*
%TO.C,C5*%
X77470000Y-96660000D03*
X77470000Y-95110000D03*
%TD*%
D37*
%TO.C,R4*%
X71755000Y-154242000D03*
X71755000Y-155892000D03*
%TD*%
D18*
%TO.C,TP5*%
X37338000Y-178943000D03*
%TD*%
%TO.C,TP19*%
X69088000Y-104394000D03*
%TD*%
%TO.C,TP9*%
X83185000Y-119682500D03*
%TD*%
D37*
%TO.C,R5*%
X74295000Y-154242000D03*
X74295000Y-155892000D03*
%TD*%
D18*
%TO.C,TP16*%
X63246000Y-123317000D03*
%TD*%
%TO.C,TP8*%
X80137000Y-119682500D03*
%TD*%
D17*
%TO.C,C22*%
X112395000Y-116761500D03*
X112395000Y-118311500D03*
%TD*%
D18*
%TO.C,TP21*%
X79375000Y-107442000D03*
%TD*%
D15*
%TO.C,C6*%
X86233000Y-98565000D03*
X86233000Y-97015000D03*
%TD*%
D17*
%TO.C,C12*%
X34089583Y-171012967D03*
X34089583Y-172562967D03*
%TD*%
M02*
