%TF.GenerationSoftware,KiCad,Pcbnew,9.0.4*%
%TF.CreationDate,2025-09-16T13:45:21-04:00*%
%TF.ProjectId,cern-display-controller,6365726e-2d64-4697-9370-6c61792d636f,rev?*%
%TF.SameCoordinates,Original*%
%TF.FileFunction,Legend,Bot*%
%TF.FilePolarity,Positive*%
%FSLAX46Y46*%
G04 Gerber Fmt 4.6, Leading zero omitted, Abs format (unit mm)*
G04 Created by KiCad (PCBNEW 9.0.4) date 2025-09-16 13:45:21*
%MOMM*%
%LPD*%
G01*
G04 APERTURE LIST*
%ADD10C,0.100000*%
%ADD11C,0.190500*%
%ADD12C,0.177800*%
%ADD13C,0.254000*%
%ADD14C,0.203200*%
%ADD15C,0.355600*%
%ADD16C,0.406400*%
%ADD17C,0.304800*%
%ADD18C,0.150000*%
%ADD19C,0.120000*%
%ADD20C,0.010000*%
G04 APERTURE END LIST*
D10*
X133985000Y-94490000D02*
X137795000Y-94490000D01*
X137795000Y-98298000D01*
X133985000Y-98298000D01*
X133985000Y-94490000D01*
G36*
X133985000Y-94490000D02*
G01*
X137795000Y-94490000D01*
X137795000Y-98298000D01*
X133985000Y-98298000D01*
X133985000Y-94490000D01*
G37*
X133985000Y-103506000D02*
X137795000Y-103506000D01*
X137795000Y-107314000D01*
X133985000Y-107314000D01*
X133985000Y-103506000D01*
G36*
X133985000Y-103506000D02*
G01*
X137795000Y-103506000D01*
X137795000Y-107314000D01*
X133985000Y-107314000D01*
X133985000Y-103506000D01*
G37*
X150368000Y-85344000D02*
X149352000Y-85344000D01*
X149860000Y-84836000D01*
X150368000Y-85344000D01*
G36*
X150368000Y-85344000D02*
G01*
X149352000Y-85344000D01*
X149860000Y-84836000D01*
X150368000Y-85344000D01*
G37*
X173609000Y-121286000D02*
X188595000Y-121286000D01*
X188595000Y-126110000D01*
X173609000Y-126110000D01*
X173609000Y-121286000D01*
G36*
X173609000Y-121286000D02*
G01*
X188595000Y-121286000D01*
X188595000Y-126110000D01*
X173609000Y-126110000D01*
X173609000Y-121286000D01*
G37*
X142113000Y-103506000D02*
X145923000Y-103506000D01*
X145923000Y-107314000D01*
X142113000Y-107314000D01*
X142113000Y-103506000D01*
G36*
X142113000Y-103506000D02*
G01*
X145923000Y-103506000D01*
X145923000Y-107314000D01*
X142113000Y-107314000D01*
X142113000Y-103506000D01*
G37*
D11*
X128778000Y-90424000D02*
X148844000Y-90424000D01*
X148844000Y-109474000D01*
X128778000Y-109474000D01*
X128778000Y-90424000D01*
D10*
X142113000Y-94490000D02*
X145923000Y-94490000D01*
X145923000Y-98298000D01*
X142113000Y-98298000D01*
X142113000Y-94490000D01*
G36*
X142113000Y-94490000D02*
G01*
X145923000Y-94490000D01*
X145923000Y-98298000D01*
X142113000Y-98298000D01*
X142113000Y-94490000D01*
G37*
D12*
X149860000Y-86360000D02*
X149860000Y-85344000D01*
D13*
X140923847Y-96947542D02*
X139956228Y-96947542D01*
X141117371Y-97528113D02*
X140440037Y-95496113D01*
X140440037Y-95496113D02*
X139762704Y-97528113D01*
D14*
X147688904Y-86622483D02*
X147507475Y-86682959D01*
X147507475Y-86682959D02*
X147205094Y-86682959D01*
X147205094Y-86682959D02*
X147084142Y-86622483D01*
X147084142Y-86622483D02*
X147023666Y-86562006D01*
X147023666Y-86562006D02*
X146963189Y-86441054D01*
X146963189Y-86441054D02*
X146963189Y-86320102D01*
X146963189Y-86320102D02*
X147023666Y-86199149D01*
X147023666Y-86199149D02*
X147084142Y-86138673D01*
X147084142Y-86138673D02*
X147205094Y-86078197D01*
X147205094Y-86078197D02*
X147446999Y-86017721D01*
X147446999Y-86017721D02*
X147567951Y-85957244D01*
X147567951Y-85957244D02*
X147628428Y-85896768D01*
X147628428Y-85896768D02*
X147688904Y-85775816D01*
X147688904Y-85775816D02*
X147688904Y-85654863D01*
X147688904Y-85654863D02*
X147628428Y-85533911D01*
X147628428Y-85533911D02*
X147567951Y-85473435D01*
X147567951Y-85473435D02*
X147446999Y-85412959D01*
X147446999Y-85412959D02*
X147144618Y-85412959D01*
X147144618Y-85412959D02*
X146963189Y-85473435D01*
X145693189Y-86562006D02*
X145753665Y-86622483D01*
X145753665Y-86622483D02*
X145935094Y-86682959D01*
X145935094Y-86682959D02*
X146056046Y-86682959D01*
X146056046Y-86682959D02*
X146237475Y-86622483D01*
X146237475Y-86622483D02*
X146358427Y-86501530D01*
X146358427Y-86501530D02*
X146418904Y-86380578D01*
X146418904Y-86380578D02*
X146479380Y-86138673D01*
X146479380Y-86138673D02*
X146479380Y-85957244D01*
X146479380Y-85957244D02*
X146418904Y-85715340D01*
X146418904Y-85715340D02*
X146358427Y-85594387D01*
X146358427Y-85594387D02*
X146237475Y-85473435D01*
X146237475Y-85473435D02*
X146056046Y-85412959D01*
X146056046Y-85412959D02*
X145935094Y-85412959D01*
X145935094Y-85412959D02*
X145753665Y-85473435D01*
X145753665Y-85473435D02*
X145693189Y-85533911D01*
X144544142Y-86682959D02*
X145148904Y-86682959D01*
X145148904Y-86682959D02*
X145148904Y-85412959D01*
X144120809Y-86682959D02*
X144120809Y-85412959D01*
X143395094Y-86682959D02*
X143939380Y-85957244D01*
X143395094Y-85412959D02*
X144120809Y-86138673D01*
D15*
X141139333Y-92074712D02*
X140546667Y-92074712D01*
X140292667Y-93006045D02*
X141139333Y-93006045D01*
X141139333Y-93006045D02*
X141139333Y-91228045D01*
X141139333Y-91228045D02*
X140292667Y-91228045D01*
X138514666Y-92836712D02*
X138599333Y-92921379D01*
X138599333Y-92921379D02*
X138853333Y-93006045D01*
X138853333Y-93006045D02*
X139022666Y-93006045D01*
X139022666Y-93006045D02*
X139276666Y-92921379D01*
X139276666Y-92921379D02*
X139446000Y-92752045D01*
X139446000Y-92752045D02*
X139530666Y-92582712D01*
X139530666Y-92582712D02*
X139615333Y-92244045D01*
X139615333Y-92244045D02*
X139615333Y-91990045D01*
X139615333Y-91990045D02*
X139530666Y-91651379D01*
X139530666Y-91651379D02*
X139446000Y-91482045D01*
X139446000Y-91482045D02*
X139276666Y-91312712D01*
X139276666Y-91312712D02*
X139022666Y-91228045D01*
X139022666Y-91228045D02*
X138853333Y-91228045D01*
X138853333Y-91228045D02*
X138599333Y-91312712D01*
X138599333Y-91312712D02*
X138514666Y-91397379D01*
X137414000Y-91228045D02*
X137075333Y-91228045D01*
X137075333Y-91228045D02*
X136906000Y-91312712D01*
X136906000Y-91312712D02*
X136736666Y-91482045D01*
X136736666Y-91482045D02*
X136652000Y-91820712D01*
X136652000Y-91820712D02*
X136652000Y-92413379D01*
X136652000Y-92413379D02*
X136736666Y-92752045D01*
X136736666Y-92752045D02*
X136906000Y-92921379D01*
X136906000Y-92921379D02*
X137075333Y-93006045D01*
X137075333Y-93006045D02*
X137414000Y-93006045D01*
X137414000Y-93006045D02*
X137583333Y-92921379D01*
X137583333Y-92921379D02*
X137752666Y-92752045D01*
X137752666Y-92752045D02*
X137837333Y-92413379D01*
X137837333Y-92413379D02*
X137837333Y-91820712D01*
X137837333Y-91820712D02*
X137752666Y-91482045D01*
X137752666Y-91482045D02*
X137583333Y-91312712D01*
X137583333Y-91312712D02*
X137414000Y-91228045D01*
D14*
X156427714Y-86682959D02*
X156427714Y-85412959D01*
X156427714Y-85412959D02*
X156004380Y-86320102D01*
X156004380Y-86320102D02*
X155581047Y-85412959D01*
X155581047Y-85412959D02*
X155581047Y-86682959D01*
X154976285Y-86682959D02*
X154976285Y-85412959D01*
X154431999Y-86622483D02*
X154250570Y-86682959D01*
X154250570Y-86682959D02*
X153948189Y-86682959D01*
X153948189Y-86682959D02*
X153827237Y-86622483D01*
X153827237Y-86622483D02*
X153766761Y-86562006D01*
X153766761Y-86562006D02*
X153706284Y-86441054D01*
X153706284Y-86441054D02*
X153706284Y-86320102D01*
X153706284Y-86320102D02*
X153766761Y-86199149D01*
X153766761Y-86199149D02*
X153827237Y-86138673D01*
X153827237Y-86138673D02*
X153948189Y-86078197D01*
X153948189Y-86078197D02*
X154190094Y-86017721D01*
X154190094Y-86017721D02*
X154311046Y-85957244D01*
X154311046Y-85957244D02*
X154371523Y-85896768D01*
X154371523Y-85896768D02*
X154431999Y-85775816D01*
X154431999Y-85775816D02*
X154431999Y-85654863D01*
X154431999Y-85654863D02*
X154371523Y-85533911D01*
X154371523Y-85533911D02*
X154311046Y-85473435D01*
X154311046Y-85473435D02*
X154190094Y-85412959D01*
X154190094Y-85412959D02*
X153887713Y-85412959D01*
X153887713Y-85412959D02*
X153706284Y-85473435D01*
X152920094Y-85412959D02*
X152678189Y-85412959D01*
X152678189Y-85412959D02*
X152557237Y-85473435D01*
X152557237Y-85473435D02*
X152436284Y-85594387D01*
X152436284Y-85594387D02*
X152375808Y-85836292D01*
X152375808Y-85836292D02*
X152375808Y-86259625D01*
X152375808Y-86259625D02*
X152436284Y-86501530D01*
X152436284Y-86501530D02*
X152557237Y-86622483D01*
X152557237Y-86622483D02*
X152678189Y-86682959D01*
X152678189Y-86682959D02*
X152920094Y-86682959D01*
X152920094Y-86682959D02*
X153041046Y-86622483D01*
X153041046Y-86622483D02*
X153161999Y-86501530D01*
X153161999Y-86501530D02*
X153222475Y-86259625D01*
X153222475Y-86259625D02*
X153222475Y-85836292D01*
X153222475Y-85836292D02*
X153161999Y-85594387D01*
X153161999Y-85594387D02*
X153041046Y-85473435D01*
X153041046Y-85473435D02*
X152920094Y-85412959D01*
X140498285Y-86174959D02*
X141103047Y-86174959D01*
X141103047Y-86174959D02*
X141103047Y-84904959D01*
X139349237Y-86054006D02*
X139409713Y-86114483D01*
X139409713Y-86114483D02*
X139591142Y-86174959D01*
X139591142Y-86174959D02*
X139712094Y-86174959D01*
X139712094Y-86174959D02*
X139893523Y-86114483D01*
X139893523Y-86114483D02*
X140014475Y-85993530D01*
X140014475Y-85993530D02*
X140074952Y-85872578D01*
X140074952Y-85872578D02*
X140135428Y-85630673D01*
X140135428Y-85630673D02*
X140135428Y-85449244D01*
X140135428Y-85449244D02*
X140074952Y-85207340D01*
X140074952Y-85207340D02*
X140014475Y-85086387D01*
X140014475Y-85086387D02*
X139893523Y-84965435D01*
X139893523Y-84965435D02*
X139712094Y-84904959D01*
X139712094Y-84904959D02*
X139591142Y-84904959D01*
X139591142Y-84904959D02*
X139409713Y-84965435D01*
X139409713Y-84965435D02*
X139349237Y-85025911D01*
X138804952Y-86174959D02*
X138804952Y-84904959D01*
X138804952Y-84904959D02*
X138502571Y-84904959D01*
X138502571Y-84904959D02*
X138321142Y-84965435D01*
X138321142Y-84965435D02*
X138200190Y-85086387D01*
X138200190Y-85086387D02*
X138139713Y-85207340D01*
X138139713Y-85207340D02*
X138079237Y-85449244D01*
X138079237Y-85449244D02*
X138079237Y-85630673D01*
X138079237Y-85630673D02*
X138139713Y-85872578D01*
X138139713Y-85872578D02*
X138200190Y-85993530D01*
X138200190Y-85993530D02*
X138321142Y-86114483D01*
X138321142Y-86114483D02*
X138502571Y-86174959D01*
X138502571Y-86174959D02*
X138804952Y-86174959D01*
X137837333Y-86295911D02*
X136869713Y-86295911D01*
X135841618Y-86174959D02*
X136264952Y-85570197D01*
X136567333Y-86174959D02*
X136567333Y-84904959D01*
X136567333Y-84904959D02*
X136083523Y-84904959D01*
X136083523Y-84904959D02*
X135962571Y-84965435D01*
X135962571Y-84965435D02*
X135902094Y-85025911D01*
X135902094Y-85025911D02*
X135841618Y-85146863D01*
X135841618Y-85146863D02*
X135841618Y-85328292D01*
X135841618Y-85328292D02*
X135902094Y-85449244D01*
X135902094Y-85449244D02*
X135962571Y-85509721D01*
X135962571Y-85509721D02*
X136083523Y-85570197D01*
X136083523Y-85570197D02*
X136567333Y-85570197D01*
X135357809Y-86114483D02*
X135176380Y-86174959D01*
X135176380Y-86174959D02*
X134873999Y-86174959D01*
X134873999Y-86174959D02*
X134753047Y-86114483D01*
X134753047Y-86114483D02*
X134692571Y-86054006D01*
X134692571Y-86054006D02*
X134632094Y-85933054D01*
X134632094Y-85933054D02*
X134632094Y-85812102D01*
X134632094Y-85812102D02*
X134692571Y-85691149D01*
X134692571Y-85691149D02*
X134753047Y-85630673D01*
X134753047Y-85630673D02*
X134873999Y-85570197D01*
X134873999Y-85570197D02*
X135115904Y-85509721D01*
X135115904Y-85509721D02*
X135236856Y-85449244D01*
X135236856Y-85449244D02*
X135297333Y-85388768D01*
X135297333Y-85388768D02*
X135357809Y-85267816D01*
X135357809Y-85267816D02*
X135357809Y-85146863D01*
X135357809Y-85146863D02*
X135297333Y-85025911D01*
X135297333Y-85025911D02*
X135236856Y-84965435D01*
X135236856Y-84965435D02*
X135115904Y-84904959D01*
X135115904Y-84904959D02*
X134813523Y-84904959D01*
X134813523Y-84904959D02*
X134632094Y-84965435D01*
X134269237Y-84904959D02*
X133543523Y-84904959D01*
X133906380Y-86174959D02*
X133906380Y-84904959D01*
X141278428Y-84552383D02*
X133549571Y-84552383D01*
D13*
X132699085Y-106418113D02*
X132699085Y-104386113D01*
X132699085Y-104386113D02*
X132215275Y-104386113D01*
X132215275Y-104386113D02*
X131924990Y-104482875D01*
X131924990Y-104482875D02*
X131731466Y-104676399D01*
X131731466Y-104676399D02*
X131634704Y-104869923D01*
X131634704Y-104869923D02*
X131537942Y-105256971D01*
X131537942Y-105256971D02*
X131537942Y-105547256D01*
X131537942Y-105547256D02*
X131634704Y-105934304D01*
X131634704Y-105934304D02*
X131731466Y-106127828D01*
X131731466Y-106127828D02*
X131924990Y-106321352D01*
X131924990Y-106321352D02*
X132215275Y-106418113D01*
X132215275Y-106418113D02*
X132699085Y-106418113D01*
D14*
X161023904Y-90432483D02*
X160842475Y-90492959D01*
X160842475Y-90492959D02*
X160540094Y-90492959D01*
X160540094Y-90492959D02*
X160419142Y-90432483D01*
X160419142Y-90432483D02*
X160358666Y-90372006D01*
X160358666Y-90372006D02*
X160298189Y-90251054D01*
X160298189Y-90251054D02*
X160298189Y-90130102D01*
X160298189Y-90130102D02*
X160358666Y-90009149D01*
X160358666Y-90009149D02*
X160419142Y-89948673D01*
X160419142Y-89948673D02*
X160540094Y-89888197D01*
X160540094Y-89888197D02*
X160781999Y-89827721D01*
X160781999Y-89827721D02*
X160902951Y-89767244D01*
X160902951Y-89767244D02*
X160963428Y-89706768D01*
X160963428Y-89706768D02*
X161023904Y-89585816D01*
X161023904Y-89585816D02*
X161023904Y-89464863D01*
X161023904Y-89464863D02*
X160963428Y-89343911D01*
X160963428Y-89343911D02*
X160902951Y-89283435D01*
X160902951Y-89283435D02*
X160781999Y-89222959D01*
X160781999Y-89222959D02*
X160479618Y-89222959D01*
X160479618Y-89222959D02*
X160298189Y-89283435D01*
X159028189Y-90372006D02*
X159088665Y-90432483D01*
X159088665Y-90432483D02*
X159270094Y-90492959D01*
X159270094Y-90492959D02*
X159391046Y-90492959D01*
X159391046Y-90492959D02*
X159572475Y-90432483D01*
X159572475Y-90432483D02*
X159693427Y-90311530D01*
X159693427Y-90311530D02*
X159753904Y-90190578D01*
X159753904Y-90190578D02*
X159814380Y-89948673D01*
X159814380Y-89948673D02*
X159814380Y-89767244D01*
X159814380Y-89767244D02*
X159753904Y-89525340D01*
X159753904Y-89525340D02*
X159693427Y-89404387D01*
X159693427Y-89404387D02*
X159572475Y-89283435D01*
X159572475Y-89283435D02*
X159391046Y-89222959D01*
X159391046Y-89222959D02*
X159270094Y-89222959D01*
X159270094Y-89222959D02*
X159088665Y-89283435D01*
X159088665Y-89283435D02*
X159028189Y-89343911D01*
X157879142Y-90492959D02*
X158483904Y-90492959D01*
X158483904Y-90492959D02*
X158483904Y-89222959D01*
X199595619Y-80865149D02*
X198628000Y-80865149D01*
X199111809Y-81348959D02*
X199111809Y-80381340D01*
X197357999Y-81348959D02*
X198083714Y-81348959D01*
X197720857Y-81348959D02*
X197720857Y-80078959D01*
X197720857Y-80078959D02*
X197841809Y-80260387D01*
X197841809Y-80260387D02*
X197962761Y-80381340D01*
X197962761Y-80381340D02*
X198083714Y-80441816D01*
X196208952Y-80078959D02*
X196813714Y-80078959D01*
X196813714Y-80078959D02*
X196874190Y-80683721D01*
X196874190Y-80683721D02*
X196813714Y-80623244D01*
X196813714Y-80623244D02*
X196692761Y-80562768D01*
X196692761Y-80562768D02*
X196390380Y-80562768D01*
X196390380Y-80562768D02*
X196269428Y-80623244D01*
X196269428Y-80623244D02*
X196208952Y-80683721D01*
X196208952Y-80683721D02*
X196148475Y-80804673D01*
X196148475Y-80804673D02*
X196148475Y-81107054D01*
X196148475Y-81107054D02*
X196208952Y-81228006D01*
X196208952Y-81228006D02*
X196269428Y-81288483D01*
X196269428Y-81288483D02*
X196390380Y-81348959D01*
X196390380Y-81348959D02*
X196692761Y-81348959D01*
X196692761Y-81348959D02*
X196813714Y-81288483D01*
X196813714Y-81288483D02*
X196874190Y-81228006D01*
X195785618Y-80078959D02*
X195362285Y-81348959D01*
X195362285Y-81348959D02*
X194938951Y-80078959D01*
X154450142Y-92464483D02*
X154268713Y-92524959D01*
X154268713Y-92524959D02*
X153966332Y-92524959D01*
X153966332Y-92524959D02*
X153845380Y-92464483D01*
X153845380Y-92464483D02*
X153784904Y-92404006D01*
X153784904Y-92404006D02*
X153724427Y-92283054D01*
X153724427Y-92283054D02*
X153724427Y-92162102D01*
X153724427Y-92162102D02*
X153784904Y-92041149D01*
X153784904Y-92041149D02*
X153845380Y-91980673D01*
X153845380Y-91980673D02*
X153966332Y-91920197D01*
X153966332Y-91920197D02*
X154208237Y-91859721D01*
X154208237Y-91859721D02*
X154329189Y-91799244D01*
X154329189Y-91799244D02*
X154389666Y-91738768D01*
X154389666Y-91738768D02*
X154450142Y-91617816D01*
X154450142Y-91617816D02*
X154450142Y-91496863D01*
X154450142Y-91496863D02*
X154389666Y-91375911D01*
X154389666Y-91375911D02*
X154329189Y-91315435D01*
X154329189Y-91315435D02*
X154208237Y-91254959D01*
X154208237Y-91254959D02*
X153905856Y-91254959D01*
X153905856Y-91254959D02*
X153724427Y-91315435D01*
X153180142Y-92524959D02*
X153180142Y-91254959D01*
X153180142Y-91254959D02*
X152877761Y-91254959D01*
X152877761Y-91254959D02*
X152696332Y-91315435D01*
X152696332Y-91315435D02*
X152575380Y-91436387D01*
X152575380Y-91436387D02*
X152514903Y-91557340D01*
X152514903Y-91557340D02*
X152454427Y-91799244D01*
X152454427Y-91799244D02*
X152454427Y-91980673D01*
X152454427Y-91980673D02*
X152514903Y-92222578D01*
X152514903Y-92222578D02*
X152575380Y-92343530D01*
X152575380Y-92343530D02*
X152696332Y-92464483D01*
X152696332Y-92464483D02*
X152877761Y-92524959D01*
X152877761Y-92524959D02*
X153180142Y-92524959D01*
X151970618Y-92162102D02*
X151365856Y-92162102D01*
X152091570Y-92524959D02*
X151668237Y-91254959D01*
X151668237Y-91254959D02*
X151244903Y-92524959D01*
D16*
X199063427Y-107574718D02*
X199256950Y-107477956D01*
X199256950Y-107477956D02*
X199643998Y-107477956D01*
X199643998Y-107477956D02*
X199837522Y-107574718D01*
X199837522Y-107574718D02*
X200031046Y-107768242D01*
X200031046Y-107768242D02*
X200127808Y-107961766D01*
X200127808Y-107961766D02*
X200127808Y-108348813D01*
X200127808Y-108348813D02*
X200031046Y-108542337D01*
X200031046Y-108542337D02*
X199837522Y-108735861D01*
X199837522Y-108735861D02*
X199643998Y-108832623D01*
X199643998Y-108832623D02*
X199256950Y-108832623D01*
X199256950Y-108832623D02*
X199063427Y-108735861D01*
X199450474Y-106800623D02*
X199934284Y-106897385D01*
X199934284Y-106897385D02*
X200418093Y-107187670D01*
X200418093Y-107187670D02*
X200708379Y-107671480D01*
X200708379Y-107671480D02*
X200805141Y-108155289D01*
X200805141Y-108155289D02*
X200708379Y-108639099D01*
X200708379Y-108639099D02*
X200418093Y-109122908D01*
X200418093Y-109122908D02*
X199934284Y-109413194D01*
X199934284Y-109413194D02*
X199450474Y-109509956D01*
X199450474Y-109509956D02*
X198966665Y-109413194D01*
X198966665Y-109413194D02*
X198482855Y-109122908D01*
X198482855Y-109122908D02*
X198192569Y-108639099D01*
X198192569Y-108639099D02*
X198095808Y-108155289D01*
X198095808Y-108155289D02*
X198192569Y-107671480D01*
X198192569Y-107671480D02*
X198482855Y-107187670D01*
X198482855Y-107187670D02*
X198966665Y-106897385D01*
X198966665Y-106897385D02*
X199450474Y-106800623D01*
X195773522Y-107284432D02*
X195676760Y-107187670D01*
X195676760Y-107187670D02*
X195483236Y-107090908D01*
X195483236Y-107090908D02*
X194999427Y-107090908D01*
X194999427Y-107090908D02*
X194805903Y-107187670D01*
X194805903Y-107187670D02*
X194709141Y-107284432D01*
X194709141Y-107284432D02*
X194612379Y-107477956D01*
X194612379Y-107477956D02*
X194612379Y-107671480D01*
X194612379Y-107671480D02*
X194709141Y-107961766D01*
X194709141Y-107961766D02*
X195870284Y-109122908D01*
X195870284Y-109122908D02*
X194612379Y-109122908D01*
X193354474Y-107090908D02*
X193160951Y-107090908D01*
X193160951Y-107090908D02*
X192967427Y-107187670D01*
X192967427Y-107187670D02*
X192870665Y-107284432D01*
X192870665Y-107284432D02*
X192773903Y-107477956D01*
X192773903Y-107477956D02*
X192677141Y-107865004D01*
X192677141Y-107865004D02*
X192677141Y-108348813D01*
X192677141Y-108348813D02*
X192773903Y-108735861D01*
X192773903Y-108735861D02*
X192870665Y-108929385D01*
X192870665Y-108929385D02*
X192967427Y-109026147D01*
X192967427Y-109026147D02*
X193160951Y-109122908D01*
X193160951Y-109122908D02*
X193354474Y-109122908D01*
X193354474Y-109122908D02*
X193547998Y-109026147D01*
X193547998Y-109026147D02*
X193644760Y-108929385D01*
X193644760Y-108929385D02*
X193741522Y-108735861D01*
X193741522Y-108735861D02*
X193838284Y-108348813D01*
X193838284Y-108348813D02*
X193838284Y-107865004D01*
X193838284Y-107865004D02*
X193741522Y-107477956D01*
X193741522Y-107477956D02*
X193644760Y-107284432D01*
X193644760Y-107284432D02*
X193547998Y-107187670D01*
X193547998Y-107187670D02*
X193354474Y-107090908D01*
X191903046Y-107284432D02*
X191806284Y-107187670D01*
X191806284Y-107187670D02*
X191612760Y-107090908D01*
X191612760Y-107090908D02*
X191128951Y-107090908D01*
X191128951Y-107090908D02*
X190935427Y-107187670D01*
X190935427Y-107187670D02*
X190838665Y-107284432D01*
X190838665Y-107284432D02*
X190741903Y-107477956D01*
X190741903Y-107477956D02*
X190741903Y-107671480D01*
X190741903Y-107671480D02*
X190838665Y-107961766D01*
X190838665Y-107961766D02*
X191999808Y-109122908D01*
X191999808Y-109122908D02*
X190741903Y-109122908D01*
X188903427Y-107090908D02*
X189871046Y-107090908D01*
X189871046Y-107090908D02*
X189967808Y-108058527D01*
X189967808Y-108058527D02*
X189871046Y-107961766D01*
X189871046Y-107961766D02*
X189677522Y-107865004D01*
X189677522Y-107865004D02*
X189193713Y-107865004D01*
X189193713Y-107865004D02*
X189000189Y-107961766D01*
X189000189Y-107961766D02*
X188903427Y-108058527D01*
X188903427Y-108058527D02*
X188806665Y-108252051D01*
X188806665Y-108252051D02*
X188806665Y-108735861D01*
X188806665Y-108735861D02*
X188903427Y-108929385D01*
X188903427Y-108929385D02*
X189000189Y-109026147D01*
X189000189Y-109026147D02*
X189193713Y-109122908D01*
X189193713Y-109122908D02*
X189677522Y-109122908D01*
X189677522Y-109122908D02*
X189871046Y-109026147D01*
X189871046Y-109026147D02*
X189967808Y-108929385D01*
X186484380Y-109026147D02*
X186290856Y-109122908D01*
X186290856Y-109122908D02*
X185903808Y-109122908D01*
X185903808Y-109122908D02*
X185710285Y-109026147D01*
X185710285Y-109026147D02*
X185613523Y-108832623D01*
X185613523Y-108832623D02*
X185613523Y-108735861D01*
X185613523Y-108735861D02*
X185710285Y-108542337D01*
X185710285Y-108542337D02*
X185903808Y-108445575D01*
X185903808Y-108445575D02*
X186194094Y-108445575D01*
X186194094Y-108445575D02*
X186387618Y-108348813D01*
X186387618Y-108348813D02*
X186484380Y-108155289D01*
X186484380Y-108155289D02*
X186484380Y-108058527D01*
X186484380Y-108058527D02*
X186387618Y-107865004D01*
X186387618Y-107865004D02*
X186194094Y-107768242D01*
X186194094Y-107768242D02*
X185903808Y-107768242D01*
X185903808Y-107768242D02*
X185710285Y-107865004D01*
X183968571Y-109026147D02*
X184162095Y-109122908D01*
X184162095Y-109122908D02*
X184549142Y-109122908D01*
X184549142Y-109122908D02*
X184742666Y-109026147D01*
X184742666Y-109026147D02*
X184839428Y-108832623D01*
X184839428Y-108832623D02*
X184839428Y-108058527D01*
X184839428Y-108058527D02*
X184742666Y-107865004D01*
X184742666Y-107865004D02*
X184549142Y-107768242D01*
X184549142Y-107768242D02*
X184162095Y-107768242D01*
X184162095Y-107768242D02*
X183968571Y-107865004D01*
X183968571Y-107865004D02*
X183871809Y-108058527D01*
X183871809Y-108058527D02*
X183871809Y-108252051D01*
X183871809Y-108252051D02*
X184839428Y-108445575D01*
X183000952Y-107768242D02*
X183000952Y-109122908D01*
X183000952Y-107961766D02*
X182904190Y-107865004D01*
X182904190Y-107865004D02*
X182710666Y-107768242D01*
X182710666Y-107768242D02*
X182420381Y-107768242D01*
X182420381Y-107768242D02*
X182226857Y-107865004D01*
X182226857Y-107865004D02*
X182130095Y-108058527D01*
X182130095Y-108058527D02*
X182130095Y-109122908D01*
X178453143Y-108929385D02*
X178549905Y-109026147D01*
X178549905Y-109026147D02*
X178840191Y-109122908D01*
X178840191Y-109122908D02*
X179033715Y-109122908D01*
X179033715Y-109122908D02*
X179324000Y-109026147D01*
X179324000Y-109026147D02*
X179517524Y-108832623D01*
X179517524Y-108832623D02*
X179614286Y-108639099D01*
X179614286Y-108639099D02*
X179711048Y-108252051D01*
X179711048Y-108252051D02*
X179711048Y-107961766D01*
X179711048Y-107961766D02*
X179614286Y-107574718D01*
X179614286Y-107574718D02*
X179517524Y-107381194D01*
X179517524Y-107381194D02*
X179324000Y-107187670D01*
X179324000Y-107187670D02*
X179033715Y-107090908D01*
X179033715Y-107090908D02*
X178840191Y-107090908D01*
X178840191Y-107090908D02*
X178549905Y-107187670D01*
X178549905Y-107187670D02*
X178453143Y-107284432D01*
X176421143Y-108929385D02*
X176517905Y-109026147D01*
X176517905Y-109026147D02*
X176808191Y-109122908D01*
X176808191Y-109122908D02*
X177001715Y-109122908D01*
X177001715Y-109122908D02*
X177292000Y-109026147D01*
X177292000Y-109026147D02*
X177485524Y-108832623D01*
X177485524Y-108832623D02*
X177582286Y-108639099D01*
X177582286Y-108639099D02*
X177679048Y-108252051D01*
X177679048Y-108252051D02*
X177679048Y-107961766D01*
X177679048Y-107961766D02*
X177582286Y-107574718D01*
X177582286Y-107574718D02*
X177485524Y-107381194D01*
X177485524Y-107381194D02*
X177292000Y-107187670D01*
X177292000Y-107187670D02*
X177001715Y-107090908D01*
X177001715Y-107090908D02*
X176808191Y-107090908D01*
X176808191Y-107090908D02*
X176517905Y-107187670D01*
X176517905Y-107187670D02*
X176421143Y-107284432D01*
X175550286Y-108348813D02*
X174002096Y-108348813D01*
X172357143Y-108058527D02*
X172066857Y-108155289D01*
X172066857Y-108155289D02*
X171970095Y-108252051D01*
X171970095Y-108252051D02*
X171873333Y-108445575D01*
X171873333Y-108445575D02*
X171873333Y-108735861D01*
X171873333Y-108735861D02*
X171970095Y-108929385D01*
X171970095Y-108929385D02*
X172066857Y-109026147D01*
X172066857Y-109026147D02*
X172260381Y-109122908D01*
X172260381Y-109122908D02*
X173034476Y-109122908D01*
X173034476Y-109122908D02*
X173034476Y-107090908D01*
X173034476Y-107090908D02*
X172357143Y-107090908D01*
X172357143Y-107090908D02*
X172163619Y-107187670D01*
X172163619Y-107187670D02*
X172066857Y-107284432D01*
X172066857Y-107284432D02*
X171970095Y-107477956D01*
X171970095Y-107477956D02*
X171970095Y-107671480D01*
X171970095Y-107671480D02*
X172066857Y-107865004D01*
X172066857Y-107865004D02*
X172163619Y-107961766D01*
X172163619Y-107961766D02*
X172357143Y-108058527D01*
X172357143Y-108058527D02*
X173034476Y-108058527D01*
X170615428Y-108155289D02*
X170615428Y-109122908D01*
X171292762Y-107090908D02*
X170615428Y-108155289D01*
X170615428Y-108155289D02*
X169938095Y-107090908D01*
X169260762Y-108348813D02*
X167712572Y-108348813D01*
X166841714Y-109026147D02*
X166551428Y-109122908D01*
X166551428Y-109122908D02*
X166067619Y-109122908D01*
X166067619Y-109122908D02*
X165874095Y-109026147D01*
X165874095Y-109026147D02*
X165777333Y-108929385D01*
X165777333Y-108929385D02*
X165680571Y-108735861D01*
X165680571Y-108735861D02*
X165680571Y-108542337D01*
X165680571Y-108542337D02*
X165777333Y-108348813D01*
X165777333Y-108348813D02*
X165874095Y-108252051D01*
X165874095Y-108252051D02*
X166067619Y-108155289D01*
X166067619Y-108155289D02*
X166454666Y-108058527D01*
X166454666Y-108058527D02*
X166648190Y-107961766D01*
X166648190Y-107961766D02*
X166744952Y-107865004D01*
X166744952Y-107865004D02*
X166841714Y-107671480D01*
X166841714Y-107671480D02*
X166841714Y-107477956D01*
X166841714Y-107477956D02*
X166744952Y-107284432D01*
X166744952Y-107284432D02*
X166648190Y-107187670D01*
X166648190Y-107187670D02*
X166454666Y-107090908D01*
X166454666Y-107090908D02*
X165970857Y-107090908D01*
X165970857Y-107090908D02*
X165680571Y-107187670D01*
X164906476Y-108542337D02*
X163938857Y-108542337D01*
X165100000Y-109122908D02*
X164422666Y-107090908D01*
X164422666Y-107090908D02*
X163745333Y-109122908D01*
D14*
X152109714Y-88206959D02*
X152109714Y-86936959D01*
X152109714Y-86936959D02*
X151686380Y-87844102D01*
X151686380Y-87844102D02*
X151263047Y-86936959D01*
X151263047Y-86936959D02*
X151263047Y-88206959D01*
X150416380Y-86936959D02*
X150174475Y-86936959D01*
X150174475Y-86936959D02*
X150053523Y-86997435D01*
X150053523Y-86997435D02*
X149932570Y-87118387D01*
X149932570Y-87118387D02*
X149872094Y-87360292D01*
X149872094Y-87360292D02*
X149872094Y-87783625D01*
X149872094Y-87783625D02*
X149932570Y-88025530D01*
X149932570Y-88025530D02*
X150053523Y-88146483D01*
X150053523Y-88146483D02*
X150174475Y-88206959D01*
X150174475Y-88206959D02*
X150416380Y-88206959D01*
X150416380Y-88206959D02*
X150537332Y-88146483D01*
X150537332Y-88146483D02*
X150658285Y-88025530D01*
X150658285Y-88025530D02*
X150718761Y-87783625D01*
X150718761Y-87783625D02*
X150718761Y-87360292D01*
X150718761Y-87360292D02*
X150658285Y-87118387D01*
X150658285Y-87118387D02*
X150537332Y-86997435D01*
X150537332Y-86997435D02*
X150416380Y-86936959D01*
X149388285Y-88146483D02*
X149206856Y-88206959D01*
X149206856Y-88206959D02*
X148904475Y-88206959D01*
X148904475Y-88206959D02*
X148783523Y-88146483D01*
X148783523Y-88146483D02*
X148723047Y-88086006D01*
X148723047Y-88086006D02*
X148662570Y-87965054D01*
X148662570Y-87965054D02*
X148662570Y-87844102D01*
X148662570Y-87844102D02*
X148723047Y-87723149D01*
X148723047Y-87723149D02*
X148783523Y-87662673D01*
X148783523Y-87662673D02*
X148904475Y-87602197D01*
X148904475Y-87602197D02*
X149146380Y-87541721D01*
X149146380Y-87541721D02*
X149267332Y-87481244D01*
X149267332Y-87481244D02*
X149327809Y-87420768D01*
X149327809Y-87420768D02*
X149388285Y-87299816D01*
X149388285Y-87299816D02*
X149388285Y-87178863D01*
X149388285Y-87178863D02*
X149327809Y-87057911D01*
X149327809Y-87057911D02*
X149267332Y-86997435D01*
X149267332Y-86997435D02*
X149146380Y-86936959D01*
X149146380Y-86936959D02*
X148843999Y-86936959D01*
X148843999Y-86936959D02*
X148662570Y-86997435D01*
X148118285Y-88206959D02*
X148118285Y-86936959D01*
D16*
X199063428Y-125536147D02*
X198773142Y-125632908D01*
X198773142Y-125632908D02*
X198289333Y-125632908D01*
X198289333Y-125632908D02*
X198095809Y-125536147D01*
X198095809Y-125536147D02*
X197999047Y-125439385D01*
X197999047Y-125439385D02*
X197902285Y-125245861D01*
X197902285Y-125245861D02*
X197902285Y-125052337D01*
X197902285Y-125052337D02*
X197999047Y-124858813D01*
X197999047Y-124858813D02*
X198095809Y-124762051D01*
X198095809Y-124762051D02*
X198289333Y-124665289D01*
X198289333Y-124665289D02*
X198676380Y-124568527D01*
X198676380Y-124568527D02*
X198869904Y-124471766D01*
X198869904Y-124471766D02*
X198966666Y-124375004D01*
X198966666Y-124375004D02*
X199063428Y-124181480D01*
X199063428Y-124181480D02*
X199063428Y-123987956D01*
X199063428Y-123987956D02*
X198966666Y-123794432D01*
X198966666Y-123794432D02*
X198869904Y-123697670D01*
X198869904Y-123697670D02*
X198676380Y-123600908D01*
X198676380Y-123600908D02*
X198192571Y-123600908D01*
X198192571Y-123600908D02*
X197902285Y-123697670D01*
X196257333Y-125536147D02*
X196450857Y-125632908D01*
X196450857Y-125632908D02*
X196837904Y-125632908D01*
X196837904Y-125632908D02*
X197031428Y-125536147D01*
X197031428Y-125536147D02*
X197128190Y-125342623D01*
X197128190Y-125342623D02*
X197128190Y-124568527D01*
X197128190Y-124568527D02*
X197031428Y-124375004D01*
X197031428Y-124375004D02*
X196837904Y-124278242D01*
X196837904Y-124278242D02*
X196450857Y-124278242D01*
X196450857Y-124278242D02*
X196257333Y-124375004D01*
X196257333Y-124375004D02*
X196160571Y-124568527D01*
X196160571Y-124568527D02*
X196160571Y-124762051D01*
X196160571Y-124762051D02*
X197128190Y-124955575D01*
X195289714Y-125632908D02*
X195289714Y-124278242D01*
X195289714Y-124665289D02*
X195192952Y-124471766D01*
X195192952Y-124471766D02*
X195096190Y-124375004D01*
X195096190Y-124375004D02*
X194902666Y-124278242D01*
X194902666Y-124278242D02*
X194709143Y-124278242D01*
X194031809Y-125632908D02*
X194031809Y-124278242D01*
X194031809Y-123600908D02*
X194128571Y-123697670D01*
X194128571Y-123697670D02*
X194031809Y-123794432D01*
X194031809Y-123794432D02*
X193935047Y-123697670D01*
X193935047Y-123697670D02*
X194031809Y-123600908D01*
X194031809Y-123600908D02*
X194031809Y-123794432D01*
X192193333Y-125632908D02*
X192193333Y-124568527D01*
X192193333Y-124568527D02*
X192290095Y-124375004D01*
X192290095Y-124375004D02*
X192483619Y-124278242D01*
X192483619Y-124278242D02*
X192870666Y-124278242D01*
X192870666Y-124278242D02*
X193064190Y-124375004D01*
X192193333Y-125536147D02*
X192386857Y-125632908D01*
X192386857Y-125632908D02*
X192870666Y-125632908D01*
X192870666Y-125632908D02*
X193064190Y-125536147D01*
X193064190Y-125536147D02*
X193160952Y-125342623D01*
X193160952Y-125342623D02*
X193160952Y-125149099D01*
X193160952Y-125149099D02*
X193064190Y-124955575D01*
X193064190Y-124955575D02*
X192870666Y-124858813D01*
X192870666Y-124858813D02*
X192386857Y-124858813D01*
X192386857Y-124858813D02*
X192193333Y-124762051D01*
X190935428Y-125632908D02*
X191128952Y-125536147D01*
X191128952Y-125536147D02*
X191225714Y-125342623D01*
X191225714Y-125342623D02*
X191225714Y-123600908D01*
X190161333Y-125439385D02*
X190064571Y-125536147D01*
X190064571Y-125536147D02*
X190161333Y-125632908D01*
X190161333Y-125632908D02*
X190258095Y-125536147D01*
X190258095Y-125536147D02*
X190161333Y-125439385D01*
X190161333Y-125439385D02*
X190161333Y-125632908D01*
X190161333Y-124375004D02*
X190064571Y-124471766D01*
X190064571Y-124471766D02*
X190161333Y-124568527D01*
X190161333Y-124568527D02*
X190258095Y-124471766D01*
X190258095Y-124471766D02*
X190161333Y-124375004D01*
X190161333Y-124375004D02*
X190161333Y-124568527D01*
X199293235Y-112485385D02*
X199389997Y-112582147D01*
X199389997Y-112582147D02*
X199680283Y-112678908D01*
X199680283Y-112678908D02*
X199873807Y-112678908D01*
X199873807Y-112678908D02*
X200164092Y-112582147D01*
X200164092Y-112582147D02*
X200357616Y-112388623D01*
X200357616Y-112388623D02*
X200454378Y-112195099D01*
X200454378Y-112195099D02*
X200551140Y-111808051D01*
X200551140Y-111808051D02*
X200551140Y-111517766D01*
X200551140Y-111517766D02*
X200454378Y-111130718D01*
X200454378Y-111130718D02*
X200357616Y-110937194D01*
X200357616Y-110937194D02*
X200164092Y-110743670D01*
X200164092Y-110743670D02*
X199873807Y-110646908D01*
X199873807Y-110646908D02*
X199680283Y-110646908D01*
X199680283Y-110646908D02*
X199389997Y-110743670D01*
X199389997Y-110743670D02*
X199293235Y-110840432D01*
X198422378Y-111614527D02*
X197745045Y-111614527D01*
X197454759Y-112678908D02*
X198422378Y-112678908D01*
X198422378Y-112678908D02*
X198422378Y-110646908D01*
X198422378Y-110646908D02*
X197454759Y-110646908D01*
X195422759Y-112678908D02*
X196100092Y-111711289D01*
X196583902Y-112678908D02*
X196583902Y-110646908D01*
X196583902Y-110646908D02*
X195809807Y-110646908D01*
X195809807Y-110646908D02*
X195616283Y-110743670D01*
X195616283Y-110743670D02*
X195519521Y-110840432D01*
X195519521Y-110840432D02*
X195422759Y-111033956D01*
X195422759Y-111033956D02*
X195422759Y-111324242D01*
X195422759Y-111324242D02*
X195519521Y-111517766D01*
X195519521Y-111517766D02*
X195616283Y-111614527D01*
X195616283Y-111614527D02*
X195809807Y-111711289D01*
X195809807Y-111711289D02*
X196583902Y-111711289D01*
X194551902Y-112678908D02*
X194551902Y-110646908D01*
X194551902Y-110646908D02*
X193390759Y-112678908D01*
X193390759Y-112678908D02*
X193390759Y-110646908D01*
X190874950Y-112678908D02*
X190874950Y-110646908D01*
X190874950Y-110646908D02*
X190391140Y-110646908D01*
X190391140Y-110646908D02*
X190100855Y-110743670D01*
X190100855Y-110743670D02*
X189907331Y-110937194D01*
X189907331Y-110937194D02*
X189810569Y-111130718D01*
X189810569Y-111130718D02*
X189713807Y-111517766D01*
X189713807Y-111517766D02*
X189713807Y-111808051D01*
X189713807Y-111808051D02*
X189810569Y-112195099D01*
X189810569Y-112195099D02*
X189907331Y-112388623D01*
X189907331Y-112388623D02*
X190100855Y-112582147D01*
X190100855Y-112582147D02*
X190391140Y-112678908D01*
X190391140Y-112678908D02*
X190874950Y-112678908D01*
X188842950Y-112678908D02*
X188842950Y-111324242D01*
X188842950Y-110646908D02*
X188939712Y-110743670D01*
X188939712Y-110743670D02*
X188842950Y-110840432D01*
X188842950Y-110840432D02*
X188746188Y-110743670D01*
X188746188Y-110743670D02*
X188842950Y-110646908D01*
X188842950Y-110646908D02*
X188842950Y-110840432D01*
X187972093Y-112582147D02*
X187778569Y-112678908D01*
X187778569Y-112678908D02*
X187391521Y-112678908D01*
X187391521Y-112678908D02*
X187197998Y-112582147D01*
X187197998Y-112582147D02*
X187101236Y-112388623D01*
X187101236Y-112388623D02*
X187101236Y-112291861D01*
X187101236Y-112291861D02*
X187197998Y-112098337D01*
X187197998Y-112098337D02*
X187391521Y-112001575D01*
X187391521Y-112001575D02*
X187681807Y-112001575D01*
X187681807Y-112001575D02*
X187875331Y-111904813D01*
X187875331Y-111904813D02*
X187972093Y-111711289D01*
X187972093Y-111711289D02*
X187972093Y-111614527D01*
X187972093Y-111614527D02*
X187875331Y-111421004D01*
X187875331Y-111421004D02*
X187681807Y-111324242D01*
X187681807Y-111324242D02*
X187391521Y-111324242D01*
X187391521Y-111324242D02*
X187197998Y-111421004D01*
X186230379Y-111324242D02*
X186230379Y-113356242D01*
X186230379Y-111421004D02*
X186036855Y-111324242D01*
X186036855Y-111324242D02*
X185649808Y-111324242D01*
X185649808Y-111324242D02*
X185456284Y-111421004D01*
X185456284Y-111421004D02*
X185359522Y-111517766D01*
X185359522Y-111517766D02*
X185262760Y-111711289D01*
X185262760Y-111711289D02*
X185262760Y-112291861D01*
X185262760Y-112291861D02*
X185359522Y-112485385D01*
X185359522Y-112485385D02*
X185456284Y-112582147D01*
X185456284Y-112582147D02*
X185649808Y-112678908D01*
X185649808Y-112678908D02*
X186036855Y-112678908D01*
X186036855Y-112678908D02*
X186230379Y-112582147D01*
X184101617Y-112678908D02*
X184295141Y-112582147D01*
X184295141Y-112582147D02*
X184391903Y-112388623D01*
X184391903Y-112388623D02*
X184391903Y-110646908D01*
X182456665Y-112678908D02*
X182456665Y-111614527D01*
X182456665Y-111614527D02*
X182553427Y-111421004D01*
X182553427Y-111421004D02*
X182746951Y-111324242D01*
X182746951Y-111324242D02*
X183133998Y-111324242D01*
X183133998Y-111324242D02*
X183327522Y-111421004D01*
X182456665Y-112582147D02*
X182650189Y-112678908D01*
X182650189Y-112678908D02*
X183133998Y-112678908D01*
X183133998Y-112678908D02*
X183327522Y-112582147D01*
X183327522Y-112582147D02*
X183424284Y-112388623D01*
X183424284Y-112388623D02*
X183424284Y-112195099D01*
X183424284Y-112195099D02*
X183327522Y-112001575D01*
X183327522Y-112001575D02*
X183133998Y-111904813D01*
X183133998Y-111904813D02*
X182650189Y-111904813D01*
X182650189Y-111904813D02*
X182456665Y-111808051D01*
X181682570Y-111324242D02*
X181198760Y-112678908D01*
X180714951Y-111324242D02*
X181198760Y-112678908D01*
X181198760Y-112678908D02*
X181392284Y-113162718D01*
X181392284Y-113162718D02*
X181489046Y-113259480D01*
X181489046Y-113259480D02*
X181682570Y-113356242D01*
X177231523Y-112485385D02*
X177328285Y-112582147D01*
X177328285Y-112582147D02*
X177618571Y-112678908D01*
X177618571Y-112678908D02*
X177812095Y-112678908D01*
X177812095Y-112678908D02*
X178102380Y-112582147D01*
X178102380Y-112582147D02*
X178295904Y-112388623D01*
X178295904Y-112388623D02*
X178392666Y-112195099D01*
X178392666Y-112195099D02*
X178489428Y-111808051D01*
X178489428Y-111808051D02*
X178489428Y-111517766D01*
X178489428Y-111517766D02*
X178392666Y-111130718D01*
X178392666Y-111130718D02*
X178295904Y-110937194D01*
X178295904Y-110937194D02*
X178102380Y-110743670D01*
X178102380Y-110743670D02*
X177812095Y-110646908D01*
X177812095Y-110646908D02*
X177618571Y-110646908D01*
X177618571Y-110646908D02*
X177328285Y-110743670D01*
X177328285Y-110743670D02*
X177231523Y-110840432D01*
X176070380Y-112678908D02*
X176263904Y-112582147D01*
X176263904Y-112582147D02*
X176360666Y-112485385D01*
X176360666Y-112485385D02*
X176457428Y-112291861D01*
X176457428Y-112291861D02*
X176457428Y-111711289D01*
X176457428Y-111711289D02*
X176360666Y-111517766D01*
X176360666Y-111517766D02*
X176263904Y-111421004D01*
X176263904Y-111421004D02*
X176070380Y-111324242D01*
X176070380Y-111324242D02*
X175780095Y-111324242D01*
X175780095Y-111324242D02*
X175586571Y-111421004D01*
X175586571Y-111421004D02*
X175489809Y-111517766D01*
X175489809Y-111517766D02*
X175393047Y-111711289D01*
X175393047Y-111711289D02*
X175393047Y-112291861D01*
X175393047Y-112291861D02*
X175489809Y-112485385D01*
X175489809Y-112485385D02*
X175586571Y-112582147D01*
X175586571Y-112582147D02*
X175780095Y-112678908D01*
X175780095Y-112678908D02*
X176070380Y-112678908D01*
X174522190Y-111324242D02*
X174522190Y-112678908D01*
X174522190Y-111517766D02*
X174425428Y-111421004D01*
X174425428Y-111421004D02*
X174231904Y-111324242D01*
X174231904Y-111324242D02*
X173941619Y-111324242D01*
X173941619Y-111324242D02*
X173748095Y-111421004D01*
X173748095Y-111421004D02*
X173651333Y-111614527D01*
X173651333Y-111614527D02*
X173651333Y-112678908D01*
X172974000Y-111324242D02*
X172199904Y-111324242D01*
X172683714Y-110646908D02*
X172683714Y-112388623D01*
X172683714Y-112388623D02*
X172586952Y-112582147D01*
X172586952Y-112582147D02*
X172393428Y-112678908D01*
X172393428Y-112678908D02*
X172199904Y-112678908D01*
X171522571Y-112678908D02*
X171522571Y-111324242D01*
X171522571Y-111711289D02*
X171425809Y-111517766D01*
X171425809Y-111517766D02*
X171329047Y-111421004D01*
X171329047Y-111421004D02*
X171135523Y-111324242D01*
X171135523Y-111324242D02*
X170942000Y-111324242D01*
X169974380Y-112678908D02*
X170167904Y-112582147D01*
X170167904Y-112582147D02*
X170264666Y-112485385D01*
X170264666Y-112485385D02*
X170361428Y-112291861D01*
X170361428Y-112291861D02*
X170361428Y-111711289D01*
X170361428Y-111711289D02*
X170264666Y-111517766D01*
X170264666Y-111517766D02*
X170167904Y-111421004D01*
X170167904Y-111421004D02*
X169974380Y-111324242D01*
X169974380Y-111324242D02*
X169684095Y-111324242D01*
X169684095Y-111324242D02*
X169490571Y-111421004D01*
X169490571Y-111421004D02*
X169393809Y-111517766D01*
X169393809Y-111517766D02*
X169297047Y-111711289D01*
X169297047Y-111711289D02*
X169297047Y-112291861D01*
X169297047Y-112291861D02*
X169393809Y-112485385D01*
X169393809Y-112485385D02*
X169490571Y-112582147D01*
X169490571Y-112582147D02*
X169684095Y-112678908D01*
X169684095Y-112678908D02*
X169974380Y-112678908D01*
X168135904Y-112678908D02*
X168329428Y-112582147D01*
X168329428Y-112582147D02*
X168426190Y-112388623D01*
X168426190Y-112388623D02*
X168426190Y-110646908D01*
X167071523Y-112678908D02*
X167265047Y-112582147D01*
X167265047Y-112582147D02*
X167361809Y-112388623D01*
X167361809Y-112388623D02*
X167361809Y-110646908D01*
X165523333Y-112582147D02*
X165716857Y-112678908D01*
X165716857Y-112678908D02*
X166103904Y-112678908D01*
X166103904Y-112678908D02*
X166297428Y-112582147D01*
X166297428Y-112582147D02*
X166394190Y-112388623D01*
X166394190Y-112388623D02*
X166394190Y-111614527D01*
X166394190Y-111614527D02*
X166297428Y-111421004D01*
X166297428Y-111421004D02*
X166103904Y-111324242D01*
X166103904Y-111324242D02*
X165716857Y-111324242D01*
X165716857Y-111324242D02*
X165523333Y-111421004D01*
X165523333Y-111421004D02*
X165426571Y-111614527D01*
X165426571Y-111614527D02*
X165426571Y-111808051D01*
X165426571Y-111808051D02*
X166394190Y-112001575D01*
X164555714Y-112678908D02*
X164555714Y-111324242D01*
X164555714Y-111711289D02*
X164458952Y-111517766D01*
X164458952Y-111517766D02*
X164362190Y-111421004D01*
X164362190Y-111421004D02*
X164168666Y-111324242D01*
X164168666Y-111324242D02*
X163975143Y-111324242D01*
X160588476Y-112678908D02*
X161265809Y-111711289D01*
X161749619Y-112678908D02*
X161749619Y-110646908D01*
X161749619Y-110646908D02*
X160975524Y-110646908D01*
X160975524Y-110646908D02*
X160782000Y-110743670D01*
X160782000Y-110743670D02*
X160685238Y-110840432D01*
X160685238Y-110840432D02*
X160588476Y-111033956D01*
X160588476Y-111033956D02*
X160588476Y-111324242D01*
X160588476Y-111324242D02*
X160685238Y-111517766D01*
X160685238Y-111517766D02*
X160782000Y-111614527D01*
X160782000Y-111614527D02*
X160975524Y-111711289D01*
X160975524Y-111711289D02*
X161749619Y-111711289D01*
X158943524Y-112582147D02*
X159137048Y-112678908D01*
X159137048Y-112678908D02*
X159524095Y-112678908D01*
X159524095Y-112678908D02*
X159717619Y-112582147D01*
X159717619Y-112582147D02*
X159814381Y-112388623D01*
X159814381Y-112388623D02*
X159814381Y-111614527D01*
X159814381Y-111614527D02*
X159717619Y-111421004D01*
X159717619Y-111421004D02*
X159524095Y-111324242D01*
X159524095Y-111324242D02*
X159137048Y-111324242D01*
X159137048Y-111324242D02*
X158943524Y-111421004D01*
X158943524Y-111421004D02*
X158846762Y-111614527D01*
X158846762Y-111614527D02*
X158846762Y-111808051D01*
X158846762Y-111808051D02*
X159814381Y-112001575D01*
X158169429Y-111324242D02*
X157685619Y-112678908D01*
X157685619Y-112678908D02*
X157201810Y-111324242D01*
X156040667Y-110646908D02*
X155847144Y-110646908D01*
X155847144Y-110646908D02*
X155653620Y-110743670D01*
X155653620Y-110743670D02*
X155556858Y-110840432D01*
X155556858Y-110840432D02*
X155460096Y-111033956D01*
X155460096Y-111033956D02*
X155363334Y-111421004D01*
X155363334Y-111421004D02*
X155363334Y-111904813D01*
X155363334Y-111904813D02*
X155460096Y-112291861D01*
X155460096Y-112291861D02*
X155556858Y-112485385D01*
X155556858Y-112485385D02*
X155653620Y-112582147D01*
X155653620Y-112582147D02*
X155847144Y-112678908D01*
X155847144Y-112678908D02*
X156040667Y-112678908D01*
X156040667Y-112678908D02*
X156234191Y-112582147D01*
X156234191Y-112582147D02*
X156330953Y-112485385D01*
X156330953Y-112485385D02*
X156427715Y-112291861D01*
X156427715Y-112291861D02*
X156524477Y-111904813D01*
X156524477Y-111904813D02*
X156524477Y-111421004D01*
X156524477Y-111421004D02*
X156427715Y-111033956D01*
X156427715Y-111033956D02*
X156330953Y-110840432D01*
X156330953Y-110840432D02*
X156234191Y-110743670D01*
X156234191Y-110743670D02*
X156040667Y-110646908D01*
X154105429Y-110646908D02*
X153911906Y-110646908D01*
X153911906Y-110646908D02*
X153718382Y-110743670D01*
X153718382Y-110743670D02*
X153621620Y-110840432D01*
X153621620Y-110840432D02*
X153524858Y-111033956D01*
X153524858Y-111033956D02*
X153428096Y-111421004D01*
X153428096Y-111421004D02*
X153428096Y-111904813D01*
X153428096Y-111904813D02*
X153524858Y-112291861D01*
X153524858Y-112291861D02*
X153621620Y-112485385D01*
X153621620Y-112485385D02*
X153718382Y-112582147D01*
X153718382Y-112582147D02*
X153911906Y-112678908D01*
X153911906Y-112678908D02*
X154105429Y-112678908D01*
X154105429Y-112678908D02*
X154298953Y-112582147D01*
X154298953Y-112582147D02*
X154395715Y-112485385D01*
X154395715Y-112485385D02*
X154492477Y-112291861D01*
X154492477Y-112291861D02*
X154589239Y-111904813D01*
X154589239Y-111904813D02*
X154589239Y-111421004D01*
X154589239Y-111421004D02*
X154492477Y-111033956D01*
X154492477Y-111033956D02*
X154395715Y-110840432D01*
X154395715Y-110840432D02*
X154298953Y-110743670D01*
X154298953Y-110743670D02*
X154105429Y-110646908D01*
X151492858Y-112678908D02*
X152654001Y-112678908D01*
X152073429Y-112678908D02*
X152073429Y-110646908D01*
X152073429Y-110646908D02*
X152266953Y-110937194D01*
X152266953Y-110937194D02*
X152460477Y-111130718D01*
X152460477Y-111130718D02*
X152654001Y-111227480D01*
D13*
X139919942Y-106224590D02*
X140016704Y-106321352D01*
X140016704Y-106321352D02*
X140306990Y-106418113D01*
X140306990Y-106418113D02*
X140500514Y-106418113D01*
X140500514Y-106418113D02*
X140790799Y-106321352D01*
X140790799Y-106321352D02*
X140984323Y-106127828D01*
X140984323Y-106127828D02*
X141081085Y-105934304D01*
X141081085Y-105934304D02*
X141177847Y-105547256D01*
X141177847Y-105547256D02*
X141177847Y-105256971D01*
X141177847Y-105256971D02*
X141081085Y-104869923D01*
X141081085Y-104869923D02*
X140984323Y-104676399D01*
X140984323Y-104676399D02*
X140790799Y-104482875D01*
X140790799Y-104482875D02*
X140500514Y-104386113D01*
X140500514Y-104386113D02*
X140306990Y-104386113D01*
X140306990Y-104386113D02*
X140016704Y-104482875D01*
X140016704Y-104482875D02*
X139919942Y-104579637D01*
D17*
X196830902Y-90778071D02*
X197556616Y-90778071D01*
X197556616Y-90778071D02*
X197556616Y-89254071D01*
X196322902Y-90778071D02*
X196322902Y-89762071D01*
X196322902Y-89254071D02*
X196395474Y-89326642D01*
X196395474Y-89326642D02*
X196322902Y-89399214D01*
X196322902Y-89399214D02*
X196250331Y-89326642D01*
X196250331Y-89326642D02*
X196322902Y-89254071D01*
X196322902Y-89254071D02*
X196322902Y-89399214D01*
X195597188Y-89762071D02*
X195597188Y-90778071D01*
X195597188Y-89907214D02*
X195524617Y-89834642D01*
X195524617Y-89834642D02*
X195379474Y-89762071D01*
X195379474Y-89762071D02*
X195161760Y-89762071D01*
X195161760Y-89762071D02*
X195016617Y-89834642D01*
X195016617Y-89834642D02*
X194944046Y-89979785D01*
X194944046Y-89979785D02*
X194944046Y-90778071D01*
X194218331Y-90778071D02*
X194218331Y-89254071D01*
X194073189Y-90197500D02*
X193637760Y-90778071D01*
X193637760Y-89762071D02*
X194218331Y-90342642D01*
X191823474Y-90778071D02*
X191823474Y-89254071D01*
X191823474Y-89254071D02*
X191242903Y-89254071D01*
X191242903Y-89254071D02*
X191097760Y-89326642D01*
X191097760Y-89326642D02*
X191025189Y-89399214D01*
X191025189Y-89399214D02*
X190952617Y-89544357D01*
X190952617Y-89544357D02*
X190952617Y-89762071D01*
X190952617Y-89762071D02*
X191025189Y-89907214D01*
X191025189Y-89907214D02*
X191097760Y-89979785D01*
X191097760Y-89979785D02*
X191242903Y-90052357D01*
X191242903Y-90052357D02*
X191823474Y-90052357D01*
X190299474Y-90778071D02*
X190299474Y-89762071D01*
X190299474Y-89254071D02*
X190372046Y-89326642D01*
X190372046Y-89326642D02*
X190299474Y-89399214D01*
X190299474Y-89399214D02*
X190226903Y-89326642D01*
X190226903Y-89326642D02*
X190299474Y-89254071D01*
X190299474Y-89254071D02*
X190299474Y-89399214D01*
X189573760Y-89762071D02*
X189573760Y-90778071D01*
X189573760Y-89907214D02*
X189501189Y-89834642D01*
X189501189Y-89834642D02*
X189356046Y-89762071D01*
X189356046Y-89762071D02*
X189138332Y-89762071D01*
X189138332Y-89762071D02*
X188993189Y-89834642D01*
X188993189Y-89834642D02*
X188920618Y-89979785D01*
X188920618Y-89979785D02*
X188920618Y-90778071D01*
X187977189Y-90778071D02*
X188122332Y-90705500D01*
X188122332Y-90705500D02*
X188194903Y-90632928D01*
X188194903Y-90632928D02*
X188267475Y-90487785D01*
X188267475Y-90487785D02*
X188267475Y-90052357D01*
X188267475Y-90052357D02*
X188194903Y-89907214D01*
X188194903Y-89907214D02*
X188122332Y-89834642D01*
X188122332Y-89834642D02*
X187977189Y-89762071D01*
X187977189Y-89762071D02*
X187759475Y-89762071D01*
X187759475Y-89762071D02*
X187614332Y-89834642D01*
X187614332Y-89834642D02*
X187541761Y-89907214D01*
X187541761Y-89907214D02*
X187469189Y-90052357D01*
X187469189Y-90052357D02*
X187469189Y-90487785D01*
X187469189Y-90487785D02*
X187541761Y-90632928D01*
X187541761Y-90632928D02*
X187614332Y-90705500D01*
X187614332Y-90705500D02*
X187759475Y-90778071D01*
X187759475Y-90778071D02*
X187977189Y-90778071D01*
X186162904Y-89762071D02*
X186162904Y-90778071D01*
X186816046Y-89762071D02*
X186816046Y-90560357D01*
X186816046Y-90560357D02*
X186743475Y-90705500D01*
X186743475Y-90705500D02*
X186598332Y-90778071D01*
X186598332Y-90778071D02*
X186380618Y-90778071D01*
X186380618Y-90778071D02*
X186235475Y-90705500D01*
X186235475Y-90705500D02*
X186162904Y-90632928D01*
X185654904Y-89762071D02*
X185074332Y-89762071D01*
X185437189Y-89254071D02*
X185437189Y-90560357D01*
X185437189Y-90560357D02*
X185364618Y-90705500D01*
X185364618Y-90705500D02*
X185219475Y-90778071D01*
X185219475Y-90778071D02*
X185074332Y-90778071D01*
X197556616Y-92651055D02*
X196395474Y-92651055D01*
X196976045Y-93231626D02*
X196976045Y-92070483D01*
X194871474Y-93231626D02*
X195742331Y-93231626D01*
X195306902Y-93231626D02*
X195306902Y-91707626D01*
X195306902Y-91707626D02*
X195452045Y-91925340D01*
X195452045Y-91925340D02*
X195597188Y-92070483D01*
X195597188Y-92070483D02*
X195742331Y-92143055D01*
X193492616Y-91707626D02*
X194218330Y-91707626D01*
X194218330Y-91707626D02*
X194290902Y-92433340D01*
X194290902Y-92433340D02*
X194218330Y-92360769D01*
X194218330Y-92360769D02*
X194073188Y-92288197D01*
X194073188Y-92288197D02*
X193710330Y-92288197D01*
X193710330Y-92288197D02*
X193565188Y-92360769D01*
X193565188Y-92360769D02*
X193492616Y-92433340D01*
X193492616Y-92433340D02*
X193420045Y-92578483D01*
X193420045Y-92578483D02*
X193420045Y-92941340D01*
X193420045Y-92941340D02*
X193492616Y-93086483D01*
X193492616Y-93086483D02*
X193565188Y-93159055D01*
X193565188Y-93159055D02*
X193710330Y-93231626D01*
X193710330Y-93231626D02*
X194073188Y-93231626D01*
X194073188Y-93231626D02*
X194218330Y-93159055D01*
X194218330Y-93159055D02*
X194290902Y-93086483D01*
X192984616Y-91707626D02*
X192476616Y-93231626D01*
X192476616Y-93231626D02*
X191968616Y-91707626D01*
X190299472Y-92651055D02*
X189138330Y-92651055D01*
X186453187Y-93231626D02*
X187324044Y-93231626D01*
X186888615Y-93231626D02*
X186888615Y-91707626D01*
X186888615Y-91707626D02*
X187033758Y-91925340D01*
X187033758Y-91925340D02*
X187178901Y-92070483D01*
X187178901Y-92070483D02*
X187324044Y-92143055D01*
X185727472Y-93159055D02*
X185727472Y-93231626D01*
X185727472Y-93231626D02*
X185800043Y-93376769D01*
X185800043Y-93376769D02*
X185872615Y-93449340D01*
X184058329Y-91707626D02*
X183042329Y-91707626D01*
X183042329Y-91707626D02*
X183695472Y-93231626D01*
X182389186Y-93159055D02*
X182389186Y-93231626D01*
X182389186Y-93231626D02*
X182461757Y-93376769D01*
X182461757Y-93376769D02*
X182534329Y-93449340D01*
X180357186Y-92360769D02*
X180502329Y-92288197D01*
X180502329Y-92288197D02*
X180574900Y-92215626D01*
X180574900Y-92215626D02*
X180647472Y-92070483D01*
X180647472Y-92070483D02*
X180647472Y-91997912D01*
X180647472Y-91997912D02*
X180574900Y-91852769D01*
X180574900Y-91852769D02*
X180502329Y-91780197D01*
X180502329Y-91780197D02*
X180357186Y-91707626D01*
X180357186Y-91707626D02*
X180066900Y-91707626D01*
X180066900Y-91707626D02*
X179921758Y-91780197D01*
X179921758Y-91780197D02*
X179849186Y-91852769D01*
X179849186Y-91852769D02*
X179776615Y-91997912D01*
X179776615Y-91997912D02*
X179776615Y-92070483D01*
X179776615Y-92070483D02*
X179849186Y-92215626D01*
X179849186Y-92215626D02*
X179921758Y-92288197D01*
X179921758Y-92288197D02*
X180066900Y-92360769D01*
X180066900Y-92360769D02*
X180357186Y-92360769D01*
X180357186Y-92360769D02*
X180502329Y-92433340D01*
X180502329Y-92433340D02*
X180574900Y-92505912D01*
X180574900Y-92505912D02*
X180647472Y-92651055D01*
X180647472Y-92651055D02*
X180647472Y-92941340D01*
X180647472Y-92941340D02*
X180574900Y-93086483D01*
X180574900Y-93086483D02*
X180502329Y-93159055D01*
X180502329Y-93159055D02*
X180357186Y-93231626D01*
X180357186Y-93231626D02*
X180066900Y-93231626D01*
X180066900Y-93231626D02*
X179921758Y-93159055D01*
X179921758Y-93159055D02*
X179849186Y-93086483D01*
X179849186Y-93086483D02*
X179776615Y-92941340D01*
X179776615Y-92941340D02*
X179776615Y-92651055D01*
X179776615Y-92651055D02*
X179849186Y-92505912D01*
X179849186Y-92505912D02*
X179921758Y-92433340D01*
X179921758Y-92433340D02*
X180066900Y-92360769D01*
X196758331Y-94233752D02*
X196903474Y-94161181D01*
X196903474Y-94161181D02*
X197121188Y-94161181D01*
X197121188Y-94161181D02*
X197338902Y-94233752D01*
X197338902Y-94233752D02*
X197484045Y-94378895D01*
X197484045Y-94378895D02*
X197556616Y-94524038D01*
X197556616Y-94524038D02*
X197629188Y-94814324D01*
X197629188Y-94814324D02*
X197629188Y-95032038D01*
X197629188Y-95032038D02*
X197556616Y-95322324D01*
X197556616Y-95322324D02*
X197484045Y-95467467D01*
X197484045Y-95467467D02*
X197338902Y-95612610D01*
X197338902Y-95612610D02*
X197121188Y-95685181D01*
X197121188Y-95685181D02*
X196976045Y-95685181D01*
X196976045Y-95685181D02*
X196758331Y-95612610D01*
X196758331Y-95612610D02*
X196685759Y-95540038D01*
X196685759Y-95540038D02*
X196685759Y-95032038D01*
X196685759Y-95032038D02*
X196976045Y-95032038D01*
X196032616Y-95685181D02*
X196032616Y-94161181D01*
X196032616Y-94161181D02*
X195161759Y-95685181D01*
X195161759Y-95685181D02*
X195161759Y-94161181D01*
X194436045Y-95685181D02*
X194436045Y-94161181D01*
X194436045Y-94161181D02*
X194073188Y-94161181D01*
X194073188Y-94161181D02*
X193855474Y-94233752D01*
X193855474Y-94233752D02*
X193710331Y-94378895D01*
X193710331Y-94378895D02*
X193637760Y-94524038D01*
X193637760Y-94524038D02*
X193565188Y-94814324D01*
X193565188Y-94814324D02*
X193565188Y-95032038D01*
X193565188Y-95032038D02*
X193637760Y-95322324D01*
X193637760Y-95322324D02*
X193710331Y-95467467D01*
X193710331Y-95467467D02*
X193855474Y-95612610D01*
X193855474Y-95612610D02*
X194073188Y-95685181D01*
X194073188Y-95685181D02*
X194436045Y-95685181D01*
X191750902Y-95104610D02*
X190589760Y-95104610D01*
X188775474Y-94306324D02*
X188702902Y-94233752D01*
X188702902Y-94233752D02*
X188557760Y-94161181D01*
X188557760Y-94161181D02*
X188194902Y-94161181D01*
X188194902Y-94161181D02*
X188049760Y-94233752D01*
X188049760Y-94233752D02*
X187977188Y-94306324D01*
X187977188Y-94306324D02*
X187904617Y-94451467D01*
X187904617Y-94451467D02*
X187904617Y-94596610D01*
X187904617Y-94596610D02*
X187977188Y-94814324D01*
X187977188Y-94814324D02*
X188848045Y-95685181D01*
X188848045Y-95685181D02*
X187904617Y-95685181D01*
X187178902Y-95612610D02*
X187178902Y-95685181D01*
X187178902Y-95685181D02*
X187251473Y-95830324D01*
X187251473Y-95830324D02*
X187324045Y-95902895D01*
X185509759Y-94161181D02*
X184566331Y-94161181D01*
X184566331Y-94161181D02*
X185074331Y-94741752D01*
X185074331Y-94741752D02*
X184856616Y-94741752D01*
X184856616Y-94741752D02*
X184711474Y-94814324D01*
X184711474Y-94814324D02*
X184638902Y-94886895D01*
X184638902Y-94886895D02*
X184566331Y-95032038D01*
X184566331Y-95032038D02*
X184566331Y-95394895D01*
X184566331Y-95394895D02*
X184638902Y-95540038D01*
X184638902Y-95540038D02*
X184711474Y-95612610D01*
X184711474Y-95612610D02*
X184856616Y-95685181D01*
X184856616Y-95685181D02*
X185292045Y-95685181D01*
X185292045Y-95685181D02*
X185437188Y-95612610D01*
X185437188Y-95612610D02*
X185509759Y-95540038D01*
X183840616Y-95612610D02*
X183840616Y-95685181D01*
X183840616Y-95685181D02*
X183913187Y-95830324D01*
X183913187Y-95830324D02*
X183985759Y-95902895D01*
X181373188Y-94161181D02*
X181663473Y-94161181D01*
X181663473Y-94161181D02*
X181808616Y-94233752D01*
X181808616Y-94233752D02*
X181881188Y-94306324D01*
X181881188Y-94306324D02*
X182026330Y-94524038D01*
X182026330Y-94524038D02*
X182098902Y-94814324D01*
X182098902Y-94814324D02*
X182098902Y-95394895D01*
X182098902Y-95394895D02*
X182026330Y-95540038D01*
X182026330Y-95540038D02*
X181953759Y-95612610D01*
X181953759Y-95612610D02*
X181808616Y-95685181D01*
X181808616Y-95685181D02*
X181518330Y-95685181D01*
X181518330Y-95685181D02*
X181373188Y-95612610D01*
X181373188Y-95612610D02*
X181300616Y-95540038D01*
X181300616Y-95540038D02*
X181228045Y-95394895D01*
X181228045Y-95394895D02*
X181228045Y-95032038D01*
X181228045Y-95032038D02*
X181300616Y-94886895D01*
X181300616Y-94886895D02*
X181373188Y-94814324D01*
X181373188Y-94814324D02*
X181518330Y-94741752D01*
X181518330Y-94741752D02*
X181808616Y-94741752D01*
X181808616Y-94741752D02*
X181953759Y-94814324D01*
X181953759Y-94814324D02*
X182026330Y-94886895D01*
X182026330Y-94886895D02*
X182098902Y-95032038D01*
X197629188Y-98066165D02*
X197411474Y-98138736D01*
X197411474Y-98138736D02*
X197048616Y-98138736D01*
X197048616Y-98138736D02*
X196903474Y-98066165D01*
X196903474Y-98066165D02*
X196830902Y-97993593D01*
X196830902Y-97993593D02*
X196758331Y-97848450D01*
X196758331Y-97848450D02*
X196758331Y-97703307D01*
X196758331Y-97703307D02*
X196830902Y-97558165D01*
X196830902Y-97558165D02*
X196903474Y-97485593D01*
X196903474Y-97485593D02*
X197048616Y-97413022D01*
X197048616Y-97413022D02*
X197338902Y-97340450D01*
X197338902Y-97340450D02*
X197484045Y-97267879D01*
X197484045Y-97267879D02*
X197556616Y-97195307D01*
X197556616Y-97195307D02*
X197629188Y-97050165D01*
X197629188Y-97050165D02*
X197629188Y-96905022D01*
X197629188Y-96905022D02*
X197556616Y-96759879D01*
X197556616Y-96759879D02*
X197484045Y-96687307D01*
X197484045Y-96687307D02*
X197338902Y-96614736D01*
X197338902Y-96614736D02*
X196976045Y-96614736D01*
X196976045Y-96614736D02*
X196758331Y-96687307D01*
X196105187Y-98138736D02*
X196105187Y-96614736D01*
X196105187Y-96614736D02*
X195742330Y-96614736D01*
X195742330Y-96614736D02*
X195524616Y-96687307D01*
X195524616Y-96687307D02*
X195379473Y-96832450D01*
X195379473Y-96832450D02*
X195306902Y-96977593D01*
X195306902Y-96977593D02*
X195234330Y-97267879D01*
X195234330Y-97267879D02*
X195234330Y-97485593D01*
X195234330Y-97485593D02*
X195306902Y-97775879D01*
X195306902Y-97775879D02*
X195379473Y-97921022D01*
X195379473Y-97921022D02*
X195524616Y-98066165D01*
X195524616Y-98066165D02*
X195742330Y-98138736D01*
X195742330Y-98138736D02*
X196105187Y-98138736D01*
X194653759Y-97703307D02*
X193928045Y-97703307D01*
X194798902Y-98138736D02*
X194290902Y-96614736D01*
X194290902Y-96614736D02*
X193782902Y-98138736D01*
X192113758Y-97558165D02*
X190952616Y-97558165D01*
X188412616Y-97122736D02*
X188412616Y-98138736D01*
X188775473Y-96542165D02*
X189138330Y-97630736D01*
X189138330Y-97630736D02*
X188194901Y-97630736D01*
X197629188Y-100519720D02*
X197411474Y-100592291D01*
X197411474Y-100592291D02*
X197048616Y-100592291D01*
X197048616Y-100592291D02*
X196903474Y-100519720D01*
X196903474Y-100519720D02*
X196830902Y-100447148D01*
X196830902Y-100447148D02*
X196758331Y-100302005D01*
X196758331Y-100302005D02*
X196758331Y-100156862D01*
X196758331Y-100156862D02*
X196830902Y-100011720D01*
X196830902Y-100011720D02*
X196903474Y-99939148D01*
X196903474Y-99939148D02*
X197048616Y-99866577D01*
X197048616Y-99866577D02*
X197338902Y-99794005D01*
X197338902Y-99794005D02*
X197484045Y-99721434D01*
X197484045Y-99721434D02*
X197556616Y-99648862D01*
X197556616Y-99648862D02*
X197629188Y-99503720D01*
X197629188Y-99503720D02*
X197629188Y-99358577D01*
X197629188Y-99358577D02*
X197556616Y-99213434D01*
X197556616Y-99213434D02*
X197484045Y-99140862D01*
X197484045Y-99140862D02*
X197338902Y-99068291D01*
X197338902Y-99068291D02*
X196976045Y-99068291D01*
X196976045Y-99068291D02*
X196758331Y-99140862D01*
X195234330Y-100447148D02*
X195306902Y-100519720D01*
X195306902Y-100519720D02*
X195524616Y-100592291D01*
X195524616Y-100592291D02*
X195669759Y-100592291D01*
X195669759Y-100592291D02*
X195887473Y-100519720D01*
X195887473Y-100519720D02*
X196032616Y-100374577D01*
X196032616Y-100374577D02*
X196105187Y-100229434D01*
X196105187Y-100229434D02*
X196177759Y-99939148D01*
X196177759Y-99939148D02*
X196177759Y-99721434D01*
X196177759Y-99721434D02*
X196105187Y-99431148D01*
X196105187Y-99431148D02*
X196032616Y-99286005D01*
X196032616Y-99286005D02*
X195887473Y-99140862D01*
X195887473Y-99140862D02*
X195669759Y-99068291D01*
X195669759Y-99068291D02*
X195524616Y-99068291D01*
X195524616Y-99068291D02*
X195306902Y-99140862D01*
X195306902Y-99140862D02*
X195234330Y-99213434D01*
X193855473Y-100592291D02*
X194581187Y-100592291D01*
X194581187Y-100592291D02*
X194581187Y-99068291D01*
X192186330Y-100011720D02*
X191025188Y-100011720D01*
X188412616Y-99068291D02*
X189138330Y-99068291D01*
X189138330Y-99068291D02*
X189210902Y-99794005D01*
X189210902Y-99794005D02*
X189138330Y-99721434D01*
X189138330Y-99721434D02*
X188993188Y-99648862D01*
X188993188Y-99648862D02*
X188630330Y-99648862D01*
X188630330Y-99648862D02*
X188485188Y-99721434D01*
X188485188Y-99721434D02*
X188412616Y-99794005D01*
X188412616Y-99794005D02*
X188340045Y-99939148D01*
X188340045Y-99939148D02*
X188340045Y-100302005D01*
X188340045Y-100302005D02*
X188412616Y-100447148D01*
X188412616Y-100447148D02*
X188485188Y-100519720D01*
X188485188Y-100519720D02*
X188630330Y-100592291D01*
X188630330Y-100592291D02*
X188993188Y-100592291D01*
X188993188Y-100592291D02*
X189138330Y-100519720D01*
X189138330Y-100519720D02*
X189210902Y-100447148D01*
D14*
X205691618Y-82679435D02*
X205812571Y-82618959D01*
X205812571Y-82618959D02*
X205993999Y-82618959D01*
X205993999Y-82618959D02*
X206175428Y-82679435D01*
X206175428Y-82679435D02*
X206296380Y-82800387D01*
X206296380Y-82800387D02*
X206356857Y-82921340D01*
X206356857Y-82921340D02*
X206417333Y-83163244D01*
X206417333Y-83163244D02*
X206417333Y-83344673D01*
X206417333Y-83344673D02*
X206356857Y-83586578D01*
X206356857Y-83586578D02*
X206296380Y-83707530D01*
X206296380Y-83707530D02*
X206175428Y-83828483D01*
X206175428Y-83828483D02*
X205993999Y-83888959D01*
X205993999Y-83888959D02*
X205873047Y-83888959D01*
X205873047Y-83888959D02*
X205691618Y-83828483D01*
X205691618Y-83828483D02*
X205631142Y-83768006D01*
X205631142Y-83768006D02*
X205631142Y-83344673D01*
X205631142Y-83344673D02*
X205873047Y-83344673D01*
X205086857Y-83888959D02*
X205086857Y-82618959D01*
X205086857Y-82618959D02*
X204361142Y-83888959D01*
X204361142Y-83888959D02*
X204361142Y-82618959D01*
X203756381Y-83888959D02*
X203756381Y-82618959D01*
X203756381Y-82618959D02*
X203454000Y-82618959D01*
X203454000Y-82618959D02*
X203272571Y-82679435D01*
X203272571Y-82679435D02*
X203151619Y-82800387D01*
X203151619Y-82800387D02*
X203091142Y-82921340D01*
X203091142Y-82921340D02*
X203030666Y-83163244D01*
X203030666Y-83163244D02*
X203030666Y-83344673D01*
X203030666Y-83344673D02*
X203091142Y-83586578D01*
X203091142Y-83586578D02*
X203151619Y-83707530D01*
X203151619Y-83707530D02*
X203272571Y-83828483D01*
X203272571Y-83828483D02*
X203454000Y-83888959D01*
X203454000Y-83888959D02*
X203756381Y-83888959D01*
D13*
X132021752Y-96463732D02*
X131731466Y-96560494D01*
X131731466Y-96560494D02*
X131634704Y-96657256D01*
X131634704Y-96657256D02*
X131537942Y-96850780D01*
X131537942Y-96850780D02*
X131537942Y-97141066D01*
X131537942Y-97141066D02*
X131634704Y-97334590D01*
X131634704Y-97334590D02*
X131731466Y-97431352D01*
X131731466Y-97431352D02*
X131924990Y-97528113D01*
X131924990Y-97528113D02*
X132699085Y-97528113D01*
X132699085Y-97528113D02*
X132699085Y-95496113D01*
X132699085Y-95496113D02*
X132021752Y-95496113D01*
X132021752Y-95496113D02*
X131828228Y-95592875D01*
X131828228Y-95592875D02*
X131731466Y-95689637D01*
X131731466Y-95689637D02*
X131634704Y-95883161D01*
X131634704Y-95883161D02*
X131634704Y-96076685D01*
X131634704Y-96076685D02*
X131731466Y-96270209D01*
X131731466Y-96270209D02*
X131828228Y-96366971D01*
X131828228Y-96366971D02*
X132021752Y-96463732D01*
X132021752Y-96463732D02*
X132699085Y-96463732D01*
D17*
X203925712Y-130737181D02*
X203925712Y-129213181D01*
X203272570Y-130737181D02*
X203272570Y-129938895D01*
X203272570Y-129938895D02*
X203345141Y-129793752D01*
X203345141Y-129793752D02*
X203490284Y-129721181D01*
X203490284Y-129721181D02*
X203707998Y-129721181D01*
X203707998Y-129721181D02*
X203853141Y-129793752D01*
X203853141Y-129793752D02*
X203925712Y-129866324D01*
X202764570Y-129721181D02*
X202183998Y-129721181D01*
X202546855Y-129213181D02*
X202546855Y-130519467D01*
X202546855Y-130519467D02*
X202474284Y-130664610D01*
X202474284Y-130664610D02*
X202329141Y-130737181D01*
X202329141Y-130737181D02*
X202183998Y-130737181D01*
X201893713Y-129721181D02*
X201313141Y-129721181D01*
X201675998Y-129213181D02*
X201675998Y-130519467D01*
X201675998Y-130519467D02*
X201603427Y-130664610D01*
X201603427Y-130664610D02*
X201458284Y-130737181D01*
X201458284Y-130737181D02*
X201313141Y-130737181D01*
X200805141Y-129721181D02*
X200805141Y-131245181D01*
X200805141Y-129793752D02*
X200659999Y-129721181D01*
X200659999Y-129721181D02*
X200369713Y-129721181D01*
X200369713Y-129721181D02*
X200224570Y-129793752D01*
X200224570Y-129793752D02*
X200151999Y-129866324D01*
X200151999Y-129866324D02*
X200079427Y-130011467D01*
X200079427Y-130011467D02*
X200079427Y-130446895D01*
X200079427Y-130446895D02*
X200151999Y-130592038D01*
X200151999Y-130592038D02*
X200224570Y-130664610D01*
X200224570Y-130664610D02*
X200369713Y-130737181D01*
X200369713Y-130737181D02*
X200659999Y-130737181D01*
X200659999Y-130737181D02*
X200805141Y-130664610D01*
X199426284Y-130592038D02*
X199353713Y-130664610D01*
X199353713Y-130664610D02*
X199426284Y-130737181D01*
X199426284Y-130737181D02*
X199498856Y-130664610D01*
X199498856Y-130664610D02*
X199426284Y-130592038D01*
X199426284Y-130592038D02*
X199426284Y-130737181D01*
X199426284Y-129793752D02*
X199353713Y-129866324D01*
X199353713Y-129866324D02*
X199426284Y-129938895D01*
X199426284Y-129938895D02*
X199498856Y-129866324D01*
X199498856Y-129866324D02*
X199426284Y-129793752D01*
X199426284Y-129793752D02*
X199426284Y-129938895D01*
X197611999Y-129140610D02*
X198918285Y-131100038D01*
X196015428Y-129140610D02*
X197321714Y-131100038D01*
X195507428Y-130737181D02*
X195507428Y-129213181D01*
X194854286Y-130737181D02*
X194854286Y-129938895D01*
X194854286Y-129938895D02*
X194926857Y-129793752D01*
X194926857Y-129793752D02*
X195072000Y-129721181D01*
X195072000Y-129721181D02*
X195289714Y-129721181D01*
X195289714Y-129721181D02*
X195434857Y-129793752D01*
X195434857Y-129793752D02*
X195507428Y-129866324D01*
X193475429Y-130737181D02*
X193475429Y-129938895D01*
X193475429Y-129938895D02*
X193548000Y-129793752D01*
X193548000Y-129793752D02*
X193693143Y-129721181D01*
X193693143Y-129721181D02*
X193983429Y-129721181D01*
X193983429Y-129721181D02*
X194128571Y-129793752D01*
X193475429Y-130664610D02*
X193620571Y-130737181D01*
X193620571Y-130737181D02*
X193983429Y-130737181D01*
X193983429Y-130737181D02*
X194128571Y-130664610D01*
X194128571Y-130664610D02*
X194201143Y-130519467D01*
X194201143Y-130519467D02*
X194201143Y-130374324D01*
X194201143Y-130374324D02*
X194128571Y-130229181D01*
X194128571Y-130229181D02*
X193983429Y-130156610D01*
X193983429Y-130156610D02*
X193620571Y-130156610D01*
X193620571Y-130156610D02*
X193475429Y-130084038D01*
X192096572Y-130664610D02*
X192241714Y-130737181D01*
X192241714Y-130737181D02*
X192532000Y-130737181D01*
X192532000Y-130737181D02*
X192677143Y-130664610D01*
X192677143Y-130664610D02*
X192749714Y-130592038D01*
X192749714Y-130592038D02*
X192822286Y-130446895D01*
X192822286Y-130446895D02*
X192822286Y-130011467D01*
X192822286Y-130011467D02*
X192749714Y-129866324D01*
X192749714Y-129866324D02*
X192677143Y-129793752D01*
X192677143Y-129793752D02*
X192532000Y-129721181D01*
X192532000Y-129721181D02*
X192241714Y-129721181D01*
X192241714Y-129721181D02*
X192096572Y-129793752D01*
X191443428Y-130737181D02*
X191443428Y-129213181D01*
X191298286Y-130156610D02*
X190862857Y-130737181D01*
X190862857Y-129721181D02*
X191443428Y-130301752D01*
X190282286Y-130664610D02*
X190137143Y-130737181D01*
X190137143Y-130737181D02*
X189846857Y-130737181D01*
X189846857Y-130737181D02*
X189701714Y-130664610D01*
X189701714Y-130664610D02*
X189629143Y-130519467D01*
X189629143Y-130519467D02*
X189629143Y-130446895D01*
X189629143Y-130446895D02*
X189701714Y-130301752D01*
X189701714Y-130301752D02*
X189846857Y-130229181D01*
X189846857Y-130229181D02*
X190064572Y-130229181D01*
X190064572Y-130229181D02*
X190209714Y-130156610D01*
X190209714Y-130156610D02*
X190282286Y-130011467D01*
X190282286Y-130011467D02*
X190282286Y-129938895D01*
X190282286Y-129938895D02*
X190209714Y-129793752D01*
X190209714Y-129793752D02*
X190064572Y-129721181D01*
X190064572Y-129721181D02*
X189846857Y-129721181D01*
X189846857Y-129721181D02*
X189701714Y-129793752D01*
X189193715Y-129721181D02*
X188613143Y-129721181D01*
X188976000Y-129213181D02*
X188976000Y-130519467D01*
X188976000Y-130519467D02*
X188903429Y-130664610D01*
X188903429Y-130664610D02*
X188758286Y-130737181D01*
X188758286Y-130737181D02*
X188613143Y-130737181D01*
X188105143Y-130737181D02*
X188105143Y-129721181D01*
X188105143Y-130011467D02*
X188032572Y-129866324D01*
X188032572Y-129866324D02*
X187960001Y-129793752D01*
X187960001Y-129793752D02*
X187814858Y-129721181D01*
X187814858Y-129721181D02*
X187669715Y-129721181D01*
X187161714Y-130737181D02*
X187161714Y-129721181D01*
X187161714Y-129213181D02*
X187234286Y-129285752D01*
X187234286Y-129285752D02*
X187161714Y-129358324D01*
X187161714Y-129358324D02*
X187089143Y-129285752D01*
X187089143Y-129285752D02*
X187161714Y-129213181D01*
X187161714Y-129213181D02*
X187161714Y-129358324D01*
X185782858Y-130664610D02*
X185928000Y-130737181D01*
X185928000Y-130737181D02*
X186218286Y-130737181D01*
X186218286Y-130737181D02*
X186363429Y-130664610D01*
X186363429Y-130664610D02*
X186436000Y-130592038D01*
X186436000Y-130592038D02*
X186508572Y-130446895D01*
X186508572Y-130446895D02*
X186508572Y-130011467D01*
X186508572Y-130011467D02*
X186436000Y-129866324D01*
X186436000Y-129866324D02*
X186363429Y-129793752D01*
X186363429Y-129793752D02*
X186218286Y-129721181D01*
X186218286Y-129721181D02*
X185928000Y-129721181D01*
X185928000Y-129721181D02*
X185782858Y-129793752D01*
X185129714Y-130737181D02*
X185129714Y-129213181D01*
X184476572Y-130737181D02*
X184476572Y-129938895D01*
X184476572Y-129938895D02*
X184549143Y-129793752D01*
X184549143Y-129793752D02*
X184694286Y-129721181D01*
X184694286Y-129721181D02*
X184912000Y-129721181D01*
X184912000Y-129721181D02*
X185057143Y-129793752D01*
X185057143Y-129793752D02*
X185129714Y-129866324D01*
X183750857Y-130592038D02*
X183678286Y-130664610D01*
X183678286Y-130664610D02*
X183750857Y-130737181D01*
X183750857Y-130737181D02*
X183823429Y-130664610D01*
X183823429Y-130664610D02*
X183750857Y-130592038D01*
X183750857Y-130592038D02*
X183750857Y-130737181D01*
X183097715Y-130664610D02*
X182952572Y-130737181D01*
X182952572Y-130737181D02*
X182662286Y-130737181D01*
X182662286Y-130737181D02*
X182517143Y-130664610D01*
X182517143Y-130664610D02*
X182444572Y-130519467D01*
X182444572Y-130519467D02*
X182444572Y-130446895D01*
X182444572Y-130446895D02*
X182517143Y-130301752D01*
X182517143Y-130301752D02*
X182662286Y-130229181D01*
X182662286Y-130229181D02*
X182880001Y-130229181D01*
X182880001Y-130229181D02*
X183025143Y-130156610D01*
X183025143Y-130156610D02*
X183097715Y-130011467D01*
X183097715Y-130011467D02*
X183097715Y-129938895D01*
X183097715Y-129938895D02*
X183025143Y-129793752D01*
X183025143Y-129793752D02*
X182880001Y-129721181D01*
X182880001Y-129721181D02*
X182662286Y-129721181D01*
X182662286Y-129721181D02*
X182517143Y-129793752D01*
X181210858Y-130664610D02*
X181356001Y-130737181D01*
X181356001Y-130737181D02*
X181646287Y-130737181D01*
X181646287Y-130737181D02*
X181791429Y-130664610D01*
X181791429Y-130664610D02*
X181864001Y-130519467D01*
X181864001Y-130519467D02*
X181864001Y-129938895D01*
X181864001Y-129938895D02*
X181791429Y-129793752D01*
X181791429Y-129793752D02*
X181646287Y-129721181D01*
X181646287Y-129721181D02*
X181356001Y-129721181D01*
X181356001Y-129721181D02*
X181210858Y-129793752D01*
X181210858Y-129793752D02*
X181138287Y-129938895D01*
X181138287Y-129938895D02*
X181138287Y-130084038D01*
X181138287Y-130084038D02*
X181864001Y-130229181D01*
X180485143Y-129721181D02*
X180485143Y-130737181D01*
X180485143Y-129866324D02*
X180412572Y-129793752D01*
X180412572Y-129793752D02*
X180267429Y-129721181D01*
X180267429Y-129721181D02*
X180049715Y-129721181D01*
X180049715Y-129721181D02*
X179904572Y-129793752D01*
X179904572Y-129793752D02*
X179832001Y-129938895D01*
X179832001Y-129938895D02*
X179832001Y-130737181D01*
X179106286Y-130592038D02*
X179033715Y-130664610D01*
X179033715Y-130664610D02*
X179106286Y-130737181D01*
X179106286Y-130737181D02*
X179178858Y-130664610D01*
X179178858Y-130664610D02*
X179106286Y-130592038D01*
X179106286Y-130592038D02*
X179106286Y-130737181D01*
X177727430Y-130664610D02*
X177872572Y-130737181D01*
X177872572Y-130737181D02*
X178162858Y-130737181D01*
X178162858Y-130737181D02*
X178308001Y-130664610D01*
X178308001Y-130664610D02*
X178380572Y-130592038D01*
X178380572Y-130592038D02*
X178453144Y-130446895D01*
X178453144Y-130446895D02*
X178453144Y-130011467D01*
X178453144Y-130011467D02*
X178380572Y-129866324D01*
X178380572Y-129866324D02*
X178308001Y-129793752D01*
X178308001Y-129793752D02*
X178162858Y-129721181D01*
X178162858Y-129721181D02*
X177872572Y-129721181D01*
X177872572Y-129721181D02*
X177727430Y-129793752D01*
X177219429Y-130737181D02*
X176421144Y-129721181D01*
X177219429Y-129721181D02*
X176421144Y-130737181D01*
X174752001Y-129140610D02*
X176058287Y-131100038D01*
X173373144Y-130592038D02*
X173445716Y-130664610D01*
X173445716Y-130664610D02*
X173663430Y-130737181D01*
X173663430Y-130737181D02*
X173808573Y-130737181D01*
X173808573Y-130737181D02*
X174026287Y-130664610D01*
X174026287Y-130664610D02*
X174171430Y-130519467D01*
X174171430Y-130519467D02*
X174244001Y-130374324D01*
X174244001Y-130374324D02*
X174316573Y-130084038D01*
X174316573Y-130084038D02*
X174316573Y-129866324D01*
X174316573Y-129866324D02*
X174244001Y-129576038D01*
X174244001Y-129576038D02*
X174171430Y-129430895D01*
X174171430Y-129430895D02*
X174026287Y-129285752D01*
X174026287Y-129285752D02*
X173808573Y-129213181D01*
X173808573Y-129213181D02*
X173663430Y-129213181D01*
X173663430Y-129213181D02*
X173445716Y-129285752D01*
X173445716Y-129285752D02*
X173373144Y-129358324D01*
X172720001Y-129938895D02*
X172212001Y-129938895D01*
X171994287Y-130737181D02*
X172720001Y-130737181D01*
X172720001Y-130737181D02*
X172720001Y-129213181D01*
X172720001Y-129213181D02*
X171994287Y-129213181D01*
X170470287Y-130737181D02*
X170978287Y-130011467D01*
X171341144Y-130737181D02*
X171341144Y-129213181D01*
X171341144Y-129213181D02*
X170760573Y-129213181D01*
X170760573Y-129213181D02*
X170615430Y-129285752D01*
X170615430Y-129285752D02*
X170542859Y-129358324D01*
X170542859Y-129358324D02*
X170470287Y-129503467D01*
X170470287Y-129503467D02*
X170470287Y-129721181D01*
X170470287Y-129721181D02*
X170542859Y-129866324D01*
X170542859Y-129866324D02*
X170615430Y-129938895D01*
X170615430Y-129938895D02*
X170760573Y-130011467D01*
X170760573Y-130011467D02*
X171341144Y-130011467D01*
X169817144Y-130737181D02*
X169817144Y-129213181D01*
X169817144Y-129213181D02*
X168946287Y-130737181D01*
X168946287Y-130737181D02*
X168946287Y-129213181D01*
X168583431Y-130882324D02*
X167422288Y-130882324D01*
X167059430Y-130737181D02*
X167059430Y-129213181D01*
X167059430Y-129213181D02*
X166696573Y-129213181D01*
X166696573Y-129213181D02*
X166478859Y-129285752D01*
X166478859Y-129285752D02*
X166333716Y-129430895D01*
X166333716Y-129430895D02*
X166261145Y-129576038D01*
X166261145Y-129576038D02*
X166188573Y-129866324D01*
X166188573Y-129866324D02*
X166188573Y-130084038D01*
X166188573Y-130084038D02*
X166261145Y-130374324D01*
X166261145Y-130374324D02*
X166333716Y-130519467D01*
X166333716Y-130519467D02*
X166478859Y-130664610D01*
X166478859Y-130664610D02*
X166696573Y-130737181D01*
X166696573Y-130737181D02*
X167059430Y-130737181D01*
X165535430Y-130737181D02*
X165535430Y-129721181D01*
X165535430Y-129213181D02*
X165608002Y-129285752D01*
X165608002Y-129285752D02*
X165535430Y-129358324D01*
X165535430Y-129358324D02*
X165462859Y-129285752D01*
X165462859Y-129285752D02*
X165535430Y-129213181D01*
X165535430Y-129213181D02*
X165535430Y-129358324D01*
X164882288Y-130664610D02*
X164737145Y-130737181D01*
X164737145Y-130737181D02*
X164446859Y-130737181D01*
X164446859Y-130737181D02*
X164301716Y-130664610D01*
X164301716Y-130664610D02*
X164229145Y-130519467D01*
X164229145Y-130519467D02*
X164229145Y-130446895D01*
X164229145Y-130446895D02*
X164301716Y-130301752D01*
X164301716Y-130301752D02*
X164446859Y-130229181D01*
X164446859Y-130229181D02*
X164664574Y-130229181D01*
X164664574Y-130229181D02*
X164809716Y-130156610D01*
X164809716Y-130156610D02*
X164882288Y-130011467D01*
X164882288Y-130011467D02*
X164882288Y-129938895D01*
X164882288Y-129938895D02*
X164809716Y-129793752D01*
X164809716Y-129793752D02*
X164664574Y-129721181D01*
X164664574Y-129721181D02*
X164446859Y-129721181D01*
X164446859Y-129721181D02*
X164301716Y-129793752D01*
X163576002Y-129721181D02*
X163576002Y-131245181D01*
X163576002Y-129793752D02*
X163430860Y-129721181D01*
X163430860Y-129721181D02*
X163140574Y-129721181D01*
X163140574Y-129721181D02*
X162995431Y-129793752D01*
X162995431Y-129793752D02*
X162922860Y-129866324D01*
X162922860Y-129866324D02*
X162850288Y-130011467D01*
X162850288Y-130011467D02*
X162850288Y-130446895D01*
X162850288Y-130446895D02*
X162922860Y-130592038D01*
X162922860Y-130592038D02*
X162995431Y-130664610D01*
X162995431Y-130664610D02*
X163140574Y-130737181D01*
X163140574Y-130737181D02*
X163430860Y-130737181D01*
X163430860Y-130737181D02*
X163576002Y-130664610D01*
X161979431Y-130737181D02*
X162124574Y-130664610D01*
X162124574Y-130664610D02*
X162197145Y-130519467D01*
X162197145Y-130519467D02*
X162197145Y-129213181D01*
X160745717Y-130737181D02*
X160745717Y-129938895D01*
X160745717Y-129938895D02*
X160818288Y-129793752D01*
X160818288Y-129793752D02*
X160963431Y-129721181D01*
X160963431Y-129721181D02*
X161253717Y-129721181D01*
X161253717Y-129721181D02*
X161398859Y-129793752D01*
X160745717Y-130664610D02*
X160890859Y-130737181D01*
X160890859Y-130737181D02*
X161253717Y-130737181D01*
X161253717Y-130737181D02*
X161398859Y-130664610D01*
X161398859Y-130664610D02*
X161471431Y-130519467D01*
X161471431Y-130519467D02*
X161471431Y-130374324D01*
X161471431Y-130374324D02*
X161398859Y-130229181D01*
X161398859Y-130229181D02*
X161253717Y-130156610D01*
X161253717Y-130156610D02*
X160890859Y-130156610D01*
X160890859Y-130156610D02*
X160745717Y-130084038D01*
X160165145Y-129721181D02*
X159802288Y-130737181D01*
X159439431Y-129721181D02*
X159802288Y-130737181D01*
X159802288Y-130737181D02*
X159947431Y-131100038D01*
X159947431Y-131100038D02*
X160020002Y-131172610D01*
X160020002Y-131172610D02*
X160165145Y-131245181D01*
X159221717Y-130882324D02*
X158060574Y-130882324D01*
X156826859Y-130592038D02*
X156899431Y-130664610D01*
X156899431Y-130664610D02*
X157117145Y-130737181D01*
X157117145Y-130737181D02*
X157262288Y-130737181D01*
X157262288Y-130737181D02*
X157480002Y-130664610D01*
X157480002Y-130664610D02*
X157625145Y-130519467D01*
X157625145Y-130519467D02*
X157697716Y-130374324D01*
X157697716Y-130374324D02*
X157770288Y-130084038D01*
X157770288Y-130084038D02*
X157770288Y-129866324D01*
X157770288Y-129866324D02*
X157697716Y-129576038D01*
X157697716Y-129576038D02*
X157625145Y-129430895D01*
X157625145Y-129430895D02*
X157480002Y-129285752D01*
X157480002Y-129285752D02*
X157262288Y-129213181D01*
X157262288Y-129213181D02*
X157117145Y-129213181D01*
X157117145Y-129213181D02*
X156899431Y-129285752D01*
X156899431Y-129285752D02*
X156826859Y-129358324D01*
X155956002Y-130737181D02*
X156101145Y-130664610D01*
X156101145Y-130664610D02*
X156173716Y-130592038D01*
X156173716Y-130592038D02*
X156246288Y-130446895D01*
X156246288Y-130446895D02*
X156246288Y-130011467D01*
X156246288Y-130011467D02*
X156173716Y-129866324D01*
X156173716Y-129866324D02*
X156101145Y-129793752D01*
X156101145Y-129793752D02*
X155956002Y-129721181D01*
X155956002Y-129721181D02*
X155738288Y-129721181D01*
X155738288Y-129721181D02*
X155593145Y-129793752D01*
X155593145Y-129793752D02*
X155520574Y-129866324D01*
X155520574Y-129866324D02*
X155448002Y-130011467D01*
X155448002Y-130011467D02*
X155448002Y-130446895D01*
X155448002Y-130446895D02*
X155520574Y-130592038D01*
X155520574Y-130592038D02*
X155593145Y-130664610D01*
X155593145Y-130664610D02*
X155738288Y-130737181D01*
X155738288Y-130737181D02*
X155956002Y-130737181D01*
X154794859Y-129721181D02*
X154794859Y-130737181D01*
X154794859Y-129866324D02*
X154722288Y-129793752D01*
X154722288Y-129793752D02*
X154577145Y-129721181D01*
X154577145Y-129721181D02*
X154359431Y-129721181D01*
X154359431Y-129721181D02*
X154214288Y-129793752D01*
X154214288Y-129793752D02*
X154141717Y-129938895D01*
X154141717Y-129938895D02*
X154141717Y-130737181D01*
X153633717Y-129721181D02*
X153053145Y-129721181D01*
X153416002Y-129213181D02*
X153416002Y-130519467D01*
X153416002Y-130519467D02*
X153343431Y-130664610D01*
X153343431Y-130664610D02*
X153198288Y-130737181D01*
X153198288Y-130737181D02*
X153053145Y-130737181D01*
X152545145Y-130737181D02*
X152545145Y-129721181D01*
X152545145Y-130011467D02*
X152472574Y-129866324D01*
X152472574Y-129866324D02*
X152400003Y-129793752D01*
X152400003Y-129793752D02*
X152254860Y-129721181D01*
X152254860Y-129721181D02*
X152109717Y-129721181D01*
X151384002Y-130737181D02*
X151529145Y-130664610D01*
X151529145Y-130664610D02*
X151601716Y-130592038D01*
X151601716Y-130592038D02*
X151674288Y-130446895D01*
X151674288Y-130446895D02*
X151674288Y-130011467D01*
X151674288Y-130011467D02*
X151601716Y-129866324D01*
X151601716Y-129866324D02*
X151529145Y-129793752D01*
X151529145Y-129793752D02*
X151384002Y-129721181D01*
X151384002Y-129721181D02*
X151166288Y-129721181D01*
X151166288Y-129721181D02*
X151021145Y-129793752D01*
X151021145Y-129793752D02*
X150948574Y-129866324D01*
X150948574Y-129866324D02*
X150876002Y-130011467D01*
X150876002Y-130011467D02*
X150876002Y-130446895D01*
X150876002Y-130446895D02*
X150948574Y-130592038D01*
X150948574Y-130592038D02*
X151021145Y-130664610D01*
X151021145Y-130664610D02*
X151166288Y-130737181D01*
X151166288Y-130737181D02*
X151384002Y-130737181D01*
X150005145Y-130737181D02*
X150150288Y-130664610D01*
X150150288Y-130664610D02*
X150222859Y-130519467D01*
X150222859Y-130519467D02*
X150222859Y-129213181D01*
X149206859Y-130737181D02*
X149352002Y-130664610D01*
X149352002Y-130664610D02*
X149424573Y-130519467D01*
X149424573Y-130519467D02*
X149424573Y-129213181D01*
X148045716Y-130664610D02*
X148190859Y-130737181D01*
X148190859Y-130737181D02*
X148481145Y-130737181D01*
X148481145Y-130737181D02*
X148626287Y-130664610D01*
X148626287Y-130664610D02*
X148698859Y-130519467D01*
X148698859Y-130519467D02*
X148698859Y-129938895D01*
X148698859Y-129938895D02*
X148626287Y-129793752D01*
X148626287Y-129793752D02*
X148481145Y-129721181D01*
X148481145Y-129721181D02*
X148190859Y-129721181D01*
X148190859Y-129721181D02*
X148045716Y-129793752D01*
X148045716Y-129793752D02*
X147973145Y-129938895D01*
X147973145Y-129938895D02*
X147973145Y-130084038D01*
X147973145Y-130084038D02*
X148698859Y-130229181D01*
X147320001Y-130737181D02*
X147320001Y-129721181D01*
X147320001Y-130011467D02*
X147247430Y-129866324D01*
X147247430Y-129866324D02*
X147174859Y-129793752D01*
X147174859Y-129793752D02*
X147029716Y-129721181D01*
X147029716Y-129721181D02*
X146884573Y-129721181D01*
D14*
X127762000Y-89247149D02*
X126794381Y-89247149D01*
X127278190Y-89730959D02*
X127278190Y-88763340D01*
X126310571Y-88460959D02*
X125524380Y-88460959D01*
X125524380Y-88460959D02*
X125947714Y-88944768D01*
X125947714Y-88944768D02*
X125766285Y-88944768D01*
X125766285Y-88944768D02*
X125645333Y-89005244D01*
X125645333Y-89005244D02*
X125584857Y-89065721D01*
X125584857Y-89065721D02*
X125524380Y-89186673D01*
X125524380Y-89186673D02*
X125524380Y-89489054D01*
X125524380Y-89489054D02*
X125584857Y-89610006D01*
X125584857Y-89610006D02*
X125645333Y-89670483D01*
X125645333Y-89670483D02*
X125766285Y-89730959D01*
X125766285Y-89730959D02*
X126129142Y-89730959D01*
X126129142Y-89730959D02*
X126250095Y-89670483D01*
X126250095Y-89670483D02*
X126310571Y-89610006D01*
X124980095Y-89610006D02*
X124919618Y-89670483D01*
X124919618Y-89670483D02*
X124980095Y-89730959D01*
X124980095Y-89730959D02*
X125040571Y-89670483D01*
X125040571Y-89670483D02*
X124980095Y-89610006D01*
X124980095Y-89610006D02*
X124980095Y-89730959D01*
X124496285Y-88460959D02*
X123710094Y-88460959D01*
X123710094Y-88460959D02*
X124133428Y-88944768D01*
X124133428Y-88944768D02*
X123951999Y-88944768D01*
X123951999Y-88944768D02*
X123831047Y-89005244D01*
X123831047Y-89005244D02*
X123770571Y-89065721D01*
X123770571Y-89065721D02*
X123710094Y-89186673D01*
X123710094Y-89186673D02*
X123710094Y-89489054D01*
X123710094Y-89489054D02*
X123770571Y-89610006D01*
X123770571Y-89610006D02*
X123831047Y-89670483D01*
X123831047Y-89670483D02*
X123951999Y-89730959D01*
X123951999Y-89730959D02*
X124314856Y-89730959D01*
X124314856Y-89730959D02*
X124435809Y-89670483D01*
X124435809Y-89670483D02*
X124496285Y-89610006D01*
X123347237Y-88460959D02*
X122923904Y-89730959D01*
X122923904Y-89730959D02*
X122500570Y-88460959D01*
D18*
X173788128Y-95769580D02*
X173835747Y-95817200D01*
X173835747Y-95817200D02*
X173978604Y-95864819D01*
X173978604Y-95864819D02*
X174073842Y-95864819D01*
X174073842Y-95864819D02*
X174216699Y-95817200D01*
X174216699Y-95817200D02*
X174311937Y-95721961D01*
X174311937Y-95721961D02*
X174359556Y-95626723D01*
X174359556Y-95626723D02*
X174407175Y-95436247D01*
X174407175Y-95436247D02*
X174407175Y-95293390D01*
X174407175Y-95293390D02*
X174359556Y-95102914D01*
X174359556Y-95102914D02*
X174311937Y-95007676D01*
X174311937Y-95007676D02*
X174216699Y-94912438D01*
X174216699Y-94912438D02*
X174073842Y-94864819D01*
X174073842Y-94864819D02*
X173978604Y-94864819D01*
X173978604Y-94864819D02*
X173835747Y-94912438D01*
X173835747Y-94912438D02*
X173788128Y-94960057D01*
X172883366Y-94864819D02*
X173359556Y-94864819D01*
X173359556Y-94864819D02*
X173407175Y-95341009D01*
X173407175Y-95341009D02*
X173359556Y-95293390D01*
X173359556Y-95293390D02*
X173264318Y-95245771D01*
X173264318Y-95245771D02*
X173026223Y-95245771D01*
X173026223Y-95245771D02*
X172930985Y-95293390D01*
X172930985Y-95293390D02*
X172883366Y-95341009D01*
X172883366Y-95341009D02*
X172835747Y-95436247D01*
X172835747Y-95436247D02*
X172835747Y-95674342D01*
X172835747Y-95674342D02*
X172883366Y-95769580D01*
X172883366Y-95769580D02*
X172930985Y-95817200D01*
X172930985Y-95817200D02*
X173026223Y-95864819D01*
X173026223Y-95864819D02*
X173264318Y-95864819D01*
X173264318Y-95864819D02*
X173359556Y-95817200D01*
X173359556Y-95817200D02*
X173407175Y-95769580D01*
X120332039Y-104116970D02*
X120665372Y-103640779D01*
X120903467Y-104116970D02*
X120903467Y-103116970D01*
X120903467Y-103116970D02*
X120522515Y-103116970D01*
X120522515Y-103116970D02*
X120427277Y-103164589D01*
X120427277Y-103164589D02*
X120379658Y-103212208D01*
X120379658Y-103212208D02*
X120332039Y-103307446D01*
X120332039Y-103307446D02*
X120332039Y-103450303D01*
X120332039Y-103450303D02*
X120379658Y-103545541D01*
X120379658Y-103545541D02*
X120427277Y-103593160D01*
X120427277Y-103593160D02*
X120522515Y-103640779D01*
X120522515Y-103640779D02*
X120903467Y-103640779D01*
X119474896Y-103450303D02*
X119474896Y-104116970D01*
X119712991Y-103069351D02*
X119951086Y-103783636D01*
X119951086Y-103783636D02*
X119332039Y-103783636D01*
X141678819Y-120737333D02*
X141202628Y-120404000D01*
X141678819Y-120165905D02*
X140678819Y-120165905D01*
X140678819Y-120165905D02*
X140678819Y-120546857D01*
X140678819Y-120546857D02*
X140726438Y-120642095D01*
X140726438Y-120642095D02*
X140774057Y-120689714D01*
X140774057Y-120689714D02*
X140869295Y-120737333D01*
X140869295Y-120737333D02*
X141012152Y-120737333D01*
X141012152Y-120737333D02*
X141107390Y-120689714D01*
X141107390Y-120689714D02*
X141155009Y-120642095D01*
X141155009Y-120642095D02*
X141202628Y-120546857D01*
X141202628Y-120546857D02*
X141202628Y-120165905D01*
X140678819Y-121594476D02*
X140678819Y-121404000D01*
X140678819Y-121404000D02*
X140726438Y-121308762D01*
X140726438Y-121308762D02*
X140774057Y-121261143D01*
X140774057Y-121261143D02*
X140916914Y-121165905D01*
X140916914Y-121165905D02*
X141107390Y-121118286D01*
X141107390Y-121118286D02*
X141488342Y-121118286D01*
X141488342Y-121118286D02*
X141583580Y-121165905D01*
X141583580Y-121165905D02*
X141631200Y-121213524D01*
X141631200Y-121213524D02*
X141678819Y-121308762D01*
X141678819Y-121308762D02*
X141678819Y-121499238D01*
X141678819Y-121499238D02*
X141631200Y-121594476D01*
X141631200Y-121594476D02*
X141583580Y-121642095D01*
X141583580Y-121642095D02*
X141488342Y-121689714D01*
X141488342Y-121689714D02*
X141250247Y-121689714D01*
X141250247Y-121689714D02*
X141155009Y-121642095D01*
X141155009Y-121642095D02*
X141107390Y-121594476D01*
X141107390Y-121594476D02*
X141059771Y-121499238D01*
X141059771Y-121499238D02*
X141059771Y-121308762D01*
X141059771Y-121308762D02*
X141107390Y-121213524D01*
X141107390Y-121213524D02*
X141155009Y-121165905D01*
X141155009Y-121165905D02*
X141250247Y-121118286D01*
X150816819Y-95709523D02*
X150340628Y-95376190D01*
X150816819Y-95138095D02*
X149816819Y-95138095D01*
X149816819Y-95138095D02*
X149816819Y-95519047D01*
X149816819Y-95519047D02*
X149864438Y-95614285D01*
X149864438Y-95614285D02*
X149912057Y-95661904D01*
X149912057Y-95661904D02*
X150007295Y-95709523D01*
X150007295Y-95709523D02*
X150150152Y-95709523D01*
X150150152Y-95709523D02*
X150245390Y-95661904D01*
X150245390Y-95661904D02*
X150293009Y-95614285D01*
X150293009Y-95614285D02*
X150340628Y-95519047D01*
X150340628Y-95519047D02*
X150340628Y-95138095D01*
X150816819Y-96138095D02*
X149816819Y-96138095D01*
X149816819Y-96138095D02*
X150816819Y-96709523D01*
X150816819Y-96709523D02*
X149816819Y-96709523D01*
X149912057Y-97138095D02*
X149864438Y-97185714D01*
X149864438Y-97185714D02*
X149816819Y-97280952D01*
X149816819Y-97280952D02*
X149816819Y-97519047D01*
X149816819Y-97519047D02*
X149864438Y-97614285D01*
X149864438Y-97614285D02*
X149912057Y-97661904D01*
X149912057Y-97661904D02*
X150007295Y-97709523D01*
X150007295Y-97709523D02*
X150102533Y-97709523D01*
X150102533Y-97709523D02*
X150245390Y-97661904D01*
X150245390Y-97661904D02*
X150816819Y-97090476D01*
X150816819Y-97090476D02*
X150816819Y-97709523D01*
X198333333Y-70751009D02*
X198666666Y-70751009D01*
X198666666Y-71274819D02*
X198666666Y-70274819D01*
X198666666Y-70274819D02*
X198190476Y-70274819D01*
X197380952Y-70608152D02*
X197380952Y-71274819D01*
X197619047Y-70227200D02*
X197857142Y-70941485D01*
X197857142Y-70941485D02*
X197238095Y-70941485D01*
X179015580Y-82656142D02*
X179063200Y-82608523D01*
X179063200Y-82608523D02*
X179110819Y-82465666D01*
X179110819Y-82465666D02*
X179110819Y-82370428D01*
X179110819Y-82370428D02*
X179063200Y-82227571D01*
X179063200Y-82227571D02*
X178967961Y-82132333D01*
X178967961Y-82132333D02*
X178872723Y-82084714D01*
X178872723Y-82084714D02*
X178682247Y-82037095D01*
X178682247Y-82037095D02*
X178539390Y-82037095D01*
X178539390Y-82037095D02*
X178348914Y-82084714D01*
X178348914Y-82084714D02*
X178253676Y-82132333D01*
X178253676Y-82132333D02*
X178158438Y-82227571D01*
X178158438Y-82227571D02*
X178110819Y-82370428D01*
X178110819Y-82370428D02*
X178110819Y-82465666D01*
X178110819Y-82465666D02*
X178158438Y-82608523D01*
X178158438Y-82608523D02*
X178206057Y-82656142D01*
X179110819Y-83608523D02*
X179110819Y-83037095D01*
X179110819Y-83322809D02*
X178110819Y-83322809D01*
X178110819Y-83322809D02*
X178253676Y-83227571D01*
X178253676Y-83227571D02*
X178348914Y-83132333D01*
X178348914Y-83132333D02*
X178396533Y-83037095D01*
X178206057Y-83989476D02*
X178158438Y-84037095D01*
X178158438Y-84037095D02*
X178110819Y-84132333D01*
X178110819Y-84132333D02*
X178110819Y-84370428D01*
X178110819Y-84370428D02*
X178158438Y-84465666D01*
X178158438Y-84465666D02*
X178206057Y-84513285D01*
X178206057Y-84513285D02*
X178301295Y-84560904D01*
X178301295Y-84560904D02*
X178396533Y-84560904D01*
X178396533Y-84560904D02*
X178539390Y-84513285D01*
X178539390Y-84513285D02*
X179110819Y-83941857D01*
X179110819Y-83941857D02*
X179110819Y-84560904D01*
X168761580Y-82528562D02*
X168809200Y-82480943D01*
X168809200Y-82480943D02*
X168856819Y-82338086D01*
X168856819Y-82338086D02*
X168856819Y-82242848D01*
X168856819Y-82242848D02*
X168809200Y-82099991D01*
X168809200Y-82099991D02*
X168713961Y-82004753D01*
X168713961Y-82004753D02*
X168618723Y-81957134D01*
X168618723Y-81957134D02*
X168428247Y-81909515D01*
X168428247Y-81909515D02*
X168285390Y-81909515D01*
X168285390Y-81909515D02*
X168094914Y-81957134D01*
X168094914Y-81957134D02*
X167999676Y-82004753D01*
X167999676Y-82004753D02*
X167904438Y-82099991D01*
X167904438Y-82099991D02*
X167856819Y-82242848D01*
X167856819Y-82242848D02*
X167856819Y-82338086D01*
X167856819Y-82338086D02*
X167904438Y-82480943D01*
X167904438Y-82480943D02*
X167952057Y-82528562D01*
X168856819Y-83480943D02*
X168856819Y-82909515D01*
X168856819Y-83195229D02*
X167856819Y-83195229D01*
X167856819Y-83195229D02*
X167999676Y-83099991D01*
X167999676Y-83099991D02*
X168094914Y-83004753D01*
X168094914Y-83004753D02*
X168142533Y-82909515D01*
X167856819Y-84385705D02*
X167856819Y-83909515D01*
X167856819Y-83909515D02*
X168333009Y-83861896D01*
X168333009Y-83861896D02*
X168285390Y-83909515D01*
X168285390Y-83909515D02*
X168237771Y-84004753D01*
X168237771Y-84004753D02*
X168237771Y-84242848D01*
X168237771Y-84242848D02*
X168285390Y-84338086D01*
X168285390Y-84338086D02*
X168333009Y-84385705D01*
X168333009Y-84385705D02*
X168428247Y-84433324D01*
X168428247Y-84433324D02*
X168666342Y-84433324D01*
X168666342Y-84433324D02*
X168761580Y-84385705D01*
X168761580Y-84385705D02*
X168809200Y-84338086D01*
X168809200Y-84338086D02*
X168856819Y-84242848D01*
X168856819Y-84242848D02*
X168856819Y-84004753D01*
X168856819Y-84004753D02*
X168809200Y-83909515D01*
X168809200Y-83909515D02*
X168761580Y-83861896D01*
X167131904Y-85560819D02*
X167131904Y-86370342D01*
X167131904Y-86370342D02*
X167084285Y-86465580D01*
X167084285Y-86465580D02*
X167036666Y-86513200D01*
X167036666Y-86513200D02*
X166941428Y-86560819D01*
X166941428Y-86560819D02*
X166750952Y-86560819D01*
X166750952Y-86560819D02*
X166655714Y-86513200D01*
X166655714Y-86513200D02*
X166608095Y-86465580D01*
X166608095Y-86465580D02*
X166560476Y-86370342D01*
X166560476Y-86370342D02*
X166560476Y-85560819D01*
X166131904Y-85656057D02*
X166084285Y-85608438D01*
X166084285Y-85608438D02*
X165989047Y-85560819D01*
X165989047Y-85560819D02*
X165750952Y-85560819D01*
X165750952Y-85560819D02*
X165655714Y-85608438D01*
X165655714Y-85608438D02*
X165608095Y-85656057D01*
X165608095Y-85656057D02*
X165560476Y-85751295D01*
X165560476Y-85751295D02*
X165560476Y-85846533D01*
X165560476Y-85846533D02*
X165608095Y-85989390D01*
X165608095Y-85989390D02*
X166179523Y-86560819D01*
X166179523Y-86560819D02*
X165560476Y-86560819D01*
X191207580Y-82656142D02*
X191255200Y-82608523D01*
X191255200Y-82608523D02*
X191302819Y-82465666D01*
X191302819Y-82465666D02*
X191302819Y-82370428D01*
X191302819Y-82370428D02*
X191255200Y-82227571D01*
X191255200Y-82227571D02*
X191159961Y-82132333D01*
X191159961Y-82132333D02*
X191064723Y-82084714D01*
X191064723Y-82084714D02*
X190874247Y-82037095D01*
X190874247Y-82037095D02*
X190731390Y-82037095D01*
X190731390Y-82037095D02*
X190540914Y-82084714D01*
X190540914Y-82084714D02*
X190445676Y-82132333D01*
X190445676Y-82132333D02*
X190350438Y-82227571D01*
X190350438Y-82227571D02*
X190302819Y-82370428D01*
X190302819Y-82370428D02*
X190302819Y-82465666D01*
X190302819Y-82465666D02*
X190350438Y-82608523D01*
X190350438Y-82608523D02*
X190398057Y-82656142D01*
X191302819Y-83608523D02*
X191302819Y-83037095D01*
X191302819Y-83322809D02*
X190302819Y-83322809D01*
X190302819Y-83322809D02*
X190445676Y-83227571D01*
X190445676Y-83227571D02*
X190540914Y-83132333D01*
X190540914Y-83132333D02*
X190588533Y-83037095D01*
X190636152Y-84465666D02*
X191302819Y-84465666D01*
X190255200Y-84227571D02*
X190969485Y-83989476D01*
X190969485Y-83989476D02*
X190969485Y-84608523D01*
X120332039Y-98616970D02*
X120665372Y-98140779D01*
X120903467Y-98616970D02*
X120903467Y-97616970D01*
X120903467Y-97616970D02*
X120522515Y-97616970D01*
X120522515Y-97616970D02*
X120427277Y-97664589D01*
X120427277Y-97664589D02*
X120379658Y-97712208D01*
X120379658Y-97712208D02*
X120332039Y-97807446D01*
X120332039Y-97807446D02*
X120332039Y-97950303D01*
X120332039Y-97950303D02*
X120379658Y-98045541D01*
X120379658Y-98045541D02*
X120427277Y-98093160D01*
X120427277Y-98093160D02*
X120522515Y-98140779D01*
X120522515Y-98140779D02*
X120903467Y-98140779D01*
X119998705Y-97616970D02*
X119379658Y-97616970D01*
X119379658Y-97616970D02*
X119712991Y-97997922D01*
X119712991Y-97997922D02*
X119570134Y-97997922D01*
X119570134Y-97997922D02*
X119474896Y-98045541D01*
X119474896Y-98045541D02*
X119427277Y-98093160D01*
X119427277Y-98093160D02*
X119379658Y-98188398D01*
X119379658Y-98188398D02*
X119379658Y-98426493D01*
X119379658Y-98426493D02*
X119427277Y-98521731D01*
X119427277Y-98521731D02*
X119474896Y-98569351D01*
X119474896Y-98569351D02*
X119570134Y-98616970D01*
X119570134Y-98616970D02*
X119855848Y-98616970D01*
X119855848Y-98616970D02*
X119951086Y-98569351D01*
X119951086Y-98569351D02*
X119998705Y-98521731D01*
X141583580Y-129373333D02*
X141631200Y-129325714D01*
X141631200Y-129325714D02*
X141678819Y-129182857D01*
X141678819Y-129182857D02*
X141678819Y-129087619D01*
X141678819Y-129087619D02*
X141631200Y-128944762D01*
X141631200Y-128944762D02*
X141535961Y-128849524D01*
X141535961Y-128849524D02*
X141440723Y-128801905D01*
X141440723Y-128801905D02*
X141250247Y-128754286D01*
X141250247Y-128754286D02*
X141107390Y-128754286D01*
X141107390Y-128754286D02*
X140916914Y-128801905D01*
X140916914Y-128801905D02*
X140821676Y-128849524D01*
X140821676Y-128849524D02*
X140726438Y-128944762D01*
X140726438Y-128944762D02*
X140678819Y-129087619D01*
X140678819Y-129087619D02*
X140678819Y-129182857D01*
X140678819Y-129182857D02*
X140726438Y-129325714D01*
X140726438Y-129325714D02*
X140774057Y-129373333D01*
X141107390Y-129944762D02*
X141059771Y-129849524D01*
X141059771Y-129849524D02*
X141012152Y-129801905D01*
X141012152Y-129801905D02*
X140916914Y-129754286D01*
X140916914Y-129754286D02*
X140869295Y-129754286D01*
X140869295Y-129754286D02*
X140774057Y-129801905D01*
X140774057Y-129801905D02*
X140726438Y-129849524D01*
X140726438Y-129849524D02*
X140678819Y-129944762D01*
X140678819Y-129944762D02*
X140678819Y-130135238D01*
X140678819Y-130135238D02*
X140726438Y-130230476D01*
X140726438Y-130230476D02*
X140774057Y-130278095D01*
X140774057Y-130278095D02*
X140869295Y-130325714D01*
X140869295Y-130325714D02*
X140916914Y-130325714D01*
X140916914Y-130325714D02*
X141012152Y-130278095D01*
X141012152Y-130278095D02*
X141059771Y-130230476D01*
X141059771Y-130230476D02*
X141107390Y-130135238D01*
X141107390Y-130135238D02*
X141107390Y-129944762D01*
X141107390Y-129944762D02*
X141155009Y-129849524D01*
X141155009Y-129849524D02*
X141202628Y-129801905D01*
X141202628Y-129801905D02*
X141297866Y-129754286D01*
X141297866Y-129754286D02*
X141488342Y-129754286D01*
X141488342Y-129754286D02*
X141583580Y-129801905D01*
X141583580Y-129801905D02*
X141631200Y-129849524D01*
X141631200Y-129849524D02*
X141678819Y-129944762D01*
X141678819Y-129944762D02*
X141678819Y-130135238D01*
X141678819Y-130135238D02*
X141631200Y-130230476D01*
X141631200Y-130230476D02*
X141583580Y-130278095D01*
X141583580Y-130278095D02*
X141488342Y-130325714D01*
X141488342Y-130325714D02*
X141297866Y-130325714D01*
X141297866Y-130325714D02*
X141202628Y-130278095D01*
X141202628Y-130278095D02*
X141155009Y-130230476D01*
X141155009Y-130230476D02*
X141107390Y-130135238D01*
X185111580Y-82643142D02*
X185159200Y-82595523D01*
X185159200Y-82595523D02*
X185206819Y-82452666D01*
X185206819Y-82452666D02*
X185206819Y-82357428D01*
X185206819Y-82357428D02*
X185159200Y-82214571D01*
X185159200Y-82214571D02*
X185063961Y-82119333D01*
X185063961Y-82119333D02*
X184968723Y-82071714D01*
X184968723Y-82071714D02*
X184778247Y-82024095D01*
X184778247Y-82024095D02*
X184635390Y-82024095D01*
X184635390Y-82024095D02*
X184444914Y-82071714D01*
X184444914Y-82071714D02*
X184349676Y-82119333D01*
X184349676Y-82119333D02*
X184254438Y-82214571D01*
X184254438Y-82214571D02*
X184206819Y-82357428D01*
X184206819Y-82357428D02*
X184206819Y-82452666D01*
X184206819Y-82452666D02*
X184254438Y-82595523D01*
X184254438Y-82595523D02*
X184302057Y-82643142D01*
X185206819Y-83595523D02*
X185206819Y-83024095D01*
X185206819Y-83309809D02*
X184206819Y-83309809D01*
X184206819Y-83309809D02*
X184349676Y-83214571D01*
X184349676Y-83214571D02*
X184444914Y-83119333D01*
X184444914Y-83119333D02*
X184492533Y-83024095D01*
X184206819Y-84214571D02*
X184206819Y-84309809D01*
X184206819Y-84309809D02*
X184254438Y-84405047D01*
X184254438Y-84405047D02*
X184302057Y-84452666D01*
X184302057Y-84452666D02*
X184397295Y-84500285D01*
X184397295Y-84500285D02*
X184587771Y-84547904D01*
X184587771Y-84547904D02*
X184825866Y-84547904D01*
X184825866Y-84547904D02*
X185016342Y-84500285D01*
X185016342Y-84500285D02*
X185111580Y-84452666D01*
X185111580Y-84452666D02*
X185159200Y-84405047D01*
X185159200Y-84405047D02*
X185206819Y-84309809D01*
X185206819Y-84309809D02*
X185206819Y-84214571D01*
X185206819Y-84214571D02*
X185159200Y-84119333D01*
X185159200Y-84119333D02*
X185111580Y-84071714D01*
X185111580Y-84071714D02*
X185016342Y-84024095D01*
X185016342Y-84024095D02*
X184825866Y-83976476D01*
X184825866Y-83976476D02*
X184587771Y-83976476D01*
X184587771Y-83976476D02*
X184397295Y-84024095D01*
X184397295Y-84024095D02*
X184302057Y-84071714D01*
X184302057Y-84071714D02*
X184254438Y-84119333D01*
X184254438Y-84119333D02*
X184206819Y-84214571D01*
X123777333Y-118679009D02*
X124110666Y-118679009D01*
X124110666Y-119202819D02*
X124110666Y-118202819D01*
X124110666Y-118202819D02*
X123634476Y-118202819D01*
X122777333Y-118202819D02*
X123253523Y-118202819D01*
X123253523Y-118202819D02*
X123301142Y-118679009D01*
X123301142Y-118679009D02*
X123253523Y-118631390D01*
X123253523Y-118631390D02*
X123158285Y-118583771D01*
X123158285Y-118583771D02*
X122920190Y-118583771D01*
X122920190Y-118583771D02*
X122824952Y-118631390D01*
X122824952Y-118631390D02*
X122777333Y-118679009D01*
X122777333Y-118679009D02*
X122729714Y-118774247D01*
X122729714Y-118774247D02*
X122729714Y-119012342D01*
X122729714Y-119012342D02*
X122777333Y-119107580D01*
X122777333Y-119107580D02*
X122824952Y-119155200D01*
X122824952Y-119155200D02*
X122920190Y-119202819D01*
X122920190Y-119202819D02*
X123158285Y-119202819D01*
X123158285Y-119202819D02*
X123253523Y-119155200D01*
X123253523Y-119155200D02*
X123301142Y-119107580D01*
X157928819Y-95709523D02*
X157452628Y-95376190D01*
X157928819Y-95138095D02*
X156928819Y-95138095D01*
X156928819Y-95138095D02*
X156928819Y-95519047D01*
X156928819Y-95519047D02*
X156976438Y-95614285D01*
X156976438Y-95614285D02*
X157024057Y-95661904D01*
X157024057Y-95661904D02*
X157119295Y-95709523D01*
X157119295Y-95709523D02*
X157262152Y-95709523D01*
X157262152Y-95709523D02*
X157357390Y-95661904D01*
X157357390Y-95661904D02*
X157405009Y-95614285D01*
X157405009Y-95614285D02*
X157452628Y-95519047D01*
X157452628Y-95519047D02*
X157452628Y-95138095D01*
X157928819Y-96138095D02*
X156928819Y-96138095D01*
X156928819Y-96138095D02*
X157928819Y-96709523D01*
X157928819Y-96709523D02*
X156928819Y-96709523D01*
X157928819Y-97709523D02*
X157928819Y-97138095D01*
X157928819Y-97423809D02*
X156928819Y-97423809D01*
X156928819Y-97423809D02*
X157071676Y-97328571D01*
X157071676Y-97328571D02*
X157166914Y-97233333D01*
X157166914Y-97233333D02*
X157214533Y-97138095D01*
X174172476Y-92154819D02*
X174505809Y-91678628D01*
X174743904Y-92154819D02*
X174743904Y-91154819D01*
X174743904Y-91154819D02*
X174362952Y-91154819D01*
X174362952Y-91154819D02*
X174267714Y-91202438D01*
X174267714Y-91202438D02*
X174220095Y-91250057D01*
X174220095Y-91250057D02*
X174172476Y-91345295D01*
X174172476Y-91345295D02*
X174172476Y-91488152D01*
X174172476Y-91488152D02*
X174220095Y-91583390D01*
X174220095Y-91583390D02*
X174267714Y-91631009D01*
X174267714Y-91631009D02*
X174362952Y-91678628D01*
X174362952Y-91678628D02*
X174743904Y-91678628D01*
X173743904Y-92154819D02*
X173743904Y-91154819D01*
X173743904Y-91154819D02*
X173172476Y-92154819D01*
X173172476Y-92154819D02*
X173172476Y-91154819D01*
X172267714Y-91488152D02*
X172267714Y-92154819D01*
X172505809Y-91107200D02*
X172743904Y-91821485D01*
X172743904Y-91821485D02*
X172124857Y-91821485D01*
X174299580Y-82669142D02*
X174347200Y-82621523D01*
X174347200Y-82621523D02*
X174394819Y-82478666D01*
X174394819Y-82478666D02*
X174394819Y-82383428D01*
X174394819Y-82383428D02*
X174347200Y-82240571D01*
X174347200Y-82240571D02*
X174251961Y-82145333D01*
X174251961Y-82145333D02*
X174156723Y-82097714D01*
X174156723Y-82097714D02*
X173966247Y-82050095D01*
X173966247Y-82050095D02*
X173823390Y-82050095D01*
X173823390Y-82050095D02*
X173632914Y-82097714D01*
X173632914Y-82097714D02*
X173537676Y-82145333D01*
X173537676Y-82145333D02*
X173442438Y-82240571D01*
X173442438Y-82240571D02*
X173394819Y-82383428D01*
X173394819Y-82383428D02*
X173394819Y-82478666D01*
X173394819Y-82478666D02*
X173442438Y-82621523D01*
X173442438Y-82621523D02*
X173490057Y-82669142D01*
X174394819Y-83621523D02*
X174394819Y-83050095D01*
X174394819Y-83335809D02*
X173394819Y-83335809D01*
X173394819Y-83335809D02*
X173537676Y-83240571D01*
X173537676Y-83240571D02*
X173632914Y-83145333D01*
X173632914Y-83145333D02*
X173680533Y-83050095D01*
X173394819Y-84478666D02*
X173394819Y-84288190D01*
X173394819Y-84288190D02*
X173442438Y-84192952D01*
X173442438Y-84192952D02*
X173490057Y-84145333D01*
X173490057Y-84145333D02*
X173632914Y-84050095D01*
X173632914Y-84050095D02*
X173823390Y-84002476D01*
X173823390Y-84002476D02*
X174204342Y-84002476D01*
X174204342Y-84002476D02*
X174299580Y-84050095D01*
X174299580Y-84050095D02*
X174347200Y-84097714D01*
X174347200Y-84097714D02*
X174394819Y-84192952D01*
X174394819Y-84192952D02*
X174394819Y-84383428D01*
X174394819Y-84383428D02*
X174347200Y-84478666D01*
X174347200Y-84478666D02*
X174299580Y-84526285D01*
X174299580Y-84526285D02*
X174204342Y-84573904D01*
X174204342Y-84573904D02*
X173966247Y-84573904D01*
X173966247Y-84573904D02*
X173871009Y-84526285D01*
X173871009Y-84526285D02*
X173823390Y-84478666D01*
X173823390Y-84478666D02*
X173775771Y-84383428D01*
X173775771Y-84383428D02*
X173775771Y-84192952D01*
X173775771Y-84192952D02*
X173823390Y-84097714D01*
X173823390Y-84097714D02*
X173871009Y-84050095D01*
X173871009Y-84050095D02*
X173966247Y-84002476D01*
X129383666Y-113643580D02*
X129431285Y-113691200D01*
X129431285Y-113691200D02*
X129574142Y-113738819D01*
X129574142Y-113738819D02*
X129669380Y-113738819D01*
X129669380Y-113738819D02*
X129812237Y-113691200D01*
X129812237Y-113691200D02*
X129907475Y-113595961D01*
X129907475Y-113595961D02*
X129955094Y-113500723D01*
X129955094Y-113500723D02*
X130002713Y-113310247D01*
X130002713Y-113310247D02*
X130002713Y-113167390D01*
X130002713Y-113167390D02*
X129955094Y-112976914D01*
X129955094Y-112976914D02*
X129907475Y-112881676D01*
X129907475Y-112881676D02*
X129812237Y-112786438D01*
X129812237Y-112786438D02*
X129669380Y-112738819D01*
X129669380Y-112738819D02*
X129574142Y-112738819D01*
X129574142Y-112738819D02*
X129431285Y-112786438D01*
X129431285Y-112786438D02*
X129383666Y-112834057D01*
X128431285Y-113738819D02*
X129002713Y-113738819D01*
X128716999Y-113738819D02*
X128716999Y-112738819D01*
X128716999Y-112738819D02*
X128812237Y-112881676D01*
X128812237Y-112881676D02*
X128907475Y-112976914D01*
X128907475Y-112976914D02*
X129002713Y-113024533D01*
X107990819Y-69683333D02*
X107514628Y-69350000D01*
X107990819Y-69111905D02*
X106990819Y-69111905D01*
X106990819Y-69111905D02*
X106990819Y-69492857D01*
X106990819Y-69492857D02*
X107038438Y-69588095D01*
X107038438Y-69588095D02*
X107086057Y-69635714D01*
X107086057Y-69635714D02*
X107181295Y-69683333D01*
X107181295Y-69683333D02*
X107324152Y-69683333D01*
X107324152Y-69683333D02*
X107419390Y-69635714D01*
X107419390Y-69635714D02*
X107467009Y-69588095D01*
X107467009Y-69588095D02*
X107514628Y-69492857D01*
X107514628Y-69492857D02*
X107514628Y-69111905D01*
X107419390Y-70254762D02*
X107371771Y-70159524D01*
X107371771Y-70159524D02*
X107324152Y-70111905D01*
X107324152Y-70111905D02*
X107228914Y-70064286D01*
X107228914Y-70064286D02*
X107181295Y-70064286D01*
X107181295Y-70064286D02*
X107086057Y-70111905D01*
X107086057Y-70111905D02*
X107038438Y-70159524D01*
X107038438Y-70159524D02*
X106990819Y-70254762D01*
X106990819Y-70254762D02*
X106990819Y-70445238D01*
X106990819Y-70445238D02*
X107038438Y-70540476D01*
X107038438Y-70540476D02*
X107086057Y-70588095D01*
X107086057Y-70588095D02*
X107181295Y-70635714D01*
X107181295Y-70635714D02*
X107228914Y-70635714D01*
X107228914Y-70635714D02*
X107324152Y-70588095D01*
X107324152Y-70588095D02*
X107371771Y-70540476D01*
X107371771Y-70540476D02*
X107419390Y-70445238D01*
X107419390Y-70445238D02*
X107419390Y-70254762D01*
X107419390Y-70254762D02*
X107467009Y-70159524D01*
X107467009Y-70159524D02*
X107514628Y-70111905D01*
X107514628Y-70111905D02*
X107609866Y-70064286D01*
X107609866Y-70064286D02*
X107800342Y-70064286D01*
X107800342Y-70064286D02*
X107895580Y-70111905D01*
X107895580Y-70111905D02*
X107943200Y-70159524D01*
X107943200Y-70159524D02*
X107990819Y-70254762D01*
X107990819Y-70254762D02*
X107990819Y-70445238D01*
X107990819Y-70445238D02*
X107943200Y-70540476D01*
X107943200Y-70540476D02*
X107895580Y-70588095D01*
X107895580Y-70588095D02*
X107800342Y-70635714D01*
X107800342Y-70635714D02*
X107609866Y-70635714D01*
X107609866Y-70635714D02*
X107514628Y-70588095D01*
X107514628Y-70588095D02*
X107467009Y-70540476D01*
X107467009Y-70540476D02*
X107419390Y-70445238D01*
X188159580Y-83132333D02*
X188207200Y-83084714D01*
X188207200Y-83084714D02*
X188254819Y-82941857D01*
X188254819Y-82941857D02*
X188254819Y-82846619D01*
X188254819Y-82846619D02*
X188207200Y-82703762D01*
X188207200Y-82703762D02*
X188111961Y-82608524D01*
X188111961Y-82608524D02*
X188016723Y-82560905D01*
X188016723Y-82560905D02*
X187826247Y-82513286D01*
X187826247Y-82513286D02*
X187683390Y-82513286D01*
X187683390Y-82513286D02*
X187492914Y-82560905D01*
X187492914Y-82560905D02*
X187397676Y-82608524D01*
X187397676Y-82608524D02*
X187302438Y-82703762D01*
X187302438Y-82703762D02*
X187254819Y-82846619D01*
X187254819Y-82846619D02*
X187254819Y-82941857D01*
X187254819Y-82941857D02*
X187302438Y-83084714D01*
X187302438Y-83084714D02*
X187350057Y-83132333D01*
X188254819Y-83608524D02*
X188254819Y-83799000D01*
X188254819Y-83799000D02*
X188207200Y-83894238D01*
X188207200Y-83894238D02*
X188159580Y-83941857D01*
X188159580Y-83941857D02*
X188016723Y-84037095D01*
X188016723Y-84037095D02*
X187826247Y-84084714D01*
X187826247Y-84084714D02*
X187445295Y-84084714D01*
X187445295Y-84084714D02*
X187350057Y-84037095D01*
X187350057Y-84037095D02*
X187302438Y-83989476D01*
X187302438Y-83989476D02*
X187254819Y-83894238D01*
X187254819Y-83894238D02*
X187254819Y-83703762D01*
X187254819Y-83703762D02*
X187302438Y-83608524D01*
X187302438Y-83608524D02*
X187350057Y-83560905D01*
X187350057Y-83560905D02*
X187445295Y-83513286D01*
X187445295Y-83513286D02*
X187683390Y-83513286D01*
X187683390Y-83513286D02*
X187778628Y-83560905D01*
X187778628Y-83560905D02*
X187826247Y-83608524D01*
X187826247Y-83608524D02*
X187873866Y-83703762D01*
X187873866Y-83703762D02*
X187873866Y-83894238D01*
X187873866Y-83894238D02*
X187826247Y-83989476D01*
X187826247Y-83989476D02*
X187778628Y-84037095D01*
X187778628Y-84037095D02*
X187683390Y-84084714D01*
X109071580Y-63587333D02*
X109119200Y-63539714D01*
X109119200Y-63539714D02*
X109166819Y-63396857D01*
X109166819Y-63396857D02*
X109166819Y-63301619D01*
X109166819Y-63301619D02*
X109119200Y-63158762D01*
X109119200Y-63158762D02*
X109023961Y-63063524D01*
X109023961Y-63063524D02*
X108928723Y-63015905D01*
X108928723Y-63015905D02*
X108738247Y-62968286D01*
X108738247Y-62968286D02*
X108595390Y-62968286D01*
X108595390Y-62968286D02*
X108404914Y-63015905D01*
X108404914Y-63015905D02*
X108309676Y-63063524D01*
X108309676Y-63063524D02*
X108214438Y-63158762D01*
X108214438Y-63158762D02*
X108166819Y-63301619D01*
X108166819Y-63301619D02*
X108166819Y-63396857D01*
X108166819Y-63396857D02*
X108214438Y-63539714D01*
X108214438Y-63539714D02*
X108262057Y-63587333D01*
X108166819Y-64444476D02*
X108166819Y-64254000D01*
X108166819Y-64254000D02*
X108214438Y-64158762D01*
X108214438Y-64158762D02*
X108262057Y-64111143D01*
X108262057Y-64111143D02*
X108404914Y-64015905D01*
X108404914Y-64015905D02*
X108595390Y-63968286D01*
X108595390Y-63968286D02*
X108976342Y-63968286D01*
X108976342Y-63968286D02*
X109071580Y-64015905D01*
X109071580Y-64015905D02*
X109119200Y-64063524D01*
X109119200Y-64063524D02*
X109166819Y-64158762D01*
X109166819Y-64158762D02*
X109166819Y-64349238D01*
X109166819Y-64349238D02*
X109119200Y-64444476D01*
X109119200Y-64444476D02*
X109071580Y-64492095D01*
X109071580Y-64492095D02*
X108976342Y-64539714D01*
X108976342Y-64539714D02*
X108738247Y-64539714D01*
X108738247Y-64539714D02*
X108643009Y-64492095D01*
X108643009Y-64492095D02*
X108595390Y-64444476D01*
X108595390Y-64444476D02*
X108547771Y-64349238D01*
X108547771Y-64349238D02*
X108547771Y-64158762D01*
X108547771Y-64158762D02*
X108595390Y-64063524D01*
X108595390Y-64063524D02*
X108643009Y-64015905D01*
X108643009Y-64015905D02*
X108738247Y-63968286D01*
X129383666Y-112119580D02*
X129431285Y-112167200D01*
X129431285Y-112167200D02*
X129574142Y-112214819D01*
X129574142Y-112214819D02*
X129669380Y-112214819D01*
X129669380Y-112214819D02*
X129812237Y-112167200D01*
X129812237Y-112167200D02*
X129907475Y-112071961D01*
X129907475Y-112071961D02*
X129955094Y-111976723D01*
X129955094Y-111976723D02*
X130002713Y-111786247D01*
X130002713Y-111786247D02*
X130002713Y-111643390D01*
X130002713Y-111643390D02*
X129955094Y-111452914D01*
X129955094Y-111452914D02*
X129907475Y-111357676D01*
X129907475Y-111357676D02*
X129812237Y-111262438D01*
X129812237Y-111262438D02*
X129669380Y-111214819D01*
X129669380Y-111214819D02*
X129574142Y-111214819D01*
X129574142Y-111214819D02*
X129431285Y-111262438D01*
X129431285Y-111262438D02*
X129383666Y-111310057D01*
X129002713Y-111310057D02*
X128955094Y-111262438D01*
X128955094Y-111262438D02*
X128859856Y-111214819D01*
X128859856Y-111214819D02*
X128621761Y-111214819D01*
X128621761Y-111214819D02*
X128526523Y-111262438D01*
X128526523Y-111262438D02*
X128478904Y-111310057D01*
X128478904Y-111310057D02*
X128431285Y-111405295D01*
X128431285Y-111405295D02*
X128431285Y-111500533D01*
X128431285Y-111500533D02*
X128478904Y-111643390D01*
X128478904Y-111643390D02*
X129050332Y-112214819D01*
X129050332Y-112214819D02*
X128431285Y-112214819D01*
X121070666Y-113643580D02*
X121118285Y-113691200D01*
X121118285Y-113691200D02*
X121261142Y-113738819D01*
X121261142Y-113738819D02*
X121356380Y-113738819D01*
X121356380Y-113738819D02*
X121499237Y-113691200D01*
X121499237Y-113691200D02*
X121594475Y-113595961D01*
X121594475Y-113595961D02*
X121642094Y-113500723D01*
X121642094Y-113500723D02*
X121689713Y-113310247D01*
X121689713Y-113310247D02*
X121689713Y-113167390D01*
X121689713Y-113167390D02*
X121642094Y-112976914D01*
X121642094Y-112976914D02*
X121594475Y-112881676D01*
X121594475Y-112881676D02*
X121499237Y-112786438D01*
X121499237Y-112786438D02*
X121356380Y-112738819D01*
X121356380Y-112738819D02*
X121261142Y-112738819D01*
X121261142Y-112738819D02*
X121118285Y-112786438D01*
X121118285Y-112786438D02*
X121070666Y-112834057D01*
X120737332Y-112738819D02*
X120118285Y-112738819D01*
X120118285Y-112738819D02*
X120451618Y-113119771D01*
X120451618Y-113119771D02*
X120308761Y-113119771D01*
X120308761Y-113119771D02*
X120213523Y-113167390D01*
X120213523Y-113167390D02*
X120165904Y-113215009D01*
X120165904Y-113215009D02*
X120118285Y-113310247D01*
X120118285Y-113310247D02*
X120118285Y-113548342D01*
X120118285Y-113548342D02*
X120165904Y-113643580D01*
X120165904Y-113643580D02*
X120213523Y-113691200D01*
X120213523Y-113691200D02*
X120308761Y-113738819D01*
X120308761Y-113738819D02*
X120594475Y-113738819D01*
X120594475Y-113738819D02*
X120689713Y-113691200D01*
X120689713Y-113691200D02*
X120737332Y-113643580D01*
X183220833Y-70797009D02*
X183554166Y-70797009D01*
X183554166Y-71320819D02*
X183554166Y-70320819D01*
X183554166Y-70320819D02*
X183077976Y-70320819D01*
X182792261Y-70320819D02*
X182173214Y-70320819D01*
X182173214Y-70320819D02*
X182506547Y-70701771D01*
X182506547Y-70701771D02*
X182363690Y-70701771D01*
X182363690Y-70701771D02*
X182268452Y-70749390D01*
X182268452Y-70749390D02*
X182220833Y-70797009D01*
X182220833Y-70797009D02*
X182173214Y-70892247D01*
X182173214Y-70892247D02*
X182173214Y-71130342D01*
X182173214Y-71130342D02*
X182220833Y-71225580D01*
X182220833Y-71225580D02*
X182268452Y-71273200D01*
X182268452Y-71273200D02*
X182363690Y-71320819D01*
X182363690Y-71320819D02*
X182649404Y-71320819D01*
X182649404Y-71320819D02*
X182744642Y-71273200D01*
X182744642Y-71273200D02*
X182792261Y-71225580D01*
X158945833Y-70751009D02*
X159279166Y-70751009D01*
X159279166Y-71274819D02*
X159279166Y-70274819D01*
X159279166Y-70274819D02*
X158802976Y-70274819D01*
X158469642Y-70370057D02*
X158422023Y-70322438D01*
X158422023Y-70322438D02*
X158326785Y-70274819D01*
X158326785Y-70274819D02*
X158088690Y-70274819D01*
X158088690Y-70274819D02*
X157993452Y-70322438D01*
X157993452Y-70322438D02*
X157945833Y-70370057D01*
X157945833Y-70370057D02*
X157898214Y-70465295D01*
X157898214Y-70465295D02*
X157898214Y-70560533D01*
X157898214Y-70560533D02*
X157945833Y-70703390D01*
X157945833Y-70703390D02*
X158517261Y-71274819D01*
X158517261Y-71274819D02*
X157898214Y-71274819D01*
X142220833Y-70797009D02*
X142554166Y-70797009D01*
X142554166Y-71320819D02*
X142554166Y-70320819D01*
X142554166Y-70320819D02*
X142077976Y-70320819D01*
X141173214Y-71320819D02*
X141744642Y-71320819D01*
X141458928Y-71320819D02*
X141458928Y-70320819D01*
X141458928Y-70320819D02*
X141554166Y-70463676D01*
X141554166Y-70463676D02*
X141649404Y-70558914D01*
X141649404Y-70558914D02*
X141744642Y-70606533D01*
X182063580Y-82656142D02*
X182111200Y-82608523D01*
X182111200Y-82608523D02*
X182158819Y-82465666D01*
X182158819Y-82465666D02*
X182158819Y-82370428D01*
X182158819Y-82370428D02*
X182111200Y-82227571D01*
X182111200Y-82227571D02*
X182015961Y-82132333D01*
X182015961Y-82132333D02*
X181920723Y-82084714D01*
X181920723Y-82084714D02*
X181730247Y-82037095D01*
X181730247Y-82037095D02*
X181587390Y-82037095D01*
X181587390Y-82037095D02*
X181396914Y-82084714D01*
X181396914Y-82084714D02*
X181301676Y-82132333D01*
X181301676Y-82132333D02*
X181206438Y-82227571D01*
X181206438Y-82227571D02*
X181158819Y-82370428D01*
X181158819Y-82370428D02*
X181158819Y-82465666D01*
X181158819Y-82465666D02*
X181206438Y-82608523D01*
X181206438Y-82608523D02*
X181254057Y-82656142D01*
X182158819Y-83608523D02*
X182158819Y-83037095D01*
X182158819Y-83322809D02*
X181158819Y-83322809D01*
X181158819Y-83322809D02*
X181301676Y-83227571D01*
X181301676Y-83227571D02*
X181396914Y-83132333D01*
X181396914Y-83132333D02*
X181444533Y-83037095D01*
X182158819Y-84560904D02*
X182158819Y-83989476D01*
X182158819Y-84275190D02*
X181158819Y-84275190D01*
X181158819Y-84275190D02*
X181301676Y-84179952D01*
X181301676Y-84179952D02*
X181396914Y-84084714D01*
X181396914Y-84084714D02*
X181444533Y-83989476D01*
X175967580Y-82656142D02*
X176015200Y-82608523D01*
X176015200Y-82608523D02*
X176062819Y-82465666D01*
X176062819Y-82465666D02*
X176062819Y-82370428D01*
X176062819Y-82370428D02*
X176015200Y-82227571D01*
X176015200Y-82227571D02*
X175919961Y-82132333D01*
X175919961Y-82132333D02*
X175824723Y-82084714D01*
X175824723Y-82084714D02*
X175634247Y-82037095D01*
X175634247Y-82037095D02*
X175491390Y-82037095D01*
X175491390Y-82037095D02*
X175300914Y-82084714D01*
X175300914Y-82084714D02*
X175205676Y-82132333D01*
X175205676Y-82132333D02*
X175110438Y-82227571D01*
X175110438Y-82227571D02*
X175062819Y-82370428D01*
X175062819Y-82370428D02*
X175062819Y-82465666D01*
X175062819Y-82465666D02*
X175110438Y-82608523D01*
X175110438Y-82608523D02*
X175158057Y-82656142D01*
X176062819Y-83608523D02*
X176062819Y-83037095D01*
X176062819Y-83322809D02*
X175062819Y-83322809D01*
X175062819Y-83322809D02*
X175205676Y-83227571D01*
X175205676Y-83227571D02*
X175300914Y-83132333D01*
X175300914Y-83132333D02*
X175348533Y-83037095D01*
X175062819Y-83941857D02*
X175062819Y-84560904D01*
X175062819Y-84560904D02*
X175443771Y-84227571D01*
X175443771Y-84227571D02*
X175443771Y-84370428D01*
X175443771Y-84370428D02*
X175491390Y-84465666D01*
X175491390Y-84465666D02*
X175539009Y-84513285D01*
X175539009Y-84513285D02*
X175634247Y-84560904D01*
X175634247Y-84560904D02*
X175872342Y-84560904D01*
X175872342Y-84560904D02*
X175967580Y-84513285D01*
X175967580Y-84513285D02*
X176015200Y-84465666D01*
X176015200Y-84465666D02*
X176062819Y-84370428D01*
X176062819Y-84370428D02*
X176062819Y-84084714D01*
X176062819Y-84084714D02*
X176015200Y-83989476D01*
X176015200Y-83989476D02*
X175967580Y-83941857D01*
X120332039Y-109630824D02*
X120665372Y-109154633D01*
X120903467Y-109630824D02*
X120903467Y-108630824D01*
X120903467Y-108630824D02*
X120522515Y-108630824D01*
X120522515Y-108630824D02*
X120427277Y-108678443D01*
X120427277Y-108678443D02*
X120379658Y-108726062D01*
X120379658Y-108726062D02*
X120332039Y-108821300D01*
X120332039Y-108821300D02*
X120332039Y-108964157D01*
X120332039Y-108964157D02*
X120379658Y-109059395D01*
X120379658Y-109059395D02*
X120427277Y-109107014D01*
X120427277Y-109107014D02*
X120522515Y-109154633D01*
X120522515Y-109154633D02*
X120903467Y-109154633D01*
X119427277Y-108630824D02*
X119903467Y-108630824D01*
X119903467Y-108630824D02*
X119951086Y-109107014D01*
X119951086Y-109107014D02*
X119903467Y-109059395D01*
X119903467Y-109059395D02*
X119808229Y-109011776D01*
X119808229Y-109011776D02*
X119570134Y-109011776D01*
X119570134Y-109011776D02*
X119474896Y-109059395D01*
X119474896Y-109059395D02*
X119427277Y-109107014D01*
X119427277Y-109107014D02*
X119379658Y-109202252D01*
X119379658Y-109202252D02*
X119379658Y-109440347D01*
X119379658Y-109440347D02*
X119427277Y-109535585D01*
X119427277Y-109535585D02*
X119474896Y-109583205D01*
X119474896Y-109583205D02*
X119570134Y-109630824D01*
X119570134Y-109630824D02*
X119808229Y-109630824D01*
X119808229Y-109630824D02*
X119903467Y-109583205D01*
X119903467Y-109583205D02*
X119951086Y-109535585D01*
X164854819Y-95709523D02*
X164378628Y-95376190D01*
X164854819Y-95138095D02*
X163854819Y-95138095D01*
X163854819Y-95138095D02*
X163854819Y-95519047D01*
X163854819Y-95519047D02*
X163902438Y-95614285D01*
X163902438Y-95614285D02*
X163950057Y-95661904D01*
X163950057Y-95661904D02*
X164045295Y-95709523D01*
X164045295Y-95709523D02*
X164188152Y-95709523D01*
X164188152Y-95709523D02*
X164283390Y-95661904D01*
X164283390Y-95661904D02*
X164331009Y-95614285D01*
X164331009Y-95614285D02*
X164378628Y-95519047D01*
X164378628Y-95519047D02*
X164378628Y-95138095D01*
X164854819Y-96138095D02*
X163854819Y-96138095D01*
X163854819Y-96138095D02*
X164854819Y-96709523D01*
X164854819Y-96709523D02*
X163854819Y-96709523D01*
X163854819Y-97090476D02*
X163854819Y-97709523D01*
X163854819Y-97709523D02*
X164235771Y-97376190D01*
X164235771Y-97376190D02*
X164235771Y-97519047D01*
X164235771Y-97519047D02*
X164283390Y-97614285D01*
X164283390Y-97614285D02*
X164331009Y-97661904D01*
X164331009Y-97661904D02*
X164426247Y-97709523D01*
X164426247Y-97709523D02*
X164664342Y-97709523D01*
X164664342Y-97709523D02*
X164759580Y-97661904D01*
X164759580Y-97661904D02*
X164807200Y-97614285D01*
X164807200Y-97614285D02*
X164854819Y-97519047D01*
X164854819Y-97519047D02*
X164854819Y-97233333D01*
X164854819Y-97233333D02*
X164807200Y-97138095D01*
X164807200Y-97138095D02*
X164759580Y-97090476D01*
X110849580Y-63587333D02*
X110897200Y-63539714D01*
X110897200Y-63539714D02*
X110944819Y-63396857D01*
X110944819Y-63396857D02*
X110944819Y-63301619D01*
X110944819Y-63301619D02*
X110897200Y-63158762D01*
X110897200Y-63158762D02*
X110801961Y-63063524D01*
X110801961Y-63063524D02*
X110706723Y-63015905D01*
X110706723Y-63015905D02*
X110516247Y-62968286D01*
X110516247Y-62968286D02*
X110373390Y-62968286D01*
X110373390Y-62968286D02*
X110182914Y-63015905D01*
X110182914Y-63015905D02*
X110087676Y-63063524D01*
X110087676Y-63063524D02*
X109992438Y-63158762D01*
X109992438Y-63158762D02*
X109944819Y-63301619D01*
X109944819Y-63301619D02*
X109944819Y-63396857D01*
X109944819Y-63396857D02*
X109992438Y-63539714D01*
X109992438Y-63539714D02*
X110040057Y-63587333D01*
X109944819Y-63920667D02*
X109944819Y-64587333D01*
X109944819Y-64587333D02*
X110944819Y-64158762D01*
X169872819Y-120483333D02*
X169396628Y-120150000D01*
X169872819Y-119911905D02*
X168872819Y-119911905D01*
X168872819Y-119911905D02*
X168872819Y-120292857D01*
X168872819Y-120292857D02*
X168920438Y-120388095D01*
X168920438Y-120388095D02*
X168968057Y-120435714D01*
X168968057Y-120435714D02*
X169063295Y-120483333D01*
X169063295Y-120483333D02*
X169206152Y-120483333D01*
X169206152Y-120483333D02*
X169301390Y-120435714D01*
X169301390Y-120435714D02*
X169349009Y-120388095D01*
X169349009Y-120388095D02*
X169396628Y-120292857D01*
X169396628Y-120292857D02*
X169396628Y-119911905D01*
X168872819Y-120816667D02*
X168872819Y-121483333D01*
X168872819Y-121483333D02*
X169872819Y-121054762D01*
D19*
%TO.C,C5*%
X173480882Y-93470000D02*
X173762042Y-93470000D01*
X173480882Y-94490000D02*
X173762042Y-94490000D01*
%TO.C,R4*%
X122653242Y-103167500D02*
X123127758Y-103167500D01*
X122653242Y-104212500D02*
X123127758Y-104212500D01*
%TO.C,R6*%
X140701500Y-123206742D02*
X140701500Y-123681258D01*
X141746500Y-123206742D02*
X141746500Y-123681258D01*
%TO.C,TP4*%
X158550000Y-91050000D02*
X158550000Y-92950000D01*
X158550000Y-92950000D02*
X160450000Y-92950000D01*
X160450000Y-91050000D02*
X158550000Y-91050000D01*
X160450000Y-92950000D02*
X160450000Y-91050000D01*
%TO.C,RN2*%
X151482000Y-96900000D02*
X151482000Y-95900000D01*
X154842000Y-96900000D02*
X154842000Y-95900000D01*
%TO.C,F4*%
X200203752Y-71830000D02*
X195796248Y-71830000D01*
X200203752Y-77170000D02*
X195796248Y-77170000D01*
%TO.C,C12*%
X179576000Y-83158420D02*
X179576000Y-83439580D01*
X180596000Y-83158420D02*
X180596000Y-83439580D01*
D20*
%TO.C,REF\u002A\u002A*%
X101259501Y-97368476D02*
X101340167Y-97398440D01*
X101373714Y-97420954D01*
X101407687Y-97453212D01*
X101431919Y-97494246D01*
X101448001Y-97550108D01*
X101457521Y-97626851D01*
X101462068Y-97730525D01*
X101463231Y-97867184D01*
X101463003Y-97937805D01*
X101461860Y-98034308D01*
X101459919Y-98111323D01*
X101457365Y-98162319D01*
X101454381Y-98180769D01*
X101434962Y-98174667D01*
X101395766Y-98158095D01*
X101394589Y-98157558D01*
X101374235Y-98146903D01*
X101360546Y-98132282D01*
X101352199Y-98106673D01*
X101347874Y-98063054D01*
X101346248Y-97994403D01*
X101346000Y-97893698D01*
X101345500Y-97829813D01*
X101340164Y-97709751D01*
X101327945Y-97621809D01*
X101307552Y-97561375D01*
X101277695Y-97523836D01*
X101237082Y-97504581D01*
X101231448Y-97503239D01*
X101155378Y-97502191D01*
X101096052Y-97536271D01*
X101055077Y-97604598D01*
X101047770Y-97624351D01*
X101031114Y-97668066D01*
X101022679Y-97688155D01*
X101005356Y-97685387D01*
X100967525Y-97670365D01*
X100932240Y-97645556D01*
X100916154Y-97598670D01*
X100920952Y-97565087D01*
X100950431Y-97496967D01*
X100998098Y-97433134D01*
X101053839Y-97388988D01*
X101077193Y-97378782D01*
X101165619Y-97361718D01*
X101259501Y-97368476D01*
G36*
X101259501Y-97368476D02*
G01*
X101340167Y-97398440D01*
X101373714Y-97420954D01*
X101407687Y-97453212D01*
X101431919Y-97494246D01*
X101448001Y-97550108D01*
X101457521Y-97626851D01*
X101462068Y-97730525D01*
X101463231Y-97867184D01*
X101463003Y-97937805D01*
X101461860Y-98034308D01*
X101459919Y-98111323D01*
X101457365Y-98162319D01*
X101454381Y-98180769D01*
X101434962Y-98174667D01*
X101395766Y-98158095D01*
X101394589Y-98157558D01*
X101374235Y-98146903D01*
X101360546Y-98132282D01*
X101352199Y-98106673D01*
X101347874Y-98063054D01*
X101346248Y-97994403D01*
X101346000Y-97893698D01*
X101345500Y-97829813D01*
X101340164Y-97709751D01*
X101327945Y-97621809D01*
X101307552Y-97561375D01*
X101277695Y-97523836D01*
X101237082Y-97504581D01*
X101231448Y-97503239D01*
X101155378Y-97502191D01*
X101096052Y-97536271D01*
X101055077Y-97604598D01*
X101047770Y-97624351D01*
X101031114Y-97668066D01*
X101022679Y-97688155D01*
X101005356Y-97685387D01*
X100967525Y-97670365D01*
X100932240Y-97645556D01*
X100916154Y-97598670D01*
X100920952Y-97565087D01*
X100950431Y-97496967D01*
X100998098Y-97433134D01*
X101053839Y-97388988D01*
X101077193Y-97378782D01*
X101165619Y-97361718D01*
X101259501Y-97368476D01*
G37*
X106574372Y-97323684D02*
X106665629Y-97366569D01*
X106740416Y-97440729D01*
X106755917Y-97463944D01*
X106768774Y-97490256D01*
X106777893Y-97523420D01*
X106784102Y-97569881D01*
X106788233Y-97636082D01*
X106791116Y-97728468D01*
X106793579Y-97853485D01*
X106799697Y-98200278D01*
X106748303Y-98180738D01*
X106701246Y-98162787D01*
X106666015Y-98145511D01*
X106643017Y-98123242D01*
X106629655Y-98089165D01*
X106623328Y-98036463D01*
X106621437Y-97958323D01*
X106621385Y-97847928D01*
X106621117Y-97759935D01*
X106619521Y-97675502D01*
X106615712Y-97617834D01*
X106608820Y-97579988D01*
X106597975Y-97555024D01*
X106582308Y-97536000D01*
X106543792Y-97509153D01*
X106479091Y-97499034D01*
X106415081Y-97524606D01*
X106410856Y-97527880D01*
X106397689Y-97543007D01*
X106387975Y-97567268D01*
X106380903Y-97606650D01*
X106375656Y-97667141D01*
X106371421Y-97754729D01*
X106367385Y-97875402D01*
X106357615Y-98198515D01*
X106191539Y-98124065D01*
X106191539Y-97829062D01*
X106191883Y-97748919D01*
X106194847Y-97637431D01*
X106202351Y-97554421D01*
X106216190Y-97493199D01*
X106238155Y-97447075D01*
X106270039Y-97409358D01*
X106313633Y-97373358D01*
X106376336Y-97337089D01*
X106475117Y-97313412D01*
X106574372Y-97323684D01*
G36*
X106574372Y-97323684D02*
G01*
X106665629Y-97366569D01*
X106740416Y-97440729D01*
X106755917Y-97463944D01*
X106768774Y-97490256D01*
X106777893Y-97523420D01*
X106784102Y-97569881D01*
X106788233Y-97636082D01*
X106791116Y-97728468D01*
X106793579Y-97853485D01*
X106799697Y-98200278D01*
X106748303Y-98180738D01*
X106701246Y-98162787D01*
X106666015Y-98145511D01*
X106643017Y-98123242D01*
X106629655Y-98089165D01*
X106623328Y-98036463D01*
X106621437Y-97958323D01*
X106621385Y-97847928D01*
X106621117Y-97759935D01*
X106619521Y-97675502D01*
X106615712Y-97617834D01*
X106608820Y-97579988D01*
X106597975Y-97555024D01*
X106582308Y-97536000D01*
X106543792Y-97509153D01*
X106479091Y-97499034D01*
X106415081Y-97524606D01*
X106410856Y-97527880D01*
X106397689Y-97543007D01*
X106387975Y-97567268D01*
X106380903Y-97606650D01*
X106375656Y-97667141D01*
X106371421Y-97754729D01*
X106367385Y-97875402D01*
X106357615Y-98198515D01*
X106191539Y-98124065D01*
X106191539Y-97829062D01*
X106191883Y-97748919D01*
X106194847Y-97637431D01*
X106202351Y-97554421D01*
X106216190Y-97493199D01*
X106238155Y-97447075D01*
X106270039Y-97409358D01*
X106313633Y-97373358D01*
X106376336Y-97337089D01*
X106475117Y-97313412D01*
X106574372Y-97323684D01*
G37*
X104119892Y-97389167D02*
X104126060Y-97392581D01*
X104176447Y-97431692D01*
X104221498Y-97481975D01*
X104229355Y-97493339D01*
X104244376Y-97519860D01*
X104255107Y-97551336D01*
X104262486Y-97594591D01*
X104267452Y-97656449D01*
X104270942Y-97743733D01*
X104273893Y-97863269D01*
X104274311Y-97883478D01*
X104275654Y-98014499D01*
X104273761Y-98107296D01*
X104268605Y-98162507D01*
X104260158Y-98180769D01*
X104234594Y-98175301D01*
X104191166Y-98158733D01*
X104180940Y-98153888D01*
X104164967Y-98142920D01*
X104153954Y-98124890D01*
X104146750Y-98093396D01*
X104142208Y-98042036D01*
X104139180Y-97964410D01*
X104136516Y-97854115D01*
X104135785Y-97821875D01*
X104132965Y-97720050D01*
X104129304Y-97648788D01*
X104123694Y-97601332D01*
X104115029Y-97570925D01*
X104102202Y-97550810D01*
X104084105Y-97534229D01*
X104030525Y-97505161D01*
X103964612Y-97499564D01*
X103905635Y-97521807D01*
X103863203Y-97567859D01*
X103846923Y-97633692D01*
X103846470Y-97651587D01*
X103837578Y-97683982D01*
X103811325Y-97688925D01*
X103759919Y-97669633D01*
X103748013Y-97663446D01*
X103715835Y-97627058D01*
X103715198Y-97572954D01*
X103745856Y-97498128D01*
X103773978Y-97457350D01*
X103845883Y-97399421D01*
X103934638Y-97366670D01*
X104029542Y-97362212D01*
X104119892Y-97389167D01*
G36*
X104119892Y-97389167D02*
G01*
X104126060Y-97392581D01*
X104176447Y-97431692D01*
X104221498Y-97481975D01*
X104229355Y-97493339D01*
X104244376Y-97519860D01*
X104255107Y-97551336D01*
X104262486Y-97594591D01*
X104267452Y-97656449D01*
X104270942Y-97743733D01*
X104273893Y-97863269D01*
X104274311Y-97883478D01*
X104275654Y-98014499D01*
X104273761Y-98107296D01*
X104268605Y-98162507D01*
X104260158Y-98180769D01*
X104234594Y-98175301D01*
X104191166Y-98158733D01*
X104180940Y-98153888D01*
X104164967Y-98142920D01*
X104153954Y-98124890D01*
X104146750Y-98093396D01*
X104142208Y-98042036D01*
X104139180Y-97964410D01*
X104136516Y-97854115D01*
X104135785Y-97821875D01*
X104132965Y-97720050D01*
X104129304Y-97648788D01*
X104123694Y-97601332D01*
X104115029Y-97570925D01*
X104102202Y-97550810D01*
X104084105Y-97534229D01*
X104030525Y-97505161D01*
X103964612Y-97499564D01*
X103905635Y-97521807D01*
X103863203Y-97567859D01*
X103846923Y-97633692D01*
X103846470Y-97651587D01*
X103837578Y-97683982D01*
X103811325Y-97688925D01*
X103759919Y-97669633D01*
X103748013Y-97663446D01*
X103715835Y-97627058D01*
X103715198Y-97572954D01*
X103745856Y-97498128D01*
X103773978Y-97457350D01*
X103845883Y-97399421D01*
X103934638Y-97366670D01*
X104029542Y-97362212D01*
X104119892Y-97389167D01*
G37*
X105624923Y-97123806D02*
X105624923Y-97658455D01*
X105624660Y-97797094D01*
X105623958Y-97921805D01*
X105622883Y-98027557D01*
X105621500Y-98109322D01*
X105619874Y-98162069D01*
X105618070Y-98180769D01*
X105617364Y-98180706D01*
X105593387Y-98173912D01*
X105549685Y-98159320D01*
X105488154Y-98137870D01*
X105488154Y-97862617D01*
X105487763Y-97754466D01*
X105485946Y-97676026D01*
X105481767Y-97622647D01*
X105474286Y-97587256D01*
X105462567Y-97562779D01*
X105445671Y-97542144D01*
X105434152Y-97531170D01*
X105371864Y-97500775D01*
X105303211Y-97503466D01*
X105240298Y-97539406D01*
X105231139Y-97548325D01*
X105216471Y-97566844D01*
X105206433Y-97591326D01*
X105200151Y-97628393D01*
X105196748Y-97684667D01*
X105195349Y-97766771D01*
X105195077Y-97881329D01*
X105194947Y-97939430D01*
X105194099Y-98034993D01*
X105192594Y-98111526D01*
X105190585Y-98162345D01*
X105188223Y-98180769D01*
X105187518Y-98180706D01*
X105163541Y-98173912D01*
X105119839Y-98159320D01*
X105058308Y-98137870D01*
X105058338Y-97861358D01*
X105058384Y-97836742D01*
X105060970Y-97708419D01*
X105068913Y-97611384D01*
X105084155Y-97539057D01*
X105108636Y-97484855D01*
X105144298Y-97442198D01*
X105193082Y-97404505D01*
X105240661Y-97380910D01*
X105316732Y-97362672D01*
X105391556Y-97361636D01*
X105449077Y-97379378D01*
X105453402Y-97381829D01*
X105466738Y-97381566D01*
X105475851Y-97361039D01*
X105482428Y-97313980D01*
X105488154Y-97234120D01*
X105497923Y-97070236D01*
X105624923Y-97123806D01*
G36*
X105624923Y-97123806D02*
G01*
X105624923Y-97658455D01*
X105624660Y-97797094D01*
X105623958Y-97921805D01*
X105622883Y-98027557D01*
X105621500Y-98109322D01*
X105619874Y-98162069D01*
X105618070Y-98180769D01*
X105617364Y-98180706D01*
X105593387Y-98173912D01*
X105549685Y-98159320D01*
X105488154Y-98137870D01*
X105488154Y-97862617D01*
X105487763Y-97754466D01*
X105485946Y-97676026D01*
X105481767Y-97622647D01*
X105474286Y-97587256D01*
X105462567Y-97562779D01*
X105445671Y-97542144D01*
X105434152Y-97531170D01*
X105371864Y-97500775D01*
X105303211Y-97503466D01*
X105240298Y-97539406D01*
X105231139Y-97548325D01*
X105216471Y-97566844D01*
X105206433Y-97591326D01*
X105200151Y-97628393D01*
X105196748Y-97684667D01*
X105195349Y-97766771D01*
X105195077Y-97881329D01*
X105194947Y-97939430D01*
X105194099Y-98034993D01*
X105192594Y-98111526D01*
X105190585Y-98162345D01*
X105188223Y-98180769D01*
X105187518Y-98180706D01*
X105163541Y-98173912D01*
X105119839Y-98159320D01*
X105058308Y-98137870D01*
X105058338Y-97861358D01*
X105058384Y-97836742D01*
X105060970Y-97708419D01*
X105068913Y-97611384D01*
X105084155Y-97539057D01*
X105108636Y-97484855D01*
X105144298Y-97442198D01*
X105193082Y-97404505D01*
X105240661Y-97380910D01*
X105316732Y-97362672D01*
X105391556Y-97361636D01*
X105449077Y-97379378D01*
X105453402Y-97381829D01*
X105466738Y-97381566D01*
X105475851Y-97361039D01*
X105482428Y-97313980D01*
X105488154Y-97234120D01*
X105497923Y-97070236D01*
X105624923Y-97123806D01*
G37*
X102835998Y-97366034D02*
X102878850Y-97382829D01*
X102928615Y-97405503D01*
X102928615Y-98060533D01*
X102866785Y-98122363D01*
X102852662Y-98136228D01*
X102813536Y-98167046D01*
X102774078Y-98177028D01*
X102715362Y-98172433D01*
X102691456Y-98169462D01*
X102629801Y-98163176D01*
X102586692Y-98160672D01*
X102573905Y-98161055D01*
X102521446Y-98165200D01*
X102458022Y-98172433D01*
X102437730Y-98174918D01*
X102386610Y-98175895D01*
X102349207Y-98160462D01*
X102306599Y-98122363D01*
X102244769Y-98060533D01*
X102244769Y-97710343D01*
X102245251Y-97606857D01*
X102246753Y-97508192D01*
X102249089Y-97430068D01*
X102252071Y-97378662D01*
X102255509Y-97360154D01*
X102256230Y-97360204D01*
X102281203Y-97369413D01*
X102323399Y-97389707D01*
X102380549Y-97419261D01*
X102385928Y-97726746D01*
X102391308Y-98034231D01*
X102508539Y-98034231D01*
X102513885Y-97697192D01*
X102515579Y-97605574D01*
X102518005Y-97507649D01*
X102520634Y-97429906D01*
X102523246Y-97378642D01*
X102525623Y-97360154D01*
X102526306Y-97360219D01*
X102549996Y-97367020D01*
X102593546Y-97381604D01*
X102655077Y-97403054D01*
X102655376Y-97699104D01*
X102655676Y-97750532D01*
X102657754Y-97850466D01*
X102661470Y-97933925D01*
X102666430Y-97993377D01*
X102672240Y-98021287D01*
X102693024Y-98036214D01*
X102735440Y-98040825D01*
X102782077Y-98034231D01*
X102787423Y-97697192D01*
X102789336Y-97611546D01*
X102793303Y-97510172D01*
X102798491Y-97430655D01*
X102804499Y-97378736D01*
X102810927Y-97360154D01*
X102835998Y-97366034D01*
G36*
X102835998Y-97366034D02*
G01*
X102878850Y-97382829D01*
X102928615Y-97405503D01*
X102928615Y-98060533D01*
X102866785Y-98122363D01*
X102852662Y-98136228D01*
X102813536Y-98167046D01*
X102774078Y-98177028D01*
X102715362Y-98172433D01*
X102691456Y-98169462D01*
X102629801Y-98163176D01*
X102586692Y-98160672D01*
X102573905Y-98161055D01*
X102521446Y-98165200D01*
X102458022Y-98172433D01*
X102437730Y-98174918D01*
X102386610Y-98175895D01*
X102349207Y-98160462D01*
X102306599Y-98122363D01*
X102244769Y-98060533D01*
X102244769Y-97710343D01*
X102245251Y-97606857D01*
X102246753Y-97508192D01*
X102249089Y-97430068D01*
X102252071Y-97378662D01*
X102255509Y-97360154D01*
X102256230Y-97360204D01*
X102281203Y-97369413D01*
X102323399Y-97389707D01*
X102380549Y-97419261D01*
X102385928Y-97726746D01*
X102391308Y-98034231D01*
X102508539Y-98034231D01*
X102513885Y-97697192D01*
X102515579Y-97605574D01*
X102518005Y-97507649D01*
X102520634Y-97429906D01*
X102523246Y-97378642D01*
X102525623Y-97360154D01*
X102526306Y-97360219D01*
X102549996Y-97367020D01*
X102593546Y-97381604D01*
X102655077Y-97403054D01*
X102655376Y-97699104D01*
X102655676Y-97750532D01*
X102657754Y-97850466D01*
X102661470Y-97933925D01*
X102666430Y-97993377D01*
X102672240Y-98021287D01*
X102693024Y-98036214D01*
X102735440Y-98040825D01*
X102782077Y-98034231D01*
X102787423Y-97697192D01*
X102789336Y-97611546D01*
X102793303Y-97510172D01*
X102798491Y-97430655D01*
X102804499Y-97378736D01*
X102810927Y-97360154D01*
X102835998Y-97366034D01*
G37*
X109044154Y-97750923D02*
X109044135Y-97772105D01*
X109043076Y-97866584D01*
X109039436Y-97932414D01*
X109031892Y-97978394D01*
X109019122Y-98013321D01*
X108999803Y-98045995D01*
X108995050Y-98052775D01*
X108944759Y-98106231D01*
X108887457Y-98146547D01*
X108858032Y-98159629D01*
X108752299Y-98181450D01*
X108647734Y-98167336D01*
X108551368Y-98119105D01*
X108470235Y-98038579D01*
X108463385Y-98027791D01*
X108441097Y-97965153D01*
X108426079Y-97877935D01*
X108418792Y-97777210D01*
X108419611Y-97684037D01*
X108616796Y-97684037D01*
X108618349Y-97813114D01*
X108618974Y-97821420D01*
X108628077Y-97892643D01*
X108644288Y-97937809D01*
X108671660Y-97968752D01*
X108717553Y-97997737D01*
X108762942Y-97999261D01*
X108809692Y-97965846D01*
X108817824Y-97957053D01*
X108833754Y-97930741D01*
X108843159Y-97892520D01*
X108847632Y-97833349D01*
X108848769Y-97744182D01*
X108846822Y-97660664D01*
X108837105Y-97581095D01*
X108817047Y-97530808D01*
X108784240Y-97504513D01*
X108736280Y-97496923D01*
X108718016Y-97498432D01*
X108666848Y-97526107D01*
X108633035Y-97588172D01*
X108616796Y-97684037D01*
X108419611Y-97684037D01*
X108419699Y-97674052D01*
X108429262Y-97579533D01*
X108447943Y-97504727D01*
X108471951Y-97454905D01*
X108539536Y-97377409D01*
X108631114Y-97329256D01*
X108743213Y-97312703D01*
X108773151Y-97313599D01*
X108861315Y-97331929D01*
X108933733Y-97378104D01*
X109000192Y-97457648D01*
X109004147Y-97463548D01*
X109022040Y-97495288D01*
X109033678Y-97531163D01*
X109040371Y-97579906D01*
X109043426Y-97650249D01*
X109044106Y-97744182D01*
X109044154Y-97750923D01*
G36*
X109044154Y-97750923D02*
G01*
X109044135Y-97772105D01*
X109043076Y-97866584D01*
X109039436Y-97932414D01*
X109031892Y-97978394D01*
X109019122Y-98013321D01*
X108999803Y-98045995D01*
X108995050Y-98052775D01*
X108944759Y-98106231D01*
X108887457Y-98146547D01*
X108858032Y-98159629D01*
X108752299Y-98181450D01*
X108647734Y-98167336D01*
X108551368Y-98119105D01*
X108470235Y-98038579D01*
X108463385Y-98027791D01*
X108441097Y-97965153D01*
X108426079Y-97877935D01*
X108418792Y-97777210D01*
X108419611Y-97684037D01*
X108616796Y-97684037D01*
X108618349Y-97813114D01*
X108618974Y-97821420D01*
X108628077Y-97892643D01*
X108644288Y-97937809D01*
X108671660Y-97968752D01*
X108717553Y-97997737D01*
X108762942Y-97999261D01*
X108809692Y-97965846D01*
X108817824Y-97957053D01*
X108833754Y-97930741D01*
X108843159Y-97892520D01*
X108847632Y-97833349D01*
X108848769Y-97744182D01*
X108846822Y-97660664D01*
X108837105Y-97581095D01*
X108817047Y-97530808D01*
X108784240Y-97504513D01*
X108736280Y-97496923D01*
X108718016Y-97498432D01*
X108666848Y-97526107D01*
X108633035Y-97588172D01*
X108616796Y-97684037D01*
X108419611Y-97684037D01*
X108419699Y-97674052D01*
X108429262Y-97579533D01*
X108447943Y-97504727D01*
X108471951Y-97454905D01*
X108539536Y-97377409D01*
X108631114Y-97329256D01*
X108743213Y-97312703D01*
X108773151Y-97313599D01*
X108861315Y-97331929D01*
X108933733Y-97378104D01*
X109000192Y-97457648D01*
X109004147Y-97463548D01*
X109022040Y-97495288D01*
X109033678Y-97531163D01*
X109040371Y-97579906D01*
X109043426Y-97650249D01*
X109044106Y-97744182D01*
X109044154Y-97750923D01*
G37*
X100798794Y-97774376D02*
X100798413Y-97826449D01*
X100793641Y-97929047D01*
X100781150Y-98004126D01*
X100758121Y-98059748D01*
X100721732Y-98103975D01*
X100669162Y-98144869D01*
X100635714Y-98163466D01*
X100582098Y-98175991D01*
X100506780Y-98175003D01*
X100464672Y-98171035D01*
X100413879Y-98158920D01*
X100373280Y-98132585D01*
X100326049Y-98083514D01*
X100319738Y-98076346D01*
X100277277Y-98021189D01*
X100257018Y-97973150D01*
X100251846Y-97916184D01*
X100251846Y-97832471D01*
X100310346Y-97854552D01*
X100352994Y-97880364D01*
X100390064Y-97940928D01*
X100397803Y-97960320D01*
X100441074Y-98015235D01*
X100499976Y-98042879D01*
X100564111Y-98040393D01*
X100623077Y-98004923D01*
X100643342Y-97982805D01*
X100661720Y-97949436D01*
X100655971Y-97919117D01*
X100622887Y-97887913D01*
X100559261Y-97851887D01*
X100461885Y-97807103D01*
X100261615Y-97719445D01*
X100256301Y-97632607D01*
X100258299Y-97577296D01*
X100388783Y-97577296D01*
X100398688Y-97611538D01*
X100443756Y-97648096D01*
X100525557Y-97689692D01*
X100539092Y-97695718D01*
X100603818Y-97723753D01*
X100652247Y-97743472D01*
X100674751Y-97750923D01*
X100678161Y-97745438D01*
X100679529Y-97711948D01*
X100674651Y-97658116D01*
X100662364Y-97605473D01*
X100624041Y-97539151D01*
X100568720Y-97501780D01*
X100502640Y-97496721D01*
X100432040Y-97527339D01*
X100412474Y-97542648D01*
X100388783Y-97577296D01*
X100258299Y-97577296D01*
X100258647Y-97567663D01*
X100288186Y-97485590D01*
X100325472Y-97440361D01*
X100402776Y-97389838D01*
X100494478Y-97364316D01*
X100589274Y-97366336D01*
X100675859Y-97398440D01*
X100694920Y-97410767D01*
X100738640Y-97448912D01*
X100768540Y-97497167D01*
X100786968Y-97562710D01*
X100796270Y-97652720D01*
X100797499Y-97711948D01*
X100798794Y-97774376D01*
G36*
X100798794Y-97774376D02*
G01*
X100798413Y-97826449D01*
X100793641Y-97929047D01*
X100781150Y-98004126D01*
X100758121Y-98059748D01*
X100721732Y-98103975D01*
X100669162Y-98144869D01*
X100635714Y-98163466D01*
X100582098Y-98175991D01*
X100506780Y-98175003D01*
X100464672Y-98171035D01*
X100413879Y-98158920D01*
X100373280Y-98132585D01*
X100326049Y-98083514D01*
X100319738Y-98076346D01*
X100277277Y-98021189D01*
X100257018Y-97973150D01*
X100251846Y-97916184D01*
X100251846Y-97832471D01*
X100310346Y-97854552D01*
X100352994Y-97880364D01*
X100390064Y-97940928D01*
X100397803Y-97960320D01*
X100441074Y-98015235D01*
X100499976Y-98042879D01*
X100564111Y-98040393D01*
X100623077Y-98004923D01*
X100643342Y-97982805D01*
X100661720Y-97949436D01*
X100655971Y-97919117D01*
X100622887Y-97887913D01*
X100559261Y-97851887D01*
X100461885Y-97807103D01*
X100261615Y-97719445D01*
X100256301Y-97632607D01*
X100258299Y-97577296D01*
X100388783Y-97577296D01*
X100398688Y-97611538D01*
X100443756Y-97648096D01*
X100525557Y-97689692D01*
X100539092Y-97695718D01*
X100603818Y-97723753D01*
X100652247Y-97743472D01*
X100674751Y-97750923D01*
X100678161Y-97745438D01*
X100679529Y-97711948D01*
X100674651Y-97658116D01*
X100662364Y-97605473D01*
X100624041Y-97539151D01*
X100568720Y-97501780D01*
X100502640Y-97496721D01*
X100432040Y-97527339D01*
X100412474Y-97542648D01*
X100388783Y-97577296D01*
X100258299Y-97577296D01*
X100258647Y-97567663D01*
X100288186Y-97485590D01*
X100325472Y-97440361D01*
X100402776Y-97389838D01*
X100494478Y-97364316D01*
X100589274Y-97366336D01*
X100675859Y-97398440D01*
X100694920Y-97410767D01*
X100738640Y-97448912D01*
X100768540Y-97497167D01*
X100786968Y-97562710D01*
X100796270Y-97652720D01*
X100797499Y-97711948D01*
X100798794Y-97774376D01*
G37*
X103612401Y-97770462D02*
X103610839Y-97846652D01*
X103599810Y-97950507D01*
X103575814Y-98028333D01*
X103536043Y-98087760D01*
X103477688Y-98136418D01*
X103422100Y-98164546D01*
X103328751Y-98180199D01*
X103235530Y-98163084D01*
X103151272Y-98115388D01*
X103084818Y-98039294D01*
X103076793Y-98025262D01*
X103066196Y-98000679D01*
X103058335Y-97969309D01*
X103052807Y-97925769D01*
X103049206Y-97864678D01*
X103047128Y-97780655D01*
X103047064Y-97773200D01*
X103182615Y-97773200D01*
X103183077Y-97844316D01*
X103185999Y-97908641D01*
X103193221Y-97950166D01*
X103206561Y-97978067D01*
X103227836Y-98001517D01*
X103232821Y-98006025D01*
X103296863Y-98039295D01*
X103364625Y-98035890D01*
X103427734Y-97996042D01*
X103446526Y-97975398D01*
X103462254Y-97948029D01*
X103471039Y-97910192D01*
X103474859Y-97852355D01*
X103475692Y-97764986D01*
X103475281Y-97698319D01*
X103472434Y-97633245D01*
X103465256Y-97591251D01*
X103451889Y-97563063D01*
X103430472Y-97539406D01*
X103417890Y-97528753D01*
X103352699Y-97500057D01*
X103284400Y-97504575D01*
X103225098Y-97542144D01*
X103212333Y-97557040D01*
X103196764Y-97585089D01*
X103187762Y-97624258D01*
X103183617Y-97683858D01*
X103182615Y-97773200D01*
X103047064Y-97773200D01*
X103046167Y-97668320D01*
X103045919Y-97522289D01*
X103045846Y-97068963D01*
X103109346Y-97095564D01*
X103126136Y-97102845D01*
X103152859Y-97119287D01*
X103168156Y-97144187D01*
X103176563Y-97187732D01*
X103182615Y-97260106D01*
X103188144Y-97325089D01*
X103195450Y-97367750D01*
X103205918Y-97383670D01*
X103221692Y-97379400D01*
X103261890Y-97364397D01*
X103333728Y-97360678D01*
X103411010Y-97374572D01*
X103477688Y-97404505D01*
X103514371Y-97432211D01*
X103561472Y-97486269D01*
X103591638Y-97555577D01*
X103607678Y-97647765D01*
X103612191Y-97764986D01*
X103612401Y-97770462D01*
G36*
X103612401Y-97770462D02*
G01*
X103610839Y-97846652D01*
X103599810Y-97950507D01*
X103575814Y-98028333D01*
X103536043Y-98087760D01*
X103477688Y-98136418D01*
X103422100Y-98164546D01*
X103328751Y-98180199D01*
X103235530Y-98163084D01*
X103151272Y-98115388D01*
X103084818Y-98039294D01*
X103076793Y-98025262D01*
X103066196Y-98000679D01*
X103058335Y-97969309D01*
X103052807Y-97925769D01*
X103049206Y-97864678D01*
X103047128Y-97780655D01*
X103047064Y-97773200D01*
X103182615Y-97773200D01*
X103183077Y-97844316D01*
X103185999Y-97908641D01*
X103193221Y-97950166D01*
X103206561Y-97978067D01*
X103227836Y-98001517D01*
X103232821Y-98006025D01*
X103296863Y-98039295D01*
X103364625Y-98035890D01*
X103427734Y-97996042D01*
X103446526Y-97975398D01*
X103462254Y-97948029D01*
X103471039Y-97910192D01*
X103474859Y-97852355D01*
X103475692Y-97764986D01*
X103475281Y-97698319D01*
X103472434Y-97633245D01*
X103465256Y-97591251D01*
X103451889Y-97563063D01*
X103430472Y-97539406D01*
X103417890Y-97528753D01*
X103352699Y-97500057D01*
X103284400Y-97504575D01*
X103225098Y-97542144D01*
X103212333Y-97557040D01*
X103196764Y-97585089D01*
X103187762Y-97624258D01*
X103183617Y-97683858D01*
X103182615Y-97773200D01*
X103047064Y-97773200D01*
X103046167Y-97668320D01*
X103045919Y-97522289D01*
X103045846Y-97068963D01*
X103109346Y-97095564D01*
X103126136Y-97102845D01*
X103152859Y-97119287D01*
X103168156Y-97144187D01*
X103176563Y-97187732D01*
X103182615Y-97260106D01*
X103188144Y-97325089D01*
X103195450Y-97367750D01*
X103205918Y-97383670D01*
X103221692Y-97379400D01*
X103261890Y-97364397D01*
X103333728Y-97360678D01*
X103411010Y-97374572D01*
X103477688Y-97404505D01*
X103514371Y-97432211D01*
X103561472Y-97486269D01*
X103591638Y-97555577D01*
X103607678Y-97647765D01*
X103612191Y-97764986D01*
X103612401Y-97770462D01*
G37*
X107558787Y-97695536D02*
X107552574Y-97843643D01*
X107549066Y-97875021D01*
X107522927Y-97986705D01*
X107475694Y-98071642D01*
X107403862Y-98136741D01*
X107399802Y-98139428D01*
X107308487Y-98177634D01*
X107213144Y-98181034D01*
X107121274Y-98151939D01*
X107040379Y-98092660D01*
X106977962Y-98005510D01*
X106976914Y-98003409D01*
X106956173Y-97949289D01*
X106940980Y-97887781D01*
X106932921Y-97830039D01*
X106933582Y-97787215D01*
X106944548Y-97770462D01*
X106954290Y-97771480D01*
X107000877Y-97790009D01*
X107053682Y-97824081D01*
X107098603Y-97863522D01*
X107121535Y-97898155D01*
X107145373Y-97945133D01*
X107194230Y-97987862D01*
X107250963Y-98004923D01*
X107271758Y-97999990D01*
X107312804Y-97975157D01*
X107348557Y-97940685D01*
X107363846Y-97909411D01*
X107363842Y-97909295D01*
X107346495Y-97894933D01*
X107300247Y-97869025D01*
X107232067Y-97835210D01*
X107148923Y-97797129D01*
X107148466Y-97796927D01*
X107058138Y-97756709D01*
X106997592Y-97727733D01*
X106960888Y-97705474D01*
X106942086Y-97685407D01*
X106935246Y-97663009D01*
X106934429Y-97633756D01*
X106940113Y-97578363D01*
X107133000Y-97578363D01*
X107152911Y-97595777D01*
X107202521Y-97621872D01*
X107203976Y-97622610D01*
X107262506Y-97650483D01*
X107314868Y-97672719D01*
X107348086Y-97682126D01*
X107361410Y-97669552D01*
X107363846Y-97626468D01*
X107353724Y-97572847D01*
X107318631Y-97524119D01*
X107267823Y-97498856D01*
X107211181Y-97501406D01*
X107158584Y-97536120D01*
X107137910Y-97560107D01*
X107133000Y-97578363D01*
X106940113Y-97578363D01*
X106941622Y-97563654D01*
X106977184Y-97468412D01*
X107036714Y-97393567D01*
X107113746Y-97341745D01*
X107201815Y-97315573D01*
X107294454Y-97317676D01*
X107385198Y-97350681D01*
X107467579Y-97417215D01*
X107513222Y-97483055D01*
X107546008Y-97577036D01*
X107551339Y-97626468D01*
X107558787Y-97695536D01*
G36*
X107558787Y-97695536D02*
G01*
X107552574Y-97843643D01*
X107549066Y-97875021D01*
X107522927Y-97986705D01*
X107475694Y-98071642D01*
X107403862Y-98136741D01*
X107399802Y-98139428D01*
X107308487Y-98177634D01*
X107213144Y-98181034D01*
X107121274Y-98151939D01*
X107040379Y-98092660D01*
X106977962Y-98005510D01*
X106976914Y-98003409D01*
X106956173Y-97949289D01*
X106940980Y-97887781D01*
X106932921Y-97830039D01*
X106933582Y-97787215D01*
X106944548Y-97770462D01*
X106954290Y-97771480D01*
X107000877Y-97790009D01*
X107053682Y-97824081D01*
X107098603Y-97863522D01*
X107121535Y-97898155D01*
X107145373Y-97945133D01*
X107194230Y-97987862D01*
X107250963Y-98004923D01*
X107271758Y-97999990D01*
X107312804Y-97975157D01*
X107348557Y-97940685D01*
X107363846Y-97909411D01*
X107363842Y-97909295D01*
X107346495Y-97894933D01*
X107300247Y-97869025D01*
X107232067Y-97835210D01*
X107148923Y-97797129D01*
X107148466Y-97796927D01*
X107058138Y-97756709D01*
X106997592Y-97727733D01*
X106960888Y-97705474D01*
X106942086Y-97685407D01*
X106935246Y-97663009D01*
X106934429Y-97633756D01*
X106940113Y-97578363D01*
X107133000Y-97578363D01*
X107152911Y-97595777D01*
X107202521Y-97621872D01*
X107203976Y-97622610D01*
X107262506Y-97650483D01*
X107314868Y-97672719D01*
X107348086Y-97682126D01*
X107361410Y-97669552D01*
X107363846Y-97626468D01*
X107353724Y-97572847D01*
X107318631Y-97524119D01*
X107267823Y-97498856D01*
X107211181Y-97501406D01*
X107158584Y-97536120D01*
X107137910Y-97560107D01*
X107133000Y-97578363D01*
X106940113Y-97578363D01*
X106941622Y-97563654D01*
X106977184Y-97468412D01*
X107036714Y-97393567D01*
X107113746Y-97341745D01*
X107201815Y-97315573D01*
X107294454Y-97317676D01*
X107385198Y-97350681D01*
X107467579Y-97417215D01*
X107513222Y-97483055D01*
X107546008Y-97577036D01*
X107551339Y-97626468D01*
X107558787Y-97695536D01*
G37*
X104768458Y-97381228D02*
X104835622Y-97420389D01*
X104865169Y-97450902D01*
X104921948Y-97542110D01*
X104941077Y-97641548D01*
X104941077Y-97709960D01*
X104878191Y-97683518D01*
X104834700Y-97656837D01*
X104800426Y-97601446D01*
X104796907Y-97590024D01*
X104759028Y-97531838D01*
X104701936Y-97500407D01*
X104636383Y-97499058D01*
X104573117Y-97531116D01*
X104563672Y-97539383D01*
X104532087Y-97575311D01*
X104526871Y-97606635D01*
X104550765Y-97637391D01*
X104606510Y-97671617D01*
X104696846Y-97713350D01*
X104702956Y-97715993D01*
X104803241Y-97762755D01*
X104871735Y-97804181D01*
X104913899Y-97845542D01*
X104935193Y-97892111D01*
X104941077Y-97949160D01*
X104933366Y-98012408D01*
X104894430Y-98093364D01*
X104825932Y-98151522D01*
X104776388Y-98168983D01*
X104706469Y-98178537D01*
X104638575Y-98176496D01*
X104590093Y-98162082D01*
X104584943Y-98158493D01*
X104571267Y-98133416D01*
X104580757Y-98089218D01*
X104597246Y-98054527D01*
X104623687Y-98040084D01*
X104673834Y-98040803D01*
X104743453Y-98036660D01*
X104788943Y-98008054D01*
X104804308Y-97955104D01*
X104804294Y-97953582D01*
X104794983Y-97922845D01*
X104763311Y-97894643D01*
X104701731Y-97862136D01*
X104617986Y-97822998D01*
X104562518Y-97801706D01*
X104530497Y-97803079D01*
X104515534Y-97831203D01*
X104511242Y-97890170D01*
X104511231Y-97984068D01*
X104510752Y-98042031D01*
X104508556Y-98113612D01*
X104504986Y-98162606D01*
X104500491Y-98180769D01*
X104499290Y-98180646D01*
X104473319Y-98170802D01*
X104430305Y-98150028D01*
X104370859Y-98119287D01*
X104377923Y-97842298D01*
X104378414Y-97823928D01*
X104384025Y-97694992D01*
X104393938Y-97597814D01*
X104410175Y-97525925D01*
X104434759Y-97472852D01*
X104469715Y-97432127D01*
X104517064Y-97397279D01*
X104517940Y-97396733D01*
X104594499Y-97368303D01*
X104683044Y-97363500D01*
X104768458Y-97381228D01*
G36*
X104768458Y-97381228D02*
G01*
X104835622Y-97420389D01*
X104865169Y-97450902D01*
X104921948Y-97542110D01*
X104941077Y-97641548D01*
X104941077Y-97709960D01*
X104878191Y-97683518D01*
X104834700Y-97656837D01*
X104800426Y-97601446D01*
X104796907Y-97590024D01*
X104759028Y-97531838D01*
X104701936Y-97500407D01*
X104636383Y-97499058D01*
X104573117Y-97531116D01*
X104563672Y-97539383D01*
X104532087Y-97575311D01*
X104526871Y-97606635D01*
X104550765Y-97637391D01*
X104606510Y-97671617D01*
X104696846Y-97713350D01*
X104702956Y-97715993D01*
X104803241Y-97762755D01*
X104871735Y-97804181D01*
X104913899Y-97845542D01*
X104935193Y-97892111D01*
X104941077Y-97949160D01*
X104933366Y-98012408D01*
X104894430Y-98093364D01*
X104825932Y-98151522D01*
X104776388Y-98168983D01*
X104706469Y-98178537D01*
X104638575Y-98176496D01*
X104590093Y-98162082D01*
X104584943Y-98158493D01*
X104571267Y-98133416D01*
X104580757Y-98089218D01*
X104597246Y-98054527D01*
X104623687Y-98040084D01*
X104673834Y-98040803D01*
X104743453Y-98036660D01*
X104788943Y-98008054D01*
X104804308Y-97955104D01*
X104804294Y-97953582D01*
X104794983Y-97922845D01*
X104763311Y-97894643D01*
X104701731Y-97862136D01*
X104617986Y-97822998D01*
X104562518Y-97801706D01*
X104530497Y-97803079D01*
X104515534Y-97831203D01*
X104511242Y-97890170D01*
X104511231Y-97984068D01*
X104510752Y-98042031D01*
X104508556Y-98113612D01*
X104504986Y-98162606D01*
X104500491Y-98180769D01*
X104499290Y-98180646D01*
X104473319Y-98170802D01*
X104430305Y-98150028D01*
X104370859Y-98119287D01*
X104377923Y-97842298D01*
X104378414Y-97823928D01*
X104384025Y-97694992D01*
X104393938Y-97597814D01*
X104410175Y-97525925D01*
X104434759Y-97472852D01*
X104469715Y-97432127D01*
X104517064Y-97397279D01*
X104517940Y-97396733D01*
X104594499Y-97368303D01*
X104683044Y-97363500D01*
X104768458Y-97381228D01*
G37*
X101911936Y-97361911D02*
X101953807Y-97372547D01*
X101992791Y-97399062D01*
X102042965Y-97448420D01*
X102075232Y-97483279D01*
X102108844Y-97528534D01*
X102124003Y-97570951D01*
X102127539Y-97624768D01*
X102127539Y-97712850D01*
X102067470Y-97681787D01*
X102019867Y-97643936D01*
X101987261Y-97592950D01*
X101981661Y-97579088D01*
X101938992Y-97525358D01*
X101879707Y-97498417D01*
X101815061Y-97501039D01*
X101756308Y-97536000D01*
X101731450Y-97564394D01*
X101716970Y-97600718D01*
X101732470Y-97633046D01*
X101780667Y-97665565D01*
X101864274Y-97702461D01*
X101876962Y-97707557D01*
X101953078Y-97740907D01*
X102018396Y-97773793D01*
X102059953Y-97799769D01*
X102101576Y-97846167D01*
X102129247Y-97920211D01*
X102126310Y-97999670D01*
X102093571Y-98074868D01*
X102031841Y-98136131D01*
X101981858Y-98162210D01*
X101885303Y-98180470D01*
X101831647Y-98178007D01*
X101781976Y-98164687D01*
X101762919Y-98136739D01*
X101770045Y-98090710D01*
X101772118Y-98084624D01*
X101788556Y-98052349D01*
X101815926Y-98040133D01*
X101868068Y-98040950D01*
X101904884Y-98042061D01*
X101947961Y-98032528D01*
X101977475Y-98004026D01*
X101994286Y-97968935D01*
X101996161Y-97932175D01*
X101996074Y-97931961D01*
X101974279Y-97912098D01*
X101927632Y-97883192D01*
X101867278Y-97850886D01*
X101804360Y-97820823D01*
X101750023Y-97798646D01*
X101715410Y-97790000D01*
X101710260Y-97798467D01*
X101703778Y-97838309D01*
X101699339Y-97903371D01*
X101697692Y-97985385D01*
X101697309Y-98042153D01*
X101695505Y-98113648D01*
X101692558Y-98162610D01*
X101688843Y-98180769D01*
X101669424Y-98174667D01*
X101630227Y-98158095D01*
X101580462Y-98135420D01*
X101580462Y-97844509D01*
X101580780Y-97769940D01*
X101583789Y-97656701D01*
X101591454Y-97572692D01*
X101605562Y-97511520D01*
X101627899Y-97466795D01*
X101660253Y-97432124D01*
X101704410Y-97401117D01*
X101760667Y-97375528D01*
X101864540Y-97360154D01*
X101911936Y-97361911D01*
G36*
X101911936Y-97361911D02*
G01*
X101953807Y-97372547D01*
X101992791Y-97399062D01*
X102042965Y-97448420D01*
X102075232Y-97483279D01*
X102108844Y-97528534D01*
X102124003Y-97570951D01*
X102127539Y-97624768D01*
X102127539Y-97712850D01*
X102067470Y-97681787D01*
X102019867Y-97643936D01*
X101987261Y-97592950D01*
X101981661Y-97579088D01*
X101938992Y-97525358D01*
X101879707Y-97498417D01*
X101815061Y-97501039D01*
X101756308Y-97536000D01*
X101731450Y-97564394D01*
X101716970Y-97600718D01*
X101732470Y-97633046D01*
X101780667Y-97665565D01*
X101864274Y-97702461D01*
X101876962Y-97707557D01*
X101953078Y-97740907D01*
X102018396Y-97773793D01*
X102059953Y-97799769D01*
X102101576Y-97846167D01*
X102129247Y-97920211D01*
X102126310Y-97999670D01*
X102093571Y-98074868D01*
X102031841Y-98136131D01*
X101981858Y-98162210D01*
X101885303Y-98180470D01*
X101831647Y-98178007D01*
X101781976Y-98164687D01*
X101762919Y-98136739D01*
X101770045Y-98090710D01*
X101772118Y-98084624D01*
X101788556Y-98052349D01*
X101815926Y-98040133D01*
X101868068Y-98040950D01*
X101904884Y-98042061D01*
X101947961Y-98032528D01*
X101977475Y-98004026D01*
X101994286Y-97968935D01*
X101996161Y-97932175D01*
X101996074Y-97931961D01*
X101974279Y-97912098D01*
X101927632Y-97883192D01*
X101867278Y-97850886D01*
X101804360Y-97820823D01*
X101750023Y-97798646D01*
X101715410Y-97790000D01*
X101710260Y-97798467D01*
X101703778Y-97838309D01*
X101699339Y-97903371D01*
X101697692Y-97985385D01*
X101697309Y-98042153D01*
X101695505Y-98113648D01*
X101692558Y-98162610D01*
X101688843Y-98180769D01*
X101669424Y-98174667D01*
X101630227Y-98158095D01*
X101580462Y-98135420D01*
X101580462Y-97844509D01*
X101580780Y-97769940D01*
X101583789Y-97656701D01*
X101591454Y-97572692D01*
X101605562Y-97511520D01*
X101627899Y-97466795D01*
X101660253Y-97432124D01*
X101704410Y-97401117D01*
X101760667Y-97375528D01*
X101864540Y-97360154D01*
X101911936Y-97361911D01*
G37*
X108295828Y-97840205D02*
X108297763Y-97990269D01*
X108298300Y-98033802D01*
X108300019Y-98179344D01*
X108300365Y-98290711D01*
X108298277Y-98371804D01*
X108292698Y-98426522D01*
X108282567Y-98458761D01*
X108266826Y-98472422D01*
X108244417Y-98471403D01*
X108214280Y-98459603D01*
X108175355Y-98440920D01*
X108167038Y-98436933D01*
X108132402Y-98417419D01*
X108114314Y-98394202D01*
X108107392Y-98355492D01*
X108106256Y-98289497D01*
X108106205Y-98171000D01*
X107984141Y-98171000D01*
X107909055Y-98167712D01*
X107850015Y-98154377D01*
X107800986Y-98127423D01*
X107797330Y-98124788D01*
X107747581Y-98080286D01*
X107712959Y-98026523D01*
X107691123Y-97956154D01*
X107679737Y-97861830D01*
X107676959Y-97755271D01*
X107871846Y-97755271D01*
X107871880Y-97773131D01*
X107873735Y-97853748D01*
X107879693Y-97906447D01*
X107891506Y-97940668D01*
X107910923Y-97965846D01*
X107912133Y-97967049D01*
X107959858Y-97999628D01*
X108006110Y-97996417D01*
X108058350Y-97956965D01*
X108071128Y-97943482D01*
X108089949Y-97915837D01*
X108100562Y-97879880D01*
X108105252Y-97825364D01*
X108106308Y-97742042D01*
X108105394Y-97691598D01*
X108095477Y-97599857D01*
X108072842Y-97539752D01*
X108035238Y-97506900D01*
X107980416Y-97496923D01*
X107957317Y-97499050D01*
X107917350Y-97520147D01*
X107890926Y-97567161D01*
X107876330Y-97644175D01*
X107871846Y-97755271D01*
X107676959Y-97755271D01*
X107676462Y-97736206D01*
X107677187Y-97644536D01*
X107680490Y-97575098D01*
X107687828Y-97526945D01*
X107700655Y-97490866D01*
X107720423Y-97457648D01*
X107738569Y-97432261D01*
X107804461Y-97363727D01*
X107879114Y-97326505D01*
X107972904Y-97314722D01*
X108080240Y-97326467D01*
X108173031Y-97368595D01*
X108246421Y-97442898D01*
X108251954Y-97450764D01*
X108264857Y-97471668D01*
X108274742Y-97495555D01*
X108282093Y-97527582D01*
X108287394Y-97572905D01*
X108291127Y-97636679D01*
X108293778Y-97724060D01*
X108294096Y-97742042D01*
X108295828Y-97840205D01*
G36*
X108295828Y-97840205D02*
G01*
X108297763Y-97990269D01*
X108298300Y-98033802D01*
X108300019Y-98179344D01*
X108300365Y-98290711D01*
X108298277Y-98371804D01*
X108292698Y-98426522D01*
X108282567Y-98458761D01*
X108266826Y-98472422D01*
X108244417Y-98471403D01*
X108214280Y-98459603D01*
X108175355Y-98440920D01*
X108167038Y-98436933D01*
X108132402Y-98417419D01*
X108114314Y-98394202D01*
X108107392Y-98355492D01*
X108106256Y-98289497D01*
X108106205Y-98171000D01*
X107984141Y-98171000D01*
X107909055Y-98167712D01*
X107850015Y-98154377D01*
X107800986Y-98127423D01*
X107797330Y-98124788D01*
X107747581Y-98080286D01*
X107712959Y-98026523D01*
X107691123Y-97956154D01*
X107679737Y-97861830D01*
X107676959Y-97755271D01*
X107871846Y-97755271D01*
X107871880Y-97773131D01*
X107873735Y-97853748D01*
X107879693Y-97906447D01*
X107891506Y-97940668D01*
X107910923Y-97965846D01*
X107912133Y-97967049D01*
X107959858Y-97999628D01*
X108006110Y-97996417D01*
X108058350Y-97956965D01*
X108071128Y-97943482D01*
X108089949Y-97915837D01*
X108100562Y-97879880D01*
X108105252Y-97825364D01*
X108106308Y-97742042D01*
X108105394Y-97691598D01*
X108095477Y-97599857D01*
X108072842Y-97539752D01*
X108035238Y-97506900D01*
X107980416Y-97496923D01*
X107957317Y-97499050D01*
X107917350Y-97520147D01*
X107890926Y-97567161D01*
X107876330Y-97644175D01*
X107871846Y-97755271D01*
X107676959Y-97755271D01*
X107676462Y-97736206D01*
X107677187Y-97644536D01*
X107680490Y-97575098D01*
X107687828Y-97526945D01*
X107700655Y-97490866D01*
X107720423Y-97457648D01*
X107738569Y-97432261D01*
X107804461Y-97363727D01*
X107879114Y-97326505D01*
X107972904Y-97314722D01*
X108080240Y-97326467D01*
X108173031Y-97368595D01*
X108246421Y-97442898D01*
X108251954Y-97450764D01*
X108264857Y-97471668D01*
X108274742Y-97495555D01*
X108282093Y-97527582D01*
X108287394Y-97572905D01*
X108291127Y-97636679D01*
X108293778Y-97724060D01*
X108294096Y-97742042D01*
X108295828Y-97840205D01*
G37*
X104665575Y-91029693D02*
X104801371Y-91029807D01*
X104903576Y-91030472D01*
X104977122Y-91032182D01*
X105026942Y-91035429D01*
X105057967Y-91040706D01*
X105075129Y-91048507D01*
X105083361Y-91059325D01*
X105087594Y-91073654D01*
X105087716Y-91074168D01*
X105094672Y-91107851D01*
X105107320Y-91172917D01*
X105124360Y-91262542D01*
X105144496Y-91369904D01*
X105166429Y-91488178D01*
X105168218Y-91497856D01*
X105190083Y-91612650D01*
X105210430Y-91713480D01*
X105227934Y-91794217D01*
X105241271Y-91848734D01*
X105249116Y-91870901D01*
X105249158Y-91870936D01*
X105273884Y-91883200D01*
X105324631Y-91903576D01*
X105390462Y-91927674D01*
X105394169Y-91928983D01*
X105478331Y-91960791D01*
X105576230Y-92000685D01*
X105667435Y-92040353D01*
X105817407Y-92108420D01*
X106149499Y-91881639D01*
X106172889Y-91865688D01*
X106273080Y-91797890D01*
X106362480Y-91738208D01*
X106435745Y-91690156D01*
X106487527Y-91657250D01*
X106512480Y-91643004D01*
X106529577Y-91646270D01*
X106568395Y-91671571D01*
X106628385Y-91721675D01*
X106711210Y-91797989D01*
X106818535Y-91901922D01*
X106828139Y-91911382D01*
X106913302Y-91996145D01*
X106988949Y-92072937D01*
X107050449Y-92136947D01*
X107093173Y-92183361D01*
X107112489Y-92207369D01*
X107112552Y-92207485D01*
X107115006Y-92225763D01*
X107105956Y-92255411D01*
X107083119Y-92300486D01*
X107044213Y-92365044D01*
X106986954Y-92453140D01*
X106909059Y-92568830D01*
X106895785Y-92588357D01*
X106828652Y-92687278D01*
X106769410Y-92774848D01*
X106721588Y-92845831D01*
X106688715Y-92894991D01*
X106674318Y-92917095D01*
X106673232Y-92921777D01*
X106680044Y-92956710D01*
X106700450Y-93013753D01*
X106731123Y-93083172D01*
X106772808Y-93173959D01*
X106819352Y-93281686D01*
X106858877Y-93379192D01*
X106868676Y-93404430D01*
X106894340Y-93468870D01*
X106913193Y-93513763D01*
X106921710Y-93530616D01*
X106931111Y-93531875D01*
X106973363Y-93539159D01*
X107042521Y-93551739D01*
X107131387Y-93568246D01*
X107232768Y-93587312D01*
X107339467Y-93607569D01*
X107444288Y-93627647D01*
X107540036Y-93646179D01*
X107619516Y-93661795D01*
X107675530Y-93673127D01*
X107700885Y-93678807D01*
X107705088Y-93680408D01*
X107715334Y-93689045D01*
X107722957Y-93707433D01*
X107728338Y-93740460D01*
X107731859Y-93793013D01*
X107733901Y-93869979D01*
X107734847Y-93976246D01*
X107735077Y-94116701D01*
X107735077Y-94543845D01*
X107632500Y-94564091D01*
X107620092Y-94566518D01*
X107554199Y-94579088D01*
X107463084Y-94596170D01*
X107357104Y-94615829D01*
X107246615Y-94636132D01*
X107203105Y-94644299D01*
X107105882Y-94664167D01*
X107024858Y-94682954D01*
X106967477Y-94698859D01*
X106941187Y-94710079D01*
X106929273Y-94728411D01*
X106907583Y-94776916D01*
X106885395Y-94839692D01*
X106877585Y-94863200D01*
X106848835Y-94940366D01*
X106811752Y-95031694D01*
X106772375Y-95122093D01*
X106751315Y-95169310D01*
X106721311Y-95239837D01*
X106700692Y-95292655D01*
X106693026Y-95318912D01*
X106693452Y-95320894D01*
X106707993Y-95348751D01*
X106740783Y-95402510D01*
X106788493Y-95476963D01*
X106847798Y-95566897D01*
X106915369Y-95667104D01*
X107137713Y-95993416D01*
X106845601Y-96286016D01*
X106817349Y-96314171D01*
X106730961Y-96398449D01*
X106653756Y-96471128D01*
X106590258Y-96528112D01*
X106544990Y-96565307D01*
X106522474Y-96578616D01*
X106498023Y-96568490D01*
X106446819Y-96539421D01*
X106374747Y-96494896D01*
X106287460Y-96438411D01*
X106190612Y-96373462D01*
X106095486Y-96309314D01*
X106009669Y-96252827D01*
X105939652Y-96208184D01*
X105890876Y-96178855D01*
X105868783Y-96168308D01*
X105867488Y-96168404D01*
X105838139Y-96178802D01*
X105786093Y-96203012D01*
X105721708Y-96236249D01*
X105721032Y-96236613D01*
X105635521Y-96279441D01*
X105576926Y-96300365D01*
X105540571Y-96300423D01*
X105521775Y-96280654D01*
X105513819Y-96261195D01*
X105492347Y-96209080D01*
X105459273Y-96128964D01*
X105416356Y-96025107D01*
X105365356Y-95901767D01*
X105308033Y-95763201D01*
X105246146Y-95613670D01*
X105190052Y-95477636D01*
X105132977Y-95338050D01*
X105082479Y-95213315D01*
X105040254Y-95107672D01*
X105007995Y-95025365D01*
X104987397Y-94970635D01*
X104980154Y-94947726D01*
X104993986Y-94926718D01*
X105032412Y-94891642D01*
X105086807Y-94850887D01*
X105217395Y-94744267D01*
X105334260Y-94608025D01*
X105419780Y-94458118D01*
X105473431Y-94298971D01*
X105494684Y-94135012D01*
X105483014Y-93970667D01*
X105437894Y-93810361D01*
X105358797Y-93658520D01*
X105245197Y-93519572D01*
X105185965Y-93465460D01*
X105044054Y-93369782D01*
X104892206Y-93307405D01*
X104734861Y-93276844D01*
X104576456Y-93276615D01*
X104421429Y-93305232D01*
X104274220Y-93361210D01*
X104139266Y-93443064D01*
X104021005Y-93549309D01*
X103923877Y-93678459D01*
X103852318Y-93829031D01*
X103810769Y-93999539D01*
X103803143Y-94081722D01*
X103813634Y-94259775D01*
X103860882Y-94428704D01*
X103943489Y-94585522D01*
X104060059Y-94727245D01*
X104209193Y-94850887D01*
X104261561Y-94889982D01*
X104300832Y-94925443D01*
X104315846Y-94947692D01*
X104309859Y-94967088D01*
X104290432Y-95019059D01*
X104259194Y-95099002D01*
X104217839Y-95202673D01*
X104168061Y-95325832D01*
X104111553Y-95464234D01*
X104050009Y-95613637D01*
X103994008Y-95749020D01*
X103936184Y-95888852D01*
X103884500Y-96013872D01*
X103840718Y-96119822D01*
X103806597Y-96202441D01*
X103783898Y-96257472D01*
X103774380Y-96280654D01*
X103774269Y-96280928D01*
X103755228Y-96300503D01*
X103718694Y-96300279D01*
X103659954Y-96279210D01*
X103574292Y-96236249D01*
X103567549Y-96232631D01*
X103503938Y-96200087D01*
X103453707Y-96177050D01*
X103427218Y-96168308D01*
X103405506Y-96178639D01*
X103356984Y-96207788D01*
X103287163Y-96252287D01*
X103201484Y-96308668D01*
X103105388Y-96373462D01*
X103010706Y-96436984D01*
X102923132Y-96493705D01*
X102850642Y-96538547D01*
X102798889Y-96568016D01*
X102773526Y-96578616D01*
X102769206Y-96577270D01*
X102739092Y-96556056D01*
X102687640Y-96512237D01*
X102619375Y-96449909D01*
X102538820Y-96373170D01*
X102450500Y-96286116D01*
X102158488Y-95993617D01*
X102613360Y-95324525D01*
X102544208Y-95174916D01*
X102544003Y-95174473D01*
X102502477Y-95079101D01*
X102460044Y-94972896D01*
X102425858Y-94878769D01*
X102420684Y-94863588D01*
X102394601Y-94793109D01*
X102371081Y-94738342D01*
X102354677Y-94710079D01*
X102347996Y-94706088D01*
X102307892Y-94692697D01*
X102239795Y-94675373D01*
X102151145Y-94655917D01*
X102049385Y-94636132D01*
X102018904Y-94630551D01*
X101908628Y-94610233D01*
X101805731Y-94591095D01*
X101720569Y-94575070D01*
X101663500Y-94564091D01*
X101560923Y-94543845D01*
X101560923Y-94116701D01*
X101560946Y-94064180D01*
X101561379Y-93936047D01*
X101562659Y-93840420D01*
X101565168Y-93772411D01*
X101569286Y-93727133D01*
X101575395Y-93699697D01*
X101583878Y-93685218D01*
X101595115Y-93678807D01*
X101605994Y-93676209D01*
X101650347Y-93667022D01*
X101721106Y-93652991D01*
X101811074Y-93635486D01*
X101913056Y-93615874D01*
X102019857Y-93595525D01*
X102124281Y-93575807D01*
X102219132Y-93558089D01*
X102297214Y-93543738D01*
X102351332Y-93534124D01*
X102374291Y-93530616D01*
X102375842Y-93528497D01*
X102388325Y-93501006D01*
X102409927Y-93448406D01*
X102437123Y-93379192D01*
X102474866Y-93285937D01*
X102521328Y-93178159D01*
X102564878Y-93083172D01*
X102574858Y-93061851D01*
X102602862Y-92995086D01*
X102619641Y-92943590D01*
X102621854Y-92917095D01*
X102620713Y-92915218D01*
X102602584Y-92887565D01*
X102566644Y-92833849D01*
X102516418Y-92759303D01*
X102455430Y-92669162D01*
X102387205Y-92568657D01*
X102310330Y-92454470D01*
X102252663Y-92365770D01*
X102213426Y-92300721D01*
X102190350Y-92255295D01*
X102181166Y-92225463D01*
X102183604Y-92207195D01*
X102184424Y-92205825D01*
X102206477Y-92179205D01*
X102251436Y-92130697D01*
X102314673Y-92065108D01*
X102391559Y-91987247D01*
X102477465Y-91901922D01*
X102566579Y-91815334D01*
X102653872Y-91733947D01*
X102718018Y-91679035D01*
X102760679Y-91649190D01*
X102783521Y-91643004D01*
X102786505Y-91644394D01*
X102817936Y-91663127D01*
X102874997Y-91699733D01*
X102952343Y-91750697D01*
X103044626Y-91812504D01*
X103146502Y-91881639D01*
X103478593Y-92108420D01*
X103628566Y-92040353D01*
X103632923Y-92038381D01*
X103725000Y-91998491D01*
X103822683Y-91958818D01*
X103905539Y-91927674D01*
X103905905Y-91927545D01*
X103971685Y-91903456D01*
X104022323Y-91883110D01*
X104046884Y-91870901D01*
X104047282Y-91870458D01*
X104055619Y-91845456D01*
X104069341Y-91788598D01*
X104087123Y-91706014D01*
X104107641Y-91603831D01*
X104129571Y-91488178D01*
X104130336Y-91484033D01*
X104152229Y-91366019D01*
X104172281Y-91259151D01*
X104189192Y-91170252D01*
X104201667Y-91106145D01*
X104208406Y-91073654D01*
X104208837Y-91071853D01*
X104213273Y-91057944D01*
X104222263Y-91047489D01*
X104240737Y-91039996D01*
X104273628Y-91034972D01*
X104325868Y-91031922D01*
X104402388Y-91030355D01*
X104508122Y-91029776D01*
X104648000Y-91029692D01*
X104665575Y-91029693D01*
G36*
X104665575Y-91029693D02*
G01*
X104801371Y-91029807D01*
X104903576Y-91030472D01*
X104977122Y-91032182D01*
X105026942Y-91035429D01*
X105057967Y-91040706D01*
X105075129Y-91048507D01*
X105083361Y-91059325D01*
X105087594Y-91073654D01*
X105087716Y-91074168D01*
X105094672Y-91107851D01*
X105107320Y-91172917D01*
X105124360Y-91262542D01*
X105144496Y-91369904D01*
X105166429Y-91488178D01*
X105168218Y-91497856D01*
X105190083Y-91612650D01*
X105210430Y-91713480D01*
X105227934Y-91794217D01*
X105241271Y-91848734D01*
X105249116Y-91870901D01*
X105249158Y-91870936D01*
X105273884Y-91883200D01*
X105324631Y-91903576D01*
X105390462Y-91927674D01*
X105394169Y-91928983D01*
X105478331Y-91960791D01*
X105576230Y-92000685D01*
X105667435Y-92040353D01*
X105817407Y-92108420D01*
X106149499Y-91881639D01*
X106172889Y-91865688D01*
X106273080Y-91797890D01*
X106362480Y-91738208D01*
X106435745Y-91690156D01*
X106487527Y-91657250D01*
X106512480Y-91643004D01*
X106529577Y-91646270D01*
X106568395Y-91671571D01*
X106628385Y-91721675D01*
X106711210Y-91797989D01*
X106818535Y-91901922D01*
X106828139Y-91911382D01*
X106913302Y-91996145D01*
X106988949Y-92072937D01*
X107050449Y-92136947D01*
X107093173Y-92183361D01*
X107112489Y-92207369D01*
X107112552Y-92207485D01*
X107115006Y-92225763D01*
X107105956Y-92255411D01*
X107083119Y-92300486D01*
X107044213Y-92365044D01*
X106986954Y-92453140D01*
X106909059Y-92568830D01*
X106895785Y-92588357D01*
X106828652Y-92687278D01*
X106769410Y-92774848D01*
X106721588Y-92845831D01*
X106688715Y-92894991D01*
X106674318Y-92917095D01*
X106673232Y-92921777D01*
X106680044Y-92956710D01*
X106700450Y-93013753D01*
X106731123Y-93083172D01*
X106772808Y-93173959D01*
X106819352Y-93281686D01*
X106858877Y-93379192D01*
X106868676Y-93404430D01*
X106894340Y-93468870D01*
X106913193Y-93513763D01*
X106921710Y-93530616D01*
X106931111Y-93531875D01*
X106973363Y-93539159D01*
X107042521Y-93551739D01*
X107131387Y-93568246D01*
X107232768Y-93587312D01*
X107339467Y-93607569D01*
X107444288Y-93627647D01*
X107540036Y-93646179D01*
X107619516Y-93661795D01*
X107675530Y-93673127D01*
X107700885Y-93678807D01*
X107705088Y-93680408D01*
X107715334Y-93689045D01*
X107722957Y-93707433D01*
X107728338Y-93740460D01*
X107731859Y-93793013D01*
X107733901Y-93869979D01*
X107734847Y-93976246D01*
X107735077Y-94116701D01*
X107735077Y-94543845D01*
X107632500Y-94564091D01*
X107620092Y-94566518D01*
X107554199Y-94579088D01*
X107463084Y-94596170D01*
X107357104Y-94615829D01*
X107246615Y-94636132D01*
X107203105Y-94644299D01*
X107105882Y-94664167D01*
X107024858Y-94682954D01*
X106967477Y-94698859D01*
X106941187Y-94710079D01*
X106929273Y-94728411D01*
X106907583Y-94776916D01*
X106885395Y-94839692D01*
X106877585Y-94863200D01*
X106848835Y-94940366D01*
X106811752Y-95031694D01*
X106772375Y-95122093D01*
X106751315Y-95169310D01*
X106721311Y-95239837D01*
X106700692Y-95292655D01*
X106693026Y-95318912D01*
X106693452Y-95320894D01*
X106707993Y-95348751D01*
X106740783Y-95402510D01*
X106788493Y-95476963D01*
X106847798Y-95566897D01*
X106915369Y-95667104D01*
X107137713Y-95993416D01*
X106845601Y-96286016D01*
X106817349Y-96314171D01*
X106730961Y-96398449D01*
X106653756Y-96471128D01*
X106590258Y-96528112D01*
X106544990Y-96565307D01*
X106522474Y-96578616D01*
X106498023Y-96568490D01*
X106446819Y-96539421D01*
X106374747Y-96494896D01*
X106287460Y-96438411D01*
X106190612Y-96373462D01*
X106095486Y-96309314D01*
X106009669Y-96252827D01*
X105939652Y-96208184D01*
X105890876Y-96178855D01*
X105868783Y-96168308D01*
X105867488Y-96168404D01*
X105838139Y-96178802D01*
X105786093Y-96203012D01*
X105721708Y-96236249D01*
X105721032Y-96236613D01*
X105635521Y-96279441D01*
X105576926Y-96300365D01*
X105540571Y-96300423D01*
X105521775Y-96280654D01*
X105513819Y-96261195D01*
X105492347Y-96209080D01*
X105459273Y-96128964D01*
X105416356Y-96025107D01*
X105365356Y-95901767D01*
X105308033Y-95763201D01*
X105246146Y-95613670D01*
X105190052Y-95477636D01*
X105132977Y-95338050D01*
X105082479Y-95213315D01*
X105040254Y-95107672D01*
X105007995Y-95025365D01*
X104987397Y-94970635D01*
X104980154Y-94947726D01*
X104993986Y-94926718D01*
X105032412Y-94891642D01*
X105086807Y-94850887D01*
X105217395Y-94744267D01*
X105334260Y-94608025D01*
X105419780Y-94458118D01*
X105473431Y-94298971D01*
X105494684Y-94135012D01*
X105483014Y-93970667D01*
X105437894Y-93810361D01*
X105358797Y-93658520D01*
X105245197Y-93519572D01*
X105185965Y-93465460D01*
X105044054Y-93369782D01*
X104892206Y-93307405D01*
X104734861Y-93276844D01*
X104576456Y-93276615D01*
X104421429Y-93305232D01*
X104274220Y-93361210D01*
X104139266Y-93443064D01*
X104021005Y-93549309D01*
X103923877Y-93678459D01*
X103852318Y-93829031D01*
X103810769Y-93999539D01*
X103803143Y-94081722D01*
X103813634Y-94259775D01*
X103860882Y-94428704D01*
X103943489Y-94585522D01*
X104060059Y-94727245D01*
X104209193Y-94850887D01*
X104261561Y-94889982D01*
X104300832Y-94925443D01*
X104315846Y-94947692D01*
X104309859Y-94967088D01*
X104290432Y-95019059D01*
X104259194Y-95099002D01*
X104217839Y-95202673D01*
X104168061Y-95325832D01*
X104111553Y-95464234D01*
X104050009Y-95613637D01*
X103994008Y-95749020D01*
X103936184Y-95888852D01*
X103884500Y-96013872D01*
X103840718Y-96119822D01*
X103806597Y-96202441D01*
X103783898Y-96257472D01*
X103774380Y-96280654D01*
X103774269Y-96280928D01*
X103755228Y-96300503D01*
X103718694Y-96300279D01*
X103659954Y-96279210D01*
X103574292Y-96236249D01*
X103567549Y-96232631D01*
X103503938Y-96200087D01*
X103453707Y-96177050D01*
X103427218Y-96168308D01*
X103405506Y-96178639D01*
X103356984Y-96207788D01*
X103287163Y-96252287D01*
X103201484Y-96308668D01*
X103105388Y-96373462D01*
X103010706Y-96436984D01*
X102923132Y-96493705D01*
X102850642Y-96538547D01*
X102798889Y-96568016D01*
X102773526Y-96578616D01*
X102769206Y-96577270D01*
X102739092Y-96556056D01*
X102687640Y-96512237D01*
X102619375Y-96449909D01*
X102538820Y-96373170D01*
X102450500Y-96286116D01*
X102158488Y-95993617D01*
X102613360Y-95324525D01*
X102544208Y-95174916D01*
X102544003Y-95174473D01*
X102502477Y-95079101D01*
X102460044Y-94972896D01*
X102425858Y-94878769D01*
X102420684Y-94863588D01*
X102394601Y-94793109D01*
X102371081Y-94738342D01*
X102354677Y-94710079D01*
X102347996Y-94706088D01*
X102307892Y-94692697D01*
X102239795Y-94675373D01*
X102151145Y-94655917D01*
X102049385Y-94636132D01*
X102018904Y-94630551D01*
X101908628Y-94610233D01*
X101805731Y-94591095D01*
X101720569Y-94575070D01*
X101663500Y-94564091D01*
X101560923Y-94543845D01*
X101560923Y-94116701D01*
X101560946Y-94064180D01*
X101561379Y-93936047D01*
X101562659Y-93840420D01*
X101565168Y-93772411D01*
X101569286Y-93727133D01*
X101575395Y-93699697D01*
X101583878Y-93685218D01*
X101595115Y-93678807D01*
X101605994Y-93676209D01*
X101650347Y-93667022D01*
X101721106Y-93652991D01*
X101811074Y-93635486D01*
X101913056Y-93615874D01*
X102019857Y-93595525D01*
X102124281Y-93575807D01*
X102219132Y-93558089D01*
X102297214Y-93543738D01*
X102351332Y-93534124D01*
X102374291Y-93530616D01*
X102375842Y-93528497D01*
X102388325Y-93501006D01*
X102409927Y-93448406D01*
X102437123Y-93379192D01*
X102474866Y-93285937D01*
X102521328Y-93178159D01*
X102564878Y-93083172D01*
X102574858Y-93061851D01*
X102602862Y-92995086D01*
X102619641Y-92943590D01*
X102621854Y-92917095D01*
X102620713Y-92915218D01*
X102602584Y-92887565D01*
X102566644Y-92833849D01*
X102516418Y-92759303D01*
X102455430Y-92669162D01*
X102387205Y-92568657D01*
X102310330Y-92454470D01*
X102252663Y-92365770D01*
X102213426Y-92300721D01*
X102190350Y-92255295D01*
X102181166Y-92225463D01*
X102183604Y-92207195D01*
X102184424Y-92205825D01*
X102206477Y-92179205D01*
X102251436Y-92130697D01*
X102314673Y-92065108D01*
X102391559Y-91987247D01*
X102477465Y-91901922D01*
X102566579Y-91815334D01*
X102653872Y-91733947D01*
X102718018Y-91679035D01*
X102760679Y-91649190D01*
X102783521Y-91643004D01*
X102786505Y-91644394D01*
X102817936Y-91663127D01*
X102874997Y-91699733D01*
X102952343Y-91750697D01*
X103044626Y-91812504D01*
X103146502Y-91881639D01*
X103478593Y-92108420D01*
X103628566Y-92040353D01*
X103632923Y-92038381D01*
X103725000Y-91998491D01*
X103822683Y-91958818D01*
X103905539Y-91927674D01*
X103905905Y-91927545D01*
X103971685Y-91903456D01*
X104022323Y-91883110D01*
X104046884Y-91870901D01*
X104047282Y-91870458D01*
X104055619Y-91845456D01*
X104069341Y-91788598D01*
X104087123Y-91706014D01*
X104107641Y-91603831D01*
X104129571Y-91488178D01*
X104130336Y-91484033D01*
X104152229Y-91366019D01*
X104172281Y-91259151D01*
X104189192Y-91170252D01*
X104201667Y-91106145D01*
X104208406Y-91073654D01*
X104208837Y-91071853D01*
X104213273Y-91057944D01*
X104222263Y-91047489D01*
X104240737Y-91039996D01*
X104273628Y-91034972D01*
X104325868Y-91031922D01*
X104402388Y-91030355D01*
X104508122Y-91029776D01*
X104648000Y-91029692D01*
X104665575Y-91029693D01*
G37*
D19*
%TO.C,C15*%
X169490000Y-83452580D02*
X169490000Y-83171420D01*
X170510000Y-83452580D02*
X170510000Y-83171420D01*
%TO.C,U2*%
X167137500Y-87040000D02*
X164937500Y-87040000D01*
X167137500Y-87040000D02*
X169337500Y-87040000D01*
X167137500Y-93810000D02*
X164937500Y-93810000D01*
X167137500Y-93810000D02*
X169337500Y-93810000D01*
X163277500Y-93350000D02*
X162947500Y-93590000D01*
X162947500Y-93110000D01*
X163277500Y-93350000D01*
G36*
X163277500Y-93350000D02*
G01*
X162947500Y-93590000D01*
X162947500Y-93110000D01*
X163277500Y-93350000D01*
G37*
%TO.C,C14*%
X191768000Y-83158420D02*
X191768000Y-83439580D01*
X192788000Y-83158420D02*
X192788000Y-83439580D01*
%TO.C,R3*%
X122653242Y-97667500D02*
X123127758Y-97667500D01*
X122653242Y-98712500D02*
X123127758Y-98712500D01*
%TO.C,C8*%
X140714000Y-126886580D02*
X140714000Y-126605420D01*
X141734000Y-126886580D02*
X141734000Y-126605420D01*
%TO.C,C10*%
X185672000Y-83145420D02*
X185672000Y-83426580D01*
X186692000Y-83145420D02*
X186692000Y-83426580D01*
%TO.C,TP8*%
X151450000Y-82108000D02*
X151450000Y-84008000D01*
X151450000Y-84008000D02*
X153350000Y-84008000D01*
X153350000Y-82108000D02*
X151450000Y-82108000D01*
X153350000Y-84008000D02*
X153350000Y-82108000D01*
%TO.C,F5*%
X125647752Y-119758000D02*
X121240248Y-119758000D01*
X125647752Y-125098000D02*
X121240248Y-125098000D01*
%TO.C,RN1*%
X158594000Y-96900000D02*
X158594000Y-95900000D01*
X161954000Y-96900000D02*
X161954000Y-95900000D01*
%TO.C,RN4*%
X173982000Y-87220000D02*
X172982000Y-87220000D01*
X173982000Y-90580000D02*
X172982000Y-90580000D01*
%TO.C,C16*%
X172000000Y-83452580D02*
X172000000Y-83171420D01*
X173020000Y-83452580D02*
X173020000Y-83171420D01*
%TO.C,TP3*%
X200222000Y-79572000D02*
X200222000Y-81972000D01*
X200222000Y-81972000D02*
X202622000Y-81972000D01*
X202622000Y-79572000D02*
X200222000Y-79572000D01*
X202622000Y-81972000D02*
X202622000Y-79572000D01*
%TO.C,TP6*%
X136210000Y-82042000D02*
X136210000Y-83942000D01*
X136210000Y-83942000D02*
X138110000Y-83942000D01*
X138110000Y-82042000D02*
X136210000Y-82042000D01*
X138110000Y-83942000D02*
X138110000Y-82042000D01*
%TO.C,C1*%
X126632580Y-112774000D02*
X126351420Y-112774000D01*
X126632580Y-113794000D02*
X126351420Y-113794000D01*
%TO.C,R8*%
X108443500Y-69612742D02*
X108443500Y-70087258D01*
X109488500Y-69612742D02*
X109488500Y-70087258D01*
%TO.C,C9*%
X188720000Y-83158420D02*
X188720000Y-83439580D01*
X189740000Y-83158420D02*
X189740000Y-83439580D01*
%TO.C,C6*%
X108202000Y-61354580D02*
X108202000Y-61073420D01*
X109222000Y-61354580D02*
X109222000Y-61073420D01*
%TO.C,Rx-2*%
X107903742Y-84567500D02*
X108378258Y-84567500D01*
X107903742Y-85612500D02*
X108378258Y-85612500D01*
%TO.C,C2*%
X126632580Y-111250000D02*
X126351420Y-111250000D01*
X126632580Y-112270000D02*
X126351420Y-112270000D01*
%TO.C,TP7*%
X146370000Y-82108000D02*
X146370000Y-84008000D01*
X146370000Y-84008000D02*
X148270000Y-84008000D01*
X148270000Y-82108000D02*
X146370000Y-82108000D01*
X148270000Y-84008000D02*
X148270000Y-82108000D01*
%TO.C,TP9*%
X148910000Y-82108000D02*
X148910000Y-84008000D01*
X148910000Y-84008000D02*
X150810000Y-84008000D01*
X150810000Y-82108000D02*
X148910000Y-82108000D01*
X150810000Y-84008000D02*
X150810000Y-82108000D01*
%TO.C,C3*%
X123303420Y-112774000D02*
X123584580Y-112774000D01*
X123303420Y-113794000D02*
X123584580Y-113794000D01*
%TO.C,TP5*%
X155260000Y-90998000D02*
X155260000Y-92898000D01*
X155260000Y-92898000D02*
X157160000Y-92898000D01*
X157160000Y-90998000D02*
X155260000Y-90998000D01*
X157160000Y-92898000D02*
X157160000Y-90998000D01*
%TO.C,F3*%
X180683748Y-71830000D02*
X185091252Y-71830000D01*
X180683748Y-77170000D02*
X185091252Y-77170000D01*
%TO.C,Rx-1*%
X107903742Y-81519500D02*
X108378258Y-81519500D01*
X107903742Y-82564500D02*
X108378258Y-82564500D01*
%TO.C,F2*%
X160816252Y-71830000D02*
X156408748Y-71830000D01*
X160816252Y-77170000D02*
X156408748Y-77170000D01*
%TO.C,F1*%
X139683748Y-71830000D02*
X144091252Y-71830000D01*
X139683748Y-77170000D02*
X144091252Y-77170000D01*
%TO.C,C11*%
X182624000Y-83158420D02*
X182624000Y-83439580D01*
X183644000Y-83158420D02*
X183644000Y-83439580D01*
%TO.C,TP2*%
X124022000Y-90494000D02*
X124022000Y-92894000D01*
X124022000Y-92894000D02*
X126422000Y-92894000D01*
X126422000Y-90494000D02*
X124022000Y-90494000D01*
X126422000Y-92894000D02*
X126422000Y-90494000D01*
%TO.C,C13*%
X176528000Y-83158420D02*
X176528000Y-83439580D01*
X177548000Y-83158420D02*
X177548000Y-83439580D01*
%TO.C,R5*%
X122653242Y-108667500D02*
X123127758Y-108667500D01*
X122653242Y-109712500D02*
X123127758Y-109712500D01*
%TO.C,RN3*%
X165520000Y-96900000D02*
X165520000Y-95900000D01*
X168880000Y-96900000D02*
X168880000Y-95900000D01*
%TO.C,C7*%
X109980000Y-61073420D02*
X109980000Y-61354580D01*
X111000000Y-61073420D02*
X111000000Y-61354580D01*
%TO.C,R7*%
X168895500Y-123681258D02*
X168895500Y-123206742D01*
X169940500Y-123681258D02*
X169940500Y-123206742D01*
%TD*%
M02*
