%TF.GenerationSoftware,KiCad,Pcbnew,9.0.4*%
%TF.CreationDate,2025-09-16T13:45:21-04:00*%
%TF.ProjectId,cern-display-controller,6365726e-2d64-4697-9370-6c61792d636f,rev?*%
%TF.SameCoordinates,Original*%
%TF.FileFunction,Legend,Top*%
%TF.FilePolarity,Positive*%
%FSLAX46Y46*%
G04 Gerber Fmt 4.6, Leading zero omitted, Abs format (unit mm)*
G04 Created by KiCad (PCBNEW 9.0.4) date 2025-09-16 13:45:21*
%MOMM*%
%LPD*%
G01*
G04 APERTURE LIST*
%ADD10C,0.100000*%
%ADD11C,0.177800*%
%ADD12C,0.300000*%
%ADD13C,0.190500*%
%ADD14C,0.203200*%
%ADD15C,0.406400*%
%ADD16C,0.150000*%
%ADD17C,0.127000*%
%ADD18C,0.120000*%
%ADD19C,0.000000*%
G04 APERTURE END LIST*
D10*
X116840000Y-83312000D02*
X116332000Y-83820000D01*
X116332000Y-82804000D01*
X116840000Y-83312000D01*
G36*
X116840000Y-83312000D02*
G01*
X116332000Y-83820000D01*
X116332000Y-82804000D01*
X116840000Y-83312000D01*
G37*
D11*
X116840000Y-85852000D02*
X115824000Y-85852000D01*
D10*
X115824000Y-86360000D02*
X115316000Y-85852000D01*
X115824000Y-85344000D01*
X115824000Y-86360000D01*
G36*
X115824000Y-86360000D02*
G01*
X115316000Y-85852000D01*
X115824000Y-85344000D01*
X115824000Y-86360000D01*
G37*
D11*
X116205000Y-93472000D02*
X115443000Y-93472000D01*
X128778000Y-80010000D02*
X128778000Y-78994000D01*
D10*
X129286000Y-78994000D02*
X128270000Y-78994000D01*
X128778000Y-78486000D01*
X129286000Y-78994000D01*
G36*
X129286000Y-78994000D02*
G01*
X128270000Y-78994000D01*
X128778000Y-78486000D01*
X129286000Y-78994000D01*
G37*
D11*
X116205000Y-94234000D02*
X116205000Y-92710000D01*
X116967000Y-93726000D02*
X116967000Y-93218000D01*
X115316000Y-83312000D02*
X116332000Y-83312000D01*
X116586000Y-92964000D02*
X116586000Y-93980000D01*
D12*
X194639714Y-76370328D02*
X193925428Y-76370328D01*
X193925428Y-76370328D02*
X193925428Y-74870328D01*
X195139714Y-76370328D02*
X195139714Y-75370328D01*
X195139714Y-74870328D02*
X195068286Y-74941757D01*
X195068286Y-74941757D02*
X195139714Y-75013185D01*
X195139714Y-75013185D02*
X195211143Y-74941757D01*
X195211143Y-74941757D02*
X195139714Y-74870328D01*
X195139714Y-74870328D02*
X195139714Y-75013185D01*
X195854000Y-75370328D02*
X195854000Y-76370328D01*
X195854000Y-75513185D02*
X195925429Y-75441757D01*
X195925429Y-75441757D02*
X196068286Y-75370328D01*
X196068286Y-75370328D02*
X196282572Y-75370328D01*
X196282572Y-75370328D02*
X196425429Y-75441757D01*
X196425429Y-75441757D02*
X196496858Y-75584614D01*
X196496858Y-75584614D02*
X196496858Y-76370328D01*
X197211143Y-76370328D02*
X197211143Y-74870328D01*
X197354001Y-75798900D02*
X197782572Y-76370328D01*
X197782572Y-75370328D02*
X197211143Y-75941757D01*
X200211144Y-75370328D02*
X200211144Y-76370328D01*
X199854001Y-74798900D02*
X199496858Y-75870328D01*
X199496858Y-75870328D02*
X200425429Y-75870328D01*
X153444000Y-120336328D02*
X153444000Y-121407757D01*
X153444000Y-121407757D02*
X153372571Y-121622042D01*
X153372571Y-121622042D02*
X153229714Y-121764900D01*
X153229714Y-121764900D02*
X153015428Y-121836328D01*
X153015428Y-121836328D02*
X152872571Y-121836328D01*
X153944000Y-120336328D02*
X154801143Y-120336328D01*
X154372571Y-121836328D02*
X154372571Y-120336328D01*
X155229714Y-121407757D02*
X155944000Y-121407757D01*
X155086857Y-121836328D02*
X155586857Y-120336328D01*
X155586857Y-120336328D02*
X156086857Y-121836328D01*
X157372571Y-120407757D02*
X157229714Y-120336328D01*
X157229714Y-120336328D02*
X157015428Y-120336328D01*
X157015428Y-120336328D02*
X156801142Y-120407757D01*
X156801142Y-120407757D02*
X156658285Y-120550614D01*
X156658285Y-120550614D02*
X156586856Y-120693471D01*
X156586856Y-120693471D02*
X156515428Y-120979185D01*
X156515428Y-120979185D02*
X156515428Y-121193471D01*
X156515428Y-121193471D02*
X156586856Y-121479185D01*
X156586856Y-121479185D02*
X156658285Y-121622042D01*
X156658285Y-121622042D02*
X156801142Y-121764900D01*
X156801142Y-121764900D02*
X157015428Y-121836328D01*
X157015428Y-121836328D02*
X157158285Y-121836328D01*
X157158285Y-121836328D02*
X157372571Y-121764900D01*
X157372571Y-121764900D02*
X157443999Y-121693471D01*
X157443999Y-121693471D02*
X157443999Y-121193471D01*
X157443999Y-121193471D02*
X157158285Y-121193471D01*
X133524857Y-121836328D02*
X133024857Y-121122042D01*
X132667714Y-121836328D02*
X132667714Y-120336328D01*
X132667714Y-120336328D02*
X133239143Y-120336328D01*
X133239143Y-120336328D02*
X133382000Y-120407757D01*
X133382000Y-120407757D02*
X133453429Y-120479185D01*
X133453429Y-120479185D02*
X133524857Y-120622042D01*
X133524857Y-120622042D02*
X133524857Y-120836328D01*
X133524857Y-120836328D02*
X133453429Y-120979185D01*
X133453429Y-120979185D02*
X133382000Y-121050614D01*
X133382000Y-121050614D02*
X133239143Y-121122042D01*
X133239143Y-121122042D02*
X132667714Y-121122042D01*
X134739143Y-121764900D02*
X134596286Y-121836328D01*
X134596286Y-121836328D02*
X134310572Y-121836328D01*
X134310572Y-121836328D02*
X134167714Y-121764900D01*
X134167714Y-121764900D02*
X134096286Y-121622042D01*
X134096286Y-121622042D02*
X134096286Y-121050614D01*
X134096286Y-121050614D02*
X134167714Y-120907757D01*
X134167714Y-120907757D02*
X134310572Y-120836328D01*
X134310572Y-120836328D02*
X134596286Y-120836328D01*
X134596286Y-120836328D02*
X134739143Y-120907757D01*
X134739143Y-120907757D02*
X134810572Y-121050614D01*
X134810572Y-121050614D02*
X134810572Y-121193471D01*
X134810572Y-121193471D02*
X134096286Y-121336328D01*
X135382000Y-121764900D02*
X135524857Y-121836328D01*
X135524857Y-121836328D02*
X135810571Y-121836328D01*
X135810571Y-121836328D02*
X135953428Y-121764900D01*
X135953428Y-121764900D02*
X136024857Y-121622042D01*
X136024857Y-121622042D02*
X136024857Y-121550614D01*
X136024857Y-121550614D02*
X135953428Y-121407757D01*
X135953428Y-121407757D02*
X135810571Y-121336328D01*
X135810571Y-121336328D02*
X135596286Y-121336328D01*
X135596286Y-121336328D02*
X135453428Y-121264900D01*
X135453428Y-121264900D02*
X135382000Y-121122042D01*
X135382000Y-121122042D02*
X135382000Y-121050614D01*
X135382000Y-121050614D02*
X135453428Y-120907757D01*
X135453428Y-120907757D02*
X135596286Y-120836328D01*
X135596286Y-120836328D02*
X135810571Y-120836328D01*
X135810571Y-120836328D02*
X135953428Y-120907757D01*
X137239143Y-121764900D02*
X137096286Y-121836328D01*
X137096286Y-121836328D02*
X136810572Y-121836328D01*
X136810572Y-121836328D02*
X136667714Y-121764900D01*
X136667714Y-121764900D02*
X136596286Y-121622042D01*
X136596286Y-121622042D02*
X136596286Y-121050614D01*
X136596286Y-121050614D02*
X136667714Y-120907757D01*
X136667714Y-120907757D02*
X136810572Y-120836328D01*
X136810572Y-120836328D02*
X137096286Y-120836328D01*
X137096286Y-120836328D02*
X137239143Y-120907757D01*
X137239143Y-120907757D02*
X137310572Y-121050614D01*
X137310572Y-121050614D02*
X137310572Y-121193471D01*
X137310572Y-121193471D02*
X136596286Y-121336328D01*
X137739143Y-120836328D02*
X138310571Y-120836328D01*
X137953428Y-120336328D02*
X137953428Y-121622042D01*
X137953428Y-121622042D02*
X138024857Y-121764900D01*
X138024857Y-121764900D02*
X138167714Y-121836328D01*
X138167714Y-121836328D02*
X138310571Y-121836328D01*
D13*
X120184333Y-100358194D02*
X120365762Y-100418670D01*
X120365762Y-100418670D02*
X120668143Y-100418670D01*
X120668143Y-100418670D02*
X120789095Y-100358194D01*
X120789095Y-100358194D02*
X120849571Y-100297717D01*
X120849571Y-100297717D02*
X120910048Y-100176765D01*
X120910048Y-100176765D02*
X120910048Y-100055813D01*
X120910048Y-100055813D02*
X120849571Y-99934860D01*
X120849571Y-99934860D02*
X120789095Y-99874384D01*
X120789095Y-99874384D02*
X120668143Y-99813908D01*
X120668143Y-99813908D02*
X120426238Y-99753432D01*
X120426238Y-99753432D02*
X120305286Y-99692955D01*
X120305286Y-99692955D02*
X120244809Y-99632479D01*
X120244809Y-99632479D02*
X120184333Y-99511527D01*
X120184333Y-99511527D02*
X120184333Y-99390574D01*
X120184333Y-99390574D02*
X120244809Y-99269622D01*
X120244809Y-99269622D02*
X120305286Y-99209146D01*
X120305286Y-99209146D02*
X120426238Y-99148670D01*
X120426238Y-99148670D02*
X120728619Y-99148670D01*
X120728619Y-99148670D02*
X120910048Y-99209146D01*
X121272905Y-99572003D02*
X121756714Y-99572003D01*
X121454333Y-99148670D02*
X121454333Y-100237241D01*
X121454333Y-100237241D02*
X121514810Y-100358194D01*
X121514810Y-100358194D02*
X121635762Y-100418670D01*
X121635762Y-100418670D02*
X121756714Y-100418670D01*
X122724333Y-100418670D02*
X122724333Y-99753432D01*
X122724333Y-99753432D02*
X122663857Y-99632479D01*
X122663857Y-99632479D02*
X122542905Y-99572003D01*
X122542905Y-99572003D02*
X122301000Y-99572003D01*
X122301000Y-99572003D02*
X122180047Y-99632479D01*
X122724333Y-100358194D02*
X122603381Y-100418670D01*
X122603381Y-100418670D02*
X122301000Y-100418670D01*
X122301000Y-100418670D02*
X122180047Y-100358194D01*
X122180047Y-100358194D02*
X122119571Y-100237241D01*
X122119571Y-100237241D02*
X122119571Y-100116289D01*
X122119571Y-100116289D02*
X122180047Y-99995336D01*
X122180047Y-99995336D02*
X122301000Y-99934860D01*
X122301000Y-99934860D02*
X122603381Y-99934860D01*
X122603381Y-99934860D02*
X122724333Y-99874384D01*
X123147667Y-99572003D02*
X123631476Y-99572003D01*
X123329095Y-99148670D02*
X123329095Y-100237241D01*
X123329095Y-100237241D02*
X123389572Y-100358194D01*
X123389572Y-100358194D02*
X123510524Y-100418670D01*
X123510524Y-100418670D02*
X123631476Y-100418670D01*
X124599095Y-99572003D02*
X124599095Y-100418670D01*
X124054809Y-99572003D02*
X124054809Y-100237241D01*
X124054809Y-100237241D02*
X124115286Y-100358194D01*
X124115286Y-100358194D02*
X124236238Y-100418670D01*
X124236238Y-100418670D02*
X124417667Y-100418670D01*
X124417667Y-100418670D02*
X124538619Y-100358194D01*
X124538619Y-100358194D02*
X124599095Y-100297717D01*
X125143381Y-100358194D02*
X125264334Y-100418670D01*
X125264334Y-100418670D02*
X125506238Y-100418670D01*
X125506238Y-100418670D02*
X125627191Y-100358194D01*
X125627191Y-100358194D02*
X125687667Y-100237241D01*
X125687667Y-100237241D02*
X125687667Y-100176765D01*
X125687667Y-100176765D02*
X125627191Y-100055813D01*
X125627191Y-100055813D02*
X125506238Y-99995336D01*
X125506238Y-99995336D02*
X125324810Y-99995336D01*
X125324810Y-99995336D02*
X125203857Y-99934860D01*
X125203857Y-99934860D02*
X125143381Y-99813908D01*
X125143381Y-99813908D02*
X125143381Y-99753432D01*
X125143381Y-99753432D02*
X125203857Y-99632479D01*
X125203857Y-99632479D02*
X125324810Y-99572003D01*
X125324810Y-99572003D02*
X125506238Y-99572003D01*
X125506238Y-99572003D02*
X125627191Y-99632479D01*
D12*
X173835428Y-121050614D02*
X174049714Y-121122042D01*
X174049714Y-121122042D02*
X174121143Y-121193471D01*
X174121143Y-121193471D02*
X174192571Y-121336328D01*
X174192571Y-121336328D02*
X174192571Y-121550614D01*
X174192571Y-121550614D02*
X174121143Y-121693471D01*
X174121143Y-121693471D02*
X174049714Y-121764900D01*
X174049714Y-121764900D02*
X173906857Y-121836328D01*
X173906857Y-121836328D02*
X173335428Y-121836328D01*
X173335428Y-121836328D02*
X173335428Y-120336328D01*
X173335428Y-120336328D02*
X173835428Y-120336328D01*
X173835428Y-120336328D02*
X173978286Y-120407757D01*
X173978286Y-120407757D02*
X174049714Y-120479185D01*
X174049714Y-120479185D02*
X174121143Y-120622042D01*
X174121143Y-120622042D02*
X174121143Y-120764900D01*
X174121143Y-120764900D02*
X174049714Y-120907757D01*
X174049714Y-120907757D02*
X173978286Y-120979185D01*
X173978286Y-120979185D02*
X173835428Y-121050614D01*
X173835428Y-121050614D02*
X173335428Y-121050614D01*
X175049714Y-121836328D02*
X174906857Y-121764900D01*
X174906857Y-121764900D02*
X174835428Y-121693471D01*
X174835428Y-121693471D02*
X174764000Y-121550614D01*
X174764000Y-121550614D02*
X174764000Y-121122042D01*
X174764000Y-121122042D02*
X174835428Y-120979185D01*
X174835428Y-120979185D02*
X174906857Y-120907757D01*
X174906857Y-120907757D02*
X175049714Y-120836328D01*
X175049714Y-120836328D02*
X175264000Y-120836328D01*
X175264000Y-120836328D02*
X175406857Y-120907757D01*
X175406857Y-120907757D02*
X175478286Y-120979185D01*
X175478286Y-120979185D02*
X175549714Y-121122042D01*
X175549714Y-121122042D02*
X175549714Y-121550614D01*
X175549714Y-121550614D02*
X175478286Y-121693471D01*
X175478286Y-121693471D02*
X175406857Y-121764900D01*
X175406857Y-121764900D02*
X175264000Y-121836328D01*
X175264000Y-121836328D02*
X175049714Y-121836328D01*
X176406857Y-121836328D02*
X176264000Y-121764900D01*
X176264000Y-121764900D02*
X176192571Y-121693471D01*
X176192571Y-121693471D02*
X176121143Y-121550614D01*
X176121143Y-121550614D02*
X176121143Y-121122042D01*
X176121143Y-121122042D02*
X176192571Y-120979185D01*
X176192571Y-120979185D02*
X176264000Y-120907757D01*
X176264000Y-120907757D02*
X176406857Y-120836328D01*
X176406857Y-120836328D02*
X176621143Y-120836328D01*
X176621143Y-120836328D02*
X176764000Y-120907757D01*
X176764000Y-120907757D02*
X176835429Y-120979185D01*
X176835429Y-120979185D02*
X176906857Y-121122042D01*
X176906857Y-121122042D02*
X176906857Y-121550614D01*
X176906857Y-121550614D02*
X176835429Y-121693471D01*
X176835429Y-121693471D02*
X176764000Y-121764900D01*
X176764000Y-121764900D02*
X176621143Y-121836328D01*
X176621143Y-121836328D02*
X176406857Y-121836328D01*
X177335429Y-120836328D02*
X177906857Y-120836328D01*
X177549714Y-120336328D02*
X177549714Y-121622042D01*
X177549714Y-121622042D02*
X177621143Y-121764900D01*
X177621143Y-121764900D02*
X177764000Y-121836328D01*
X177764000Y-121836328D02*
X177906857Y-121836328D01*
D14*
X123824999Y-82104645D02*
X123824999Y-80834645D01*
X123824999Y-80834645D02*
X124127380Y-80834645D01*
X124127380Y-80834645D02*
X124308809Y-80895121D01*
X124308809Y-80895121D02*
X124429761Y-81016073D01*
X124429761Y-81016073D02*
X124490238Y-81137026D01*
X124490238Y-81137026D02*
X124550714Y-81378930D01*
X124550714Y-81378930D02*
X124550714Y-81560359D01*
X124550714Y-81560359D02*
X124490238Y-81802264D01*
X124490238Y-81802264D02*
X124429761Y-81923216D01*
X124429761Y-81923216D02*
X124308809Y-82044169D01*
X124308809Y-82044169D02*
X124127380Y-82104645D01*
X124127380Y-82104645D02*
X123824999Y-82104645D01*
X125094999Y-82104645D02*
X125094999Y-81257978D01*
X125094999Y-80834645D02*
X125034523Y-80895121D01*
X125034523Y-80895121D02*
X125094999Y-80955597D01*
X125094999Y-80955597D02*
X125155476Y-80895121D01*
X125155476Y-80895121D02*
X125094999Y-80834645D01*
X125094999Y-80834645D02*
X125094999Y-80955597D01*
X125639285Y-82044169D02*
X125760238Y-82104645D01*
X125760238Y-82104645D02*
X126002142Y-82104645D01*
X126002142Y-82104645D02*
X126123095Y-82044169D01*
X126123095Y-82044169D02*
X126183571Y-81923216D01*
X126183571Y-81923216D02*
X126183571Y-81862740D01*
X126183571Y-81862740D02*
X126123095Y-81741788D01*
X126123095Y-81741788D02*
X126002142Y-81681311D01*
X126002142Y-81681311D02*
X125820714Y-81681311D01*
X125820714Y-81681311D02*
X125699761Y-81620835D01*
X125699761Y-81620835D02*
X125639285Y-81499883D01*
X125639285Y-81499883D02*
X125639285Y-81439407D01*
X125639285Y-81439407D02*
X125699761Y-81318454D01*
X125699761Y-81318454D02*
X125820714Y-81257978D01*
X125820714Y-81257978D02*
X126002142Y-81257978D01*
X126002142Y-81257978D02*
X126123095Y-81318454D01*
X127272142Y-82104645D02*
X127272142Y-81439407D01*
X127272142Y-81439407D02*
X127211666Y-81318454D01*
X127211666Y-81318454D02*
X127090714Y-81257978D01*
X127090714Y-81257978D02*
X126848809Y-81257978D01*
X126848809Y-81257978D02*
X126727856Y-81318454D01*
X127272142Y-82044169D02*
X127151190Y-82104645D01*
X127151190Y-82104645D02*
X126848809Y-82104645D01*
X126848809Y-82104645D02*
X126727856Y-82044169D01*
X126727856Y-82044169D02*
X126667380Y-81923216D01*
X126667380Y-81923216D02*
X126667380Y-81802264D01*
X126667380Y-81802264D02*
X126727856Y-81681311D01*
X126727856Y-81681311D02*
X126848809Y-81620835D01*
X126848809Y-81620835D02*
X127151190Y-81620835D01*
X127151190Y-81620835D02*
X127272142Y-81560359D01*
X127876904Y-82104645D02*
X127876904Y-80834645D01*
X127876904Y-81318454D02*
X127997857Y-81257978D01*
X127997857Y-81257978D02*
X128239762Y-81257978D01*
X128239762Y-81257978D02*
X128360714Y-81318454D01*
X128360714Y-81318454D02*
X128421190Y-81378930D01*
X128421190Y-81378930D02*
X128481666Y-81499883D01*
X128481666Y-81499883D02*
X128481666Y-81862740D01*
X128481666Y-81862740D02*
X128421190Y-81983692D01*
X128421190Y-81983692D02*
X128360714Y-82044169D01*
X128360714Y-82044169D02*
X128239762Y-82104645D01*
X128239762Y-82104645D02*
X127997857Y-82104645D01*
X127997857Y-82104645D02*
X127876904Y-82044169D01*
X129207381Y-82104645D02*
X129086429Y-82044169D01*
X129086429Y-82044169D02*
X129025952Y-81923216D01*
X129025952Y-81923216D02*
X129025952Y-80834645D01*
X130175000Y-82044169D02*
X130054048Y-82104645D01*
X130054048Y-82104645D02*
X129812143Y-82104645D01*
X129812143Y-82104645D02*
X129691190Y-82044169D01*
X129691190Y-82044169D02*
X129630714Y-81923216D01*
X129630714Y-81923216D02*
X129630714Y-81439407D01*
X129630714Y-81439407D02*
X129691190Y-81318454D01*
X129691190Y-81318454D02*
X129812143Y-81257978D01*
X129812143Y-81257978D02*
X130054048Y-81257978D01*
X130054048Y-81257978D02*
X130175000Y-81318454D01*
X130175000Y-81318454D02*
X130235476Y-81439407D01*
X130235476Y-81439407D02*
X130235476Y-81560359D01*
X130235476Y-81560359D02*
X129630714Y-81681311D01*
X125336904Y-84149274D02*
X125336904Y-82879274D01*
X125336904Y-82879274D02*
X125820714Y-82879274D01*
X125820714Y-82879274D02*
X125941666Y-82939750D01*
X125941666Y-82939750D02*
X126002143Y-83000226D01*
X126002143Y-83000226D02*
X126062619Y-83121178D01*
X126062619Y-83121178D02*
X126062619Y-83302607D01*
X126062619Y-83302607D02*
X126002143Y-83423559D01*
X126002143Y-83423559D02*
X125941666Y-83484036D01*
X125941666Y-83484036D02*
X125820714Y-83544512D01*
X125820714Y-83544512D02*
X125336904Y-83544512D01*
X126788333Y-84149274D02*
X126667381Y-84088798D01*
X126667381Y-84088798D02*
X126606904Y-84028321D01*
X126606904Y-84028321D02*
X126546428Y-83907369D01*
X126546428Y-83907369D02*
X126546428Y-83544512D01*
X126546428Y-83544512D02*
X126606904Y-83423559D01*
X126606904Y-83423559D02*
X126667381Y-83363083D01*
X126667381Y-83363083D02*
X126788333Y-83302607D01*
X126788333Y-83302607D02*
X126969762Y-83302607D01*
X126969762Y-83302607D02*
X127090714Y-83363083D01*
X127090714Y-83363083D02*
X127151190Y-83423559D01*
X127151190Y-83423559D02*
X127211666Y-83544512D01*
X127211666Y-83544512D02*
X127211666Y-83907369D01*
X127211666Y-83907369D02*
X127151190Y-84028321D01*
X127151190Y-84028321D02*
X127090714Y-84088798D01*
X127090714Y-84088798D02*
X126969762Y-84149274D01*
X126969762Y-84149274D02*
X126788333Y-84149274D01*
X127755952Y-84149274D02*
X127755952Y-83302607D01*
X127755952Y-83544512D02*
X127816429Y-83423559D01*
X127816429Y-83423559D02*
X127876905Y-83363083D01*
X127876905Y-83363083D02*
X127997857Y-83302607D01*
X127997857Y-83302607D02*
X128118810Y-83302607D01*
X128360714Y-83302607D02*
X128844523Y-83302607D01*
X128542142Y-82879274D02*
X128542142Y-83967845D01*
X128542142Y-83967845D02*
X128602619Y-84088798D01*
X128602619Y-84088798D02*
X128723571Y-84149274D01*
X128723571Y-84149274D02*
X128844523Y-84149274D01*
D12*
X105580328Y-126443998D02*
X105580328Y-127301141D01*
X105580328Y-126872570D02*
X104080328Y-126872570D01*
X104080328Y-126872570D02*
X104294614Y-127015427D01*
X104294614Y-127015427D02*
X104437471Y-127158284D01*
X104437471Y-127158284D02*
X104508900Y-127301141D01*
X104080328Y-125086856D02*
X104080328Y-125801142D01*
X104080328Y-125801142D02*
X104794614Y-125872570D01*
X104794614Y-125872570D02*
X104723185Y-125801142D01*
X104723185Y-125801142D02*
X104651757Y-125658285D01*
X104651757Y-125658285D02*
X104651757Y-125301142D01*
X104651757Y-125301142D02*
X104723185Y-125158285D01*
X104723185Y-125158285D02*
X104794614Y-125086856D01*
X104794614Y-125086856D02*
X104937471Y-125015427D01*
X104937471Y-125015427D02*
X105294614Y-125015427D01*
X105294614Y-125015427D02*
X105437471Y-125086856D01*
X105437471Y-125086856D02*
X105508900Y-125158285D01*
X105508900Y-125158285D02*
X105580328Y-125301142D01*
X105580328Y-125301142D02*
X105580328Y-125658285D01*
X105580328Y-125658285D02*
X105508900Y-125801142D01*
X105508900Y-125801142D02*
X105437471Y-125872570D01*
X104080328Y-124586856D02*
X105580328Y-124086856D01*
X105580328Y-124086856D02*
X104080328Y-123586856D01*
X105580328Y-121944000D02*
X104080328Y-121944000D01*
X104080328Y-121944000D02*
X104080328Y-121586857D01*
X104080328Y-121586857D02*
X104151757Y-121372571D01*
X104151757Y-121372571D02*
X104294614Y-121229714D01*
X104294614Y-121229714D02*
X104437471Y-121158285D01*
X104437471Y-121158285D02*
X104723185Y-121086857D01*
X104723185Y-121086857D02*
X104937471Y-121086857D01*
X104937471Y-121086857D02*
X105223185Y-121158285D01*
X105223185Y-121158285D02*
X105366042Y-121229714D01*
X105366042Y-121229714D02*
X105508900Y-121372571D01*
X105508900Y-121372571D02*
X105580328Y-121586857D01*
X105580328Y-121586857D02*
X105580328Y-121944000D01*
X105437471Y-119586857D02*
X105508900Y-119658285D01*
X105508900Y-119658285D02*
X105580328Y-119872571D01*
X105580328Y-119872571D02*
X105580328Y-120015428D01*
X105580328Y-120015428D02*
X105508900Y-120229714D01*
X105508900Y-120229714D02*
X105366042Y-120372571D01*
X105366042Y-120372571D02*
X105223185Y-120444000D01*
X105223185Y-120444000D02*
X104937471Y-120515428D01*
X104937471Y-120515428D02*
X104723185Y-120515428D01*
X104723185Y-120515428D02*
X104437471Y-120444000D01*
X104437471Y-120444000D02*
X104294614Y-120372571D01*
X104294614Y-120372571D02*
X104151757Y-120229714D01*
X104151757Y-120229714D02*
X104080328Y-120015428D01*
X104080328Y-120015428D02*
X104080328Y-119872571D01*
X104080328Y-119872571D02*
X104151757Y-119658285D01*
X104151757Y-119658285D02*
X104223185Y-119586857D01*
X132917714Y-76370328D02*
X132203428Y-76370328D01*
X132203428Y-76370328D02*
X132203428Y-74870328D01*
X133417714Y-76370328D02*
X133417714Y-75370328D01*
X133417714Y-74870328D02*
X133346286Y-74941757D01*
X133346286Y-74941757D02*
X133417714Y-75013185D01*
X133417714Y-75013185D02*
X133489143Y-74941757D01*
X133489143Y-74941757D02*
X133417714Y-74870328D01*
X133417714Y-74870328D02*
X133417714Y-75013185D01*
X134132000Y-75370328D02*
X134132000Y-76370328D01*
X134132000Y-75513185D02*
X134203429Y-75441757D01*
X134203429Y-75441757D02*
X134346286Y-75370328D01*
X134346286Y-75370328D02*
X134560572Y-75370328D01*
X134560572Y-75370328D02*
X134703429Y-75441757D01*
X134703429Y-75441757D02*
X134774858Y-75584614D01*
X134774858Y-75584614D02*
X134774858Y-76370328D01*
X135489143Y-76370328D02*
X135489143Y-74870328D01*
X135632001Y-75798900D02*
X136060572Y-76370328D01*
X136060572Y-75370328D02*
X135489143Y-75941757D01*
X138632001Y-76370328D02*
X137774858Y-76370328D01*
X138203429Y-76370328D02*
X138203429Y-74870328D01*
X138203429Y-74870328D02*
X138060572Y-75084614D01*
X138060572Y-75084614D02*
X137917715Y-75227471D01*
X137917715Y-75227471D02*
X137774858Y-75298900D01*
X201498614Y-103075715D02*
X201498614Y-102575715D01*
X202284328Y-102361429D02*
X202284328Y-103075715D01*
X202284328Y-103075715D02*
X200784328Y-103075715D01*
X200784328Y-103075715D02*
X200784328Y-102361429D01*
X202284328Y-101861429D02*
X201284328Y-101075715D01*
X201284328Y-101861429D02*
X202284328Y-101075715D01*
X201284328Y-100504286D02*
X202784328Y-100504286D01*
X201355757Y-100504286D02*
X201284328Y-100361429D01*
X201284328Y-100361429D02*
X201284328Y-100075714D01*
X201284328Y-100075714D02*
X201355757Y-99932857D01*
X201355757Y-99932857D02*
X201427185Y-99861429D01*
X201427185Y-99861429D02*
X201570042Y-99790000D01*
X201570042Y-99790000D02*
X201998614Y-99790000D01*
X201998614Y-99790000D02*
X202141471Y-99861429D01*
X202141471Y-99861429D02*
X202212900Y-99932857D01*
X202212900Y-99932857D02*
X202284328Y-100075714D01*
X202284328Y-100075714D02*
X202284328Y-100361429D01*
X202284328Y-100361429D02*
X202212900Y-100504286D01*
X202284328Y-98504286D02*
X201498614Y-98504286D01*
X201498614Y-98504286D02*
X201355757Y-98575714D01*
X201355757Y-98575714D02*
X201284328Y-98718571D01*
X201284328Y-98718571D02*
X201284328Y-99004286D01*
X201284328Y-99004286D02*
X201355757Y-99147143D01*
X202212900Y-98504286D02*
X202284328Y-98647143D01*
X202284328Y-98647143D02*
X202284328Y-99004286D01*
X202284328Y-99004286D02*
X202212900Y-99147143D01*
X202212900Y-99147143D02*
X202070042Y-99218571D01*
X202070042Y-99218571D02*
X201927185Y-99218571D01*
X201927185Y-99218571D02*
X201784328Y-99147143D01*
X201784328Y-99147143D02*
X201712900Y-99004286D01*
X201712900Y-99004286D02*
X201712900Y-98647143D01*
X201712900Y-98647143D02*
X201641471Y-98504286D01*
X201284328Y-97790000D02*
X202284328Y-97790000D01*
X201427185Y-97790000D02*
X201355757Y-97718571D01*
X201355757Y-97718571D02*
X201284328Y-97575714D01*
X201284328Y-97575714D02*
X201284328Y-97361428D01*
X201284328Y-97361428D02*
X201355757Y-97218571D01*
X201355757Y-97218571D02*
X201498614Y-97147143D01*
X201498614Y-97147143D02*
X202284328Y-97147143D01*
X202212900Y-96504285D02*
X202284328Y-96361428D01*
X202284328Y-96361428D02*
X202284328Y-96075714D01*
X202284328Y-96075714D02*
X202212900Y-95932857D01*
X202212900Y-95932857D02*
X202070042Y-95861428D01*
X202070042Y-95861428D02*
X201998614Y-95861428D01*
X201998614Y-95861428D02*
X201855757Y-95932857D01*
X201855757Y-95932857D02*
X201784328Y-96075714D01*
X201784328Y-96075714D02*
X201784328Y-96290000D01*
X201784328Y-96290000D02*
X201712900Y-96432857D01*
X201712900Y-96432857D02*
X201570042Y-96504285D01*
X201570042Y-96504285D02*
X201498614Y-96504285D01*
X201498614Y-96504285D02*
X201355757Y-96432857D01*
X201355757Y-96432857D02*
X201284328Y-96290000D01*
X201284328Y-96290000D02*
X201284328Y-96075714D01*
X201284328Y-96075714D02*
X201355757Y-95932857D01*
X202284328Y-95218571D02*
X201284328Y-95218571D01*
X200784328Y-95218571D02*
X200855757Y-95289999D01*
X200855757Y-95289999D02*
X200927185Y-95218571D01*
X200927185Y-95218571D02*
X200855757Y-95147142D01*
X200855757Y-95147142D02*
X200784328Y-95218571D01*
X200784328Y-95218571D02*
X200927185Y-95218571D01*
X202284328Y-94289999D02*
X202212900Y-94432856D01*
X202212900Y-94432856D02*
X202141471Y-94504285D01*
X202141471Y-94504285D02*
X201998614Y-94575713D01*
X201998614Y-94575713D02*
X201570042Y-94575713D01*
X201570042Y-94575713D02*
X201427185Y-94504285D01*
X201427185Y-94504285D02*
X201355757Y-94432856D01*
X201355757Y-94432856D02*
X201284328Y-94289999D01*
X201284328Y-94289999D02*
X201284328Y-94075713D01*
X201284328Y-94075713D02*
X201355757Y-93932856D01*
X201355757Y-93932856D02*
X201427185Y-93861428D01*
X201427185Y-93861428D02*
X201570042Y-93789999D01*
X201570042Y-93789999D02*
X201998614Y-93789999D01*
X201998614Y-93789999D02*
X202141471Y-93861428D01*
X202141471Y-93861428D02*
X202212900Y-93932856D01*
X202212900Y-93932856D02*
X202284328Y-94075713D01*
X202284328Y-94075713D02*
X202284328Y-94289999D01*
X201284328Y-93147142D02*
X202284328Y-93147142D01*
X201427185Y-93147142D02*
X201355757Y-93075713D01*
X201355757Y-93075713D02*
X201284328Y-92932856D01*
X201284328Y-92932856D02*
X201284328Y-92718570D01*
X201284328Y-92718570D02*
X201355757Y-92575713D01*
X201355757Y-92575713D02*
X201498614Y-92504285D01*
X201498614Y-92504285D02*
X202284328Y-92504285D01*
D13*
X121546547Y-94830670D02*
X121546547Y-93560670D01*
X121546547Y-93560670D02*
X122030357Y-93560670D01*
X122030357Y-93560670D02*
X122151309Y-93621146D01*
X122151309Y-93621146D02*
X122211786Y-93681622D01*
X122211786Y-93681622D02*
X122272262Y-93802574D01*
X122272262Y-93802574D02*
X122272262Y-93984003D01*
X122272262Y-93984003D02*
X122211786Y-94104955D01*
X122211786Y-94104955D02*
X122151309Y-94165432D01*
X122151309Y-94165432D02*
X122030357Y-94225908D01*
X122030357Y-94225908D02*
X121546547Y-94225908D01*
X122695595Y-93984003D02*
X122937500Y-94830670D01*
X122937500Y-94830670D02*
X123179405Y-94225908D01*
X123179405Y-94225908D02*
X123421309Y-94830670D01*
X123421309Y-94830670D02*
X123663214Y-93984003D01*
X124147023Y-94830670D02*
X124147023Y-93984003D01*
X124147023Y-94225908D02*
X124207500Y-94104955D01*
X124207500Y-94104955D02*
X124267976Y-94044479D01*
X124267976Y-94044479D02*
X124388928Y-93984003D01*
X124388928Y-93984003D02*
X124509881Y-93984003D01*
D12*
X111350900Y-90086284D02*
X111422328Y-89871999D01*
X111422328Y-89871999D02*
X111422328Y-89514856D01*
X111422328Y-89514856D02*
X111350900Y-89371999D01*
X111350900Y-89371999D02*
X111279471Y-89300570D01*
X111279471Y-89300570D02*
X111136614Y-89229141D01*
X111136614Y-89229141D02*
X110993757Y-89229141D01*
X110993757Y-89229141D02*
X110850900Y-89300570D01*
X110850900Y-89300570D02*
X110779471Y-89371999D01*
X110779471Y-89371999D02*
X110708042Y-89514856D01*
X110708042Y-89514856D02*
X110636614Y-89800570D01*
X110636614Y-89800570D02*
X110565185Y-89943427D01*
X110565185Y-89943427D02*
X110493757Y-90014856D01*
X110493757Y-90014856D02*
X110350900Y-90086284D01*
X110350900Y-90086284D02*
X110208042Y-90086284D01*
X110208042Y-90086284D02*
X110065185Y-90014856D01*
X110065185Y-90014856D02*
X109993757Y-89943427D01*
X109993757Y-89943427D02*
X109922328Y-89800570D01*
X109922328Y-89800570D02*
X109922328Y-89443427D01*
X109922328Y-89443427D02*
X109993757Y-89229141D01*
X111350900Y-88014856D02*
X111422328Y-88157713D01*
X111422328Y-88157713D02*
X111422328Y-88443428D01*
X111422328Y-88443428D02*
X111350900Y-88586285D01*
X111350900Y-88586285D02*
X111208042Y-88657713D01*
X111208042Y-88657713D02*
X110636614Y-88657713D01*
X110636614Y-88657713D02*
X110493757Y-88586285D01*
X110493757Y-88586285D02*
X110422328Y-88443428D01*
X110422328Y-88443428D02*
X110422328Y-88157713D01*
X110422328Y-88157713D02*
X110493757Y-88014856D01*
X110493757Y-88014856D02*
X110636614Y-87943428D01*
X110636614Y-87943428D02*
X110779471Y-87943428D01*
X110779471Y-87943428D02*
X110922328Y-88657713D01*
X111422328Y-87300571D02*
X110422328Y-87300571D01*
X110708042Y-87300571D02*
X110565185Y-87229142D01*
X110565185Y-87229142D02*
X110493757Y-87157714D01*
X110493757Y-87157714D02*
X110422328Y-87014856D01*
X110422328Y-87014856D02*
X110422328Y-86871999D01*
X111422328Y-86372000D02*
X110422328Y-86372000D01*
X109922328Y-86372000D02*
X109993757Y-86443428D01*
X109993757Y-86443428D02*
X110065185Y-86372000D01*
X110065185Y-86372000D02*
X109993757Y-86300571D01*
X109993757Y-86300571D02*
X109922328Y-86372000D01*
X109922328Y-86372000D02*
X110065185Y-86372000D01*
X111422328Y-85014857D02*
X110636614Y-85014857D01*
X110636614Y-85014857D02*
X110493757Y-85086285D01*
X110493757Y-85086285D02*
X110422328Y-85229142D01*
X110422328Y-85229142D02*
X110422328Y-85514857D01*
X110422328Y-85514857D02*
X110493757Y-85657714D01*
X111350900Y-85014857D02*
X111422328Y-85157714D01*
X111422328Y-85157714D02*
X111422328Y-85514857D01*
X111422328Y-85514857D02*
X111350900Y-85657714D01*
X111350900Y-85657714D02*
X111208042Y-85729142D01*
X111208042Y-85729142D02*
X111065185Y-85729142D01*
X111065185Y-85729142D02*
X110922328Y-85657714D01*
X110922328Y-85657714D02*
X110850900Y-85514857D01*
X110850900Y-85514857D02*
X110850900Y-85157714D01*
X110850900Y-85157714D02*
X110779471Y-85014857D01*
X111422328Y-84086285D02*
X111350900Y-84229142D01*
X111350900Y-84229142D02*
X111208042Y-84300571D01*
X111208042Y-84300571D02*
X109922328Y-84300571D01*
D13*
X121244166Y-104736670D02*
X121546547Y-106006670D01*
X121546547Y-106006670D02*
X121788452Y-105099527D01*
X121788452Y-105099527D02*
X122030357Y-106006670D01*
X122030357Y-106006670D02*
X122332738Y-104736670D01*
X122816547Y-106006670D02*
X122816547Y-105160003D01*
X122816547Y-104736670D02*
X122756071Y-104797146D01*
X122756071Y-104797146D02*
X122816547Y-104857622D01*
X122816547Y-104857622D02*
X122877024Y-104797146D01*
X122877024Y-104797146D02*
X122816547Y-104736670D01*
X122816547Y-104736670D02*
X122816547Y-104857622D01*
X123844643Y-105341432D02*
X123421309Y-105341432D01*
X123421309Y-106006670D02*
X123421309Y-104736670D01*
X123421309Y-104736670D02*
X124026071Y-104736670D01*
X124509880Y-106006670D02*
X124509880Y-105160003D01*
X124509880Y-104736670D02*
X124449404Y-104797146D01*
X124449404Y-104797146D02*
X124509880Y-104857622D01*
X124509880Y-104857622D02*
X124570357Y-104797146D01*
X124570357Y-104797146D02*
X124509880Y-104736670D01*
X124509880Y-104736670D02*
X124509880Y-104857622D01*
D12*
X174065714Y-76370328D02*
X173351428Y-76370328D01*
X173351428Y-76370328D02*
X173351428Y-74870328D01*
X174565714Y-76370328D02*
X174565714Y-75370328D01*
X174565714Y-74870328D02*
X174494286Y-74941757D01*
X174494286Y-74941757D02*
X174565714Y-75013185D01*
X174565714Y-75013185D02*
X174637143Y-74941757D01*
X174637143Y-74941757D02*
X174565714Y-74870328D01*
X174565714Y-74870328D02*
X174565714Y-75013185D01*
X175280000Y-75370328D02*
X175280000Y-76370328D01*
X175280000Y-75513185D02*
X175351429Y-75441757D01*
X175351429Y-75441757D02*
X175494286Y-75370328D01*
X175494286Y-75370328D02*
X175708572Y-75370328D01*
X175708572Y-75370328D02*
X175851429Y-75441757D01*
X175851429Y-75441757D02*
X175922858Y-75584614D01*
X175922858Y-75584614D02*
X175922858Y-76370328D01*
X176637143Y-76370328D02*
X176637143Y-74870328D01*
X176780001Y-75798900D02*
X177208572Y-76370328D01*
X177208572Y-75370328D02*
X176637143Y-75941757D01*
X178851429Y-74870328D02*
X179780001Y-74870328D01*
X179780001Y-74870328D02*
X179280001Y-75441757D01*
X179280001Y-75441757D02*
X179494286Y-75441757D01*
X179494286Y-75441757D02*
X179637144Y-75513185D01*
X179637144Y-75513185D02*
X179708572Y-75584614D01*
X179708572Y-75584614D02*
X179780001Y-75727471D01*
X179780001Y-75727471D02*
X179780001Y-76084614D01*
X179780001Y-76084614D02*
X179708572Y-76227471D01*
X179708572Y-76227471D02*
X179637144Y-76298900D01*
X179637144Y-76298900D02*
X179494286Y-76370328D01*
X179494286Y-76370328D02*
X179065715Y-76370328D01*
X179065715Y-76370328D02*
X178922858Y-76298900D01*
X178922858Y-76298900D02*
X178851429Y-76227471D01*
X108056900Y-114871428D02*
X108056900Y-113728571D01*
X108628328Y-114299999D02*
X107485471Y-114299999D01*
X153745714Y-76370328D02*
X153031428Y-76370328D01*
X153031428Y-76370328D02*
X153031428Y-74870328D01*
X154245714Y-76370328D02*
X154245714Y-75370328D01*
X154245714Y-74870328D02*
X154174286Y-74941757D01*
X154174286Y-74941757D02*
X154245714Y-75013185D01*
X154245714Y-75013185D02*
X154317143Y-74941757D01*
X154317143Y-74941757D02*
X154245714Y-74870328D01*
X154245714Y-74870328D02*
X154245714Y-75013185D01*
X154960000Y-75370328D02*
X154960000Y-76370328D01*
X154960000Y-75513185D02*
X155031429Y-75441757D01*
X155031429Y-75441757D02*
X155174286Y-75370328D01*
X155174286Y-75370328D02*
X155388572Y-75370328D01*
X155388572Y-75370328D02*
X155531429Y-75441757D01*
X155531429Y-75441757D02*
X155602858Y-75584614D01*
X155602858Y-75584614D02*
X155602858Y-76370328D01*
X156317143Y-76370328D02*
X156317143Y-74870328D01*
X156460001Y-75798900D02*
X156888572Y-76370328D01*
X156888572Y-75370328D02*
X156317143Y-75941757D01*
X158602858Y-75013185D02*
X158674286Y-74941757D01*
X158674286Y-74941757D02*
X158817144Y-74870328D01*
X158817144Y-74870328D02*
X159174286Y-74870328D01*
X159174286Y-74870328D02*
X159317144Y-74941757D01*
X159317144Y-74941757D02*
X159388572Y-75013185D01*
X159388572Y-75013185D02*
X159460001Y-75156042D01*
X159460001Y-75156042D02*
X159460001Y-75298900D01*
X159460001Y-75298900D02*
X159388572Y-75513185D01*
X159388572Y-75513185D02*
X158531429Y-76370328D01*
X158531429Y-76370328D02*
X159460001Y-76370328D01*
D15*
X201845333Y-115055979D02*
X201748571Y-115152741D01*
X201748571Y-115152741D02*
X201458285Y-115249502D01*
X201458285Y-115249502D02*
X201264761Y-115249502D01*
X201264761Y-115249502D02*
X200974476Y-115152741D01*
X200974476Y-115152741D02*
X200780952Y-114959217D01*
X200780952Y-114959217D02*
X200684190Y-114765693D01*
X200684190Y-114765693D02*
X200587428Y-114378645D01*
X200587428Y-114378645D02*
X200587428Y-114088360D01*
X200587428Y-114088360D02*
X200684190Y-113701312D01*
X200684190Y-113701312D02*
X200780952Y-113507788D01*
X200780952Y-113507788D02*
X200974476Y-113314264D01*
X200974476Y-113314264D02*
X201264761Y-113217502D01*
X201264761Y-113217502D02*
X201458285Y-113217502D01*
X201458285Y-113217502D02*
X201748571Y-113314264D01*
X201748571Y-113314264D02*
X201845333Y-113411026D01*
X202716190Y-114185121D02*
X203393523Y-114185121D01*
X203683809Y-115249502D02*
X202716190Y-115249502D01*
X202716190Y-115249502D02*
X202716190Y-113217502D01*
X202716190Y-113217502D02*
X203683809Y-113217502D01*
X205715809Y-115249502D02*
X205038476Y-114281883D01*
X204554666Y-115249502D02*
X204554666Y-113217502D01*
X204554666Y-113217502D02*
X205328761Y-113217502D01*
X205328761Y-113217502D02*
X205522285Y-113314264D01*
X205522285Y-113314264D02*
X205619047Y-113411026D01*
X205619047Y-113411026D02*
X205715809Y-113604550D01*
X205715809Y-113604550D02*
X205715809Y-113894836D01*
X205715809Y-113894836D02*
X205619047Y-114088360D01*
X205619047Y-114088360D02*
X205522285Y-114185121D01*
X205522285Y-114185121D02*
X205328761Y-114281883D01*
X205328761Y-114281883D02*
X204554666Y-114281883D01*
X206586666Y-115249502D02*
X206586666Y-113217502D01*
X206586666Y-113217502D02*
X207747809Y-115249502D01*
X207747809Y-115249502D02*
X207747809Y-113217502D01*
X199232762Y-118520908D02*
X199232762Y-116488908D01*
X199232762Y-116488908D02*
X199716572Y-116488908D01*
X199716572Y-116488908D02*
X200006857Y-116585670D01*
X200006857Y-116585670D02*
X200200381Y-116779194D01*
X200200381Y-116779194D02*
X200297143Y-116972718D01*
X200297143Y-116972718D02*
X200393905Y-117359766D01*
X200393905Y-117359766D02*
X200393905Y-117650051D01*
X200393905Y-117650051D02*
X200297143Y-118037099D01*
X200297143Y-118037099D02*
X200200381Y-118230623D01*
X200200381Y-118230623D02*
X200006857Y-118424147D01*
X200006857Y-118424147D02*
X199716572Y-118520908D01*
X199716572Y-118520908D02*
X199232762Y-118520908D01*
X201264762Y-118520908D02*
X201264762Y-117166242D01*
X201264762Y-116488908D02*
X201168000Y-116585670D01*
X201168000Y-116585670D02*
X201264762Y-116682432D01*
X201264762Y-116682432D02*
X201361524Y-116585670D01*
X201361524Y-116585670D02*
X201264762Y-116488908D01*
X201264762Y-116488908D02*
X201264762Y-116682432D01*
X202135619Y-118424147D02*
X202329143Y-118520908D01*
X202329143Y-118520908D02*
X202716191Y-118520908D01*
X202716191Y-118520908D02*
X202909714Y-118424147D01*
X202909714Y-118424147D02*
X203006476Y-118230623D01*
X203006476Y-118230623D02*
X203006476Y-118133861D01*
X203006476Y-118133861D02*
X202909714Y-117940337D01*
X202909714Y-117940337D02*
X202716191Y-117843575D01*
X202716191Y-117843575D02*
X202425905Y-117843575D01*
X202425905Y-117843575D02*
X202232381Y-117746813D01*
X202232381Y-117746813D02*
X202135619Y-117553289D01*
X202135619Y-117553289D02*
X202135619Y-117456527D01*
X202135619Y-117456527D02*
X202232381Y-117263004D01*
X202232381Y-117263004D02*
X202425905Y-117166242D01*
X202425905Y-117166242D02*
X202716191Y-117166242D01*
X202716191Y-117166242D02*
X202909714Y-117263004D01*
X203877333Y-117166242D02*
X203877333Y-119198242D01*
X203877333Y-117263004D02*
X204070857Y-117166242D01*
X204070857Y-117166242D02*
X204457904Y-117166242D01*
X204457904Y-117166242D02*
X204651428Y-117263004D01*
X204651428Y-117263004D02*
X204748190Y-117359766D01*
X204748190Y-117359766D02*
X204844952Y-117553289D01*
X204844952Y-117553289D02*
X204844952Y-118133861D01*
X204844952Y-118133861D02*
X204748190Y-118327385D01*
X204748190Y-118327385D02*
X204651428Y-118424147D01*
X204651428Y-118424147D02*
X204457904Y-118520908D01*
X204457904Y-118520908D02*
X204070857Y-118520908D01*
X204070857Y-118520908D02*
X203877333Y-118424147D01*
X206006095Y-118520908D02*
X205812571Y-118424147D01*
X205812571Y-118424147D02*
X205715809Y-118230623D01*
X205715809Y-118230623D02*
X205715809Y-116488908D01*
X207651047Y-118520908D02*
X207651047Y-117456527D01*
X207651047Y-117456527D02*
X207554285Y-117263004D01*
X207554285Y-117263004D02*
X207360761Y-117166242D01*
X207360761Y-117166242D02*
X206973714Y-117166242D01*
X206973714Y-117166242D02*
X206780190Y-117263004D01*
X207651047Y-118424147D02*
X207457523Y-118520908D01*
X207457523Y-118520908D02*
X206973714Y-118520908D01*
X206973714Y-118520908D02*
X206780190Y-118424147D01*
X206780190Y-118424147D02*
X206683428Y-118230623D01*
X206683428Y-118230623D02*
X206683428Y-118037099D01*
X206683428Y-118037099D02*
X206780190Y-117843575D01*
X206780190Y-117843575D02*
X206973714Y-117746813D01*
X206973714Y-117746813D02*
X207457523Y-117746813D01*
X207457523Y-117746813D02*
X207651047Y-117650051D01*
X208425142Y-117166242D02*
X208908952Y-118520908D01*
X209392761Y-117166242D02*
X208908952Y-118520908D01*
X208908952Y-118520908D02*
X208715428Y-119004718D01*
X208715428Y-119004718D02*
X208618666Y-119101480D01*
X208618666Y-119101480D02*
X208425142Y-119198242D01*
X198313524Y-121598791D02*
X198216762Y-121695553D01*
X198216762Y-121695553D02*
X197926476Y-121792314D01*
X197926476Y-121792314D02*
X197732952Y-121792314D01*
X197732952Y-121792314D02*
X197442667Y-121695553D01*
X197442667Y-121695553D02*
X197249143Y-121502029D01*
X197249143Y-121502029D02*
X197152381Y-121308505D01*
X197152381Y-121308505D02*
X197055619Y-120921457D01*
X197055619Y-120921457D02*
X197055619Y-120631172D01*
X197055619Y-120631172D02*
X197152381Y-120244124D01*
X197152381Y-120244124D02*
X197249143Y-120050600D01*
X197249143Y-120050600D02*
X197442667Y-119857076D01*
X197442667Y-119857076D02*
X197732952Y-119760314D01*
X197732952Y-119760314D02*
X197926476Y-119760314D01*
X197926476Y-119760314D02*
X198216762Y-119857076D01*
X198216762Y-119857076D02*
X198313524Y-119953838D01*
X199474667Y-121792314D02*
X199281143Y-121695553D01*
X199281143Y-121695553D02*
X199184381Y-121598791D01*
X199184381Y-121598791D02*
X199087619Y-121405267D01*
X199087619Y-121405267D02*
X199087619Y-120824695D01*
X199087619Y-120824695D02*
X199184381Y-120631172D01*
X199184381Y-120631172D02*
X199281143Y-120534410D01*
X199281143Y-120534410D02*
X199474667Y-120437648D01*
X199474667Y-120437648D02*
X199764952Y-120437648D01*
X199764952Y-120437648D02*
X199958476Y-120534410D01*
X199958476Y-120534410D02*
X200055238Y-120631172D01*
X200055238Y-120631172D02*
X200152000Y-120824695D01*
X200152000Y-120824695D02*
X200152000Y-121405267D01*
X200152000Y-121405267D02*
X200055238Y-121598791D01*
X200055238Y-121598791D02*
X199958476Y-121695553D01*
X199958476Y-121695553D02*
X199764952Y-121792314D01*
X199764952Y-121792314D02*
X199474667Y-121792314D01*
X201022857Y-120437648D02*
X201022857Y-121792314D01*
X201022857Y-120631172D02*
X201119619Y-120534410D01*
X201119619Y-120534410D02*
X201313143Y-120437648D01*
X201313143Y-120437648D02*
X201603428Y-120437648D01*
X201603428Y-120437648D02*
X201796952Y-120534410D01*
X201796952Y-120534410D02*
X201893714Y-120727933D01*
X201893714Y-120727933D02*
X201893714Y-121792314D01*
X202571047Y-120437648D02*
X203345143Y-120437648D01*
X202861333Y-119760314D02*
X202861333Y-121502029D01*
X202861333Y-121502029D02*
X202958095Y-121695553D01*
X202958095Y-121695553D02*
X203151619Y-121792314D01*
X203151619Y-121792314D02*
X203345143Y-121792314D01*
X204022476Y-121792314D02*
X204022476Y-120437648D01*
X204022476Y-120824695D02*
X204119238Y-120631172D01*
X204119238Y-120631172D02*
X204216000Y-120534410D01*
X204216000Y-120534410D02*
X204409524Y-120437648D01*
X204409524Y-120437648D02*
X204603047Y-120437648D01*
X205570667Y-121792314D02*
X205377143Y-121695553D01*
X205377143Y-121695553D02*
X205280381Y-121598791D01*
X205280381Y-121598791D02*
X205183619Y-121405267D01*
X205183619Y-121405267D02*
X205183619Y-120824695D01*
X205183619Y-120824695D02*
X205280381Y-120631172D01*
X205280381Y-120631172D02*
X205377143Y-120534410D01*
X205377143Y-120534410D02*
X205570667Y-120437648D01*
X205570667Y-120437648D02*
X205860952Y-120437648D01*
X205860952Y-120437648D02*
X206054476Y-120534410D01*
X206054476Y-120534410D02*
X206151238Y-120631172D01*
X206151238Y-120631172D02*
X206248000Y-120824695D01*
X206248000Y-120824695D02*
X206248000Y-121405267D01*
X206248000Y-121405267D02*
X206151238Y-121598791D01*
X206151238Y-121598791D02*
X206054476Y-121695553D01*
X206054476Y-121695553D02*
X205860952Y-121792314D01*
X205860952Y-121792314D02*
X205570667Y-121792314D01*
X207409143Y-121792314D02*
X207215619Y-121695553D01*
X207215619Y-121695553D02*
X207118857Y-121502029D01*
X207118857Y-121502029D02*
X207118857Y-119760314D01*
X208473524Y-121792314D02*
X208280000Y-121695553D01*
X208280000Y-121695553D02*
X208183238Y-121502029D01*
X208183238Y-121502029D02*
X208183238Y-119760314D01*
X210021714Y-121695553D02*
X209828190Y-121792314D01*
X209828190Y-121792314D02*
X209441143Y-121792314D01*
X209441143Y-121792314D02*
X209247619Y-121695553D01*
X209247619Y-121695553D02*
X209150857Y-121502029D01*
X209150857Y-121502029D02*
X209150857Y-120727933D01*
X209150857Y-120727933D02*
X209247619Y-120534410D01*
X209247619Y-120534410D02*
X209441143Y-120437648D01*
X209441143Y-120437648D02*
X209828190Y-120437648D01*
X209828190Y-120437648D02*
X210021714Y-120534410D01*
X210021714Y-120534410D02*
X210118476Y-120727933D01*
X210118476Y-120727933D02*
X210118476Y-120921457D01*
X210118476Y-120921457D02*
X209150857Y-121114981D01*
X210989333Y-121792314D02*
X210989333Y-120437648D01*
X210989333Y-120824695D02*
X211086095Y-120631172D01*
X211086095Y-120631172D02*
X211182857Y-120534410D01*
X211182857Y-120534410D02*
X211376381Y-120437648D01*
X211376381Y-120437648D02*
X211569904Y-120437648D01*
D16*
X98911580Y-84002476D02*
X98959200Y-84050095D01*
X98959200Y-84050095D02*
X99006819Y-84192952D01*
X99006819Y-84192952D02*
X99006819Y-84288190D01*
X99006819Y-84288190D02*
X98959200Y-84431047D01*
X98959200Y-84431047D02*
X98863961Y-84526285D01*
X98863961Y-84526285D02*
X98768723Y-84573904D01*
X98768723Y-84573904D02*
X98578247Y-84621523D01*
X98578247Y-84621523D02*
X98435390Y-84621523D01*
X98435390Y-84621523D02*
X98244914Y-84573904D01*
X98244914Y-84573904D02*
X98149676Y-84526285D01*
X98149676Y-84526285D02*
X98054438Y-84431047D01*
X98054438Y-84431047D02*
X98006819Y-84288190D01*
X98006819Y-84288190D02*
X98006819Y-84192952D01*
X98006819Y-84192952D02*
X98054438Y-84050095D01*
X98054438Y-84050095D02*
X98102057Y-84002476D01*
X99006819Y-83573904D02*
X98006819Y-83573904D01*
X98006819Y-83573904D02*
X99006819Y-83002476D01*
X99006819Y-83002476D02*
X98006819Y-83002476D01*
X98006819Y-82097714D02*
X98006819Y-82288190D01*
X98006819Y-82288190D02*
X98054438Y-82383428D01*
X98054438Y-82383428D02*
X98102057Y-82431047D01*
X98102057Y-82431047D02*
X98244914Y-82526285D01*
X98244914Y-82526285D02*
X98435390Y-82573904D01*
X98435390Y-82573904D02*
X98816342Y-82573904D01*
X98816342Y-82573904D02*
X98911580Y-82526285D01*
X98911580Y-82526285D02*
X98959200Y-82478666D01*
X98959200Y-82478666D02*
X99006819Y-82383428D01*
X99006819Y-82383428D02*
X99006819Y-82192952D01*
X99006819Y-82192952D02*
X98959200Y-82097714D01*
X98959200Y-82097714D02*
X98911580Y-82050095D01*
X98911580Y-82050095D02*
X98816342Y-82002476D01*
X98816342Y-82002476D02*
X98578247Y-82002476D01*
X98578247Y-82002476D02*
X98483009Y-82050095D01*
X98483009Y-82050095D02*
X98435390Y-82097714D01*
X98435390Y-82097714D02*
X98387771Y-82192952D01*
X98387771Y-82192952D02*
X98387771Y-82383428D01*
X98387771Y-82383428D02*
X98435390Y-82478666D01*
X98435390Y-82478666D02*
X98483009Y-82526285D01*
X98483009Y-82526285D02*
X98578247Y-82573904D01*
D17*
X104343442Y-104802396D02*
X104486299Y-104850015D01*
X104486299Y-104850015D02*
X104724394Y-104850015D01*
X104724394Y-104850015D02*
X104819632Y-104802396D01*
X104819632Y-104802396D02*
X104867251Y-104754776D01*
X104867251Y-104754776D02*
X104914870Y-104659538D01*
X104914870Y-104659538D02*
X104914870Y-104564300D01*
X104914870Y-104564300D02*
X104867251Y-104469062D01*
X104867251Y-104469062D02*
X104819632Y-104421443D01*
X104819632Y-104421443D02*
X104724394Y-104373824D01*
X104724394Y-104373824D02*
X104533918Y-104326205D01*
X104533918Y-104326205D02*
X104438680Y-104278586D01*
X104438680Y-104278586D02*
X104391061Y-104230967D01*
X104391061Y-104230967D02*
X104343442Y-104135729D01*
X104343442Y-104135729D02*
X104343442Y-104040491D01*
X104343442Y-104040491D02*
X104391061Y-103945253D01*
X104391061Y-103945253D02*
X104438680Y-103897634D01*
X104438680Y-103897634D02*
X104533918Y-103850015D01*
X104533918Y-103850015D02*
X104772013Y-103850015D01*
X104772013Y-103850015D02*
X104914870Y-103897634D01*
X105248204Y-103850015D02*
X105486299Y-104850015D01*
X105486299Y-104850015D02*
X105676775Y-104135729D01*
X105676775Y-104135729D02*
X105867251Y-104850015D01*
X105867251Y-104850015D02*
X106105347Y-103850015D01*
X107010108Y-104850015D02*
X106438680Y-104850015D01*
X106724394Y-104850015D02*
X106724394Y-103850015D01*
X106724394Y-103850015D02*
X106629156Y-103992872D01*
X106629156Y-103992872D02*
X106533918Y-104088110D01*
X106533918Y-104088110D02*
X106438680Y-104135729D01*
D16*
X175459523Y-56984580D02*
X175411904Y-57032200D01*
X175411904Y-57032200D02*
X175269047Y-57079819D01*
X175269047Y-57079819D02*
X175173809Y-57079819D01*
X175173809Y-57079819D02*
X175030952Y-57032200D01*
X175030952Y-57032200D02*
X174935714Y-56936961D01*
X174935714Y-56936961D02*
X174888095Y-56841723D01*
X174888095Y-56841723D02*
X174840476Y-56651247D01*
X174840476Y-56651247D02*
X174840476Y-56508390D01*
X174840476Y-56508390D02*
X174888095Y-56317914D01*
X174888095Y-56317914D02*
X174935714Y-56222676D01*
X174935714Y-56222676D02*
X175030952Y-56127438D01*
X175030952Y-56127438D02*
X175173809Y-56079819D01*
X175173809Y-56079819D02*
X175269047Y-56079819D01*
X175269047Y-56079819D02*
X175411904Y-56127438D01*
X175411904Y-56127438D02*
X175459523Y-56175057D01*
X175888095Y-57079819D02*
X175888095Y-56079819D01*
X175888095Y-56079819D02*
X176459523Y-57079819D01*
X176459523Y-57079819D02*
X176459523Y-56079819D01*
X177364285Y-56413152D02*
X177364285Y-57079819D01*
X177126190Y-56032200D02*
X176888095Y-56746485D01*
X176888095Y-56746485D02*
X177507142Y-56746485D01*
D17*
X186766667Y-125308396D02*
X186909524Y-125356015D01*
X186909524Y-125356015D02*
X187147619Y-125356015D01*
X187147619Y-125356015D02*
X187242857Y-125308396D01*
X187242857Y-125308396D02*
X187290476Y-125260776D01*
X187290476Y-125260776D02*
X187338095Y-125165538D01*
X187338095Y-125165538D02*
X187338095Y-125070300D01*
X187338095Y-125070300D02*
X187290476Y-124975062D01*
X187290476Y-124975062D02*
X187242857Y-124927443D01*
X187242857Y-124927443D02*
X187147619Y-124879824D01*
X187147619Y-124879824D02*
X186957143Y-124832205D01*
X186957143Y-124832205D02*
X186861905Y-124784586D01*
X186861905Y-124784586D02*
X186814286Y-124736967D01*
X186814286Y-124736967D02*
X186766667Y-124641729D01*
X186766667Y-124641729D02*
X186766667Y-124546491D01*
X186766667Y-124546491D02*
X186814286Y-124451253D01*
X186814286Y-124451253D02*
X186861905Y-124403634D01*
X186861905Y-124403634D02*
X186957143Y-124356015D01*
X186957143Y-124356015D02*
X187195238Y-124356015D01*
X187195238Y-124356015D02*
X187338095Y-124403634D01*
X187671429Y-124356015D02*
X187909524Y-125356015D01*
X187909524Y-125356015D02*
X188100000Y-124641729D01*
X188100000Y-124641729D02*
X188290476Y-125356015D01*
X188290476Y-125356015D02*
X188528572Y-124356015D01*
X189338095Y-124689348D02*
X189338095Y-125356015D01*
X189100000Y-124308396D02*
X188861905Y-125022681D01*
X188861905Y-125022681D02*
X189480952Y-125022681D01*
D16*
X195959523Y-56899580D02*
X195911904Y-56947200D01*
X195911904Y-56947200D02*
X195769047Y-56994819D01*
X195769047Y-56994819D02*
X195673809Y-56994819D01*
X195673809Y-56994819D02*
X195530952Y-56947200D01*
X195530952Y-56947200D02*
X195435714Y-56851961D01*
X195435714Y-56851961D02*
X195388095Y-56756723D01*
X195388095Y-56756723D02*
X195340476Y-56566247D01*
X195340476Y-56566247D02*
X195340476Y-56423390D01*
X195340476Y-56423390D02*
X195388095Y-56232914D01*
X195388095Y-56232914D02*
X195435714Y-56137676D01*
X195435714Y-56137676D02*
X195530952Y-56042438D01*
X195530952Y-56042438D02*
X195673809Y-55994819D01*
X195673809Y-55994819D02*
X195769047Y-55994819D01*
X195769047Y-55994819D02*
X195911904Y-56042438D01*
X195911904Y-56042438D02*
X195959523Y-56090057D01*
X196388095Y-56994819D02*
X196388095Y-55994819D01*
X196388095Y-55994819D02*
X196959523Y-56994819D01*
X196959523Y-56994819D02*
X196959523Y-55994819D01*
X197911904Y-55994819D02*
X197435714Y-55994819D01*
X197435714Y-55994819D02*
X197388095Y-56471009D01*
X197388095Y-56471009D02*
X197435714Y-56423390D01*
X197435714Y-56423390D02*
X197530952Y-56375771D01*
X197530952Y-56375771D02*
X197769047Y-56375771D01*
X197769047Y-56375771D02*
X197864285Y-56423390D01*
X197864285Y-56423390D02*
X197911904Y-56471009D01*
X197911904Y-56471009D02*
X197959523Y-56566247D01*
X197959523Y-56566247D02*
X197959523Y-56804342D01*
X197959523Y-56804342D02*
X197911904Y-56899580D01*
X197911904Y-56899580D02*
X197864285Y-56947200D01*
X197864285Y-56947200D02*
X197769047Y-56994819D01*
X197769047Y-56994819D02*
X197530952Y-56994819D01*
X197530952Y-56994819D02*
X197435714Y-56947200D01*
X197435714Y-56947200D02*
X197388095Y-56899580D01*
X154959523Y-56984580D02*
X154911904Y-57032200D01*
X154911904Y-57032200D02*
X154769047Y-57079819D01*
X154769047Y-57079819D02*
X154673809Y-57079819D01*
X154673809Y-57079819D02*
X154530952Y-57032200D01*
X154530952Y-57032200D02*
X154435714Y-56936961D01*
X154435714Y-56936961D02*
X154388095Y-56841723D01*
X154388095Y-56841723D02*
X154340476Y-56651247D01*
X154340476Y-56651247D02*
X154340476Y-56508390D01*
X154340476Y-56508390D02*
X154388095Y-56317914D01*
X154388095Y-56317914D02*
X154435714Y-56222676D01*
X154435714Y-56222676D02*
X154530952Y-56127438D01*
X154530952Y-56127438D02*
X154673809Y-56079819D01*
X154673809Y-56079819D02*
X154769047Y-56079819D01*
X154769047Y-56079819D02*
X154911904Y-56127438D01*
X154911904Y-56127438D02*
X154959523Y-56175057D01*
X155388095Y-57079819D02*
X155388095Y-56079819D01*
X155388095Y-56079819D02*
X155959523Y-57079819D01*
X155959523Y-57079819D02*
X155959523Y-56079819D01*
X156340476Y-56079819D02*
X156959523Y-56079819D01*
X156959523Y-56079819D02*
X156626190Y-56460771D01*
X156626190Y-56460771D02*
X156769047Y-56460771D01*
X156769047Y-56460771D02*
X156864285Y-56508390D01*
X156864285Y-56508390D02*
X156911904Y-56556009D01*
X156911904Y-56556009D02*
X156959523Y-56651247D01*
X156959523Y-56651247D02*
X156959523Y-56889342D01*
X156959523Y-56889342D02*
X156911904Y-56984580D01*
X156911904Y-56984580D02*
X156864285Y-57032200D01*
X156864285Y-57032200D02*
X156769047Y-57079819D01*
X156769047Y-57079819D02*
X156483333Y-57079819D01*
X156483333Y-57079819D02*
X156388095Y-57032200D01*
X156388095Y-57032200D02*
X156340476Y-56984580D01*
X135789200Y-127063332D02*
X135836819Y-126920475D01*
X135836819Y-126920475D02*
X135836819Y-126682380D01*
X135836819Y-126682380D02*
X135789200Y-126587142D01*
X135789200Y-126587142D02*
X135741580Y-126539523D01*
X135741580Y-126539523D02*
X135646342Y-126491904D01*
X135646342Y-126491904D02*
X135551104Y-126491904D01*
X135551104Y-126491904D02*
X135455866Y-126539523D01*
X135455866Y-126539523D02*
X135408247Y-126587142D01*
X135408247Y-126587142D02*
X135360628Y-126682380D01*
X135360628Y-126682380D02*
X135313009Y-126872856D01*
X135313009Y-126872856D02*
X135265390Y-126968094D01*
X135265390Y-126968094D02*
X135217771Y-127015713D01*
X135217771Y-127015713D02*
X135122533Y-127063332D01*
X135122533Y-127063332D02*
X135027295Y-127063332D01*
X135027295Y-127063332D02*
X134932057Y-127015713D01*
X134932057Y-127015713D02*
X134884438Y-126968094D01*
X134884438Y-126968094D02*
X134836819Y-126872856D01*
X134836819Y-126872856D02*
X134836819Y-126634761D01*
X134836819Y-126634761D02*
X134884438Y-126491904D01*
X134836819Y-126158570D02*
X135836819Y-125920475D01*
X135836819Y-125920475D02*
X135122533Y-125729999D01*
X135122533Y-125729999D02*
X135836819Y-125539523D01*
X135836819Y-125539523D02*
X134836819Y-125301428D01*
X134932057Y-124968094D02*
X134884438Y-124920475D01*
X134884438Y-124920475D02*
X134836819Y-124825237D01*
X134836819Y-124825237D02*
X134836819Y-124587142D01*
X134836819Y-124587142D02*
X134884438Y-124491904D01*
X134884438Y-124491904D02*
X134932057Y-124444285D01*
X134932057Y-124444285D02*
X135027295Y-124396666D01*
X135027295Y-124396666D02*
X135122533Y-124396666D01*
X135122533Y-124396666D02*
X135265390Y-124444285D01*
X135265390Y-124444285D02*
X135836819Y-125015713D01*
X135836819Y-125015713D02*
X135836819Y-124396666D01*
X162115714Y-84647621D02*
X162115714Y-83647621D01*
X162115714Y-83647621D02*
X162353809Y-83647621D01*
X162353809Y-83647621D02*
X162496666Y-83695240D01*
X162496666Y-83695240D02*
X162591904Y-83790478D01*
X162591904Y-83790478D02*
X162639523Y-83885716D01*
X162639523Y-83885716D02*
X162687142Y-84076192D01*
X162687142Y-84076192D02*
X162687142Y-84219049D01*
X162687142Y-84219049D02*
X162639523Y-84409525D01*
X162639523Y-84409525D02*
X162591904Y-84504763D01*
X162591904Y-84504763D02*
X162496666Y-84600002D01*
X162496666Y-84600002D02*
X162353809Y-84647621D01*
X162353809Y-84647621D02*
X162115714Y-84647621D01*
X163068095Y-84600002D02*
X163210952Y-84647621D01*
X163210952Y-84647621D02*
X163449047Y-84647621D01*
X163449047Y-84647621D02*
X163544285Y-84600002D01*
X163544285Y-84600002D02*
X163591904Y-84552382D01*
X163591904Y-84552382D02*
X163639523Y-84457144D01*
X163639523Y-84457144D02*
X163639523Y-84361906D01*
X163639523Y-84361906D02*
X163591904Y-84266668D01*
X163591904Y-84266668D02*
X163544285Y-84219049D01*
X163544285Y-84219049D02*
X163449047Y-84171430D01*
X163449047Y-84171430D02*
X163258571Y-84123811D01*
X163258571Y-84123811D02*
X163163333Y-84076192D01*
X163163333Y-84076192D02*
X163115714Y-84028573D01*
X163115714Y-84028573D02*
X163068095Y-83933335D01*
X163068095Y-83933335D02*
X163068095Y-83838097D01*
X163068095Y-83838097D02*
X163115714Y-83742859D01*
X163115714Y-83742859D02*
X163163333Y-83695240D01*
X163163333Y-83695240D02*
X163258571Y-83647621D01*
X163258571Y-83647621D02*
X163496666Y-83647621D01*
X163496666Y-83647621D02*
X163639523Y-83695240D01*
X164068095Y-84647621D02*
X164068095Y-83647621D01*
X164068095Y-83647621D02*
X164449047Y-83647621D01*
X164449047Y-83647621D02*
X164544285Y-83695240D01*
X164544285Y-83695240D02*
X164591904Y-83742859D01*
X164591904Y-83742859D02*
X164639523Y-83838097D01*
X164639523Y-83838097D02*
X164639523Y-83980954D01*
X164639523Y-83980954D02*
X164591904Y-84076192D01*
X164591904Y-84076192D02*
X164544285Y-84123811D01*
X164544285Y-84123811D02*
X164449047Y-84171430D01*
X164449047Y-84171430D02*
X164068095Y-84171430D01*
X165591904Y-84647621D02*
X165020476Y-84647621D01*
X165306190Y-84647621D02*
X165306190Y-83647621D01*
X165306190Y-83647621D02*
X165210952Y-83790478D01*
X165210952Y-83790478D02*
X165115714Y-83885716D01*
X165115714Y-83885716D02*
X165020476Y-83933335D01*
X122592095Y-124048319D02*
X122592095Y-124857842D01*
X122592095Y-124857842D02*
X122639714Y-124953080D01*
X122639714Y-124953080D02*
X122687333Y-125000700D01*
X122687333Y-125000700D02*
X122782571Y-125048319D01*
X122782571Y-125048319D02*
X122973047Y-125048319D01*
X122973047Y-125048319D02*
X123068285Y-125000700D01*
X123068285Y-125000700D02*
X123115904Y-124953080D01*
X123115904Y-124953080D02*
X123163523Y-124857842D01*
X123163523Y-124857842D02*
X123163523Y-124048319D01*
X124163523Y-125048319D02*
X123592095Y-125048319D01*
X123877809Y-125048319D02*
X123877809Y-124048319D01*
X123877809Y-124048319D02*
X123782571Y-124191176D01*
X123782571Y-124191176D02*
X123687333Y-124286414D01*
X123687333Y-124286414D02*
X123592095Y-124334033D01*
X165730819Y-77333333D02*
X166445104Y-77333333D01*
X166445104Y-77333333D02*
X166587961Y-77380952D01*
X166587961Y-77380952D02*
X166683200Y-77476190D01*
X166683200Y-77476190D02*
X166730819Y-77619047D01*
X166730819Y-77619047D02*
X166730819Y-77714285D01*
X166730819Y-76857142D02*
X165730819Y-76857142D01*
X165730819Y-76857142D02*
X165730819Y-76476190D01*
X165730819Y-76476190D02*
X165778438Y-76380952D01*
X165778438Y-76380952D02*
X165826057Y-76333333D01*
X165826057Y-76333333D02*
X165921295Y-76285714D01*
X165921295Y-76285714D02*
X166064152Y-76285714D01*
X166064152Y-76285714D02*
X166159390Y-76333333D01*
X166159390Y-76333333D02*
X166207009Y-76380952D01*
X166207009Y-76380952D02*
X166254628Y-76476190D01*
X166254628Y-76476190D02*
X166254628Y-76857142D01*
X165730819Y-75952380D02*
X165730819Y-75333333D01*
X165730819Y-75333333D02*
X166111771Y-75666666D01*
X166111771Y-75666666D02*
X166111771Y-75523809D01*
X166111771Y-75523809D02*
X166159390Y-75428571D01*
X166159390Y-75428571D02*
X166207009Y-75380952D01*
X166207009Y-75380952D02*
X166302247Y-75333333D01*
X166302247Y-75333333D02*
X166540342Y-75333333D01*
X166540342Y-75333333D02*
X166635580Y-75380952D01*
X166635580Y-75380952D02*
X166683200Y-75428571D01*
X166683200Y-75428571D02*
X166730819Y-75523809D01*
X166730819Y-75523809D02*
X166730819Y-75809523D01*
X166730819Y-75809523D02*
X166683200Y-75904761D01*
X166683200Y-75904761D02*
X166635580Y-75952380D01*
X186304819Y-77333333D02*
X187019104Y-77333333D01*
X187019104Y-77333333D02*
X187161961Y-77380952D01*
X187161961Y-77380952D02*
X187257200Y-77476190D01*
X187257200Y-77476190D02*
X187304819Y-77619047D01*
X187304819Y-77619047D02*
X187304819Y-77714285D01*
X187304819Y-76857142D02*
X186304819Y-76857142D01*
X186304819Y-76857142D02*
X186304819Y-76476190D01*
X186304819Y-76476190D02*
X186352438Y-76380952D01*
X186352438Y-76380952D02*
X186400057Y-76333333D01*
X186400057Y-76333333D02*
X186495295Y-76285714D01*
X186495295Y-76285714D02*
X186638152Y-76285714D01*
X186638152Y-76285714D02*
X186733390Y-76333333D01*
X186733390Y-76333333D02*
X186781009Y-76380952D01*
X186781009Y-76380952D02*
X186828628Y-76476190D01*
X186828628Y-76476190D02*
X186828628Y-76857142D01*
X186638152Y-75428571D02*
X187304819Y-75428571D01*
X186257200Y-75666666D02*
X186971485Y-75904761D01*
X186971485Y-75904761D02*
X186971485Y-75285714D01*
X169363580Y-125912476D02*
X169411200Y-125960095D01*
X169411200Y-125960095D02*
X169458819Y-126102952D01*
X169458819Y-126102952D02*
X169458819Y-126198190D01*
X169458819Y-126198190D02*
X169411200Y-126341047D01*
X169411200Y-126341047D02*
X169315961Y-126436285D01*
X169315961Y-126436285D02*
X169220723Y-126483904D01*
X169220723Y-126483904D02*
X169030247Y-126531523D01*
X169030247Y-126531523D02*
X168887390Y-126531523D01*
X168887390Y-126531523D02*
X168696914Y-126483904D01*
X168696914Y-126483904D02*
X168601676Y-126436285D01*
X168601676Y-126436285D02*
X168506438Y-126341047D01*
X168506438Y-126341047D02*
X168458819Y-126198190D01*
X168458819Y-126198190D02*
X168458819Y-126102952D01*
X168458819Y-126102952D02*
X168506438Y-125960095D01*
X168506438Y-125960095D02*
X168554057Y-125912476D01*
X169458819Y-125483904D02*
X168458819Y-125483904D01*
X168458819Y-125483904D02*
X169458819Y-124912476D01*
X169458819Y-124912476D02*
X168458819Y-124912476D01*
X168887390Y-124293428D02*
X168839771Y-124388666D01*
X168839771Y-124388666D02*
X168792152Y-124436285D01*
X168792152Y-124436285D02*
X168696914Y-124483904D01*
X168696914Y-124483904D02*
X168649295Y-124483904D01*
X168649295Y-124483904D02*
X168554057Y-124436285D01*
X168554057Y-124436285D02*
X168506438Y-124388666D01*
X168506438Y-124388666D02*
X168458819Y-124293428D01*
X168458819Y-124293428D02*
X168458819Y-124102952D01*
X168458819Y-124102952D02*
X168506438Y-124007714D01*
X168506438Y-124007714D02*
X168554057Y-123960095D01*
X168554057Y-123960095D02*
X168649295Y-123912476D01*
X168649295Y-123912476D02*
X168696914Y-123912476D01*
X168696914Y-123912476D02*
X168792152Y-123960095D01*
X168792152Y-123960095D02*
X168839771Y-124007714D01*
X168839771Y-124007714D02*
X168887390Y-124102952D01*
X168887390Y-124102952D02*
X168887390Y-124293428D01*
X168887390Y-124293428D02*
X168935009Y-124388666D01*
X168935009Y-124388666D02*
X168982628Y-124436285D01*
X168982628Y-124436285D02*
X169077866Y-124483904D01*
X169077866Y-124483904D02*
X169268342Y-124483904D01*
X169268342Y-124483904D02*
X169363580Y-124436285D01*
X169363580Y-124436285D02*
X169411200Y-124388666D01*
X169411200Y-124388666D02*
X169458819Y-124293428D01*
X169458819Y-124293428D02*
X169458819Y-124102952D01*
X169458819Y-124102952D02*
X169411200Y-124007714D01*
X169411200Y-124007714D02*
X169363580Y-123960095D01*
X169363580Y-123960095D02*
X169268342Y-123912476D01*
X169268342Y-123912476D02*
X169077866Y-123912476D01*
X169077866Y-123912476D02*
X168982628Y-123960095D01*
X168982628Y-123960095D02*
X168935009Y-124007714D01*
X168935009Y-124007714D02*
X168887390Y-124102952D01*
X134273523Y-56984580D02*
X134225904Y-57032200D01*
X134225904Y-57032200D02*
X134083047Y-57079819D01*
X134083047Y-57079819D02*
X133987809Y-57079819D01*
X133987809Y-57079819D02*
X133844952Y-57032200D01*
X133844952Y-57032200D02*
X133749714Y-56936961D01*
X133749714Y-56936961D02*
X133702095Y-56841723D01*
X133702095Y-56841723D02*
X133654476Y-56651247D01*
X133654476Y-56651247D02*
X133654476Y-56508390D01*
X133654476Y-56508390D02*
X133702095Y-56317914D01*
X133702095Y-56317914D02*
X133749714Y-56222676D01*
X133749714Y-56222676D02*
X133844952Y-56127438D01*
X133844952Y-56127438D02*
X133987809Y-56079819D01*
X133987809Y-56079819D02*
X134083047Y-56079819D01*
X134083047Y-56079819D02*
X134225904Y-56127438D01*
X134225904Y-56127438D02*
X134273523Y-56175057D01*
X134702095Y-57079819D02*
X134702095Y-56079819D01*
X134702095Y-56079819D02*
X135273523Y-57079819D01*
X135273523Y-57079819D02*
X135273523Y-56079819D01*
X135702095Y-56175057D02*
X135749714Y-56127438D01*
X135749714Y-56127438D02*
X135844952Y-56079819D01*
X135844952Y-56079819D02*
X136083047Y-56079819D01*
X136083047Y-56079819D02*
X136178285Y-56127438D01*
X136178285Y-56127438D02*
X136225904Y-56175057D01*
X136225904Y-56175057D02*
X136273523Y-56270295D01*
X136273523Y-56270295D02*
X136273523Y-56365533D01*
X136273523Y-56365533D02*
X136225904Y-56508390D01*
X136225904Y-56508390D02*
X135654476Y-57079819D01*
X135654476Y-57079819D02*
X136273523Y-57079819D01*
X175921200Y-127063332D02*
X175968819Y-126920475D01*
X175968819Y-126920475D02*
X175968819Y-126682380D01*
X175968819Y-126682380D02*
X175921200Y-126587142D01*
X175921200Y-126587142D02*
X175873580Y-126539523D01*
X175873580Y-126539523D02*
X175778342Y-126491904D01*
X175778342Y-126491904D02*
X175683104Y-126491904D01*
X175683104Y-126491904D02*
X175587866Y-126539523D01*
X175587866Y-126539523D02*
X175540247Y-126587142D01*
X175540247Y-126587142D02*
X175492628Y-126682380D01*
X175492628Y-126682380D02*
X175445009Y-126872856D01*
X175445009Y-126872856D02*
X175397390Y-126968094D01*
X175397390Y-126968094D02*
X175349771Y-127015713D01*
X175349771Y-127015713D02*
X175254533Y-127063332D01*
X175254533Y-127063332D02*
X175159295Y-127063332D01*
X175159295Y-127063332D02*
X175064057Y-127015713D01*
X175064057Y-127015713D02*
X175016438Y-126968094D01*
X175016438Y-126968094D02*
X174968819Y-126872856D01*
X174968819Y-126872856D02*
X174968819Y-126634761D01*
X174968819Y-126634761D02*
X175016438Y-126491904D01*
X174968819Y-126158570D02*
X175968819Y-125920475D01*
X175968819Y-125920475D02*
X175254533Y-125729999D01*
X175254533Y-125729999D02*
X175968819Y-125539523D01*
X175968819Y-125539523D02*
X174968819Y-125301428D01*
X174968819Y-125015713D02*
X174968819Y-124396666D01*
X174968819Y-124396666D02*
X175349771Y-124729999D01*
X175349771Y-124729999D02*
X175349771Y-124587142D01*
X175349771Y-124587142D02*
X175397390Y-124491904D01*
X175397390Y-124491904D02*
X175445009Y-124444285D01*
X175445009Y-124444285D02*
X175540247Y-124396666D01*
X175540247Y-124396666D02*
X175778342Y-124396666D01*
X175778342Y-124396666D02*
X175873580Y-124444285D01*
X175873580Y-124444285D02*
X175921200Y-124491904D01*
X175921200Y-124491904D02*
X175968819Y-124587142D01*
X175968819Y-124587142D02*
X175968819Y-124872856D01*
X175968819Y-124872856D02*
X175921200Y-124968094D01*
X175921200Y-124968094D02*
X175873580Y-125015713D01*
X113538095Y-49664819D02*
X113538095Y-50474342D01*
X113538095Y-50474342D02*
X113585714Y-50569580D01*
X113585714Y-50569580D02*
X113633333Y-50617200D01*
X113633333Y-50617200D02*
X113728571Y-50664819D01*
X113728571Y-50664819D02*
X113919047Y-50664819D01*
X113919047Y-50664819D02*
X114014285Y-50617200D01*
X114014285Y-50617200D02*
X114061904Y-50569580D01*
X114061904Y-50569580D02*
X114109523Y-50474342D01*
X114109523Y-50474342D02*
X114109523Y-49664819D01*
X114490476Y-49664819D02*
X115109523Y-49664819D01*
X115109523Y-49664819D02*
X114776190Y-50045771D01*
X114776190Y-50045771D02*
X114919047Y-50045771D01*
X114919047Y-50045771D02*
X115014285Y-50093390D01*
X115014285Y-50093390D02*
X115061904Y-50141009D01*
X115061904Y-50141009D02*
X115109523Y-50236247D01*
X115109523Y-50236247D02*
X115109523Y-50474342D01*
X115109523Y-50474342D02*
X115061904Y-50569580D01*
X115061904Y-50569580D02*
X115014285Y-50617200D01*
X115014285Y-50617200D02*
X114919047Y-50664819D01*
X114919047Y-50664819D02*
X114633333Y-50664819D01*
X114633333Y-50664819D02*
X114538095Y-50617200D01*
X114538095Y-50617200D02*
X114490476Y-50569580D01*
X109538094Y-54679104D02*
X110014284Y-54679104D01*
X109442856Y-54964819D02*
X109776189Y-53964819D01*
X109776189Y-53964819D02*
X110109522Y-54964819D01*
X110442856Y-54298152D02*
X110442856Y-54964819D01*
X110442856Y-54393390D02*
X110490475Y-54345771D01*
X110490475Y-54345771D02*
X110585713Y-54298152D01*
X110585713Y-54298152D02*
X110728570Y-54298152D01*
X110728570Y-54298152D02*
X110823808Y-54345771D01*
X110823808Y-54345771D02*
X110871427Y-54441009D01*
X110871427Y-54441009D02*
X110871427Y-54964819D01*
X111204761Y-54298152D02*
X111585713Y-54298152D01*
X111347618Y-53964819D02*
X111347618Y-54821961D01*
X111347618Y-54821961D02*
X111395237Y-54917200D01*
X111395237Y-54917200D02*
X111490475Y-54964819D01*
X111490475Y-54964819D02*
X111585713Y-54964819D01*
X112299999Y-54917200D02*
X112204761Y-54964819D01*
X112204761Y-54964819D02*
X112014285Y-54964819D01*
X112014285Y-54964819D02*
X111919047Y-54917200D01*
X111919047Y-54917200D02*
X111871428Y-54821961D01*
X111871428Y-54821961D02*
X111871428Y-54441009D01*
X111871428Y-54441009D02*
X111919047Y-54345771D01*
X111919047Y-54345771D02*
X112014285Y-54298152D01*
X112014285Y-54298152D02*
X112204761Y-54298152D01*
X112204761Y-54298152D02*
X112299999Y-54345771D01*
X112299999Y-54345771D02*
X112347618Y-54441009D01*
X112347618Y-54441009D02*
X112347618Y-54536247D01*
X112347618Y-54536247D02*
X111871428Y-54631485D01*
X112776190Y-54298152D02*
X112776190Y-54964819D01*
X112776190Y-54393390D02*
X112823809Y-54345771D01*
X112823809Y-54345771D02*
X112919047Y-54298152D01*
X112919047Y-54298152D02*
X113061904Y-54298152D01*
X113061904Y-54298152D02*
X113157142Y-54345771D01*
X113157142Y-54345771D02*
X113204761Y-54441009D01*
X113204761Y-54441009D02*
X113204761Y-54964819D01*
X113680952Y-54298152D02*
X113680952Y-54964819D01*
X113680952Y-54393390D02*
X113728571Y-54345771D01*
X113728571Y-54345771D02*
X113823809Y-54298152D01*
X113823809Y-54298152D02*
X113966666Y-54298152D01*
X113966666Y-54298152D02*
X114061904Y-54345771D01*
X114061904Y-54345771D02*
X114109523Y-54441009D01*
X114109523Y-54441009D02*
X114109523Y-54964819D01*
X115014285Y-54964819D02*
X115014285Y-54441009D01*
X115014285Y-54441009D02*
X114966666Y-54345771D01*
X114966666Y-54345771D02*
X114871428Y-54298152D01*
X114871428Y-54298152D02*
X114680952Y-54298152D01*
X114680952Y-54298152D02*
X114585714Y-54345771D01*
X115014285Y-54917200D02*
X114919047Y-54964819D01*
X114919047Y-54964819D02*
X114680952Y-54964819D01*
X114680952Y-54964819D02*
X114585714Y-54917200D01*
X114585714Y-54917200D02*
X114538095Y-54821961D01*
X114538095Y-54821961D02*
X114538095Y-54726723D01*
X114538095Y-54726723D02*
X114585714Y-54631485D01*
X114585714Y-54631485D02*
X114680952Y-54583866D01*
X114680952Y-54583866D02*
X114919047Y-54583866D01*
X114919047Y-54583866D02*
X115014285Y-54536247D01*
X116204762Y-54679104D02*
X116680952Y-54679104D01*
X116109524Y-54964819D02*
X116442857Y-53964819D01*
X116442857Y-53964819D02*
X116776190Y-54964819D01*
X117109524Y-54964819D02*
X117109524Y-54298152D01*
X117109524Y-54488628D02*
X117157143Y-54393390D01*
X117157143Y-54393390D02*
X117204762Y-54345771D01*
X117204762Y-54345771D02*
X117300000Y-54298152D01*
X117300000Y-54298152D02*
X117395238Y-54298152D01*
X118109524Y-54917200D02*
X118014286Y-54964819D01*
X118014286Y-54964819D02*
X117823810Y-54964819D01*
X117823810Y-54964819D02*
X117728572Y-54917200D01*
X117728572Y-54917200D02*
X117680953Y-54821961D01*
X117680953Y-54821961D02*
X117680953Y-54441009D01*
X117680953Y-54441009D02*
X117728572Y-54345771D01*
X117728572Y-54345771D02*
X117823810Y-54298152D01*
X117823810Y-54298152D02*
X118014286Y-54298152D01*
X118014286Y-54298152D02*
X118109524Y-54345771D01*
X118109524Y-54345771D02*
X118157143Y-54441009D01*
X118157143Y-54441009D02*
X118157143Y-54536247D01*
X118157143Y-54536247D02*
X117680953Y-54631485D01*
X119014286Y-54964819D02*
X119014286Y-54441009D01*
X119014286Y-54441009D02*
X118966667Y-54345771D01*
X118966667Y-54345771D02*
X118871429Y-54298152D01*
X118871429Y-54298152D02*
X118680953Y-54298152D01*
X118680953Y-54298152D02*
X118585715Y-54345771D01*
X119014286Y-54917200D02*
X118919048Y-54964819D01*
X118919048Y-54964819D02*
X118680953Y-54964819D01*
X118680953Y-54964819D02*
X118585715Y-54917200D01*
X118585715Y-54917200D02*
X118538096Y-54821961D01*
X118538096Y-54821961D02*
X118538096Y-54726723D01*
X118538096Y-54726723D02*
X118585715Y-54631485D01*
X118585715Y-54631485D02*
X118680953Y-54583866D01*
X118680953Y-54583866D02*
X118919048Y-54583866D01*
X118919048Y-54583866D02*
X119014286Y-54536247D01*
X205049523Y-87989580D02*
X205001904Y-88037200D01*
X205001904Y-88037200D02*
X204859047Y-88084819D01*
X204859047Y-88084819D02*
X204763809Y-88084819D01*
X204763809Y-88084819D02*
X204620952Y-88037200D01*
X204620952Y-88037200D02*
X204525714Y-87941961D01*
X204525714Y-87941961D02*
X204478095Y-87846723D01*
X204478095Y-87846723D02*
X204430476Y-87656247D01*
X204430476Y-87656247D02*
X204430476Y-87513390D01*
X204430476Y-87513390D02*
X204478095Y-87322914D01*
X204478095Y-87322914D02*
X204525714Y-87227676D01*
X204525714Y-87227676D02*
X204620952Y-87132438D01*
X204620952Y-87132438D02*
X204763809Y-87084819D01*
X204763809Y-87084819D02*
X204859047Y-87084819D01*
X204859047Y-87084819D02*
X205001904Y-87132438D01*
X205001904Y-87132438D02*
X205049523Y-87180057D01*
X205478095Y-88084819D02*
X205478095Y-87084819D01*
X205478095Y-87084819D02*
X206049523Y-88084819D01*
X206049523Y-88084819D02*
X206049523Y-87084819D01*
X206573333Y-88084819D02*
X206763809Y-88084819D01*
X206763809Y-88084819D02*
X206859047Y-88037200D01*
X206859047Y-88037200D02*
X206906666Y-87989580D01*
X206906666Y-87989580D02*
X207001904Y-87846723D01*
X207001904Y-87846723D02*
X207049523Y-87656247D01*
X207049523Y-87656247D02*
X207049523Y-87275295D01*
X207049523Y-87275295D02*
X207001904Y-87180057D01*
X207001904Y-87180057D02*
X206954285Y-87132438D01*
X206954285Y-87132438D02*
X206859047Y-87084819D01*
X206859047Y-87084819D02*
X206668571Y-87084819D01*
X206668571Y-87084819D02*
X206573333Y-87132438D01*
X206573333Y-87132438D02*
X206525714Y-87180057D01*
X206525714Y-87180057D02*
X206478095Y-87275295D01*
X206478095Y-87275295D02*
X206478095Y-87513390D01*
X206478095Y-87513390D02*
X206525714Y-87608628D01*
X206525714Y-87608628D02*
X206573333Y-87656247D01*
X206573333Y-87656247D02*
X206668571Y-87703866D01*
X206668571Y-87703866D02*
X206859047Y-87703866D01*
X206859047Y-87703866D02*
X206954285Y-87656247D01*
X206954285Y-87656247D02*
X207001904Y-87608628D01*
X207001904Y-87608628D02*
X207049523Y-87513390D01*
X109799523Y-126597580D02*
X109751904Y-126645200D01*
X109751904Y-126645200D02*
X109609047Y-126692819D01*
X109609047Y-126692819D02*
X109513809Y-126692819D01*
X109513809Y-126692819D02*
X109370952Y-126645200D01*
X109370952Y-126645200D02*
X109275714Y-126549961D01*
X109275714Y-126549961D02*
X109228095Y-126454723D01*
X109228095Y-126454723D02*
X109180476Y-126264247D01*
X109180476Y-126264247D02*
X109180476Y-126121390D01*
X109180476Y-126121390D02*
X109228095Y-125930914D01*
X109228095Y-125930914D02*
X109275714Y-125835676D01*
X109275714Y-125835676D02*
X109370952Y-125740438D01*
X109370952Y-125740438D02*
X109513809Y-125692819D01*
X109513809Y-125692819D02*
X109609047Y-125692819D01*
X109609047Y-125692819D02*
X109751904Y-125740438D01*
X109751904Y-125740438D02*
X109799523Y-125788057D01*
X110228095Y-126692819D02*
X110228095Y-125692819D01*
X110228095Y-125692819D02*
X110799523Y-126692819D01*
X110799523Y-126692819D02*
X110799523Y-125692819D01*
X111799523Y-126692819D02*
X111228095Y-126692819D01*
X111513809Y-126692819D02*
X111513809Y-125692819D01*
X111513809Y-125692819D02*
X111418571Y-125835676D01*
X111418571Y-125835676D02*
X111323333Y-125930914D01*
X111323333Y-125930914D02*
X111228095Y-125978533D01*
X124574819Y-77333333D02*
X125289104Y-77333333D01*
X125289104Y-77333333D02*
X125431961Y-77380952D01*
X125431961Y-77380952D02*
X125527200Y-77476190D01*
X125527200Y-77476190D02*
X125574819Y-77619047D01*
X125574819Y-77619047D02*
X125574819Y-77714285D01*
X125574819Y-76857142D02*
X124574819Y-76857142D01*
X124574819Y-76857142D02*
X124574819Y-76476190D01*
X124574819Y-76476190D02*
X124622438Y-76380952D01*
X124622438Y-76380952D02*
X124670057Y-76333333D01*
X124670057Y-76333333D02*
X124765295Y-76285714D01*
X124765295Y-76285714D02*
X124908152Y-76285714D01*
X124908152Y-76285714D02*
X125003390Y-76333333D01*
X125003390Y-76333333D02*
X125051009Y-76380952D01*
X125051009Y-76380952D02*
X125098628Y-76476190D01*
X125098628Y-76476190D02*
X125098628Y-76857142D01*
X125574819Y-75333333D02*
X125574819Y-75904761D01*
X125574819Y-75619047D02*
X124574819Y-75619047D01*
X124574819Y-75619047D02*
X124717676Y-75714285D01*
X124717676Y-75714285D02*
X124812914Y-75809523D01*
X124812914Y-75809523D02*
X124860533Y-75904761D01*
X112847523Y-78845580D02*
X112799904Y-78893200D01*
X112799904Y-78893200D02*
X112657047Y-78940819D01*
X112657047Y-78940819D02*
X112561809Y-78940819D01*
X112561809Y-78940819D02*
X112418952Y-78893200D01*
X112418952Y-78893200D02*
X112323714Y-78797961D01*
X112323714Y-78797961D02*
X112276095Y-78702723D01*
X112276095Y-78702723D02*
X112228476Y-78512247D01*
X112228476Y-78512247D02*
X112228476Y-78369390D01*
X112228476Y-78369390D02*
X112276095Y-78178914D01*
X112276095Y-78178914D02*
X112323714Y-78083676D01*
X112323714Y-78083676D02*
X112418952Y-77988438D01*
X112418952Y-77988438D02*
X112561809Y-77940819D01*
X112561809Y-77940819D02*
X112657047Y-77940819D01*
X112657047Y-77940819D02*
X112799904Y-77988438D01*
X112799904Y-77988438D02*
X112847523Y-78036057D01*
X113276095Y-78940819D02*
X113276095Y-77940819D01*
X113276095Y-77940819D02*
X113847523Y-78940819D01*
X113847523Y-78940819D02*
X113847523Y-77940819D01*
X114228476Y-77940819D02*
X114895142Y-77940819D01*
X114895142Y-77940819D02*
X114466571Y-78940819D01*
X145313680Y-77326837D02*
X146027965Y-77326837D01*
X146027965Y-77326837D02*
X146170822Y-77374456D01*
X146170822Y-77374456D02*
X146266061Y-77469694D01*
X146266061Y-77469694D02*
X146313680Y-77612551D01*
X146313680Y-77612551D02*
X146313680Y-77707789D01*
X146313680Y-76850646D02*
X145313680Y-76850646D01*
X145313680Y-76850646D02*
X145313680Y-76469694D01*
X145313680Y-76469694D02*
X145361299Y-76374456D01*
X145361299Y-76374456D02*
X145408918Y-76326837D01*
X145408918Y-76326837D02*
X145504156Y-76279218D01*
X145504156Y-76279218D02*
X145647013Y-76279218D01*
X145647013Y-76279218D02*
X145742251Y-76326837D01*
X145742251Y-76326837D02*
X145789870Y-76374456D01*
X145789870Y-76374456D02*
X145837489Y-76469694D01*
X145837489Y-76469694D02*
X145837489Y-76850646D01*
X145408918Y-75898265D02*
X145361299Y-75850646D01*
X145361299Y-75850646D02*
X145313680Y-75755408D01*
X145313680Y-75755408D02*
X145313680Y-75517313D01*
X145313680Y-75517313D02*
X145361299Y-75422075D01*
X145361299Y-75422075D02*
X145408918Y-75374456D01*
X145408918Y-75374456D02*
X145504156Y-75326837D01*
X145504156Y-75326837D02*
X145599394Y-75326837D01*
X145599394Y-75326837D02*
X145742251Y-75374456D01*
X145742251Y-75374456D02*
X146313680Y-75945884D01*
X146313680Y-75945884D02*
X146313680Y-75326837D01*
D18*
%TO.C,CN6*%
X95974000Y-78732000D02*
X97679000Y-78732000D01*
X95974000Y-87892000D02*
X95974000Y-78732000D01*
X97679000Y-87892000D02*
X95974000Y-87892000D01*
X99689000Y-87892000D02*
X101609000Y-87892000D01*
X101609000Y-78732000D02*
X99689000Y-78732000D01*
%TO.C,LED1*%
X121425500Y-95455000D02*
X121425500Y-96925000D01*
X121425500Y-96925000D02*
X123710500Y-96925000D01*
X123710500Y-95455000D02*
X121425500Y-95455000D01*
D10*
%TO.C,SW1*%
X99453500Y-98080000D02*
X99453500Y-100990728D01*
X99453500Y-105199338D02*
X99453500Y-106231123D01*
X99453500Y-110378058D02*
X99453500Y-113320000D01*
X99453500Y-113320000D02*
X110883500Y-113320000D01*
X110883500Y-98080000D02*
X99453500Y-98080000D01*
X110883500Y-99313537D02*
X110883500Y-98080000D01*
X110883500Y-104109416D02*
X110883500Y-102581838D01*
X110883500Y-108822323D02*
X110883500Y-107276879D01*
X110883500Y-113320000D02*
X110885677Y-112004651D01*
D18*
%TO.C,LED3*%
X121425500Y-106455000D02*
X121425500Y-107925000D01*
X121425500Y-107925000D02*
X123710500Y-107925000D01*
X123710500Y-106455000D02*
X121425500Y-106455000D01*
%TO.C,CN4*%
X167090000Y-64925000D02*
X167590000Y-65425000D01*
X167090000Y-65925000D02*
X167090000Y-64925000D01*
X167590000Y-65425000D02*
X167090000Y-65925000D01*
X167785000Y-58015000D02*
X167785000Y-65625000D01*
X167785000Y-73985000D02*
X167785000Y-68425000D01*
X167830000Y-58015000D02*
X184470000Y-58015000D01*
X167830000Y-73985000D02*
X184515000Y-73985000D01*
X184515000Y-58015000D02*
X184515000Y-65625000D01*
X184515000Y-73985000D02*
X184515000Y-68425000D01*
D10*
%TO.C,SW4*%
X183200000Y-122000000D02*
X183200000Y-123604120D01*
X183200000Y-122000000D02*
X183483665Y-121716335D01*
X183200000Y-124995877D02*
X183200000Y-125869624D01*
X183200000Y-127166220D02*
X183200000Y-128800000D01*
X183200000Y-128800000D02*
X183483883Y-129083883D01*
X184419963Y-130019963D02*
X184700000Y-130300000D01*
X184422240Y-120777760D02*
X184700000Y-120500000D01*
X184700000Y-120500000D02*
X185517621Y-120500000D01*
X184700000Y-130300000D02*
X185535828Y-130300000D01*
X186858490Y-120500000D02*
X187422039Y-120500000D01*
X186889085Y-130300000D02*
X187440759Y-130300000D01*
X188738942Y-130300000D02*
X189360576Y-130300000D01*
X188739476Y-120500000D02*
X189346279Y-120500000D01*
X190648575Y-130300000D02*
X191500000Y-130300000D01*
X190683955Y-120500000D02*
X191500000Y-120500000D01*
X191500000Y-120500000D02*
X191758221Y-120758221D01*
X191500000Y-130300000D02*
X191775190Y-130024810D01*
X192724907Y-129075093D02*
X193000000Y-128800000D01*
X192743375Y-121743375D02*
X193000000Y-122000000D01*
X193000000Y-122000000D02*
X193000000Y-123613087D01*
X193000000Y-124976370D02*
X193000000Y-125837758D01*
X193000000Y-127188050D02*
X193000000Y-128800000D01*
D18*
%TO.C,CN5*%
X187590000Y-64840000D02*
X188090000Y-65340000D01*
X187590000Y-65840000D02*
X187590000Y-64840000D01*
X188090000Y-65340000D02*
X187590000Y-65840000D01*
X188285000Y-57930000D02*
X188285000Y-65540000D01*
X188285000Y-73900000D02*
X188285000Y-68340000D01*
X188330000Y-57930000D02*
X204970000Y-57930000D01*
X188330000Y-73900000D02*
X205015000Y-73900000D01*
X205015000Y-57930000D02*
X205015000Y-65540000D01*
X205015000Y-73900000D02*
X205015000Y-68340000D01*
%TO.C,CN3*%
X146590000Y-64925000D02*
X147090000Y-65425000D01*
X146590000Y-65925000D02*
X146590000Y-64925000D01*
X147090000Y-65425000D02*
X146590000Y-65925000D01*
X147285000Y-58015000D02*
X147285000Y-65625000D01*
X147285000Y-73985000D02*
X147285000Y-68425000D01*
X147330000Y-58015000D02*
X163970000Y-58015000D01*
X147330000Y-73985000D02*
X164015000Y-73985000D01*
X164015000Y-58015000D02*
X164015000Y-65625000D01*
X164015000Y-73985000D02*
X164015000Y-68425000D01*
%TO.C,SW2*%
X132152000Y-122500000D02*
X132152000Y-122530000D01*
X132152000Y-127030000D02*
X132152000Y-124430000D01*
X132152000Y-128960000D02*
X132152000Y-128930000D01*
X138612000Y-122500000D02*
X132152000Y-122500000D01*
X138612000Y-122500000D02*
X138612000Y-122530000D01*
X138612000Y-127030000D02*
X138612000Y-124430000D01*
X138612000Y-128930000D02*
X138612000Y-128960000D01*
X138612000Y-128960000D02*
X132152000Y-128960000D01*
D10*
%TO.C,DSP1*%
X130810000Y-79756000D02*
X135890000Y-79756000D01*
X130810000Y-86156000D02*
X196850000Y-86156000D01*
X130810000Y-115156000D02*
X196850000Y-115156000D01*
X130810000Y-117856000D02*
X130810000Y-79756000D01*
X135890000Y-117856000D02*
X130810000Y-117856000D01*
X184150000Y-117856000D02*
X143510000Y-117856000D01*
X191770000Y-79756000D02*
X196850000Y-79756000D01*
X196850000Y-79756000D02*
X196850000Y-117856000D01*
X196850000Y-117856000D02*
X191770000Y-117856000D01*
D19*
%TO.C,G\u002A\u002A\u002A*%
G36*
X202528910Y-127866546D02*
G01*
X202567474Y-127888512D01*
X202663869Y-127991101D01*
X202670920Y-128105765D01*
X202598250Y-128209822D01*
X202464987Y-128279158D01*
X202324818Y-128273115D01*
X202209273Y-128194507D01*
X202194108Y-128173763D01*
X202152840Y-128048620D01*
X202178577Y-127962079D01*
X202358560Y-127962079D01*
X202397497Y-127999373D01*
X202453996Y-128008429D01*
X202518086Y-127990586D01*
X202520786Y-127962079D01*
X202453723Y-127919430D01*
X202425350Y-127915728D01*
X202365445Y-127941644D01*
X202358560Y-127962079D01*
X202178577Y-127962079D01*
X202184965Y-127940598D01*
X202271203Y-127864426D01*
X202392277Y-127834833D01*
X202528910Y-127866546D01*
G37*
G36*
X202495192Y-127617102D02*
G01*
X202661772Y-127693068D01*
X202792008Y-127822775D01*
X202862314Y-127987450D01*
X202868414Y-128053404D01*
X202839829Y-128143556D01*
X202769052Y-128257156D01*
X202748418Y-128282975D01*
X202652347Y-128376920D01*
X202547843Y-128417813D01*
X202421858Y-128425582D01*
X202258305Y-128408490D01*
X202140505Y-128347215D01*
X202101526Y-128311813D01*
X202002383Y-128156467D01*
X201987296Y-128036319D01*
X202034107Y-128036319D01*
X202075065Y-128185600D01*
X202182118Y-128300158D01*
X202331535Y-128368181D01*
X202499586Y-128377854D01*
X202633352Y-128334653D01*
X202710337Y-128261117D01*
X202773008Y-128154011D01*
X202804998Y-128035984D01*
X202780849Y-127927539D01*
X202757904Y-127879754D01*
X202648699Y-127750457D01*
X202505269Y-127686652D01*
X202349997Y-127683498D01*
X202205268Y-127736152D01*
X202093465Y-127839774D01*
X202036974Y-127989520D01*
X202034107Y-128036319D01*
X201987296Y-128036319D01*
X201981014Y-127986294D01*
X202030440Y-127824023D01*
X202143685Y-127692387D01*
X202313769Y-127614113D01*
X202315858Y-127613650D01*
X202495192Y-127617102D01*
G37*
G36*
X202754232Y-127109333D02*
G01*
X202971928Y-127128548D01*
X203191553Y-127156726D01*
X203390842Y-127191683D01*
X203547527Y-127231234D01*
X203601921Y-127251592D01*
X203705476Y-127312565D01*
X203731016Y-127374069D01*
X203724236Y-127398117D01*
X203697009Y-127480815D01*
X203697662Y-127557678D01*
X203731672Y-127658577D01*
X203797882Y-127799852D01*
X203911297Y-128031604D01*
X203925415Y-129804506D01*
X203939532Y-131577407D01*
X203840342Y-131577407D01*
X203741153Y-131577407D01*
X203753658Y-129897206D01*
X203756507Y-129406133D01*
X203756479Y-128999388D01*
X203752681Y-128668620D01*
X203744216Y-128405478D01*
X203730192Y-128201610D01*
X203709713Y-128048665D01*
X203681885Y-127938293D01*
X203645814Y-127862141D01*
X203600604Y-127811859D01*
X203545362Y-127779095D01*
X203525939Y-127771143D01*
X203450913Y-127728867D01*
X203429095Y-127659719D01*
X203438968Y-127567155D01*
X203448254Y-127455731D01*
X203418848Y-127402520D01*
X203363743Y-127382308D01*
X203224842Y-127356827D01*
X203048934Y-127334390D01*
X202861149Y-127316899D01*
X202686616Y-127306254D01*
X202550465Y-127304354D01*
X202477826Y-127313100D01*
X202474436Y-127315057D01*
X202403689Y-127342733D01*
X202277534Y-127371869D01*
X202207921Y-127383624D01*
X202079835Y-127410004D01*
X202000445Y-127440435D01*
X201987757Y-127455313D01*
X201949932Y-127498167D01*
X201856022Y-127556044D01*
X201825531Y-127571207D01*
X201711712Y-127638198D01*
X201665257Y-127693672D01*
X201692821Y-127726208D01*
X201732830Y-127730327D01*
X201794810Y-127736644D01*
X201802558Y-127741914D01*
X201816935Y-127787892D01*
X201854732Y-127898718D01*
X201908264Y-128051916D01*
X201917456Y-128077954D01*
X201974150Y-128250480D01*
X202015458Y-128399302D01*
X202033006Y-128494011D01*
X202033130Y-128497955D01*
X202004580Y-128593729D01*
X201935449Y-128698097D01*
X201852960Y-128776126D01*
X201800550Y-128796385D01*
X201752963Y-128822665D01*
X201764213Y-128890716D01*
X201820784Y-128984358D01*
X201909161Y-129087409D01*
X202015827Y-129183687D01*
X202127269Y-129257011D01*
X202211518Y-129288418D01*
X202329826Y-129338623D01*
X202396907Y-129447304D01*
X202401988Y-129462311D01*
X202438492Y-129606570D01*
X202479407Y-129818970D01*
X202521071Y-130075303D01*
X202559817Y-130351362D01*
X202591982Y-130622940D01*
X202613413Y-130858976D01*
X202629242Y-131061877D01*
X202646152Y-131252353D01*
X202660756Y-131392520D01*
X202662120Y-131403593D01*
X202669741Y-131518266D01*
X202646621Y-131567770D01*
X202593700Y-131577407D01*
X202532101Y-131557297D01*
X202496173Y-131482392D01*
X202478813Y-131380418D01*
X202463232Y-131235714D01*
X202445103Y-131038944D01*
X202428128Y-130830530D01*
X202426787Y-130812626D01*
X202408126Y-130614664D01*
X202380315Y-130383932D01*
X202346854Y-130143562D01*
X202311247Y-129916686D01*
X202276997Y-129726436D01*
X202247605Y-129595941D01*
X202237951Y-129565547D01*
X202180076Y-129502503D01*
X202078292Y-129444393D01*
X201973866Y-129381365D01*
X201842232Y-129264377D01*
X201675023Y-129085248D01*
X201497000Y-128875996D01*
X201426660Y-128809472D01*
X201333186Y-128767580D01*
X201189241Y-128740679D01*
X201079847Y-128728893D01*
X200709344Y-128689427D01*
X200415382Y-128648178D01*
X200202656Y-128605982D01*
X200075862Y-128563674D01*
X200048508Y-128545241D01*
X200025211Y-128500560D01*
X200634168Y-128500560D01*
X200653743Y-128508536D01*
X200743719Y-128513627D01*
X200759472Y-128514118D01*
X200900028Y-128524775D01*
X201078565Y-128547044D01*
X201266964Y-128576304D01*
X201437107Y-128607936D01*
X201560876Y-128637322D01*
X201602349Y-128652584D01*
X201646479Y-128641654D01*
X201729813Y-128612131D01*
X201825650Y-128543133D01*
X201848706Y-128449022D01*
X201836133Y-128365067D01*
X201779881Y-128350231D01*
X201736412Y-128359299D01*
X201647684Y-128374921D01*
X201489142Y-128396613D01*
X201283241Y-128421506D01*
X201052744Y-128446696D01*
X200828178Y-128470902D01*
X200690483Y-128488436D01*
X200634168Y-128500560D01*
X200025211Y-128500560D01*
X200002862Y-128457696D01*
X199979113Y-128332407D01*
X199978982Y-128329886D01*
X199985190Y-128231878D01*
X200248236Y-128231878D01*
X200252180Y-128244326D01*
X200306554Y-128259375D01*
X200433478Y-128267694D01*
X200613077Y-128269745D01*
X200825479Y-128265990D01*
X201050812Y-128256891D01*
X201269204Y-128242911D01*
X201460780Y-128224510D01*
X201535841Y-128214477D01*
X201688344Y-128175237D01*
X201755073Y-128112021D01*
X201741495Y-128017240D01*
X201713880Y-127967328D01*
X201683651Y-127942362D01*
X201623662Y-127932411D01*
X201518838Y-127938379D01*
X201354103Y-127961171D01*
X201114383Y-128001693D01*
X201100448Y-128004150D01*
X200774367Y-128064297D01*
X200533199Y-128115135D01*
X200369851Y-128158672D01*
X200277227Y-128196917D01*
X200248236Y-128231878D01*
X199985190Y-128231878D01*
X199985560Y-128226039D01*
X200032455Y-128153346D01*
X200141444Y-128079722D01*
X200153437Y-128072866D01*
X200275855Y-128020804D01*
X200461220Y-127962665D01*
X200680904Y-127906778D01*
X200836956Y-127873993D01*
X201063489Y-127828665D01*
X201219393Y-127789662D01*
X201325607Y-127748876D01*
X201403072Y-127698201D01*
X201472728Y-127629529D01*
X201475069Y-127626936D01*
X201569461Y-127495448D01*
X201589165Y-127386998D01*
X201586069Y-127371111D01*
X201577656Y-127290896D01*
X201591463Y-127266823D01*
X201686711Y-127258520D01*
X201831193Y-127237148D01*
X201996620Y-127208011D01*
X202154704Y-127176415D01*
X202277156Y-127147665D01*
X202335385Y-127127316D01*
X202413694Y-127106532D01*
X202560732Y-127101266D01*
X202754232Y-127109333D01*
G37*
D18*
%TO.C,U1*%
X118144000Y-130973500D02*
X118144000Y-114973500D01*
X120044019Y-114973500D02*
X118144000Y-114973500D01*
X128664000Y-114973500D02*
X126949316Y-114973500D01*
X128664000Y-130973500D02*
X118144000Y-130973500D01*
X128664000Y-130973500D02*
X128664000Y-114973500D01*
X128904000Y-114733500D02*
X127664000Y-114733500D01*
X128904000Y-115973500D02*
X128904000Y-114733500D01*
%TO.C,JP3*%
X167276000Y-77880000D02*
X167276000Y-76500000D01*
X168656000Y-77880000D02*
X167276000Y-77880000D01*
X169926000Y-75120000D02*
X172576000Y-75120000D01*
X169926000Y-77880000D02*
X169926000Y-75120000D01*
X169926000Y-77880000D02*
X172576000Y-77880000D01*
X172576000Y-77880000D02*
X172576000Y-75120000D01*
%TO.C,JP4*%
X187850000Y-77880000D02*
X187850000Y-76500000D01*
X189230000Y-77880000D02*
X187850000Y-77880000D01*
X190500000Y-75120000D02*
X193150000Y-75120000D01*
X190500000Y-77880000D02*
X190500000Y-75120000D01*
X190500000Y-77880000D02*
X193150000Y-77880000D01*
X193150000Y-77880000D02*
X193150000Y-75120000D01*
%TO.C,CN8*%
X142384000Y-122572000D02*
X142384000Y-127872000D01*
X165354000Y-122572000D02*
X142384000Y-122572000D01*
X165354000Y-122572000D02*
X165354000Y-125222000D01*
X165354000Y-125222000D02*
X168004000Y-125222000D01*
X166624000Y-122572000D02*
X168004000Y-122572000D01*
X168004000Y-122572000D02*
X168004000Y-123952000D01*
X168004000Y-125222000D02*
X168004000Y-127872000D01*
X168004000Y-127872000D02*
X142384000Y-127872000D01*
%TO.C,LED2*%
X121425500Y-100955000D02*
X121425500Y-102425000D01*
X121425500Y-102425000D02*
X123710500Y-102425000D01*
X123710500Y-100955000D02*
X121425500Y-100955000D01*
%TO.C,CN2*%
X125904000Y-64925000D02*
X126404000Y-65425000D01*
X125904000Y-65925000D02*
X125904000Y-64925000D01*
X126404000Y-65425000D02*
X125904000Y-65925000D01*
X126599000Y-58015000D02*
X126599000Y-65625000D01*
X126599000Y-73985000D02*
X126599000Y-68425000D01*
X126644000Y-58015000D02*
X143284000Y-58015000D01*
X126644000Y-73985000D02*
X143329000Y-73985000D01*
X143329000Y-58015000D02*
X143329000Y-65625000D01*
X143329000Y-73985000D02*
X143329000Y-68425000D01*
%TO.C,SW3*%
X172284000Y-122500000D02*
X172284000Y-122530000D01*
X172284000Y-127030000D02*
X172284000Y-124430000D01*
X172284000Y-128960000D02*
X172284000Y-128930000D01*
X178744000Y-122500000D02*
X172284000Y-122500000D01*
X178744000Y-122500000D02*
X178744000Y-122530000D01*
X178744000Y-127030000D02*
X178744000Y-124430000D01*
X178744000Y-128930000D02*
X178744000Y-128960000D01*
X178744000Y-128960000D02*
X172284000Y-128960000D01*
%TO.C,TP1*%
X203774000Y-79822000D02*
X205674000Y-79822000D01*
X203774000Y-81722000D02*
X203774000Y-79822000D01*
X205674000Y-79822000D02*
X205674000Y-81722000D01*
X205674000Y-81722000D02*
X203774000Y-81722000D01*
%TO.C,U3*%
X105300000Y-51510000D02*
X105300000Y-58260000D01*
X105300000Y-51510000D02*
X123300000Y-51510000D01*
X105300000Y-76260000D02*
X105300000Y-77010000D01*
X105300000Y-77010000D02*
X106300000Y-77010000D01*
X123300000Y-51510000D02*
X123300000Y-58260000D01*
X123300000Y-57510000D02*
X105300000Y-57510000D01*
X123300000Y-76260000D02*
X123300000Y-77010000D01*
X123300000Y-77010000D02*
X122300000Y-77010000D01*
%TO.C,CN9*%
X203090000Y-88790000D02*
X204470000Y-88790000D01*
X203090000Y-90170000D02*
X203090000Y-88790000D01*
X203090000Y-91440000D02*
X203090000Y-106790000D01*
X203090000Y-91440000D02*
X205740000Y-91440000D01*
X203090000Y-106790000D02*
X208390000Y-106790000D01*
X205740000Y-88790000D02*
X208390000Y-88790000D01*
X205740000Y-91440000D02*
X205740000Y-88790000D01*
X208390000Y-88790000D02*
X208390000Y-106790000D01*
%TO.C,CN1*%
X105748500Y-116886000D02*
X105748500Y-115836000D01*
X105948500Y-116036000D02*
X108548500Y-116036000D01*
X105948500Y-130736000D02*
X105948500Y-116036000D01*
X106798500Y-115836000D02*
X105748500Y-115836000D01*
X112448500Y-116036000D02*
X115148500Y-116036000D01*
X115148500Y-116036000D02*
X115148500Y-117936000D01*
X115148500Y-121936000D02*
X115148500Y-130736000D01*
X115148500Y-130736000D02*
X105948500Y-130736000D01*
%TO.C,JP1*%
X126120000Y-77880000D02*
X126120000Y-76500000D01*
X127500000Y-77880000D02*
X126120000Y-77880000D01*
X128770000Y-75120000D02*
X131420000Y-75120000D01*
X128770000Y-77880000D02*
X128770000Y-75120000D01*
X128770000Y-77880000D02*
X131420000Y-77880000D01*
X131420000Y-77880000D02*
X131420000Y-75120000D01*
%TO.C,CN7*%
X112158000Y-92202000D02*
X112158000Y-79392000D01*
X114918000Y-79392000D02*
X112158000Y-79392000D01*
X114918000Y-92202000D02*
X112158000Y-92202000D01*
X114918000Y-92202000D02*
X114918000Y-79392000D01*
X114918000Y-93472000D02*
X114918000Y-94852000D01*
X114918000Y-94852000D02*
X113538000Y-94852000D01*
%TO.C,JP2*%
X146858861Y-77873504D02*
X146858861Y-76493504D01*
X148238861Y-77873504D02*
X146858861Y-77873504D01*
X149508861Y-75113504D02*
X152158861Y-75113504D01*
X149508861Y-77873504D02*
X149508861Y-75113504D01*
X149508861Y-77873504D02*
X152158861Y-77873504D01*
X152158861Y-77873504D02*
X152158861Y-75113504D01*
%TD*%
M02*
