M48
; DRILL file {KiCad 9.0.4} date 2025-09-16T13:47:32-0400
; FORMAT={-:-/ absolute / metric / decimal}
; #@! TF.CreationDate,2025-09-16T13:47:32-04:00
; #@! TF.GenerationSoftware,Kicad,Pcbnew,9.0.4
; #@! TF.FileFunction,MixedPlating,1,2
FMAT,2
METRIC
; #@! TA.AperFunction,Plated,PTH,ViaDrill
T1C0.300
; #@! TA.AperFunction,Plated,PTH,ComponentDrill
T2C0.600
; #@! TA.AperFunction,Plated,PTH,ComponentDrill
T3C0.700
; #@! TA.AperFunction,Plated,PTH,ComponentDrill
T4C0.889
; #@! TA.AperFunction,Plated,PTH,ComponentDrill
T5C0.890
; #@! TA.AperFunction,Plated,PTH,ComponentDrill
T6C1.000
; #@! TA.AperFunction,Plated,PTH,ComponentDrill
T7C1.570
; #@! TA.AperFunction,Plated,PTH,ComponentDrill
T8C1.850
; #@! TA.AperFunction,Plated,PTH,ComponentDrill
T9C3.200
; #@! TA.AperFunction,NonPlated,NPTH,ComponentDrill
T10C0.650
; #@! TA.AperFunction,NonPlated,NPTH,ComponentDrill
T11C3.250
%
G90
G05
T1
X104.902Y-80.264
X105.093Y-82.042
X105.093Y-85.09
X107.188Y-70.612
X107.696Y-59.944
X116.078Y-96.012
X116.586Y-62.23
X116.586Y-129.794
X117.251Y-83.566
X117.856Y-62.23
X118.618Y-84.328
X118.618Y-97.282
X119.126Y-87.122
X119.38Y-62.738
X119.38Y-64.262
X119.421Y-85.852
X121.666Y-83.058
X122.938Y-94.488
X123.19Y-83.82
X124.714Y-66.548
X125.476Y-103.632
X125.476Y-109.22
X125.477Y-98.044
X128.016Y-78.74
X128.524Y-68.834
X132.588Y-77.47
X134.366Y-98.044
X134.366Y-103.632
X137.16Y-125.73
X137.57Y-99.568
X139.954Y-121.412
X144.526Y-90.424
X146.304Y-91.44
X155.448Y-97.282
X157.82Y-109.982
X158.242Y-85.598
X158.496Y-108.204
X161.544Y-93.98
X163.068Y-98.298
X164.338Y-85.598
X164.338Y-109.982
X168.402Y-85.598
X168.402Y-92.202
X169.418Y-97.282
X170.942Y-85.598
X171.45Y-121.412
X177.038Y-85.598
X177.038Y-89.408
X177.038Y-95.504
X185.166Y-124.968
X185.42Y-93.98
X188.976Y-122.936
T3
X204.724Y-80.772
T4
X137.16Y-79.756
X137.16Y-117.856
X139.7Y-79.756
X139.7Y-117.856
X142.24Y-79.756
X142.24Y-117.856
X144.78Y-79.756
X147.32Y-79.756
X149.86Y-79.756
X152.4Y-79.756
X154.94Y-79.756
X157.48Y-79.756
X160.02Y-79.756
X162.56Y-79.756
X165.1Y-79.756
X167.64Y-79.756
X170.18Y-79.756
X172.72Y-79.756
X175.26Y-79.756
X177.8Y-79.756
X180.34Y-79.756
X182.88Y-79.756
X185.42Y-79.756
X185.42Y-117.856
X187.96Y-79.756
X187.96Y-117.856
X190.5Y-79.756
X190.5Y-117.856
T5
X131.404Y-66.125
X132.42Y-67.905
X133.436Y-66.125
X134.452Y-67.905
X135.468Y-66.125
X136.484Y-67.905
X137.5Y-66.125
X138.516Y-67.905
X152.09Y-66.125
X153.106Y-67.905
X154.122Y-66.125
X155.138Y-67.905
X156.154Y-66.125
X157.17Y-67.905
X158.186Y-66.125
X159.202Y-67.905
X172.59Y-66.125
X173.606Y-67.905
X174.622Y-66.125
X175.638Y-67.905
X176.654Y-66.125
X177.67Y-67.905
X178.686Y-66.125
X179.702Y-67.905
X193.09Y-66.04
X194.106Y-67.82
X195.122Y-66.04
X196.138Y-67.82
X197.154Y-66.04
X198.17Y-67.82
X199.186Y-66.04
X200.202Y-67.82
T6
X113.538Y-80.772
X113.538Y-83.312
X113.538Y-85.852
X113.538Y-88.392
X113.538Y-90.932
X113.538Y-93.472
X120.814Y-116.233
X123.354Y-116.233
X125.894Y-116.233
X127.5Y-76.5
X130.04Y-76.5
X143.764Y-123.952
X143.764Y-126.492
X146.304Y-123.952
X146.304Y-126.492
X148.239Y-76.494
X148.844Y-123.952
X148.844Y-126.492
X150.779Y-76.494
X151.384Y-123.952
X151.384Y-126.492
X153.924Y-123.952
X153.924Y-126.492
X156.464Y-123.952
X156.464Y-126.492
X159.004Y-123.952
X159.004Y-126.492
X161.544Y-123.952
X161.544Y-126.492
X164.084Y-123.952
X164.084Y-126.492
X166.624Y-123.952
X166.624Y-126.492
X168.656Y-76.5
X171.196Y-76.5
X189.23Y-76.5
X191.77Y-76.5
X204.47Y-90.17
X204.47Y-92.71
X204.47Y-95.25
X204.47Y-97.79
X204.47Y-100.33
X204.47Y-102.87
X204.47Y-105.41
X207.01Y-90.17
X207.01Y-92.71
X207.01Y-95.25
X207.01Y-97.79
X207.01Y-100.33
X207.01Y-102.87
X207.01Y-105.41
T7
X126.834Y-67.015
X143.094Y-67.015
X147.52Y-67.015
X163.78Y-67.015
X168.02Y-67.015
X184.28Y-67.015
X188.52Y-66.93
X204.78Y-66.93
T8
X99.453Y-103.16
X99.453Y-108.24
X112.153Y-101.0
X112.153Y-105.7
X112.153Y-110.4
T9
X99.822Y-61.551
X99.822Y-127.425
X209.55Y-61.551
X209.55Y-127.425
T10
X102.364Y-80.422
X102.364Y-86.202
T11
X128.614Y-63.585
X141.314Y-63.585
X149.3Y-63.585
X162.0Y-63.585
X169.8Y-63.585
X182.5Y-63.585
X190.3Y-63.5
X203.0Y-63.5
T2
G00X99.084Y-78.992
M15
G01X98.284Y-78.992
M16
G05
G00X99.084Y-87.632
M15
G01X98.284Y-87.632
M16
G05
G00X103.434Y-78.992
M15
G01X102.334Y-78.992
M16
G05
G00X103.434Y-87.632
M15
G01X102.334Y-87.632
M16
G05
T6
G00X109.548Y-116.936
M15
G01X111.548Y-116.936
M16
G05
G00X109.548Y-122.936
M15
G01X111.548Y-122.936
M16
G05
G00X115.248Y-120.936
M15
G01X115.248Y-118.936
M16
G05
M30
