%TF.GenerationSoftware,KiCad,Pcbnew,9.0.4*%
%TF.CreationDate,2025-09-16T13:45:21-04:00*%
%TF.ProjectId,cern-display-controller,6365726e-2d64-4697-9370-6c61792d636f,rev?*%
%TF.SameCoordinates,Original*%
%TF.FileFunction,Soldermask,Top*%
%TF.FilePolarity,Negative*%
%FSLAX46Y46*%
G04 Gerber Fmt 4.6, Leading zero omitted, Abs format (unit mm)*
G04 Created by KiCad (PCBNEW 9.0.4) date 2025-09-16 13:45:21*
%MOMM*%
%LPD*%
G01*
G04 APERTURE LIST*
G04 Aperture macros list*
%AMRoundRect*
0 Rectangle with rounded corners*
0 $1 Rounding radius*
0 $2 $3 $4 $5 $6 $7 $8 $9 X,Y pos of 4 corners*
0 Add a 4 corners polygon primitive as box body*
4,1,4,$2,$3,$4,$5,$6,$7,$8,$9,$2,$3,0*
0 Add four circle primitives for the rounded corners*
1,1,$1+$1,$2,$3*
1,1,$1+$1,$4,$5*
1,1,$1+$1,$6,$7*
1,1,$1+$1,$8,$9*
0 Add four rect primitives between the rounded corners*
20,1,$1+$1,$2,$3,$4,$5,0*
20,1,$1+$1,$4,$5,$6,$7,0*
20,1,$1+$1,$6,$7,$8,$9,0*
20,1,$1+$1,$8,$9,$2,$3,0*%
G04 Aperture macros list end*
%ADD10C,0.751600*%
%ADD11RoundRect,0.050800X-0.620000X0.300000X-0.620000X-0.300000X0.620000X-0.300000X0.620000X0.300000X0*%
%ADD12RoundRect,0.050800X-0.620000X0.150000X-0.620000X-0.150000X0.620000X-0.150000X0.620000X0.150000X0*%
%ADD13O,2.201600X1.101600*%
%ADD14O,1.901600X1.101600*%
%ADD15RoundRect,0.244150X-0.244150X-0.281650X0.244150X-0.281650X0.244150X0.281650X-0.244150X0.281650X0*%
%ADD16C,3.601600*%
%ADD17C,3.351600*%
%ADD18RoundRect,0.050800X-0.750000X-0.750000X0.750000X-0.750000X0.750000X0.750000X-0.750000X0.750000X0*%
%ADD19C,1.601600*%
%ADD20C,2.401600*%
%ADD21C,3.701600*%
%ADD22C,5.701600*%
%ADD23RoundRect,0.165240X0.000000X-0.545264X0.545264X0.000000X0.000000X0.545264X-0.545264X0.000000X0*%
%ADD24RoundRect,0.165240X-0.385560X-0.385560X0.385560X-0.385560X0.385560X0.385560X-0.385560X0.385560X0*%
%ADD25RoundRect,0.050800X0.775000X0.650000X-0.775000X0.650000X-0.775000X-0.650000X0.775000X-0.650000X0*%
%ADD26C,2.006600*%
%ADD27RoundRect,0.050800X0.750000X1.150000X-0.750000X1.150000X-0.750000X-1.150000X0.750000X-1.150000X0*%
%ADD28O,1.601600X2.401600*%
%ADD29RoundRect,0.050800X0.850000X-0.850000X0.850000X0.850000X-0.850000X0.850000X-0.850000X-0.850000X0*%
%ADD30C,1.801600*%
%ADD31RoundRect,0.050800X-0.850000X0.850000X-0.850000X-0.850000X0.850000X-0.850000X0.850000X0.850000X0*%
%ADD32RoundRect,0.050800X-0.750000X-0.450000X0.750000X-0.450000X0.750000X0.450000X-0.750000X0.450000X0*%
%ADD33RoundRect,0.050800X0.750000X0.450000X-0.750000X0.450000X-0.750000X-0.450000X0.750000X-0.450000X0*%
%ADD34RoundRect,0.050800X0.400000X0.400000X-0.400000X0.400000X-0.400000X-0.400000X0.400000X-0.400000X0*%
%ADD35RoundRect,0.050800X-0.850000X-0.850000X0.850000X-0.850000X0.850000X0.850000X-0.850000X0.850000X0*%
%ADD36RoundRect,0.050800X1.750000X-1.750000X1.750000X1.750000X-1.750000X1.750000X-1.750000X-1.750000X0*%
%ADD37RoundRect,0.775400X1.025400X-0.775400X1.025400X0.775400X-1.025400X0.775400X-1.025400X-0.775400X0*%
%ADD38RoundRect,0.900400X0.900400X-0.900400X0.900400X0.900400X-0.900400X0.900400X-0.900400X-0.900400X0*%
%ADD39RoundRect,0.050800X0.850000X0.850000X-0.850000X0.850000X-0.850000X-0.850000X0.850000X-0.850000X0*%
G04 APERTURE END LIST*
D10*
%TO.C,CN6*%
X102364000Y-80422000D03*
X102364000Y-86202000D03*
D11*
X103484000Y-80112000D03*
X103484000Y-80912000D03*
D12*
X103484000Y-82062000D03*
X103484000Y-83062000D03*
X103484000Y-83562000D03*
X103484000Y-84562000D03*
D11*
X103484000Y-85712000D03*
X103484000Y-86512000D03*
X103484000Y-86512000D03*
X103484000Y-85712000D03*
D12*
X103484000Y-85062000D03*
X103484000Y-84062000D03*
X103484000Y-82562000D03*
X103484000Y-81562000D03*
D11*
X103484000Y-80912000D03*
X103484000Y-80112000D03*
D13*
X102884000Y-78992000D03*
D14*
X98684000Y-78992000D03*
D13*
X102884000Y-87632000D03*
D14*
X98684000Y-87632000D03*
%TD*%
D15*
%TO.C,LED1*%
X122123000Y-96190000D03*
X123698000Y-96190000D03*
%TD*%
D16*
%TO.C,SW1*%
X99453500Y-103160000D03*
X99453500Y-108240000D03*
X112153500Y-110400000D03*
X112153500Y-105700000D03*
X112153500Y-101000000D03*
%TD*%
D15*
%TO.C,LED3*%
X122123000Y-107190000D03*
X123698000Y-107190000D03*
%TD*%
D17*
%TO.C,CN4*%
X169800000Y-63585000D03*
X182500000Y-63585000D03*
D18*
X172590000Y-66125000D03*
D19*
X173606000Y-67905000D03*
X174622000Y-66125000D03*
X175638000Y-67905000D03*
X176654000Y-66125000D03*
X177670000Y-67905000D03*
X178686000Y-66125000D03*
X179702000Y-67905000D03*
D20*
X168020000Y-67015000D03*
X184280000Y-67015000D03*
%TD*%
D21*
%TO.C,REF\u002A\u002A*%
X209550000Y-61550550D03*
D22*
X209550000Y-61550550D03*
%TD*%
D23*
%TO.C,SW4*%
X183950000Y-121250000D03*
X183950000Y-129550000D03*
X192250000Y-121250000D03*
X192250000Y-129550000D03*
D24*
X183200000Y-126500000D03*
X193000000Y-126500000D03*
X193000000Y-124300000D03*
X183200000Y-124300000D03*
X186200000Y-120500000D03*
X188100000Y-120500000D03*
X190000000Y-120500000D03*
X186200000Y-130300000D03*
X188100000Y-130300000D03*
X190000000Y-130300000D03*
%TD*%
D17*
%TO.C,CN5*%
X190300000Y-63500000D03*
X203000000Y-63500000D03*
D18*
X193090000Y-66040000D03*
D19*
X194106000Y-67820000D03*
X195122000Y-66040000D03*
X196138000Y-67820000D03*
X197154000Y-66040000D03*
X198170000Y-67820000D03*
X199186000Y-66040000D03*
X200202000Y-67820000D03*
D20*
X188520000Y-66930000D03*
X204780000Y-66930000D03*
%TD*%
D17*
%TO.C,CN3*%
X149300000Y-63585000D03*
X162000000Y-63585000D03*
D18*
X152090000Y-66125000D03*
D19*
X153106000Y-67905000D03*
X154122000Y-66125000D03*
X155138000Y-67905000D03*
X156154000Y-66125000D03*
X157170000Y-67905000D03*
X158186000Y-66125000D03*
X159202000Y-67905000D03*
D20*
X147520000Y-67015000D03*
X163780000Y-67015000D03*
%TD*%
D25*
%TO.C,SW2*%
X139362000Y-127980000D03*
X131402000Y-127980000D03*
X139362000Y-123480000D03*
X131402000Y-123480000D03*
%TD*%
D26*
%TO.C,DSP1*%
X137160000Y-117856000D03*
X139700000Y-117856000D03*
X142240000Y-117856000D03*
X185420000Y-117856000D03*
X187960000Y-117856000D03*
X190500000Y-117856000D03*
X190500000Y-79756000D03*
X187960000Y-79756000D03*
X185420000Y-79756000D03*
X182880000Y-79756000D03*
X180340000Y-79756000D03*
X177800000Y-79756000D03*
X175260000Y-79756000D03*
X172720000Y-79756000D03*
X170180000Y-79756000D03*
X167640000Y-79756000D03*
X165100000Y-79756000D03*
X162560000Y-79756000D03*
X160020000Y-79756000D03*
X157480000Y-79756000D03*
X154940000Y-79756000D03*
X152400000Y-79756000D03*
X149860000Y-79756000D03*
X147320000Y-79756000D03*
X144780000Y-79756000D03*
X142240000Y-79756000D03*
X139700000Y-79756000D03*
X137160000Y-79756000D03*
%TD*%
D21*
%TO.C,REF\u002A\u002A*%
X99822000Y-127425450D03*
D22*
X99822000Y-127425450D03*
%TD*%
D27*
%TO.C,U1*%
X125894000Y-116233500D03*
D28*
X123354000Y-116233500D03*
X120814000Y-116233500D03*
%TD*%
D29*
%TO.C,JP3*%
X168656000Y-76500000D03*
D30*
X171196000Y-76500000D03*
%TD*%
D29*
%TO.C,JP4*%
X189230000Y-76500000D03*
D30*
X191770000Y-76500000D03*
%TD*%
D31*
%TO.C,CN8*%
X166624000Y-123952000D03*
D30*
X166624000Y-126492000D03*
X164084000Y-123952000D03*
X164084000Y-126492000D03*
X161544000Y-123952000D03*
X161544000Y-126492000D03*
X159004000Y-123952000D03*
X159004000Y-126492000D03*
X156464000Y-123952000D03*
X156464000Y-126492000D03*
X153924000Y-123952000D03*
X153924000Y-126492000D03*
X151384000Y-123952000D03*
X151384000Y-126492000D03*
X148844000Y-123952000D03*
X148844000Y-126492000D03*
X146304000Y-123952000D03*
X146304000Y-126492000D03*
X143764000Y-123952000D03*
X143764000Y-126492000D03*
%TD*%
D15*
%TO.C,LED2*%
X122123000Y-101690000D03*
X123698000Y-101690000D03*
%TD*%
D17*
%TO.C,CN2*%
X128614000Y-63585000D03*
X141314000Y-63585000D03*
D18*
X131404000Y-66125000D03*
D19*
X132420000Y-67905000D03*
X133436000Y-66125000D03*
X134452000Y-67905000D03*
X135468000Y-66125000D03*
X136484000Y-67905000D03*
X137500000Y-66125000D03*
X138516000Y-67905000D03*
D20*
X126834000Y-67015000D03*
X143094000Y-67015000D03*
%TD*%
D25*
%TO.C,SW3*%
X179494000Y-127980000D03*
X171534000Y-127980000D03*
X179494000Y-123480000D03*
X171534000Y-123480000D03*
%TD*%
D21*
%TO.C,REF\u002A\u002A*%
X99822000Y-61550550D03*
D22*
X99822000Y-61550550D03*
%TD*%
D18*
%TO.C,TP1*%
X204724000Y-80772000D03*
%TD*%
D32*
%TO.C,U3*%
X105550000Y-59000000D03*
X105550000Y-60270000D03*
X105550000Y-61540000D03*
X105550000Y-62810000D03*
X105550000Y-64080000D03*
X105550000Y-65350000D03*
X105550000Y-66620000D03*
X105550000Y-67890000D03*
X105550000Y-69160000D03*
X105550000Y-70430000D03*
X105550000Y-71700000D03*
X105550000Y-72970000D03*
X105550000Y-74240000D03*
X105550000Y-75510000D03*
D33*
X123050000Y-75510000D03*
X123050000Y-74240000D03*
X123050000Y-72970000D03*
X123050000Y-71700000D03*
X123050000Y-70430000D03*
X123050000Y-69160000D03*
X123050000Y-67890000D03*
X123050000Y-66620000D03*
X123050000Y-65350000D03*
X123050000Y-64080000D03*
X123050000Y-62810000D03*
X123050000Y-61540000D03*
X123050000Y-60270000D03*
X123050000Y-59000000D03*
D34*
X111545000Y-63470000D03*
X111545000Y-64720000D03*
X111545000Y-65970000D03*
X112795000Y-63470000D03*
X112795000Y-64720000D03*
X112795000Y-65970000D03*
X114045000Y-63470000D03*
X114045000Y-64720000D03*
X114045000Y-65970000D03*
%TD*%
D35*
%TO.C,CN9*%
X204470000Y-90170000D03*
D30*
X207010000Y-90170000D03*
X204470000Y-92710000D03*
X207010000Y-92710000D03*
X204470000Y-95250000D03*
X207010000Y-95250000D03*
X204470000Y-97790000D03*
X207010000Y-97790000D03*
X204470000Y-100330000D03*
X207010000Y-100330000D03*
X204470000Y-102870000D03*
X207010000Y-102870000D03*
X204470000Y-105410000D03*
X207010000Y-105410000D03*
%TD*%
D36*
%TO.C,CN1*%
X110548500Y-116936000D03*
D37*
X110548500Y-122936000D03*
D38*
X115248500Y-119936000D03*
%TD*%
D29*
%TO.C,JP1*%
X127500000Y-76500000D03*
D30*
X130040000Y-76500000D03*
%TD*%
D39*
%TO.C,CN7*%
X113538000Y-93472000D03*
D30*
X113538000Y-90932000D03*
X113538000Y-88392000D03*
X113538000Y-85852000D03*
X113538000Y-83312000D03*
X113538000Y-80772000D03*
%TD*%
D29*
%TO.C,JP2*%
X148238861Y-76493504D03*
D30*
X150778861Y-76493504D03*
%TD*%
D21*
%TO.C,REF\u002A\u002A*%
X209550000Y-127425450D03*
D22*
X209550000Y-127425450D03*
%TD*%
M02*
